<?xml version="1.0" encoding="utf-8"?>
<!-- Generator: Adobe Illustrator 24.2.0, SVG Export Plug-In . SVG Version: 6.00 Build 0)  -->
<svg version="1.1" id="Layer_1" xmlns="http://www.w3.org/2000/svg" xmlns:xlink="http://www.w3.org/1999/xlink" x="0px" y="0px"
	 viewBox="0 0 57 57" style="enable-background:new 0 0 57 57;" xml:space="preserve">
<style type="text/css">
	.st0{fill-rule:evenodd;clip-rule:evenodd;fill:#25D366;}
	.st1{fill-rule:evenodd;clip-rule:evenodd;fill:#FFFFFF;}
</style>
<g>
	<g>
		<path class="st0" d="M28.5,56.1c15.3,0,27.6-12.4,27.6-27.6S43.8,0.9,28.5,0.9S0.9,13.2,0.9,28.5S13.2,56.1,28.5,56.1z"/>
	</g>
	<path class="st1" d="M41.2,21.6c0.2,0,0.5,0.1,0.7,0.2c0.4,0.2,0.6,0.7,0.6,1.1v10.7c0,0.5-0.2,0.9-0.6,1.1
		C41.7,35,41.5,35,41.2,35c-0.2,0-0.4,0-0.6-0.1l-3.4-1.7v0.5c0,2.2-1.8,4-4,4H18.4c-2.2,0-4-1.8-4-4V22.9c0-2.2,1.8-4,4-4h14.8
		c2.2,0,4,1.8,4,4v0.5l3.4-1.7C40.8,21.7,41,21.6,41.2,21.6z M19.1,28.3c0,1.1,0.9,2,2,2c1.1,0,2-0.9,2-2c0-1.1-0.9-2-2-2
		C20,26.3,19.1,27.2,19.1,28.3z"/>
</g>
</svg>
