<svg xmlns="http://www.w3.org/2000/svg" viewBox="0 0 120 100" id="activity-gray"><g fill="none" fill-rule="evenodd"><path d="M95.47 41.8c.01-1.58.03-3.06.2-4.29.17-1.18.26-2.18.29-3.79.03-1.69.11-3.64.06-5.35-.03-1.12-.19-1.95-.25-2.95l-.01-.15c-.04-.64-.59-1.13-1.24-1.09-.26.02-.53.03-.82.03-.68 0-1.3-.04-1.97-.05h-.65l-1.02-.02c-1.51-.05-3.08-.07-4.63-.07-.89 0-1.76.02-2.63.05-1.73.06-3.58.15-5.08.3-.33.03-.6.07-.82.11-.41.07-.66.17-.86.27-.33.16-.64.33-.82.5-.04.04-.06.08-.08.12h-1.33c-.09-.08-.19-.16-.31-.24-.25-.17-.57-.34-.85-.51-.1-.06-.08-.12-.3-.18-.15-.04-.34-.07-.51-.1-.06-.01-.44-.1-.52-.1-.23 0-.46-.05-.65-.06-.19-.02-.38-.03-.57-.05-.22-.01-.47-.03-.69-.04-.19 0-.36 0-.54-.01l-.71-.03c-.27 0-.54-.01-.8-.01-.36 0-.69-.01-1.05.01-.27.01-.57.03-.85.02-.02.01-.07.02-.14.01-.02.02-.25.03-.34.03-.73.05-1.41.03-2.16 0-1.76-.09-3.8-.27-5.59-.1-.54.05-.99.11-1.61.14-.78.03-1.62.02-2.42.02-1.53 0-3.08.02-4.59.06-1.54.04-2.98.16-4.56.15-2-.01-3.98-.19-5.98-.14-.74.03-1.39.09-2.07.13-.94.06-1.92.08-2.93.07-2.07-.01-4.01-.1-5.97-.2-.61-.03-1.25-.06-1.9-.06h-.02c-.66.01-1.19.55-1.18 1.2v.29c.02.86.09 1.61.15 2.38.2 2.53.22 5.32.2 8.06-.02 2.35-.12 4.45-.21 6.71-.08 2.2.02 4.11.05 6.3.03 2.1-.14 3.99-.12 6.07.02 1.81.25 3.16.27 4.96.02 2.24-.1 4.34-.03 6.62.05 1.59.22 3.13.12 4.74-.08 1.28-.16 2.4-.13 3.57v.05c.01.57.49 1.02 1.06 1.01.51-.01 1.03-.05 1.58-.11.83-.1 1.5-.23 2.44-.3 1.27-.1 2.71-.05 4.01.01 3.36.15 6.54.36 10.09.34 2.08-.01 4.16-.09 6.22-.01 1.97.08 3.73.34 5.82.34 1.8.01 3.09-.3 4.86-.25 1.68.05 2.84.31 4.62.16 1.47-.13 2.25-.28 3.99-.16.52.03 1.01.07 1.59.07l2.08-.06c2.04-.02 4.06.11 6.05.16 1.71.04 3.47.07 5.2.06 2.06-.01 4.03-.02 6.09.01 1.71.02 3.21-.04 4.67-.13l.15-.01h.01c.61-.04 1.07-.57 1.02-1.18-.08-1.18-.17-2.39-.26-3.64-.22-3.23-.27-6.47 0-9.58.06-.68.14-1.38.15-2.18.01-.81-.07-1.63-.12-2.36-.12-1.76-.23-3.56-.24-5.48-.02-1.8.03-3.59.04-5.37.03-1.58.04-3.15.05-4.72z" fill="#B1B1BA"></path><path d="M89.12 52.56c-.14-.35-.3-.58-.47-.67 0-.11.01-.21.01-.32v-.06c.03.03.05.06.08.06.02 0 .05-.02.07-.05-.03-.05-.07-.11-.1-.18-.22-.44-.46-1.12-.6-2.27-.05-.38-.07-.8-.09-1.23h-.25l-.03-.43c-.02-.25-.03-.5-.04-.75-.02-.05-.03-.11-.06-.16-.23-.48-.41-.64-.74-1.13-.36-.52-.81-1.02-1.3-1.38-.49-.37-.97-.52-1.54-.56-.55-.03-1.2.07-1.89.29-.97.29-1.53.52-2.76.7-.74.11-1.84.17-2.86.1-1.03-.07-1.94-.25-2.41-.24-1.27-.35-2.44-.77-3.42-.87-.49-.05-.93-.02-1.35.1-.37.1-.76.33-1.14.64-.91.74-1.77 2.02-2 3.22 0 .03.01.06.01.09.04.56.04 1.26.01 1.67l-.11 1.12-.03.29c-.03.32-.08.56-.14.77-.05.17-.11.31-.17.33-.1.04-.2 0-.3.06-.06.03-.12.14-.19.15-.07.01-.15-.13-.22-.27-.06-.02-.13-.18-.2-.31-.05-.1-.1-.22-.15-.29-.05-.07-.09-.19-.14-.29-.01-.03-.03-.05-.04-.07.01 1.51.12 3.16.33 4.73.27 1.9.77 3.85 1.33 5.61.14.47.3.95.52 1.42.2.48.42.96.73 1.4.52.83 1.03 1.23 1.6 1.87 1.03 1.04 1.91 2.22 3.17 3.06 1.37.92 2.95 1.32 4.55 1.53.57-.12 2.22-.15 3.1-.36.7-.22 1.06-.34 1.64-.7.41-.27.89-.48 1.28-.79.41-.29.85-.6 1.21-.96.39-.35.75-.71 1.03-1.1.26-.36.32-.52.51-.86.23-.45.66-.92.93-1.41.5-.76.91-1.58 1.29-2.4.13-.36.27-.73.4-1.09.1-.23.2-.43.26-.68l.35-1.22.27-1.24c.12-.46.19-.94.25-1.41.07-.47.13-.93.12-1.37 0-.5-.02-.91-.06-1.26-.08-.34-.16-.61-.25-.83zM62.93 31.67a.707.707 0 0 1-.11-.25c-.02-.09.01-.22-.04-.28-.08-.09-.3-.04-.49.02-.31.09-.65.17-1 .34-.01.02-.04.04-.08.06-.07.04-.18.07-.21.08-.09.09-.27.17-.36.22-.17.1-.32.14-.48.24-.23.14-.44.34-.65.54-.13-.08-.25-.15-.38-.23-.04-.03-.1-.04-.14-.08-.03-.02-.04-.04-.07-.06-.02-.01-.05-.03-.07-.04-.07-.05-.13-.13-.2-.19-.08-.07-.13-.1-.2-.18-.18-.21-.39-.41-.58-.61-.25-.28-.49-.58-.79-.85l-.04-.04-.05-.04c-.42-.37-1.07-.36-1.48.04-.25.25-.52.51-.77.76-.48.46-.96.92-1.39 1.42-.17.19-.32.39-.47.58-.18-.19-.33-.39-.49-.61-.45-.63-.94-1.24-1.51-1.85-.12-.12-.23-.24-.34-.35-.42-.41-1.08-.45-1.54-.08l-.1.08c-.87.73-1.68 1.52-2.49 2.31-.57-.53-1.13-1.08-1.58-1.65-.22-.27-.44-.56-.7-.82-.49-.49-1.29-.53-1.82-.07l-.09.07c-.1.09-.2.18-.3.28-.32.34-.43.65-.68.99-.32.43-.79.69-1.23.97-.05-.06-.1-.11-.14-.17-.33-.01-.75-.63-1-.94-.21-.25-.35-.34-.6-.51-.18-.13-.35-.29-.51-.44-.06-.05-.12-.11-.18-.17-.52-.48-1.34-.5-1.87-.01l-.01.01c-.29.26-.6.54-.83.82-.13.16-.13.28-.23.44-.13.21-.37.4-.57.58-.25.23-.5.45-.75.68-.13-.08-.24-.18-.36-.27-.35-.31-.72-.63-1.09-.86-.43-.27-.79-.37-1.08-.37-.29-.01-.54.06-.69.22-.14.14-.15.37-.14.62.06.35.39.79.73 1.21.03.04.06.06.09.1.04.05.05.09.07.13.06.11.17.24.25.35.09.11.19.23.3.33.12.11.25.24.38.34.1.08.18.11.27.17.13.09.31.29.42.41l.05.06c.37.42 1.01.49 1.47.16l.21-.16c.19-.14.38-.26.56-.38.41-.27.85-.59 1.11-1 .11-.17.19-.33.35-.51.14-.16.3-.31.47-.45.41.31.84.57 1.23.94.44.41.8.9 1.22 1.32.4.39 1.03.42 1.46.05l.06-.05c.11-.09.22-.19.32-.3.19-.2.33-.4.49-.6.22-.28.48-.54.75-.79.26-.24.53-.45.8-.66.24.2.5.34.75.49.73.45 1.42 1.04 2.08 1.67.32.3.82.32 1.15.03l.03-.03.26-.23c.66-.57 1.31-1.01 2-1.52.17-.12.31-.25.46-.38.48.46.86.98 1.36 1.43.39.34.79.53 1.19.8l.24.16c.36.24.85.18 1.13-.16.09-.11.19-.22.3-.32.6-.57 1.27-1.01 1.85-1.63.14-.15.27-.31.39-.46.21.26.45.51.73.67.12.07.22.11.34.18.09.06.18.11.26.18.28.22.57.48.82.73.19.19.37.39.54.58.27.31.74.37 1.09.13l.17-.13.19-.14c.35-.25.71-.53 1.04-.82.18-.15.34-.32.51-.48.11-.11.24-.21.34-.33.15-.18.27-.37.38-.54.14-.22.3-.48.35-.67.05-.11 0-.16-.04-.23zm-6.51 6.78a.92.92 0 0 1-.13-.24c-.02-.08-.01-.19-.07-.26-.08-.09-.27-.06-.44-.03-.27.05-.56.09-.86.21-.01.02-.03.04-.07.05-.06.03-.15.04-.18.05-.07.07-.22.12-.3.17-.14.07-.27.1-.4.17-.25.14-.46.39-.7.59-.07.06-.14.09-.21.16l-.2.19-.02.02c-.12-.14-.26-.28-.38-.43-.19-.23-.38-.48-.62-.69-.22-.19-.47-.4-.7-.59-.23-.19-.45-.38-.69-.59l-.09-.07a.988.988 0 0 0-1.34.07c-.16.16-.31.33-.45.51-.29.36-.51.73-.79 1.08-.24.31-.52.46-.84.63-.08.04-.16.09-.25.14-.84-.88-1.78-1.63-2.7-2.42l-.05-.04a1.12 1.12 0 0 0-1.5.04l-.3.29c-.55.52-1.14 1.04-1.76 1.42-.19.12-.38.24-.56.37-.14-.2-.28-.41-.44-.59-.4-.44-.87-.75-1.19-1.24-.19.02-.38-.2-.55-.42-.33-.43-.94-.56-1.41-.27l-.44.27c-.12.07-.27.16-.35.22-.22.14-.3.25-.45.45-.11.14-.25.26-.38.38-.27.25-.58.51-.8.79-.1.13-.08.24-.16.38-.05.09-.12.17-.2.25l-.03-.03c-.25-.2-.53-.43-.78-.62-.29-.25-.58-.5-.89-.67-.35-.2-.66-.25-.92-.23-.26.03-.49.11-.64.27-.13.14-.17.35-.18.58.02.31.27.68.52 1.03.03.03.04.05.07.08.03.04.03.07.05.11.04.09.12.2.18.29.06.09.14.19.23.27.1.09.19.19.3.27.08.06.15.08.23.13.11.07.25.24.33.33.13.16.25.32.37.48.08.1.15.2.22.28.38.48 1.08.59 1.58.23l.32-.23c.23-.17.45-.36.59-.6.08-.15.14-.28.26-.43.15-.18.34-.34.52-.5.34-.31.66-.64.96-.97.01-.01.02-.03.04-.04.23.28.45.56.73.78.17.13.35.22.53.33.24.15.47.33.69.54.21.19.39.4.57.6.29.34.79.4 1.16.14l.19-.14c.26-.19.53-.36.79-.54.18-.12.36-.24.52-.4.18-.18.29-.39.42-.58.23-.34.51-.66.81-.97.33.37.63.74.95 1.12.42.51.9.83 1.4 1.25.07.06.14.13.21.19.37.38.98.41 1.39.06l.07-.06c.4-.33.84-.57 1.22-.93.39-.37.53-.81.92-1.19.13-.12.27-.23.4-.35.29.19.59.37.8.66.23.32.5.76.89.96.1.05.18.07.29.13.07.04.15.09.22.14.16.12.32.26.47.41.31.29.8.31 1.13.03l.03-.03.19-.17c.22-.18.44-.33.66-.48.29-.2.57-.41.84-.64.14-.12.27-.25.4-.38.09-.09.19-.17.27-.27.11-.15.2-.31.28-.46.1-.19.22-.41.25-.57.04-.11-.01-.16-.05-.23zm.29 19.06c.16.06.29.12.4.19.09.06.16.13.17.2.02.1-.01.2.02.31.02.07.07.13.07.2s-.07.14-.15.2c-.01.06-.1.12-.17.18-.05.04-.12.08-.16.13-.04.04-.1.08-.15.12-.03.02-.04.04-.06.06-.01.01-.02.02-.04.03-.03.01-.07.01-.1.02-.05.01-.05.04-.11.05-.04.01-.15.01-.21.01-.01 0-.01.01-.02.01-.06 0-.09.01-.14.02-.06.01-.13 0-.18.01-.02.01-.02.02-.04.03-.03.01-.1.02-.13.02-.16.03-.35.02-.52.05-.21.03-.44.05-.66.09-.36.06-.71.13-1.11.14-.36.01-.7-.02-1.03-.06-.92-.1-1.83-.19-2.81-.2-.47 0-.93.02-1.37.07-.32.04-.63.1-.97.12-.94.05-1.87-.14-2.81-.14-.75 0-1.42.11-2.14.15-.71.04-1.44.07-2.16.06-.38 0-.77-.02-1.13.02-.29.03-.51.09-.76.14-.84.17-1.79-.01-2.62-.1a7.86 7.86 0 0 0-1.19-.02c-.43.02-.88.02-1.31 0-.27-.02-.52-.05-.76-.09-.77-.14-1.31-.4-1.55-.67-.26-.29-.18-.59.1-.86.23-.22.59-.46 1.19-.6.54-.13 1.22-.12 1.85-.1.19.01.36 0 .54-.01.34-.02.64-.02.98-.02.3 0 .56-.04.86-.04.55-.01 1.12 0 1.67 0 .34 0 .72.02 1.03-.04.23-.05.33-.14.59-.17.56-.06 1.2-.04 1.78-.04.29 0 .58.01.85-.02.38-.04.59-.07 1-.03.49.05 1.41.23 1.72.02.89.14 1.78.05 2.71.1.85.05 1.72.32 2.6.18.52-.08.89-.23 1.48-.27.65-.04 1.28.05 1.87.12.19.02.38.05.58.06.17.02.35.03.54.03.13 0 .23-.01.36-.01.29 0 .66.05.88.11.21.06.38.13.58.19.04.02.09.03.14.05zm-13.53-8.09c.08.06.14.12.19.19.04.06.08.13.08.2.01.1 0 .2.01.31.01.07.03.13.03.2s-.04.14-.07.2c-.01.06-.05.12-.08.18-.03.04-.06.08-.08.13-.02.04-.05.08-.08.12l-.03.06c-.01.01-.01.02-.02.03-.01.01-.03.01-.05.02-.02.01-.02.04-.05.05-.02.01-.08.01-.1.01l-.01.01c-.03 0-.04.01-.07.02-.03.01-.07 0-.09.01-.01.01-.01.02-.02.03-.01.01-.05.02-.07.02-.08.03-.17.02-.25.05-.1.03-.22.05-.32.09-.17.06-.35.13-.54.14-.17.01-.34-.02-.5-.06-.45-.1-.89-.19-1.37-.2-.23 0-.45.02-.67.07-.16.04-.31.1-.47.12-.46.05-.91-.14-1.37-.14-.36 0-.69.11-1.04.15-.35.04-.7.07-1.05.06-.18 0-.38-.02-.55.02-.14.03-.25.09-.37.14-.41.17-.87-.01-1.28-.1-.2-.04-.38-.04-.58-.02-.21.02-.43.02-.64 0-.13-.02-.26-.05-.37-.09-.38-.14-.64-.4-.76-.67-.12-.28-.08-.58.06-.85.11-.22.29-.46.58-.6.26-.13.59-.12.9-.1.09.01.18 0 .27-.01.17-.02.31-.02.48-.02.15 0 .27-.04.42-.04.27-.01.54 0 .81 0 .17 0 .35.02.5-.04.11-.05.16-.14.29-.17.27-.06.59-.04.87-.04.14 0 .28.01.42-.02.19-.04.29-.07.49-.03.24.05.69.23.84.02.44.14.87.05 1.32.1.42.05.84.32 1.27.18.25-.08.43-.23.72-.27.31-.04.62.05.91.12.09.02.19.05.28.06.08.02.17.03.26.03.06 0 .11-.01.17-.01.14 0 .32.05.43.11.1.06.19.13.28.19.02.01.04.02.07.04zm13.42 13.3c.03.01.05.02.06.01.23.11.41.28.58.42.11.09.23.2.23.32 0 .08-.06.16-.09.23-.03.09-.04.18-.05.26-.01.07-.01.15-.07.21-.1.11-.28.19-.43.26-.12.05-.25.12-.39.15-.09.02-.19.01-.28.02-.14.01-.28.01-.42.01-.27-.01-.54-.05-.8-.1a4.023 4.023 0 0 0-1.28-.08c-.07.01-.13.03-.19.04-.09.02-.15.07-.23.1-.32.12-.69-.02-.98-.1-.36-.1-.71.06-1.07.11-.51.07-.98-.07-1.48-.05-.41.01-.71.24-1.12.25-.46.01-.89-.17-1.36-.14-.49.03-.92.12-1.41.03-.51-.09-.98-.2-1.51-.23-.61-.03-1.24-.02-1.81.17-.17.06-.34.13-.53.14-.17.01-.34-.02-.49-.06-.44-.1-.87-.19-1.34-.2-.22 0-.44.02-.65.07-.15.04-.3.1-.46.12-.45.05-.89-.14-1.34-.14-.36 0-.68.11-1.02.15-.34.04-.69.07-1.03.06-.18 0-.37-.02-.54.02-.14.03-.24.09-.36.14-.28.12-.61.06-.9-.01-.15-.04-.3-.08-.45-.11-.09-.01-.26-.05-.35-.02-.07.02-.12.05-.19.06-.1.01-.2 0-.31 0-.09 0-.19-.02-.27-.04-.08-.02-.18-.05-.25-.09-.03-.02-.05-.04-.09-.05-.02-.01-.05-.01-.08-.01-.32-.08-.65-.19-.82-.4-.11-.18-.2-.36-.19-.55 0-.21.08-.43.22-.63.13-.19.33-.36.63-.46.26-.08.55-.09.84-.11.25-.01.5-.05.75-.07.08 0 .14.01.22.01.12 0 .23-.03.34-.04.26-.01.53 0 .8 0 .16 0 .34.02.49-.04.11-.05.16-.14.28-.17.27-.06.57-.04.85-.04.14 0 .28.01.41-.02.18-.04.28-.07.48-.03.23.05.68.23.82.02.43.14.85.05 1.29.1.41.05.82.32 1.24.18.25-.08.42-.23.71-.27.31-.04.61.05.9.12.54.14 1.14.16 1.7.15 1.1-.02 2.18-.17 3.28-.04.51.06.97.18 1.43.34.26.09.49.17.79.11.34-.07.65-.2.99-.26.39-.07.79-.09 1.19-.11.23-.01.46-.04.69-.04.24 0 .47.05.7.09.17.03.34.03.5.07.06.01.1 0 .16 0 .05 0 .11.01.17 0 .01 0 .03-.01.04-.02h.06c.04-.01.07-.03.1-.04.12-.04.24-.08.35-.12.12-.04.25-.03.38-.05.07-.01.14-.01.21-.01h.21c.07 0 .13.02.2.02.23.02.47-.03.69.04.12.04.2.11.31.14.07.02.18.08.25.08-.01.06.05.1.09.13zm-.07 5.16c.16.06.29.12.4.19.09.06.16.13.17.2.02.1-.01.2.02.31.02.07.07.13.07.2s-.07.14-.15.2c-.01.06-.1.12-.17.18-.05.04-.12.08-.16.13-.04.04-.1.08-.15.12-.03.02-.04.04-.06.06-.01.01-.02.02-.04.03-.03.01-.07.01-.1.02-.05.01-.05.04-.11.05-.04.01-.15.01-.21.01-.01 0-.01.01-.02.01-.06 0-.09.01-.14.02-.06.01-.13 0-.18.01-.02.01-.02.02-.04.03-.03.01-.1.02-.13.02-.16.03-.35.02-.52.05-.21.03-.44.05-.66.09-.36.06-.71.13-1.11.14-.36.01-.7-.02-1.03-.06-.92-.1-1.83-.19-2.81-.2-.47 0-.93.02-1.37.07-.32.04-.63.1-.97.12-.94.05-1.87-.14-2.81-.14-.75 0-1.42.11-2.14.15-.71.04-1.44.07-2.16.06-.38 0-.77-.02-1.13.02-.29.03-.51.09-.76.14-.84.17-1.79-.01-2.62-.1a7.86 7.86 0 0 0-1.19-.02c-.43.02-.88.02-1.31 0-.27-.02-.52-.05-.76-.09-.77-.14-1.31-.4-1.55-.67-.25-.28-.16-.58.12-.85.23-.22.59-.46 1.19-.6.54-.13 1.22-.12 1.85-.1.19.01.36 0 .54-.01.34-.02.64-.02.98-.02.3 0 .56-.04.86-.04.55-.01 1.12 0 1.67 0 .34 0 .72.02 1.03-.04.23-.05.33-.14.59-.17.56-.06 1.2-.04 1.78-.04.28 0 .58.01.85-.02.38-.04.59-.07 1-.03.49.05 1.41.23 1.72.02.89.14 1.78.05 2.71.1.85.05 1.72.32 2.6.18.52-.08.89-.23 1.48-.27.65-.04 1.28.05 1.87.12.19.02.38.05.58.06.17.02.35.03.54.03.13 0 .23-.01.36-.01.29 0 .66.05.87.11.21.06.38.13.58.19.03 0 .08.02.13.04z" fill="#FFF"></path><path d="M72.47 51.11c.16-.04.35-.14.43-.31.09-.18.04-.44-.05-.64a1.18 1.18 0 0 0-.23-.35c-.41-.45-1.12-.58-1.66-.38a1.8 1.8 0 0 0-1.05.99c-.13.3-.2.64-.16.97.07.6.53 1.05 1.04 1.26.37.16.8.23 1.21.09.21-.07.4-.18.55-.34.06-.06.13-.14.15-.22.02-.09.05-.17.06-.26.01-.07.04-.13.04-.19v-.05c0-.01-.02-.01-.02-.02-.01-.02.01-.04.01-.06 0-.02-.01-.03 0-.05l-.01-.01c0-.02.01-.05 0-.07-.01-.02-.03-.03-.04-.05-.01-.01 0-.02-.01-.03-.01-.01-.02-.01-.02-.02l-.06-.03c-.04-.02-.07-.04-.11-.06-.04-.02-.08-.03-.12-.05-.06-.02-.11-.04-.18-.05a.693.693 0 0 0-.2-.03H72c.16 0 .32 0 .47-.04zm12.31-.16c-.05-.07-.09-.15-.14-.22-.04-.05-.06-.12-.11-.16-.01-.01-.03-.03-.04-.03h-.03c-.02-.01-.02-.04-.04-.05-.01-.01-.03-.02-.04-.03h-.01c-.01-.01-.03-.04-.05-.05-.02-.01-.04 0-.06 0-.01 0-.02-.02-.03-.02-.01 0-.02 0-.03.01l-.06.02c-.04.01-.08.02-.12.04-.04.02-.08.03-.12.05-.06.03-.11.05-.16.09a.61.61 0 0 0-.16.12l-.02.03c.12-.11.23-.22.31-.36.09-.14.15-.34.09-.52-.07-.19-.28-.34-.49-.42-.13-.05-.27-.08-.41-.09-.61-.03-1.2.38-1.45.9-.23.47-.22.99-.05 1.44.12.31.31.59.57.79.47.37 1.12.37 1.63.16.38-.15.73-.4.92-.79.1-.19.15-.41.15-.63.01-.11 0-.21-.05-.28zm-3.49 11.16c.18-.01.38.07.53.15.26.14.46.36.56.64.08.22.13.5.02.79-.1.26-.37.44-.62.59l-.21.14c-.16.13-.34.22-.51.34-.18.11-.38.19-.57.28-.42.18-.85.35-1.29.47-.44.13-.9.23-1.37.27-.46.06-.94.05-1.4 0-.47-.05-.93-.17-1.36-.34l-.16-.07c-.31-.14-.6-.3-.9-.46-.24-.11-.47-.25-.7-.37-.25-.12-.44-.3-.66-.47-.1-.08-.21-.14-.26-.26a1.94 1.94 0 0 1-.12-.39c.01.01 0-.01-.01-.03a.292.292 0 0 1-.02-.09c0-.06 0-.11.01-.17.01-.07.04-.14.08-.19.07-.08.15-.14.21-.22.04-.05.07-.11.12-.16.05-.05.12-.08.19-.11.05-.04.11-.06.17-.09.05-.02.09-.03.13-.05l.12-.05.06-.03.03-.01c.01 0 .02.01.04.01s.04-.02.06-.01c.02 0 .05.03.06.04l.01-.01.05.02c.02.01.03.03.05.03l.03-.01c.01 0 .03.01.05.01l.17.07c.08.02.16.05.24.05.08.01.14.06.21.09.16.08.31.17.46.27.31.18.61.37.95.49.48.14.99.18 1.48.2.28.03.57.01.85-.03.41-.07.79-.21 1.16-.38.43-.18.81-.43 1.22-.63.1-.05.19-.1.3-.15.17-.06.36-.15.54-.17zm-4.14-15.46c.25-.19.55-.2.85-.08.24.09.51.26.71.58.18.28.25.68.29 1.05.02.11.04.21.07.31.06.2.09.37.12.57.03.17.1.32.13.49l.17.96c.03.2.05.43.15.59.07.13.17.16.23.31.11.31.16.69.22 1.02.03.16.05.34.11.49.08.21.13.33.13.57-.01.29-.08.86.16 1-.05.55.14 1.04.18 1.59.04.51-.13 1.05.09 1.54l.04.08c.2.42.03.92-.42 1.14a.37.37 0 0 1-.11.05l-.65.2c-.26.08-.47.21-.78.24-.38.04-.75-.05-1.1-.12-.12-.02-.24-.04-.34-.06-.1-.01-.2-.03-.31-.03-.07-.01-.14.01-.21.01-.17 0-.38-.05-.51-.11l-.34-.19-.09-.05a.71.71 0 0 1-.23-.19.47.47 0 0 1-.1-.2c-.01-.11 0-.21-.01-.31-.01-.07-.04-.13-.04-.2s.04-.13.09-.2c.01-.06.06-.12.1-.18.03-.05.07-.08.09-.13.02-.05.06-.08.09-.12l.04-.06c0-.01.01-.02.02-.03l.06-.02c.03-.01.03-.04.07-.05.02 0 .09-.01.12-.01l.01-.01c.03 0 .05-.01.08-.02.04 0 .08 0 .11-.01l.02-.03.08-.02c.09-.03.2-.02.3-.05l.39-.09c.21-.05.42-.13.65-.14.17-.01.34.01.51.04-.07-.16-.15-.32-.2-.5-.15-.53-.06-1.11-.15-1.65-.07-.43-.26-.8-.37-1.21-.11-.41-.21-.82-.28-1.24-.03-.21-.06-.44-.13-.65-.06-.16-.14-.27-.22-.41-.25-.46-.17-1.04-.17-1.54.01-.24-.04-.45-.1-.69-.06-.25-.11-.5-.13-.76-.01-.16-.01-.32.01-.46.07-.47.26-.82.5-1.01zM76.1 32.31c1.53-.1 2.94-.07 4.41.3 1.44.36 2.85.99 4.09 1.86.65.46 1.26 1.01 1.83 1.52.43.45.81.71 1.16 1.12 1.26 1.31 2.01 3.29 2.33 5 .1.42.16.82.21 1.23.07.41.13.81.15 1.25.09.95.06 1.72.04 2.57v.03c.04.21.08.42.1.65l-.006-.05h-.154l-.04.524-.02.246c-.15 1.47-.4 2.5-.67 2.96-.28.47-.58.31-.85-.23-.22-.44-.46-1.12-.6-2.27-.05-.38-.07-.8-.09-1.23h-.25l-.03-.43c-.02-.24-.03-.5-.04-.75l-.06-.16c-.23-.48-.41-.64-.74-1.13-.35-.52-.81-1.02-1.3-1.38-.5-.36-.97-.52-1.54-.56-.54-.03-1.2.08-1.89.29-.97.29-1.54.52-2.76.7-.73.12-1.83.18-2.86.1-1.03-.07-1.94-.25-2.41-.24-1.27-.35-2.43-.77-3.42-.87-.5-.05-.93-.02-1.35.1-.37.1-.76.33-1.14.64-.9.74-1.77 2.01-2 3.22l.01.09c.04.55.04 1.26.01 1.67l-.11 1.12-.03.29c-.04.32-.08.56-.14.77-.05.17-.1.31-.17.33-.1.04-.2.01-.3.06-.06.04-.12.14-.19.15-.07.01-.14-.13-.22-.27-.06-.02-.13-.18-.2-.31-.05-.1-.1-.21-.15-.29-.05-.08-.09-.19-.14-.29-.03-.05-.05-.07-.07-.12-.01-.03-.02-.04-.03-.08-.02-.06-.02-.13-.03-.19-.02-.1-.04-.09-.06-.21l-.04-.39-.02-.03c-.01-.1-.03-.17-.04-.26-.02-.11-.02-.26-.04-.35-.01-.04-.02-.04-.03-.08a6.74 6.74 0 0 1-.04-.25c-.04-.31-.07-.59-.11-.89h-.14c0-.36-.01-.73-.01-1.1l-.03-.23c-.05-.34-.11-.7-.16-1.05v-.454c.001-.252.003-.51.01-.776 0-.37.09-.73.15-1.09.01-.09.03-.17.05-.26.03-.36.08-.74.16-1.17.15-.67.32-1.35.8-2.12.6-1.01 1.27-1.77 1.97-2.48l.05-.06c.3-.39.66-.71.97-1.06.34-.33.69-.63 1.02-.95.52-.41 1-.83 1.62-1.18 1.7-1 3.65-1.39 5.58-1.5z" fill="#242433"></path></g></svg>
