<?xml version="1.0" encoding="utf-8"?>
<!-- Generator: Adobe Illustrator 24.2.0, SVG Export Plug-In . SVG Version: 6.00 Build 0)  -->
<svg version="1.1" id="Layer_1" xmlns="http://www.w3.org/2000/svg" xmlns:xlink="http://www.w3.org/1999/xlink" x="0px" y="0px"
	 viewBox="0 0 27 20" style="enable-background:new 0 0 27 20;" xml:space="preserve">
<style type="text/css">
	.st0{fill-rule:evenodd;clip-rule:evenodd;fill:#FFFFFF;}
	.st1{fill:#FFFFFF;}
</style>
<path class="st0" d="M23.6,6.7c0,0.3,0,0.6-0.1,0.9c2.1,1.2,3.4,3.4,3.4,5.8c0,3.7-3,6.7-6.8,6.7H5.9C2.7,20,0,17.4,0,14.2
	c0-2.6,1.8-4.9,4.2-5.6c0-0.1,0-0.2,0-0.2c0-3.2,2.7-5.8,5.9-5.8c0.5,0,0.9,0.1,1.4,0.2C12.7,1,14.7,0,16.9,0
	C20.6,0,23.6,3,23.6,6.7z M5.9,18.3h14.3c2.8,0,5.1-2.2,5.1-5c0-2.3-1.6-4.2-3.7-4.8c0.2-0.6,0.4-1.2,0.4-1.9c0-2.8-2.3-5-5.1-5
	c-2.1,0-3.9,1.3-4.7,3.1c-0.6-0.3-1.3-0.6-2.1-0.6C7.8,4.2,5.9,6,5.9,8.3C5.9,8.9,6,9.5,6.3,10c0,0-0.1,0-0.1,0c-0.1,0-0.2,0-0.2,0
	c-2.3,0-4.2,1.9-4.2,4.2C1.7,16.5,3.6,18.3,5.9,18.3z"/>
<path class="st1" d="M9,12h3.3v5h3.3v-5H19l-5-5L9,12z"/>
</svg>
