<svg width="27" height="20" viewBox="0 0 27 20" fill="none" xmlns="http://www.w3.org/2000/svg">
<path fill-rule="evenodd" clip-rule="evenodd" d="M23.625 6.66667C23.625 6.96167 23.6056 7.25583 23.5643 7.54583C25.6466 8.7075 27 10.9025 27 13.3333C27 17.01 23.9718 20 20.25 20H5.90625C2.65022 20 0 17.3808 0 14.1667C0 11.5267 1.782 9.28833 4.22381 8.57333C4.22044 8.4925 4.21875 8.415 4.21875 8.33333C4.21875 5.1175 6.86897 2.5 10.125 2.5C10.5848 2.5 11.0371 2.5525 11.4784 2.6575C12.7339 1.00667 14.715 0 16.875 0C20.5968 0 23.625 2.99167 23.625 6.66667ZM5.90541 18.3333H20.25C23.047 18.3333 25.3125 16.0942 25.3125 13.3333C25.3125 11.0242 23.722 9.09917 21.5671 8.52417C21.8008 7.94833 21.9375 7.32333 21.9375 6.66667C21.9375 3.905 19.6703 1.66667 16.8742 1.66667C14.7741 1.66667 12.9718 2.93 12.2082 4.72917C11.5906 4.38167 10.8852 4.16667 10.1242 4.16667C7.79372 4.16667 5.90541 6.03083 5.90541 8.33333C5.90541 8.9425 6.04378 9.51667 6.28088 10.0375C6.23746 10.0334 6.19415 10.0276 6.15068 10.0218C6.06998 10.0109 5.98876 10 5.90541 10C3.57497 10 1.68666 11.8642 1.68666 14.1667C1.68666 16.4683 3.57497 18.3333 5.90541 18.3333Z" fill="white"/>
<path d="M9 12H12.3333V17H15.6667V12H19L14 7L9 12Z" fill="white"/>
</svg>
