<svg width="23" height="23" viewBox="0 0 23 23" fill="none" xmlns="http://www.w3.org/2000/svg">
<path fill-rule="evenodd" clip-rule="evenodd" d="M17.25 10.1049C20.4837 10.4621 22.9986 13.2006 23 16.5312C22.9986 19.8612 20.4837 22.5982 17.25 22.9576V23H0V0H13.2351L17.25 4.0135V10.1049ZM15.5149 4.3125L12.9361 1.73434V4.3125H15.5149ZM1.4375 21.5625V1.43606H11.5V5.74928H15.8125V10.1049C12.5774 10.4628 10.0625 13.2013 10.0625 16.5312C10.0625 18.5646 11.0026 20.3773 12.4696 21.5625H1.4375ZM11.5827 16.5312C11.5891 19.2618 13.7993 21.4719 16.5312 21.4784C19.2618 21.4719 21.4719 19.2618 21.4784 16.5312C21.4719 13.7993 19.2618 11.5891 16.5312 11.5827C13.7993 11.5891 11.5891 13.7993 11.5827 16.5312Z" fill="#4A4A4A"/>
<path d="M20.125 15.8125H17.2514V12.9375H15.8125V15.8125H12.9375V17.25H15.8125V20.125H17.2514V17.25H20.125V15.8125Z" fill="#4A4A4A"/>
</svg>
