<?xml version="1.0" encoding="utf-8"?>
<!-- Generator: Adobe Illustrator 24.2.0, SVG Export Plug-In . SVG Version: 6.00 Build 0)  -->
<svg version="1.1" id="Layer_1" xmlns="http://www.w3.org/2000/svg" xmlns:xlink="http://www.w3.org/1999/xlink" x="0px" y="0px"
	 viewBox="0 0 100 100" style="enable-background:new 0 0 100 100;" xml:space="preserve">
<style type="text/css">
	.st0{fill:#FFFFFF;}
	.st1{fill:#DDF4DF;}
	.st2{fill:#8CDA96;}
	.st3{fill:none;stroke:#188D38;stroke-width:3;stroke-miterlimit:10;}
</style>
<rect x="-15.5" y="3.1" class="st0" width="6.1" height="6.1"/>
<g>
	<path class="st1" d="M94.8,94.6H5.2c-2.1,0-3.8-1.7-3.8-3.8V19.6c0-2.1,1.7-3.8,3.8-3.8h89.5c2.1,0,3.8,1.7,3.8,3.8v71.3
		C98.6,92.9,96.9,94.6,94.8,94.6z"/>
	<g>
		<path class="st2" d="M24.5,24.6h-6.2c-1.4,0-2.5-1.1-2.5-2.5V7.8c0-1.4,1.1-2.5,2.5-2.5h6.2c1.4,0,2.5,1.1,2.5,2.5v14.3
			C27,23.5,25.9,24.6,24.5,24.6z"/>
		<path class="st2" d="M81.7,24.6h-6.2c-1.4,0-2.5-1.1-2.5-2.5V7.8c0-1.4,1.1-2.5,2.5-2.5h6.2c1.4,0,2.5,1.1,2.5,2.5v14.3
			C84.1,23.5,83,24.6,81.7,24.6z"/>
	</g>
	<rect x="1.4" y="30" class="st2" width="97.2" height="4.7"/>
	<polyline class="st3" points="92.9,59.1 65.5,83 53.8,69.6 	"/>
</g>
</svg>
