<?xml version="1.0" encoding="utf-8"?>
<!-- Generator: Adobe Illustrator 24.2.0, SVG Export Plug-In . SVG Version: 6.00 Build 0)  -->
<svg version="1.1" id="Layer_1" xmlns="http://www.w3.org/2000/svg" xmlns:xlink="http://www.w3.org/1999/xlink" x="0px" y="0px"
	 viewBox="0 0 57 57" style="enable-background:new 0 0 57 57;" xml:space="preserve">
<style type="text/css">
	.st0{fill:#FFFFFF;}
	.st1{fill-rule:evenodd;clip-rule:evenodd;fill:#25D366;}
</style>
<g>
	<path class="st0" d="M16.2,53.6l-0.4-1.2h-3l-0.4,1.2h-1.3l2.6-7.6H15l2.5,7.6H16.2z M13.2,51.1h2.2l-1.1-3.3L13.2,51.1z
		 M18.9,52.9c-0.5-0.5-0.8-1.2-0.8-2c0-0.8,0.3-1.4,0.8-2c0.5-0.5,1.2-0.8,2-0.8c0.5,0,0.9,0.1,1.3,0.3c0.4,0.2,0.7,0.5,0.9,0.9
		l-1,0.7c-0.3-0.5-0.7-0.7-1.3-0.7c-0.4,0-0.8,0.2-1.1,0.5c-0.3,0.3-0.4,0.7-0.4,1.1c0,0.5,0.1,0.8,0.4,1.1c0.3,0.3,0.7,0.5,1.1,0.5
		c0.6,0,1-0.2,1.3-0.7l1,0.7c-0.2,0.4-0.6,0.7-0.9,0.9c-0.4,0.2-0.8,0.3-1.3,0.3C20.1,53.7,19.5,53.4,18.9,52.9z M24.7,52.9
		c-0.5-0.5-0.8-1.2-0.8-2c0-0.8,0.3-1.4,0.8-2c0.5-0.5,1.2-0.8,2-0.8c0.5,0,0.9,0.1,1.3,0.3c0.4,0.2,0.7,0.5,0.9,0.9l-1,0.7
		c-0.3-0.5-0.7-0.7-1.3-0.7c-0.4,0-0.8,0.2-1.1,0.5c-0.3,0.3-0.4,0.7-0.4,1.1c0,0.5,0.1,0.8,0.4,1.1c0.3,0.3,0.7,0.5,1.1,0.5
		c0.6,0,1-0.2,1.3-0.7l1,0.7c-0.2,0.4-0.6,0.7-0.9,0.9c-0.4,0.2-0.8,0.3-1.3,0.3C25.8,53.7,25.2,53.4,24.7,52.9z M34.9,50.9
		c0,0.2,0,0.3-0.1,0.5h-3.9c0.1,0.3,0.3,0.6,0.5,0.8c0.3,0.2,0.6,0.3,1,0.3c0.6,0,1-0.2,1.3-0.7l1,0.6c-0.2,0.4-0.6,0.7-1,0.9
		c-0.4,0.2-0.8,0.3-1.3,0.3c-0.8,0-1.4-0.3-2-0.8c-0.5-0.5-0.8-1.2-0.8-2c0-0.8,0.2-1.4,0.7-2c0.5-0.5,1.1-0.8,1.9-0.8
		c0.8,0,1.4,0.3,1.9,0.8C34.6,49.5,34.9,50.1,34.9,50.9z M32.3,49.3c-0.4,0-0.7,0.1-0.9,0.3c-0.2,0.2-0.4,0.5-0.5,0.8h2.8
		c-0.1-0.3-0.2-0.6-0.5-0.8C32.9,49.4,32.6,49.3,32.3,49.3z M38.9,48.2c0.8,0,1.4,0.3,1.9,0.8c0.5,0.5,0.7,1.2,0.7,2
		c0,0.8-0.2,1.4-0.7,2c-0.5,0.5-1.1,0.8-1.9,0.8c-0.6,0-1.2-0.2-1.6-0.6v2.7h-1.2v-7.5h1.2v0.5C37.7,48.4,38.3,48.2,38.9,48.2z
		 M38.8,52.5c0.4,0,0.8-0.2,1.1-0.5c0.3-0.3,0.4-0.7,0.4-1.1c0-0.5-0.1-0.8-0.4-1.1c-0.3-0.3-0.7-0.5-1.1-0.5
		c-0.5,0-0.8,0.2-1.1,0.5c-0.3,0.3-0.4,0.7-0.4,1.1c0,0.5,0.1,0.8,0.4,1.1C38,52.4,38.4,52.5,38.8,52.5z M44.1,47.2v1.1h1.7v1.1
		h-1.7v2.3c0,0.2,0.1,0.4,0.2,0.5c0.1,0.1,0.3,0.2,0.5,0.2h1v1.1h-1.3c-0.5,0-0.9-0.1-1.2-0.4c-0.3-0.3-0.5-0.7-0.5-1.2v-2.5h-0.7
		v-0.6l1.3-1.6H44.1z"/>
	<g>
		<path class="st1" d="M28.5,41.2c11,0,20-9,20-20s-9-20-20-20s-20,9-20,20S17.5,41.2,28.5,41.2z"/>
		<path class="st0" d="M39,16.4l-0.3-0.1C38.1,16,37,16,36.5,16.4l-2.1,1.4c-0.6,0.4-1,1.3-0.9,2l0.1,1.3c-2.8,1.8-6.5,2-9.7,0.3
			l-0.1-1.3c-0.1-0.7-0.7-1.6-1.3-1.9L19.9,17c-0.7-0.3-1.7-0.3-2.3,0l-0.3,0.1c-0.6,0.3-1,1.2-1,1.9l0.2,1.9c0,0.3,0.5,0.9,0.5,0.9
			c3.4,3,7.7,4.6,12.1,4.4c4.4-0.2,8.3-2,11.1-5.2c0,0,0.3-0.6,0.3-1l-0.2-1.9C40.3,17.5,39.7,16.7,39,16.4z"/>
	</g>
</g>
</svg>
