<svg xmlns="http://www.w3.org/2000/svg" viewBox="0 0 81.51 96.41" id="bank"><path class="st2" d="M48.09 10.03c.04-.06.06-.12.09-.19v-.01c-.14-.31-.33-.67-.43-1.01-.07-.17-.13-.33-.18-.51-.07-.31-.19-.6-.24-.92-.02-.07-.04-.13-.07-.2l-.06-.12c-.05-.13-.07-.26-.13-.39-.16-.25-.45-.3-.63-.52-.24-.24-.39-.62-.61-.89-.19-.27-.27-.47-.34-.76-.06-.26-.24-.45-.45-.63-.05-.02-.09-.05-.14-.06-.6-.19-1.14-.22-1.7-.52-.38-.18-.76-.33-1.18-.4-.34-.09-.7-.15-1.04-.25-.4-.08-.83-.24-1.26-.18-.15.02-.29.05-.43.09-.12.02-.22 0-.34-.02-.39-.07-.52.13-.78.32-.11.07-.21.1-.31.12-.18.1-.37.19-.59.26a5.7 5.7 0 0 0-.76.34c-.04.03-.07.06-.11.09-.05.03-.09.04-.14.06-.03.02-.07.04-.11.06-.31.18-.6.38-.91.56-.34.23-.76.41-1.02.76-.09.12-.17.24-.25.37-.07.1-.16.16-.25.23-.33.22-.28.46-.33.78-.07.38-.37.49-.58.79-.19.32-.01.67-.11 1.02-.05.21-.17.38-.29.55-.1.18-.21.36-.29.57-.03.09-.04.18-.06.28.02.11.04.23.05.34.03.48-.07.93 0 1.41.06.38.33.62.44.98.12.41.08.85.28 1.24.21.42.49.71.65 1.15.13.27.25.54.4.8.1.07.19.14.29.21.36.32.61.71 1 1 .31.23.67.21 1 .38.37.21.65.54 1.08.68.44.15.85.15 1.28.35.01 0 .02.01.03.01h.08c.42.01.81.26 1.24.27.34.04.64-.13.96-.18.31-.08.63-.14.94-.21.16-.04.33-.07.48-.14.12-.05.19-.15.27-.24.29-.27.72-.26 1.1-.34.16-.02.29-.09.39-.21.01-.02.05-.05.04-.06.01-.01.02-.02.02-.03.05-.02.1-.07.14-.11.06-.05.12-.08.18-.12.04-.03.09-.06.14-.09.04-.03.09-.04.13-.06l.09-.06c.04-.01.1-.04.14-.05.04-.02.08-.02.13-.03.04-.01.11 0 .15-.04.01-.01.11 0 .14 0 .12-.07.25-.14.35-.24.27-.21.36-.55.55-.8.04-.08.1-.15.14-.23.08-.21.16-.43.26-.62.07-.17.14-.33.23-.49l.15-.27v-.01c.02-.39.33-.69.53-1.02.07-.1.1-.2.12-.31.01-.24-.11-.46-.08-.71 0-.35.16-.72.2-1.06.08-.3.17-.5.32-.76z"></path><path class="st0" d="M44.76 14.2c0-.02-.01-.04-.01-.06-.01-.11-.01-.21-.03-.32-.02-.09-.09-.14-.15-.2-.13-.13-.24-.27-.38-.38-.14-.11-.27-.23-.39-.36-.16-.17-.29-.35-.43-.53-.02-.03-.05-.06-.07-.09-.19-.24-.41-.47-.63-.68-.23-.21-.46-.41-.7-.61-.24-.19-.48-.39-.73-.58-.09-.07-.17-.14-.25-.21h.02c.2-.02.4-.02.6-.02.35 0 .7-.09 1.05-.09.25 0 .51.05.76.06.13.01.26.01.38-.01.05-.01.11-.01.16-.05s.1-.07.15-.1c.04-.03.08-.03.12-.05.01-.01.02-.01.03-.02 0-.01 0-.02.01-.03.01-.01.03-.01.04-.01.01-.01.02-.02.03-.02v-.01c.01 0 .04-.01.05-.02.01-.01.01-.04.02-.05.01-.01.02-.01.02-.02s.01-.02.01-.03c.01-.02.01-.04.01-.06.01-.04.02-.07.03-.12.01-.05.02-.09.03-.13.01-.06.03-.12.03-.18.02-.07.03-.13.03-.2s-.02-.13-.02-.2c-.01-.1-.01-.2-.02-.31 0-.07-.02-.13-.05-.19-.02-.05-.04-.09-.06-.13-.01-.02-.03-.04-.04-.05l-.03-.03c-.06-.07-.12-.15-.19-.2-.03-.06-.09-.05-.16-.05-.14 0-.27-.02-.41 0-.13.02-.27.03-.41.02-.17-.01-.34-.04-.51-.07-.03-.01-.06-.01-.09-.01-.23-.03-.47-.04-.71-.03-.23.01-.47.03-.7.07-.23.03-.47.07-.7.11-.23.04-.47.06-.7.08-.11.01-.22 0-.33.03h-.03l-.06-.91c-.01-.19.01-.38-.02-.57-.03-.18-.02-.37-.05-.55-.01-.08-.02-.15-.01-.23.02-.26.02-.55-.11-.77-.15-.25-.39-.39-.61-.48-.28-.11-.57-.14-.85-.04-.16.06-.35.17-.46.34-.12.18-.16.43-.2.66-.02.14-.04.28-.05.42-.03.58.01 1.17.07 1.75.05.51.11 1.01.14 1.52.02.35.02.7.02 1.06 0 .62.08 1.23.08 1.85 0 .44-.05.88-.07 1.32-.01.22-.01.45.01.67.01.09.01.2.05.28.04.09.07.18.1.27.03.07.03.15.05.21.01.02.01.04.02.06.01.01.02.01.03.02.01.02.01.05.01.08.01.02.02.03.02.06 0 0 .01 0 .01.01 0 .02.01.07.02.09.01.03.04.02.05.05.01.01.01.03.02.04.01.01.02.01.03.02.02.01.04.01.06.03.04.02.07.05.12.06.05.02.09.04.13.06.06.03.12.06.18.07.07.03.13.06.2.06s.13-.02.2-.03c.1-.01.2 0 .31-.01.07-.01.13-.04.19-.07.05-.03.09-.06.13-.1.02-.02.04-.05.05-.07l.03-.06c.07-.1.15-.21.2-.32.05-.1.04-.21.04-.32 0-.24.02-.48 0-.72s-.03-.47-.02-.71c.01-.3.05-.6.08-.9.01-.05.01-.1.01-.15v-.05c.19.14.37.28.55.43.2.17.39.36.58.55.33.33.72.59 1.04.92.23.24.44.51.66.75.11.12.23.24.37.35.05.04.11.1.18.11.08.01.14.05.22.07.06.02.1.06.15.08.01 0 .03.01.04.01.01 0 .02-.01.03-.01.02 0 .03.02.05.03.01.01.03.01.04.02 0 0 .01 0 .01-.01.01.01.04.03.06.03.02.01.04-.01.06-.01.01 0 .02.01.03.01.01 0 .02-.01.03-.01l.06-.03c.04-.02.08-.03.11-.05l.12-.06c.06-.03.12-.05.16-.09.06-.03.13-.06.17-.12.05-.05.08-.11.12-.16.06-.08.14-.15.21-.23.04-.05.07-.11.1-.18.02-.05.03-.1.04-.15.02-.06.01-.09.01-.11zM70.55 50.95c-.14-.25-.38-.42-.59-.51l.08.03c-1.64-.79-3.28-1.57-4.92-2.36-2.76-1.34-5.65-2.78-8.2-4.18-1.35-.74-2.78-1.54-4.29-2.24-1.38-.64-2.29-.91-3.54-1.43-2.1-.88-3.99-2.1-5.94-3.11-2.14-1.11-4.23-2.02-6.23-3.17-.21-.04-.51-.16-.86-.31-.01 0-.05-.02-.06-.03l-.04-.02a1.38 1.38 0 0 0-1 0l-.08.03-.01.01c-.94.49-2.35 1.07-3.2 1.44-.96.42-1.42.68-2.29 1.15-.62.34-1.31.66-1.97.98-1.33.65-2.83 1.36-4.09 2.05-.59.32-.77.51-1.29.82-.67.4-1.56.82-2.35 1.2-1.27.62-2.58 1.26-3.86 1.89-.68.35-1.29.66-1.97 1.01-.79.39-1.48.72-2.27 1.13-1.29.67-2.53 1.23-3.76 1.74-.79.35-1.55.68-2.34 1.03-.69.31-1.45.77-2.16 1.1L.84 50.29v-.01c-.18.06-.52.32-.67.62-.17.33-.2.67-.14.96.06.3.23.59.5.81.26.22.67.31.86.3h.31l.41.01.82.01 1.65.02 3.3.03c3.06.02 5.99-.16 8.9-.26 3.18-.11 6.06-.23 9.34-.13 1.22.04 2.46.09 3.76.09 1.22-.01 2.47-.03 3.71-.04 2.18-.01 4.33-.03 6.44-.1 1.81-.09 3.57-.17 5.36-.26 1.58-.06 2.83.02 4.25.11 2.45.16 4.97.28 7.7.34 2.05.05 4.09.06 6.14.05l3.06-.02 1.53-.01.77-.01H69.48l.2-.01c.25-.03.53-.17.71-.38.19-.2.29-.44.32-.69.03-.25-.02-.52-.16-.77z"></path><path class="st2" d="M37.76 40.03c-.03-.06-.05-.12-.09-.18l-.12-.17c-.05-.06-.09-.11-.14-.16-.1-.08-.18-.18-.3-.23a2.19 2.19 0 0 0-.33-.12c-.03-.01-.06-.01-.09-.02s-.02-.01-.05-.02c-.01 0-.04-.01-.04-.01-.05-.02-.09-.05-.14-.07l-.13-.05c-.03-.08-.06-.17-.07-.26-.01-.07 0-.14 0-.21.01-.12-.05-.24-.04-.36.01-.09.05-.17.07-.26.01-.04.01-.09 0-.13 0-.02 0-.04-.03-.05-.03-.02-.05-.04-.07-.05-.02-.01-.02-.03-.04-.04 0 0-.01-.01-.02-.01h-.02c-.01 0 0-.01-.01-.01l-.01-.01h-.01s0-.01-.01-.02-.03-.01-.04-.01c-.01 0 0-.01-.01-.01H36c-.01 0-.03 0-.04-.01-.03 0-.05-.01-.09-.01-.03 0-.06-.01-.1-.01-.04-.01-.09-.01-.13-.01-.05-.01-.1-.01-.15-.01-.05 0-.1 0-.15.01h-.23c-.05 0-.1.01-.15.01-.03.01-.07.01-.1.02-.02 0-.03.01-.04.01-.01 0-.02.01-.03.01-.05.02-.11.04-.16.06-.04.02-.03.04-.03.06 0 .05-.02.09-.01.14.01.05.01.09.01.14a.51.51 0 0 1-.07.17c0 .01-.01.02-.01.03-.03.08-.04.16-.04.24 0 .08.01.16.03.24l.06.24v.03h-.01c-.36.15-.68.38-.89.69-.19.27-.26.57-.32.85-.05.25-.15.42-.24.65-.16.39-.18.88 0 1.35.2.51.6.94 1.1 1.18.12.06.25.11.38.15l.27.08c.18.05.36.11.52.15.43.13.54.2.6.4.03.1.01.2.07.25.05.05.18.06.26.13.13.13-.08.29-.15.37-.07.1-.07.25-.23.26.09.15-.11.13-.17.12-.06-.01-.07.02-.1.07-.03.03-.07.03-.1.04-.07.01-.15 0-.23.03-.04.01-.06.09-.11.11-.06.04-.12 0-.16-.02-.08-.04-.15-.1-.22-.15-.03-.03-.08-.03-.1-.07a.21.21 0 0 0-.04-.06c-.06-.06-.12-.13-.17-.21-.05-.09-.07-.19-.13-.29-.07-.11-.18-.22-.31-.32s-.27-.2-.42-.25c-.14-.05-.29-.02-.44.04-.19.1-.32.4-.35.72v.08c0 .03-.02.06-.02.09-.02.07-.02.17-.02.26s.02.18.05.27c.03.1.07.2.12.29.04.06.09.1.13.15.06.07.13.22.18.3.08.13.16.27.25.39.18.24.47.48.78.51.06.01.12.01.18.01-.01.01-.01.02-.01.03 0 .01-.01.02-.01.03-.03.08-.04.16-.04.24 0 .08.01.16.03.24l.06.24c.02.08.03.16.04.24 0 .04-.01.07.01.11.02.04.01.07.03.11.01.01.01.03.01.04-.02.05-.02.11.08.15.11.05.29.08.45.1.2.02.43.03.64.01.12-.01.27-.03.35-.07.09-.03.13-.08.16-.13a.3.3 0 0 0 .04-.08.57.57 0 0 0-.03-.34c-.03-.1-.07-.2-.09-.3-.01-.07 0-.14 0-.21.01-.12-.05-.24-.04-.36 0-.05.02-.1.04-.15.01 0 .01 0 .02-.01.31-.14.53-.37.79-.58.32-.26.68-.56.81-.99.04-.16.04-.3.03-.45-.01-.35-.02-.48-.02-.61-.03-.43-.09-.84-.27-1.24-.06-.14-.15-.29-.27-.41-.14-.13-.31-.2-.46-.25-.24-.1-.57-.19-.76-.23-.2-.05-.39-.12-.57-.2-.15-.06-.33-.15-.43-.22a.794.794 0 0 1-.19-.22c-.09-.15-.22-.21-.31-.37s.04-.32.04-.46c0-.12-.12-.28-.05-.43.1-.18.29-.22.43-.35.09-.09.21-.25.37-.19.13.06.23.17.36.12.04-.02.07-.03.11-.04.03 0 .06-.01.08 0 .09.02.17.08.23.14.06.06.09.15.11.23.03.1.05.2.07.3.02.05.03.09.04.14 0 .03.01.07.02.1.02.05.07.1.11.15.05.07.09.15.16.22.04.04.09.06.14.08.06.02.12.05.18.09.05.03.09.09.15.11.09.03.19-.02.28-.09.14-.1.29-.24.38-.44-.01-.01 0-.03.01-.06.02-.04.05-.1.06-.11 0-.07.03-.17.04-.24.02-.11.05-.2.05-.32-.02-.17-.13-.39-.23-.59z"></path><path class="st1" d="M72.48 34.39c-.22-.2-.58-.31-.99-.28-.13.01-.26.04-.39.08-.21.07-.41.16-.6.27-.18.11-.35.19-.56.23-.42.09-.94.13-1.25.46-.03.04-.06.07-.1.11.02-.06.05-.12.06-.16.07-.17.15-.33.23-.49.16-.31.26-.68.21-1.03-.03-.15-.07-.27-.07-.44 0-.21.05-.42.09-.62.06-.4.05-.8.05-1.2-.01-.4-.07-.78-.07-1.19.01-.52.21-1.03.17-1.55-.03-.19-.1-.35-.15-.53-.07-.24-.11-.49-.12-.75-.01-.54.01-1.04.04-1.56.01-.19.02-.38-.02-.58-.04-.22-.14-.4-.24-.58-.33-.61-.45-1.31-.62-2-.15-.58-.17-1.14-.29-1.73-.12-.57-.38-1-.6-1.52-.25-.49-.29-1.01-.53-1.5-.2-.43-.59-.62-.83-1.03-.29-.5-.44-1.04-.84-1.49-.27-.32-.62-.56-.77-.96-.13-.31-.29-.74-.61-.95-.08-.05-.15-.08-.24-.15-.06-.04-.12-.09-.17-.14-.17-.18-.34-.39-.5-.57-.15-.19-.28-.39-.41-.59-.17-.25-.35-.51-.55-.75-.11-.12-.24-.22-.36-.33-.08-.07-.16-.15-.25-.21-.14-.09-.29-.14-.43-.2-.17-.07-.38-.15-.53-.14-.09 0-.14.06-.2.11-.07.06-.13.12-.22.16-.08.04-.17.04-.23.11-.08.09-.06.26-.03.41.04.24.08.5.18.74.02 0 .03.02.04.05.02.05.03.13.04.15.06.05.1.18.14.24.06.11.08.22.14.33.13.2.32.37.47.55.04.06.07.12.12.17l.15.16c.05.06.1.11.16.16.11.08.19.2.3.26.11.06.23.13.34.2.03.02.06.03.09.06.02.02.02.02.04.05.01.01.03.01.04.02.04.04.07.1.11.14.04.05.07.07.11.13.08.16.19.31.28.46.11.22.23.43.37.64.14.18.3.4.44.58.24.35.52.68.77 1.01.23.29.5.52.74.8.21.24.25.5.28.8.05.51.17 1 .31 1.52.13.57.36 1.1.56 1.64.18.55.4 1.09.54 1.65.13.59.26 1.21.2 1.79-.03.31-.08.63 0 .95.07.29.27.45.35.71.16.44-.08.89-.11 1.32-.03.47.03.91-.11 1.35.21.16.04.62-.05.86-.06.2-.04.3-.02.5.02.14-.01.28-.02.43-.02.29-.07.6-.06.89.01.13.09.19.12.32.04.16-.01.35-.04.52-.05.27-.09.56-.16.83-.03.12-.02.24-.05.36-.02.08-.05.14-.07.22 0 .03-.01.05-.01.08l-.06-.09c-.2-.45-.3-.91-.41-1.38-.04-.17-.08-.34-.16-.5-.1-.18-.24-.31-.36-.45-.08-.1-.14-.17-.22-.27-.06-.07-.1-.15-.15-.22-.01-.01-.03-.04-.05-.05-.01-.01-.02 0-.03-.01-.02-.02-.03-.06-.05-.08a.317.317 0 0 1-.05-.06h-.02a.47.47 0 0 0-.06-.09c-.02-.02-.05-.01-.07-.03-.01-.01-.02-.03-.03-.04-.01-.01-.02-.01-.03-.01-.02-.01-.04 0-.07-.01-.05-.01-.09-.02-.14-.02-.05 0-.1-.01-.15-.02-.07-.01-.14-.02-.2 0a.537.537 0 0 0-.22.01c-.06.03-.11.08-.17.11-.09.05-.18.09-.27.14-.06.03-.1.09-.14.16a.73.73 0 0 0-.09.26l-.01.09c-.02.11-.03.24-.05.35-.01.12.02.31.09.45.03.06.06.1.09.16.04.08.06.17.08.26.02.09.04.19.06.29.06.31.11.64.28.92.16.26.37.36.55.57.31.35.24.86.38 1.28.15.45.42.82.48 1.29.15.03.23.22.27.41.13.54.66.88 1.2.78l.58-.11c.12-.02.29-.06.39-.07.21-.04.29-.12.45-.23.11-.09.25-.14.39-.2.26-.12.57-.24.8-.41.11-.08.11-.19.2-.28.11-.12.3-.19.45-.26.26-.12.51-.23.77-.35.14-.07.24-.16.38-.22.16-.07.3-.13.45-.22.08-.05.16-.09.25-.12.3-.11.62-.25.81-.48.22-.26.28-.55.3-.8.06-.32-.02-.61-.25-.81zM23.69 15.32c.08-.42.25-.91.07-1.33-.05-.13-.12-.23-.15-.38-.04-.18-.03-.38-.03-.57 0-.37-.04-.73-.09-1.09-.04-.3-.13-.57-.17-.87l-.02-.19a.89.89 0 0 0-.99-.78c-.07.01-.14.01-.21.01-.48.01-.95-.17-1.43-.11-.17.02-.33.08-.49.13-.22.06-.46.09-.69.09-.5 0-.96-.08-1.43-.17-.17-.03-.35-.06-.53-.05-.2.02-.38.09-.56.16-.12.04-.21.06-.33.1-.08.03-.18.03-.26.06-.02.01-.05.01-.07.02-.01.01-.01.02-.02.03-.02.01-.06.01-.09.01-.02.01-.04.02-.07.02l-.01.01c-.03 0-.08.01-.1.02-.02 0-.02.02-.05.03-.02.01-.04.01-.05.02-.01.01-.01.02-.02.03l-.03.06c-.03.04-.06.07-.08.12-.02.05-.05.09-.08.13-.03.06-.08.12-.08.18-.04.07-.07.13-.07.21 0 .07.03.13.04.2.01.1.01.2.02.31.01.07.04.13.09.19.06.08.12.13.21.19l.08.05.3.18c.11.06.3.1.45.1.06 0 .12-.02.18-.02.09 0 .18.01.27.03.09.02.19.04.29.06.3.06.63.15.95.1.3-.04.48-.2.74-.28.02-.01.04 0 .07-.01-.02.03-.05.05-.07.08-.08.12-.2.23-.26.35-.06.13-.13.25-.18.39-.01.03-.02.08-.04.11-.02.02-.02.03-.04.05-.01.02-.01.04-.02.05-.03.05-.09.1-.12.15-.04.06-.06.1-.11.15-.14.13-.27.29-.41.42-.19.18-.41.35-.56.59-.13.21-.27.47-.4.69-.24.4-.51.78-.65 1.22-.14.38-.2.75-.33 1.12-.11.32-.3.52-.5.75-.35.41-.71.84-.99 1.36-.28.58-.51 1.17-.68 1.78-.15.61-.3 1.26-.44 1.86-.12.65-.31 1.31-.53 1.92-.11.32-.25.66-.26 1.02 0 .33.1.55.17.84.1.5-.19.96-.27 1.43-.08.52.05 1.01-.1 1.51.22.17.04.69.02.96-.03.23.02.34.08.55.04.15.05.32.06.47.03.32.04.68.16.98.05.14.15.18.22.3.09.16.11.37.14.55.05.3.08.61.17.91.03.13.1.25.13.38.02.08.02.16.05.25.09.26.19.57.27.83.1.31.22.63.39.89.19.3.43.46.66.54.23.08.46.09.67.02.18-.06.32-.22.45-.39.15-.24.14-.61.11-.96-.01-.04-.01-.05-.01-.08 0-.04.01-.07.02-.1.01-.08.01-.19 0-.28-.01-.09-.02-.19-.04-.28-.03-.1-.04-.21-.08-.31-.03-.07-.07-.12-.11-.18-.05-.09-.06-.26-.07-.36-.02-.16-.01-.32-.01-.48-.01-.31.01-.66-.16-.93-.07-.12-.15-.21-.2-.35-.06-.18-.08-.37-.11-.56-.04-.36-.09-.72-.17-1.08-.07-.36-.24-.69-.23-1.07 0-.48.18-.95.12-1.43-.01-.17-.06-.33-.09-.49-.04-.23-.05-.46-.03-.7.02-.5.19-.95.34-1.39.06-.16.11-.33.13-.51.01-.2-.04-.39-.05-.58-.05-.62.03-1.3.26-1.91.19-.53.41-.99.68-1.47.27-.46.34-.91.49-1.41.18-.47.54-.8.73-1.25.15-.4.14-.77.33-1.16.24-.48.59-.85.85-1.33.17-.34.24-.74.54-1.01.26-.2.61-.43.72-.76.03-.08.04-.16.07-.25.03-.06.05-.13.09-.19.11-.2.28-.39.45-.55.16-.16.34-.29.51-.42.03-.02.06-.05.09-.07.04.05.08.09.1.16.07.15.05.35.06.52.01.28.01.56.02.84.01.15.05.28.05.43 0 .17.01.32.03.5.01.09.02.18.02.28-.02.32-.01.67.12.94.15.3.39.48.61.59.28.14.57.17.85.04.27-.13.51-.41.65-.8.04-.12.07-.25.08-.39.02-.22.01-.44-.01-.66-.02-.24-.03-.42.01-.63z"></path><path class="st0" d="M50.3 9.33V9.3c-.01-.03-.01-.06-.02-.09v-.13c.02-.36.01-.77-.08-1.15-.02-.09-.04-.18-.04-.27V7.5c0-.04-.01-.08-.01-.12-.01-.04-.01-.1-.02-.14-.02-.05-.05-.09-.07-.13-.05-.09-.1-.2-.1-.3v-.22a.708.708 0 0 0-.1-.31c-.09-.15-.21-.25-.32-.35-.08-.07-.17-.14-.24-.24-.03-.08-.06-.17-.1-.26-.02-.04-.03-.08-.04-.12v-.16c-.03-.21-.16-.31-.3-.41a.749.749 0 0 0-.19-.24c-.23-.21-.36-.44-.53-.69-.21-.28-.43-.5-.69-.72-.23-.16-.38-.3-.56-.51-.56-.61-1.36-.95-2.12-1.22-.2-.11-.4-.22-.59-.33C43.8.84 43.4.67 43.01.5c-.17-.07-.31-.16-.5-.21-.17-.04-.36-.11-.54-.1-.31.02-.56-.06-.86-.11-.34-.05-.66-.05-1-.02-.06.01-.11.01-.16.02-.21-.02-.42-.02-.63-.05-.31-.04-.61-.06-.94 0-.33.05-.6.24-.92.32-.31.07-.62.13-.92.24-.27.1-.51.28-.77.36-.25.08-.47.08-.71.25-.27.19-.49.41-.75.61-.25.2-.54.36-.79.56-.19.18-.37.37-.57.53-.32.29-.63.59-.92.91-.17.15-.34.3-.48.5-.2.27-.25.6-.43.88-.17.27-.35.53-.48.82-.12.26-.16.55-.29.81-.12.23-.28.39-.33.67-.06.33-.06.64-.1.97-.03.32-.12.63-.16.96-.01.26 0 .52-.03.78-.03.57-.06 1.15.02 1.73.07.7.42 1.32.73 1.89.07.13.14.26.22.39.04.18.09.36.16.55.45 1.27 1.37 2.28 2.34 3.15.43.38.79.7 1.55 1.36.26.24.54.52.91.63.32.11.57.08.87.09.04.02.07.05.11.06.25.12.51.2.77.28.17.1.35.2.54.26.53.16 1.05.15 1.56.32.19-.21.72 0 1.01.03.24.03.36 0 .59-.06.16-.04.33-.06.5-.08.34-.04.72-.09 1.02-.24.04-.02.06-.04.09-.07.32-.01.66-.03.96-.19.27-.14.42-.31.61-.49.1-.03.2-.07.31-.1.31-.08.57-.23.83-.39.12-.04.24-.08.36-.14.49-.26.85-.63 1.33-.88-.01-.28.51-.51.74-.7.2-.15.26-.26.37-.45.08-.14.19-.28.29-.41.21-.27.44-.57.55-.89.02-.04.01-.08.02-.12.04-.06.08-.12.12-.17.03-.03.08-.07.12-.11a.55.55 0 0 0 .07-.09c.03-.03.07-.08.08-.11.02-.05.03-.1.04-.15.03-.1.07-.21.14-.29l.15-.15a.73.73 0 0 0 .15-.29c.04-.17.03-.33.02-.47-.01-.09-.01-.2-.01-.3.06-.13.12-.25.16-.39.04-.04.09-.08.13-.13.23-.27.05-.5.08-.82.01-.15.05-.27.03-.41-.02-.16-.08-.3-.11-.45-.12-.41.08-.66.16-1.04.02-.38-.03-.7-.12-1.03zm-2.74 3.56c-.2.32-.52.62-.53 1.02v.01l-.15.27c-.09.16-.17.32-.23.49-.1.19-.19.41-.26.62-.05.08-.1.15-.14.23-.19.25-.29.59-.55.8-.1.1-.23.17-.35.24-.03 0-.12-.01-.14 0-.03.04-.1.03-.15.04-.04.01-.09.01-.13.03-.04.02-.1.04-.14.05l-.09.06c-.04.03-.09.03-.13.06-.04.03-.1.06-.14.09-.06.04-.12.07-.18.12-.04.04-.08.09-.14.11 0 .01 0 .02-.02.03 0 .01-.03.05-.04.06-.11.12-.23.19-.39.21-.37.08-.81.07-1.1.34-.09.08-.15.19-.27.24-.15.07-.32.1-.48.14-.31.07-.63.13-.94.21-.32.04-.62.21-.96.18-.43-.01-.82-.26-1.24-.27h-.08c-.01 0-.02-.01-.03-.01-.43-.2-.84-.2-1.28-.35-.43-.13-.71-.47-1.08-.68-.33-.17-.69-.15-1-.38-.39-.29-.64-.68-1-1-.09-.07-.19-.14-.29-.21-.15-.26-.27-.53-.4-.8-.16-.44-.45-.73-.65-1.15-.21-.4-.17-.83-.28-1.24-.11-.35-.38-.59-.44-.98-.07-.48.03-.93 0-1.41a3.98 3.98 0 0 0-.05-.34c.01-.09.03-.19.06-.28.07-.2.19-.39.29-.57.12-.18.24-.35.29-.55.1-.35-.07-.7.1-1.03.21-.3.51-.41.58-.79.05-.32 0-.56.33-.78.09-.07.18-.13.25-.23.08-.12.15-.25.25-.37.26-.35.68-.53 1.02-.76.31-.18.6-.38.91-.56.03-.02.07-.04.11-.06.05-.02.1-.03.14-.06.04-.02.08-.06.11-.09.24-.13.49-.24.76-.34.22-.07.41-.16.59-.26.1-.01.21-.04.31-.12.26-.19.4-.4.78-.32.12.02.22.04.34.02.14-.03.28-.07.43-.09.43-.06.86.11 1.26.18.34.09.7.16 1.04.25.42.08.8.22 1.18.4.56.3 1.1.33 1.69.54.05.02.09.04.14.06.21.18.39.37.45.63.07.29.15.49.34.76.22.27.37.65.61.89.15.21.45.26.61.51.06.13.08.26.13.39l.06.12c.03.06.05.13.07.2.05.31.17.61.24.92.05.17.1.34.18.51.1.34.29.7.43 1.01v.01c-.02.06-.05.13-.09.19-.15.26-.24.46-.3.78-.03.34-.2.72-.2 1.06-.03.24.1.46.08.71 0 .09-.03.2-.1.29z"></path><path class="st1" d="M41.12.09c.3.06.55.13.86.11.06 0 .13.01.19.02-.32-.04-.64-.12-.96-.16-.28-.01-.55-.01-.83-.03L40.14 0v.07c.33-.03.64-.03.98.02zM41.6 20.79c-.01 0-.03.01-.04.01h.08c.02 0 .05-.01.07-.02-.04 0-.08.01-.11.01zM51.88 11.51c-.07-.37-.1-.74-.11-1.11-.05-.38-.04-.76-.07-1.14-.05-.65-.07-1.25-.17-1.89a4.56 4.56 0 0 0-.28-.86c-.14-.26-.3-.51-.45-.79-.31-.5-.43-1.07-.82-1.53-.31-.42-.77-.54-1.11-.9-.24-.21-.44-.43-.66-.66-.23-.2-.47-.4-.75-.57-.42-.19-.84-.3-1.21-.57-.4-.34-.77-.61-1.32-.58-.12 0-.23.03-.35.05-.22-.08-.44-.16-.65-.26-.25-.13-.42-.28-.71-.36-.33-.07-.64-.07-.97-.12l.24.06c.19.04.33.13.5.21.39.17.79.34 1.17.53.19.11.39.23.59.33.76.26 1.56.61 2.12 1.22.18.21.33.35.56.51.27.21.49.44.69.72.17.25.3.49.53.69.07.06.13.15.19.24.14.1.27.2.29.42v.16c.01.04.03.08.04.12.03.08.06.17.1.26.08.09.17.17.24.24.11.1.23.2.32.35.06.1.09.21.1.31v.22c.01.1.05.21.1.3.02.04.05.09.07.13.02.04.02.1.02.14.01.04.01.08.01.12v.16c0 .09.02.18.04.27.09.37.1.78.08 1.15 0 .04-.01.09 0 .13.01.03.01.06.02.09v.03c.09.33.15.65.09 1.02-.08.38-.28.63-.16 1.04.03.15.09.29.11.45.02.14-.02.27-.03.41-.03.32.15.55-.08.82l-.13.13c-.04.13-.1.26-.16.39-.01.11 0 .21.01.3.01.15.02.3-.02.47a.73.73 0 0 1-.15.29l-.15.15c-.07.08-.11.18-.14.29-.01.05-.02.1-.04.15-.02.04-.06.08-.08.11-.02.03-.05.06-.07.09-.04.04-.08.08-.12.11-.04.05-.08.11-.12.17 0 .04 0 .07-.02.12-.11.32-.34.62-.55.89-.1.13-.21.27-.29.41-.12.2-.18.31-.37.45-.23.19-.75.41-.74.7-.48.25-.84.62-1.33.88-.11.06-.23.1-.36.14-.26.17-.52.32-.83.39-.1.03-.21.07-.31.1-.19.18-.34.35-.61.49-.3.16-.64.18-.96.19-.03.02-.05.05-.09.07-.14.07-.31.12-.47.15.07.01.14.03.21.03.11 0 .23-.02.34-.07.06-.02.12-.06.17-.09.06 0 .12.03.17.03.05.01.11.02.17.03.06 0 .15.01.2.01.05 0 .1-.01.16-.02.07-.01.13 0 .21 0 .08-.01.16-.01.23-.03.1-.02.2-.04.29-.08.07-.03.15-.07.23-.08 0-.01.02-.02.03-.02 0-.02.06-.04.09-.06.19-.1.38-.15.59-.19.51-.07 1.14-.17 1.52-.56.11-.12.19-.25.33-.36.17-.15.4-.25.58-.39.36-.26.7-.54.98-.87.31-.32.49-.7.79-1.03.36-.42.86-.76 1.1-1.29.09-.19.15-.37.19-.56.07-.26.17-.52.29-.77.21-.54.49-1.02.71-1.54.09-.19.17-.39.18-.6.08-.24.04-.46.02-.68zM35.45 33.54h-.02c.01.01.01 0 .02 0z"></path><path class="st0" d="M68.96 91.28v-.01c0-.63-.52-1.13-1.14-1.13l-1.61.01h-2.4c.02-.31.04-.8.06-.81.02-.01.02-.03.03-.05.01-.02.01-.06.03-.06 0-.08.04-.13.05-.18.02-.07.04-.14.05-.24v-.11c0-.05.01-.1.02-.14.06-.38.1-.82.12-1.26.01-.1.01-.21.03-.3.01-.04.02-.1.04-.15.01-.04.01-.08.02-.12 0-.05.02-.1.02-.15 0-.06-.01-.13-.01-.19-.01-.13-.01-.27.01-.37.02-.05.04-.13.06-.19.03-.1.03-.23.02-.37-.01-.21-.06-.42-.1-.61-.04-.18-.11-.42-.1-.62.01-.21.09-.27.14-.38.14-.27-.06-.63-.07-1.02 0-.18.01-.32-.01-.5-.03-.21-.1-.41-.14-.62-.11-.56.04-.78.11-1.18.09-.48.01-.98-.04-1.53-.04-.52 0-.95.02-1.44v-.55c0-.35.04-.69.06-1.02.04-.49.05-1 .12-1.47.03-.21.08-.37.08-.6 0-.21.02-.44 0-.65-.05-.38-.03-.68.01-1.03.03-.4.02-.77-.02-1.19-.03-.33-.02-.58.01-.89.12-1.1-.11-2.36-.19-3.47-.09-1.24-.11-2.58 0-3.78.04-.43.13-.83.19-1.26.04-.41.08-.71.12-1.13.05-.36.14-.69.12-1.08-.01-.39-.11-.75-.12-1.14 0-.37.06-.73.05-1.11-.01-.25-.05-.5-.05-.74v-.05c-.01-.73-.62-1.32-1.35-1.3-.08 0-.17 0-.25-.01-.3-.04-.52-.11-.84-.1-.37.02-.72.11-1.09.13-.37.02-.74-.02-1.1-.02-.3 0-.6.02-.89.01l-.26-.01h-.01c-.71-.03-1.31.52-1.34 1.23l-.01.12c-.02.58-.05 1.15-.07 1.71-.02.79.16 1.55.26 2.31.11.82.23 1.57.13 2.42-.04.32-.09.64-.09.97.01.31.03.65.04.96.02.56.03 1.12.1 1.67.06.48.19.91.26 1.39.06.41-.02.73-.11 1.1-.16.64-.28 1.29-.34 1.99-.13 1.54.02 3.05.04 4.59.01.79-.01 1.63-.15 2.38-.07.4-.16.82-.12 1.25.03.39.19.64.27.98.13.59-.13 1.17-.18 1.74-.05.63.04 1.21-.1 1.81.22.21.04.82-.02 1.15-.05.27-.02.41.03.67.03.18.02.38.02.57 0 .39-.02.82.04 1.19.03.17.12.24.17.39.06.18.06.44.04.64-.01.11 0 .21 0 .32v.4c-.01.09-.01.19-.02.29-.02.25.07.49.2.68-.13-.02-.25-.02-.36-.02-1.47-.07-3.02-.16-4.6-.12-1.45.03-2.34.19-3.63.27-.51.03-1.01.04-1.51.03.16-.2.28-.44.29-.72v-.13c.02-.58.05-1.15.07-1.71.02-.79-.16-1.55-.26-2.31-.11-.82-.23-1.57-.13-2.42.04-.32.09-.64.09-.97-.01-.31-.03-.65-.04-.96-.02-.56-.03-1.12-.1-1.67-.06-.48-.19-.91-.26-1.39-.06-.41.02-.73.11-1.1.16-.64.28-1.29.34-1.99.13-1.54-.02-3.05-.04-4.59-.01-.79.01-1.63.15-2.38.07-.4.16-.82.12-1.25-.03-.39-.19-.64-.27-.98-.13-.59.13-1.17.18-1.74.05-.63-.04-1.21.1-1.81-.22-.21-.04-.82.02-1.15.05-.27.02-.41-.03-.67-.03-.18-.02-.38-.02-.57 0-.39.02-.82-.04-1.19-.03-.17-.12-.24-.17-.39-.06-.18-.06-.44-.04-.64.01-.11 0-.21 0-.32v-.4c.01-.09.01-.19.02-.29.04-.58-.39-1.1-.98-1.15l-.19-.02c-.16-.01-.33-.03-.5-.05-.65-.06-1.29-.05-1.92.06-.75.14-1.38.37-1.72.59-.13.09-.22.18-.21.27.01.09.1.17.21.25l.05.04h-.34v.07c-.1-.12-.2-.2-.31-.27 0 .03-.06.02-.07.03-.03 0-.07-.04-.1-.01-.04.03-.06.09-.1.13-.02.08-.07.03-.1.05-.02.01-.02.03-.03.05-.01.02-.01.06-.03.06 0 .08-.04.13-.05.18-.02.07-.04.14-.05.24v.11c0 .05-.01.1-.02.14-.06.38-.1.82-.12 1.26-.01.1-.01.21-.03.3-.01.04-.02.1-.04.15-.01.04-.01.08-.02.12 0 .05-.02.1-.02.15 0 .06.01.13.01.19.01.13.01.27-.01.37-.02.05-.04.13-.06.19-.03.1-.03.23-.02.37.01.21.06.42.1.61.04.18.11.42.1.62-.01.21-.09.27-.14.38-.14.27.06.63.07 1.02 0 .18-.01.32.01.5.03.21.1.41.14.62.11.56-.04.78-.11 1.18-.09.48-.01.98.04 1.53.04.52 0 .95-.02 1.44v.55c0 .35-.04.69-.06 1.02-.04.49-.05 1-.12 1.47-.03.21-.08.37-.08.6 0 .21-.02.44 0 .65.05.38.03.68-.01 1.03-.03.4-.02.77.02 1.19.03.33.02.58-.01.89-.12 1.1.11 2.36.19 3.47.09 1.24.11 2.58 0 3.78-.04.43-.13.83-.19 1.26-.04.41-.08.71-.12 1.13-.05.36-.14.69-.12 1.08.01.39.11.75.12 1.14 0 .37-.06.73-.05 1.11.01.25.05.5.05.74v.05c0 .2.06.39.14.56-1.63 0-3.22.02-4.82-.08-.76.22-3.03.04-4.23-.02-.39-.02-.69-.02-.98-.02.05-.37.09-.77.11-1.19.01-.11.01-.22.03-.31.01-.04.02-.1.04-.15.01-.04.01-.08.02-.13 0-.05.02-.11.02-.16 0-.06-.01-.13-.01-.2-.01-.14-.01-.28.01-.38.02-.06.04-.14.06-.2.03-.1.03-.24.02-.38-.01-.22-.06-.44-.1-.64-.04-.19-.11-.44-.1-.65.01-.22.09-.28.14-.39.14-.28-.06-.66-.07-1.06 0-.19.01-.33-.01-.52-.03-.22-.1-.43-.14-.64-.11-.58.04-.81.11-1.23.09-.5.01-1.02-.04-1.59-.04-.54 0-.99.02-1.49v-.57c0-.37.04-.72.06-1.07.04-.51.05-1.04.12-1.53.03-.22.08-.39.08-.63 0-.22.02-.45 0-.67-.05-.39-.03-.7.01-1.07.03-.42.02-.8-.02-1.24-.03-.35-.02-.61.01-.93.12-1.15-.11-2.45-.19-3.62-.09-1.29-.11-2.69 0-3.94.04-.45.13-.87.19-1.31.04-.43.08-.74.12-1.18.05-.37.14-.72.12-1.13-.01-.41-.11-.78-.12-1.19 0-.39.06-.76.05-1.16-.01-.26-.05-.52-.05-.77v-.05c-.01-.76-.62-1.37-1.35-1.36-.08 0-.17 0-.25-.01-.3-.04-.52-.12-.84-.1-.37.02-.72.12-1.09.13-.37.02-.74-.02-1.1-.02-.3 0-.6.02-.89.01l-.26-.01h-.01c-.71-.03-1.31.54-1.34 1.29l-.01.13c-.02.6-.05 1.2-.07 1.78-.02.83.16 1.62.26 2.4.11.86.23 1.64.13 2.52-.04.33-.09.66-.09 1.01.01.32.03.68.04 1 .02.59.03 1.17.1 1.74.06.5.19.95.26 1.44.06.43-.02.76-.11 1.15-.16.66-.28 1.34-.34 2.08-.13 1.6.02 3.18.04 4.78.01.83-.01 1.7-.15 2.48-.07.41-.16.85-.12 1.31.03.41.19.66.27 1.03.13.62-.13 1.21-.18 1.81-.05.65.04 1.27-.1 1.89.22.22.04.86-.02 1.2-.05.28-.02.43.03.69.03.19.02.4.02.59 0 .4-.02.85.04 1.24.03.18.12.25.17.41.06.18.06.46.04.67-.01.06 0 .13 0 .19-.5.01-1 .02-1.46.04-.64.03-.87.12-1.45.17-.75.07-1.68.05-2.52.04H15c-.12 0-.24 0-.36.01.15-.2.26-.43.27-.7l.01-.12c.02-.58.05-1.15.07-1.71.02-.79-.16-1.55-.26-2.31-.11-.82-.23-1.57-.13-2.42.04-.32.09-.64.09-.97-.01-.31-.03-.65-.04-.96-.02-.56-.03-1.12-.1-1.67-.06-.48-.19-.91-.26-1.39-.06-.41.02-.73.11-1.1.16-.64.28-1.29.34-1.99.13-1.54-.02-3.05-.04-4.59-.01-.79.01-1.63.15-2.38.07-.4.16-.82.12-1.25-.03-.39-.19-.64-.27-.98-.13-.59.13-1.17.18-1.74.05-.63-.04-1.21.1-1.81-.22-.21-.04-.82.02-1.15.05-.27.02-.41-.03-.67-.03-.18-.02-.38-.02-.57 0-.39.02-.82-.04-1.19-.03-.17-.12-.24-.17-.39-.06-.18-.06-.44-.04-.64.01-.11 0-.21 0-.32v-.4c.01-.09.01-.19.02-.29.04-.58-.39-1.1-.98-1.15l-.19-.02c-.16-.01-.33-.03-.5-.05-.65-.06-1.29-.05-1.92.06-.75.14-1.38.37-1.72.59-.13.09-.22.18-.21.27.01.09.1.17.21.25l.05.04h-.37v.07c-.1-.12-.2-.2-.31-.27 0 .03-.06.02-.07.03-.03 0-.07-.04-.1-.01-.04.03-.06.09-.1.13-.02.08-.07.03-.1.05-.02.01-.02.03-.03.05-.01.02-.01.06-.03.06 0 .08-.04.13-.05.18-.02.07-.04.14-.05.24v.11c0 .05-.01.1-.02.14-.06.38-.1.82-.12 1.26-.01.1-.01.21-.03.3-.01.04-.02.1-.04.15-.01.04-.01.08-.02.12 0 .05-.02.1-.02.15 0 .06.01.13.01.19.01.13.01.27-.01.37 0 .03-.02.11-.04.17-.03.1-.03.23-.02.37.01.21.06.42.1.61.04.18.11.42.1.62-.01.2-.09.26-.14.37-.14.27.06.63.07 1.02 0 .18-.01.32.01.5.03.21.1.41.14.62.11.56-.04.78-.11 1.18-.09.48-.01.98.04 1.53.04.52 0 .95-.02 1.44v.55c0 .35-.04.69-.06 1.02-.04.49-.05 1-.12 1.47-.03.21-.08.37-.08.6 0 .21-.02.44 0 .65.05.38.03.68-.01 1.03-.03.4-.02.77.02 1.19.03.33.02.58-.01.89-.12 1.1.11 2.36.19 3.47.09 1.24.11 2.58 0 3.78-.04.43-.13.83-.19 1.26-.04.41-.08.71-.12 1.13-.05.36-.14.69-.12 1.08.01.39.11.75.12 1.14 0 .37-.06.73-.05 1.11.01.25.05.5.05.74v.05c.01.31.13.58.32.8-.52-.02-1.04-.04-1.55-.07-.82-.04-1.61-.07-2.44-.11-.31-.01-.65 0-.99.01h-.11c-.67.03-1.19.6-1.16 1.26.02.56.05 1.12.07 1.64 0 .11.02.93.09 1.71.06.79.15 1.51.15 1.51l6.31.12c2.94.05 5.88-.07 8.74-.13 3.13-.06 5.96-.16 9.07-.04 1.16.04 2.33.1 3.58.1 1.18-.01 2.4-.01 3.6-.02 2.11 0 4.19-.01 6.25-.07 1.81-.05 3.47-.17 5.24-.23 1.53-.06 2.71.02 4.06.11 2.32.16 4.73.29 7.36.35 3.84.09 7.68.06 11.52.02h.02c.65-.01 1.16-.53 1.16-1.18l-.08-3.86z"></path><g><path class="st1" d="M8.05 90.18a1.33 1.33 0 0 1-.32-.8v-.05c0-.25-.04-.5-.05-.74-.01-.18.01-.35.02-.52-.34.01-.68.03-1.01.02-.02 0-.08 0-.31-.01-.65-.01-1.2.49-1.24 1.14l-.01.1c-.01.14-.01.41 0 .73l1.36.06c.52.04 1.04.06 1.56.07zM81.5 91.28c.08-.57-.31-1.09-.88-1.18l-.36-.06c-.1-.02-.2-.03-.31-.05-.41-.07-.84-.16-1.28-.12-.25.02-.45.09-.65.16l-.03-.7v-.08c-.03-.61-.53-1.08-1.14-1.07l-.35.01c-.35.01-.71 0-1.07-.03.01-.36.01-.71.02-1.08.04-.9.09-1.8.09-2.75-.01-.89-.03-1.81-.04-2.71-.01-1.59-.03-3.17-.11-4.71-.06-1.36-.19-2.59-.26-3.92-.06-1.15.02-2.07.11-3.11.16-1.79.28-3.63.34-5.63.12-3.9.01-7.76-.03-11.65 1.62-.1 3.32-.13 5.03-.11.32 0 .63-.17.78-.47.22-.43.05-.96-.37-1.18l-.02-.01-.71-.37c-1.74-.9-3.25-1.79-4.91-2.72-1.6-.9-3.07-1.54-4.71-2.33-1.58-.76-2.92-1.64-4.47-2.4-1.36-.67-2.47-.97-3.82-1.64-1.67-.82-3.18-1.73-4.91-2.52-1.21-.56-2.43-.98-3.59-1.68-1.32-.79-2.38-1.47-3.83-1.95-.66-.22-1.23-.36-1.96-.64-.49-.19-.8-.39-1.11-.61-.07-.05-.15-.11-.23-.17a2.153 2.153 0 0 0-.84-.34c-.08-.01-.19-.02-.26-.03l-.18-.01c-2.59-.13-4.28-.28-6.9.11-.34.04-2.68-.04-3.09 0 .18 0 .36.03.49.09l.04.02c.01 0 .05.02.06.03.35.16.65.27.86.31 2 1.14 4.09 2.06 6.23 3.17 1.96 1.01 3.84 2.23 5.94 3.11 1.24.52 2.16.8 3.54 1.43 1.51.7 2.93 1.49 4.29 2.24 2.56 1.4 5.44 2.84 8.2 4.18 1.64.79 3.29 1.58 4.92 2.36l-.08-.03c.21.08.45.26.59.51a1.22 1.22 0 0 1-.16 1.45c-.18.2-.46.34-.71.38l-.2.01h-.64l-.77.01-1.53.01-3.06.02c-2.04.01-4.09-.01-6.14-.05-2.73-.06-5.25-.18-7.7-.34-1.42-.09-2.67-.17-4.25-.11-1.8.09-3.55.17-5.36.26-2.11.07-4.26.09-6.44.1-1.23.01-2.49.03-3.71.04-1.3 0-2.53-.05-3.76-.09-3.28-.11-6.16.02-9.34.13-2.91.1-5.84.29-8.9.26L4.56 53h-.9l.06 1.23c0 .11.02.91.09 1.68.06.77.15 1.48.15 1.48 1.42.03 2.84.05 4.26.08l.03-.26a.59.59 0 0 0 .02-.14v-.11c.01-.1.03-.17.05-.24.01-.05.05-.11.05-.18.01-.01.02-.04.03-.06.01-.03.02-.04.03-.05.03-.02.08.04.1-.05.03-.04.06-.1.1-.13.03-.03.07.02.1.01.01 0 .07 0 .07-.03.1.07.2.15.31.27v-.07h.35l-.07-.03c-.11-.08-.2-.17-.21-.25-.01-.09.08-.18.21-.27.34-.22.97-.45 1.72-.59.63-.12 1.27-.12 1.92-.06.17.02.34.03.5.05l.19.02c.59.05 1.02.57.98 1.15-.01.1-.01.2-.02.29v.4c0 .11.01.22 0 .32-.02.2-.02.47.04.64.05.15.14.22.17.39.06.37.04.8.04 1.19 0 .19-.01.39.02.57.04.26.07.39.03.67-.05.33-.23.94-.02 1.15-.14.6-.05 1.19-.1 1.81-.05.57-.32 1.15-.18 1.74.08.35.23.59.27.98.04.43-.05.86-.12 1.25-.14.76-.16 1.59-.15 2.38.02 1.54.17 3.06.04 4.59-.06.71-.18 1.36-.34 1.99-.09.37-.17.69-.11 1.1.07.47.2.91.26 1.39.07.55.09 1.1.1 1.67.01.31.03.66.04.96 0 .33-.05.65-.09.97-.11.85.02 1.59.13 2.42.1.75.29 1.51.26 2.31-.02.56-.05 1.13-.07 1.71l-.01.12c-.01.27-.12.5-.27.7.12 0 .24 0 .36-.01h4.09c.84 0 1.77.02 2.52-.04.57-.05.8-.14 1.45-.17.47-.02.96-.03 1.46-.04 0-.06-.01-.13 0-.19.02-.21.02-.49-.04-.67-.05-.16-.14-.23-.17-.41-.03-.16-.03-.33-.04-.5l-.2.03c-.65.07-1.47.05-2.2.04h-3.58l-1.19.03c.04-.29.06-.6.08-.92.01-.1.01-.21.03-.3.01-.04.02-.1.04-.15.01-.04.01-.08.02-.12 0-.05.02-.1.02-.15 0-.06-.01-.13-.01-.19-.01-.13-.01-.27.01-.37.02-.05.04-.13.06-.19.03-.1.03-.23.02-.37-.01-.21-.06-.42-.1-.61-.04-.18-.11-.42-.1-.62.01-.21.09-.27.14-.38.14-.27-.06-.63-.07-1.02 0-.18.01-.32-.01-.5-.03-.21-.1-.41-.14-.62-.11-.56.04-.78.11-1.18.09-.48.01-.98-.04-1.53-.04-.52 0-.95.02-1.44v-.55c0-.35.04-.69.06-1.02.04-.49.05-1 .12-1.47.03-.21.08-.37.08-.6 0-.21.02-.44 0-.65-.05-.38-.03-.68.01-1.03.03-.4.02-.77-.02-1.19-.03-.33-.02-.58.01-.89.12-1.1-.11-2.36-.19-3.47-.09-1.24-.11-2.58 0-3.78.04-.43.13-.83.19-1.26.04-.41.08-.71.12-1.13.05-.36.14-.69.12-1.08-.01-.39-.11-.75-.12-1.14 0-.3.03-.58.04-.88l1.1-.03c1.93-.04 3.74-.08 5.58-.09l.03-.8.01-.13c.03-.74.63-1.32 1.34-1.29h.01l.26.01c.3.02.59-.01.89-.01.37 0 .74.04 1.1.02.38-.02.72-.11 1.09-.13.32-.02.54.06.84.1.08.01.17.01.25.01.73-.01 1.34.59 1.35 1.36v.05c0 .26.04.52.05.77.01.39-.05.77-.05 1.16.01.41.1.78.12 1.19.01.41-.07.76-.12 1.13-.05.44-.08.75-.12 1.18-.06.44-.15.86-.19 1.31-.12 1.25-.09 2.65 0 3.94.08 1.17.31 2.47.19 3.62-.03.32-.04.58-.01.93.04.44.05.82.02 1.24-.03.37-.06.68-.01 1.07.03.22 0 .46 0 .67 0 .24-.05.41-.08.63-.06.49-.07 1.03-.12 1.53-.03.35-.06.7-.06 1.07v.57c-.02.5-.06.95-.02 1.49.04.57.12 1.09.04 1.59-.07.43-.22.65-.11 1.23.04.22.1.42.14.64.03.19.01.34.01.52.01.4.2.78.07 1.06-.05.11-.14.17-.14.39-.01.21.06.45.1.65.04.2.09.41.1.64.01.14 0 .28-.02.38-.02.06-.04.14-.06.2-.02.1-.02.24-.01.38.01.07.01.13.01.2 0 .05-.01.11-.02.16 0 .05-.01.09-.02.13-.01.05-.03.11-.04.15-.02.09-.02.2-.03.31-.02.41-.06.82-.11 1.19.29 0 .6 0 .98.02 1.2.05 3.47.23 4.23.02 1.6.1 3.19.08 4.82.08-.08-.17-.14-.36-.14-.56v-.05c0-.25-.04-.5-.05-.74-.01-.2.01-.4.02-.6-1.35 0-2.67.02-4-.08-.48.16-1.65.11-2.66.05 0-.11.01-.22.01-.33.02-.79-.16-1.55-.26-2.31-.11-.82-.23-1.57-.13-2.42.04-.32.09-.64.09-.97-.01-.31-.03-.65-.04-.96-.02-.56-.03-1.12-.1-1.67-.06-.48-.19-.91-.26-1.39-.06-.41.02-.73.11-1.1.16-.64.28-1.29.34-1.99.13-1.54-.02-3.05-.04-4.59-.01-.79.01-1.63.15-2.38.07-.4.16-.82.12-1.25-.03-.39-.19-.64-.27-.98-.13-.59.13-1.17.18-1.74.05-.63-.04-1.21.1-1.81-.22-.21-.04-.82.02-1.15.05-.27.02-.41-.03-.67-.03-.18-.02-.38-.02-.57 0-.39.02-.82-.04-1.19-.03-.17-.12-.24-.17-.39-.06-.18-.06-.44-.04-.64v-.01h.7c2.06 0 4.1-.01 6.12-.07.21-.01.42-.02.63-.02.01-.04.01-.08.02-.12a.59.59 0 0 0 .02-.14v-.11c.01-.1.03-.17.05-.24.01-.05.05-.11.05-.18.01-.01.02-.04.03-.06.01-.03.02-.04.03-.05.03-.02.08.04.1-.05.03-.04.06-.1.1-.13.03-.03.07.02.1.01.01 0 .07 0 .07-.03.1.07.2.15.31.27v-.07h.35l-.04-.06c-.11-.08-.2-.17-.21-.25-.01-.09.08-.18.21-.27.34-.22.97-.45 1.72-.59.63-.12 1.27-.12 1.92-.06.17.02.34.03.5.05l.19.02c.59.05 1.02.57.98 1.15-.01.1-.01.2-.02.29-.01.13 0 .27 0 .4 0 .11.01.22 0 .32-.02.2-.02.47.04.64.05.15.14.22.17.39.06.37.04.8.04 1.19 0 .19-.01.39.02.57.04.26.07.39.03.67-.05.33-.23.94-.02 1.15-.14.6-.05 1.19-.1 1.81-.05.57-.32 1.15-.18 1.74.08.35.23.59.27.98.04.43-.05.86-.12 1.25-.14.76-.16 1.59-.15 2.38.02 1.54.17 3.06.04 4.59-.06.71-.18 1.36-.34 1.99-.09.37-.17.69-.11 1.1.07.47.2.91.26 1.39.07.55.09 1.1.1 1.67.01.31.03.66.04.96 0 .33-.05.65-.09.97-.11.85.02 1.59.13 2.42.1.75.29 1.51.26 2.31-.02.56-.05 1.13-.07 1.71l-.01.12c-.01.28-.13.52-.29.72.5 0 1 0 1.51-.03 1.28-.08 2.18-.23 3.63-.27 1.59-.04 3.14.05 4.6.12.11.01.23.01.34.01-.14-.2-.22-.43-.2-.68.01-.1.01-.2.02-.29v-.4c0-.11-.01-.22 0-.32.01-.05 0-.12.01-.18-.74-.02-1.47-.05-2.18-.09-1.29-.07-2.64-.16-4.03-.12-.45.01-.83.04-1.19.08.02-.23.04-.46.05-.7.01-.1.01-.21.03-.3.01-.04.02-.1.04-.15.01-.04.01-.08.02-.12 0-.05.02-.1.02-.15 0-.06-.01-.13-.01-.19-.01-.13-.01-.27.01-.37.02-.05.04-.13.06-.19.03-.1.03-.23.02-.37-.01-.21-.06-.42-.1-.61-.04-.18-.11-.42-.1-.62.01-.21.09-.27.14-.38.14-.27-.06-.63-.07-1.02 0-.18.01-.32-.01-.5-.03-.21-.1-.41-.14-.62-.11-.56.04-.78.11-1.18.09-.48.01-.98-.04-1.53-.04-.52 0-.95.02-1.44v-.55c0-.35.04-.69.06-1.02.04-.49.05-1 .12-1.47.03-.21.08-.37.08-.6 0-.21.02-.44 0-.65-.05-.38-.03-.68.01-1.03.03-.4.02-.77-.02-1.19-.03-.33-.02-.58.01-.89.12-1.1-.11-2.36-.19-3.47-.09-1.24-.11-2.58 0-3.78.04-.43.13-.83.19-1.26.04-.41.08-.71.12-1.13.05-.36.14-.69.12-1.08-.01-.39-.11-.75-.12-1.14 0-.33.04-.65.04-.99 2 .13 4.07.24 6.31.29h.34c.02-.39.03-.77.05-1.17l.01-.12c.03-.71.63-1.26 1.34-1.23h.01l.26.01c.3.01.59-.01.89-.01.37 0 .74.03 1.1.02.38-.02.72-.11 1.09-.13.32-.02.54.06.84.1.08.01.17.01.25.01.73-.01 1.34.57 1.35 1.3v.05c0 .25.04.5.05.74.01.38-.05.74-.05 1.11.01.39.1.75.12 1.14.01.39-.07.73-.12 1.08-.05.43-.08.72-.12 1.13-.06.43-.15.82-.19 1.26-.12 1.2-.09 2.54 0 3.78.08 1.12.31 2.37.19 3.47-.03.31-.04.56-.01.89.04.42.05.79.02 1.19-.03.35-.06.65-.01 1.03.03.21 0 .44 0 .65 0 .23-.05.39-.08.6-.06.47-.07.99-.12 1.47-.03.33-.06.67-.06 1.02v.55c-.02.48-.06.92-.02 1.44.04.55.12 1.04.04 1.53-.07.41-.22.63-.11 1.18.04.21.1.4.14.62.03.19.01.33.01.5.01.39.2.75.07 1.02-.05.1-.14.16-.14.38-.01.2.06.44.1.62.04.19.09.4.1.61.01.14 0 .27-.02.37-.02.06-.04.13-.06.19-.02.1-.02.24-.01.37.01.06.01.13.01.19 0 .05-.01.1-.02.15 0 .05-.01.09-.02.12-.01.05-.03.11-.04.15-.02.09-.02.19-.03.3-.02.44-.06.88-.12 1.26a.59.59 0 0 0-.02.14v.11c-.01.1-.03.17-.05.24-.01.05-.05.11-.05.18-.01.01-.02.04-.03.06-.01.03-.02.04-.03.05-.02.01-.04.5-.06.81h2.4l1.61-.01c.63 0 1.14.5 1.14 1.13v.01l.06 3.92c0 .42-.22.77-.55.98.21.03.43.03.65.06.32.04.65.09.99.09.31-.01.66-.03.98-.04.58-.01 1.15-.03 1.7-.11.49-.06.94-.19 1.42-.26.42-.06.75.02 1.12.11.65.16 1.31.28 2.04.34.97.08 1.94.05 2.91.02h.08c.63-.02 1.13-.55 1.11-1.19l-.06-1.78c-.01-.71.01-1.45.11-2.13zM65.85 96.38c.05.01.09.01.14.01h.29c.11 0 .2 0 .3-.01.03 0 .07 0 .11-.01-.28.01-.56.01-.84.01z"></path></g></svg>