<svg xmlns="http://www.w3.org/2000/svg" viewBox="0 0 253 239" id="clouds"><g fill="none" fill-rule="evenodd" opacity=".637"><g opacity=".427"><path d="M167 128.868c0-3.505 3.069-6.347 6.854-6.347 0-5.258 4.603-9.521 10.28-9.521 5.679 0 10.281 4.263 10.281 9.52-.417 3.914-2.178 9.271-10.28 10.106-17.117 1.765-16.85-1.406-17.135-3.758z" fill="#FFF" fill-rule="nonzero"></path><path d="M167 129.111c0-3.56 3.069-6.444 6.854-6.444 0-5.34 4.603-9.667 10.28-9.667 5.679 0 10.281 4.328 10.281 9.667" stroke="#CDCDD1" stroke-width="3.131" stroke-linecap="round" stroke-linejoin="round"></path><path d="M183.615 136.192c0-4.768 4.185-8.632 9.347-8.632 0-7.152 6.276-12.949 14.019-12.949 7.742 0 14.019 5.797 14.019 12.949-.57 5.322-2.97 12.607-14.02 13.743-23.34 2.4-22.975-1.913-23.365-5.111z" fill="#FFF" fill-rule="nonzero"></path><path d="M183.615 136.361c0-4.805 4.185-8.7 9.347-8.7 0-7.207 6.276-13.05 14.019-13.05 7.742 0 14.019 5.843 14.019 13.05" stroke="#CDCDD1" stroke-width="3.131" stroke-linecap="round" stroke-linejoin="round"></path></g><g opacity=".427"><path d="M2 17.868c0-3.505 3.069-6.347 6.854-6.347C8.854 6.263 13.457 2 19.134 2c5.679 0 10.281 4.263 10.281 9.52-.417 3.914-2.178 9.271-10.28 10.106C2.018 23.391 2.285 20.22 2 17.868z" fill="#FFF" fill-rule="nonzero"></path><path d="M2 18.111c0-3.56 3.069-6.444 6.854-6.444C8.854 6.327 13.457 2 19.134 2c5.679 0 10.281 4.328 10.281 9.667" stroke="#CDCDD1" stroke-width="3.131" stroke-linecap="round" stroke-linejoin="round"></path><path d="M18.615 25.192c0-4.768 4.185-8.632 9.347-8.632 0-7.152 6.276-12.949 14.019-12.949C49.723 3.611 56 9.408 56 16.56c-.57 5.322-2.97 12.607-14.02 13.743-23.34 2.4-22.975-1.913-23.365-5.111z" fill="#FFF" fill-rule="nonzero"></path><path d="M18.615 25.361c0-4.805 4.185-8.7 9.347-8.7 0-7.207 6.276-13.05 14.019-13.05C49.723 3.611 56 9.454 56 16.661" stroke="#CDCDD1" stroke-width="3.131" stroke-linecap="round" stroke-linejoin="round"></path></g><g opacity=".427"><path d="M251 208.033c0-8.181-8.284-14.813-18.502-14.813 0-12.272-12.425-22.22-27.752-22.22-15.328 0-27.753 9.948-27.753 22.22 1.128 9.133 5.88 21.635 27.753 23.584 46.204 4.117 45.482-3.283 46.254-8.77z" fill="#FFF" fill-rule="nonzero"></path><path d="M251 209c0-8.395-8.284-15.2-18.502-15.2 0-12.592-12.425-22.8-27.752-22.8-15.328 0-27.753 10.208-27.753 22.8" stroke="#CDCDD1" stroke-width="3.131" stroke-linecap="round" stroke-linejoin="round"></path><path d="M205.38 225.64c0-10.966-11.348-19.856-25.346-19.856 0-16.45-17.02-29.784-38.017-29.784C121.021 176 104 189.335 104 205.784c1.545 12.242 8.055 29 38.017 31.613 63.294 5.519 62.305-4.401 63.362-11.757z" fill="#FFF" fill-rule="nonzero"></path><path d="M205.38 228c0-11.488-11.348-20.8-25.346-20.8 0-17.231-17.02-31.2-38.017-31.2C121.021 176 104 189.969 104 207.2" stroke="#CDCDD1" stroke-width="3.131" stroke-linecap="round" stroke-linejoin="round"></path></g><path d="M198 158.968c3.003.498 4.826 1.606 5.47 3.324.964 2.576 1.637-2.577 6.53-4.292M165 92.811c-4.306.915-6.478 1.884-6.515 2.908C158.428 97.254 158.428 92 154 92" stroke="#CDCDD1" stroke-width="3" stroke-linecap="round" stroke-linejoin="round"></path></g></svg>