<?xml version="1.0"?>
<svg xmlns="http://www.w3.org/2000/svg" xmlns:xlink="http://www.w3.org/1999/xlink" xmlns:svgjs="http://svgjs.com/svgjs" version="1.1" width="512" height="512" x="0" y="0" viewBox="0 0 24 24" style="enable-background:new 0 0 512 512" xml:space="preserve" class=""><g><g xmlns="http://www.w3.org/2000/svg"><path d="m10 24c-.561 0-1-.439-1-1 0-.018.001-.085.003-.103l.941-8.897h-4.944c-.561 0-1-.439-1-1 0-.213.073-.432.201-.601l7.983-11.976c.203-.273.503-.423.816-.423.561 0 1 .439 1 1 0 .02-.001.099-.003.119l-.935 7.881h5.938c.561 0 1 .439 1 1 0 .211-.073.43-.2.6l-8.989 12.985c-.198.265-.498.415-.811.415zm3.003-22.999-7.987 11.977 5.484.022c.142 0 .277.06.372.166s.141.246.125.387l-1 9.45 9.003-13.003c0-.003 0-.004 0-.004l-6.5.004c-.143 0-.279-.061-.374-.168s-.14-.249-.123-.391z" fill="#6584e1" data-original="#000000" style=""/></g></g></svg>
