<svg width="41" height="37" viewBox="0 0 41 37" fill="none" xmlns="http://www.w3.org/2000/svg">
<path d="M32.5546 22.6947C32.4855 22.733 32.4107 22.7582 32.3301 22.7703L14.4775 25.2676C14.2126 25.3049 13.9521 25.1741 13.8222 24.9398L10.0574 18.1481C9.92755 17.9138 9.9546 17.6235 10.1266 17.4187L21.7046 3.6019C21.8424 3.43672 22.0498 3.35433 22.2632 3.37364C22.4755 3.39357 22.6638 3.51707 22.7674 3.70384L32.8068 21.815C32.9103 22.0018 32.9153 22.2269 32.8197 22.4175C32.7599 22.5365 32.6678 22.632 32.5546 22.6947V22.6947ZM14.7383 23.9229L31.2181 21.6184L22.0922 5.15536L11.4052 17.91L14.7383 23.9229Z" fill="#2A2A2A"/>
<path d="M14.7019 25.192L10.7401 27.3881C9.49159 28.0802 7.9134 27.6277 7.2213 26.3792L5.33891 22.9833C4.64682 21.7348 5.09934 20.1566 6.34788 19.4645L10.3097 17.2684C10.6221 17.0952 11.0162 17.2082 11.1894 17.5206L14.9542 24.3123C15.1274 24.6247 15.0144 25.0188 14.7019 25.192ZM6.97534 20.5964C6.35051 20.9428 6.1245 21.731 6.47086 22.3558L8.35325 25.7517C8.69961 26.3765 9.48783 26.6025 10.1127 26.2562L13.5085 24.3738L10.3712 18.714L6.97534 20.5964Z" fill="#2A2A2A"/>
<path d="M21.3581 31.8607L17.9622 33.7431C17.6804 33.8993 17.3267 33.8246 17.1321 33.5669L11.6079 26.2708C11.3925 25.9862 11.4488 25.5806 11.7345 25.3646C12.0165 25.1579 12.4246 25.2054 12.6407 25.4911L17.826 32.3388L20.0967 31.0801L15.6046 24.7597C15.3988 24.4683 15.4668 24.0651 15.7568 23.857C16.0386 23.6579 16.4514 23.7191 16.6595 24.0092L21.5706 30.9201C21.6778 31.0708 21.7154 31.2586 21.6744 31.4382C21.6345 31.6172 21.5199 31.771 21.3581 31.8607V31.8607Z" fill="#2A2A2A"/>
<path d="M27.9164 8.98835C27.7341 9.08938 27.5063 9.10022 27.3055 8.99696C26.9887 8.83374 26.8637 8.4428 27.0281 8.1253L29.169 3.97901C29.3317 3.66389 29.7214 3.53667 30.0406 3.70152C30.3575 3.86473 30.4825 4.25567 30.3181 4.57318L28.1772 8.71946C28.1168 8.83732 28.025 8.92812 27.9164 8.98835Z" fill="#2A2A2A"/>
<path d="M36.9594 17.2935C36.8508 17.3537 36.7252 17.3834 36.5932 17.3722L31.9424 16.9907C31.5872 16.9612 31.3207 16.6487 31.3502 16.2935C31.3803 15.9365 31.6951 15.6717 32.0475 15.7013L36.6982 16.0828C37.0535 16.1123 37.3199 16.4248 37.2904 16.78C37.2716 17.005 37.1417 17.1925 36.9594 17.2935V17.2935Z" fill="#2A2A2A"/>
<path d="M33.5083 11.0678L30.1125 12.9502C29.8001 13.1233 29.406 13.0103 29.2328 12.6979C29.0596 12.3855 29.1726 11.9914 29.485 11.8182L32.8809 9.93583C33.1933 9.76265 33.5874 9.87565 33.7606 10.1881C33.9338 10.5005 33.8208 10.8946 33.5083 11.0678Z" fill="#2A2A2A"/>
</svg>
