<svg width="314" height="250" viewBox="0 0 314 250" fill="none" xmlns="http://www.w3.org/2000/svg">
<path d="M235.392 28.0866C240.972 28.0866 245.495 23.5633 245.495 17.9835C245.495 12.4038 240.972 7.88051 235.392 7.88051C229.812 7.88051 225.289 12.4038 225.289 17.9835C225.289 23.5633 229.812 28.0866 235.392 28.0866Z" fill="#2F2E41"/>
<path d="M228.251 24.1479C228.251 24.1479 226.79 42.5504 225.036 42.5504C223.283 42.5504 245.495 41.6844 245.495 41.6844C245.495 41.6844 236.142 29.5604 240.818 25.6634C245.495 21.7665 228.251 24.1479 228.251 24.1479Z" fill="#9F616A"/>
<path opacity="0.1" d="M228.251 24.1479C228.251 24.1479 226.79 42.5504 225.036 42.5504C223.283 42.5504 245.495 41.6844 245.495 41.6844C245.495 41.6844 236.142 29.5604 240.818 25.6634C245.495 21.7665 228.251 24.1479 228.251 24.1479Z" fill="black"/>
<path d="M254.494 64.4106L244.282 67.3327L258.547 66.6821C261.753 66.5078 264.904 67.5681 267.353 69.6452C269.895 71.8452 271.943 75.335 269.97 80.4937C266.025 90.8112 259.956 100.522 259.956 100.522L256.011 108.108C256.011 108.108 247.818 109.322 247.515 106.894C247.211 104.467 247.515 103.253 249.032 102.039C250.549 100.825 251.46 98.3976 251.46 97.1838C251.46 95.97 251.156 94.7561 252.066 94.1492C252.977 93.5423 253.28 92.6319 253.28 90.8112C253.28 88.9905 258.544 80.9882 258.544 80.9882C258.544 80.9882 247.515 77.1557 242.765 80.3813C238.015 83.607 228.397 97.7907 228.397 97.7907C227.766 98.4507 227.237 99.2017 226.829 100.019C226.342 100.967 225.667 101.806 224.845 102.486C223.963 103.261 224.776 105.397 225.059 105.681C225.362 105.984 228.397 118.122 228.397 118.122C228.397 118.122 231.735 123.888 228.093 124.191C224.452 124.495 221.114 124.798 220.811 124.191C220.473 123.35 220.067 122.538 219.597 121.764C218.686 120.246 219.597 116.908 219.597 116.908C219.597 116.908 210.797 105.681 213.528 98.7011C216.259 91.7216 222.024 75.9419 222.024 75.9419L230.825 72.3004L246.908 66.5348L254.494 64.4106Z" fill="#2F2E41"/>
<path d="M193.195 31.6374L180.754 29.2097C180.754 29.2097 177.719 18.8922 174.078 20.1061C170.436 21.3199 176.505 31.6374 176.505 31.6374L193.802 39.5272L193.195 31.6374Z" fill="#A0616A"/>
<path d="M268.757 41.9549L274.22 48.9343C274.22 48.9343 282.109 48.6309 279.682 52.8793C277.254 57.1277 271.792 54.7 271.488 53.7896C271.185 52.8793 262.385 44.9894 262.385 44.9894L268.757 41.9549Z" fill="#A0616A"/>
<path d="M240.337 32.7388L232.447 38.8079L227.591 31.525L189.963 29.4008V41.8425C199.223 39.1686 207.747 38.3403 214.543 41.8425C223.144 53.2962 225.037 65.734 219.596 79.2473L264.006 63.6913C250.696 58.7348 244.517 51.5494 246.406 41.8425L261.882 47.3047L271.289 40.3252C262.877 34.6645 250.357 31.1143 240.337 32.7388Z" fill="#4776E6"/>
<path d="M156.887 250C243.533 250 313.773 244.701 313.773 238.165C313.773 231.629 243.533 226.33 156.887 226.33C70.2405 226.33 0 231.629 0 238.165C0 244.701 70.2405 250 156.887 250Z" fill="#3F3D56"/>
<path opacity="0.1" d="M113.036 245.752C171.61 245.752 219.094 242.219 219.094 237.862C219.094 233.504 171.61 229.972 113.036 229.972C54.4622 229.972 6.97852 233.504 6.97852 237.862C6.97852 242.219 54.4622 245.752 113.036 245.752Z" fill="black"/>
<path d="M283.779 222.101C282.769 230.959 288.214 238.855 288.214 238.855C288.214 238.855 295.299 232.389 296.31 223.531C297.321 214.673 291.875 206.777 291.875 206.777C291.875 206.777 284.79 213.243 283.779 222.101Z" fill="#2F2E41"/>
<path d="M287.643 221.644C291.287 229.781 288.485 238.954 288.485 238.954C288.485 238.954 279.776 234.935 276.133 226.798C272.489 218.661 275.29 209.488 275.29 209.488C275.29 209.488 283.999 213.507 287.643 221.644Z" fill="#4776E6"/>
<path d="M189.83 237.698C208.61 237.698 223.834 222.474 223.834 203.694C223.834 184.914 208.61 169.69 189.83 169.69C171.05 169.69 155.826 184.914 155.826 203.694C155.826 222.474 171.05 237.698 189.83 237.698Z" fill="#F2F2F2"/>
<path d="M189.83 151.271L181.454 172.213L151.163 172.456L141.295 172.536L117.878 172.724L108.014 172.804L84.5967 172.992L74.733 173.072L51.3156 173.264L41.4519 173.344L25.6448 173.47L22.5873 167.212L18.6209 159.108L16.4304 154.622L15.1738 151.271L22.692 127.46C23.427 125.133 24.8843 123.102 26.8522 121.659C28.8202 120.217 31.1965 119.439 33.6363 119.439H170.421C172.79 119.44 175.101 120.175 177.036 121.541C178.972 122.907 180.437 124.839 181.232 127.07L182.103 129.525L189.83 151.271Z" fill="#4776E6"/>
<path d="M189.83 151.271H15.1738V195.25H189.83V151.271Z" fill="#4776E6"/>
<path opacity="0.1" d="M189.83 151.271H15.1738V195.25H189.83V151.271Z" fill="black"/>
<path d="M206.314 201.118H201.162V206.27H206.314V201.118Z" fill="#3F3D56"/>
<path d="M158.205 94.5181H46.375V235.249H158.205V94.5181Z" fill="#F2F2F2"/>
<path d="M102.502 104.57H69.832V109.178H102.502V104.57Z" fill="#3F3D56"/>
<path d="M151.088 123.418H52.6602V125.512H151.088V123.418Z" fill="#E6E6E6"/>
<path d="M151.088 130.12H52.6602V132.214H151.088V130.12Z" fill="#E6E6E6"/>
<path d="M151.088 136.821H52.6602V138.915H151.088V136.821Z" fill="#E6E6E6"/>
<path d="M151.088 143.522H52.6602V145.617H151.088V143.522Z" fill="#E6E6E6"/>
<path d="M151.088 150.224H52.6602V152.318H151.088V150.224Z" fill="#E6E6E6"/>
<path d="M151.088 156.925H52.6602V159.02H151.088V156.925Z" fill="#E6E6E6"/>
<path d="M56.8468 112.947C55.4386 112.947 54.062 112.53 52.891 111.747C51.7201 110.965 50.8075 109.853 50.2686 108.552C49.7296 107.251 49.5886 105.819 49.8634 104.438C50.1381 103.057 50.8163 101.788 51.8121 100.792C52.8078 99.7962 54.0766 99.1181 55.4578 98.8433C56.839 98.5686 58.2706 98.7096 59.5717 99.2485C60.8727 99.7874 61.9848 100.7 62.7672 101.871C63.5495 103.042 63.9671 104.419 63.9671 105.827C63.965 107.715 63.2142 109.524 61.8793 110.859C60.5445 112.194 58.7346 112.945 56.8468 112.947ZM56.8468 99.5442C55.6043 99.5442 54.3896 99.9127 53.3564 100.603C52.3233 101.293 51.518 102.275 51.0425 103.423C50.567 104.571 50.4425 105.834 50.685 107.052C50.9274 108.271 51.5257 109.391 52.4044 110.269C53.283 111.148 54.4025 111.746 55.6212 111.989C56.8399 112.231 58.1031 112.107 59.2511 111.631C60.3991 111.156 61.3803 110.35 62.0707 109.317C62.761 108.284 63.1295 107.069 63.1295 105.827C63.1276 104.161 62.4651 102.564 61.2872 101.386C60.1094 100.209 58.5125 99.5461 56.8468 99.5442Z" fill="#4776E6"/>
<path d="M189.831 238.809H15.1738V151.271L37.7913 168.863L168.051 168.025L189.831 151.271V238.809Z" fill="#3F3D56"/>
<path d="M56.8473 218.495H24.1777V223.102H56.8473V218.495Z" fill="#F2F2F2"/>
<path d="M41.3231 209.844C40.6029 209.844 39.8989 209.63 39.3 209.23C38.7012 208.83 38.2344 208.261 37.9588 207.596C37.6832 206.93 37.6111 206.198 37.7516 205.492C37.8921 204.785 38.2389 204.137 38.7482 203.627C39.2575 203.118 39.9063 202.771 40.6127 202.631C41.3191 202.49 42.0512 202.562 42.7166 202.838C43.382 203.113 43.9508 203.58 44.3509 204.179C44.751 204.778 44.9646 205.482 44.9646 206.202C44.9635 207.168 44.5795 208.093 43.8968 208.776C43.2141 209.459 42.2885 209.843 41.3231 209.844ZM41.3231 203.168C40.7229 203.168 40.1362 203.346 39.6372 203.679C39.1382 204.012 38.7492 204.486 38.5195 205.041C38.2899 205.595 38.2298 206.206 38.3469 206.794C38.4639 207.383 38.753 207.924 39.1774 208.348C39.6017 208.772 40.1424 209.061 40.7311 209.178C41.3197 209.295 41.9299 209.235 42.4844 209.006C43.0389 208.776 43.5128 208.387 43.8463 207.888C44.1797 207.389 44.3577 206.802 44.3577 206.202C44.3568 205.398 44.0368 204.626 43.4679 204.057C42.899 203.488 42.1277 203.168 41.3231 203.168Z" fill="white"/>
<path d="M255.099 106.591C255.099 106.591 256.92 113.57 257.527 113.874C258.134 114.177 264.81 119.943 260.258 120.853C255.706 121.764 252.368 121.46 251.458 120.55C250.547 119.64 250.851 118.729 249.333 118.426C247.816 118.122 245.085 117.212 245.389 115.088C245.692 112.963 247.209 107.198 248.12 106.591C249.03 105.984 255.099 106.591 255.099 106.591Z" fill="#2F2E41"/>
<path d="M228.702 122.067C228.702 122.067 231.433 124.191 229.916 128.136C228.398 132.081 226.274 136.33 226.274 136.33C226.274 136.33 223.846 143.916 219.901 142.702C218.299 142.209 217.498 140.865 217.111 139.442C216.832 138.367 216.786 137.244 216.976 136.15C217.166 135.056 217.588 134.015 218.213 133.097L220.508 129.654L222.936 123.281L228.702 122.067Z" fill="#2F2E41"/>
<path d="M222.04 151.446C227.48 151.446 234.21 149.644 240.769 143.131C256.825 127.185 272.078 125.585 272.231 125.571L272.174 124.967C272.02 124.981 256.55 126.602 240.341 142.7C232.012 150.972 223.416 151.479 217.671 150.447C213.876 149.758 210.262 148.301 207.05 146.166L206.691 146.656C209.972 148.84 213.663 150.331 217.539 151.04C219.025 151.309 220.531 151.445 222.04 151.446Z" fill="#2F2E41"/>
<path d="M264.054 138.302C266.065 138.302 267.695 136.672 267.695 134.661C267.695 132.649 266.065 131.019 264.054 131.019C262.042 131.019 260.412 132.649 260.412 134.661C260.412 136.672 262.042 138.302 264.054 138.302Z" fill="#2F2E41"/>
<path d="M238.259 155.296C240.27 155.296 241.9 153.665 241.9 151.654C241.9 149.643 240.27 148.013 238.259 148.013C236.248 148.013 234.617 149.643 234.617 151.654C234.617 153.665 236.248 155.296 238.259 155.296Z" fill="#2F2E41"/>
<path d="M234.573 30.9864C238.594 30.9864 241.854 27.7262 241.854 23.7047C241.854 19.6831 238.594 16.423 234.573 16.423C230.551 16.423 227.291 19.6831 227.291 23.7047C227.291 27.7262 230.551 30.9864 234.573 30.9864Z" fill="#A0616A"/>
<path d="M240.666 0C239.903 1.09035 238.771 1.86826 237.479 2.19059C235.251 2.78726 237.461 6.13574 237.461 6.13574C237.461 6.13574 236.658 4.91811 237.817 3.62861C238.976 2.33911 240.841 1.45751 240.666 0Z" fill="#2F2E41"/>
<path d="M237.066 9.75459C238.621 9.75459 239.881 8.494 239.881 6.93899C239.881 5.38398 238.621 4.1234 237.066 4.1234C235.511 4.1234 234.25 5.38398 234.25 6.93899C234.25 8.494 235.511 9.75459 237.066 9.75459Z" fill="#2F2E41"/>
<path d="M240.66 9.29891C238.364 8.43073 234.542 7.99053 232.576 8.29144L232.846 6.32234C234.736 7.29933 238.541 7.75845 240.929 7.32981L240.66 9.29891Z" fill="#3F3D56"/>
<path d="M235.612 11.521C235.612 11.521 232.735 16.3059 226.046 18.0971C219.357 19.8883 225.991 29.9404 225.991 29.9404C225.991 29.9404 223.579 26.2851 227.058 22.414C230.538 18.543 236.138 15.8964 235.612 11.521Z" fill="#2F2E41"/>
<path d="M235.841 11.2303C235.841 11.2303 238.604 17.8025 241.638 18.4239C244.672 19.0452 244.442 29.43 239.697 30.9873C239.697 30.9873 243.157 24.8993 240.2 20.8163C237.243 16.7333 235.375 13.5057 235.841 11.2303Z" fill="#2F2E41"/>
</svg>
