<svg width="21" height="21" viewBox="0 0 21 21" fill="none" xmlns="http://www.w3.org/2000/svg">
<path d="M18.293 1.64062H16.4062V0.65625C16.4062 0.293836 16.1125 0 15.75 0C15.3875 0 15.0938 0.293836 15.0938 0.65625V1.64062H5.90625V0.65625C5.90625 0.293836 5.61245 0 5.25 0C4.88755 0 4.59375 0.293836 4.59375 0.65625V1.64062H2.70703C1.21435 1.64062 0 2.85497 0 4.34766V18.293C0 19.7857 1.21435 21 2.70703 21H18.293C19.7857 21 21 19.7857 21 18.293V4.34766C21 2.85497 19.7857 1.64062 18.293 1.64062ZM2.70703 2.95312H4.59375V3.60938C4.59375 3.97179 4.88755 4.26562 5.25 4.26562C5.61245 4.26562 5.90625 3.97179 5.90625 3.60938V2.95312H15.0938V3.60938C15.0938 3.97179 15.3875 4.26562 15.75 4.26562C16.1125 4.26562 16.4062 3.97179 16.4062 3.60938V2.95312H18.293C19.0619 2.95312 19.6875 3.5787 19.6875 4.34766V5.90625H1.3125V4.34766C1.3125 3.5787 1.93807 2.95312 2.70703 2.95312ZM18.293 19.6875H2.70703C1.93807 19.6875 1.3125 19.0619 1.3125 18.293V7.21875H19.6875V18.293C19.6875 19.0619 19.0619 19.6875 18.293 19.6875Z" fill="#2A2A2A"/>
</svg>
