<svg xmlns="http://www.w3.org/2000/svg" viewBox="0 0 120 100" id="calendar-color"><g fill="none" fill-rule="evenodd"><path d="M83.67 14.81c-.07-.1-.09-.2-.15-.31-.04-.07-.14-.13-.26-.2a2.17 2.17 0 0 0-.51-.19c-.06-.02-.12-.03-.18-.05-.24-.06-.46-.13-.7-.19-.26-.06-.67-.11-.97-.11-.13 0-.24.02-.37.01-.19 0-.39-.02-.58-.03l-.64-.06c-.67-.07-1.37-.16-2.04-.12-.6.03-.91.19-1.43.27-.87.13-1.91-.14-2.83-.18-1.01-.05-1.9.05-2.91-.1-.22.22-1.28.04-1.82-.02-.45-.05-.65-.02-1.04.03-.28.03-.59.02-.89.02-.61 0-1.3-.02-1.85.04-.26.03-.32.12-.54.17-.29.07-.7.05-1.06.04-.58 0-1.18-.01-1.76 0-.31 0-.57.04-.89.04-.36 0-.68 0-1.03.02-.19.01-.37.02-.57.01-.68-.02-1.4-.03-1.91.1-.57.14-.84.38-.98.6-.17.28-.13.58.24.86.36.27 1.03.52 1.9.67.26.04.55.07.83.09.47.03.93.02 1.38 0 .43-.02.81-.03 1.26.02.91.09 1.98.27 2.81.1.25-.05.45-.11.75-.14.37-.03.79-.02 1.19-.02.76 0 1.52-.02 2.25-.06.75-.04 1.41-.16 2.2-.15.99.01 2.05.19 3.02.14.35-.02.65-.08.98-.12.44-.06.92-.08 1.42-.07 1.03.01 2.03.1 3.03.2.36.04.74.07 1.11.06.42-.01.76-.09 1.12-.14.21-.03.45-.05.66-.09.17-.03.36-.02.53-.05.04-.01.11-.01.13-.02.02-.01.01-.02.03-.03.05-.01.13-.01.19-.01.05-.01.08-.02.14-.02l.01-.01c.05 0 .17-.01.21-.01.06-.01.05-.04.1-.05.03-.01.07-.01.1-.02.02-.01.02-.02.03-.03.02-.02.02-.04.04-.06.04-.04.09-.07.12-.12.03-.05.08-.08.11-.13.05-.06.12-.12.1-.18.06-.07.1-.13.07-.2-.02-.06-.1-.13-.15-.2zm-40.65-1.33c.19-.01.34.02.53.03.16.02.31 0 .47.01.13.01.18.04.32.03.04.03.2.04.26.05.09.01.21.03.27.04.08.01.21 0 .29 0 .18 0 .36.01.53.02h.24l.41.05c.09.01.16.01.24.02.07.01.2.02.27.01.13.02.24.01.38.02.42.03.71.06.93.17l.04.02c.08.05.15.07.33.11.24.03.44.07.67.11.2.04.41.09.62.12.26.04.44.1.58.17.08.04.17.07.26.11.05.02.06.07.16.08.03.05.15.08.21.13a.446.446 0 0 1 .14.13c.02.05-.05.09-.03.14.02.06.02.1.01.16-.03.11.04.21-.21.29-.5.16-.93.33-1.47.48-.27.07-.52.13-.78.19-.32.07-.59.14-1.03.14-.55 0-1.08-.05-1.59-.12-.67-.09-1.18 0-1.73.08-.66.1-1.32-.05-2.02-.05-.71.01-1.09.23-1.79.27-.84.04-1.85-.04-2.72-.08-.82-.04-1.36-.13-2.02-.3-.68-.17-1.44-.19-2.24-.21-.79-.02-1.59-.03-2.39-.05-.91-.02-1.83-.07-2.73-.06h-.03c.17.31.34.62.51.92.2.36.43.77.58 1.18.15.4.18.76.24 1.1.26 1.57.71 3.2 1.21 4.81.43 1.39.11 1.86.22 3.43.07 1.04.77 2.75.77 3.78.01.86-.03 1.75-.12 2.61-.1 1 .16 1.99.08 3.02l-.06 1.04c-.03.29-.09.53-.16.8-.23.88-.13 1.26-.11 1.99.02.88-.34 1.48-.53 2.33-.2.89-.01 1.53-.18 2.43-.2 1.05-.76 1.95-1.03 2.95-.28 1.04-.42 2.22-.61 3.26-.33 1.78-1.16 3.27-1.59 4.97-.16.65-.33 1.38-.32 2.01 0 .47.09.8.13 1.21.1.9-.12 1.66-.33 2.59-.19.82-.09 1.58-.09 2.38 0 1.14-.17 2.2-.15 3.33.01.9.26 1.57.32 2.48.07 1.04-.02 2.01.15 3.06.18 1.09.45 2.05.61 3.16.17 1.14.36 2.2.73 3.38.37 1.17.54 2.37 1.08 3.48.18-.02.36-.04.57-.05.37-.01.76.02 1.13.06 1.03.1 2.04.19 3.09.2.5.01.99-.01 1.44-.07.33-.04.63-.1.99-.12.99-.05 2.06.13 3.07.14.8.01 1.47-.11 2.23-.15.75-.04 1.52-.06 2.29-.06.4 0 .71-.28 1.09-.31.31-.03.51-.09.76-.14.83-.17 1.87-.15 2.79-.06.4.03.74.05 1.09 0 .3-.04.54-.1.89-.11.82-.03 1.66-.02 2.5.02.14 0 1.61.03 1.61.03h4.11c.61.01 1.03.04 1.61.12.67.09 1.17 0 1.72-.08.66-.1 1.32.05 2.02.05.71-.01 1.09-.23 1.79-.27.84-.04 1.85.04 2.72.08.82.04 1.36.13 2.02.3.68.17 1.44.19 2.24.21.79.02 1.59.03 2.39.05.91.02 1.83.07 2.73.06.96-.01 1.83-.1 2.67-.22.34-.05.73-.12 1.14-.11.41 0 .79.09 1.16.15 1.67.28 3.29.24 4.83.03 1.34-.18 2.46-.41 4.04-.37 1.05.03 2.14.28 3.17.27.63 0 1.33.16 2 .26-.35-.72-.71-1.44-1.01-2.17-.15-.33-.31-.71-.44-1.04-.11-.29-.15-.53-.2-.8-.16-.88-.41-1.26-.73-1.99-.38-.88-.24-1.48-.35-2.33-.11-.89-.5-1.53-.6-2.43-.11-1.04.08-1.94.12-2.94.05-1.04-.01-2.09.01-3.13.03-1.79-.31-3.35.02-5.05.12-.65.26-1.38.25-2.01-.01-.47-.31-.79-.35-1.2-.09-.9.16-1.66.44-2.59.24-.82.21-1.58.31-2.38.14-1.14.48-2.2.68-3.33.16-.9.07-1.57.23-2.48.18-1.04.55-2.01.71-3.06.17-1.09.24-2.05.5-3.16.27-1.14.8-2.22.97-3.4.2-1.37.6-2.79.48-4.05-.03-.38-.09-.75-.09-1.18 0-.38.04-.75.08-1.11.1-.99.18-1.97.13-3.01-.02-.5-.08-.99-.18-1.46-.07-.34-.16-.66-.22-1.03-.17-1-.14-2-.34-3.01-.16-.79-.45-1.51-.7-2.28-.25-.76-.52-1.53-.79-2.3-.14-.4-.28-.82-.47-1.21-.15-.31-.3-.53-.47-.8l-.11-.2-.12-.01c-.08-.01-.15-.01-.2-.03-.12.01-.2-.03-.32-.03-.04 0-.13.01-.19.01h-.11c-.09-.01-.21-.02-.29-.03-.06 0-.16.01-.23.01-.19 0-.38-.02-.57-.03-.22-.01-.48-.03-.7-.05-.08-.01-.19-.01-.27-.01-.06 0-.1-.02-.16-.03-.05-.01-.11-.01-.16-.01-.12-.01-.11-.01-.22-.03-.08-.01-.3-.07-.37-.05-.11-.03-.26-.04-.39-.06l-.22-.05c-.09-.03-.15-.03-.24-.04-.17-.03-.69-.15-.66-.21-.01 0-.51-.19-.55-.21-.39-.18-.7-.34-.61-.54.09-.21.39-.43.75-.61.38-.19.95-.26 1.74-.25.68.01 1.33.04 1.96-.02.32-.03.65-.06.95-.09.41-.03.84-.03 1.24-.06l.24-.01c.56-.03 1.27.4 1.58.98.013.035.03.069.05.1.2.37.37.79.53 1.15.16.37.31.78.51 1.1.15.24.27.33.41.61.29.59.51 1.28.7 1.9.1.3.18.62.29.91.16.41.25.63.31 1.07.08.52.12 1.52.39 1.84.04.97.27 1.91.33 2.91.05.92-.15 1.85.02 2.79.1.55.26.94.3 1.56.05.69-.06 1.37-.15 2.01-.18 1.22-.59 2.57-.71 3.84-.23 2.47-.72 4.9-1.29 7.37-.26 1.13-.58 2.18-.94 3.21-.21.6-.39 1.12-.45 1.77-.07.76-.08 1.44-.16 2.21-.09.87-.24 1.76-.39 2.66-.08.51-.16 1.04-.23 1.54-.09.54-.23 1.05-.34 1.58-.33 1.36-.16 2.54-.21 3.85-.04 1.21.39 2.39.28 3.66-.08 1.06.16 2.09.12 3.14-.02.48-.02.95-.01 1.43.02.59.01 1.18.06 1.77.05.6.19 1.14.28 1.74.08.51.05.87.08 1.35.03.51.19 1.03.3 1.55.12.58.18 1.15.33 1.73.16.6.4 1.15.6 1.75.19.6.29 1.14.44 1.7.18.63.36 1.17.58 1.79.19.58.56 1.12.85 1.7l.04.09c.4.86.07 1.58-.79 1.59h-.05c-.1 0-.2 0-.3-.01-1.97-.11-4.32-.62-6.17-.52l-.61.04c.01.69.01 1.39.01 2.08v.77c-.01.74-.61 1.34-1.35 1.34h-.01c-1.11-.01-2.22-.03-3.32-.02-1.36.04-2.68.09-4.03.13-1.19.01-2-.06-3.1-.1-1.19-.04-2.4.03-3.59.04-1.35.01-2.65-.05-3.99-.05-1.41.01-2.67.11-4.06.12-1.39.02-2.62-.07-3.91-.12l-4.11-.12c-1.55-.07-3.06-.13-4.61-.19-4.38-.11-9.22-.08-13.6.02-3.96.08-8.19.34-12.25.22a49.08 49.08 0 0 0-3.21 0c-1.44.05-2.75.06-4.22.03-.2 0-.39-.01-.58-.01h-.05c-.71-.01-1.27-.6-1.25-1.3.02-1.06.03-2.02-.02-3.09-.03-.7 0-1.55-.01-2.29-.01-.81.04-1.47.07-2.26.07-1.79.07-3.64.11-5.45.03-1.24.06-2.5.06-3.77 0-.66-.01-1.31-.01-1.96.02-1.77.06-3.4 0-5.17-.06-1.86-.16-3.45-.07-5.38.08-1.63.26-2.76.12-4.51-.06-.65-.14-1.19-.18-1.87-.04-.59-.02-1.14-.03-1.76-.02-1.36-.26-2.14-.1-3.45.07-.51.17-.94.17-1.71.01-.73-.08-1.38-.14-1.92-.05-.56-.12-1.16-.14-1.88-.01-.46-.01-.95.02-1.36.02-.29.04-.56.07-.85.03-.41.03-.9.01-1.34 0-.21-.01-.42-.02-.63.01-.17.01-.41.02-.59l.02-.49c.01-.22.02-.42.04-.64 0-.38.01-.76.02-1.13.02-1.63.06-3.33.13-4.87 0-.18.01-.39.02-.57v-.38c0-.37.04-.71.06-1.02.02-.23.07-.55.07-.83.02-.07.03-.21.04-.32.02-.12.03-.22.05-.31.04-.17.11-.14.13-.51.05-.28.09-.54.14-.81.04-.2.09-.18.14-.31.02-.04.1-.24.1-.35.14-.12.29-.24.43-.18v-.31c-.02.03-.03.05-.05.07-.11.13-.23.17-.34-.07-.12-.26-.23-.8-.32-1.44-.24-1.63-.43-3.92-.52-6.28-.02-.44-.03-.86-.04-1.28-.02-.68.51-1.24 1.19-1.26h.06c1.52-.05 3.01-.04 4.55 0l2 .04h.06c.04 0 .09 0 .14.01.19.04.39.07.59.11l.69.11c.19-.01.37-.01.56-.01.78.02 1.51.06 2.25 0 .79-.06 1.43-.16 2.31-.07.74.08 1.32.26 2.01.12.26-.06.45-.14.73-.18.24-.04.48-.02.75-.03.58-.02.8-.26 1.45-.1.25.07.48.17.82.17.32.01.56-.08.77-.14.24-.07.5-.14.86-.15zM48 27.33c.57.05 1.64.23 1.99.02 1.04.14 2.06.05 3.14.1.99.05 2 .32 3.01.18.6-.08 1.02-.23 1.7-.27.75-.04 1.48.05 2.17.12 1.31.14 2.75.16 4.13.15 2.66-.02 5.29-.17 7.95-.04 1.23.06 2.36.18 3.46.34.64.09 1.2.17 1.91.11.82-.07 1.57-.2 2.4-.26.94-.07 1.91-.09 2.89-.11.55-.01 1.11-.04 1.66-.04.58 0 1.14.05 1.69.09.4.03.83.03 1.22.07.16.01.24 0 .39 0 .13 0 .28.01.4 0 .03 0 .07-.02.11-.02h.14c.08-.01.16-.03.23-.04l.85-.12c.29-.04.61-.03.91-.05a6.71 6.71 0 0 1 .338-.01h.672c.17 0 .31.02.48.02.55.02 1.14-.03 1.67.04.28.04.48.11.76.14.16.02.43.08.61.08.04.07.18.11.3.14.06.01.12.02.15.01.55.11.99.28 1.41.42.27.09.55.2.55.32 0 .08-.15.16-.23.23-.08.09-.11.17-.14.26-.02.07-.02.15-.17.21-.24.11-.68.19-1.04.25-.29.05-.61.12-.94.15-.22.02-.46.01-.69.02-.34.01-.68.02-1.02.01-.65-.01-1.3-.05-1.93-.1-.49-.04-.98-.08-1.49-.09-.52-.01-1.09-.01-1.61.01-.16.01-.31.03-.46.04-.21.02-.36.07-.55.1-.77.12-1.67-.02-2.37-.1-.88-.1-1.72.06-2.58.11-1.24.07-2.38-.07-3.59-.05-.98.01-1.73.24-2.71.25-1.13.01-2.15-.17-3.3-.14-1.19.03-2.23.12-3.42.03-1.23-.09-2.37-.2-3.64-.23-1.49-.03-3-.02-4.39.17-.41.06-.83.13-1.29.14-.41.01-.81-.02-1.2-.06-1.06-.1-2.11-.19-3.24-.2-.54 0-1.08.02-1.59.07-.37.04-.73.1-1.12.12-1.09.05-2.16-.14-3.25-.14-.86 0-1.65.11-2.48.15-.83.04-1.67.07-2.5.06-.43 0-.89-.02-1.31.02-.34.03-.59.09-.88.14-.69.12-1.48.06-2.18-.01-.36-.04-.71-.08-1.09-.11-.23-.01-.62-.05-.85-.02-.17.02-.28.05-.47.06-.24.01-.5 0-.74 0-.22 0-.45-.02-.65-.04-.19-.02-.44-.05-.6-.09-.07-.02-.12-.04-.21-.05-.05-.01-.13-.01-.19-.01-.77-.08-1.56-.19-1.96-.4-.26-.18-.47-.36-.46-.55.01-.21.21-.43.53-.63.32-.19.81-.36 1.52-.46.63-.08 1.34-.09 2.03-.11.61-.01 1.21-.05 1.82-.07.18-.01.34.01.52.01.28 0 .55-.03.83-.04.64-.01 1.29 0 1.93 0 .4 0 .84.02 1.19-.04.27-.05.38-.14.68-.17.64-.06 1.39-.04 2.05-.04.33 0 .67.01.99-.02.44-.04.68-.07 1.15-.03z" fill="#085440"></path><path d="M93.79 47.31c-.37-.15-.75-.31-1.25-.42-.03.01-.08 0-.14-.01-.11-.02-.23-.07-.27-.08-.17 0-.42-.06-.56-.08-.26-.04-.43-.11-.69-.14-.48-.07-1.06-.02-1.59-.04-.15-.01-.29-.03-.45-.02-.16 0-.32.01-.48 0-.17 0-.32 0-.49.01-.3.02-.6 0-.89.05l-.85.12c-.07.01-.15.03-.23.04h-.13c-.04 0-.07.02-.11.02-.13.01-.26-.01-.39 0-.15 0-.23.01-.37 0-.37-.04-.78-.04-1.16-.07-.33-.03-.66-.05-1-.07.06-.3.14-.61.25-.91-.17-.25.16-1.05.29-1.47.11-.35.11-.52.12-.85.01-.23.07-.48.11-.73.08-.49.2-1.04.21-1.51 0-.22-.07-.3-.09-.49-.03-.26.04-.58.09-.87.07-.47.14-.95.19-1.42.02-.21.01-.4.04-.61.02-.13.05-.25.06-.38.03-.45.04-.88.07-1.34.03-.51.07-1.03.02-1.49-.06-.52-.21-.87-.39-1.1-.18-.22-.4-.36-.61-.35-.19.01-.38.18-.57.38-.23.31-.37.9-.5 1.48-.01.04-.01.1-.02.14-.01.06-.04.1-.06.16-.05.12-.09.31-.13.45-.04.15-.07.32-.09.48-.02.18-.05.37-.05.54 0 .13.02.22.02.34.01.17-.06.46-.09.63-.06.28-.14.54-.21.81-.14.52-.28 1.11-.23 1.61.02.21.06.39.05.64-.01.31-.08.65-.14.97-.1.62-.18 1.23-.25 1.84-.07.61-.05 1.18-.18 1.82-.08.43-.22.85-.34 1.28-.86.01-1.71.03-2.56.1-.82.06-1.57.19-2.37.26-.69.06-1.21-.02-1.8-.11a30.61 30.61 0 0 0-3.22-.34c-1.82-.09-3.67-.04-5.52 0 .06-.28.13-.56.24-.85-.17-.25.16-1.05.29-1.47.11-.35.11-.52.12-.85.01-.23.07-.48.11-.73.08-.49.19-1.04.21-1.51 0-.22-.08-.3-.09-.49-.03-.26.04-.58.09-.87.07-.47.14-.95.19-1.42.02-.21.01-.4.04-.61.02-.13.05-.25.06-.38.03-.45.04-.88.07-1.34.03-.51.07-1.03.02-1.49-.06-.52-.21-.87-.39-1.1-.18-.22-.4-.36-.61-.35-.2.01-.38.18-.57.38-.23.31-.37.9-.5 1.48-.01.04-.01.1-.02.14-.02.06-.04.1-.06.16-.05.12-.09.31-.13.45-.04.15-.07.32-.09.48-.02.18-.05.37-.05.54 0 .13.02.22.02.34.01.17-.06.46-.09.63-.06.28-.14.54-.21.81-.14.52-.28 1.11-.23 1.61.02.21.06.39.05.64-.01.31-.08.65-.14.97-.1.62-.18 1.23-.25 1.84-.07.61-.05 1.18-.18 1.82-.08.41-.21.82-.33 1.22-1.22 0-2.47-.03-3.59-.15-.65-.07-1.32-.16-2.05-.12-.66.03-1.1.19-1.7.27-1.01.13-1.9-.14-2.84-.18-1.02-.06-2.03.04-2.98-.1-.4.22-1.38.04-1.91-.02-.13-.01-.25-.02-.35-.02.05-.18.1-.37.17-.56-.17-.25.16-1.05.29-1.47.11-.35.11-.52.12-.85.01-.23.07-.48.11-.73.08-.49.19-1.04.21-1.51 0-.22-.08-.3-.09-.49-.03-.26.04-.58.09-.87.07-.47.14-.95.19-1.42.02-.21.01-.4.04-.61.02-.13.05-.25.06-.38.03-.45.04-.88.07-1.34.03-.51.07-1.03.02-1.49-.06-.52-.21-.87-.39-1.1-.18-.22-.4-.36-.61-.35-.2.01-.38.18-.57.38-.23.31-.37.9-.5 1.48-.01.04-.01.1-.02.14-.02.06-.04.1-.06.16-.05.12-.09.31-.13.45-.04.15-.07.32-.09.48-.02.18-.04.37-.05.54 0 .13.02.22.02.34.01.17-.06.46-.09.63-.06.28-.14.54-.21.81-.14.52-.28 1.11-.23 1.61.02.21.06.39.05.64-.01.31-.08.65-.14.97-.1.62-.18 1.23-.25 1.84-.07.61-.05 1.18-.18 1.82-.06.32-.16.64-.25.96-.43 0-.86 0-1.26.04-.3.03-.42.12-.69.17-.35.07-.77.05-1.15.04-.61 0-1.23-.01-1.85 0-.27 0-.53.04-.8.04-.17 0-.32-.02-.5-.01-.59.02-1.17.06-1.76.07-.66.01-1.34.02-1.97.11-.71.09-1.22.26-1.57.46-.35.19-.6.41-.66.63-.05.19.11.37.31.55.33.21 1.07.32 1.79.4.06.01.13.01.18.01.08.01.12.03.19.05.15.04.38.06.56.09.18.02.4.04.61.04.23 0 .48.01.71 0 .18-.01.3-.04.46-.06.23-.03.59.01.81.02.35.02.68.07 1.02.11.66.07 1.4.13 2.08.01.29-.05.54-.11.88-.14.41-.03.85-.02 1.26-.02.3 0 .61-.02.92-.02-.03.28-.07.56-.13.85-.17.83-.42 1.61-.67 2.4-.09.29-.18.58-.23.89-.05.34-.03.64-.03.94 0 1-.18 2.12-.39 3.22-.18.94-.42 1.78-.63 2.7-.21.89-.21 1.65-.27 2.52-.02.36-.08.71-.15 1.05-.38 0-.76.01-1.11.04-.29.03-.41.12-.68.17-.35.07-.76.05-1.14.04-.61 0-1.24-.01-1.85 0-.27 0-.53.04-.8.04-.17 0-.32-.02-.5-.01-.59.02-1.16.06-1.75.07-.66.01-1.34.02-1.96.11-.7.09-1.19.26-1.52.46-.33.19-.54.41-.58.63-.03.19.16.37.39.55.37.21 1.12.32 1.85.4.06.01.13.01.18.01.08.01.13.03.2.05.16.04.39.06.57.09.19.02.41.04.62.04.23 0 .48.01.71 0 .17-.01.29-.04.45-.06.22-.03.6.01.81.02.36.02.69.07 1.03.11.67.07 1.42.13 2.09.01.28-.05.53-.11.86-.14.41-.03.84-.02 1.26-.02.26 0 .51-.02.77-.02.04.25.07.5.06.79-.01.89-.14 1.74-.04 2.65.07.64.27 1.24.21 1.9-.04.52-.11 1.2.07 1.76.05.14.1.25.15.4.03.11.06.22.09.34.08.37.15.8.2 1.18.05.38.08.74.12 1.11.05.46.12.95.23 1.43.06.25.13.5.21.75.05.17.1.34.16.51.1.25.24.48.36.68.15.27.34.58.51.75.1.1.17.1.25.11.09.01.19.03.29.08.1.05.21.16.29.15.12 0 .15-.22.17-.42.04-.32.09-.65.08-1.06-.02-.02-.02-.06-.03-.11 0-.09.01-.19.02-.23-.04-.13-.04-.34-.05-.45-.02-.21.01-.36-.01-.57-.03-.39-.18-.82-.26-1.23-.02-.12-.02-.23-.05-.35a4.02 4.02 0 0 1-.08-.37c-.02-.13-.05-.25-.08-.38-.06-.22-.09-.46-.17-.67-.08-.21-.15-.42-.22-.62-.02-.05-.05-.11-.06-.17-.01-.03-.01-.07-.02-.1s-.02-.05-.03-.08c-.02-.09-.02-.2-.04-.3-.02-.11-.04-.17-.04-.29 0-.29-.04-.61-.04-.9 0-.41.02-.82-.02-1.25-.03-.4-.08-.82-.11-1.22-.05-.72-.07-1.43-.14-2.12-.06-.61-.17-1.15-.22-1.74.74-.05 1.46-.15 2.23-.14 1.04.01 2.05.19 3.1.14.38-.02.72-.08 1.08-.12.49-.06 1.01-.08 1.53-.07 1.08.01 2.08.1 3.09.2.36.04.75.07 1.14.06.44-.01.84-.09 1.24-.14.86-.12 1.76-.16 2.67-.18.05.35.11.69.1 1.09-.01.89-.14 1.74-.04 2.65.07.64.26 1.24.21 1.9-.04.52-.11 1.2.07 1.76.05.14.1.25.15.4.03.11.06.22.09.34.08.37.15.8.2 1.18.05.38.08.74.12 1.11.05.46.12.95.23 1.43.06.25.13.5.21.75.05.17.1.34.16.51.1.25.24.48.36.68.15.27.34.58.51.75.1.1.17.1.25.11.09.01.19.03.29.08.1.05.21.16.29.15.12 0 .15-.22.17-.42.04-.32.09-.65.08-1.06-.02-.02-.02-.06-.03-.11 0-.09.01-.19.02-.23-.04-.13-.04-.34-.05-.45-.02-.21.01-.36-.01-.57-.03-.39-.18-.82-.26-1.23-.02-.12-.02-.23-.05-.35a4.02 4.02 0 0 1-.08-.37c-.02-.13-.05-.25-.08-.38-.06-.22-.09-.46-.17-.67-.08-.21-.15-.42-.22-.62-.02-.05-.05-.11-.06-.17-.01-.03-.01-.07-.02-.1s-.02-.05-.03-.08c-.02-.09-.02-.2-.04-.3-.02-.11-.04-.17-.04-.29 0-.29-.04-.61-.04-.9 0-.41.02-.82-.02-1.25-.03-.4-.08-.82-.11-1.22-.04-.72-.07-1.43-.14-2.12-.06-.61-.17-1.16-.22-1.76-.01-.08.01-.14.01-.21 1.1.04 2.1.13 3.18.21 1.14.09 2.14 0 3.28-.03 1.1-.03 2.07.16 3.15.14.94-.01 1.67-.24 2.61-.25 1.16-.01 2.25.12 3.44.05.15-.01.29-.02.44-.04.05.31.09.62.09.98-.01.89-.14 1.74-.04 2.65.07.64.26 1.24.21 1.9-.04.52-.11 1.2.07 1.76.05.14.1.25.15.4.03.11.07.22.09.34.08.37.15.8.2 1.18.05.38.08.74.12 1.11.05.46.12.95.23 1.43.06.25.13.5.21.75.05.17.1.34.16.51.1.25.24.48.36.68.15.27.34.58.51.75.1.1.17.1.25.11.09.01.19.03.29.08.1.05.21.16.29.15.12 0 .15-.22.17-.42.04-.32.09-.65.08-1.06-.02-.02-.02-.06-.03-.11 0-.09.01-.19.02-.23-.04-.13-.04-.34-.05-.45-.02-.21.01-.36-.01-.57-.03-.39-.18-.82-.26-1.23-.02-.12-.02-.23-.05-.35a4.02 4.02 0 0 1-.08-.37c-.02-.13-.05-.25-.08-.38-.06-.22-.09-.46-.17-.67-.08-.21-.15-.42-.22-.62-.02-.05-.05-.11-.06-.17-.01-.03-.01-.07-.02-.1s-.02-.05-.03-.08c-.02-.09-.02-.2-.04-.3-.02-.11-.04-.17-.04-.29 0-.29-.04-.61-.04-.9 0-.41.02-.82-.02-1.25-.03-.4-.08-.82-.11-1.22-.04-.72-.07-1.43-.14-2.12-.06-.61-.17-1.16-.22-1.76-.01-.07.01-.13.01-.2.07.01.15 0 .22.01.67.08 1.52.22 2.26.1.19-.03.33-.07.54-.1.14-.02.29-.03.45-.04.49-.03 1.05-.03 1.54-.01.49.01.95.05 1.42.09.6.05 1.22.09 1.84.1.33.01.65 0 .98-.01.22 0 .45 0 .66-.02.32-.03.63-.09.91-.15.36-.07.78-.15 1.02-.26.15-.07.16-.14.18-.21a.63.63 0 0 1 .15-.26c.08-.08.23-.15.24-.23.02-.12-.24-.23-.49-.32-.39-.15-.79-.31-1.3-.42-.03.01-.08 0-.14-.01-.11-.02-.24-.07-.28-.08-.17 0-.42-.06-.57-.08-.26-.04-.44-.11-.71-.14-.49-.07-1.06-.02-1.59-.04-.15-.01-.29-.03-.45-.02-.16 0-.32.01-.48 0-.17 0-.32 0-.49.01-.3.02-.6 0-.88.05l-.84.12c-.07.01-.14.03-.23.04h-.13c-.04 0-.07.02-.1.02-.12.01-.26-.01-.39 0-.15 0-.22.01-.37 0-.37-.04-.78-.04-1.16-.07-.47-.04-.95-.08-1.45-.09.13-.56.26-1.13.37-1.74.34-1.97.48-3.89.79-5.86.16-1.01.38-2.08.7-3.05.17-.51.37-1.06.43-1.6.06-.5-.03-.8-.02-1.24.01-.52.22-1.04.4-1.56.59.08 1.27.16 1.9.06.19-.03.34-.07.55-.1.15-.02.3-.03.45-.04.5-.03 1.05-.03 1.54-.01.49.01.95.05 1.41.09.59.05 1.2.09 1.83.1.33.01.65 0 .98-.01.22 0 .45 0 .66-.02.33-.03.65-.09.94-.15.37-.07.8-.15 1.06-.26.16-.07.18-.14.21-.21.05-.09.09-.18.19-.26.09-.08.25-.15.28-.23.15-.27-.1-.38-.33-.47zM56.05 63.57c-.65-.07-1.34-.16-2.06-.12-.66.03-1.08.19-1.67.27-1 .13-1.92-.14-2.86-.18-1.03-.06-2.02.04-2.99-.1-.37.22-1.37.04-1.91-.02-.31-.03-.52-.03-.76-.01.1-.46.2-.93.29-1.42.34-1.97.48-3.89.79-5.86.16-1.01.38-2.08.7-3.05.17-.51.37-1.06.43-1.6.06-.5-.03-.8-.02-1.24.01-.48.19-.96.36-1.44.56-.05 1.11-.1 1.69-.1 1.04.01 2.03.19 3.08.14.38-.02.74-.08 1.1-.12.5-.06 1.02-.08 1.54-.07 1.08.01 2.06.1 3.06.2.36.04.73.07 1.13.06.44-.01.86-.09 1.27-.14.93-.13 1.9-.17 2.87-.18-.02.37-.07.76-.16 1.15-.17.83-.42 1.61-.67 2.4-.09.29-.18.58-.23.89-.05.34-.03.64-.03.94 0 1-.18 2.12-.39 3.22-.18.94-.42 1.78-.63 2.7-.21.89-.21 1.65-.27 2.52-.03.45-.11.88-.19 1.31-1.19 0-2.39-.03-3.47-.15zm23.8-13.83c-.17.83-.42 1.61-.67 2.4-.09.29-.18.58-.23.89-.05.34-.03.64-.03.94 0 1-.18 2.12-.39 3.22-.18.94-.42 1.78-.63 2.7-.21.89-.21 1.65-.27 2.52-.03.47-.12.92-.2 1.37-.81.01-1.61.03-2.4.1-.81.06-1.55.19-2.34.26-.69.06-1.21-.02-1.81-.11-1.03-.16-2.1-.28-3.26-.34-1.98-.1-3.96-.03-5.96.01.13-.55.25-1.11.36-1.7.34-1.97.48-3.89.79-5.86.16-1.01.38-2.08.7-3.05.17-.51.37-1.06.43-1.6.06-.5-.03-.8-.02-1.24.01-.53.23-1.07.42-1.6.87.05 1.69.13 2.56.19 1.12.09 2.14 0 3.29-.03 1.1-.03 2.04.16 3.13.14.95-.01 1.71-.24 2.65-.25 1.17-.02 2.23.12 3.43.05.2-.01.4-.03.6-.05-.03.33-.08.68-.15 1.04z" fill="#36A635"></path><path d="M75.16 52.67c-.06-.27-.21-.49-.45-.6-.24-.11-.57-.12-.91.01-.1.04-.21.1-.31.16-.16.11-.31.24-.44.38s-.25.25-.41.34c-.33.19-.76.34-.94.71-.05.11-.09.21-.17.32-.1.13-.24.24-.37.35-.04.03-.07.07-.11.11-.12-.15-.25-.31-.41-.4-.09-.05-.19-.01-.29-.04-.13-.04-.21-.16-.29-.26-.13-.16-.26-.32-.4-.47-.08-.08-.17-.13-.24-.21-.08-.1-.15-.18-.25-.26a.673.673 0 0 1-.14-.15c-.13-.2-.29-.39-.53-.45-.27-.06-.56.01-.8.11-.3.12-.58.32-.75.6-.17.27-.26.61-.19.93.02.1.06.19.11.28.08.14.19.26.32.37.12.1.21.2.28.35.13.3.21.71.56.81.11.03.21.05.31.11.12.08.2.2.29.31.1.12.22.21.33.32-.03.03-.07.06-.1.09-.1.11-.17.24-.25.36-.11.17-.25.32-.41.45-.33.28-.68.49-1.04.69-.13.07-.26.15-.37.27-.12.13-.19.28-.27.42-.05.09-.11.17-.16.25-.04.07-.1.12-.14.19-.01.01-.03.04-.03.05 0 .01.01.02 0 .03-.01.02-.04.04-.05.06-.01.02-.02.04-.03.05v.01c-.02.02-.05.05-.06.07-.01.03 0 .04-.01.07-.01.01-.02.02-.02.04v.03c0 .02.01.04.02.06.01.04.01.08.02.12l.03.13c.01.06.02.12.06.17.02.07.03.13.08.18.04.04.1.07.15.11.07.06.13.14.2.2.05.04.11.07.17.08.08.02.16.02.25.01.03 0 .05-.01.08-.01.1-.02.2-.03.3-.05.11-.02.25-.1.35-.19.04-.04.06-.08.11-.11.06-.05.13-.1.19-.14.07-.05.15-.09.22-.13.24-.13.49-.25.68-.47.17-.2.19-.41.31-.61.21-.35.65-.42.96-.64.1-.07.19-.15.28-.23.1.08.23.13.34.19.16.08.29.2.41.33.24.28.4.61.55.94.06.12.12.24.22.34.11.1.26.15.4.21l.24.12c.06.03.11.08.17.11.01.01.04.02.05.02.01 0 .02-.01.03-.01.02 0 .04.03.06.04.02.01.03.01.05.03h.02c.01.01.05.04.06.05.02.01.05-.01.07 0 .01 0 .02.02.04.02.01 0 .02-.01.03-.01l.06-.03c.05-.01.09-.02.13-.04.05-.02.1-.03.14-.05a.64.64 0 0 0 .19-.08c.07-.03.15-.06.2-.11.05-.05.09-.11.14-.17.08-.08.17-.15.24-.23.05-.05.09-.12.12-.19.03-.09.05-.17.06-.25v-.08c0-.1.01-.2 0-.3 0-.11-.06-.24-.13-.33-.03-.03-.07-.05-.1-.09a.784.784 0 0 1-.11-.18l-.09-.21c-.09-.22-.17-.47-.37-.62-.18-.14-.4-.13-.59-.22-.33-.15-.32-.59-.49-.87-.02-.04-.05-.07-.08-.11.12-.1.23-.21.32-.33.07-.1.05-.19.1-.29.06-.13.2-.23.32-.33.19-.16.38-.32.56-.49.1-.09.16-.19.26-.28.12-.1.22-.19.32-.3.05-.06.11-.12.18-.17.23-.17.46-.37.56-.61.07-.28.05-.54 0-.76zM43.27 35.84c-.09-.27-.26-.49-.51-.6-.25-.11-.58-.12-.91.01-.1.04-.2.1-.29.16a2.4 2.4 0 0 0-.4.38c-.11.14-.22.25-.38.34-.31.19-.73.34-.88.71-.05.11-.07.21-.15.32-.09.13-.23.24-.35.35-.04.03-.07.07-.1.11-.13-.15-.27-.31-.44-.4-.09-.05-.19-.01-.29-.04-.13-.04-.22-.16-.31-.26-.14-.16-.29-.32-.44-.47-.08-.08-.18-.13-.26-.21-.09-.1-.17-.18-.28-.26a.536.536 0 0 1-.15-.15c-.15-.2-.34-.39-.58-.45-.27-.06-.56.01-.79.11-.29.12-.54.32-.69.6-.15.27-.2.61-.11.93.03.1.07.19.13.28.09.14.21.26.34.37.12.1.23.2.3.35.15.3.24.71.6.81.11.03.21.05.31.11.12.08.21.2.31.31.1.12.23.21.34.32-.03.03-.07.05-.1.09-.1.11-.16.24-.24.36-.11.17-.25.32-.4.45-.32.28-.68.49-1.04.69-.13.07-.26.15-.37.27-.12.13-.2.28-.28.42-.05.09-.11.17-.16.25-.04.07-.1.12-.14.19-.01.02-.03.04-.03.05 0 .01.01.02 0 .03-.01.02-.04.04-.05.06-.01.02-.02.04-.04.05v.01c-.02.02-.05.05-.06.07-.01.03 0 .04-.01.07-.01.01-.02.02-.02.04v.03c0 .02.01.04.01.06 0 .04 0 .08.02.12.01.04.02.09.02.13.01.06.02.12.05.17.01.07.03.13.07.18.04.04.1.07.14.11.07.06.12.14.19.2.04.04.1.07.17.08.08.02.16.02.25.01.03 0 .05-.01.08-.01.1-.02.2-.03.3-.05.11-.02.26-.1.35-.19.04-.04.07-.08.11-.11.134-.103.278-.194.43-.27.24-.13.51-.25.7-.47.17-.2.2-.41.33-.61.21-.35.66-.42.97-.64.1-.07.19-.15.28-.23.1.08.23.13.34.19.16.08.29.2.4.33.24.28.38.61.53.94.05.12.11.24.21.34.11.1.26.15.39.21l.24.12c.06.03.11.08.17.11.01.01.04.02.05.02.01 0 .02-.01.03-.01.02 0 .04.03.05.04.02.01.03.01.05.03h.02c.01.01.05.04.06.05.02.01.05-.01.07 0 .01 0 .02.02.04.02.01 0 .02-.01.03-.01.02-.01.04-.02.07-.03.05-.01.09-.02.14-.04.05-.02.1-.03.15-.05.07-.02.14-.04.19-.08.08-.03.15-.06.21-.11s.1-.11.15-.17c.08-.08.17-.15.25-.23.05-.05.09-.12.12-.19.04-.09.06-.17.06-.25v-.08c0-.1.01-.2.01-.3 0-.11-.05-.24-.13-.33-.03-.03-.07-.05-.1-.09a.784.784 0 0 1-.11-.18l-.09-.21c-.09-.22-.17-.47-.37-.62-.18-.14-.4-.13-.59-.22-.33-.15-.33-.59-.51-.87-.02-.04-.06-.07-.08-.11.11-.1.22-.21.31-.33.07-.1.04-.19.08-.29.06-.13.19-.23.3-.33.18-.16.36-.32.53-.49.09-.09.15-.19.25-.28.11-.1.2-.19.3-.3.05-.06.1-.12.16-.17.21-.17.43-.37.52-.61.07-.28.02-.55-.05-.76zm14 41.2c-.01-.03-.02-.05-.03-.08-.04-.1-.07-.2-.11-.3a.964.964 0 0 0-.25-.33c-.04-.03-.09-.05-.13-.09a.976.976 0 0 1-.17-.18c-.06-.07-.11-.14-.17-.21-.17-.22-.34-.47-.59-.62-.22-.14-.44-.13-.67-.22-.38-.15-.52-.59-.78-.87-.04-.04-.08-.07-.12-.11.08-.1.16-.21.21-.33.04-.1-.01-.19.01-.29.02-.13.13-.23.22-.33.14-.16.28-.32.41-.49.07-.09.11-.19.18-.28.09-.1.16-.19.23-.3.04-.06.08-.12.13-.17.18-.17.36-.37.4-.61.05-.27-.04-.54-.14-.75-.13-.27-.32-.49-.6-.6a1.196 1.196 0 0 0-1.18.17c-.14.11-.25.24-.35.38-.09.14-.19.25-.33.34-.28.19-.67.34-.76.71-.03.11-.03.21-.09.32-.07.13-.18.24-.27.35-.03.03-.05.07-.08.11-.16-.15-.33-.31-.52-.4-.1-.05-.19-.01-.3-.04-.14-.04-.25-.16-.36-.26-.17-.16-.35-.32-.53-.47-.1-.08-.21-.13-.3-.21a2.6 2.6 0 0 0-.32-.26c-.06-.04-.12-.09-.18-.15-.18-.2-.39-.39-.64-.45-.28-.06-.55.01-.77.11-.27.12-.5.32-.61.6-.11.27-.1.61.05.93.05.1.11.19.18.28.12.14.27.26.42.37.15.1.27.2.38.35.22.3.42.71.8.81.12.03.22.05.34.11.14.08.26.2.39.31.14.12.29.21.43.32-.02.03-.05.06-.07.09-.07.11-.09.24-.13.36-.06.17-.15.32-.26.45-.23.28-.51.49-.8.69-.1.07-.21.15-.28.27-.08.13-.09.28-.12.42-.02.09-.05.17-.07.25-.01.07-.05.12-.07.19 0 .02-.01.04-.01.05 0 .01.01.02.01.03 0 .02-.02.04-.03.06-.01.02 0 .04-.01.05l.01.01c-.01.02-.03.05-.03.07 0 .03.02.04.02.07 0 .01-.01.02-.01.04 0 .01.01.02.02.03.01.02.03.04.04.06.02.04.04.08.07.12.03.04.05.09.08.13.04.06.07.12.12.17.04.07.09.13.15.18.06.05.13.07.19.11.1.06.18.14.28.2.06.04.14.07.21.08.09.02.17.02.25.01.02 0 .05-.01.07-.01.09-.02.19-.03.28-.05.1-.02.21-.1.27-.19.02-.04.03-.08.06-.11.04-.05.09-.1.14-.14.06-.05.12-.09.17-.13.19-.13.39-.25.5-.47.09-.2.04-.41.08-.61.08-.35.49-.42.72-.64.08-.07.14-.15.2-.23h.01c.13.08.27.13.41.19.19.08.36.2.53.33.34.28.62.61.91.94.1.12.21.24.35.34.15.1.32.15.48.21.1.04.19.08.29.12.08.03.14.08.22.11.02.01.05.02.06.02.01 0 .02-.01.03-.01.02 0 .05.03.07.04.02.01.04.01.06.03h.01c.02.01.06.04.08.05.03.01.04-.01.07 0 .01 0 .03.02.04.02.01 0 .02-.01.03-.01.02-.01.03-.02.05-.03.04-.01.08-.02.12-.04.04-.02.08-.03.12-.05.06-.02.12-.04.15-.08.06-.03.12-.06.16-.11.03-.05.05-.11.08-.17.04-.08.1-.15.15-.23a.38.38 0 0 0 .04-.19c.05-.09.03-.17 0-.26z" fill="#085440"></path><path d="M79.12 6.1c.65.09 1.28.21 1.88.37.44.1.85.24 1.3.43 1.21.58 2.12 1.59 2.93 2.6.64.81 1.22 1.57 1.63 2.52.39.94.62 1.97.65 3 .02.54-.04 1.1-.09 1.63-.06.42-.04.75-.11 1.11-.18 1.26-1.07 2.47-1.95 3.3-.43.41-.83.77-1.3 1.15-.5.39-1.07.71-1.66.95-.37.11-.73.25-1.07.28-1.12.17-1.89-.09-2.21-.34-.33-.26-.2-.57.12-.86.26-.23.65-.49 1.25-.78.54-.24 1.2-.52 1.79-.85.17-.1.33-.19.47-.33.28-.23.5-.45.77-.7.2-.25.37-.47.53-.73.34-.47.59-1.01.78-1.56.12-.34.22-.73.21-1.06-.02-.25-.11-.36-.11-.63-.05-.57-.05-1.24-.2-1.82-.04-.29-.16-.58-.26-.84-.2-.35-.29-.53-.46-.92-.17-.47-.64-1.38-1.04-1.44-.54-.78-1.38-1.26-2.24-1.71-.78-.4-1.67-.88-2.63-.76-.56.08-.93.26-1.5.42-.63.19-1.24.34-1.81.6-.18.08-.36.17-.53.28-.16.09-.3.21-.45.33-.1.09-.17.18-.26.27-.21.22-.49.48-.67.63-.18.14-.33.27-.5.43l-.1.12c-.14.13-.25.23-.37.31-.1.06-.19.11-.26.1-.1-.02-.18-.09-.29-.1-.07-.01-.16.03-.22 0-.07-.03-.09-.13-.11-.25-.05-.04-.06-.17-.07-.28l-.03-.25c-.01-.06 0-.15 0-.24 0-.04-.01-.06-.01-.11v-.06l.05-.13c.02-.07 0-.08.04-.16.03-.06.1-.19.14-.25v-.03l.09-.17c.04-.07.11-.15.14-.21.01-.03 0-.03.01-.06.02-.04.07-.12.1-.16.12-.2.3-.39.44-.58.19-.24.41-.48.62-.7.35-.37.74-.73 1.24-1.02.45-.26.92-.44 1.39-.55 1.29-.34 2.59-.37 3.94-.19zm-32.66-.03c.65.09 1.29.19 1.9.34.45.11.87.21 1.31.42 1.24.56 2.17 1.55 3 2.56.66.8 1.26 1.57 1.67 2.52.4.94.65 1.97.69 3.01.02.54-.03 1.11-.07 1.64-.06.42-.03.75-.1 1.12-.17 1.27-1.05 2.5-1.94 3.34-.43.42-.83.78-1.3 1.16-.5.4-1.07.72-1.66.96-.38.12-.73.25-1.08.28-1.12.18-1.91-.08-2.23-.33-.33-.26-.2-.57.12-.86.27-.23.66-.49 1.26-.78.55-.24 1.21-.52 1.8-.86.17-.1.33-.2.47-.34.28-.23.51-.46.77-.71.2-.25.37-.47.53-.74.33-.48.6-1.02.77-1.58.13-.34.21-.74.21-1.07-.03-.25-.11-.36-.11-.63-.06-.58-.07-1.25-.23-1.83-.07-.29-.16-.58-.28-.84-.19-.36-.3-.53-.47-.92-.19-.46-.66-1.38-1.07-1.44-.56-.78-1.41-1.25-2.28-1.68-.8-.39-1.7-.85-2.67-.71-.56.09-.92.29-1.5.46-.62.2-1.24.38-1.8.65-.18.08-.35.19-.53.3-.15.1-.3.22-.45.34l-.25.28c-.21.23-.48.5-.65.66-.17.15-.33.28-.48.45l-.12.14c-.14.14-.25.24-.36.33-.09.07-.19.12-.25.11-.1-.02-.19-.08-.29-.09-.07-.01-.16.03-.22.01-.07-.02-.09-.13-.12-.25-.05-.04-.06-.16-.08-.27l-.03-.25c-.02-.06-.01-.15-.01-.24 0-.04-.01-.06-.01-.11v-.06l.05-.13c.02-.07 0-.08.03-.16.03-.06.1-.19.14-.26v-.03c.04-.07.05-.11.09-.18.04-.07.11-.15.14-.22.01-.03 0-.03.01-.06.02-.04.07-.12.09-.17.11-.21.29-.4.42-.6.19-.24.39-.5.61-.72.34-.39.72-.75 1.21-1.07.45-.27.92-.46 1.39-.59 1.29-.38 2.6-.44 3.96-.3z" fill="#36A635"></path></g></svg>