<svg width="25" height="25" viewBox="0 0 25 25" fill="none" xmlns="http://www.w3.org/2000/svg">
<path d="M22.048 2.61365H19.7723V0.738007C19.7723 0.330627 19.4417 0 19.0343 0C18.6269 0 18.2963 0.330627 18.2963 0.738007V2.61365H6.70369V0.738007C6.70369 0.330627 6.37306 0 5.96568 0C5.5583 0 5.22767 0.330627 5.22767 0.738007V2.61365H2.95203C1.32435 2.61365 0 3.93801 0 5.56568V22.048C0 23.6756 1.32435 25 2.95203 25H22.048C23.6756 25 25 23.6756 25 22.048V5.56568C25 3.93801 23.6756 2.61365 22.048 2.61365ZM23.524 22.048C23.524 22.862 22.862 23.524 22.048 23.524H2.95203C2.13801 23.524 1.47601 22.862 1.47601 22.048V9.31734H23.524V22.048ZM23.524 7.84133H1.47601V5.56568C1.47601 4.75166 2.13801 4.08967 2.95203 4.08967H22.048C22.862 4.08967 23.524 4.75166 23.524 5.56568V7.84133Z" fill="#2A2A2A"/>
<path d="M17.089 20.2491H19.672C20.0779 20.2491 20.41 19.917 20.41 19.5111V16.928C20.41 16.5221 20.0779 16.19 19.672 16.19H17.089C16.6831 16.19 16.351 16.5221 16.351 16.928V19.5111C16.351 19.917 16.6831 20.2491 17.089 20.2491Z" fill="#2A2A2A"/>
</svg>
