<svg width="27" height="26" viewBox="0 0 27 26" fill="none" xmlns="http://www.w3.org/2000/svg">
<path d="M3.64196 20.15C3.73905 20.2388 3.80602 20.3556 3.83352 20.4842C3.86102 20.6129 3.84768 20.7469 3.79536 20.8676C3.63416 21.255 3.49636 21.6476 3.29876 22.0194C2.82036 22.9112 2.10016 23.5794 1.37476 24.2476C1.04196 24.5648 0.688361 24.882 0.378961 25.22C0.0695613 25.558 0.147561 25.7088 0.576561 25.818C1.0515 25.9393 1.53979 26.0004 2.02996 26C2.65917 25.9905 3.28602 25.9209 3.90196 25.792C5.98196 25.3838 7.95796 24.5856 9.88196 23.6756C10.0435 23.5945 10.2212 23.5509 10.402 23.5482C10.4647 23.5484 10.5273 23.5536 10.5892 23.5638C11.3912 23.6941 12.2024 23.7602 13.015 23.7614C14.0854 23.7668 15.1528 23.6454 16.1948 23.4C19.6502 22.5706 22.453 20.7272 24.3822 17.602C25.7797 15.3827 26.3007 12.7225 25.8434 10.14C25.3078 6.916 23.61 4.433 21.062 2.6C18.7703 0.915789 16.0019 0.00512209 13.158 0C12.482 0.0442 11.8008 0.0494 11.13 0.143C8.22316 0.5434 5.63616 1.703 3.49896 3.796C1.49436 5.7668 0.261961 8.1536 0.0383613 11.0422C-0.183548 13.6687 0.562717 16.2857 2.13656 18.4002C2.60777 19.0091 3.11024 19.5932 3.64196 20.15ZM1.59316 11.1644C1.78296 8.7516 2.76316 6.7054 4.59096 4.9088C6.41876 3.1122 8.62356 2.0488 11.351 1.6874C11.741 1.6328 12.1596 1.6146 12.6016 1.5912L13.2022 1.56C15.6986 1.57724 18.1264 2.37952 20.1416 3.8532C22.4816 5.551 23.857 7.6882 24.3016 10.3896C24.6953 12.6021 24.2493 14.8819 23.051 16.783C21.4104 19.4428 19.0496 21.1094 15.8282 21.879C14.9115 22.0961 13.9726 22.2052 13.0306 22.204C12.3007 22.202 11.5721 22.142 10.8518 22.0246C10.2981 21.9344 9.73014 22.0189 9.22676 22.2664C7.71616 22.9814 5.71156 23.8524 3.61596 24.2606H3.58996C4.01493 23.8069 4.38175 23.3021 4.68196 22.7578C4.84641 22.4398 4.99226 22.1125 5.11876 21.7776C5.16036 21.6736 5.19936 21.5722 5.24356 21.4708C5.4111 21.0791 5.46 20.6469 5.3842 20.2277C5.3084 19.8085 5.11124 19.4208 4.81716 19.1126C4.68196 18.9618 4.55716 18.8136 4.40896 18.6628C4.05398 18.2914 3.72063 17.8999 3.41056 17.4902C2.04488 15.6781 1.39757 13.425 1.59316 11.1644Z" fill="#2A2A2A"/>
<path d="M12.9862 14.4946C13.2824 14.4977 13.573 14.4127 13.8208 14.2503C14.0687 14.0879 14.2627 13.8556 14.3782 13.5827C14.4938 13.3099 14.5256 13.0088 14.4697 12.7179C14.4138 12.4269 14.2727 12.1591 14.0643 11.9485C13.8559 11.7378 13.5895 11.5939 13.2992 11.535C13.0088 11.476 12.7074 11.5047 12.4334 11.6174C12.1593 11.73 11.925 11.9216 11.76 12.1677C11.5951 12.4139 11.507 12.7035 11.507 12.9998C11.5103 13.3925 11.6667 13.7685 11.943 14.0476C12.2192 14.3268 12.5935 14.4872 12.9862 14.4946Z" fill="#2A2A2A"/>
<path d="M7.72907 14.492C8.02515 14.4935 8.31502 14.4071 8.56192 14.2437C8.80882 14.0803 9.00163 13.8472 9.11588 13.5741C9.23014 13.3009 9.26071 13 9.2037 12.7094C9.1467 12.4189 9.00469 12.1518 8.79569 11.9421C8.5867 11.7323 8.32012 11.5894 8.02977 11.5314C7.73943 11.4734 7.43839 11.5029 7.16484 11.6162C6.8913 11.7295 6.65756 11.9215 6.49327 12.1678C6.32899 12.4141 6.24156 12.7037 6.24207 12.9998C6.24207 13.3947 6.39856 13.7734 6.67728 14.0531C6.956 14.3328 7.33422 14.4906 7.72907 14.492Z" fill="#2A2A2A"/>
<path d="M18.2746 14.4946C18.5706 14.4961 18.8603 14.4098 19.1072 14.2465C19.354 14.0832 19.5468 13.8503 19.6612 13.5773C19.7755 13.3043 19.8062 13.0035 19.7494 12.713C19.6926 12.4225 19.5509 12.1554 19.3421 11.9456C19.1334 11.7358 18.8671 11.5926 18.5769 11.5343C18.2867 11.476 17.9858 11.5051 17.7122 11.618C17.4386 11.731 17.2047 11.9225 17.0401 12.1685C16.8755 12.4145 16.7876 12.7038 16.7876 12.9998C16.7876 13.3949 16.944 13.7739 17.2227 14.054C17.5013 14.3341 17.8795 14.4925 18.2746 14.4946Z" fill="#2A2A2A"/>
</svg>
