<svg xmlns="http://www.w3.org/2000/svg" width="28" height="28" viewBox="0 0 28 28"><defs><style>.a{fill:#22b6cf;}.b{fill:#fff;}</style></defs><g transform="translate(-355 -453)"><circle class="a" cx="14" cy="14" r="14" transform="translate(355 453)"/><g transform="translate(361.107 456.853)"><path class="b" d="M9.721,2.6H2.08a.98.98,0,0,0-.756.324A1.135,1.135,0,0,0,1,3.68V9.35A1.054,1.054,0,0,0,2.053,10.4h.594v2.808a.2.2,0,0,0,.378.108L4.888,10.4h1.08a7.116,7.116,0,0,1,1-1.026,7.647,7.647,0,0,1,3.807-1.485V3.68A1.044,1.044,0,0,0,9.721,2.6ZM3.646,7.271a.755.755,0,0,1-.756-.756.773.773,0,0,1,.756-.756.755.755,0,0,1,.756.756A.738.738,0,0,1,3.646,7.271Zm2.268,0a.755.755,0,0,1-.756-.756.773.773,0,0,1,.756-.756.755.755,0,0,1,.756.756A.773.773,0,0,1,5.914,7.271Zm2.241,0A.755.755,0,0,1,7.4,6.515a.773.773,0,0,1,.756-.756.755.755,0,0,1,.756.756A.773.773,0,0,1,8.155,7.271Z" transform="translate(0 0)"/><g transform="translate(5.752 8.513)"><path class="b" d="M36.5,45.8H32.4a.3.3,0,1,0,0,.594h4.1a.3.3,0,0,0,.3-.3A.283.283,0,0,0,36.5,45.8Z" transform="translate(-28.455 -40.049)"/><path class="b" d="M36.5,40.1H32.4a.3.3,0,1,0,0,.594h4.1a.3.3,0,1,0,0-.594Z" transform="translate(-28.455 -35.888)"/><path class="b" d="M36.5,34.5H32.4a.3.3,0,1,0,0,.594h4.1a.3.3,0,1,0,0-.594Z" transform="translate(-28.455 -31.8)"/><path class="b" d="M30.534,33.572l-.972-2.079a3.7,3.7,0,0,0,.972-2.484c0-2.484-2.673-4.509-5.967-4.509a6.957,6.957,0,0,0-4.32,1.4,3.96,3.96,0,0,0-1.647,3.1v.162c.108,2.4,2.754,4.347,5.967,4.347.324,0,.648-.027.972-.054a5.325,5.325,0,0,0,.945-.189l3.294,1.134a.594.594,0,0,0,.216.027.614.614,0,0,0,.513-.27A.758.758,0,0,0,30.534,33.572Zm-3.888-1.134a.243.243,0,0,0-.135-.027.162.162,0,0,0-.108.027,6.849,6.849,0,0,1-1.836.243c-2.781,0-5.022-1.566-5.13-3.537v-.135a2.923,2.923,0,0,1,.81-1.971,5.913,5.913,0,0,1,4.32-1.674c2.835,0,5.13,1.647,5.13,3.645a2.968,2.968,0,0,1-.945,2.106.413.413,0,0,0-.081.486l.864,1.863Z" transform="translate(-18.6 -24.5)"/></g></g></g></svg>