<svg width="17" height="21" viewBox="0 0 17 21" fill="none" xmlns="http://www.w3.org/2000/svg">
<path d="M11.4225 3.67358H1.66005C0.744012 3.67358 0 4.4176 0 5.33363V19.3408C0 20.2569 0.744012 21.0009 1.66005 21.0009H11.4225C12.3386 21.0009 13.0826 20.2569 13.0826 19.3408V5.33363C13.0783 4.4176 12.3343 3.67358 11.4225 3.67358ZM11.9171 19.3365C11.9171 19.6118 11.6935 19.8354 11.4182 19.8354H1.65575C1.38051 19.8354 1.15687 19.6118 1.15687 19.3365V5.33363C1.15687 5.05839 1.38051 4.83476 1.65575 4.83476H11.4182C11.6935 4.83476 11.9171 5.05839 11.9171 5.33363V19.3365Z" fill="#2F2E41"/>
<path d="M15.1559 0H5.39345C4.47741 0 3.7334 0.744012 3.7334 1.66005C3.7334 1.9826 3.99144 2.24064 4.31399 2.24064C4.63653 2.24064 4.89457 1.9826 4.89457 1.66005C4.89457 1.38481 5.11821 1.16118 5.39345 1.16118H15.1559C15.4312 1.16118 15.6548 1.38481 15.6548 1.66005V15.6673C15.6548 15.9425 15.4312 16.1661 15.1559 16.1661C14.8334 16.1661 14.5753 16.4242 14.5753 16.7467C14.5753 17.0693 14.8334 17.3273 15.1559 17.3273C16.072 17.3273 16.816 16.5833 16.816 15.6673V1.66005C16.816 0.744012 16.072 0 15.1559 0Z" fill="#2F2E41"/>
</svg>
