<svg width="17" height="17" viewBox="0 0 17 17" fill="none" xmlns="http://www.w3.org/2000/svg">
<path d="M6.64171 8.1319L0.30888 1.79887C-0.103251 1.38693 -0.103251 0.72089 0.30888 0.308953C0.720818 -0.102984 1.38686 -0.102984 1.7988 0.308953L8.13182 6.64198L14.4647 0.308953C14.8768 -0.102984 15.5426 -0.102984 15.9546 0.308953C16.3667 0.72089 16.3667 1.38693 15.9546 1.79887L9.62174 8.1319L15.9546 14.4649C16.3667 14.8769 16.3667 15.5429 15.9546 15.9548C15.7493 16.1603 15.4794 16.2635 15.2096 16.2635C14.9399 16.2635 14.6701 16.1603 14.4647 15.9548L8.13182 9.62181L1.7988 15.9548C1.59331 16.1603 1.32358 16.2635 1.05384 16.2635C0.784103 16.2635 0.514366 16.1603 0.30888 15.9548C-0.103251 15.5429 -0.103251 14.8769 0.30888 14.4649L6.64171 8.1319Z" fill="#2A2A2A"/>
</svg>
