<?xml version="1.0" encoding="utf-8"?>
<!-- Generator: Adobe Illustrator 24.2.0, SVG Export Plug-In . SVG Version: 6.00 Build 0)  -->
<svg version="1.1" id="Layer_1" xmlns="http://www.w3.org/2000/svg" xmlns:xlink="http://www.w3.org/1999/xlink" x="0px" y="0px"
	 viewBox="0 0 60 70" style="enable-background:new 0 0 60 70;" xml:space="preserve">
<style type="text/css">
	.st0{fill:#9FC499;}
</style>
<g>
	<g>
		<path class="st0" d="M57.6,39.3c-1.2,3.9-3.8,7.2-7.4,9.2c-2.5,1.4-5.2,2-8,1.9c-1.2,0-2.5-0.2-3.7-0.6c-1.1-0.3-1.7-1.5-1.4-2.6
			c0.1-0.6,0.5-1,1-1.2c0.5-0.3,1-0.3,1.6-0.2c2.9,0.8,5.9,0.5,8.6-0.9c2.6-1.4,4.5-3.8,5.4-6.7c1.7-6-1.7-12.2-7.7-13.9
			c-2-0.6-4-0.6-6-0.1c-0.7,0.2-1.3,0.4-2,0.7c-0.2,0.1-0.4,0.2-0.6,0.3c-0.4,0.2-0.8,0.5-1.2,0.8c-0.2-0.7-0.4-1.3-0.7-2
			c-0.3-0.7-0.6-1.3-0.9-1.9c-2.6-4.3-7.2-7.3-12.7-7.5c-8.5-0.3-15.7,6.3-16,14.8C5.6,36.2,10,42.5,16.5,44.6
			c0.5,0.1,0.8,0.4,1.1,0.8c0.4,0.5,0.5,1.2,0.3,1.8c-0.3,0.9-1.2,1.5-2.1,1.4c-0.2,0-0.4-0.1-0.6-0.1C7,45.9,1.4,37.9,1.8,29.2
			c0.4-10.8,9.5-19.2,20.3-18.8c7,0.3,13,4.2,16.3,9.9c0,0,0,0,0.1,0c2.8-0.9,5.9-0.9,8.8-0.1C55.3,22.6,60,31.2,57.6,39.3z"/>
	</g>
	<g>
		<path class="st0" d="M20.6,65.1c-0.5,0-1-0.2-1.4-0.6c-0.7-0.7-0.7-1.9-0.1-2.7l8.6-11.5c0,0,0-0.1,0-0.1h-9.4c0,0-0.1,0,0-0.1
			l13.3-17.6c0.7-0.9,2.1-1.1,3-0.2c0.7,0.7,0.7,1.9,0.1,2.7l-8.4,11.2c0,0,0,0.1,0,0.1h9.4c0,0,0.1,0,0,0.1l-13.5,18
			C21.8,64.8,21.2,65.1,20.6,65.1z"/>
	</g>
</g>
</svg>
