<svg width="104" height="78" viewBox="0 0 104 78" fill="none" xmlns="http://www.w3.org/2000/svg">
<path d="M97.5053 78H6.164C2.76536 78 0 75.2346 0 71.836V6.16401C0 2.76536 2.76536 0 6.164 0H97.5053C100.904 0 103.669 2.76536 103.669 6.16401V71.8571C103.669 75.2346 100.904 78 97.5053 78ZM6.164 2.53315C4.15859 2.53315 2.53315 4.15859 2.53315 6.16401V71.8571C2.53315 73.8625 4.15859 75.488 6.164 75.488H97.5053C99.5107 75.488 101.136 73.8625 101.136 71.8571V6.16401C101.136 4.15859 99.5107 2.53315 97.5053 2.53315H6.164Z" fill="#2A2A2A"/>
<path d="M96.7885 9.52044H93.9387C92.4611 9.52044 91.2578 8.31719 91.2578 6.83952C91.2578 5.36185 92.4611 4.1586 93.9387 4.1586H96.7885C98.2662 4.1586 99.4694 5.36185 99.4694 6.83952C99.4694 8.31719 98.2662 9.52044 96.7885 9.52044ZM93.9387 6.67064C93.8543 6.67064 93.791 6.73397 93.791 6.81841C93.791 6.90285 93.8543 6.96618 93.9387 6.96618H96.7885C96.873 6.96618 96.9363 6.88174 96.9363 6.81841C96.9363 6.73397 96.873 6.67064 96.7885 6.67064H93.9387Z" fill="#2A2A2A"/>
<path d="M88.1948 9.52044H85.345C83.8673 9.52044 82.6641 8.31719 82.6641 6.83952C82.6641 5.36185 83.8673 4.1586 85.345 4.1586H88.1948C89.6725 4.1586 90.8757 5.36185 90.8757 6.83952C90.8757 8.31719 89.6725 9.52044 88.1948 9.52044ZM85.345 6.67064C85.2605 6.67064 85.1972 6.75508 85.1972 6.81841C85.1972 6.90285 85.2817 6.96618 85.345 6.96618H88.1948C88.2792 6.96618 88.3425 6.90285 88.3425 6.81841C88.3425 6.73397 88.2792 6.67064 88.1948 6.67064H85.345Z" fill="#2A2A2A"/>
<path d="M79.6049 9.52044H76.7551C75.2775 9.52044 74.0742 8.31719 74.0742 6.83952C74.0742 5.36185 75.2775 4.1586 76.7551 4.1586H79.6049C81.0826 4.1586 82.2859 5.36185 82.2859 6.83952C82.2859 8.31719 81.0826 9.52044 79.6049 9.52044ZM76.7551 6.67064C76.6707 6.67064 76.6074 6.73397 76.6074 6.81841C76.6074 6.90285 76.6707 6.96618 76.7551 6.96618H79.6049C79.6894 6.96618 79.7527 6.90285 79.7527 6.81841C79.7527 6.73397 79.6894 6.67064 79.6049 6.67064H76.7551Z" fill="#2A2A2A"/>
<path d="M68.9038 8.10609H11.0635C10.3668 8.10609 9.79688 7.53613 9.79688 6.83951C9.79688 6.1429 10.3668 5.57294 11.0635 5.57294H68.9038C69.6004 5.57294 70.1704 6.1429 70.1704 6.83951C70.1704 7.53613 69.6215 8.10609 68.9038 8.10609Z" fill="#2A2A2A"/>
<path d="M12.1992 47.2433V42.367L40.3383 30.4823V35.6752L18.0044 44.8157L40.3172 54.0617V59.2546L12.1992 47.2433Z" fill="#2A2A2A"/>
<path d="M43.5898 66.5375L55.8967 22.6084H60.0553L47.7695 66.5375H43.5898Z" fill="#2A2A2A"/>
<path d="M91.4438 47.2433L63.3047 59.2758V54.0828L85.5753 44.8368L63.3047 35.6752V30.4823L91.4438 42.367V47.2433Z" fill="#2A2A2A"/>
<path d="M102.403 13.6579H1.26658C0.569959 13.6579 0 13.0879 0 12.3913C0 11.6947 0.569959 11.1248 1.26658 11.1248H102.403C103.099 11.1248 103.669 11.6947 103.669 12.3913C103.669 13.0879 103.099 13.6579 102.403 13.6579Z" fill="#2A2A2A"/>
</svg>
