<svg width="29" height="31" viewBox="0 0 29 31" fill="none" xmlns="http://www.w3.org/2000/svg">
<path fill-rule="evenodd" clip-rule="evenodd" d="M25.4637 0H3.32087C1.4865 0 -0.000558853 1.48705 -0.000558853 3.32143V21.0357C-0.000558853 22.8701 1.4865 24.3571 3.32087 24.3571H22.3305C22.6236 24.3612 22.9044 24.4759 23.1166 24.6782L28.7852 30.3468V3.32143C28.7852 1.48705 27.2981 0 25.4637 0ZM3.32087 22.1429C2.70941 22.1429 2.21373 21.6472 2.21373 21.0357V3.32143C2.21373 2.70997 2.70941 2.21429 3.32087 2.21429H25.4637C26.0752 2.21429 26.5709 2.70997 26.5709 3.32143V25.0104L24.6777 23.1171C24.0554 22.4941 23.2111 22.1436 22.3305 22.1429H3.32087Z" fill="#3980B1"/>
<rect width="13.2857" height="2.21429" transform="matrix(-1 0 0 1 21.0352 8.85715)" fill="#3980B1"/>
<rect width="7.75" height="2.21429" transform="matrix(-1 0 0 1 21.0352 13.2857)" fill="#3980B1"/>
</svg>
