<svg xmlns="http://www.w3.org/2000/svg" viewBox="0 0 120 100" id="completed-tasks-color"><g fill="none" fill-rule="evenodd"><path d="M66.2 76.3c.07 0 .14.03.2.07.06.01.12.05.18.08.04.03.08.06.13.08l.12.07.06.03.03.02c.01.01.01.03.02.05.01.02.04.02.05.05.01.02.01.07.01.1l.01.01c0 .03.01.04.02.07l.01.09.03.02c.01.01.02.05.02.06.03.08.02.17.05.25.03.1.06.21.1.31.04.09.04.21.05.32.02.26.01.51 0 .77-.02.51-.08 1.01-.09 1.52-.02.71.06 1.41.05 2.12-.01.41-.02.81 0 1.21.02.58.08 1.16.12 1.75.04.66.08 1.34.04 2.01-.01.16-.03.32-.06.48-.04.25-.09.55-.21.75-.11.19-.3.32-.47.39-.28.12-.58.08-.85-.06-.22-.11-.46-.28-.6-.57-.13-.26-.12-.58-.1-.88.01-.09 0-.17-.01-.26-.03-.21-.01-.42-.04-.63-.03-.22-.01-.44-.01-.66-.01-.47-.03-.94-.06-1.41l-.08-1.41c-.03-.47-.04-.94-.04-1.41s.01-.94.06-1.41l.02-.18c.04-.34.08-.68.09-1.03.01-.27.01-.54-.01-.82-.01-.28.01-.55.02-.82 0-.13-.01-.26.04-.37.06-.13.14-.25.21-.37-.02-.04-.01-.06 0-.08.02-.03.03-.06.05-.08.04-.05.09-.08.13-.11.06-.04.13-.07.2-.08.1-.01.2 0 .31-.01.07-.01.13-.03.2-.03zm-11.8.19l.05.03c.043.017.084.04.12.07l.06.03.03.02c.01.02.01.04.02.05.01.02.04.02.05.05 0 .02.01.08.01.1l.01.01c0 .025.007.049.02.07 0 .03 0 .07.01.09l.03.02c.01.01.01.04.02.06.03.08.02.17.05.25l.1.31c.04.09.04.21.05.32.02.26.01.51 0 .77-.02.51-.08 1.01-.09 1.52-.01.71.06 1.41.05 2.12 0 .4-.02.81 0 1.21.03.58.08 1.16.08 1.75.05.67.09 1.34.04 2.01-.01.16-.03.32-.06.48-.04.25-.09.54-.21.75-.11.2-.3.32-.47.39-.28.12-.58.08-.85-.06-.22-.11-.46-.28-.6-.57-.13-.25-.12-.58-.1-.88.01-.09 0-.17-.01-.26-.03-.21-.02-.42-.04-.63-.02-.22 0-.44-.01-.66-.01-.47-.03-.94-.06-1.41l-.08-1.41c-.02-.47-.04-.94-.04-1.41s.02-.94.06-1.41l.02-.18c.03-.35.08-.68.09-1.03.01-.28 0-.55-.01-.82-.01-.27.02-.54.02-.82v-.02c.22-.14.44-.27.65-.39.33-.19.66-.35.99-.52zm35.38-17c.33-.05.5-.08.85-.03.42.06 1.21.24 1.47.02.76.14 1.51.04 2.31.1.73.04 1.47.31 2.22.18.45-.08.76-.24 1.26-.27.33-.02.66 0 .98.04l.35.04c.64.08 1.1.66 1.03 1.32v.02l-.09.62c-.14.97-.16 2.03-.15 3.05.02 1.97.17 3.91.04 5.87-.06.9-.18 1.74-.34 2.55-.09.47-.17.89-.11 1.41.07.6.2 1.15.26 1.77.08.7.1 1.41.11 2.13.01.41.03.83.04 1.23 0 .43-.05.83-.09 1.24-.03.3-.03.61-.07.9-.01.12 0 .18 0 .29v.3c.01.02.02.06.02.08v.1c.01.06.03.12.04.17.04.21.08.41.12.63.05.21.03.44.05.67.01.13.01.25.01.38v.37c.01.12-.01.23-.02.35-.02.41.03.85-.04 1.23-.03.21-.1.36-.14.56-.02.12-.08.32-.08.45-.01.03-.06.13-.08.22-.01.05-.02.09-.01.11-.11.4-.27.73-.42 1.04-.09.2-.2.41-.32.41-.08 0-.15-.12-.23-.17-.08-.06-.17-.08-.26-.1-.07-.01-.14-.01-.21-.12-.11-.18-.19-.5-.26-.77-.06-.21-.12-.44-.15-.69-.02-.17-.02-.34-.02-.51-.01-.25-.02-.5-.01-.75.01-.49.05-.97.1-1.43.04-.36.08-.72.09-1.1.02-.38.02-.8-.01-1.18a3.52 3.52 0 0 0-.04-.34c-.03-.16-.07-.27-.1-.41-.12-.56.02-1.23.1-1.75.1-.64-.07-1.26-.11-1.9-.07-.91.06-1.75.05-2.65-.01-.72-.24-1.26-.25-1.99-.02-.84.17-1.6.14-2.44-.03-.87-.12-1.64-.03-2.52.09-.91.2-1.75.23-2.69.03-1.09.02-2.21-.17-3.23l-.06-.31c-.57-.07-1.14-.12-1.74-.13-.4-.01-.79.01-1.17.07-.28.04-.54.1-.83.12-.8.05-1.6-.13-2.4-.14-.64-.01-1.21.11-1.83.15-.6.04-1.22.06-1.84.06-.32 0-.66-.01-.97.02-.25.03-.43.09-.65.14-.51.12-1.09.06-1.61-.01-.26-.04-.52-.09-.8-.11-.17-.01-.46-.05-.63-.02-.12.02-.21.05-.34.06-.18.01-.37 0-.55 0-.16 0-.33-.02-.48-.04-.15-.03-.33-.05-.45-.09-.05-.02-.09-.04-.15-.05l-.14-.01c-.57-.08-1.16-.19-1.46-.4-.19-.18-.35-.36-.35-.55.01-.22.15-.44.39-.63.23-.2.59-.37 1.12-.46.47-.09.99-.1 1.5-.11.43-.02.9-.05 1.34-.07.13-.01.25.01.38.01.21 0 .4-.04.61-.04h1.42c.3.01.62.03.88-.04.2-.05.28-.14.5-.17.48-.06 1.03-.04 1.52-.04.24 0 .49.01.73-.02zm-56.02.05c.51-.12 1.09-.06 1.61.01.26.04.52.09.8.11.17.01.46.05.63.02.12-.02.21-.05.34-.06.18-.01.37 0 .55 0 .16 0 .33.02.48.04.15.03.33.05.45.09.05.02.09.04.15.05l.14.01c.57.08 1.16.19 1.46.4.19.18.35.35.32.52-.01.22-.15.44-.39.63-.23.2-.59.37-1.12.46-.47.09-.99.1-1.5.11-.43.02-.9.05-1.34.07-.13.01-.25-.01-.38-.01-.21 0-.4.04-.61.04h-1.42c-.3-.01-.62-.03-.88.04-.2.05-.28.14-.5.17-.48.06-1.03.04-1.52.04-.24 0-.49-.01-.73.02-.33.05-.5.08-.85.03-.42-.06-1.21-.24-1.47-.02-.76-.14-1.51-.04-2.31-.1-.73-.04-1.47-.31-2.22-.18-.37.07-.66.18-1.03.24-.06.76-.09 1.53-.08 2.29.02 1.97.17 3.91.04 5.87-.06.9-.18 1.74-.34 2.55-.09.47-.17.89-.11 1.41.07.6.2 1.15.26 1.77.08.7.1 1.41.11 2.13.01.41.03.83.04 1.23 0 .43-.05.83-.09 1.24-.03.3-.03.61-.07.9-.01.12 0 .18 0 .29v.3c.01.02.02.06.02.08v.1c.01.06.03.12.04.17.04.21.08.41.12.63.05.21.03.44.05.67.01.13.01.25.01.38v.37c.01.12-.01.23-.02.35-.02.41.03.85-.04 1.23-.03.21-.1.36-.14.56-.02.12-.08.32-.08.45-.01.03-.06.13-.08.22-.01.05-.02.09-.01.11-.11.4-.27.73-.42 1.04-.09.2-.2.41-.32.41-.08 0-.15-.12-.23-.17a.64.64 0 0 0-.26-.1c-.07-.01-.14-.01-.21-.12-.11-.18-.19-.5-.26-.77-.06-.21-.12-.44-.15-.69-.02-.17-.02-.34-.02-.51-.01-.25-.02-.5-.01-.75.01-.49.05-.97.1-1.43.04-.36.08-.72.09-1.1.02-.38.02-.8-.01-1.18a3.52 3.52 0 0 0-.04-.34c-.03-.16-.07-.27-.1-.41-.12-.56.02-1.23.1-1.75.1-.64-.07-1.26-.11-1.9-.07-.91.06-1.75.05-2.65-.01-.72-.24-1.26-.25-1.99-.02-.84.17-1.6.14-2.44-.03-.87-.12-1.64-.03-2.52.09-.91.2-1.75.23-2.69.03-1.09.02-2.21-.17-3.23-.05-.31-.13-.61-.14-.95-.01-.15 0-.29.01-.43v-.21a1.07 1.07 0 0 1 1.14-.98h.03c.14.02.3.03.46.05.79.1 1.57.19 2.4.2.4.01.79-.01 1.17-.07.28-.04.54-.1.83-.12.8-.05 1.6.13 2.4.14.64.01 1.21-.11 1.83-.15.6-.04 1.22-.06 1.84-.06.32 0 .66.01.97-.02.25-.03.43-.09.65-.14zm21.367-25.36l.053.01c.25.07.49.08.71.2.43.19.86.38 1.29.73.27.19.47.48.73.64.17.13.29.15.46.34.36.41.59.97.74 1.45.08.24.14.49.21.71.11.31.19.49.17.83.01.42-.15 1.16.06 1.41-.14.62-.15 1.21-.26 1.82.36-.21.73-.39 1.11-.53.39-.17.76-.26 1.14-.54.2-.14.44-.29.68-.45.24-.13.49-.26.76-.38.64-.22 1.36-.38 2.13-.28.22 0 .44.05.66.1.22.04.44.1.65.2.45.18.79.5 1.11.8.79.87 1.32 1.7 1.7 2.68.3.91-.02 1.21-.02 2.12.02.77-.18 1.7-.33 2.42-.08.32-.12.66-.2.98-.01.06-.05.14-.08.22.59-.34 1.33-.73 1.6-.86 1.09-.65.74-1.54 2.02-2.23.28-.15.61-.27.92-.41.34-.1.67-.24 1.05-.29.72-.16 1.58-.08 2.32.24.41.21.73.37 1.09.59.47.26.85.61 1.18 1.06.28.41.47.76.72 1.16.14.22.24.52.31.77.09.27.09.51.12.78.06.61.11 1.23.05 1.9-.03.4-.09.8-.13 1.2-.03.2-.04.41-.08.61-.13.54-.22.94-.38 1.59-.12.58-.2 1.1-.56 1.62-.29.44-.62.66-.79 1.2-.07.2-.09.39-.18.59-.09.17-.21.3-.32.46-.25.36-.24.7-.63.91-.16.08-.32.11-.49.28-.16.17-.25.36-.33.52-.09.18-.2.38-.39.56-.1.1-.19.15-.3.22-.09.07-.17.15-.26.21-.08.05-.12.05-.19.12-.03 0-.12.05-.16.07-.06.03-.13.05-.17.08l-.16.12c-.1.07-.21.14-.3.2-.05.03-.09.06-.14.1-.08.05-.17.08-.25.12l-.14.08c-.05.02-.12.06-.16.1-.08.02-.14.08-.22.12-.25.13-.43.21-.58.18l-.03-.01c-.07-.02-.11-.01-.22.03-.15.06-.27.1-.41.14-.13.03-.26.06-.39.1-.16.05-.28.05-.38.03l-.18-.02c-.03 0-.05-.05-.11-.02-.03-.04-.11-.04-.16-.06-.04-.02-.09-.04-.11-.08-.01-.03-.01-.07-.01-.1l-.14.08c.01.03.03.07.03.11 0 .24-.11.57-.27.87-.17.32-.47.59-.92.84-.39.22-.76.4-1.1.68-.17.14-.35.29-.5.42-.21.16-.45.32-.65.49-.21.18-.51.35-.74.51-.19.14-.43.28-.57.46-.1.13-.11.25-.24.38-.29.28-.68.53-1.02.76-.17.11-.34.22-.49.36-.2.19-.3.29-.57.42-.32.14-.97.37-1.03.67-.61.23-1.08.66-1.67.98-.54.29-1.19.41-1.65.86-.27.26-.41.53-.74.79l-.12.07c-.01-.04-.01-.08-.02-.11l.04-.03c-.02-.06-.04-.12-.06-.19.05.03.1.06.14.07.18.06.31-.09.43-.39.06-.22.04-.65-.04-1.05-.07-.32-.17-.66-.28-1.01l-.06-.17c-.02-.05-.03-.13-.05-.19-.04-.15-.13-.36-.2-.53a5.4 5.4 0 0 0-.26-.55c-.13-.19-.26-.39-.4-.57-.11-.13-.2-.21-.3-.32-.16-.21-.34-.45-.48-.63-.22-.28-.38-.58-.61-.83-.22-.25-.45-.52-.7-.77-.26-.22-.55-.43-.84-.58-.24-.13-.48-.2-.76-.35-.35-.19-.69-.44-1.06-.61-.68-.38-1.43-.64-2.16-.85-.38-.09-.75-.16-1.12-.22-.38-.03-.75-.08-1.14-.15-.45-.07-.96-.14-1.48-.22-.49-.02-1-.09-1.5 0-.36.06-.68.15-1.01.23-.41.14-.83.25-1.27.35-.07.01-.14.05-.21.08.02-.12.04-.23.06-.37.08-.44-.06-.88 0-1.33.18-1.25.75-2.62.72-3.88-.03-1.15-.21-2.37-.06-3.51.05-.32.06-.58.03-.91a6.11 6.11 0 0 1-.01-1.21c.04-.37.07-.69.02-1.06-.02-.21.01-.45.01-.67.01-.24.06-.43.1-.66.08-.52.12-1.07.19-1.6.05-.36.12-.73.15-1.11.02-.19.02-.39.05-.58.08-.52.18-1 .22-1.53.03-.56.03-1.06.26-1.61.19-.46.45-.74.48-1.29.01-.21-.02-.4.02-.61.03-.19.11-.34.17-.53.14-.4.02-.72.34-1.03.13-.11.28-.19.39-.4.11-.2.12-.42.16-.59.07-.33.13-.65.43-.95.19-.19.28-.16.43-.42.35-.55.34-.08.75-.57.28-.34.96-1.06 1.31-1.35.13-.14.55-.35.9-.54.37-.18.71-.29.71-.29-.01-.02.75-.24.8-.25.22-.1.45-.26.69-.29.27-.04.53-.1.79-.06.39-.03 1.72-.29 2.2-.12.29.05-.29-.37-.01-.29zM47 12.54c.98-.12 2.11-.06 3.11.01.51.04 1.02.09 1.55.11.33.01.89.05 1.22.02.23-.02.4-.05.66-.06l.39-.01c.69-.01 1.27.54 1.28 1.24v.73c0 .3-.02.64-.04.92-.03.27-.05.62-.09.86-.02.1-.04.18-.05.3 0 .08-.01.18-.01.27-.08 1.11-.19 2.24-.4 2.82-.18.37-.36.68-.55.67-.22-.01-.44-.29-.63-.75-.2-.46-.37-1.16-.46-2.18-.07-.78-.09-1.64-.1-2.49-.28 0-.57.01-.86.02-.26 0-.49-.01-.74-.01-.39.02-.79.03-1.18.04h-2.75c-.56-.01-1.19-.03-1.69.04-.38.05-.54.14-.97.17-.91.06-1.98.04-2.93.04-.47 0-.96-.01-1.41.02-.64.05-.98.08-1.65.03-.81-.06-2.34-.24-2.85-.02-1.48-.14-2.94-.04-4.48-.1-1.42-.04-2.84-.31-4.3-.18-.86.08-1.47.24-2.44.27-.77.02-1.5-.02-2.23-.07a85.07 85.07 0 0 0-.06 4.23c.02 3.8.17 7.56.04 11.35-.06 1.75-.18 3.36-.34 4.93-.09.91-.17 1.71-.11 2.72.07 1.16.2 2.24.26 3.43a69.99 69.99 0 0 1 .1 3.58c.25 0 .49-.01.73-.01.83 0 1.63.05 2.41.09.59.03 1.16.05 1.75.07.23.01.34 0 .56 0h.58c.04-.01.1-.01.15-.02h.2c.12-.01.23-.03.33-.04.41-.04.81-.08 1.23-.11.41-.05.86-.03 1.3-.05.25-.01.47-.01.73-.01h.71c.24-.01.45.01.68.02.79.02 1.64-.03 2.38.04.4.03.68.1 1.08.14.23.02.61.08.87.08.07.01.26.06.43.08.09.01.16.02.21.01.78.11 1.4.27 2.01.42.38.09.79.2.78.32 0 .08-.21.15-.32.23a.45.45 0 0 0-.19.26c-.03.07-.03.14-.24.21-.34.11-.96.19-1.48.26-.41.06-.86.12-1.34.15-.31.02-.65.02-.98.02-.48 0-.96.01-1.45.01-.93-.01-1.87-.05-2.76-.1-.7-.04-1.4-.08-2.13-.09-.74-.02-1.56-.02-2.29.01l-.66.04c-.3.03-.51.07-.78.1-1.09.12-2.38-.02-3.39-.1-.74-.06-1.45-.03-2.17.02-.48.04-.9-.33-.93-.81l-.01-.12c-.03-.5-.07-1.01-.09-1.52-.07-1.77.06-3.4.05-5.13-.01-1.41-.24-2.46-.25-3.86-.02-1.61.17-3.08.14-4.71-.03-1.69-.12-3.17-.03-4.88.09-1.77.2-3.39.23-5.21.03-2.13.02-4.29-.17-6.26-.03-.37-.07-.77-.11-1.15-.05-.57.37-1.09.95-1.14h.01l.2-.02c.22-.01.45-.03.69-.03.59-.01 1.16.03 1.72.06 1.52.1 3.02.19 4.63.2.77.01 1.53-.02 2.27-.07.53-.04 1.04-.1 1.6-.12 1.55-.05 3.09.13 4.64.14 1.24.01 2.35-.11 3.54-.15 1.18-.04 2.38-.06 3.57-.06.62 0 1.27.01 1.87-.02.48-.03.83-.09 1.25-.14zm43.87-1.04c.07.04.09.15.14.23.05.08.12.14.19.2.06.05.12.08.14.19.03.17-.03.42-.07.63-.03.17-.07.35-.14.53-.05.12-.12.23-.18.34-.09.17-.18.33-.28.49-.19.31-.41.6-.63.88-.17.22-.34.43-.5.67-.16.24-.32.52-.44.78-.04.08-.06.16-.09.24-.04.11-.04.21-.07.31-.11.43-.49.79-.76 1.09-.34.37-.43.86-.63 1.3-.29.63-.72 1.11-1.05 1.7-.26.48-.28.95-.54 1.43-.3.55-.75.95-1.05 1.52-.31.59-.52 1.13-.93 1.66-.42.55-.84 1.04-1.22 1.64-.45.7-.86 1.44-1.08 2.19-.07.23-.12.46-.24.69-.11.2-.25.38-.39.55-.38.46-.76.92-1.08 1.46-.16.26-.29.53-.38.8-.07.2-.12.4-.21.6-.26.55-.73.97-1.04 1.49-.25.41-.36.85-.56 1.27-.2.42-.41.84-.65 1.23-.12.21-.26.42-.35.64-.07.18-.09.33-.12.49-.09.39-.36.74-.62 1.04-.13.15-.27.3-.4.47-.08.1-.22.28-.26.4-.03.09-.04.16-.08.25l-.2.36c-.06.1-.14.21-.22.29-.07.08-.17.19-.24.25-.03.03-.07.04-.1.08-.02.02-.04.06-.06.09-.29.33-.6.66-.9.75-.23.04-.44.05-.61-.05-.18-.11-.32-.32-.4-.57-.08-.25-.09-.57.03-.96.11-.35.3-.69.48-1.03l.45-.91c.05-.09.11-.16.16-.24.08-.13.12-.28.2-.42.17-.31.36-.62.54-.93.11-.19.25-.39.29-.59.03-.15-.01-.25.04-.41.13-.34.35-.69.54-1.01.09-.16.2-.32.26-.49.09-.24.13-.36.3-.57.21-.25.66-.67.57-.95.41-.42.62-.96.97-1.46.32-.45.83-.8 1-1.36.1-.33.09-.61.25-.96.18-.38.46-.68.72-.98.48-.56.91-1.24 1.29-1.91.73-1.29 1.34-2.63 2.2-3.85.4-.56.82-1.04 1.27-1.49.26-.26.48-.49.63-.86.17-.43.27-.86.45-1.29.2-.49.46-.97.72-1.44.15-.27.28-.56.43-.82.16-.28.36-.52.55-.77l.4-.56c.06-.07.07-.11.11-.19l.12-.19c.01-.02.01-.04.01-.06.01-.02.03-.04.04-.07.02-.04.02-.09.03-.13.04-.16.09-.32.14-.47.04-.16.15-.31.21-.46.03-.08.08-.16.13-.24l.14-.24.15-.22c.17-.26.3-.56.5-.78.11-.12.23-.18.34-.29.06-.07.19-.16.24-.25.02-.02.1-.07.16-.11.03-.02.05-.05.05-.07.25-.21.52-.33.76-.47.15-.08.33-.17.43-.1zm-14.88 1.84c.07.04.1.13.15.2.06.07.13.13.2.18.06.04.12.08.15.17.04.14.02.34 0 .5-.01.13-.03.28-.07.41-.02.1-.07.19-.12.27-.07.13-.13.25-.21.37-.15.23-.32.45-.49.65-.14.16-.28.31-.39.49-.12.18-.24.39-.33.59-.03.06-.04.13-.06.19-.02.09-.02.16-.03.25-.06.33-.37.59-.59.8-.27.27-.31.65-.45.99-.2.48-.56.82-.8 1.27-.19.36-.16.74-.35 1.1-.22.41-.6.69-.81 1.12-.22.44-.36.86-.69 1.25-.34.4-.67.76-.96 1.2-.34.52-.65 1.08-.78 1.67l-.056.27c-.021.09-.049.18-.094.27-.08.15-.19.28-.3.4-.31.34-.61.67-.85 1.07-.12.19-.21.4-.27.61-.04.15-.07.31-.14.46-.19.42-.57.71-.81 1.1-.19.31-.25.65-.39.97-.14.32-.29.63-.47.93-.09.16-.2.31-.26.48-.05.14-.05.26-.06.39-.04.31-.26.56-.47.78-.11.11-.22.22-.32.34-.06.08-.17.2-.2.3-.02.07-.02.13-.05.2-.04.09-.1.18-.15.27-.1.148-.225.276-.37.38-.03.02-.06.03-.08.05l-.05.06c-.23.24-.49.47-.76.51-.21 0-.41-.01-.58-.11-.18-.11-.33-.29-.43-.5-.1-.21-.15-.48-.07-.78.06-.27.2-.53.33-.79.12-.23.21-.46.32-.69.03-.07.08-.12.12-.18.06-.1.09-.21.14-.32.13-.23.27-.47.41-.69.09-.14.19-.29.21-.45.01-.12-.04-.21 0-.33.08-.26.26-.52.4-.76.07-.12.15-.24.19-.37.06-.18.08-.28.22-.43.17-.18.54-.47.43-.71.34-.3.47-.72.75-1.08.25-.33.69-.56.79-.99.06-.26.01-.49.13-.75.12-.29.36-.51.56-.72.39-.4.72-.91 1-1.42.54-.97.97-2 1.64-2.89.31-.41.65-.76 1.02-1.07.21-.18.4-.35.49-.63.11-.33.16-.67.28-1 .13-.38.32-.73.52-1.1l.31-.62c.12-.21.28-.38.43-.56l.31-.41c.04-.05.05-.08.08-.14l.09-.14c.01-.01 0-.03.01-.05l.03-.05.02-.1c.02-.12.05-.25.08-.37.02-.12.1-.23.15-.35.03-.07.06-.13.1-.19.04-.06.07-.12.1-.18s.08-.1.12-.16c.13-.19.22-.43.38-.58.09-.08.19-.12.28-.2.05-.05.16-.11.2-.18.01-.02.08-.05.13-.08.02-.02.04-.03.04-.05.21-.14.45-.22.66-.3.13-.05.29-.1.39-.04z" fill="#36A635"></path><path d="M29.26 76.96c.27-.03.61-.01.98.19.34.18.63.52.9.85.08.09.16.18.25.26.17.15.3.3.45.47.13.15.27.25.41.4l.74.83c.15.17.31.37.49.48.14.08.25.07.39.18.29.23.56.57.82.85.12.146.25.283.39.41.2.17.31.25.46.48.18.27.46.85.76.86.29.54.76.91 1.13 1.41.13.17.23.35.34.54l.21-.25c.07-.09.15-.19.21-.29.05-.07.07-.14.11-.21.1-.17.26-.36.39-.45l.45-.3c.1-.07.2-.11.3-.13.08-.02.16-.03.22 0 .09.04.17.1.27.14.07.02.14.03.2.06.06.04.09.11.12.19.05.04.07.12.1.19.02.06.04.11.06.16.03.05.03.1.05.15l.03.07.01.04-.02.06c-.01.04.01.05-.03.08-.01.03-.04.1-.06.13l.01.02c-.02.03-.02.06-.03.09-.01.04-.04.08-.05.11l.01.04c0 .02-.02.07-.03.09-.03.11-.1.21-.13.32-.06.15-.1.27-.15.42-.07.23-.13.47-.25.71-.11.21-.26.39-.4.56-.17.21-.34.42-.5.61l-.18.22c-.31.4-.89.46-1.28.14a.813.813 0 0 1-.18-.19c-.2-.3-.41-.59-.66-.87-.2-.23-.42-.45-.66-.63-.18-.13-.35-.24-.52-.4-.45-.43-.73-1.02-1.14-1.49-.33-.37-.72-.63-1.07-.96-.35-.33-.69-.67-1.01-1.03-.17-.19-.33-.39-.52-.55-.15-.13-.29-.19-.44-.28-.5-.3-.79-.9-1.09-1.37a2.9 2.9 0 0 0-.51-.6c-.21-.2-.41-.42-.58-.65-.11-.15-.2-.29-.27-.44-.23-.47-.28-.91-.19-1.21.1-.31.36-.47.69-.51zm64.454-10.054l.046.004c.1.03.18.11.28.13.07.02.16-.01.22.02s.07.15.07.28c.04.04.03.18.03.29l-.01.26c.01.07-.01.16-.01.24 0 .05.01.07.01.11-.01.02 0 .03-.01.06l-.06.13c-.03.07-.01.08-.04.16-.03.06-.1.19-.13.25v.03c-.03.07-.05.12-.08.18-.04.07-.1.16-.12.22-.01.03 0 .03-.01.06-.02.04-.06.12-.08.17-.12.23-.2.41-.32.64-.14.28-.26.55-.39.83-.2.46-.39.92-.66 1.4-.24.44-.52.83-.78 1.21-.74 1.05-1.46 2.09-2.15 3.25-.33.56-.64 1.12-.9 1.67-.19.4-.36.79-.58 1.21-.62 1.15-1.43 2.16-2.1 3.28-.53.88-.9 1.75-1.37 2.63-.37.7-.76 1.41-1.17 2.11-.33.57-1.06.76-1.63.43-.1-.06-.2-.14-.28-.23l-.01-.01-.39-.43c-.34-.39-.7-.81-1.06-1.16-.29-.29-.54-.46-.81-.69-.9-.75-1.65-1.85-2.35-2.77-.35-.45-.69-.83-1.09-1.24-.42-.43-.83-.89-1.21-1.35-.23-.28-.45-.57-.63-.84-.61-.89-.92-1.61-.94-2.04-.03-.44.27-.55.74-.44.37.09.88.3 1.54.82.59.47 1.22 1.17 1.79 1.84.17.19.33.37.51.55.33.34.61.65.92 1 .28.31.55.55.83.86l1.54 1.72c.31.36.65.76.98 1.03.06.05.124.097.19.14.11-.18.22-.37.31-.56.24-.48.35-.74.68-1.2.39-.56 1.2-1.57 1.23-2.05.76-.99 1.29-2.09 2-3.18.64-.99 1.48-1.89 1.99-3.01.3-.67.43-1.18.81-1.9.42-.79.95-1.49 1.43-2.17.15-.22.31-.45.46-.66.14-.2.28-.4.41-.62l.24-.43c.21-.35.51-.77.71-.99l.57-.6.15-.16c.16-.17.3-.29.44-.38.12-.07.22-.12.29-.1zM45.4 63.1c.49-.1 1-.02 1.5 0 .52.08 1.03.15 1.48.22a15.5 15.5 0 0 0 1.14.15c.37.06.74.13 1.12.22.74.21 1.48.47 2.16.85.37.18.71.42 1.06.61.28.15.52.21.76.35.29.15.57.35.84.58.25.25.49.51.7.77.23.25.39.56.61.83.13.18.32.42.48.63.1.11.19.19.3.32.14.18.28.38.4.57a5.4 5.4 0 0 1 .26.55c.07.17.16.38.2.53.02.06.04.14.05.19l.06.17c.11.35.21.7.28 1.01.08.41.09.83.02 1.06-.11.3-.25.45-.43.39-.04-.02-.09-.04-.14-.07.02.06.04.12.06.19l-.04.03.02.13c.02.07.09.12.15.16.05.04.12.07.07.16-.08.15-.33.37-.54.57-.17.15-.35.32-.57.49-.15.11-.33.21-.5.32l-.75.47c-.5.29-1.02.57-1.53.83-.4.21-.8.41-1.19.63-.4.22-.83.48-1.19.73-.11.08-.21.16-.31.24-.14.11-.22.2-.34.31-.48.42-1.27.74-1.86 1-.73.32-1.24.81-1.87 1.24-.9.61-1.84 1.02-2.75 1.57-.65.41-1.07.86-1.69 1.28-.54.37-1.27.23-1.63-.31-.13-.19-.2-.42-.2-.64v-.38c.02-.96.23-1.83.23-2.8 0-1-.06-1.89.06-2.9.13-1.05.27-2.01.33-3.09.08-1.26.1-2.55-.05-3.72-.05-.35-.11-.7-.11-1.09 0-.35.04-.69.09-1.01.13-.9.25-1.79.29-2.75v-.18c.01-.41.31-.75.69-.83.44-.1.86-.21 1.27-.35.33-.08.65-.17 1.01-.23zm52.14-40.67c.15-.08.32-.15.42-.09.07.04.09.15.14.22.05.08.12.13.19.19.06.05.12.09.15.17.03.17-.02.41-.06.61-.03.16-.06.34-.12.51-.04.12-.11.22-.17.33-.08.16-.16.32-.26.47-.18.3-.39.58-.6.84-.36.421-.664.888-.9 1.39-.04.07-.07.15-.09.23-.03.11-.03.2-.06.3-.11.41-.47.76-.73 1.04-.33.35-.41.82-.6 1.24-.28.61-.7 1.06-1.01 1.63-.25.46-.26.91-.51 1.37-.29.53-.73.91-1.01 1.45-.29.56-.49 1.08-.89 1.59-.4.52-.8.99-1.17 1.56-.43.67-.82 1.37-1.03 2.1-.06.22-.11.44-.22.66-.1.19-.24.36-.37.52-.37.44-.73.87-1.04 1.39-.15.25-.27.51-.36.77-.07.19-.11.38-.2.57-.25.52-.7.92-1 1.42-.24.4-.34.82-.53 1.22-.18.4-.38.8-.61 1.18-.12.2-.26.4-.34.61-.06.18-.08.32-.11.48-.07.38-.34.71-.59 1-.12.15-.26.29-.38.45-.08.1-.21.26-.25.38-.03.08-.03.15-.07.24-.05.12-.13.23-.19.34-.06.1-.14.2-.21.28-.07.07-.16.17-.24.23a.36.36 0 0 0-.1.07l-.06.08c-.28.32-.59.63-.88.71-.22.03-.43.04-.6-.06-.18-.11-.32-.32-.4-.56-.09-.24-.1-.55.01-.93.1-.34.28-.67.45-.99.16-.29.28-.58.43-.87.04-.08.1-.15.15-.23.08-.13.12-.27.19-.4.17-.3.35-.6.52-.89.11-.18.24-.38.28-.57.03-.15-.02-.25.04-.4.11-.33.33-.66.51-.97.09-.15.19-.3.25-.46.09-.22.12-.35.29-.54.2-.23.64-.64.55-.91.4-.4.59-.92.93-1.39.3-.43.8-.75.96-1.29.1-.32.08-.59.23-.92.17-.36.44-.65.69-.93.47-.53.88-1.18 1.24-1.82.7-1.24 1.28-2.52 2.1-3.68.38-.53.79-.99 1.22-1.41.25-.24.46-.46.6-.82.16-.42.25-.82.42-1.24.19-.47.43-.92.68-1.38.14-.26.27-.54.41-.79.15-.27.35-.5.53-.73.13-.17.24-.37.38-.53.05-.07.06-.11.1-.18l.11-.18c0-.02 0-.04.01-.06.01-.03.03-.05.04-.07.02-.05.02-.09.03-.13.03-.15.08-.3.12-.45.04-.15.14-.29.2-.44.04-.09.08-.16.13-.24.05-.07.09-.15.13-.23.05-.08.1-.14.15-.21.16-.24.28-.53.48-.74.11-.11.22-.17.33-.28.06-.06.19-.15.23-.24.02-.02.1-.06.15-.1.03-.02.05-.04.05-.06.24-.19.5-.31.74-.43zm-48.196-2.364l.046.004c.1.03.18.11.28.13.07.02.16-.01.22.02s.07.15.07.28c.04.04.03.18.03.29l-.01.26c.01.07-.01.16-.01.24 0 .05.01.07.01.11-.01.02 0 .03-.01.06l-.06.13c-.03.07-.01.08-.04.16-.03.06-.1.19-.13.25v.03c-.04.07-.05.12-.08.18-.04.07-.1.16-.12.22-.01.03 0 .03-.01.06-.02.04-.06.12-.08.17-.12.23-.2.41-.32.64-.14.28-.26.55-.39.83-.2.46-.39.92-.66 1.4-.24.44-.52.83-.78 1.21-.74 1.05-1.46 2.09-2.15 3.25-.33.56-.64 1.12-.9 1.67-.19.4-.36.79-.58 1.21-.62 1.15-1.43 2.16-2.1 3.28-.53.88-.9 1.75-1.37 2.63-.37.7-.76 1.41-1.17 2.11-.33.57-1.06.76-1.63.43-.1-.06-.2-.14-.28-.23l-.01-.01-.39-.43c-.34-.39-.7-.81-1.06-1.16-.29-.29-.54-.46-.81-.69-.9-.75-1.65-1.85-2.35-2.77-.35-.45-.69-.83-1.09-1.24-.42-.43-.83-.89-1.21-1.35-.23-.28-.45-.57-.63-.84-.61-.89-.92-1.61-.94-2.04-.03-.44.27-.55.74-.44.37.09.88.3 1.54.82.59.47 1.22 1.17 1.79 1.84.17.19.33.37.51.55.33.34.61.65.92 1 .28.31.55.55.83.86l1.54 1.72c.31.36.65.76.98 1.03.06.05.124.097.19.14.11-.18.22-.37.31-.56.24-.48.35-.74.68-1.2.39-.56 1.2-1.57 1.23-2.05.76-.99 1.29-2.09 2-3.18.64-.99 1.48-1.89 1.99-3.01.3-.67.43-1.18.81-1.9.42-.79.95-1.49 1.43-2.17.15-.22.31-.45.46-.66.14-.2.28-.4.41-.62l.24-.43c.21-.35.51-.77.71-.99l.57-.6.15-.16c.16-.17.3-.29.44-.38.12-.07.22-.12.29-.1zM64.31 9.02c.38-.1.59.13.67.54.06.33.07.79-.14 1.43-.19.58-.57 1.22-.94 1.81-.1.17-.2.34-.3.52-.17.33-.34.62-.53.94-.17.29-.28.55-.44.84-.3.53-.61 1.06-.92 1.58-.19.32-.42.67-.53.99-.09.24-.06.38-.18.64-.25.55-.62 1.16-.94 1.7-.16.27-.33.54-.46.82-.18.39-.26.6-.53.96-.32.44-.99 1.23-.97 1.63-.62.78-1.03 1.66-1.59 2.52-.52.78-1.23 1.47-1.6 2.37-.22.53-.28.95-.58 1.53-.32.63-.75 1.18-1.14 1.71-.12.16-.25.33-.37.51-.11.16-.22.32-.32.49l-.18.35c-.16.28-.41.61-.58.78-.16.17-.32.3-.48.46-.05.04-.09.08-.13.12-.14.13-.26.22-.39.28-.1.05-.2.09-.26.06-.09-.04-.17-.11-.27-.14-.07-.02-.15-.01-.21-.04-.06-.04-.08-.14-.09-.25-.05-.04-.05-.15-.06-.25-.01-.07 0-.15-.02-.21-.01-.05-.01-.13-.01-.2-.01-.04-.02-.05-.02-.09v-.05l.04-.1c.02-.05 0-.07.02-.13.02-.04.07-.15.1-.2v-.02c.03-.05.04-.09.06-.14.03-.06.07-.13.09-.18v-.05c.01-.03.04-.1.06-.14l.24-.52.29-.67c.15-.36.28-.74.49-1.12.18-.34.41-.65.62-.95.59-.83 1.17-1.64 1.72-2.56.27-.45.5-.89.7-1.34.15-.33.27-.65.44-.98.48-.91 1.16-1.7 1.68-2.59.42-.71.69-1.41 1.05-2.11.36-.7.74-1.4 1.14-2.08.21-.35.44-.72.61-1.08.14-.29.2-.53.3-.79.32-.89 1-1.7 1.54-2.44.26-.37.46-.72.67-1.12.22-.42.46-.84.72-1.24.16-.24.33-.47.5-.67.55-.66 1.07-1.04 1.43-1.13z" fill="#085440"></path></g></svg>