<svg width="21" height="25" viewBox="0 0 21 25" fill="none" xmlns="http://www.w3.org/2000/svg">
<path d="M1.60214 5.13995C2.0357 4.68612 2.63559 4.40307 3.29695 4.40307H3.45722L3.4572 4.4031H5.45727H5.80694H5.90694V4.5031V4.86911V18.5162C5.90694 18.9494 6.0764 19.3428 6.34881 19.6279C6.62116 19.913 6.99498 20.0885 7.40457 20.0885H15.6503H16H16.1V20.1885V20.5545V22.0196C16.1 22.7075 15.8314 23.3332 15.3979 23.787C14.9643 24.2408 14.3644 24.5239 13.703 24.5239H3.29695C2.6356 24.5239 2.0357 24.2408 1.60214 23.787C1.16863 23.3332 0.9 22.7075 0.9 22.0196V6.90736C0.9 6.21947 1.16863 5.59371 1.60214 5.13995ZM1.60214 5.13995L1.67445 5.20903L1.60214 5.13995ZM15.2007 21.0206V22.0196C15.2007 22.4527 15.0312 22.8462 14.7588 23.1313C14.4864 23.4164 14.1126 23.5919 13.703 23.5919H3.29693C2.88735 23.5919 2.51352 23.4164 2.24119 23.1313C1.96878 22.8462 1.79931 22.4527 1.79931 22.0196V6.90739C1.79931 6.47427 1.96878 6.08083 2.24119 5.7957L2.24119 5.79569C2.51352 5.51062 2.88735 5.33511 3.29693 5.33511H5.00759V18.5163C5.00759 19.2042 5.27622 19.8299 5.70973 20.2837C6.1433 20.7375 6.74319 21.0206 7.40456 21.0206H15.2007Z" fill="#959596" stroke="#959596" stroke-width="0.2"/>
<path d="M18.2965 0.9H7.40432C7.40432 0.9 7.40432 0.9 7.40432 0.9C6.71496 0.900001 6.08869 1.18184 5.63527 1.63527C5.18184 2.08869 4.9 2.71496 4.9 3.40432V18.5165C4.9 19.2059 5.18184 19.8321 5.63527 20.2855C6.08869 20.739 6.71496 21.0208 7.40432 21.0208H18.2965C18.9859 21.0208 19.6122 20.739 20.0656 20.2855C20.519 19.8321 20.8009 19.2059 20.8009 18.5165V3.40432C20.8009 2.71496 20.519 2.08869 20.0656 1.63527C19.6122 1.18184 18.9859 0.9 18.2965 0.9ZM7.40432 1.832H18.2965C18.7282 1.832 19.1211 2.00877 19.4066 2.29424C19.6921 2.57972 19.8688 2.97267 19.8688 3.40432V18.5165C19.8688 18.9481 19.6921 19.3411 19.4066 19.6266C19.1212 19.912 18.7282 20.0888 18.2965 20.0888H7.40432C6.97267 20.0888 6.57971 19.912 6.29424 19.6266C6.00876 19.3411 5.832 18.9481 5.832 18.5165V3.40432C5.832 2.97267 6.00876 2.57972 6.29424 2.29424C6.57971 2.00877 6.97267 1.832 7.40432 1.832Z" fill="#959596" stroke="#959596" stroke-width="0.2"/>
</svg>
