<?xml version="1.0" encoding="utf-8"?>
<!-- Generator: Adobe Illustrator 24.3.0, SVG Export Plug-In . SVG Version: 6.00 Build 0)  -->
<svg version="1.1" id="Layer_1" xmlns="http://www.w3.org/2000/svg" xmlns:xlink="http://www.w3.org/1999/xlink" x="0px" y="0px"
	 viewBox="0 0 100 100" style="enable-background:new 0 0 100 100;" xml:space="preserve">
<style type="text/css">
	.st0{fill:#B2B1B4;}
</style>
<g>
	<path class="st0" d="M57.46,85.23H24.87c-3.43,0-6.22-2.79-6.22-6.22V39.32c0-3.43,2.79-6.22,6.22-6.22h32.59
		c3.43,0,6.22,2.79,6.22,6.22V79C63.69,82.44,60.89,85.23,57.46,85.23z M24.87,36.09c-1.78,0-3.22,1.45-3.22,3.22V79
		c0,1.78,1.45,3.22,3.22,3.22h32.59c1.78,0,3.22-1.45,3.22-3.22V39.32c0-1.78-1.45-3.22-3.22-3.22L24.87,36.09L24.87,36.09z"/>
</g>
<g>
	<path class="st0" d="M70.39,68.91H66.5v-3h3.89c3.29,0,5.96-2.67,5.96-5.94V25.73c0-3.29-2.67-5.96-5.96-5.96H43.26
		c-3.28,0-5.94,2.67-5.94,5.96v4.56h-3v-4.56c0-4.94,4.01-8.96,8.94-8.96H70.4c4.94,0,8.96,4.02,8.96,8.96v34.24
		C79.35,64.9,75.33,68.91,70.39,68.91z"/>
</g>
</svg>
