<svg width="21" height="28" viewBox="0 0 21 28" fill="none" xmlns="http://www.w3.org/2000/svg">
<path d="M11.6667 3H12.6667V2H11.6667V3ZM17.8889 10.1111H18.8889V9.11111H17.8889V10.1111ZM12.5556 3L13.3148 2.34921L11.5556 0.296743V3H12.5556ZM17.8889 9.22222V10.2222H20.0631L18.6481 8.57143L17.8889 9.22222ZM11.6667 2H2.78536V4H11.6667V2ZM12.6667 8.33502V3H10.6667V8.33502H12.6667ZM13.4497 9.11111C13.011 9.11111 12.6667 8.7644 12.6667 8.33502H10.6667C10.6667 9.88145 11.9189 11.1111 13.4497 11.1111V9.11111ZM17.8889 9.11111H13.4497V11.1111H17.8889V9.11111ZM18.8889 25.2245V10.1111H16.8889V25.2245H18.8889ZM16.1134 28C17.6452 28 18.8889 26.7614 18.8889 25.2245H16.8889C16.8889 25.6547 16.5428 26 16.1134 26V28ZM2.77549 28H16.1134V26H2.77549V28ZM0 25.2157C0 26.7477 1.2339 28 2.77549 28V26C2.34997 26 2 25.6546 2 25.2157H0ZM0 4.78429V25.2157H2V4.78429H0ZM2.78536 2C1.24773 2 0 3.24555 0 4.78429H2C2 4.35149 2.35093 4 2.78536 4V2ZM11.5556 3V8.33073H13.5556V3H11.5556ZM18.6481 8.57143L13.3148 2.34921L11.7963 3.65079L17.1296 9.87301L18.6481 8.57143ZM13.4362 10.2222H17.8889V8.22222H13.4362V10.2222ZM11.5556 8.33073C11.5556 9.36871 12.3975 10.2222 13.4362 10.2222V8.22222C13.4786 8.22222 13.5095 8.24033 13.5256 8.2565C13.5422 8.27325 13.5556 8.30016 13.5556 8.33073H11.5556Z" fill="#0040DC"/>
<path fill-rule="evenodd" clip-rule="evenodd" d="M14.9312 17.0258L2.0417 25.9061L0.0932785 12.0423L14.9312 17.0258Z" fill="#0040DC"/>
</svg>
