<svg width="21" height="24" viewBox="0 0 21 24" fill="none" xmlns="http://www.w3.org/2000/svg">
<path d="M11.6667 0H12.6667V-1H11.6667V0ZM17.8889 7.11111H18.8889V6.11111H17.8889V7.11111ZM12.5556 0L13.3148 -0.650791L11.5556 -2.70326V0H12.5556ZM17.8889 6.22222V7.22222H20.0631L18.6481 5.57143L17.8889 6.22222ZM11.6667 -1H2.78536V1H11.6667V-1ZM12.6667 5.33502V0H10.6667V5.33502H12.6667ZM13.4497 6.11111C13.011 6.11111 12.6667 5.7644 12.6667 5.33502H10.6667C10.6667 6.88145 11.9189 8.11111 13.4497 8.11111V6.11111ZM17.8889 6.11111H13.4497V8.11111H17.8889V6.11111ZM18.8889 22.2245V7.11111H16.8889V22.2245H18.8889ZM16.1134 25C17.6452 25 18.8889 23.7614 18.8889 22.2245H16.8889C16.8889 22.6547 16.5428 23 16.1134 23V25ZM2.77549 25H16.1134V23H2.77549V25ZM0 22.2157C0 23.7477 1.2339 25 2.77549 25V23C2.34997 23 2 22.6546 2 22.2157H0ZM0 1.78429V22.2157H2V1.78429H0ZM2.78536 -1C1.24773 -1 0 0.245553 0 1.78429H2C2 1.35149 2.35093 1 2.78536 1V-1ZM11.5556 0V5.33073H13.5556V0H11.5556ZM18.6481 5.57143L13.3148 -0.650791L11.7963 0.650791L17.1296 6.87301L18.6481 5.57143ZM13.4362 7.22222H17.8889V5.22222H13.4362V7.22222ZM11.5556 5.33073C11.5556 6.36871 12.3975 7.22222 13.4362 7.22222V5.22222C13.4786 5.22222 13.5095 5.24033 13.5256 5.2565C13.5422 5.27325 13.5556 5.30016 13.5556 5.33073H11.5556Z" fill="#4A4A4A"/>
<path fill-rule="evenodd" clip-rule="evenodd" d="M14.9312 14.0258L2.0417 22.9061L0.0932785 9.04234L14.9312 14.0258Z" fill="#4A4A4A"/>
</svg>
