<?xml version="1.0" encoding="utf-8"?>
<!-- Generator: Adobe Illustrator 24.2.0, SVG Export Plug-In . SVG Version: 6.00 Build 0)  -->
<svg version="1.1" id="Layer_1" xmlns="http://www.w3.org/2000/svg" xmlns:xlink="http://www.w3.org/1999/xlink" x="0px" y="0px"
	 viewBox="0 0 21 24" style="enable-background:new 0 0 21 24;" xml:space="preserve">
<style type="text/css">
	.st0{fill:#FFFFFF;}
	.st1{fill-rule:evenodd;clip-rule:evenodd;fill:#FFFFFF;}
</style>
<path class="st0" d="M11.7,0h1v-1h-1V0z M17.9,7.1h1v-1h-1V7.1z M12.6,0l0.8-0.7l-1.8-2.1V0H12.6z M17.9,6.2v1h2.2l-1.4-1.7
	L17.9,6.2z M11.7-1H2.8v2h8.9V-1z M12.7,5.3V0h-2v5.3H12.7z M13.4,6.1c-0.4,0-0.8-0.3-0.8-0.8h-2c0,1.5,1.3,2.8,2.8,2.8V6.1z
	 M17.9,6.1h-4.4v2h4.4V6.1z M18.9,22.2V7.1h-2v15.1H18.9z M16.1,25c1.5,0,2.8-1.2,2.8-2.8h-2c0,0.4-0.3,0.8-0.8,0.8V25z M2.8,25
	h13.3v-2H2.8V25z M0,22.2C0,23.7,1.2,25,2.8,25v-2C2.3,23,2,22.7,2,22.2H0z M0,1.8v20.4h2V1.8H0z M2.8-1C1.2-1,0,0.2,0,1.8h2
	C2,1.4,2.4,1,2.8,1V-1z M11.6,0v5.3h2V0H11.6z M18.6,5.6l-5.3-6.2l-1.5,1.3l5.3,6.2L18.6,5.6z M13.4,7.2h4.5v-2h-4.5V7.2z M11.6,5.3
	c0,1,0.8,1.9,1.9,1.9v-2c0,0,0.1,0,0.1,0c0,0,0,0,0,0.1H11.6z"/>
<path class="st1" d="M14.9,14L2,22.9L0.1,9L14.9,14z"/>
</svg>
