<svg width="252" height="227" viewBox="0 0 252 227" fill="none" xmlns="http://www.w3.org/2000/svg">
<path d="M1.40865 51.8417C0.916233 51.9802 0.498851 52.3083 0.248072 52.7541C-0.00270705 53.2 -0.0664096 53.7271 0.0709413 54.2198L32.3258 169.412C32.4643 169.905 32.7924 170.322 33.2383 170.573C33.6841 170.823 34.2112 170.887 34.7039 170.75L153.611 137.455C154.104 137.316 154.521 136.988 154.772 136.542C155.023 136.096 155.087 135.569 154.949 135.077L122.694 19.8842C122.556 19.3918 122.228 18.9744 121.782 18.7237C121.336 18.4729 120.809 18.4092 120.316 18.5465L1.40865 51.8417Z" fill="#E6E6E6"/>
<path d="M36.1981 165.31L149.51 133.582L118.822 23.9858L5.51025 55.714L36.1981 165.31Z" fill="white"/>
<path d="M20.4915 70.3484C19.7355 70.5601 19.4238 71.8159 19.7967 73.1477C20.1696 74.4794 21.0882 75.3907 21.8441 75.1791L73.5238 60.7083C74.2798 60.4966 74.5915 59.2408 74.2186 57.9091C73.8457 56.5773 72.9272 55.666 72.1712 55.8777L20.4915 70.3484Z" fill="#E6E6E6"/>
<path d="M24.6536 85.2117C23.8976 85.4234 23.586 86.6792 23.9589 88.011C24.3318 89.3427 25.2502 90.254 26.0062 90.0424L77.6859 75.5716C78.4419 75.3599 78.7536 74.1041 78.3807 72.7724C78.0078 71.4406 77.0893 70.5293 76.3333 70.741L24.6536 85.2117Z" fill="#E6E6E6"/>
<path d="M28.7674 99.9041C28.0114 100.116 27.6997 101.372 28.0726 102.703C28.4455 104.035 29.364 104.946 30.12 104.735L81.7997 90.264C82.5557 90.0523 82.8674 88.7965 82.4945 87.4648C82.1216 86.133 81.2031 85.2217 80.4471 85.4334L28.7674 99.9041Z" fill="#E6E6E6"/>
<path d="M32.929 114.767C32.173 114.979 31.8613 116.235 32.2342 117.567C32.6072 118.898 33.5257 119.81 34.2816 119.598L85.9613 105.127C86.7173 104.916 87.029 103.66 86.6561 102.328C86.2832 100.996 85.3647 100.085 84.6087 100.297L32.929 114.767Z" fill="#E6E6E6"/>
<path d="M98.3982 48.7049C98.0806 48.7934 97.7837 48.9436 97.5242 49.147C97.2648 49.3503 97.0481 49.6028 96.8863 49.8901C96.7245 50.1773 96.621 50.4935 96.5815 50.8208C96.5421 51.148 96.5675 51.4799 96.6564 51.7973C96.7452 52.1147 96.8958 52.4115 97.0995 52.6707C97.3032 52.9298 97.5559 53.1463 97.8433 53.3078C98.1307 53.4692 98.4471 53.5724 98.7744 53.6115C99.1017 53.6506 99.4335 53.6247 99.7508 53.5355L109.412 50.8303C110.053 50.6509 110.596 50.2244 110.922 49.6446C111.248 49.0648 111.33 48.3792 111.151 47.7387C110.972 47.0981 110.545 46.555 109.965 46.2289C109.386 45.9027 108.7 45.8203 108.059 45.9996L98.3982 48.7049Z" fill="#E6E6E6"/>
<path d="M102.48 63.2806C102.162 63.3691 101.865 63.5193 101.606 63.7227C101.346 63.926 101.13 64.1785 100.968 64.4657C100.806 64.7529 100.702 65.0692 100.663 65.3965C100.624 65.7237 100.649 66.0555 100.738 66.373C100.827 66.6904 100.977 66.9872 101.181 67.2463C101.385 67.5055 101.637 67.722 101.925 67.8835C102.212 68.0449 102.529 68.1481 102.856 68.1872C103.183 68.2262 103.515 68.2004 103.832 68.1112L113.494 65.406C114.134 65.2266 114.677 64.8001 115.003 64.2203C115.329 63.6405 115.412 62.9549 115.233 62.3143C115.053 61.6737 114.627 61.1307 114.047 60.8045C113.467 60.4784 112.782 60.396 112.141 60.5753L102.48 63.2806Z" fill="#E6E6E6"/>
<path d="M106.56 77.8563C106.243 77.9451 105.947 78.0955 105.688 78.2989C105.429 78.5023 105.212 78.7548 105.051 79.0419C104.889 79.329 104.786 79.6451 104.746 79.9721C104.707 80.2991 104.733 80.6307 104.821 80.9479C104.91 81.265 105.061 81.5616 105.264 81.8207C105.468 82.0797 105.72 82.2962 106.007 82.4577C106.294 82.6191 106.61 82.7225 106.937 82.7618C107.264 82.8012 107.596 82.7757 107.913 82.6869L117.574 79.9816C118.215 79.8023 118.758 79.3758 119.084 78.796C119.41 78.2162 119.493 77.5306 119.313 76.89C119.134 76.2494 118.707 75.7063 118.128 75.3802C117.548 75.0541 116.862 74.9716 116.222 75.151L106.56 77.8563Z" fill="#E6E6E6"/>
<path d="M110.642 92.4312C110.002 92.6111 109.459 93.0377 109.134 93.6173C108.808 94.1968 108.726 94.8819 108.905 95.522C109.085 96.1621 109.511 96.7049 110.09 97.0311C110.669 97.3573 111.354 97.4403 111.994 97.2618L121.655 94.5565C122.295 94.3766 122.838 93.95 123.163 93.3704C123.489 92.7909 123.571 92.1058 123.392 91.4657C123.212 90.8256 122.786 90.2828 122.207 89.9566C121.628 89.6304 120.943 89.5474 120.303 89.7259L110.642 92.4312Z" fill="#E6E6E6"/>
<path d="M114.541 117.695C114.136 117.808 113.758 118 113.427 118.259C113.097 118.518 112.821 118.84 112.614 119.205C112.408 119.571 112.276 119.974 112.226 120.391C112.176 120.808 112.208 121.231 112.322 121.636C112.435 122.04 112.627 122.418 112.886 122.749C113.146 123.079 113.468 123.355 113.834 123.56C114.2 123.766 114.603 123.898 115.02 123.947C115.437 123.997 115.86 123.964 116.264 123.851L128.575 120.404C129.391 120.175 130.083 119.632 130.499 118.893C130.914 118.154 131.019 117.28 130.791 116.464C130.562 115.648 130.019 114.956 129.28 114.54C128.541 114.125 127.668 114.02 126.851 114.248L114.541 117.695Z" fill="#4776E6"/>
<path d="M127.211 105.264L36.1147 130.772L36.3415 131.582L127.437 106.074L127.211 105.264Z" fill="#E6E6E6"/>
<path d="M218.715 214.132L211.409 215.898L201.119 188.558L211.902 185.952L218.715 214.132Z" fill="#A0616A"/>
<path d="M198.804 226.343L198.754 226.138C198.175 223.731 198.575 221.193 199.865 219.08C201.155 216.968 203.231 215.453 205.636 214.868L219.931 211.413L222.174 220.693L198.804 226.343Z" fill="#2F2E41"/>
<path d="M186.372 219.109L178.856 219.109L175.28 190.117L186.373 190.117L186.372 219.109Z" fill="#A0616A"/>
<path d="M188.193 226.299L164.149 226.298V226.088C164.149 223.612 165.133 221.237 166.884 219.486C168.635 217.735 171.01 216.751 173.487 216.751H173.487L188.193 216.752L188.193 226.299Z" fill="#2F2E41"/>
<path d="M175.274 207.791L167.976 120.813L198.187 115.245L198.307 115.223L207.149 120.908L204.072 152.917L218.242 202.823L206.007 206.043L191.813 159.759L188.565 145.684L186.9 163.973L188.136 209.077L175.274 207.791Z" fill="#2F2E41"/>
<path d="M167.04 122.786L166.96 122.685L177.4 44.0799L177.413 43.9769L177.487 43.9032C177.641 43.7493 181.299 40.1348 185.061 40.1348C185.605 40.1348 186.122 40.121 186.618 40.1085C189.497 40.0336 191.771 39.9738 194.474 42.677C197.228 45.4306 206.213 55.4857 206.213 69.2571C206.213 82.5866 207.427 124.01 207.439 124.427L207.456 125.012L206.965 124.693C206.844 124.615 194.76 116.92 184.624 124.073C181.457 126.309 178.612 127.093 176.179 127.093C170.516 127.093 167.088 122.848 167.04 122.786Z" fill="#4776E6"/>
<path d="M190.686 33.649C197.983 29.6599 200.665 20.5104 196.676 13.213C192.687 5.91568 183.537 3.2338 176.24 7.2229C168.943 11.212 166.261 20.3615 170.25 27.6588C174.239 34.9562 183.388 37.6381 190.686 33.649Z" fill="#A0616A"/>
<path d="M160.412 139.679C161.124 139.126 161.707 138.425 162.119 137.623C162.531 136.822 162.762 135.939 162.796 135.039C162.83 134.138 162.666 133.241 162.316 132.41C161.966 131.58 161.438 130.836 160.769 130.232L169.321 110.061L158.124 112.121L151.72 130.96C150.779 132.151 150.307 133.645 150.395 135.16C150.482 136.675 151.122 138.105 152.193 139.18C153.265 140.255 154.693 140.899 156.208 140.991C157.722 141.083 159.218 140.616 160.412 139.679H160.412Z" fill="#A0616A"/>
<path d="M152.149 123.988L154.903 118.175C154.733 118.072 154.593 117.927 154.496 117.753C151.924 113.294 167.464 76.2671 168.5 73.8111C168.342 72.4754 166.711 58.3202 167.903 53.5489C169.308 47.9322 172.191 45.3145 177.544 44.796C183.448 44.2416 185.04 52.2586 185.056 52.34L185.061 72.9502L178.286 96.6749L162.834 128.197L152.149 123.988Z" fill="#4776E6"/>
<path d="M185.388 26.1093C183.583 26.3442 182.222 24.4973 181.59 22.79C180.959 21.0827 180.477 19.0951 178.908 18.1729C176.764 16.9129 174.02 18.4283 171.568 18.0126C168.799 17.5432 166.999 14.6085 166.858 11.8035C166.717 8.99848 167.833 6.30068 168.928 3.7145L169.311 6.92854C169.259 5.83922 169.489 4.755 169.976 3.77958C170.464 2.80417 171.194 1.97019 172.096 1.35742L171.603 6.07354C171.912 3.43145 174.758 1.38419 177.362 1.93171L177.284 4.74174C180.482 4.36144 183.708 3.98061 186.916 4.27034C190.124 4.56007 193.354 5.57498 195.785 7.68749C199.422 10.8475 200.75 16.0508 200.304 20.8479C199.858 25.645 197.878 30.1515 195.814 34.5048C195.295 35.6001 194.577 36.8361 193.372 36.9756C192.291 37.101 191.301 36.1966 190.964 35.1607C190.628 34.1248 190.792 32.9994 190.993 31.9291C191.298 30.3121 191.681 28.6594 191.395 27.0392C191.109 25.4189 189.944 23.8178 188.31 23.6193C186.677 23.4207 185.006 25.2876 185.791 26.7334L185.388 26.1093Z" fill="#2F2E41"/>
<path d="M251.31 226.333H142.946V225.448H251.471L251.31 226.333Z" fill="#3F3D56"/>
</svg>
