<svg xmlns="http://www.w3.org/2000/svg" viewBox="0 0 97.68 70.31" id="credit-card-success"><path class="st3" d="M89.05 44.07c.01-.03 0-.05-.01-.06.04-.26.14-.51.18-.75.03-.15.07-.33.18-.38.07-.04.17 0 .26.01.09 0 .18-.02.27-.04.07-.02.14-.05.23 0 .16.08.33.29.45.48.11.15.22.32.29.52.05.13.08.28.1.41.03.21.07.42.07.63.01.41-.05.81-.15 1.18-.09.29-.18.57-.29.86-.09.3-.23.62-.32.91l-.09.27c-.04.12-.04.23-.08.34-.15.47-.6.85-.96 1.09-.43.31-.73.74-1.16 1.08-.62.46-1.34.59-2.06.76-.58.14-1.03.39-1.66.37-.73-.02-1.32-.36-1.99-.58-.69-.25-1.32-.51-1.84-1.07-.53-.58-.88-1.19-1.23-1.88-.41-.8-.68-1.66-.93-2.49-.08-.25-.15-.51-.16-.8.01-.26.05-.51.14-.74.2-.65.49-1.23.81-1.83.15-.3.31-.57.44-.87.11-.2.19-.42.35-.61.42-.55 1.09-.82 1.66-1.14.45-.26.86-.55 1.35-.74.49-.18 1.01-.3 1.54-.31.26 0 .47.01.83.01.22-.01.38-.05.58-.06.46-.05.96.16 1.35.4.2.11.38.27.59.39.13.07.32.24.45.3.1.04.18.05.28.11.13.08.25.19.38.29.11.08.2.21.28.31.07.1.17.23.21.33.02.04.03.08.05.13.03.04.04.06.07.1.26.41.44.89.37 1.2-.08.22-.18.41-.36.49-.19.09-.44.11-.68.07-.23-.04-.51-.12-.76-.3-.23-.16-.44-.36-.67-.53-.2-.16-.43-.26-.65-.37-.07-.03-.12-.07-.18-.11-.1-.05-.21-.07-.32-.11-.24-.09-.5-.17-.75-.23-.16-.03-.33-.09-.48-.03-.11.04-.16.12-.28.15-.25.06-.53.06-.78.1-.12.03-.25.03-.36.1-.15.1-.23.13-.4.17-.21.02-.68.07-.68.34-.42.09-.65.45-.96.72-.28.25-.72.49-.77.93-.03.26.08.46.04.72-.02.29-.15.54-.22.82-.15.51-.07 1.12.15 1.64.44 1.02 1.3 1.7 2.21 2.24.43.26.85.48 1.32.68.27.12.53.2.84.1.36-.1.65-.31.96-.48.35-.21.7-.39 1.02-.65.19-.13.34-.31.5-.47.17-.17.35-.31.52-.47.12-.12.22-.27.33-.4.04-.05.05-.09.07-.15.02-.05.06-.1.08-.15v-.05l.02-.06c.01-.04 0-.07 0-.11 0-.13.02-.25.01-.37-.01-.13.05-.24.05-.37 0-.07.01-.13.03-.2.01-.06.03-.13.03-.2s.03-.12.04-.19c.03-.22-.01-.46.03-.67.02-.12.09-.21.11-.33.01-.07.05-.19.03-.27.04-.01.07-.07.08-.13z"></path><path class="st3" d="M97.66 46.32c-.06-1.22-.04-2.28-.01-3.52.03-1.41.02-2.66-.03-4.05-.04-1.1-.03-1.97 0-3.08.12-3.89-.14-7.95-.22-11.75-.1-4.2-.13-8.84-.02-13.04l.09-2.22.05-1.09c.01-.4.01-.87-.06-1.31-.2-1.56-1.02-3.09-2.18-4.18C94.2 1.02 92.81.29 91.16.12c-.9-.06-1.45.01-2.11.04-.64.03-1.28.07-1.95.08-1.29.02-2.53-.03-3.83 0-1.14.02-2.3.11-3.44.08C78.78.3 78 .2 76.87.22c-1.31.01-2.52.1-3.85.1-1.3-.01-2.6-.03-3.89-.04-1.05 0-2.1.01-3.15-.04C63.67.16 61.36.03 59.03 0c-2.83 0-5.53.2-8.22.32-2.94.1-5.57.37-8.56.27-1.12-.02-2.24-.06-3.42-.04l-3.39.09c-1.98.07-3.96.01-5.89.07-1.65.07-3.27.13-4.91.2-1.45.04-2.59-.05-3.89-.16-.57-.05-1.14-.09-1.7-.13-.53-.05-1.26-.08-1.93.01-1.36.2-2.72.83-3.79 1.88-1.17 1.13-1.9 2.71-2.05 4.33l-.03.61v1.52l.01 2.03c.03 2.7.05 5.41.08 8.13.01 2.81-.01 5.76-.15 8.43-.07 1.41-.16 2.91-.12 4.43.03 1.38.19 2.25.27 3.48.13 2.09-.13 4.12-.18 6.14-.04 1.54-.01 3.02-.03 4.48-.25-.04-.5-.08-.75-.11s-.49-.04-.73-.06l-.21-.02c-.35.07-.69.14-1.03.24-.52.14-.95.15-1.45.2-.86.09-1.74.36-2.59.85-1.85 1.09-3.11 2.98-3.72 4.99-.33 1.05-.5 2.19-.59 3.25-.06.56-.07 1.17.1 1.76.15.54.41.82.65 1.25.41.7.54 1.53.98 2.21.46.77 1.12 1.28 1.66 1.94.36.01.95.67 1.34.94.31.25.51.29.86.41.25.09.5.2.76.28.51.19 1.11.35 1.63.38.25.01.35-.07.57-.09.29-.03.63-.01.95.01.51-.01 1.03-.02 1.53-.12.22-.03.42-.1.64-.16.14-.03.27-.05.41-.08.46-.16.9-.33 1.33-.56.49-.23.97-.53 1.34-.86.36-.36.55-.69.61-.98.05.01.08.04.14.02.09-.02.18-.06.27-.08.1-.06.14-.01.21-.02.03 0 .06-.02.1-.04.03-.02.07-.04.1-.05.06-.06.17-.1.23-.14.08-.05.18-.1.27-.18.03-.03.05-.06.08-.09.04-.04.1-.07.14-.11.39-.29.8-.63 1.17-.98.09-.08.18-.16.27-.23.05-.03.12-.07.17-.11.04-.03.08-.06.12-.1.04-.04.1-.08.14-.12.05-.05.08-.1.12-.16.08-.11.19-.22.3-.29.07-.04.17-.09.24-.13.11-.07.22-.18.32-.29.15-.17.23-.35.31-.52.08-.16.16-.37.32-.52.17-.17.34-.19.5-.26.4-.17.4-.52.69-.83.13-.14.27-.25.37-.41.12-.18.18-.36.29-.54.29-.48.66-.61 1.08-.91.49-.36.77-.78 1.14-1.23.35-.43.74-.76 1.14-1.14.15-.14.28-.29.43-.44.28-.28.58-.54.87-.79.43-.37.84-.78 1.28-1.12.19-.15.38-.26.55-.44.16-.17.37-.34.5-.51.24-.32.5-.55.81-.81.35-.3.63-.6.91-.95.23-.28.43-.47.71-.7.98-.81 1.74-1.92 2.55-2.86.45-.52.94-1.05 1.44-1.56.26-.27.51-.48.76-.69.25-.21.5-.42.78-.58.39-.24.77-.43 1.19-.58.35-.15.7-.35 1.07-.44.35-.1.69-.18 1.05-.31.36-.14.66-.36 1.04-.45.36-.09.72-.13 1.1-.18.33-.05.65-.19.99-.15.31.02.54.08.87.06.38 0 .74-.08 1.13-.07.32.04.64.1.96.16-.12.04-.24.09-.36.13-.13.05-.3.18-.41.31-.04.05-.07.11-.12.16-.07.08-.15.15-.22.21-.08.06-.17.14-.26.21-.28.21-.58.43-.79.73-.19.28-.21.54-.35.82-.21.46-.78.69-1.17 1.12-.41.47-.65 1.01-1.04 1.49.09.28-.31.76-.47 1.07-.15.24-.14.4-.18.66-.03.19-.09.38-.12.57-.09.38-.16.82-.12 1.21.01.18.11.25.16.41.07.21.04.46.06.69.02.37.07.75.16 1.12.04.2.14.36.19.55.06.23.13.42.25.62.06.11.11.22.15.34.18.4.41.81.74 1.02.33.24.66.24.9.21-.11.16-.22.31-.33.47-.54.74-1.14 1.49-1.77 2.1-.33.32-.7.66-.97 1.08-.24.38-.29.7-.47 1.07-.3.62-.92.99-1.35 1.49-.48.54-.81 1.14-1.34 1.6.03.32-.54.78-.81 1.05-.23.22-.3.37-.44.63-.1.19-.25.36-.38.54-.27.35-.58.74-.79 1.12-.1.18-.07.29-.13.46-.08.2-.26.44-.42.61-.08.09-.15.2-.22.3-.09.12-.18.24-.28.37-.17.22-.36.41-.54.61a7.8 7.8 0 0 0-1.1 1.45c-.37.64-.65 1.33-.77 1.88-.05.21-.06.41-.02.55.04.13.14.19.26.22.1.03.2.05.31.07.19.03.4.04.59.06.07.01.12.05.21.02.06-.02.13-.06.19-.09.02-.01.17-.07.19-.09.05-.07.14-.11.19-.15.05-.04.11-.08.16-.13.06-.05.13-.12.18-.17.05-.05.08-.1.12-.15.06-.07.12-.12.18-.19s.12-.15.18-.22c.08-.1.15-.2.22-.31.05-.08.1-.18.17-.26 0-.01 0-.03.02-.05-.01-.01.03-.09.05-.12.12-.24.28-.43.47-.62.45-.46 1.05-.93 1.3-1.55.08-.19.12-.35.24-.55.14-.25.34-.48.51-.71.34-.44.65-.9.95-1.36.3-.47.52-.95.87-1.41.44-.57 1.02-1.03 1.42-1.64.14-.22.24-.44.36-.66.16-.31.36-.6.58-.89.46-.59.95-1.1 1.46-1.6.18-.18.37-.37.53-.6.18-.25.28-.52.4-.77.4-.84.99-1.66 1.62-2.43.54-.66 1.08-1.2 1.64-1.8.55-.58.89-1.19 1.35-1.84.44-.62.99-1.06 1.43-1.67.38-.53.5-1.06.88-1.58.48-.66 1.04-1.18 1.48-1.88.31-.49.51-1.03.95-1.43.49-.46.92-.82 1.14-1.47.02-.07.04-.14.07-.22l.18-.59a.448.448 0 0 0-.26-.55c-.22-.09-.44-.17-.68-.31-.41-.26-.8-.63-1.18-.96-.46-.46-.97-.81-1.49-1.21-.55-.32-1.11-.69-1.78-.88-.76-.28-1.57-.38-2.34-.61-.37-.09-.72-.24-1.09-.35-.37-.09-.75-.18-1.16-.2-.72.03-1.21.31-1.9.37-.33.02-.62-.01-.91-.02-.29.01-.58.06-.9.22-.54.25-.76.52-1.45.63-.21.03-.39.08-.6.18-.25.12-.47.27-.72.4-.69.4-1.45.68-2.1 1.13-.59.34-1.1.83-1.61 1.29-.53.53-1.02 1.04-1.57 1.54-.83.77-1.28 1.54-1.86 2.38-.68.97-1.48 1.83-2.47 2.42-.22.13-.46.25-.67.45-.21.2-.37.46-.53.68-.37.53-.76 1.06-1.24 1.56-.45.47-.95.89-1.42 1.32-.42.4-.83.78-1.24 1.17-.08.08-.17.16-.25.23-1.03-.76-2.39-1.74-2.58-1.9-.02 0-.06-.02-.09-.05-.06-.06-.13-.14-.16-.16-.12-.05-.26-.18-.36-.25-.16-.12-.26-.24-.43-.35-.3-.21-.7-.34-1.05-.52-.1-.05-.19-.11-.29-.16l-.32-.14c-.11-.05-.21-.1-.33-.14-.2-.07-.4-.18-.6-.22-.2-.05-.39-.09-.6-.14-.05-.01-.11-.01-.16-.03a.631.631 0 0 1-.09-.04c-.02 0-.06-.01-.07-.01-.09-.03-.17-.09-.26-.12-.1-.04-.15-.05-.25-.11-.24-.15-.51-.27-.75-.41-.33-.2-.67-.4-1.04-.57l-.15-.06-.05-.02c.05-1.29.1-2.58.07-3.88-.02-.81-.08-1.53-.12-2.29-.06-1.05-.08-2.13-.07-3.25.01-2.3.1-4.45.2-6.62.04-.79.07-1.6.06-2.44-.01-.95-.09-1.78-.14-2.63-.07-1.07-.11-2.19-.14-3.32.25-.02.51-.03.76-.05 2.04-.11 3.88-.23 5.99-.13.79.04 1.58.09 2.41.09.79-.01 1.59-.03 2.38-.04 1.39-.02 2.77-.04 4.11-.11 1.18-.06 2.23-.19 3.39-.26 1-.06 1.81.01 2.74.1 1.61.15 3.25.27 5.01.32 3.84.12 7.57-.04 11.37-.08 1.97-.02 4.04 0 5.97.11 1.02.06 2.11.14 3.16.1.96-.04 1.5-.18 2.32-.25 1.4-.12 2.95.1 4.39.14 1.58.04 2.99-.05 4.55.06.4-.19 2.02-.05 2.86-.01.7.03 1.03 0 1.64-.04.44-.03.93-.02 1.4-.03.95-.01 2.04 0 2.92-.06.41-.03.51-.1.86-.14.4-.05 1.05-.05 1.57-.04.27.01.53 0 .8-.01l.99-.01c.59.01 1.18.03 1.78.04 1.36.04 2.64.05 3.92-.02 1.52-.08 2.92-.23 3.85-.4.2-.04.38-.08.51-.12 0 .5 0 1-.01 1.51-.04 3.46.19 6.13.37 9.23.21 3.58.25 7.19-.03 10.63-.06.75-.15 1.53-.15 2.42-.01.9.06 1.81.11 2.62l.15 2.98c.06.91-.13 1.78-.55 2.61-.83 1.54-2.47 2.56-4.16 2.66-.35.02-.8.01-1.24.01l-1.31-.01-2.62-.02c-1.75-.02-3.4-.04-4.76-.21-1.31-.17-2.42-.26-4.21-.3-1.88-.04-4.04-.12-5.94-.08-1.57.04-2.61.26-4.18.27-.75 0-1.45-.04-2.18-.05h-.72c-.38-.01-.75-.02-1.13-.02-1.68-.05-3.42-.07-5.14-.07-.98 0-1.95.02-2.92.05-1.92.06-3.98.15-5.64.3-.37.03-.67.07-.91.11a3.9 3.9 0 0 0-.96.28c-.36.16-.71.33-.91.5-.21.18-.05.37.09.55.1 0 .3.08.34.1.13.05.1.1.29.14.26.05.51.09.78.14.35.02.32.09.49.13.08.02.18.03.3.05.11.01.24.02.31.04.27 0 .58.05.8.07.29.02.62.06.97.06h.37c.18-.01.38 0 .55 0 1.47.07 3.1.11 4.66.13.37 0 .74.01 1.09.03.21.02.4.03.61.04.16.01.3.01.47.02.17.01.4.01.56.02.21-.01.41-.02.61-.02.42-.02.89-.02 1.29.01.27.03.54.05.81.07.4.03.86.03 1.31.02.69-.02 1.26-.09 1.8-.14.52-.06 1.14-.15 1.84-.14.74 0 1.15.1 1.64.17 1.25.16 2.01-.08 3.31-.1.6-.01 1.12.01 1.69-.03.65-.04 1.17-.12 1.8-.18 1.67-.14 2.76.04 4.32.12 1.85.09 3.37-.01 5.16-.07 1.7-.06 3.26-.02 4.96 0 .62 0 1.22.02 2.01-.07 1.43-.18 2.81-.77 3.88-1.7.78-.67 1.43-1.53 1.86-2.49.44-.94.64-2.05.66-3.01.03-.75.08-1.39.07-2.16-.01-.71.02-1.53-.02-2.2zm-50.62-4.63c.14-.19.22-.39.31-.58.07-.13.12-.22.18-.35.04-.09.12-.17.16-.26.01-.02.03-.05.03-.07 0-.01-.01-.02-.01-.04.01-.03.04-.06.06-.09.01-.03.02-.05.04-.07v-.02c.02-.02.06-.08.07-.1.02-.03 0-.05.01-.08.01-.02.02-.03.03-.05 0-.01 0-.02-.01-.04 0-.03-.02-.04-.02-.07-.01-.05-.01-.1-.03-.14-.02-.05-.02-.1-.04-.15-.02-.07-.03-.14-.07-.19-.02-.08-.04-.15-.1-.2-.03-.03-.07-.04-.11-.06.05.01.1.02.15.04.64.23 1.26.49 1.85.81.72.37 1.47.63 2.16 1.04.19.1.37.22.54.35-.03.03-.05.06-.08.09-.25.27-.52.53-.75.84-.2.29-.43.61-.64.91-.38.53-.75 1.05-1.07 1.6-.28.48-.48.95-.75 1.43-.23.41-.52.66-.85.95-.57.49-1.12 1.01-1.66 1.63-.74.85-1.39 1.76-2.04 2.68-.01-.15-.02-.29-.05-.45-.02-.11-.08-.22-.11-.34-.07-.19-.18-.35-.26-.53-.1-.16-.16-.32-.17-.52-.04-.39.1-.83-.11-1.2a1.22 1.22 0 0 1-.14-.35c-.04-.17-.01-.36.02-.54.03-.34.07-.7.13-1.04.05-.35.06-.71.22-1.06.21-.43.59-.75.83-1.16.09-.15.12-.31.2-.46.11-.21.23-.39.42-.61.37-.43.78-.76 1.2-1.11.18-.15.33-.28.46-.44zm47.17-30.81c-.18-.02-.38-.05-.56-.07-.27-.03-.6-.03-.9-.02-.48.02-.88.09-1.25.14-.36.06-.79.15-1.27.14-.51 0-.8-.1-1.14-.17-.87-.16-1.39.08-2.29.1-.41.01-.77-.01-1.17.03-.45.04-.81.12-1.25.18-1.16.14-1.91-.04-2.99-.12-1.28-.09-2.34.01-3.58.07-1.18.06-2.26.02-3.44 0-.43 0-.86.01-1.3.01-.84 0-1.68-.03-2.51-.06-1.2-.04-2.44-.04-3.62-.11-.52-.03-.97-.08-1.5-.07-.49.01-1.06-.02-1.52.01-.84.06-1.58.04-2.44.01-.98-.03-1.85-.02-2.81.03-.76.04-1.37.03-2.13 0-2.7-.12-5.51.14-8.14.22-2.91.1-6.13.13-9.04.02-1.05-.04-2.03-.13-3.06-.19l-2.73-.12c-.86-.05-1.68-.14-2.6-.12-.92.01-1.76.11-2.7.12-.89 0-1.75-.06-2.65-.05-.79.01-1.6.08-2.38.04-.73-.04-1.27-.11-2.06-.1-.91.02-1.76.11-2.68.13-.9.02-1.81-.02-2.71-.02-.73 0-1.46.02-2.19.01h-.07c.02-.61.05-1.23.07-1.86.02-.61.03-1.18.05-1.75 0-.47.11-.92.23-1.36.28-.87.79-1.69 1.57-2.31.75-.6 1.65-.89 2.54-.93.4 0 .99.03 1.55.05.56.02 1.12.04 1.7.04 2.01.01 3.52-.19 5.51-.18 2.49.01 4.82.18 7.34.14 1.78-.07 3.48-.26 5.29-.18 2.05.09 3.73.19 5.74-.05.92-.1 1.66-.28 2.7-.39 1.4-.11 2.99-.07 4.44-.03 3.75.13 7.32.25 11.16.38 2.31.06 4.62.03 6.91.11 2.2.1 4.16.36 6.48.39 2 .03 3.44-.29 5.4-.27 1.86.02 3.16.27 5.13.09.81-.08 1.48-.14 2.1-.2.32-.02.69-.05 1.03-.04.31.01.66.04 1.04.16.46.13.85.33 1.3.58.55.31 1.04.68 1.44 1.19.59.72.9 1.63.94 2.54.02.4-.02 1.04-.03 1.58-.02.56-.03 1.12-.05 1.67 0 .2-.01.4-.01.59-.3.03-.62.03-.89 0zm.78 10.05h.05v.02c-.02-.01-.04-.01-.05-.02z"></path><path class="st4" d="M62.41 38.32c-.01-1.33-.03-2.65-.11-3.94-.05-.93-.14-1.78-.22-2.67l-.01-.12a.706.706 0 0 0-.76-.65l-.61.04c-.97.06-1.73-.02-2.6-.11-1.5-.16-3.04-.28-4.71-.34-3.62-.13-7.21.02-10.84.04-1.88.01-3.85-.01-5.63-.15-.92-.07-1.92-.16-2.94-.12-.93.03-1.51.19-2.33.27-1.39.13-2.75-.14-4.1-.18-1.47-.06-2.87.04-4.28-.1-.31.14-1.02.12-1.7.07-.69-.05-1.29.47-1.34 1.15l-.02.21c-.03.37-.06.75-.08 1.02-.05.64-.02.97.03 1.57.03.43.02.9.02 1.35 0 .91-.02 1.92.04 2.8.03.41.12.56.17.93.07.48.05 1.08.04 1.62 0 .49 0 .98-.01 1.48v.01c0 .63.52 1.14 1.15 1.14h1.15c.37-.01.75-.02 1.13-.04.24 0 .46.01.71.01.82-.02 1.65-.05 2.48-.07.94-.01 1.9-.02 2.77-.11.89-.08 1.52-.24 1.95-.41.3-.42.64-.83 1.07-1.24.55-.51 1.04-1.01 1.57-1.54.51-.46 1.02-.94 1.61-1.29.66-.45 1.41-.73 2.1-1.13.25-.12.47-.27.72-.4.21-.1.39-.15.6-.18.69-.11.91-.38 1.45-.63.32-.16.62-.2.9-.22.29.01.58.05.91.02.68-.06 1.18-.34 1.9-.37.41.02.79.11 1.16.2.36.11.71.26 1.09.35.77.23 1.57.33 2.34.61.67.19 1.23.56 1.78.88.51.4 1.03.75 1.49 1.21.37.33.77.7 1.18.96.23.14.45.22.68.31.22.09.33.33.26.55l-.18.59c-.02.08-.05.15-.07.22-.22.65-.65 1.01-1.14 1.47-.09.08-.17.18-.24.27h.15c.22.01.42.03.65.02h.68c.25 0 .46 0 .7-.01.42-.02.85 0 1.24-.05l1.17-.12c.1-.01.2-.03.32-.04h.19c.04-.01.11-.01.14-.02h.55c.21 0 .32-.01.53 0 .57.02 1.1.04 1.67.07l.41.02a.996.996 0 0 0 1.05-.94l.01-.12c.04-.61.07-1.24.07-1.88-.03-.75-.04-1.52-.06-2.27zM79.27 48.21c-.35-.69-.59-1.42-.82-2.14 0 .01 0 .03-.01.04-.04.04-.1.09-.11.11-.02.08-.1.17-.14.23-.07.1-.17.15-.24.25-.13.17-.2.4-.33.59-.04.05-.09.09-.12.15s-.07.11-.11.17c-.05.06-.08.11-.12.17-.05.11-.16.19-.21.31-.04.12-.11.22-.17.33-.02.03-.02.07-.05.09l-.04.04c-.01.01-.01.03-.02.04-.04.04-.1.06-.14.1-.05.04-.07.07-.13.1-.16.06-.31.15-.47.21-.22.07-.45.11-.67.19-.21.07-.42.17-.65.2-.39.09-.8.1-1.2.13-.35.01-.71.07-1.07.01-.32-.05-.52-.24-.71-.46-.33-.38-.61-.77-.88-1.19-.58-.89-1.05-1.87-.99-2.98.03-.56.23-1.14.59-1.54.19-.21.42-.38.56-.63.15-.21.14-.45.28-.67.24-.37.74-.4 1.1-.49.4-.11.76-.33 1.18-.22.11-.24.55-.08.75 0 .18.05.26.05.44.03.13-.02.25.04.37.07.24.07.5.2.74.25.12.02.2-.03.32-.01.16.01.29.14.42.24.2.16.39.35.57.54.08.08.17.15.24.24.04.06.07.12.12.18.15.2.3.39.42.62.12.25.22.51.35.75.01-.02.01-.04.01-.05.2-.65.49-1.23.81-1.83.12-.25.26-.49.38-.73-.04-.08-.08-.15-.11-.21-.12-.2-.22-.42-.35-.61-.24-.39-.59-.8-1.03-.96-.18-.07-.34-.11-.55-.2-.32-.16-.51-.26-.74-.38-.48-.22-1-.36-1.52-.41-.53-.05-1.01.03-1.54.06-.65.03-1.37-.02-1.99.29-.23.1-.39.26-.59.39-.25.2-.52.38-.78.58-.55.4-1.08.79-1.54 1.29-.18.17-.33.38-.45.61-.12.27-.18.53-.21.79-.14.86-.28 1.75-.27 2.65.01.76.06 1.47.27 2.22.22.73.67 1.24 1.17 1.77.49.5.88 1.06 1.52 1.4.56.29 1.07.27 1.65.4.72.17 1.42.36 2.18.23.53-.11.98-.36 1.51-.45.43-.05 1.01-.2 1.34-.55.09-.08.13-.18.22-.27.06-.07.13-.14.2-.2.22-.22.48-.44.69-.67.22-.21.43-.43.64-.65.06-.07.12-.16.18-.23-.05-.14-.1-.23-.15-.33z"></path></svg>