<svg width="44" height="56" viewBox="0 0 44 56" fill="none" xmlns="http://www.w3.org/2000/svg">
<path d="M43.5301 12.9271L39.3407 8.73787V2.48916C39.3407 1.11661 38.2241 0 36.8514 0H2.4581C1.10272 0 0 1.10272 0 2.4581V43.6959C0 45.0513 1.10272 46.154 2.4581 46.154H3.84847V47.5238C3.84847 48.8792 4.9512 49.9819 6.30668 49.9819H11.639C12.0921 49.9819 12.4594 49.6148 12.4594 49.1616C12.4594 48.7085 12.0921 48.3413 11.639 48.3413H6.30668C5.85584 48.3413 5.4891 47.9746 5.4891 47.5238V14.5424C5.4891 14.0893 5.12182 13.7221 4.66879 13.7221C4.21576 13.7221 3.84847 14.0893 3.84847 14.5424V44.5134H2.4581C2.00736 44.5134 1.64063 44.1467 1.64063 43.6959V2.4581C1.64063 2.00736 2.00736 1.64063 2.4581 1.64063H36.8516C37.3195 1.64063 37.7002 2.02125 37.7002 2.48916V7.09735L34.6708 4.06821C34.5169 3.91443 34.3084 3.82802 34.0908 3.82802H6.30668C4.9512 3.82802 3.84847 4.93074 3.84847 6.28612V10.7238C3.84847 11.1769 4.21576 11.5441 4.66879 11.5441C5.12182 11.5441 5.4891 11.1769 5.4891 10.7238V6.28601C5.4891 5.83527 5.85584 5.46854 6.30668 5.46854H33.2704V13.5056C33.2704 13.9587 33.6376 14.3258 34.0906 14.326L42.1298 14.3273V47.5237C42.1298 47.9745 41.763 48.3412 41.3123 48.3412H36.0437C35.5907 48.3412 35.2234 48.7084 35.2234 49.1615C35.2234 49.6147 35.5907 49.9818 36.0437 49.9818H41.3123C42.6677 49.9818 43.7704 48.8791 43.7704 47.5237V13.5072C43.7704 13.2896 43.684 13.0811 43.5301 12.9271ZM34.911 12.6854V6.62857L40.9693 12.6865L34.911 12.6854Z" fill="#CFD0D1"/>
<path d="M33.6399 19.1906H14.0156C13.5626 19.1906 13.1953 19.5577 13.1953 20.0109C13.1953 20.464 13.5626 20.8312 14.0156 20.8312H33.6399C34.093 20.8312 34.4603 20.464 34.4603 20.0109C34.4603 19.5577 34.093 19.1906 33.6399 19.1906Z" fill="#CFD0D1"/>
<path d="M33.6399 24.0284H14.0156C13.5626 24.0284 13.1953 24.3956 13.1953 24.8488C13.1953 25.3019 13.5626 25.6691 14.0156 25.6691H33.6399C34.093 25.6691 34.4603 25.3019 34.4603 24.8488C34.4603 24.3956 34.093 24.0284 33.6399 24.0284Z" fill="#CFD0D1"/>
<path d="M33.6426 28.9628H29.7656C29.3126 28.9628 28.9453 29.3299 28.9453 29.7831C28.9453 30.2362 29.3126 30.6034 29.7656 30.6034H33.6426C34.0957 30.6034 34.463 30.2362 34.463 29.7831C34.463 29.3299 34.0957 28.9628 33.6426 28.9628Z" fill="#CFD0D1"/>
<path d="M25.9023 30.6034C26.3553 30.6034 26.7226 30.2362 26.7226 29.7831C26.7226 29.3299 26.3553 28.9628 25.9023 28.9628H14.0156C13.5626 28.9628 13.1953 29.3299 13.1953 29.7831C13.1953 30.2362 13.5626 30.6034 14.0156 30.6034H25.9023Z" fill="#CFD0D1"/>
<path d="M26.8404 44.9093L24.6536 42.7226V50.653C24.6536 51.1061 24.2863 51.4733 23.8332 51.4733C23.3802 51.4733 23.0129 51.1061 23.0129 50.653V42.7226L20.8261 44.9093C20.5057 45.2296 19.9863 45.2297 19.6661 44.9092C19.3457 44.5889 19.3457 44.0694 19.6661 43.7492L23.2532 40.1621C23.4134 40.002 23.6234 39.9219 23.8332 39.9219C24.0431 39.9219 24.2531 40.002 24.4133 40.1621L28.0004 43.7492C28.3208 44.0696 28.3208 44.589 28.0004 44.9092C27.6802 45.2296 27.1608 45.2295 26.8404 44.9093Z" fill="#CFD0D1"/>
<path d="M23.8304 35.3949C18.1493 35.3949 13.5273 40.0167 13.5273 45.6975C13.5273 51.3782 18.1493 56 23.8304 56C29.5114 56 34.1334 51.3782 34.1334 45.6975C34.1334 40.0167 29.5114 35.3949 23.8304 35.3949ZM23.8304 54.3595C19.054 54.3595 15.168 50.4738 15.168 45.6976C15.168 40.9214 19.054 37.0356 23.8304 37.0356C28.6068 37.0356 32.4928 40.9214 32.4928 45.6976C32.4928 50.4738 28.6068 54.3595 23.8304 54.3595Z" fill="#CFD0D1"/>
</svg>
