<svg width="57" height="57" viewBox="0 0 57 57" fill="none" xmlns="http://www.w3.org/2000/svg">
<path fill-rule="evenodd" clip-rule="evenodd" d="M28.5 57C44.2401 57 57 44.2401 57 28.5C57 12.7599 44.2401 0 28.5 0C12.7599 0 0 12.7599 0 28.5C0 44.2401 12.7599 57 28.5 57Z" fill="#FD1C37"/>
<path d="M43.4159 34.8209L43.0095 35.0006C42.0507 35.4176 40.5931 35.3263 39.7676 34.7942L36.7076 32.8304C35.8783 32.2968 35.2732 31.0349 35.3793 30.0268L35.572 28.1859C31.5577 25.5942 26.2861 25.4078 21.7622 27.6976L21.5696 29.5385C21.464 30.5473 20.6009 31.7566 19.667 32.2285L16.2198 33.9648C15.2853 34.436 13.8183 34.4226 12.9575 33.94L12.5883 33.7334C11.727 33.2489 11.1099 32.0269 11.2149 31.0175L11.5051 28.2633C11.5546 27.7719 12.1901 26.935 12.193 26.9325C16.9996 22.6668 23.2165 20.3769 29.4297 20.5992C35.6289 20.8184 41.3051 23.5125 45.1878 28.062C45.2083 28.0855 45.6855 28.9807 45.6348 29.4708L45.346 32.2237C45.2415 33.2292 44.3725 34.4012 43.4159 34.8209Z" fill="white"/>
</svg>
