<svg width="17" height="20" viewBox="0 0 17 20" fill="none" xmlns="http://www.w3.org/2000/svg">
<path d="M12.3985 2.17022H16.2445C16.2886 2.17019 16.3323 2.17887 16.3731 2.19574C16.4138 2.21261 16.4509 2.23735 16.4821 2.26855C16.5133 2.29974 16.538 2.33678 16.5549 2.37755L12.3985 2.17022ZM12.3985 2.17022V0.518539C12.3985 0.42946 12.3631 0.344029 12.3001 0.281041C12.2371 0.218053 12.1517 0.182666 12.0626 0.182666L5.56105 0.182666L5.56102 0.182666C5.47197 0.182717 5.38657 0.218117 5.3236 0.281089C5.26063 0.344061 5.22523 0.429455 5.22518 0.518511V0.518539V2.17022H1.37913C1.29006 2.17022 1.20463 2.20561 1.14164 2.26859C1.07865 2.33158 1.04326 2.41701 1.04326 2.50609L1.04326 4.57108L1.04326 4.57111C1.04331 4.66016 1.07871 4.74555 1.14168 4.80853C1.20466 4.8715 1.29005 4.9069 1.37911 4.90695H1.37913H2.02145L2.79974 19.3225L2.79974 19.3226C2.8044 19.4084 2.84178 19.4892 2.90417 19.5483C2.96657 19.6074 3.04925 19.6403 3.1352 19.6404H14.4885C14.5744 19.6404 14.6571 19.6074 14.7195 19.5483C14.7819 19.4892 14.8192 19.4084 14.8238 19.3225L14.8238 19.3225L12.3985 2.17022ZM5.89692 0.854412H11.7267V2.17022H5.89692V0.854412ZM14.9297 4.90695L14.1702 18.9686H3.45343L2.69416 4.90695H14.9297ZM15.9087 4.2352H1.71501V2.84197H5.5555H5.56105H5.56105H5.56106H5.56106H5.56107H5.56107H5.56108H5.56108H5.56108H5.56109H5.56109H5.5611H5.5611H5.56111H5.56112H5.56112H5.56113H5.56113H5.56114H5.56115H5.56115H5.56116H5.56116H5.56116H5.56117H5.56117H5.56118H5.56118H5.56119H5.56119H5.56119H5.5612H5.5612H5.56121H5.56121H5.56122H5.56122H5.56123H5.56123H5.56124H5.56124H5.56125H5.56125H5.56126H5.56127H5.56127H5.56128H5.56128H5.56129H5.56129H5.5613H5.56131H5.56131H5.56132H5.56132H5.56133H5.56134H5.56134H5.56135H5.56136H5.56136H5.56137H5.56137H5.56138H5.56139H5.5614H5.5614H5.56141H5.56142H5.56142H5.56143H5.56144H5.56144H5.56145H5.56146H5.56147H5.56147H5.56148H5.56149H5.5615H5.5615H5.56151H5.56152H5.56153H5.56153H5.56154H5.56155H5.56156H5.56157H5.56158H5.56158H5.56159H5.5616H5.56161H5.56162H5.56163H5.56163H5.56164H5.56165H5.56166H5.56167H5.56168H5.56169H5.5617H5.5617H5.56171H5.56172H5.56173H5.56174H5.56175H5.56176H5.56177H5.56178H5.56179H5.5618H5.56181H5.56182H5.56183H5.56183H5.56184H5.56185H5.56186H5.56187H5.56188H5.56189H5.5619H5.56191H5.56192H5.56193H5.56194H5.56195H5.56196H5.56197H5.56199H5.562H5.56201H5.56202H5.56203H5.56204H5.56205H5.56206H5.56207H5.56208H5.56209H5.5621H5.56211H5.56212H5.56213H5.56214H5.56216H5.56217H5.56218H5.56219H5.5622H5.56221H5.56222H5.56223H5.56225H5.56226H5.56227H5.56228H5.56229H5.5623H5.56231H5.56233H5.56234H5.56235H5.56236H5.56237H5.56238H5.5624H5.56241H5.56242H5.56243H5.56244H5.56246H5.56247H5.56248H5.56249H5.5625H5.56252H5.56253H5.56254H5.56255H5.56256H5.56258H5.56259H5.5626H5.56261H5.56263H5.56264H5.56265H5.56266H5.56268H5.56269H5.5627H5.56271H5.56273H5.56274H5.56275H5.56277H5.56278H5.56279H5.5628H5.56282H5.56283H5.56284H5.56286H5.56287H5.56288H5.56289H5.56291H5.56292H5.56293H5.56295H5.56296H5.56297H5.56299H5.563H5.56301H5.56303H5.56304H5.56305H5.56307H5.56308H5.56309H5.56311H5.56312H5.56313H5.56315H5.56316H5.56317H5.56319H5.5632H5.56321H5.56323H5.56324H5.56325H5.56327H5.56328H5.5633H5.56331H5.56332H5.56334H5.56335H5.56336H5.56338H5.56339H5.56341H5.56342H5.56343H5.56345H5.56346H5.56348H5.56349H5.5635H5.56352H5.56353H5.56355H5.56356H5.56357H5.56359H5.5636H5.56362H5.56363H5.56364H5.56366H5.56367H5.56369H5.5637H5.56371H5.56373H5.56374H5.56376H5.56377H5.56379H5.5638H5.56381H5.56383H5.56384H5.56386H5.56387H5.56389H5.5639H5.56391H5.56393H5.56394H5.56396H5.56397H5.56399H5.564H5.56401H5.56403H5.56404H5.56406H5.56407H5.56409H5.5641H5.56412H5.56413H5.56414H5.56416H5.56417H5.56419H5.5642H5.56422H5.56423H5.56425H5.56426H5.56427H5.56429H5.5643H5.56432H5.56433H5.56435H5.56436H5.56438H5.56439H5.5644H5.56442H5.56443H5.56445H5.56446H5.56448H5.56449H5.56451H5.56452H5.56453H5.56455H5.56456H5.56458H5.56459H5.56461H5.56462H5.56464H5.56465H5.56466H5.56468H5.56469H5.56471H5.56472H5.56474H5.56475H5.56477H5.56478H5.56479H5.56481H5.56482H5.56484H5.56485H5.56487H5.56488H5.5649H5.56491H5.56492H5.56494H5.56495H5.56497H5.56498H5.565H5.56501H5.56502H5.56504H5.56505H5.56507H5.56508H5.5651H5.56511H5.56512H5.56514H5.56515H5.56517H5.56518H5.5652H5.56521H5.56522H5.56524H5.56525H5.56527H5.56528H5.56529H5.56531H5.56532H5.56534H5.56535H5.56536H5.56538H5.56539H5.56541H5.56542H5.56543H5.56545H5.56546H5.56548H5.56549H5.5655H5.56552H5.56553H5.56554H5.56556H5.56557H5.56559H5.5656H5.56561H5.56563H5.56564H5.56565H5.56567H5.56568H5.5657H5.56571H5.56572H5.56574H5.56575H5.56576H5.56578H5.56579H5.5658H5.56582H5.56583H5.56584H5.56586H5.56587H5.56588H5.5659H5.56591H5.56592H5.56594H5.56595H5.56596H5.56598H5.56599H5.566H5.56601H5.56603H5.56604H5.56605H5.56607H5.56608H5.56609H5.5661H5.56612H5.56613H5.56614H5.56616H5.56617H5.56618H5.56619H5.56621H5.56622H5.56623H5.56624H5.56626H5.56627H5.56628H5.56629H5.56631H5.56632H5.56633H5.56634H5.56636H5.56637H5.56638H5.56639H5.5664H5.56642H5.56643H5.56644H5.56645H5.56646H5.56648H5.56649H5.5665H5.56651H5.56652H5.56653H5.56655H5.56656H5.56657H5.56658H5.56659H5.5666H12.0572H12.0626H12.0626H12.0626H12.0626H12.0627H12.0627H12.0627H12.0627H12.0627H12.0627H12.0627H12.0627H12.0627H12.0627H12.0627H12.0628H12.0628H12.0628H12.0628H12.0628H12.0628H12.0628H12.0628H12.0628H12.0628H12.0629H12.0629H12.0629H12.0629H12.0629H12.0629H12.0629H12.0629H12.063H12.063H12.063H12.063H12.063H12.063H12.063H12.063H12.063H12.063H12.0631H12.0631H12.0631H12.0631H12.0631H12.0631H12.0631H12.0631H12.0631H12.0631H12.0631H12.0631H12.0632H12.0632H12.0632H12.0632H12.0632H12.0632H12.0632H12.0632H12.0632H12.0632H12.0632H12.0632H12.0633H12.0633H12.0633H12.0633H12.0633H12.0633H12.0633H12.0633H12.0633H12.0633H12.0633H12.0634H12.0634H12.0634H12.0634H12.0634H12.0634H12.0634H12.0634H12.0634H12.0634H12.0635H12.0635H12.0635H12.0635H12.0635H12.0635H12.0635H12.0635H12.0635H12.0635H12.0636H12.0636H12.0636H12.0636H12.0636H12.0636H12.0636H12.0636H12.0636H12.0637H12.0637H12.0637H12.0637H12.0637H12.0637H12.0637H12.0637H12.0637H12.0638H12.0638H12.0638H12.0638H12.0638H12.0638H12.0638H12.0638H12.0638H12.0639H12.0639H12.0639H12.0639H12.0639H12.0639H12.0639H12.0639H12.064H12.064H12.064H12.064H12.064H12.064H12.064H12.064H12.0641H12.0641H12.0641H12.0641H12.0641H12.0641H12.0641H12.0641H12.0641H12.0642H12.0642H12.0642H12.0642H12.0642H12.0642H12.0642H12.0642H12.0643H12.0643H12.0643H12.0643H12.0643H12.0643H12.0643H12.0644H12.0644H12.0644H12.0644H12.0644H12.0644H12.0644H12.0644H12.0645H12.0645H12.0645H12.0645H12.0645H12.0645H12.0645H12.0646H12.0646H12.0646H12.0646H12.0646H12.0646H12.0646H12.0646H12.0647H12.0647H12.0647H12.0647H12.0647H12.0647H12.0647H12.0648H12.0648H12.0648H12.0648H12.0648H12.0648H12.0648H12.0648H12.0649H12.0649H12.0649H12.0649H12.0649H12.0649H12.0649H12.065H12.065H12.065H12.065H12.065H12.065H12.065H12.0651H12.0651H12.0651H12.0651H12.0651H12.0651H12.0651H12.0652H12.0652H12.0652H12.0652H12.0652H12.0652H12.0652H12.0653H12.0653H12.0653H12.0653H12.0653H12.0653H12.0653H12.0654H12.0654H12.0654H12.0654H12.0654H12.0654H12.0654H12.0655H12.0655H12.0655H12.0655H12.0655H12.0655H12.0655H12.0656H12.0656H12.0656H12.0656H12.0656H12.0656H12.0656H12.0657H12.0657H12.0657H12.0657H12.0657H12.0657H12.0657H12.0658H12.0658H12.0658H12.0658H12.0658H12.0658H12.0658H12.0659H12.0659H12.0659H12.0659H12.0659H12.0659H12.0659H12.066H12.066H12.066H12.066H12.066H12.066H12.066H12.0661H12.0661H12.0661H12.0661H12.0661H12.0661H12.0661H12.0662H12.0662H12.0662H12.0662H12.0662H12.0662H12.0663H12.0663H12.0663H12.0663H12.0663H12.0663H12.0663H12.0664H12.0664H12.0664H12.0664H12.0664H12.0664H12.0664H12.0665H12.0665H12.0665H12.0665H12.0665H12.0665H12.0665H12.0666H12.0666H12.0666H12.0666H12.0666H12.0666H12.0666H12.0666H12.0667H12.0667H12.0667H12.0667H12.0667H12.0667H12.0667H12.0668H12.0668H12.0668H12.0668H12.0668H12.0668H12.0668H12.0669H12.0669H12.0669H12.0669H12.0669H12.0669H12.0669H12.067H12.067H12.067H12.067H12.067H12.067H12.067H12.0671H12.0671H12.0671H12.0671H12.0671H12.0671H12.0671H12.0671H12.0672H12.0672H12.0672H12.0672H12.0672H12.0672H12.0672H12.0673H12.0673H12.0673H12.0673H12.0673H12.0673H12.0673H12.0673H12.0674H12.0674H12.0674H12.0674H12.0674H12.0674H12.0674H12.0674H12.0675H12.0675H12.0675H12.0675H12.0675H12.0675H12.0675H12.0675H12.0676H12.0676H12.0676H12.0676H12.0676H12.0676H12.0676H12.0676H12.0677H12.0677H12.0677H12.0677H12.0677H12.0677H12.0677H12.0677H12.0678H12.0678H12.0678H12.0678H12.0678H12.0678H12.0678H12.0678H12.0679H12.0679H12.0679H12.0679H12.0679H12.0679H12.0679H12.0679H12.0679H12.068H12.068H12.068H12.068H12.068H12.068H12.068H12.068H12.068H12.0681H12.0681H12.0681H12.0681H12.0681H12.0681H12.0681H12.0681H12.0681H12.0682H12.0682H12.0682H15.9087V4.2352Z" fill="#2A2A2A" stroke="#2A2A2A" stroke-width="0.1"/>
<path d="M5.98167 15.2803H5.9817C6.07076 15.2803 6.15615 15.2449 6.21912 15.1819C6.2821 15.1189 6.3175 15.0335 6.31755 14.9445V14.9444V8.06029C6.31755 7.97121 6.28216 7.88578 6.21917 7.82279C6.15618 7.7598 6.07075 7.72441 5.98167 7.72441C5.89259 7.72441 5.80716 7.7598 5.74418 7.82279C5.68119 7.88578 5.6458 7.97121 5.6458 8.06029V14.9444C5.6458 15.0335 5.68119 15.119 5.74418 15.1819C5.80716 15.2449 5.8926 15.2803 5.98167 15.2803Z" fill="#2A2A2A" stroke="#2A2A2A" stroke-width="0.1"/>
<path d="M8.47539 14.9444L8.47539 14.9445C8.47544 15.0335 8.51084 15.1189 8.57381 15.1819C8.63679 15.2449 8.72218 15.2803 8.81124 15.2803H8.81129C8.90035 15.2803 8.98574 15.2449 9.04871 15.1819C9.11169 15.1189 9.14709 15.0335 9.14714 14.9445V14.9444V8.06029C9.14714 7.97121 9.11175 7.88578 9.04876 7.82279C8.98577 7.7598 8.90034 7.72441 8.81126 7.72441C8.72218 7.72441 8.63675 7.7598 8.57377 7.82279C8.51078 7.88578 8.47539 7.97121 8.47539 8.06029L8.47539 14.9444ZM8.81126 15.2303C8.88707 15.2303 8.95976 15.2001 9.01336 15.1465C9.06696 15.0929 9.09709 15.0202 9.09714 14.9444V8.06029C9.09714 7.98447 9.06702 7.91176 9.01341 7.85814C8.95979 7.80453 8.88708 7.77441 8.81126 7.77441C8.73545 7.77441 8.66273 7.80453 8.60912 7.85814C8.55551 7.91176 8.52539 7.98447 8.52539 8.06029V14.9444C8.52543 15.0202 8.55557 15.0929 8.60917 15.1465C8.66277 15.2001 8.73546 15.2303 8.81126 15.2303Z" fill="#2A2A2A" stroke="#2A2A2A" stroke-width="0.1"/>
<path d="M11.6438 15.2803C11.7329 15.2803 11.8183 15.2449 11.8813 15.1819C11.9443 15.119 11.9797 15.0335 11.9797 14.9444V8.06029C11.9797 7.97121 11.9443 7.88578 11.8813 7.82279C11.8183 7.7598 11.7329 7.72441 11.6438 7.72441C11.5547 7.72441 11.4693 7.7598 11.4063 7.82279C11.3433 7.88578 11.3079 7.97121 11.3079 8.06029V14.9444C11.3079 15.0335 11.3433 15.119 11.4063 15.1819C11.4693 15.2449 11.5547 15.2803 11.6438 15.2803Z" fill="#2A2A2A" stroke="#2A2A2A" stroke-width="0.1"/>
</svg>
