<svg width="20" height="24" viewBox="0 0 20 24" fill="none" xmlns="http://www.w3.org/2000/svg">
<path d="M10.6667 0H11.6667V-1H10.6667V0ZM16.8889 7.11111H17.8889V6.11111H16.8889V7.11111ZM11.5556 0L12.3148 -0.650791L10.5556 -2.70326V0H11.5556ZM16.8889 6.22222V7.22222H19.0631L17.6481 5.57143L16.8889 6.22222ZM10.6667 -1H1.78536V1H10.6667V-1ZM11.6667 5.33502V0H9.66667V5.33502H11.6667ZM12.4497 6.11111C12.011 6.11111 11.6667 5.7644 11.6667 5.33502H9.66667C9.66667 6.88145 10.9189 8.11111 12.4497 8.11111V6.11111ZM16.8889 6.11111H12.4497V8.11111H16.8889V6.11111ZM17.8889 22.2245V7.11111H15.8889V22.2245H17.8889ZM15.1134 25C16.6452 25 17.8889 23.7614 17.8889 22.2245H15.8889C15.8889 22.6547 15.5428 23 15.1134 23V25ZM1.77549 25H15.1134V23H1.77549V25ZM-1 22.2157C-1 23.7477 0.233899 25 1.77549 25V23C1.34997 23 1 22.6546 1 22.2157H-1ZM-1 1.78429V22.2157H1V1.78429H-1ZM1.78536 -1C0.247733 -1 -1 0.245553 -1 1.78429H1C1 1.35149 1.35093 1 1.78536 1V-1ZM10.5556 0V5.33073H12.5556V0H10.5556ZM17.6481 5.57143L12.3148 -0.650791L10.7963 0.650791L16.1296 6.87301L17.6481 5.57143ZM12.4362 7.22222H16.8889V5.22222H12.4362V7.22222ZM10.5556 5.33073C10.5556 6.36871 11.3975 7.22222 12.4362 7.22222V5.22222C12.4786 5.22222 12.5095 5.24033 12.5256 5.2565C12.5422 5.27325 12.5556 5.30016 12.5556 5.33073H10.5556Z" fill="#4A4A4A"/>
</svg>
