<svg width="21" height="28" viewBox="0 0 21 28" fill="none" xmlns="http://www.w3.org/2000/svg">
<path fill-rule="evenodd" clip-rule="evenodd" d="M0 25.3153C0 26.6408 1.07542 27.7143 2.40105 27.7143H18.599C19.9238 27.7143 21 26.6406 21 25.3154V8.51208C21 7.86343 20.6809 7.09781 20.219 6.64004L15.0161 1.48386C14.5567 1.02862 13.7937 0.714294 13.1466 0.714294H2.40144C1.07727 0.714294 0 1.78818 0 3.11328V25.3153ZM2.40144 1.91429C1.73983 1.91429 1.2 2.4511 1.2 3.11328V25.3153C1.2 25.9776 1.73773 26.5143 2.40105 26.5143H18.599C19.2614 26.5143 19.8 25.9775 19.8 25.3154V8.5155H14.6958C13.7032 8.5155 12.8988 7.71141 12.8988 6.71848V1.91429H2.40144ZM19.3325 7.3155H14.6958C14.3658 7.3155 14.0988 7.04857 14.0988 6.71848V2.15608L19.3325 7.3155ZM15.6082 12.6294C15.9396 12.6294 16.2082 12.3608 16.2082 12.0294C16.2082 11.6981 15.9396 11.4294 15.6082 11.4294H5.10822C4.77685 11.4294 4.50822 11.6981 4.50822 12.0294C4.50822 12.3608 4.77685 12.6294 5.10822 12.6294H15.6082ZM10.8082 8.51944C11.1396 8.51944 11.4082 8.25081 11.4082 7.91944C11.4082 7.58806 11.1396 7.31944 10.8082 7.31944H5.10822C4.77685 7.31944 4.50822 7.58806 4.50822 7.91944C4.50822 8.25081 4.77685 8.51944 5.10822 8.51944H10.8082ZM15.6082 16.8294C15.9396 16.8294 16.2082 16.5608 16.2082 16.2294C16.2082 15.8981 15.9396 15.6294 15.6082 15.6294H5.10822C4.77685 15.6294 4.50822 15.8981 4.50822 16.2294C4.50822 16.5608 4.77685 16.8294 5.10822 16.8294H15.6082ZM15.6082 21.0294C15.9396 21.0294 16.2082 20.7608 16.2082 20.4294C16.2082 20.0981 15.9396 19.8294 15.6082 19.8294H5.10822C4.77685 19.8294 4.50822 20.0981 4.50822 20.4294C4.50822 20.7608 4.77685 21.0294 5.10822 21.0294H15.6082Z" fill="black"/>
</svg>
