<svg width="43" height="43" viewBox="0 0 43 43" fill="none" xmlns="http://www.w3.org/2000/svg">
<circle cx="21.5" cy="21.5" r="21.5" fill="#F8F8F8"/>
<path d="M13.5536 9.99989C13.2559 9.99989 12.9998 10.3041 13 10.5535V33.2527C13 33.5426 13.2638 33.8063 13.5536 33.8063H29.6092C29.899 33.8063 30.1628 33.5426 30.1628 33.2527V15.5363C30.1628 15.3889 30.1033 15.242 29.9984 15.1384L25.0157 10.1556C24.9127 10.056 24.7697 9.99878 24.6264 9.99989H13.5536ZM14.1073 11.1072H24.0728V15.5363C24.0728 15.8262 24.3365 16.0899 24.6264 16.0899H29.0555V32.6991H14.1073V11.1072ZM25.18 11.8857L28.277 14.9826H25.18V11.8857ZM16.5986 19.4117C16.2929 19.4117 16.045 19.6596 16.045 19.9654C16.045 20.2711 16.2929 20.519 16.5986 20.519H26.5641C26.8699 20.519 27.1178 20.2711 27.1178 19.9654C27.1178 19.6596 26.8699 19.4117 26.5641 19.4117H16.5986ZM16.5986 23.8408C16.2929 23.8408 16.045 24.0887 16.045 24.3945C16.045 24.7003 16.2929 24.9481 16.5986 24.9481H26.5641C26.8699 24.9481 27.1178 24.7003 27.1178 24.3945C27.1178 24.0887 26.8699 23.8408 26.5641 23.8408H16.5986ZM16.5986 28.2699C16.2929 28.2699 16.045 28.5178 16.045 28.8236C16.045 29.1294 16.2929 29.3772 16.5986 29.3772H26.5641C26.8699 29.3772 27.1178 29.1294 27.1178 28.8236C27.1178 28.5178 26.8699 28.2699 26.5641 28.2699H16.5986Z" fill="#2A2A2A"/>
</svg>
