<svg width="19" height="22" viewBox="0 0 19 22" fill="none" xmlns="http://www.w3.org/2000/svg">
<path d="M9.14139 16.2345C8.95174 16.2345 8.76208 16.1586 8.61036 16.0069L4.47588 11.9104C4.17243 11.6069 4.17243 11.1517 4.47588 10.8483C4.77933 10.5448 5.2345 10.5448 5.53795 10.8483L9.14139 14.4138L12.7069 10.8483C13.0104 10.5448 13.4655 10.5448 13.769 10.8483C14.0724 11.1517 14.0724 11.6069 13.769 11.9104L9.67243 16.0069C9.52071 16.1586 9.33105 16.2345 9.14139 16.2345Z" fill="#959596"/>
<path d="M9.14137 16.0448C8.72413 16.0448 8.38275 15.7034 8.38275 15.2862V0.758621C8.38275 0.341379 8.72413 0 9.14137 0C9.55861 0 9.89999 0.341379 9.89999 0.758621V15.2862C9.89999 15.7034 9.55861 16.0448 9.14137 16.0448Z" fill="#959596"/>
<path d="M17.5241 22H0.758621C0.341379 22 0 21.6586 0 21.2414V17.2207C0 16.8034 0.341379 16.4621 0.758621 16.4621C1.17586 16.4621 1.51724 16.8034 1.51724 17.2207V20.4827H16.7655V17.1069C16.7655 16.6896 17.1069 16.3483 17.5241 16.3483C17.9414 16.3483 18.2828 16.6896 18.2828 17.1069V21.2414C18.2828 21.6586 17.9414 22 17.5241 22Z" fill="#959596"/>
</svg>
