<svg width="22" height="27" viewBox="0 0 22 27" fill="none" xmlns="http://www.w3.org/2000/svg">
<path d="M4.87109 2.90733C4.96808 1.95043 5.55644 1.29095 6.5004 1.08405C6.53273 1.07759 6.55859 1.05819 6.58446 1.04526C10.6771 1.04526 14.7763 1.04526 18.8689 1.04526C19.3151 1.1681 19.7353 1.33621 20.0586 1.69181C20.453 2.125 20.5952 2.63577 20.5952 3.20474C20.5952 6.92241 20.5952 10.6336 20.5952 14.3513C20.5952 16.1681 20.6017 17.9849 20.5952 19.8017C20.5952 20.8233 20.0133 21.5797 19.05 21.8254C18.8883 21.8642 18.7073 21.8772 18.5392 21.8707" stroke="#4A4A4A" stroke-width="1.9" stroke-linecap="round" stroke-linejoin="round"/>
<path d="M1.32812 5.42241C1.58675 4.96336 2.01347 4.64009 2.5889 4.49138C2.7764 4.43966 2.97683 4.42672 3.17726 4.42672C7.01131 4.42026 10.8389 4.42026 14.673 4.42672C15.7074 4.42672 16.451 4.96336 16.7161 5.91379C16.7807 6.14009 16.7936 6.38578 16.7936 6.61853C16.7936 7.73707 16.7936 8.86207 16.8001 9.9806" stroke="#4A4A4A" stroke-width="1.9" stroke-linecap="round" stroke-linejoin="round"/>
<path d="M16.7883 11.2737C16.7883 11.3037 16.7883 11.3437 16.7883 11.3737" stroke="#4A4A4A" stroke-width="1.9" stroke-linecap="round" stroke-linejoin="round"/>
<path d="M16.7957 12.6961C16.7957 13.4978 16.7957 14.0539 16.7957 14.8556C16.7957 17.6164 16.7957 20.3836 16.7957 23.1444C16.7957 24.1724 16.2526 24.9289 15.3086 25.1875C15.1082 25.2457 14.8883 25.2651 14.675 25.2651C10.8409 25.2716 7.01333 25.2716 3.17928 25.2651C1.90558 25.2651 1.05859 24.4181 1.05859 23.1509C1.05859 21.3276 1.05859 19.4978 1.05859 17.6746" stroke="#4A4A4A" stroke-width="1.9" stroke-linecap="round" stroke-linejoin="round"/>
<path d="M1.07734 16.4461C1.07734 13.556 1.07734 10.6724 1.07734 7.78233" stroke="#4A4A4A" stroke-width="1.9" stroke-linecap="round" stroke-linejoin="round"/>
</svg>
