<?xml version="1.0" encoding="utf-8"?>
<!-- Generator: Adobe Illustrator 24.2.0, SVG Export Plug-In . SVG Version: 6.00 Build 0)  -->
<svg version="1.1" id="Layer_1" xmlns="http://www.w3.org/2000/svg" xmlns:xlink="http://www.w3.org/1999/xlink" x="0px" y="0px"
	 viewBox="0 0 50 50" style="enable-background:new 0 0 50 50;" xml:space="preserve">
<g>
	<g>
		<g>
			<polygon points="31.4,8.7 7.8,32.3 17.6,42.2 41.3,18.6 			"/>
		</g>
	</g>
	<g>
		<g>
			<path d="M48.4,9.5l-7.9-7.9c-0.5-0.5-1.4-0.5-2,0l-5.1,5.1l9.8,9.8l5.1-5.1c0.3-0.3,0.4-0.6,0.4-1S48.6,9.8,48.4,9.5z"/>
		</g>
	</g>
	<g>
		<g>
			<path d="M5.8,34.3l-1,1c-0.2,0.2-0.3,0.4-0.4,0.6L1.3,47c-0.1,0.5,0,1,0.4,1.4c0.3,0.3,0.6,0.4,1,0.4c0.1,0,0.3,0,0.4-0.1
				l11.1-3.2c0.2-0.1,0.4-0.2,0.6-0.4l1-1L5.8,34.3z"/>
		</g>
	</g>
</g>
</svg>
