<svg width="323" height="220" viewBox="0 0 323 220" fill="none" xmlns="http://www.w3.org/2000/svg">
<path d="M122.051 209.618C122.051 215.351 95.1681 220 62.0059 220C28.8437 220 1.96094 215.351 1.96094 209.618C1.96094 208.185 3.63883 206.821 6.67475 205.581C15.5131 201.964 35.8639 199.394 59.7837 199.245C60.5216 199.24 61.2623 199.237 62.0059 199.237C95.1681 199.237 122.051 203.886 122.051 209.618Z" fill="#3F3D56"/>
<path opacity="0.1" d="M59.7886 199.245C57.098 203.632 53.4493 207.352 49.1161 210.127C44.7829 212.903 39.8776 214.661 34.768 215.271C29.6584 215.88 24.4771 215.325 19.6126 213.647C14.7481 211.969 10.3266 209.211 6.67969 205.581C15.5181 201.964 35.8688 199.394 59.7886 199.245Z" fill="black"/>
<path d="M31.4254 209.899C48.7812 209.899 62.8508 194.824 62.8508 176.229C62.8508 157.633 48.7812 142.559 31.4254 142.559C14.0696 142.559 0 157.633 0 176.229C0 194.824 14.0696 209.899 31.4254 209.899Z" fill="#3F3D56"/>
<path d="M69.9844 23.383C74.44 40.5482 88.814 51.6428 102.122 48.1884L69.9844 23.383Z" fill="#3F3D56"/>
<path d="M102.125 48.1884C97.6197 30.8304 105.991 13.6651 120.842 9.81023L102.125 48.1884Z" fill="#4776E6"/>
<path d="M79.1133 22.6747C83.3457 38.9798 93.6374 50.3912 102.124 48.1884L79.1133 22.6747Z" fill="#4776E6"/>
<path d="M102.122 48.1884C96.3652 26.0087 105.596 4.45564 122.762 0L102.122 48.1884Z" fill="#3F3D56"/>
<path d="M97.1172 49.7221C97.1172 49.7221 100.504 48.7307 101.343 47.7308C102.182 46.7309 106.178 44.7597 106.738 45.8687C107.299 46.9776 113.387 50.3815 109.54 51.4132C105.693 52.4449 100.427 53.1378 99.2377 52.7788C98.0483 52.4197 97.1172 49.7221 97.1172 49.7221Z" fill="#A8A8A8"/>
<path opacity="0.2" d="M109.503 50.9863C105.656 52.018 100.39 52.7108 99.2003 52.3518C98.2945 52.0784 97.539 50.4497 97.23 49.6881C97.1586 49.7099 97.1172 49.7221 97.1172 49.7221C97.1172 49.7221 98.0483 52.4197 99.2377 52.7788C100.427 53.1378 105.693 52.445 109.54 51.4132C110.65 51.1154 110.932 50.6197 110.759 50.0389C110.696 50.4332 110.329 50.7646 109.503 50.9863Z" fill="black"/>
<path d="M322.389 35.3758H96.2383V166.408H322.389V35.3758Z" fill="#F2F2F2"/>
<path opacity="0.3" d="M225.588 75.1486H101.57V140.104H225.588V75.1486Z" fill="#4776E6"/>
<path d="M284.871 72.3169H235.129V75.0686H284.871V72.3169Z" fill="#3F3D56"/>
<path d="M307.52 77.3969H235.129V80.1486H307.52V77.3969Z" fill="#3F3D56"/>
<path d="M284.871 89.6737H235.129V92.4254H284.871V89.6737Z" fill="#3F3D56"/>
<path d="M284.871 109.994H235.129V112.746H284.871V109.994Z" fill="#3F3D56"/>
<path d="M307.52 94.7537H235.129V97.5054H307.52V94.7537Z" fill="#3F3D56"/>
<path d="M307.52 99.8338H235.129V102.585H307.52V99.8338Z" fill="#3F3D56"/>
<path d="M307.52 104.914H235.129V107.666H307.52V104.914Z" fill="#3F3D56"/>
<path d="M261.164 122.271H235.129V129.467H261.164V122.271Z" fill="#4776E6"/>
<path d="M88.2422 114.454C88.2422 114.454 92.9158 101.212 96.2913 105.366C99.6667 109.521 91.0983 116.531 91.0983 116.531L88.2422 114.454Z" fill="#A0616A"/>
<path d="M66.1676 101.472L68.9791 102.514C68.9791 102.514 70.322 108.482 69.8027 109.521C69.2834 110.559 69.0237 109.78 69.8027 111.857C70.5816 113.935 72.9185 119.387 73.1781 120.166C73.4378 120.945 88.2377 115.233 88.2377 112.377C88.2377 112.377 91.3534 116.012 92.9113 116.791C92.9113 116.791 75.7746 129.254 73.4378 130.812C71.1009 132.37 69.8027 131.591 67.7255 129.773C65.6483 127.956 56.8203 112.896 56.8203 112.896L66.1676 101.472Z" fill="#575A89"/>
<path d="M73.7011 193.646C73.7011 193.646 73.4415 196.503 72.9222 196.762C72.4029 197.022 68.5082 203.513 72.9222 204.811C77.3362 206.11 79.9327 205.59 80.9713 206.11C82.0099 206.629 100.185 207.667 100.445 204.811C100.704 201.955 91.6168 201.436 91.6168 201.436C91.6168 201.436 83.3081 195.983 82.0099 193.127C80.7116 190.271 73.7011 193.646 73.7011 193.646Z" fill="#2F2E41"/>
<path d="M20.9901 198.839C20.9901 198.839 14.7586 209.485 16.3164 210.783C17.8743 212.081 33.0463 216.813 35.2707 217.015C38.1268 217.274 40.204 214.938 37.8672 213.639C35.5303 212.341 30.597 206.888 30.597 205.071V200.397L20.9901 198.839Z" fill="#2F2E41"/>
<path d="M15.0185 129.254C15.0185 129.254 9.56594 136.005 18.1343 146.91L32.4149 165.085C32.4149 165.085 23.5869 179.106 23.3272 186.376C23.0676 193.646 21.2501 192.089 20.7308 195.204C20.2115 198.32 17.8746 196.762 19.6922 199.099C21.5097 201.436 28.2605 203.513 30.3377 201.696C32.4149 199.878 32.4149 197.541 32.4149 196.503C32.4149 195.464 36.05 189.492 36.3096 187.675C36.5693 185.857 46.1762 171.057 46.1762 171.057C46.1762 171.057 49.292 162.229 45.6569 157.296C42.0219 152.363 39.6198 145.366 39.6198 145.366C39.6198 145.366 50.3306 158.334 57.8604 161.45C57.8604 161.45 60.7165 161.969 60.1972 163.268C59.6779 164.566 60.1972 165.345 60.9761 166.643C61.7551 167.941 67.2077 183.001 69.0252 186.896C70.8427 190.79 70.0638 193.127 72.141 194.425C74.2182 195.724 83.5655 194.685 83.5655 193.387C83.5655 192.089 82.2672 188.713 81.4883 186.896C80.7093 185.078 74.4778 164.047 74.9971 160.412C75.5164 156.777 74.7374 151.843 70.8427 149.766C66.948 147.689 47.2148 130.812 46.1762 130.812C45.1376 130.812 15.0185 129.254 15.0185 129.254Z" fill="#2F2E41"/>
<path d="M67.2099 88.4892C73.2327 88.4892 78.1151 83.6068 78.1151 77.584C78.1151 71.5612 73.2327 66.6788 67.2099 66.6788C61.1871 66.6788 56.3047 71.5612 56.3047 77.584C56.3047 83.6068 61.1871 88.4892 67.2099 88.4892Z" fill="#A0616A"/>
<path d="M58.3796 78.6226C58.3796 78.6226 55.0042 84.5945 50.8498 85.3735C46.6955 86.1524 61.755 98.0962 61.755 98.0962C61.755 98.0962 65.3901 86.6717 68.5059 86.1524C71.6216 85.6331 58.3796 78.6226 58.3796 78.6226Z" fill="#A0616A"/>
<path d="M69.0266 103.029C69.0266 106.405 58.9003 116.012 58.9003 116.012L49.2934 124.061C49.2934 124.061 49.0337 126.917 47.9951 127.177C46.9565 127.436 45.6583 127.436 46.6969 128.994C47.7355 130.552 50.332 133.928 47.9951 134.447C47.2906 134.554 46.5807 134.622 45.8686 134.649C45.2454 134.686 44.5133 134.719 43.6902 134.751C41.7688 134.818 39.3644 134.862 36.7602 134.844C36.0202 134.841 35.2672 134.833 34.5013 134.818C24.684 134.623 13.3114 133.494 14.241 129.773C15.7988 123.542 14.7602 121.464 18.1357 118.089C21.5111 114.714 26.9637 103.029 26.9637 103.029C26.9637 103.029 37.8689 84.5945 46.9565 84.5945L48.8442 84.0986C49.7213 83.8675 50.6488 83.9182 51.4955 84.2435C52.3422 84.5687 53.0651 85.1521 53.5619 85.9109C55.3847 88.6866 58.259 92.8565 59.9389 94.2015C62.5354 96.2786 62.9404 94.7883 62.9404 94.7883C62.9404 94.7883 69.0266 99.6541 69.0266 103.029Z" fill="#575A89"/>
<path d="M45.9179 142.496C45.9179 142.496 53.4477 154.18 48.774 156.257C44.1004 158.334 41.5039 144.054 41.5039 144.054L45.9179 142.496Z" fill="#A0616A"/>
<path d="M60.0785 76.3523C60.497 76.2995 60.6294 75.7714 60.6998 75.3555C61.0771 73.1281 62.737 71.016 64.9672 70.6565C65.8196 70.5431 66.6865 70.6129 67.5098 70.8614C68.6892 71.185 69.7963 71.7299 70.7721 72.4671C71.2871 72.8567 71.7828 73.3089 72.4024 73.4908C72.8116 73.611 74.5491 74.3835 74.955 74.5142C75.8476 74.8015 76.5862 75.7357 77.5054 75.5508C78.3849 75.3738 78.7189 74.3118 78.8602 73.4259C79.1823 71.4078 78.0271 68.3964 76.8786 66.706C76.007 65.4231 74.5321 64.6849 73.0574 64.2046C71.3298 63.6802 69.5548 63.3274 67.7579 63.1515C65.3323 62.865 62.82 62.7131 60.4954 63.4628C58.1708 64.2126 56.0542 66.0467 55.6202 68.4504C55.5298 68.9511 55.5129 69.4639 55.4021 69.9605C55.1319 71.1719 54.3303 72.1902 53.8628 73.34C53.5255 74.1844 53.3688 75.0901 53.403 75.9988C53.4372 76.9074 53.6615 77.7988 54.0613 78.6155C54.7087 79.9175 55.8347 81.1687 55.5917 82.6024L57.5953 81.0225C57.8849 80.8579 58.1092 80.5991 58.2309 80.2891C58.3527 79.9791 58.3644 79.6368 58.2641 79.3192L57.9729 76.8104C57.9195 76.351 57.8731 75.8552 58.1028 75.4539C58.9934 73.8983 59.3807 76.4403 60.0785 76.3523Z" fill="#2F2E41"/>
<path opacity="0.1" d="M41.2445 124.58L43.6904 134.751C41.2237 134.839 37.96 134.886 34.5015 134.818C33.629 132.201 32.7955 129.472 32.1568 126.917C29.82 117.57 33.7147 103.289 35.7919 96.5383C37.8691 89.7875 43.062 87.9699 43.062 87.9699C43.062 87.9699 45.6585 88.7489 49.0339 91.0857C52.4094 93.4225 41.2445 124.58 41.2445 124.58Z" fill="black"/>
<path opacity="0.1" d="M43.3187 124.061L45.8659 134.649C45.2427 134.686 44.5105 134.719 43.6874 134.751C41.766 134.818 39.3617 134.862 36.7574 134.844C35.8201 132.063 34.9139 129.129 34.231 126.398C31.8942 117.05 35.7889 102.77 37.8661 96.019C39.9433 89.2682 44.4871 96.6681 44.4871 96.6681C44.4871 96.6681 42.6696 92.2541 46.045 94.5909C49.4204 96.9278 43.3187 124.061 43.3187 124.061Z" fill="black"/>
<path d="M44.0972 87.4506C44.0972 87.4506 38.9042 89.2682 36.827 96.019C34.7499 102.77 30.8552 117.05 33.192 126.398C35.5288 135.745 40.4621 147.429 40.4621 147.429C40.4621 147.429 45.3954 143.794 47.213 144.573L42.2797 124.061C42.2797 124.061 53.4445 92.9032 50.0691 90.5664C46.6937 88.2296 44.0972 87.4506 44.0972 87.4506Z" fill="#575A89"/>
<path d="M220.256 68.4146H96.2383V133.37H220.256V68.4146Z" fill="#3F3D56"/>
<path d="M160.557 116.223C168.308 116.223 174.592 109.929 174.592 102.164C174.592 94.3987 168.308 88.1041 160.557 88.1041C152.807 88.1041 146.523 94.3987 146.523 102.164C146.523 109.929 152.807 116.223 160.557 116.223Z" fill="white"/>
<path d="M160.558 85.708C157.24 85.708 153.998 86.6917 151.239 88.5347C148.481 90.3776 146.331 92.9971 145.062 96.0619C143.792 99.1267 143.46 102.499 144.107 105.753C144.755 109.006 146.352 111.995 148.698 114.34C151.043 116.686 154.032 118.283 157.285 118.931C160.539 119.578 163.911 119.246 166.976 117.976C170.041 116.707 172.66 114.557 174.503 111.799C176.346 109.04 177.33 105.798 177.33 102.48C177.317 98.0361 175.546 93.7775 172.403 90.6349C169.26 87.4923 165.002 85.721 160.558 85.708ZM157.114 111.423L148.519 102.827L150.93 100.416L157.122 106.609L170.194 93.5378L172.605 95.9488L157.114 111.423Z" fill="#4776E6"/>
</svg>
