<svg width="24" height="16" viewBox="0 0 24 16" fill="none" xmlns="http://www.w3.org/2000/svg">
<path fill-rule="evenodd" clip-rule="evenodd" d="M2 16H22C23.103 16 24 15.103 24 14V2C24 0.897 23.103 0 22 0H2C0.897 0 0 0.897 0 2V14C0 15.103 0.897 16 2 16ZM1 2C1 1.4485 1.4485 1 2 1H22C22.5515 1 23 1.4485 23 2V14C23 14.5515 22.5515 15 22 15H2C1.4485 15 1 14.5515 1 14V2Z" fill="black"/>
<path d="M12 11L3.2287 4.97641C2.99671 4.81668 2.93021 4.48873 3.0802 4.2425C3.2302 3.99627 3.53969 3.92622 3.77169 4.08489L12 9.73595L20.2283 4.08489C20.4603 3.92622 20.7698 3.99627 20.9198 4.2425C21.0698 4.48873 21.0033 4.81668 20.7713 4.97641L12 11Z" fill="black"/>
<path d="M2.54626 13C2.37009 13 2.19666 12.922 2.09194 12.7775C1.9245 12.5475 1.99213 12.2376 2.24301 12.0841L7.15159 9.08428C7.40248 8.93079 7.74117 8.99279 7.90806 9.22277C8.0755 9.45275 8.00787 9.76273 7.75699 9.91622L2.84841 12.916C2.75514 12.9725 2.64988 13 2.54626 13Z" fill="black"/>
<path d="M21.4537 13C21.3501 13 21.2449 12.9725 21.1516 12.916L16.243 9.91622C15.9921 9.76273 15.9245 9.45275 16.0919 9.22277C16.2588 8.99279 16.597 8.93079 16.8484 9.08428L21.757 12.0841C22.0079 12.2376 22.0755 12.5475 21.9081 12.7775C21.8033 12.922 21.6299 13 21.4537 13Z" fill="black"/>
</svg>
