<svg width="26" height="26" viewBox="0 0 26 26" fill="none" xmlns="http://www.w3.org/2000/svg">
<path fill-rule="evenodd" clip-rule="evenodd" d="M1 13C1 6.37258 6.37258 1 13 1C16.1826 1 19.2348 2.26428 21.4853 4.51472C23.7357 6.76515 25 9.8174 25 13C25 19.6274 19.6274 25 13 25C6.37258 25 1 19.6274 1 13ZM24.4375 13C24.4375 6.68324 19.3168 1.5625 13 1.5625C6.68581 1.5687 1.5687 6.68581 1.5625 13C1.5625 19.3168 6.68324 24.4375 13 24.4375C19.3168 24.4375 24.4375 19.3168 24.4375 13Z" fill="#0040DC"/>
<path d="M21.4853 4.51472L20.955 5.04505L21.4853 4.51472ZM13 1.5625V0.8125L12.9993 0.8125L13 1.5625ZM1.5625 13L0.8125 12.9993V13H1.5625ZM13 0.25C5.95837 0.25 0.25 5.95837 0.25 13H1.75C1.75 6.7868 6.7868 1.75 13 1.75V0.25ZM22.0156 3.98439C19.6245 1.5933 16.3815 0.25 13 0.25V1.75C15.9837 1.75 18.8452 2.93526 20.955 5.04505L22.0156 3.98439ZM25.75 13C25.75 9.61849 24.4067 6.37548 22.0156 3.98439L20.955 5.04505C23.0647 7.15483 24.25 10.0163 24.25 13H25.75ZM13 25.75C20.0416 25.75 25.75 20.0416 25.75 13H24.25C24.25 19.2132 19.2132 24.25 13 24.25V25.75ZM0.25 13C0.25 20.0416 5.95837 25.75 13 25.75V24.25C6.7868 24.25 1.75 19.2132 1.75 13H0.25ZM13 2.3125C18.9025 2.3125 23.6875 7.09746 23.6875 13H25.1875C25.1875 6.26903 19.731 0.8125 13 0.8125V2.3125ZM2.3125 13.0007C2.31829 7.10019 7.10019 2.31829 13.0007 2.3125L12.9993 0.8125C6.27144 0.819108 0.819108 6.27144 0.8125 12.9993L2.3125 13.0007ZM13 23.6875C7.09746 23.6875 2.3125 18.9025 2.3125 13H0.8125C0.8125 19.731 6.26903 25.1875 13 25.1875V23.6875ZM23.6875 13C23.6875 18.9025 18.9025 23.6875 13 23.6875V25.1875C19.731 25.1875 25.1875 19.731 25.1875 13H23.6875Z" fill="#0040DC"/>
<path d="M17.765 11H16.25C16.1119 11 16 10.7761 16 10.5C16 10.2239 16.1119 10 16.25 10H17.75C17.8881 10 18 10.2239 18 10.5C18 10.7761 17.8881 11 17.75 11H17.765Z" fill="#0040DC" stroke="#0040DC" stroke-width="1.5"/>
<path d="M9.75186 11H8.24814C8.1111 11 8 10.7761 8 10.5C8 10.2239 8.1111 10 8.24814 10H9.75186C9.8889 10 10 10.2239 10 10.5C10 10.7761 9.8889 11 9.75186 11Z" fill="#0040DC" stroke="#0040DC" stroke-width="1.5"/>
<path d="M13.4805 19C13.3067 19 13.1272 19 12.9458 18.9783C11.5719 18.8726 10.2511 18.3814 9.12341 17.5569C9.03937 17.4964 8.99268 17.3938 9.00094 17.2877C9.00919 17.1816 9.07113 17.0882 9.16343 17.0426C9.25573 16.997 9.36436 17.0062 9.4484 17.0667C10.4919 17.8299 11.7141 18.285 12.9855 18.3838C14.6019 18.4923 16.206 18.0281 17.5372 17.0667C17.6198 16.9963 17.7334 16.9802 17.831 17.0251C17.9286 17.07 17.9938 17.1683 17.9996 17.2793C18.0054 17.3903 17.9508 17.4954 17.8584 17.551C16.5727 18.4829 15.0467 18.988 13.4805 19Z" fill="#0040DC" stroke="#0040DC" stroke-width="1.5"/>
</svg>
