<svg version="1.1" id="Layer_1" xmlns="http://www.w3.org/2000/svg" x="0" y="0" viewBox="0 0 80.25 80.02" xml:space="preserve"><style>.st0{fill:#aeaeae}.st1{fill:#3a3a3a}</style><path class="st0" d="M35.21 4.85c-.01-.7-.59-1.25-1.28-1.24l-.39.01c-.26.01-.43.04-.66.06-.33.03-.89-.01-1.22-.02-.53-.02-1.04-.07-1.55-.11-1-.07-2.13-.13-3.11-.01-.42.05-.77.11-1.25.14-.6.03-1.25.02-1.87.02-1.19 0-2.39.02-3.57.06-1.19.04-2.3.16-3.54.15-1.55-.01-3.09-.19-4.64-.14-.56.02-1.07.08-1.6.12-.74.05-1.5.08-2.27.07-1.61-.01-3.11-.1-4.63-.2-.56-.03-1.13-.07-1.72-.06-.24 0-.47.02-.69.03l-.2.02h-.01c-.58.05-1 .57-.95 1.14.04.38.08.78.11 1.15.19 1.97.2 4.13.17 6.26-.03 1.82-.14 3.44-.23 5.21-.09 1.71 0 3.19.03 4.88.03 1.63-.16 3.1-.14 4.71.01 1.4.24 2.45.25 3.86.01 1.73-.12 3.36-.05 5.13.02.51.06 1.02.09 1.52l.01.12c.03.48.45.85.93.81.72-.05 1.43-.08 2.17-.02 1.01.08 2.3.22 3.39.1.27-.03.48-.07.78-.1.22-.01.44-.03.66-.04.73-.03 1.55-.03 2.29-.01.73.01 1.43.05 2.13.09.89.05 1.83.09 2.76.1.49 0 .97-.01 1.45-.01.33 0 .67 0 .98-.02.48-.03.93-.09 1.34-.15.52-.07 1.14-.15 1.48-.26.21-.07.21-.14.24-.21a.45.45 0 0 1 .19-.26c.11-.08.32-.15.32-.23.01-.12-.4-.23-.78-.32-.61-.15-1.23-.31-2.01-.42-.05.01-.12 0-.21-.01-.17-.02-.36-.07-.43-.08-.26 0-.64-.06-.87-.08-.4-.04-.68-.11-1.08-.14-.74-.07-1.59-.02-2.38-.04-.23-.01-.44-.03-.68-.02h-.71c-.26 0-.48 0-.73.01-.44.02-.89 0-1.3.05-.42.03-.82.07-1.23.11-.1.01-.21.03-.33.04h-.2c-.05.01-.11.01-.15.02h-.58c-.22 0-.33.01-.56 0-.59-.02-1.16-.04-1.75-.07-.78-.04-1.58-.09-2.41-.09-.24 0-.48.01-.73.01a69.99 69.99 0 0 0-.1-3.58c-.06-1.19-.19-2.27-.26-3.43-.06-1.01.02-1.81.11-2.72.16-1.57.28-3.18.34-4.93.13-3.79-.02-7.55-.04-11.35-.01-1.4 0-2.84.06-4.23.73.05 1.46.09 2.23.07.97-.03 1.58-.19 2.44-.27 1.46-.13 2.88.14 4.3.18 1.54.06 3-.04 4.48.1.51-.22 2.04-.04 2.85.02.67.05 1.01.02 1.65-.03.45-.03.94-.02 1.41-.02.95 0 2.02.02 2.93-.04.43-.03.59-.12.97-.17.5-.07 1.13-.05 1.69-.04h2.75c.39-.01.79-.02 1.18-.04.25 0 .48.01.74.01.29-.01.58-.02.86-.02.01.85.03 1.71.1 2.49.09 1.02.26 1.72.46 2.18.19.46.41.74.63.75.19.01.37-.3.55-.67.21-.58.32-1.71.4-2.82 0-.09.01-.19.01-.27.01-.12.03-.2.05-.3.04-.24.06-.59.09-.86.02-.28.04-.62.04-.92V4.85z"/><path class="st1" d="M29.99 11.79c0-.11.01-.25-.03-.29 0-.13-.01-.25-.07-.28-.06-.03-.15 0-.22-.02-.1-.02-.18-.1-.28-.13-.07-.02-.17.03-.29.1-.14.09-.28.21-.44.38l-.15.16-.57.6c-.2.22-.5.64-.71.99-.08.15-.16.28-.24.43-.13.22-.27.42-.41.62-.15.21-.31.44-.46.66-.48.68-1.01 1.38-1.43 2.17-.38.72-.51 1.23-.81 1.9-.51 1.12-1.35 2.02-1.99 3.01-.71 1.09-1.24 2.19-2 3.18-.03.48-.84 1.49-1.23 2.05-.33.46-.44.72-.68 1.2-.09.19-.2.38-.31.56a1.82 1.82 0 0 1-.19-.14c-.33-.27-.67-.67-.98-1.03l-1.54-1.72c-.28-.31-.55-.55-.83-.86-.31-.35-.59-.66-.92-1-.18-.18-.34-.36-.51-.55-.57-.67-1.2-1.37-1.79-1.84-.66-.52-1.17-.73-1.54-.82-.47-.11-.77 0-.74.44.02.43.33 1.15.94 2.04.18.27.4.56.63.84.38.46.79.92 1.21 1.35.4.41.74.79 1.09 1.24.7.92 1.45 2.02 2.35 2.77.27.23.52.4.81.69.36.35.72.77 1.06 1.16l.39.43.01.01c.08.09.18.17.28.23.57.33 1.3.14 1.63-.43.41-.7.8-1.41 1.17-2.11.47-.88.84-1.75 1.37-2.63.67-1.12 1.48-2.13 2.1-3.28.22-.42.39-.81.58-1.21.26-.55.57-1.11.9-1.67.69-1.16 1.41-2.2 2.15-3.25.26-.38.54-.77.78-1.21.27-.48.46-.94.66-1.4.13-.28.25-.55.39-.83.12-.23.2-.41.32-.64.02-.05.06-.13.08-.17.01-.03 0-.03.01-.06.02-.06.08-.15.12-.22.03-.06.04-.11.08-.18V13c.03-.06.1-.19.13-.25.03-.08.01-.09.04-.16.01-.04.05-.09.06-.13.01-.03 0-.04.01-.06 0-.04-.01-.06-.01-.11 0-.08.02-.17.01-.24 0-.08.01-.18.01-.26zM74.36 58.63c0-.11.01-.25-.03-.29 0-.13-.01-.25-.07-.28-.06-.03-.15 0-.22-.02-.1-.02-.18-.1-.28-.13-.07-.02-.17.03-.29.1-.14.09-.28.21-.44.38l-.15.16-.57.6c-.2.22-.5.64-.71.99-.08.15-.16.28-.24.43-.13.22-.27.42-.41.62-.15.21-.31.44-.46.66-.48.68-1.01 1.38-1.43 2.17-.38.72-.51 1.23-.81 1.9-.51 1.12-1.35 2.02-1.99 3.01-.71 1.09-1.24 2.19-2 3.18-.03.48-.84 1.49-1.23 2.05-.33.46-.44.72-.68 1.2-.09.19-.2.38-.31.56a1.82 1.82 0 0 1-.19-.14c-.33-.27-.67-.67-.98-1.03l-1.54-1.72c-.28-.31-.55-.55-.83-.86-.31-.35-.59-.66-.92-1-.18-.18-.34-.36-.51-.55-.57-.67-1.2-1.37-1.79-1.84-.66-.52-1.17-.73-1.54-.82-.47-.11-.77 0-.74.44.02.43.33 1.15.94 2.04.18.27.4.56.63.84.38.46.79.92 1.21 1.35.4.41.74.79 1.09 1.24.7.92 1.45 2.02 2.35 2.77.27.23.52.4.81.69.36.35.72.77 1.06 1.16l.39.43.01.01c.08.09.18.17.28.23.57.33 1.3.14 1.63-.43.41-.7.8-1.41 1.17-2.11.47-.88.84-1.75 1.37-2.63.67-1.12 1.48-2.13 2.1-3.28.22-.42.39-.81.58-1.21.26-.55.57-1.11.9-1.67.69-1.16 1.41-2.2 2.15-3.25.26-.38.54-.77.78-1.21.27-.48.46-.94.66-1.4.13-.28.25-.55.39-.83.12-.23.2-.41.32-.64.02-.05.06-.13.08-.17.01-.03 0-.03.01-.06.02-.06.08-.15.12-.22.03-.06.05-.11.08-.18v-.03c.03-.06.1-.19.13-.25.03-.08.01-.09.04-.16.01-.04.05-.09.06-.13.01-.03 0-.04.01-.06 0-.04-.01-.06-.01-.11 0-.08.02-.17.01-.24 0-.08.01-.18.01-.26z"/><path class="st0" d="M20.37 51.21c-.3-.21-.89-.32-1.46-.4-.05 0-.09-.01-.14-.01-.06-.01-.1-.03-.15-.05-.12-.04-.3-.06-.45-.09-.15-.02-.32-.04-.48-.04-.18 0-.37-.01-.55 0-.13.01-.22.04-.34.06-.17.03-.46-.01-.63-.02-.28-.02-.54-.07-.8-.11-.52-.07-1.1-.13-1.61-.01-.22.05-.4.11-.65.14-.31.03-.65.02-.97.02-.62 0-1.24.02-1.84.06-.62.04-1.19.16-1.83.15-.8-.01-1.6-.19-2.4-.14-.29.02-.55.08-.83.12-.38.06-.77.08-1.17.07-.83-.01-1.61-.1-2.4-.2-.16-.02-.32-.03-.46-.05h-.03a1.07 1.07 0 0 0-1.14.98v.21c-.01.14-.02.28-.01.43.01.34.09.64.14.95.19 1.02.2 2.14.17 3.23-.03.94-.14 1.78-.23 2.69-.09.88 0 1.65.03 2.52.03.84-.16 1.6-.14 2.44.01.73.24 1.27.25 1.99.01.9-.12 1.74-.05 2.65.04.64.21 1.26.11 1.9-.08.52-.22 1.19-.1 1.75.03.14.07.25.1.41.02.11.03.22.04.34.03.38.03.8.01 1.18-.01.38-.05.74-.09 1.1-.05.46-.09.94-.1 1.43-.01.25 0 .5.01.75 0 .17 0 .34.02.51.03.25.09.48.15.69.07.27.15.59.26.77.07.11.14.11.21.12.09.02.18.04.26.1.08.05.15.17.23.17.12 0 .23-.21.32-.41.15-.31.31-.64.42-1.04-.01-.02 0-.06.01-.11.02-.09.07-.19.08-.22 0-.13.06-.33.08-.45.04-.2.11-.35.14-.56.07-.38.02-.82.04-1.23.01-.12.03-.23.02-.35v-.37c0-.13 0-.25-.01-.38-.02-.23 0-.46-.05-.67-.04-.22-.08-.42-.12-.63-.01-.05-.03-.11-.04-.17v-.1c0-.02-.01-.06-.02-.08-.01-.1.01-.2 0-.3 0-.11-.01-.17 0-.29.04-.29.04-.6.07-.9.04-.41.09-.81.09-1.24-.01-.4-.03-.82-.04-1.23-.01-.72-.03-1.43-.11-2.13-.06-.62-.19-1.17-.26-1.77-.06-.52.02-.94.11-1.41.16-.81.28-1.65.34-2.55.13-1.96-.02-3.9-.04-5.87-.01-.76.02-1.53.08-2.29.37-.06.66-.17 1.03-.24.75-.13 1.49.14 2.22.18.8.06 1.55-.04 2.31.1.26-.22 1.05-.04 1.47.02.35.05.52.02.85-.03.24-.03.49-.02.73-.02.49 0 1.04.02 1.52-.04.22-.03.3-.12.5-.17.26-.07.58-.05.88-.04h1.42c.21 0 .4-.04.61-.04.13 0 .25.02.38.01.44-.02.91-.05 1.34-.07.51-.01 1.03-.02 1.5-.11.53-.09.89-.26 1.12-.46.24-.19.38-.41.39-.63.03-.17-.13-.34-.32-.52zM45.31 67.61c.02-.03.03-.06.05-.08.04-.05.09-.08.13-.11.06-.04.13-.07.2-.08.1-.01.2 0 .31-.01.07-.01.13-.03.2-.03s.14.03.2.07c.06.01.12.05.18.08.04.03.08.06.13.08.04.02.08.05.12.07l.06.03c.01.01.02.01.03.02.01.01.01.03.02.05.01.02.04.02.05.05.01.02.01.07.01.1l.01.01c0 .03.01.04.02.07.01.03 0 .06.01.09.01.01.02.01.03.02.01.01.02.05.02.06.03.08.02.17.05.25.03.1.06.21.1.31.04.09.04.21.05.32.02.26.01.51 0 .77-.02.51-.08 1.01-.09 1.52-.02.71.06 1.41.05 2.12-.01.41-.02.81 0 1.21.02.58.08 1.16.12 1.75.04.66.08 1.34.04 2.01-.01.16-.03.32-.06.48-.04.25-.09.55-.21.75-.11.19-.3.32-.47.39-.28.12-.58.08-.85-.06-.22-.11-.46-.28-.6-.57-.13-.26-.12-.58-.1-.88.01-.09 0-.17-.01-.26-.03-.21-.01-.42-.04-.63-.03-.22-.01-.44-.01-.66-.01-.47-.03-.94-.06-1.41s-.05-.94-.08-1.41-.04-.94-.04-1.41.01-.94.06-1.41c.01-.06.01-.12.02-.18.04-.34.08-.68.09-1.03.01-.27.01-.54-.01-.82-.01-.28.01-.55.02-.82 0-.13-.01-.26.04-.37.06-.13.14-.25.21-.37-.02-.04-.01-.06 0-.08zM79.22 50.57l-.35-.04c-.32-.04-.65-.06-.98-.04-.5.03-.81.19-1.26.27-.75.13-1.49-.14-2.22-.18-.8-.06-1.55.04-2.31-.1-.26.22-1.05.04-1.47-.02-.35-.05-.52-.02-.85.03-.24.03-.49.02-.73.02-.49 0-1.04-.02-1.52.04-.22.03-.3.12-.5.17-.26.07-.58.05-.88.04h-1.42c-.21 0-.4.04-.61.04-.13 0-.25-.02-.38-.01-.44.02-.91.05-1.34.07-.51.01-1.03.02-1.5.11-.53.09-.89.26-1.12.46-.24.19-.38.41-.39.63 0 .19.16.37.35.55.3.21.89.32 1.46.4.05 0 .09.01.14.01.06.01.1.03.15.05.12.04.3.06.45.09.15.02.32.04.48.04.18 0 .37.01.55 0 .13-.01.22-.04.34-.06.17-.03.46.01.63.02.28.02.54.07.8.11.52.07 1.1.13 1.61.01.22-.05.4-.11.65-.14.31-.03.65-.02.97-.02.62 0 1.24-.02 1.84-.06.62-.04 1.19-.16 1.83-.15.8.01 1.6.19 2.4.14.29-.02.55-.08.83-.12.38-.06.77-.08 1.17-.07.6.01 1.17.06 1.74.13l.06.31c.19 1.02.2 2.14.17 3.23-.03.94-.14 1.78-.23 2.69-.09.88 0 1.65.03 2.52.03.84-.16 1.6-.14 2.44.01.73.24 1.27.25 1.99.01.9-.12 1.74-.05 2.65.04.64.21 1.26.11 1.9-.08.52-.22 1.19-.1 1.75.03.14.07.25.1.41.02.11.03.22.04.34.03.38.03.8.01 1.18-.01.38-.05.74-.09 1.1-.05.46-.09.94-.1 1.43-.01.25 0 .5.01.75 0 .17 0 .34.02.51.03.25.09.48.15.69.07.27.15.59.26.77.07.11.14.11.21.12.09.02.18.04.26.1.08.05.15.17.23.17.12 0 .23-.21.32-.41.15-.31.31-.64.42-1.04-.01-.02 0-.06.01-.11.02-.09.07-.19.08-.22 0-.13.06-.33.08-.45.04-.2.11-.35.14-.56.07-.38.02-.82.04-1.23.01-.12.03-.23.02-.35v-.37c0-.13 0-.25-.01-.38-.02-.23 0-.46-.05-.67-.04-.22-.08-.42-.12-.63-.01-.05-.03-.11-.04-.17v-.1c0-.02-.01-.06-.02-.08-.01-.1.01-.2 0-.3 0-.11-.01-.17 0-.29.04-.29.04-.6.07-.9.04-.41.09-.81.09-1.24-.01-.4-.03-.82-.04-1.23-.01-.72-.03-1.43-.11-2.13-.06-.62-.19-1.17-.26-1.77-.06-.52.02-.94.11-1.41.16-.81.28-1.65.34-2.55.13-1.96-.02-3.9-.04-5.87-.01-1.02.01-2.08.15-3.05l.09-.62v-.02c.07-.66-.39-1.24-1.03-1.32z"/><path class="st1" d="M20.48 75.6c0-.02.02-.04.02-.06 0-.01-.01-.03-.01-.04-.01-.03-.02-.04-.03-.07-.02-.05-.02-.1-.05-.15-.02-.05-.04-.1-.06-.16-.03-.07-.05-.15-.1-.19-.03-.08-.06-.15-.12-.19-.06-.03-.13-.04-.2-.06-.1-.04-.18-.1-.27-.14-.06-.03-.14-.02-.22 0-.1.02-.2.06-.3.13l-.09.06-.36.24c-.13.09-.29.28-.39.45-.04.07-.06.14-.11.21-.06.1-.14.2-.21.29-.07.08-.14.17-.21.25-.11-.19-.21-.37-.34-.54-.37-.5-.84-.87-1.13-1.41-.3-.01-.58-.59-.76-.86-.15-.23-.26-.31-.46-.48a3.78 3.78 0 0 1-.39-.41c-.26-.28-.53-.62-.82-.85-.14-.11-.25-.1-.39-.18-.18-.11-.34-.31-.49-.48l-.74-.83c-.14-.15-.28-.25-.41-.4-.15-.17-.28-.32-.45-.47-.09-.08-.17-.17-.25-.26-.27-.33-.56-.67-.9-.85-.37-.2-.71-.22-.98-.19-.33.04-.59.2-.69.51-.09.3-.04.74.19 1.21.07.15.16.29.27.44.17.23.37.45.58.65.2.19.37.37.51.6.3.47.59 1.07 1.09 1.37.15.09.29.15.44.28.19.16.35.36.52.55.32.36.66.7 1.01 1.03.35.33.74.59 1.07.96.41.47.69 1.06 1.14 1.49.17.16.34.27.52.4.24.18.46.4.66.63.25.28.46.57.66.87.05.07.11.14.18.19.39.32.97.26 1.28-.14l.18-.22c.16-.19.33-.4.5-.61.14-.17.29-.35.4-.56.12-.24.18-.48.25-.71.05-.15.09-.27.15-.42.03-.11.1-.21.13-.32.01-.02.03-.07.03-.09 0-.02-.01-.02-.01-.04.01-.03.04-.07.05-.11.01-.03.01-.06.03-.09l-.01-.02c.02-.03.05-.1.06-.13.04-.03.02-.04.03-.08zM38.8 62.65c-.07-.31-.17-.66-.28-1.01-.02-.06-.04-.11-.06-.17-.01-.05-.03-.13-.05-.19-.04-.15-.13-.36-.2-.53a5.4 5.4 0 0 0-.26-.55c-.12-.19-.26-.39-.4-.57-.11-.13-.2-.21-.3-.32-.16-.21-.35-.45-.48-.63-.22-.27-.38-.58-.61-.83-.21-.26-.45-.52-.7-.77-.27-.23-.55-.43-.84-.58-.24-.14-.48-.2-.76-.35-.35-.19-.69-.43-1.06-.61-.68-.38-1.42-.64-2.16-.85-.38-.09-.75-.16-1.12-.22a15.5 15.5 0 0 1-1.14-.15c-.45-.07-.96-.14-1.48-.22-.5-.02-1.01-.1-1.5 0-.36.06-.68.15-1.01.23-.41.14-.83.25-1.27.35-.38.08-.68.42-.69.83v.18c-.04.96-.16 1.85-.29 2.75-.05.32-.09.66-.09 1.01 0 .39.06.74.11 1.09.15 1.17.13 2.46.05 3.72-.06 1.08-.2 2.04-.33 3.09-.12 1.01-.06 1.9-.06 2.9 0 .97-.21 1.84-.23 2.8v.38c0 .22.07.45.2.64.36.54 1.09.68 1.63.31.62-.42 1.04-.87 1.69-1.28.91-.55 1.85-.96 2.75-1.57.63-.43 1.14-.92 1.87-1.24.59-.26 1.38-.58 1.86-1 .12-.11.2-.2.34-.31.1-.08.2-.16.31-.24.36-.25.79-.51 1.19-.73.39-.22.79-.42 1.19-.63.51-.26 1.03-.54 1.53-.83.25-.16.5-.31.75-.47.17-.11.35-.21.5-.32.22-.17.4-.34.57-.49.21-.2.46-.42.54-.57.05-.09-.02-.12-.07-.16-.06-.04-.13-.09-.15-.16-.01-.04-.01-.09-.02-.13l.04-.03c-.02-.07-.04-.13-.06-.19.05.03.1.05.14.07.18.06.32-.09.43-.39.07-.23.06-.65-.02-1.06z"/><path class="st0" d="M54.9 4.73c.02-.02.04-.03.04-.05.21-.14.45-.22.66-.3.13-.05.29-.1.39-.04.07.04.1.13.15.2.06.07.13.13.2.18.06.04.12.08.15.17.04.14.02.34 0 .5-.01.13-.03.28-.07.41-.02.1-.07.19-.12.27-.07.13-.13.25-.21.37-.15.23-.32.45-.49.65-.14.16-.28.31-.39.49-.12.18-.24.39-.33.59-.03.06-.04.13-.06.19-.02.09-.02.16-.03.25-.06.33-.37.59-.59.8-.27.27-.31.65-.45.99-.2.48-.56.82-.8 1.27-.19.36-.16.74-.35 1.1-.22.41-.6.69-.81 1.12-.22.44-.36.86-.69 1.25-.34.4-.67.76-.96 1.2-.34.52-.65 1.08-.78 1.67-.04.18-.06.36-.15.54-.08.15-.19.28-.3.4-.31.34-.61.67-.85 1.07-.12.19-.21.4-.27.61-.04.15-.07.31-.14.46-.19.42-.57.71-.81 1.1-.19.31-.25.65-.39.97-.14.32-.29.63-.47.93-.09.16-.2.31-.26.48-.05.14-.05.26-.06.39-.04.31-.26.56-.47.78-.11.11-.22.22-.32.34-.06.08-.17.2-.2.3-.02.07-.02.13-.05.2-.04.09-.1.18-.15.27a1.508 1.508 0 0 1-.37.38c-.03.02-.06.03-.08.05-.02.02-.03.04-.05.06-.23.24-.49.47-.76.51-.21 0-.41-.01-.58-.11-.18-.11-.33-.29-.43-.5-.1-.21-.15-.48-.07-.78.06-.27.2-.53.33-.79.12-.23.21-.46.32-.69.03-.07.08-.12.12-.18.06-.1.09-.21.14-.32.13-.23.27-.47.41-.69.09-.14.19-.29.21-.45.01-.12-.04-.21 0-.33.08-.26.26-.52.4-.76.07-.12.15-.24.19-.37.06-.18.08-.28.22-.43.17-.18.54-.47.43-.71.34-.3.47-.72.75-1.08.25-.33.69-.56.79-.99.06-.26.01-.49.13-.75.12-.29.36-.51.56-.72.39-.4.72-.91 1-1.42.54-.97.97-2 1.64-2.89.31-.41.65-.76 1.02-1.07.21-.18.4-.35.49-.63.11-.33.16-.67.28-1 .13-.38.32-.73.52-1.1.11-.2.2-.42.31-.62.12-.21.28-.38.43-.56.11-.13.2-.28.31-.41.04-.05.05-.08.08-.14.02-.05.07-.09.09-.14.01-.01 0-.03.01-.05.01-.02.02-.03.03-.05.01-.03.01-.07.02-.1.02-.12.05-.25.08-.37.02-.12.1-.23.15-.35.03-.07.06-.13.1-.19.04-.06.07-.12.1-.18s.08-.1.12-.16c.13-.19.22-.43.38-.58.09-.08.19-.12.28-.2.05-.05.16-.11.2-.18.01-.02.08-.05.13-.08zM69.63 3.14c.03-.02.05-.05.05-.07.25-.21.52-.33.76-.47.15-.08.33-.17.43-.1.07.04.09.15.14.23.05.08.12.14.19.2.06.05.12.08.14.19.03.17-.03.42-.07.63-.03.17-.07.35-.14.53-.05.12-.12.23-.18.34-.09.17-.18.33-.28.49-.19.31-.41.6-.63.88-.17.22-.34.43-.5.67-.16.24-.32.52-.44.78-.04.08-.06.16-.09.24-.04.11-.04.21-.07.31-.11.43-.49.79-.76 1.09-.34.37-.43.86-.63 1.3-.29.63-.72 1.11-1.05 1.7-.26.48-.28.95-.54 1.43-.3.55-.75.95-1.05 1.52-.31.59-.52 1.13-.93 1.66-.42.55-.84 1.04-1.22 1.64-.45.7-.86 1.44-1.08 2.19-.07.23-.12.46-.24.69-.11.2-.25.38-.39.55-.38.46-.76.92-1.08 1.46-.16.26-.29.53-.38.8-.07.2-.12.4-.21.6-.26.55-.73.97-1.04 1.49-.25.41-.36.85-.56 1.27-.2.42-.41.84-.65 1.23-.12.21-.26.42-.35.64-.07.18-.09.33-.12.49-.09.39-.36.74-.62 1.04-.13.15-.27.3-.4.47-.08.1-.22.28-.26.4-.03.09-.04.16-.08.25-.06.12-.14.24-.2.36-.06.1-.14.21-.22.29-.07.08-.17.19-.24.25-.03.03-.07.04-.1.08-.02.02-.04.06-.06.09-.29.33-.6.66-.9.75-.23.04-.44.05-.61-.05-.18-.11-.32-.32-.4-.57-.08-.25-.09-.57.03-.96.11-.35.3-.69.48-1.03.16-.3.29-.61.45-.91.05-.09.11-.16.16-.24.08-.13.12-.28.2-.42.17-.31.36-.62.54-.93.11-.19.25-.39.29-.59.03-.15-.01-.25.04-.41.13-.34.35-.69.54-1.01.09-.16.2-.32.26-.49.09-.24.13-.36.3-.57.21-.25.66-.67.57-.95.41-.42.62-.96.97-1.46.32-.45.83-.8 1-1.36.1-.33.09-.61.25-.96.18-.38.46-.68.72-.98.48-.56.91-1.24 1.29-1.91.73-1.29 1.34-2.63 2.2-3.85.4-.56.82-1.04 1.27-1.49.26-.26.48-.49.63-.86.17-.43.27-.86.45-1.29.2-.49.46-.97.72-1.44.15-.27.28-.56.43-.82.16-.28.36-.52.55-.77.14-.18.26-.38.4-.56.06-.07.07-.11.11-.19.03-.06.09-.13.12-.19.01-.02.01-.04.01-.06.01-.02.03-.04.04-.07.02-.04.02-.09.03-.13.04-.16.09-.32.14-.47.04-.16.15-.31.21-.46.03-.08.08-.16.13-.24.05-.08.09-.16.14-.24.05-.08.1-.14.15-.22.17-.26.3-.56.5-.78.11-.12.23-.18.34-.29.06-.07.19-.16.24-.25.02-.02.1-.07.16-.11z"/><path class="st1" d="M78.29 13.75c-.07-.06-.14-.11-.19-.19-.05-.07-.07-.18-.14-.22-.1-.06-.27.01-.42.09-.24.12-.5.24-.74.43 0 .02-.02.04-.05.06-.05.04-.13.08-.15.1-.04.09-.17.18-.23.24-.11.11-.22.17-.33.28-.2.21-.32.5-.48.74-.05.07-.1.13-.15.21-.04.08-.08.16-.13.23-.05.08-.09.15-.13.24-.06.15-.16.29-.2.44-.04.15-.09.3-.12.45-.01.04-.01.08-.03.13-.01.02-.03.04-.04.07-.01.02-.01.04-.01.06-.03.06-.08.12-.11.18-.04.07-.05.11-.1.18-.14.16-.25.36-.38.53-.18.23-.38.46-.53.73-.14.25-.27.53-.41.79-.25.46-.49.91-.68 1.38-.17.42-.26.82-.42 1.24-.14.36-.35.58-.6.82-.43.42-.84.88-1.22 1.41-.82 1.16-1.4 2.44-2.1 3.68-.36.64-.77 1.29-1.24 1.82-.25.28-.52.57-.69.93-.15.33-.13.6-.23.92-.16.54-.66.86-.96 1.29-.34.47-.53.99-.93 1.39.09.27-.35.68-.55.91-.17.19-.2.32-.29.54-.06.16-.16.31-.25.46-.18.31-.4.64-.51.97-.06.15-.01.25-.04.4-.04.19-.17.39-.28.57-.17.29-.35.59-.52.89-.07.13-.11.27-.19.4-.05.08-.11.15-.15.23-.15.29-.27.58-.43.87-.17.32-.35.65-.45.99-.11.38-.1.69-.01.93.08.24.22.45.4.56.17.1.38.09.6.06.29-.08.6-.39.88-.71.02-.02.04-.06.06-.08a.36.36 0 0 1 .1-.07c.08-.06.17-.16.24-.23.07-.08.15-.18.21-.28.06-.11.14-.22.19-.34.04-.09.04-.16.07-.24.04-.12.17-.28.25-.38.12-.16.26-.3.38-.45.25-.29.52-.62.59-1 .03-.16.05-.3.11-.48.08-.21.22-.41.34-.61.23-.38.43-.78.61-1.18.19-.4.29-.82.53-1.22.3-.5.75-.9 1-1.42.09-.19.13-.38.2-.57.09-.26.21-.52.36-.77.31-.52.67-.95 1.04-1.39.13-.16.27-.33.37-.52.11-.22.16-.44.22-.66.21-.73.6-1.43 1.03-2.1.37-.57.77-1.04 1.17-1.56.4-.51.6-1.03.89-1.59.28-.54.72-.92 1.01-1.45.25-.46.26-.91.51-1.37.31-.57.73-1.02 1.01-1.63.19-.42.27-.89.6-1.24.26-.28.62-.63.73-1.04.03-.1.03-.19.06-.3.02-.08.05-.16.09-.23a6.197 6.197 0 0 1 .9-1.39c.21-.26.42-.54.6-.84.1-.15.18-.31.26-.47.06-.11.13-.21.17-.33.06-.17.09-.35.12-.51.04-.2.09-.44.06-.61-.03-.08-.09-.12-.15-.17zM44.98.56c-.08-.41-.29-.64-.67-.54-.36.09-.88.47-1.43 1.13-.17.2-.34.43-.5.67-.26.4-.5.82-.72 1.24-.21.4-.41.75-.67 1.12-.54.74-1.22 1.55-1.54 2.44-.1.26-.16.5-.3.79-.17.36-.4.73-.61 1.08-.4.68-.78 1.38-1.14 2.08-.36.7-.63 1.4-1.05 2.11-.52.89-1.2 1.68-1.68 2.59-.17.33-.29.65-.44.98-.2.45-.43.89-.7 1.34-.55.92-1.13 1.73-1.72 2.56-.21.3-.44.61-.62.95-.21.38-.34.76-.49 1.12-.09.22-.2.45-.29.67-.07.17-.17.35-.24.52-.02.04-.05.11-.06.14-.01.02.01.03 0 .05-.02.05-.06.12-.09.18-.02.05-.03.09-.06.14v.02c-.03.05-.08.16-.1.2-.02.06 0 .08-.02.13-.01.03-.03.07-.04.1v.05c0 .04.01.05.02.09 0 .07 0 .15.01.2.02.06.01.14.02.21.01.1.01.21.06.25.01.11.03.21.09.25.06.03.14.02.21.04.1.03.18.1.27.14.06.03.16-.01.26-.06.13-.06.25-.15.39-.28.04-.04.08-.08.13-.12.16-.16.32-.29.48-.46.17-.17.42-.5.58-.78.07-.12.11-.23.18-.35.1-.17.21-.33.32-.49.12-.18.25-.35.37-.51.39-.53.82-1.08 1.14-1.71.3-.58.36-1 .58-1.53.37-.9 1.08-1.59 1.6-2.37.56-.86.97-1.74 1.59-2.52-.02-.4.65-1.19.97-1.63.27-.36.35-.57.53-.96.13-.28.3-.55.46-.82.32-.54.69-1.15.94-1.7.12-.26.09-.4.18-.64.11-.32.34-.67.53-.99.31-.52.62-1.05.92-1.58.16-.29.27-.55.44-.84.19-.32.36-.61.53-.94.1-.18.2-.35.3-.52.37-.59.75-1.23.94-1.81.21-.64.2-1.1.14-1.43z"/><path class="st0" d="M59.93 41.47c-.03-.27-.03-.51-.12-.78-.07-.25-.17-.55-.31-.77-.25-.4-.44-.75-.72-1.16-.33-.45-.71-.8-1.18-1.06-.36-.22-.68-.38-1.09-.59-.74-.32-1.6-.4-2.32-.24-.38.05-.71.19-1.05.29-.31.14-.64.26-.92.41-1.28.69-.93 1.58-2.02 2.23-.27.13-1.01.52-1.6.86.03-.08.07-.16.08-.22.08-.32.12-.66.2-.98.15-.72.35-1.65.33-2.42 0-.91.32-1.21.02-2.12-.38-.98-.91-1.81-1.7-2.68-.32-.3-.66-.62-1.11-.8-.21-.1-.43-.16-.65-.2-.22-.05-.44-.1-.66-.1-.77-.1-1.49.06-2.13.28-.27.12-.52.25-.76.38-.24.16-.48.31-.68.45-.38.28-.75.37-1.14.54-.38.14-.75.32-1.11.53.11-.61.12-1.2.26-1.82-.21-.25-.05-.99-.06-1.41.02-.34-.06-.52-.17-.83-.07-.22-.13-.47-.21-.71-.15-.48-.38-1.04-.74-1.45-.17-.19-.29-.21-.46-.34-.26-.16-.46-.45-.73-.64-.43-.35-.86-.54-1.29-.73-.22-.12-.46-.13-.71-.2-.28-.08.3.34.01.29-.48-.17-1.81.09-2.2.12-.26-.04-.52.02-.79.06-.24.03-.47.19-.69.29-.05.01-.81.23-.8.25 0 0-.34.11-.71.29-.35.19-.77.4-.9.54-.35.29-1.03 1.01-1.31 1.35-.41.49-.4.02-.75.57-.15.26-.24.23-.43.42-.3.3-.36.62-.43.95-.04.17-.05.39-.16.59-.11.21-.26.29-.39.4-.32.31-.2.63-.34 1.03-.06.19-.14.34-.17.53-.04.21-.01.4-.02.61-.03.55-.29.83-.48 1.29-.23.55-.23 1.05-.26 1.61-.04.53-.14 1.01-.22 1.53-.03.19-.03.39-.05.58-.03.38-.1.75-.15 1.11-.07.53-.11 1.08-.19 1.6-.04.23-.09.42-.1.66 0 .22-.03.46-.01.67.05.37.02.69-.02 1.06-.04.42-.03.8.01 1.21.03.33.02.59-.03.91-.15 1.14.03 2.36.06 3.51.03 1.26-.54 2.63-.72 3.88-.06.45.08.89 0 1.33-.02.14-.04.25-.06.37.07-.03.14-.07.21-.08.44-.1.86-.21 1.27-.35.33-.08.65-.17 1.01-.23.5-.09 1.01-.02 1.5 0 .52.08 1.03.15 1.48.22.39.07.76.12 1.14.15.37.06.74.13 1.12.22.73.21 1.48.47 2.16.85.37.17.71.42 1.06.61.28.15.52.22.76.35.29.15.58.36.84.58.25.25.48.52.7.77.23.25.39.55.61.83.14.18.32.42.48.63.1.11.19.19.3.32.14.18.27.38.4.57.1.18.19.38.26.55.07.17.16.38.2.53.02.06.03.14.05.19.02.06.04.11.06.17.11.35.21.69.28 1.01.08.4.1.83.04 1.05-.12.3-.25.45-.43.39-.04-.01-.09-.04-.14-.07.02.07.04.13.06.19l-.04.03c.01.03.01.07.02.11.04-.03.08-.04.12-.07.33-.26.47-.53.74-.79.46-.45 1.11-.57 1.65-.86.59-.32 1.06-.75 1.67-.98.06-.3.71-.53 1.03-.67.27-.13.37-.23.57-.42.15-.14.32-.25.49-.36.34-.23.73-.48 1.02-.76.13-.13.14-.25.24-.38.14-.18.38-.32.57-.46.23-.16.53-.33.74-.51.2-.17.44-.33.65-.49.15-.13.33-.28.5-.42.34-.28.71-.46 1.1-.68.45-.25.75-.52.92-.84.16-.3.27-.63.27-.87 0-.04-.02-.08-.03-.11.02-.01.05-.03.07-.04.02-.01.05-.03.07-.04 0 .03 0 .07.01.1.02.04.07.06.11.08.05.02.13.02.16.06.06-.03.08.02.11.02l.18.02c.1.02.22.02.38-.03.13-.04.26-.07.39-.1.14-.04.26-.08.41-.14.11-.04.15-.05.22-.03l.03.01c.15.03.33-.05.58-.18.08-.04.14-.1.22-.12.04-.04.11-.08.16-.1.05-.03.09-.05.14-.08.08-.04.17-.07.25-.12.05-.04.09-.07.14-.1.09-.06.2-.13.3-.2.05-.03.11-.09.16-.12.04-.03.11-.05.17-.08.04-.02.13-.07.16-.07.07-.07.11-.07.19-.12.09-.06.17-.14.26-.21.11-.07.2-.12.3-.22.19-.18.3-.38.39-.56.08-.16.17-.35.33-.52.17-.17.33-.2.49-.28.39-.21.38-.55.63-.91.11-.16.23-.29.32-.46.09-.2.11-.39.18-.59.17-.54.5-.76.79-1.2.36-.52.44-1.04.56-1.62.16-.65.25-1.05.38-1.59.04-.2.05-.41.08-.61.04-.4.1-.8.13-1.2.06-.67.01-1.29-.05-1.9zM34.99 74.59c-.02-.4 0-.81 0-1.21.01-.71-.06-1.41-.05-2.12.01-.51.07-1.01.09-1.52.01-.26.02-.51 0-.77-.01-.11-.01-.23-.05-.32-.04-.1-.06-.21-.1-.31-.03-.08-.02-.17-.05-.25-.01-.02-.01-.05-.02-.06-.01-.01-.02-.01-.03-.02-.01-.02-.01-.06-.01-.09a.145.145 0 0 1-.02-.07l-.01-.01c0-.02-.01-.08-.01-.1-.01-.03-.04-.03-.05-.05-.01-.01-.01-.03-.02-.05-.01-.01-.02-.01-.03-.02l-.06-.03a.473.473 0 0 0-.12-.07c-.02-.01-.03-.02-.05-.03-.33.17-.66.33-.99.52-.21.12-.43.25-.65.39v.02c0 .28-.03.55-.02.82.01.27.02.54.01.82-.01.35-.06.68-.09 1.03-.01.06-.01.12-.02.18-.04.47-.06.94-.06 1.41s.02.94.04 1.41c.03.47.05.94.08 1.41s.05.94.06 1.41c.01.22-.01.44.01.66.02.21.01.42.04.63.01.09.02.17.01.26-.02.3-.03.63.1.88.14.29.38.46.6.57.27.14.57.18.85.06.17-.07.36-.19.47-.39.12-.21.17-.5.21-.75.03-.16.05-.32.06-.48.05-.67.01-1.34-.04-2.01 0-.59-.05-1.17-.08-1.75z"/></svg>