<svg width="18" height="18" viewBox="0 0 18 18" fill="none" xmlns="http://www.w3.org/2000/svg">
<path d="M2.11644 0.611057V6.34352C0.906218 6.62216 0 7.70651 0 9.00015C0 10.2938 0.906218 11.3781 2.11644 11.6568L2.11644 17.3889C2.11644 17.7262 2.3902 18 2.72752 18C3.06483 18 3.33859 17.7262 3.33859 17.3889L3.33859 11.6565C4.54942 11.3778 5.45564 10.2938 5.45564 9.00015C5.45564 7.70651 4.54942 6.62247 3.33859 6.34382V0.611057C3.33859 0.273746 3.06483 -1.33514e-05 2.72752 -1.33514e-05C2.3902 -1.33514e-05 2.11644 0.273441 2.11644 0.611057ZM4.2335 9.00015C4.2335 9.83059 3.55766 10.5061 2.7269 10.5061C1.89707 10.5061 1.22214 9.83059 1.22214 9.00015C1.22214 8.19537 1.85735 7.54213 2.65205 7.5018C2.6771 7.50516 2.70154 7.50944 2.72752 7.50944C2.75318 7.50944 2.77762 7.50486 2.80268 7.50211C3.59768 7.54213 4.2335 8.19567 4.2335 9.00015Z" fill="#2A2A2A"/>
<path d="M13.7266 0.611057V1.88728C12.5164 2.16562 11.6099 3.24997 11.6099 4.54391C11.6099 5.83785 12.5164 6.9222 13.7266 7.20054V17.3889C13.7266 17.7262 14.0004 18 14.3377 18C14.675 18 14.9488 17.7262 14.9488 17.3889V7.20024C16.1593 6.92128 17.0655 5.83724 17.0655 4.54391C17.0655 3.25058 16.1593 2.16654 14.9488 1.88758V0.611057C14.9488 0.273746 14.675 -1.33514e-05 14.3377 -1.33514e-05C14.0004 -1.33514e-05 13.7266 0.273441 13.7266 0.611057ZM15.8434 4.54391C15.8434 5.37436 15.1675 6.0499 14.3368 6.0499C13.5069 6.0499 12.832 5.37436 12.832 4.54391C12.832 3.71347 13.5069 3.03793 14.3368 3.03793C15.1675 3.03793 15.8434 3.71347 15.8434 4.54391Z" fill="#2A2A2A"/>
<path d="M7.92144 0.611057L7.92144 10.7994C6.71121 11.0778 5.80469 12.1621 5.80469 13.4561C5.80469 14.75 6.71121 15.8344 7.92144 16.1127V17.3889C7.92144 17.7262 8.1952 18 8.53251 18C8.86982 18 9.14358 17.7262 9.14358 17.3889V16.1124C10.3541 15.8334 11.2603 14.7494 11.2603 13.4561C11.2603 12.1627 10.3541 11.0787 9.14358 10.7997V0.611057C9.14358 0.273746 8.86982 -1.33514e-05 8.53251 -1.33514e-05C8.1952 -1.33514e-05 7.92144 0.273441 7.92144 0.611057ZM10.0382 13.4561C10.0382 14.2865 9.36234 14.9621 8.53159 14.9621C7.70176 14.9621 7.02683 14.2865 7.02683 13.4561C7.02683 12.6256 7.70176 11.9501 8.53159 11.9501C9.36234 11.9501 10.0382 12.6256 10.0382 13.4561Z" fill="#2A2A2A"/>
</svg>
