<svg xmlns="http://www.w3.org/2000/svg" xmlns:xlink="http://www.w3.org/1999/xlink" width="490.074" height="435.421" viewBox="0 0 490.074 435.421"><defs><style>.a,.d,.h,.k{fill:#fff;}.a,.ae,.ag,.ah,.b,.e,.f,.g{stroke:#263238;}.a,.ae,.ag,.ah,.ak,.am,.b,.e,.f,.g,.n{stroke-linecap:round;stroke-linejoin:round;}.b,.p{fill:#c6ff00;}.c,.g{fill:#66a8de;}.d{opacity:0.7;}.ae,.ah,.am,.e,.n{fill:none;}.af,.an,.f{fill:#263238;}.i{clip-path:url(#a);}.ak,.j{fill:#d7dff2;}.k,.q{opacity:0.5;}.l{clip-path:url(#b);}.m{opacity:0.16;}.am,.n{stroke:#fff;}.o{clip-path:url(#c);}.r{clip-path:url(#d);}.ag,.s{fill:#e26b6d;}.t{clip-path:url(#e);}.u{clip-path:url(#f);}.v{clip-path:url(#g);}.w{clip-path:url(#h);}.x{clip-path:url(#i);}.y{clip-path:url(#j);}.z{clip-path:url(#k);}.aa{clip-path:url(#l);}.ab{clip-path:url(#m);}.ac{clip-path:url(#n);}.ad{clip-path:url(#o);}.ae{stroke-width:0.5px;}.ah{stroke-width:0.75px;}.ai{clip-path:url(#p);}.aj{clip-path:url(#q);}.ak{stroke:#d7dff2;}.al{fill:url(#r);}.am{stroke-width:3px;}.an{fill-rule:evenodd;}</style><clipPath id="a"><path class="a" d="M261.449,258.71c3.577-6.878,5.079-11.822,5.079-12.961,0-2.253-4.955-3.6-4.955-3.6-7.657-4.054-43.689,1.8-59.9,4.5a185.071,185.071,0,0,1-27.475,2.7s-2.251-1.8-4.955-4.054-15.313-17.115-20.268-18.467-9.459,1.8-9.459,1.8-8.107,4.955-6.756,5.854,21.169,18.016,26.124,21.17,15.313,1.8,24.321,3.6c7.756,1.55,39.185,3.467,46.393,4.054a26.136,26.136,0,0,0,16.214-1.352" transform="translate(-132.606 -226.495)"/></clipPath><clipPath id="b"><path class="a" d="M341.64,286.3a9.579,9.579,0,0,0-8.493-5.115H251.263s-5.919,0-4.143,11.246,26.044,79.906,31.962,100.623,7.1,64.517,7.1,64.517H384.44S376.568,352.985,341.64,286.3Z" transform="translate(-246.787 -281.188)"/></clipPath><clipPath id="c"><path class="a" d="M323.263,242.179a2.4,2.4,0,0,1-.017.257A2.416,2.416,0,0,0,323.263,242.179Zm-5.079,12.96a58.587,58.587,0,0,0,4.915-11.926A58.493,58.493,0,0,1,318.184,255.139Zm5.05-12.632c-.011.085-.023.171-.043.271C323.212,242.677,323.223,242.591,323.235,242.507Zm-.059.347c-.021.11-.044.225-.075.354C323.132,243.079,323.155,242.965,323.176,242.854Zm-4.991,12.286a111.955,111.955,0,0,1-16.991,23.971c-16.214,17.567-63.056,63.508-67.56,66.66s-3.154,12.161,0,21.169,14.863,22.07,14.412,36.483-4.955,36.483-4.5,40.987,11.711,19.817,11.711,19.817H139.047s14.476-18.4,14.476-24.7-19.881-87-20.781-92.851,2.7-9.909,9.908-10.36,34.681-6.3,36.033-10.809-7.206-21.619-7.206-21.619l27.025,1.352s1.35,11.71,3.152,13.962,4.5-2.251,10.809-5.4,18.467-5.856,22.971-9.459,47.743-44.14,47.743-44.14" transform="translate(-132.606 -242.179)"/></clipPath><clipPath id="d"><path class="a" d="M248.4,314.063c1.352-4.5-7.206-21.619-7.206-21.619l27.025,1.352s1.35,11.71,3.152,13.962,4.5-2.251,10.809-5.4c.481-.241,1-.478,1.547-.713l1.639,25.679s-2.367,24.86-30.779,20.125c-11.5-1.918-23.779-12.177-34.319-23.71C231.109,321.727,247.369,317.5,248.4,314.063Z" transform="translate(-220.268 -292.444)"/></clipPath><clipPath id="e"><path class="b" d="M154.762,314.625c1.8,2.253,4.5-2.251,10.809-5.4,3.987-1.994,10.309-3.807,15.562-5.782,1.487-3.517,3.447-8.114,4.707-10.884,2.251-4.953,5.854-1.8,5.854-1.8a26.2,26.2,0,0,0,4.5-7.207c2.253-4.953,5.856-4.5,10.81-5.4s15.313-10.36,15.313-10.36,4.848-3.631,6.859-5.511c2.326,4.595,7.918,12.67,19.992,17.709-19.254,20.124-58.337,58.351-62.431,61.217-4.5,3.152-3.154,12.161,0,21.169s14.863,22.07,14.412,36.483-4.955,36.483-4.5,40.987c.4,4.014,9.385,16.607,11.335,19.3l-4.578.518H179.574c.129-12.076.123-61.382-8.148-81.072C161.968,356.062,154.762,314.625,154.762,314.625Z" transform="translate(-154.762 -262.272)"/></clipPath><clipPath id="f"><path class="b" d="M214.454,303.735s5.6-1.722,9.045,1.293,8.614,18.52,11.629,35.317-3.688,28.913-3.688,28.913-7.081-18.575-9.234-27.62S214.454,303.735,214.454,303.735Z" transform="translate(-214.454 -303.245)"/></clipPath><clipPath id="g"><path class="b" d="M296.887,448.779h-52.51s14.476-18.4,14.476-24.7-19.881-87-20.781-92.851,2.7-9.909,9.908-10.36,34.681-6.3,36.033-10.809c0,0,10.36,36.482,13.963,61.255C301.066,392.553,297.863,436.646,296.887,448.779Z" transform="translate(-237.936 -310.055)"/></clipPath><clipPath id="h"><path class="b" d="M247.763,310.055s13.89,44.238,13.963,61.255c0,0-19.74-23.9-22.325-40.7S247.763,310.055,247.763,310.055Z" transform="translate(-239.006 -310.055)"/></clipPath><clipPath id="i"><path class="a" d="M394.784,418.556s-10.173.419-16.834,1.379a120.172,120.172,0,0,1-13.4,1.063s3.642-7.432,7.6-9.529,11.056-5.866,17.017-5.031,14.473,6.8,13.79,8.768S399.059,417.989,394.784,418.556Z" transform="translate(-364.546 -406.319)"/></clipPath><clipPath id="j"><path class="a" d="M409.8,414.581s-8.063-4.187-10.085-4.136-15.394,9.119-14.729,10.567,3.207,2.044,4.227,1.565c1.48-.694,10.489-4.526,10.489-4.526l5.9,1.382Z" transform="translate(-384.959 -410.445)"/></clipPath><clipPath id="k"><path class="a" d="M403.68,408.209s-10.759-.349-12.892.743S379,426.575,380.456,427.782s5.441.84,5.318-.49,8.892-10.206,8.892-10.206l7.01-1.541Z" transform="translate(-380.308 -408.156)"/></clipPath><clipPath id="l"><path class="a" d="M398.777,406.4s-10.888-.352-13.047.751-11.925,17.836-10.456,19.057,5.506.848,5.382-.5,9-10.328,9-10.328l7.093-1.559Z" transform="translate(-375.125 -406.347)"/></clipPath><clipPath id="m"><path class="b" d="M411.958,364.262c-7.878,12.141-23.7,42.9-28.325,46.369-7.206,5.4-55.376,18.512-60.02,22.107s-4.313,7.183-8.715,8.494-20.877,5.091-27.156,5.67-3.47-3.3-3.47-3.3l10.719-7.321-9.346-2.3s-9.364,11.267-11.116,11.881-4.856-.026-4.651-1.381c.338-2.226,10.332-20.4,13.878-21.181s25.081,2.21,25.081,2.21,45.16-30.459,45.97-31.541c0,0,2.7-7.657,4.955-10.809s3.6-2.253,3.6-2.253-.9-4.054.451-5.4l7.206-7.207.253.346c1.185-2.474,2.443-5.26,3.8-8.453,3.775-8.869,17.115-33.78,19.368-37.383,1.673-2.677,15.776-4.608,22.917-5.425" transform="translate(-269.869 -317.377)"/></clipPath><clipPath id="n"><path class="a" d="M351.018,418.491c-4.644,3.594-4.313,7.183-8.715,8.494s-20.877,5.091-27.156,5.67-3.471-3.3-3.471-3.3l10.72-7.322-9.346-2.3S303.687,431,301.935,431.612s-5.091.837-4.651-1.381c.856-4.305,10.332-20.4,13.878-21.181s25.081,2.21,25.081,2.21,41.141-28.267,45.642-31.29c17.473,1.679,25.806,10.834,29.275,16.317-.039.031-.082.069-.122.1C403.832,401.789,355.662,414.9,351.018,418.491Z" transform="translate(-297.244 -379.969)"/></clipPath><clipPath id="o"><path class="a" d="M237.573,236.73l36.973,15.426a54.484,54.484,0,0,0,4.747,18.793c4.369,9.254,1.821,26.74-2.377,36.178s-22.692,5.749-29.506,4.572a72.864,72.864,0,0,1-13.429-3.91,12.478,12.478,0,0,1-11.972-1.67S241.84,250.558,237.573,236.73Z" transform="translate(-222.01 -236.73)"/></clipPath><clipPath id="p"><path class="a" d="M158.571,422.861a21.659,21.659,0,0,0,7.736-1.844A2.674,2.674,0,1,0,164.2,416.1c-2.471,1.052-5.64,1.7-6.494,1.332-1.548-1.747-3.949-12.324-.848-17.363.691-1.124,1.343-1.331,1.773-1.39,1.755-.241,4.363,1.569,5.284,2.428a2.675,2.675,0,0,0,3.65-3.911c-.491-.458-4.929-4.459-9.649-3.818a7.705,7.705,0,0,0-5.613,3.887c-4.564,7.417-1.435,21.554,2.062,24.352A6.619,6.619,0,0,0,158.571,422.861Z" transform="translate(-150.023 -393.311)"/></clipPath><clipPath id="q"><rect class="a" width="29.527" height="39.19"/></clipPath><linearGradient id="r" x1="0.736" y1="0.413" x2="-0.373" y2="0.413" gradientUnits="objectBoundingBox"><stop offset="0" stop-color="#66a8de"/><stop offset="1" stop-color="#276ab7"/></linearGradient></defs><g transform="translate(0 0)"><g transform="translate(16.018 30.407)"><path class="c" d="M55.39,301.08c-2.454-32.608,5.136-66.666,15.3-97.023,15.095-45.091,44.4-91.329,93.751-102,28.46-6.154,57.419.441,81.814,15.859,23.466,14.832,41.767,33.987,70.606,37.7,29.178,3.755,59.119,2.243,88.452,2.243,75.408,0,136.609,79.222,121.308,161.746s-87.429,139.738-148.63,139.738c-55,0-100.24-33-152.474-41.853-25.9-4.392-51.917.805-77.547-5.776-29.8-7.652-57.813-25.912-74.319-52.346C62.4,341.351,56.927,321.5,55.39,301.08Z" transform="translate(-54.926 -99.769)"/><path class="d" d="M55.39,301.08c-2.454-32.608,5.136-66.666,15.3-97.023,15.095-45.091,44.4-91.329,93.751-102,28.46-6.154,57.419.441,81.814,15.859,23.466,14.832,41.767,33.987,70.606,37.7,29.178,3.755,59.119,2.243,88.452,2.243,75.408,0,136.609,79.222,121.308,161.746s-87.429,139.738-148.63,139.738c-55,0-100.24-33-152.474-41.853-25.9-4.392-51.917.805-77.547-5.776-29.8-7.652-57.813-25.912-74.319-52.346C62.4,341.351,56.927,321.5,55.39,301.08Z" transform="translate(-54.926 -99.769)"/></g><g transform="translate(0 192.185)"><g transform="translate(0)"><path class="c" d="M414.185,259.639s0-6.106,8.548-14.654,14.043-13.432,14.043-13.432,4.275,14.043-3.663,22.59a150.15,150.15,0,0,1-18.927,16.486Z" transform="translate(-388.879 -231.553)"/><path class="c" d="M404.079,290.7s0-6.106,8.548-14.654,14.043-13.432,14.043-13.432,4.273,14.043-3.663,22.59a150.247,150.247,0,0,1-18.927,16.486Z" transform="translate(-366.367 -224.483)"/><path class="c" d="M457.983,267.639s-.644-6.072-10.048-13.668S432.552,242.1,432.552,242.1s-2.767,14.416,6.03,22.077a150.267,150.267,0,0,0,20.562,14.392Z" transform="translate(-432.139 -229.153)"/><path class="c" d="M447.028,303.8s-1.279-5.97-11.429-12.538-16.546-10.192-16.546-10.192-1.236,14.627,8.316,21.322a150.261,150.261,0,0,0,21.962,12.153Z" transform="translate(-406.198 -220.283)"/><path class="c" d="M446.912,344.787s0-6.106-8.548-14.654S424.321,316.7,424.321,316.7s-4.275,14.044,3.663,22.59a150.135,150.135,0,0,0,18.927,16.486Z" transform="translate(-408.899 -212.173)"/><path class="c" d="M405.967,355.092s-.868-6.043,6.379-15.72,11.991-15.291,11.991-15.291,6.227,13.293-.416,22.881a150.134,150.134,0,0,1-16.392,19.007Z" transform="translate(-367.812 -210.493)"/><path class="c" d="M439.93,383.48s0-6.1-8.548-14.653-14.043-13.432-14.043-13.432-4.275,14.043,3.663,22.59a150.242,150.242,0,0,0,18.927,16.486Z" transform="translate(-393.346 -203.366)"/><path class="c" d="M439.606,410.6s1.547-5.907-4.557-16.341-10.183-16.552-10.183-16.552-7.692,12.5-2.178,22.782a150.135,150.135,0,0,0,14.135,20.742Z" transform="translate(-398.73 -198.287)"/><path class="e" d="M415.865,253.157a174.151,174.151,0,0,0,2.342,18.958c3.378,17.458,11.826,28.72,15.205,44.488s-6.322,36.083-3.725,56.336,10.481,31.516,8.23,45.031-14.079,50.121-14.079,50.121" transform="translate(-391.333 -226.636)"/><line class="e" x1="9.212" y1="7.069" transform="translate(16.716 35.474)"/><line class="e" y1="6.855" x2="3.856" transform="translate(25.499 27.547)"/><path class="e" d="M435.915,306.395s-7.713-5.783-15.638-11.568" transform="translate(-394.349 -217.151)"/><path class="e" d="M412.25,298.33s6.425-12.6,13.709-20.953" transform="translate(-374.538 -221.123)"/><path class="e" d="M439.913,350.746a95.423,95.423,0,0,0-16.494-22.065" transform="translate(-402.203 -209.446)"/><path class="e" d="M411.2,357.964a107.854,107.854,0,0,1,8.355-15.852c4.5-6.641,5.141-7.5,5.141-7.5" transform="translate(-371.993 -208.096)"/><path class="e" d="M432.133,392.2a102.561,102.561,0,0,0-6.946-14.045,89.877,89.877,0,0,0-9-11.783" transform="translate(-385.549 -200.867)"/><path class="e" d="M433.677,418.928s.9-7.312-2.31-13.523-6.855-14.353-8.355-17.567" transform="translate(-395.584 -195.982)"/></g><g transform="translate(47.07 89.588)"><path class="c" d="M389.7,324.595s.663-3.829-3.769-10.117-7.347-9.947-7.347-9.947-4.2,8.342-.156,14.563a95.556,95.556,0,0,0,10.08,12.393Z" transform="translate(-341.713 -304.531)"/><path class="c" d="M399.414,342.976s.662-3.829-3.77-10.117-7.347-9.947-7.347-9.947-4.2,8.342-.156,14.563a95.659,95.659,0,0,0,10.08,12.393Z" transform="translate(-363.34 -300.347)"/><path class="c" d="M364.559,328.6s1.064-3.738,7.785-7.481,10.936-5.775,10.936-5.775.169,9.34-6.179,13.189a95.6,95.6,0,0,1-14.456,6.792Z" transform="translate(-318.033 -302.07)"/><path class="c" d="M375.844,349.9s1.45-3.6,8.527-6.62,11.482-4.595,11.482-4.595-.811,9.306-7.529,12.468a95.59,95.59,0,0,1-15.091,5.237Z" transform="translate(-343.604 -296.758)"/><path class="c" d="M379.531,375.957s.663-3.829,6.951-8.261,10.264-6.9,10.264-6.9,1.156,9.271-4.75,13.769a95.609,95.609,0,0,1-13.658,8.283Z" transform="translate(-350.855 -291.725)"/><path class="c" d="M404.762,383.23s1.2-3.7-2.294-10.55-5.859-10.89-5.859-10.89-5.347,7.66-2.223,14.394a95.551,95.551,0,0,0,8.216,13.7Z" transform="translate(-377.475 -291.498)"/><path class="c" d="M418.214,407.4s-.443-3.861-6.468-8.645-9.854-7.474-9.854-7.474-1.682,9.19,3.957,14.018a95.541,95.541,0,0,0,13.164,9.049Z" transform="translate(-401.657 -284.786)"/><path class="c" d="M388.109,399.463s.663-3.829,6.951-8.261,10.265-6.9,10.265-6.9,1.155,9.271-4.75,13.769a95.659,95.659,0,0,1-13.66,8.283Z" transform="translate(-369.964 -286.374)"/><path class="c" d="M389.487,417.132s-.328-3.871,4.633-9.751,8.182-9.273,8.182-9.273,3.466,8.674-1.107,14.523A95.6,95.6,0,0,1,390.078,424.1Z" transform="translate(-371.259 -283.232)"/><path class="e" d="M407.888,320.144a110.545,110.545,0,0,1-3.526,11.634C400.348,342.359,393.828,348.5,390,358.025s.047,23.313-3.781,35.732-9.994,18.625-10.049,27.345,3.388,32.958,3.388,32.958" transform="translate(-359.241 -300.977)"/><line class="e" y1="3.433" x2="6.544" transform="translate(46.032 25.629)"/><line class="e" x1="1.674" y1="4.717" transform="translate(45.511 19.287)"/><path class="e" d="M381.4,351.708s5.464-2.79,11.063-5.557" transform="translate(-350.247 -295.058)"/><path class="e" d="M393.7,347.582a78.211,78.211,0,0,0-6.322-14.628" transform="translate(-358.823 -298.062)"/><path class="e" d="M382.671,379.843A60.714,60.714,0,0,1,395.41,367.8" transform="translate(-354.747 -290.131)"/><path class="e" d="M400.5,384.84a68.61,68.61,0,0,0-3.518-10.847c-2.1-4.653-2.41-5.26-2.41-5.26" transform="translate(-374.448 -289.918)"/><path class="e" d="M413.371,409.863s-4.337-5.317-7.037-7.307a37.594,37.594,0,0,1-4.57-3.972" transform="translate(-396.147 -283.124)"/><path class="e" d="M391.578,405.066a65.292,65.292,0,0,1,5.88-8.054,57.258,57.258,0,0,1,6.921-6.412" transform="translate(-374.651 -284.941)"/><path class="e" d="M392.267,422.682a16.648,16.648,0,0,1,2.917-8.229c2.69-3.548,5.857-8.257,7.146-10.109" transform="translate(-373.447 -281.813)"/></g></g><g transform="translate(385.649 200.743)"><g transform="translate(38.498)"><path class="c" d="M107.882,286.151l5.377-15.364-5.377,6.53,4.225-23.045-6.53,16.516-2.3-32.263-3.841,30.727-4.225-6.145v7.682l-4.993-10.37L92.9,278.469,88.293,275.4l7.3,9.986Z" transform="translate(-88.293 -238.524)"/><path class="f" d="M90.17,274.192h19.973l-3.6,40.329H93.765Z" transform="translate(-87.482 -230.405)"/></g><rect class="a" width="68.041" height="144.117" transform="translate(3.728 83.651)"/><rect class="a" width="37.749" height="144.117" transform="translate(0 83.651)"/><rect class="f" width="33.495" height="144.117" transform="translate(4.253 83.651)"/><g transform="translate(8.014 194.27)"><rect class="g" width="29.734" height="29.514"/><rect class="a" width="29.734" height="3.784" transform="translate(0 1.595)"/><rect class="a" width="29.734" height="3.784" transform="translate(0 23.32)"/><line class="e" y2="37.32" transform="translate(24.095 0.607)"/><line class="e" y2="37.32" transform="translate(13.726 0.607)"/><line class="e" y2="37.32" transform="translate(4.622 0.607)"/></g><g transform="translate(8.014 89.008)"><rect class="g" width="29.734" height="43.396"/><rect class="a" width="29.734" height="4.299" transform="translate(0 1.813)"/><rect class="a" width="29.734" height="4.299" transform="translate(0 29.631)"/><line class="e" y2="42.406" transform="translate(24.095 0.69)"/><line class="e" y2="42.406" transform="translate(13.726 0.69)"/><line class="e" y2="42.406" transform="translate(4.622 0.69)"/></g><g transform="translate(8.014 141.31)"><rect class="g" width="29.734" height="43.396"/><rect class="a" width="29.734" height="4.299" transform="translate(0 1.813)"/><rect class="a" width="29.734" height="4.299" transform="translate(0 29.631)"/><line class="e" y2="42.406" transform="translate(24.095 0.69)"/><line class="e" y2="42.406" transform="translate(13.726 0.69)"/><line class="e" y2="42.406" transform="translate(4.622 0.69)"/></g><rect class="a" width="34.02" height="4.934" transform="translate(3.728 131.804)"/><rect class="a" width="34.02" height="4.934" transform="translate(3.728 184.435)"/><line class="e" y2="144.117" transform="translate(3.728 83.651)"/><path class="a" d="M143.561,306.675V450.792h-4.8V312.032H105.334v-5.41Z" transform="translate(-101.017 -223.024)"/><line class="e" y1="5.358" transform="translate(37.749 83.651)"/></g><g transform="translate(60.086 176.196)"><g transform="translate(200.706 9.779)"><path class="h" d="M261.449,258.71c3.577-6.878,5.079-11.822,5.079-12.961,0-2.253-4.955-3.6-4.955-3.6-7.657-4.054-43.689,1.8-59.9,4.5a185.071,185.071,0,0,1-27.475,2.7s-2.251-1.8-4.955-4.054-15.313-17.115-20.268-18.467-9.459,1.8-9.459,1.8-8.107,4.955-6.756,5.854,21.169,18.016,26.124,21.17,15.313,1.8,24.321,3.6c7.756,1.55,39.185,3.467,46.393,4.054a26.136,26.136,0,0,0,16.214-1.352" transform="translate(-132.606 -226.495)"/><g class="i"><path class="j" d="M139.514,228.634s4.5-3.154,9.459-1.8,17.566,16.214,20.268,18.467,4.955,4.054,4.955,4.054a185.071,185.071,0,0,0,27.475-2.7c16.214-2.7,52.247-8.558,59.9-4.5,0,0,4.955,1.35,4.955,3.6a15.43,15.43,0,0,1-.981,3.721l-.673.242s-9-.948-28.415-.474-64.344,3.127-67.219,4.168c-1.3.47-9.935-1.5-19.58-4.885-7.332-6-16.023-13.446-16.9-14.033C131.406,233.588,139.514,228.634,139.514,228.634Z" transform="translate(-132.606 -226.495)"/><path class="k" d="M139.514,228.634s4.5-3.154,9.459-1.8,17.566,16.214,20.268,18.467,4.955,4.054,4.955,4.054a185.071,185.071,0,0,0,27.475-2.7c16.214-2.7,52.247-8.558,59.9-4.5,0,0,4.955,1.35,4.955,3.6a15.43,15.43,0,0,1-.981,3.721l-.673.242s-9-.948-28.415-.474-64.344,3.127-67.219,4.168c-1.3.47-9.935-1.5-19.58-4.885-7.332-6-16.023-13.446-16.9-14.033C131.406,233.588,139.514,228.634,139.514,228.634Z" transform="translate(-132.606 -226.495)"/></g><path class="e" d="M261.449,258.71c3.577-6.878,5.079-11.822,5.079-12.961,0-2.253-4.955-3.6-4.955-3.6-7.657-4.054-43.689,1.8-59.9,4.5a185.071,185.071,0,0,1-27.475,2.7s-2.251-1.8-4.955-4.054-15.313-17.115-20.268-18.467-9.459,1.8-9.459,1.8-8.107,4.955-6.756,5.854,21.169,18.016,26.124,21.17,15.313,1.8,24.321,3.6c7.756,1.55,39.185,3.467,46.393,4.054a26.136,26.136,0,0,0,16.214-1.352" transform="translate(-132.606 -226.495)"/></g><g transform="translate(56.806 76.921)"><path class="h" d="M341.64,286.3a9.579,9.579,0,0,0-8.493-5.115H251.263s-5.919,0-4.143,11.246,26.044,79.906,31.962,100.623,7.1,64.517,7.1,64.517H384.44S376.568,352.985,341.64,286.3Z" transform="translate(-246.787 -281.188)"/><g class="l"><path class="m" d="M268.435,281.188h28.388a9.579,9.579,0,0,1,8.493,5.115c34.928,66.681,42.8,171.271,42.8,171.271H304.061L293.2,416.314l-45.3,9.341c-.32-3.461-.69-6.984-1.115-10.454l.987-11.1s9.281-9.771,12.212-12.213.977-6.838,1.466-25.889,17.585-32.729,23.936-44.453-3.42-19.051-12.212-30.775C270.042,286.6,268.775,283.478,268.435,281.188Z" transform="translate(-210.462 -281.188)"/></g><path class="e" d="M341.64,286.3a9.579,9.579,0,0,0-8.493-5.115H251.263s-5.919,0-4.143,11.246,26.044,79.906,31.962,100.623,7.1,64.517,7.1,64.517H384.44S376.568,352.985,341.64,286.3Z" transform="translate(-246.787 -281.188)"/></g><path class="f" d="M339.061,300.72c8.278,19.316,25.817,95.75,28.629,156.854h-7.913s-1.183-43.8-7.1-64.517-30.187-89.377-31.962-100.623,4.143-11.246,4.143-11.246S332.424,285.237,339.061,300.72Z" transform="translate(-263.573 -204.267)"/><g transform="translate(113.415)"><path class="f" d="M317.448,276.387s13.062-7.657,18.016-21.169-38.735-35.132-57.651-36.482-24.323,3.6-35.582,22.97-18.917,45.942-13.062,59,15.764,16.214,8.558,27.025-27.475,41.437-26.123,55.85,15.313,27.025,35.581,28.375S294.478,401.15,317,381.332s16.665-49.093,8.558-58.552-20.269-13.062-21.17-22.52S317.448,276.387,317.448,276.387Z" transform="translate(-211.539 -218.528)"/><g transform="translate(21.756 9.359)"><path class="n" d="M290.82,248.248c-6.943,12.914-15.619,30.214-18.327,40.661-4.742,18.29,19.644,29.805,12.87,38.612" transform="translate(-262.332 -221.123)"/><path class="n" d="M270.617,234.468s-2.7,4.6-6.435,11.387" transform="translate(-232.684 -224.259)"/><path class="n" d="M295.369,260.938a33.807,33.807,0,0,0-1.549,7.471" transform="translate(-293.82 -218.235)"/><path class="n" d="M297.89,228.95s-21.328,15.764-29.846,34.634" transform="translate(-264.698 -225.515)"/><path class="n" d="M214.989,238.626c15.236,4.282,37.14,11.212,35.36,15.217" transform="translate(-152.128 -223.313)"/><path class="n" d="M248.749,235.571s3.259.805,8.107,2.107" transform="translate(-199.977 -224.008)"/><path class="n" d="M266.979,229.765a78.425,78.425,0,0,0-26.988-3.565" transform="translate(-199.349 -226.152)"/><path class="n" d="M239.214,231.5a34,34,0,0,0-4.277-1.857" transform="translate(-165.38 -225.357)"/></g></g><g transform="translate(143.971 29.034)"><path class="h" d="M323.263,242.179a2.4,2.4,0,0,1-.017.257A2.416,2.416,0,0,0,323.263,242.179Zm-5.079,12.96a58.587,58.587,0,0,0,4.915-11.926A58.493,58.493,0,0,1,318.184,255.139Zm5.05-12.632c-.011.085-.023.171-.043.271C323.212,242.677,323.223,242.591,323.235,242.507Zm-.059.347c-.021.11-.044.225-.075.354C323.132,243.079,323.155,242.965,323.176,242.854Zm-4.991,12.286a111.955,111.955,0,0,1-16.991,23.971c-16.214,17.567-63.056,63.508-67.56,66.66s-3.154,12.161,0,21.169,14.863,22.07,14.412,36.483-4.955,36.483-4.5,40.987,11.711,19.817,11.711,19.817H139.047s14.476-18.4,14.476-24.7-19.881-87-20.781-92.851,2.7-9.909,9.908-10.36,34.681-6.3,36.033-10.809-7.206-21.619-7.206-21.619l27.025,1.352s1.35,11.71,3.152,13.962,4.5-2.251,10.809-5.4,18.467-5.856,22.971-9.459,47.743-44.14,47.743-44.14" transform="translate(-132.606 -242.179)"/><g class="o"><g transform="translate(61.849 16.537)"><path class="p" d="M243.852,295.645c-2.253,3.927-4.492,7.472-4.492,7.472s-7.577,4.262-9.471,4.262-13.261,6.156-13.261,6.156-9.472-2.368-6.158-10.419a25.109,25.109,0,0,1,3.95-5.674c.563,3.575,1.474,8.248,2.545,9.585,1.8,2.253,4.5-2.251,10.809-5.405C231.895,299.565,238.5,297.7,243.852,295.645Z" transform="translate(-209.767 -246.547)"/><path class="j" d="M155.943,286.513c13.914-12.882,31.515-29.384,31.515-29.384L197.7,255.65l1.2.686s-28.889,25.573-35.046,28.415C160.033,286.513,158.037,286.274,155.943,286.513Z" transform="translate(-98.736 -255.65)"/><path class="p" d="M201.9,291.835q.5-.44,1.1-.985c-.56.929-.884,1.519-.884,1.519S202.044,292.159,201.9,291.835Z" transform="translate(-159.269 -247.638)"/></g><g class="q" transform="translate(61.849 16.537)"><path class="h" d="M243.852,295.645c-2.253,3.927-4.492,7.472-4.492,7.472s-7.577,4.262-9.471,4.262-13.261,6.156-13.261,6.156-9.472-2.368-6.158-10.419a25.109,25.109,0,0,1,3.95-5.674c.563,3.575,1.474,8.248,2.545,9.585,1.8,2.253,4.5-2.251,10.809-5.405C231.895,299.565,238.5,297.7,243.852,295.645Z" transform="translate(-209.767 -246.547)"/><path class="h" d="M155.943,286.513c13.914-12.882,31.515-29.384,31.515-29.384L197.7,255.65l1.2.686s-28.889,25.573-35.046,28.415C160.033,286.513,158.037,286.274,155.943,286.513Z" transform="translate(-98.736 -255.65)"/><path class="h" d="M201.9,291.835q.5-.44,1.1-.985c-.56.929-.884,1.519-.884,1.519S202.044,292.159,201.9,291.835Z" transform="translate(-159.269 -247.638)"/></g></g><path class="e" d="M323.263,242.179a2.4,2.4,0,0,1-.017.257A2.416,2.416,0,0,0,323.263,242.179Zm-5.079,12.96a58.587,58.587,0,0,0,4.915-11.926A58.493,58.493,0,0,1,318.184,255.139Zm5.05-12.632c-.011.085-.023.171-.043.271C323.212,242.677,323.223,242.591,323.235,242.507Zm-.059.347c-.021.11-.044.225-.075.354C323.132,243.079,323.155,242.965,323.176,242.854Zm-4.991,12.286a111.955,111.955,0,0,1-16.991,23.971c-16.214,17.567-63.056,63.508-67.56,66.66s-3.154,12.161,0,21.169,14.863,22.07,14.412,36.483-4.955,36.483-4.5,40.987,11.711,19.817,11.711,19.817H139.047s14.476-18.4,14.476-24.7-19.881-87-20.781-92.851,2.7-9.909,9.908-10.36,34.681-6.3,36.033-10.809-7.206-21.619-7.206-21.619l27.025,1.352s1.35,11.71,3.152,13.962,4.5-2.251,10.809-5.4,18.467-5.856,22.971-9.459,47.743-44.14,47.743-44.14" transform="translate(-132.606 -242.179)"/></g><path class="e" d="M147,258.032s14.383.269,22.419-6.349" transform="translate(147.544 -210.982)"/><g transform="translate(161.916 90.739)"><path class="h" d="M248.4,314.063c1.352-4.5-7.206-21.619-7.206-21.619l27.025,1.352s1.35,11.71,3.152,13.962,4.5-2.251,10.809-5.4c.481-.241,1-.478,1.547-.713l1.639,25.679s-2.367,24.86-30.779,20.125c-11.5-1.918-23.779-12.177-34.319-23.71C231.109,321.727,247.369,317.5,248.4,314.063Z" transform="translate(-220.268 -292.444)"/><g class="r"><path class="j" d="M253.016,295.511s1.635,9.155,2.943,19.292,2.289,17.657,2.289,17.657l-6-18.722-6.757-19.86S252.035,293.877,253.016,295.511Z" transform="translate(-224.121 -292.118)"/><path class="k" d="M253.016,295.511s1.635,9.155,2.943,19.292,2.289,17.657,2.289,17.657l-6-18.722-6.757-19.86S252.035,293.877,253.016,295.511Z" transform="translate(-224.121 -292.118)"/></g><path class="e" d="M248.4,314.063c1.352-4.5-7.206-21.619-7.206-21.619l27.025,1.352s1.35,11.71,3.152,13.962,4.5-2.251,10.809-5.4c.481-.241,1-.478,1.547-.713l1.639,25.679s-2.367,24.86-30.779,20.125c-11.5-1.918-23.779-12.177-34.319-23.71C231.109,321.727,247.369,317.5,248.4,314.063Z" transform="translate(-220.268 -292.444)"/></g><g transform="translate(212.697 53.7)"><g transform="translate(0.322)"><path class="s" d="M154.762,314.625c1.8,2.253,4.5-2.251,10.809-5.4,3.987-1.994,10.309-3.807,15.562-5.782,1.487-3.517,3.447-8.114,4.707-10.884,2.251-4.953,5.854-1.8,5.854-1.8a26.2,26.2,0,0,0,4.5-7.207c2.253-4.953,5.856-4.5,10.81-5.4s15.313-10.36,15.313-10.36,4.848-3.631,6.859-5.511c2.326,4.595,7.918,12.67,19.992,17.709-19.254,20.124-58.337,58.351-62.431,61.217-4.5,3.152-3.154,12.161,0,21.169s14.863,22.07,14.412,36.483-4.955,36.483-4.5,40.987c.4,4.014,9.385,16.607,11.335,19.3l-4.578.518H179.574c.129-12.076.123-61.382-8.148-81.072C161.968,356.062,154.762,314.625,154.762,314.625Z" transform="translate(-154.762 -262.272)"/><g class="t"><path class="m" d="M178.969,309.219c3.987-1.992,10.309-3.806,15.562-5.781,1.487-3.517,3.447-8.114,4.707-10.884,2.251-4.953,5.854-1.8,5.854-1.8a26.2,26.2,0,0,0,4.5-7.207c2.253-4.953,5.856-4.5,10.81-5.4s15.313-10.36,15.313-10.36,4.848-3.631,6.859-5.511a33.711,33.711,0,0,0,3.544,5.516c-8.049,6.8-16.942,14.023-20.048,15.457-6.158,2.842-7.578.474-12.314,3.316s-9.945,12.313-9.945,12.313-2.842-7.577-5.21-2.368a162.969,162.969,0,0,1-8.052,14.208s-7.577,4.262-9.471,4.262c-1.484,0-8.765,3.77-11.855,5.406-.69-3.59-1.068-5.757-1.068-5.757C169.962,316.877,172.664,312.373,178.969,309.219Z" transform="translate(-168.16 -262.272)"/></g><path class="e" d="M154.762,314.625c1.8,2.253,4.5-2.251,10.809-5.4,3.987-1.994,10.309-3.807,15.562-5.782,1.487-3.517,3.447-8.114,4.707-10.884,2.251-4.953,5.854-1.8,5.854-1.8a26.2,26.2,0,0,0,4.5-7.207c2.253-4.953,5.856-4.5,10.81-5.4s15.313-10.36,15.313-10.36,4.848-3.631,6.859-5.511c2.326,4.595,7.918,12.67,19.992,17.709-19.254,20.124-58.337,58.351-62.431,61.217-4.5,3.152-3.154,12.161,0,21.169s14.863,22.07,14.412,36.483-4.955,36.483-4.5,40.987c.4,4.014,9.385,16.607,11.335,19.3l-4.578.518H179.574c.129-12.076.123-61.382-8.148-81.072C161.968,356.062,154.762,314.625,154.762,314.625Z" transform="translate(-154.762 -262.272)"/></g><g transform="translate(0 50.299)"><path class="s" d="M214.454,303.735s5.6-1.722,9.045,1.293,8.614,18.52,11.629,35.317-3.688,28.913-3.688,28.913-7.081-18.575-9.234-27.62S214.454,303.735,214.454,303.735Z" transform="translate(-214.454 -303.245)"/><g class="u"><path class="m" d="M233.922,306.564s-4.045-.976-5.719-.417a16.423,16.423,0,0,0-3.905,2.371l-1.117-4.683a9.022,9.022,0,0,1,5.441-.9C231.411,303.5,233.922,306.564,233.922,306.564Z" transform="translate(-223.18 -303.344)"/></g><path class="e" d="M214.454,303.735s5.6-1.722,9.045,1.293,8.614,18.52,11.629,35.317-3.688,28.913-3.688,28.913-7.081-18.575-9.234-27.62S214.454,303.735,214.454,303.735Z" transform="translate(-214.454 -303.245)"/></g><path class="e" d="M201.084,306.258l-7.206,29.276L210.092,298.6" transform="translate(-163.379 -254.003)"/></g><g transform="translate(143.971 112.359)"><g transform="translate(0)"><path class="s" d="M296.887,448.779h-52.51s14.476-18.4,14.476-24.7-19.881-87-20.781-92.851,2.7-9.909,9.908-10.36,34.681-6.3,36.033-10.809c0,0,10.36,36.482,13.963,61.255C301.066,392.553,297.863,436.646,296.887,448.779Z" transform="translate(-237.936 -310.055)"/><g class="v"><path class="m" d="M262.884,320.395c5.906-.368,25.416-4.368,33.013-8.279l-2.756,6.382a55.306,55.306,0,0,1-16.021,5.559c-9.156,1.635-17.657,1.309-23.215,9.482-.091.134-.182.275-.273.413-.347-1.575-.577-2.681-.656-3.2C252.075,324.9,255.678,320.845,262.884,320.395Z" transform="translate(-252.84 -309.586)"/></g><path class="e" d="M296.887,448.779h-52.51s14.476-18.4,14.476-24.7-19.881-87-20.781-92.851,2.7-9.909,9.908-10.36,34.681-6.3,36.033-10.809c0,0,10.36,36.482,13.963,61.255C301.066,392.553,297.863,436.646,296.887,448.779Z" transform="translate(-237.936 -310.055)"/></g><g transform="translate(37.32)"><path class="s" d="M247.763,310.055s13.89,44.238,13.963,61.255c0,0-19.74-23.9-22.325-40.7S247.763,310.055,247.763,310.055Z" transform="translate(-239.006 -310.055)"/><g class="w" transform="translate(0)"><path class="m" d="M259.217,315.7a12.854,12.854,0,0,0-10.791,5.232s2.724-8.018,8.392-10.875Z" transform="translate(-248.061 -310.055)"/></g><path class="e" d="M247.763,310.055s13.89,44.238,13.963,61.255c0,0-19.74-23.9-22.325-40.7S247.763,310.055,247.763,310.055Z" transform="translate(-239.006 -310.055)"/></g></g><g transform="translate(0 121.347)"><g transform="translate(11.448 109.186)"><path class="h" d="M394.784,418.556s-10.173.419-16.834,1.379a120.172,120.172,0,0,1-13.4,1.063s3.642-7.432,7.6-9.529,11.056-5.866,17.017-5.031,14.473,6.8,13.79,8.768S399.059,417.989,394.784,418.556Z" transform="translate(-364.546 -406.319)"/><g class="x"><path class="j" d="M394.784,418.556s-10.173.419-16.834,1.379a120.172,120.172,0,0,1-13.4,1.063s3.642-7.432,7.6-9.529,11.056-5.866,17.017-5.031,14.473,6.8,13.79,8.768S399.059,417.989,394.784,418.556Z" transform="translate(-364.546 -406.319)"/><path class="k" d="M394.784,418.556s-10.173.419-16.834,1.379a120.172,120.172,0,0,1-13.4,1.063s3.642-7.432,7.6-9.529,11.056-5.866,17.017-5.031,14.473,6.8,13.79,8.768S399.059,417.989,394.784,418.556Z" transform="translate(-364.546 -406.319)"/></g><path class="e" d="M394.784,418.556s-10.173.419-16.834,1.379a120.172,120.172,0,0,1-13.4,1.063s3.642-7.432,7.6-9.529,11.056-5.866,17.017-5.031,14.473,6.8,13.79,8.768S399.059,417.989,394.784,418.556Z" transform="translate(-364.546 -406.319)"/></g><g transform="translate(0 114.25)"><path class="h" d="M409.8,414.581s-8.063-4.187-10.085-4.136-15.394,9.119-14.729,10.567,3.207,2.044,4.227,1.565c1.48-.694,10.489-4.526,10.489-4.526l5.9,1.382Z" transform="translate(-384.959 -410.445)"/><g class="y"><path class="j" d="M409.8,414.581s-8.063-4.187-10.085-4.136-15.394,9.119-14.729,10.567,3.835,2.622,4.227,1.565,10.489-4.526,10.489-4.526l5.9,1.382Z" transform="translate(-384.959 -410.445)"/><path class="k" d="M409.8,414.581s-8.063-4.187-10.085-4.136-15.394,9.119-14.729,10.567,3.835,2.622,4.227,1.565,10.489-4.526,10.489-4.526l5.9,1.382Z" transform="translate(-384.959 -410.445)"/></g><path class="e" d="M409.8,414.581s-8.063-4.187-10.085-4.136-15.394,9.119-14.729,10.567,3.207,2.044,4.227,1.565c1.48-.694,10.489-4.526,10.489-4.526l5.9,1.382Z" transform="translate(-384.959 -410.445)"/></g><g transform="translate(7.175 111.441)"><path class="h" d="M403.68,408.209s-10.759-.349-12.892.743S379,426.575,380.456,427.782s5.441.84,5.318-.49,8.892-10.206,8.892-10.206l7.01-1.541Z" transform="translate(-380.308 -408.156)"/><g class="z"><path class="j" d="M403.68,408.209s-10.759-.349-12.892.743S379,426.575,380.456,427.782s5.441.84,5.318-.49,8.892-10.206,8.892-10.206l7.01-1.541Z" transform="translate(-380.308 -408.156)"/><path class="k" d="M403.68,408.209s-10.759-.349-12.892.743S379,426.575,380.456,427.782s5.441.84,5.318-.49,8.892-10.206,8.892-10.206l7.01-1.541Z" transform="translate(-380.308 -408.156)"/></g><path class="e" d="M403.68,408.209s-10.759-.349-12.892.743S379,426.575,380.456,427.782s5.441.84,5.318-.49,8.892-10.206,8.892-10.206l7.01-1.541Z" transform="translate(-380.308 -408.156)"/></g><g transform="translate(13.257 109.221)"><path class="h" d="M398.777,406.4s-10.888-.352-13.047.751-11.925,17.836-10.456,19.057,5.506.848,5.382-.5,9-10.328,9-10.328l7.093-1.559Z" transform="translate(-375.125 -406.347)"/><g class="aa"><path class="j" d="M398.777,406.4s-10.888-.352-13.047.751-11.925,17.836-10.456,19.057,5.506.848,5.382-.5,9-10.328,9-10.328l7.093-1.559Z" transform="translate(-375.125 -406.347)"/><path class="k" d="M398.777,406.4s-10.888-.352-13.047.751-11.925,17.836-10.456,19.057,5.506.848,5.382-.5,9-10.328,9-10.328l7.093-1.559Z" transform="translate(-375.125 -406.347)"/></g><path class="e" d="M398.777,406.4s-10.888-.352-13.047.751-11.925,17.836-10.456,19.057,5.506.848,5.382-.5,9-10.328,9-10.328l7.093-1.559Z" transform="translate(-375.125 -406.347)"/></g><g transform="translate(18.601)"><g transform="translate(0.03)"><path class="s" d="M411.958,364.262c-7.878,12.141-23.7,42.9-28.325,46.369-7.206,5.4-55.376,18.512-60.02,22.107s-4.313,7.183-8.715,8.494-20.877,5.091-27.156,5.67-3.47-3.3-3.47-3.3l10.719-7.321-9.346-2.3s-9.364,11.267-11.116,11.881-4.856-.026-4.651-1.381c.338-2.226,10.332-20.4,13.878-21.181s25.081,2.21,25.081,2.21,45.16-30.459,45.97-31.541c0,0,2.7-7.657,4.955-10.809s3.6-2.253,3.6-2.253-.9-4.054.451-5.4l7.206-7.207.253.346c1.185-2.474,2.443-5.26,3.8-8.453,3.775-8.869,17.115-33.78,19.368-37.383,1.673-2.677,15.776-4.608,22.917-5.425" transform="translate(-269.869 -317.377)"/><g class="ab"><path class="m" d="M295.128,365.039c-5.885,5.232-3.923,5.232-2.615,9.81s-.981-1.635-6.539-1.309-3.925,7.52-3.27,8.829-6.866,2.943-5.559,5.885,8.829,7.194,13.079,11.444-11.117-6.866-16.348-7.193c-1.59-.1-2.906.1-4.007.074.889-2.352,2.787-7.1,4.444-9.423,2.251-3.154,3.6-2.253,3.6-2.253s-.9-4.054.451-5.4l7.206-7.207.253.346c1.185-2.474,2.443-5.26,3.8-8.453,3.775-8.869,17.115-33.78,19.368-37.383,1.673-2.677,15.776-4.608,22.917-5.425l-.656,5.685-.16.125s-8.829,1.634-11.772,1.962-6.539,2.943-6.212,4.9,8.828,10.791,6.212,11.444-5.559-6.539-8.5-5.559S301.015,359.808,295.128,365.039Z" transform="translate(-184.419 -317.377)"/></g><path class="e" d="M411.958,364.262c-7.878,12.141-23.7,42.9-28.325,46.369-7.206,5.4-55.376,18.512-60.02,22.107s-4.313,7.183-8.715,8.494-20.877,5.091-27.156,5.67-3.47-3.3-3.47-3.3l10.719-7.321-9.346-2.3s-9.364,11.267-11.116,11.881-4.856-.026-4.651-1.381c.338-2.226,10.332-20.4,13.878-21.181s25.081,2.21,25.081,2.21,45.16-30.459,45.97-31.541c0,0,2.7-7.657,4.955-10.809s3.6-2.253,3.6-2.253-.9-4.054.451-5.4l7.206-7.207.253.346c1.185-2.474,2.443-5.26,3.8-8.453,3.775-8.869,17.115-33.78,19.368-37.383,1.673-2.677,15.776-4.608,22.917-5.425" transform="translate(-269.869 -317.377)"/></g><g transform="translate(97.617 9.907)"><path class="e" d="M273.689,341.978a32.071,32.071,0,0,1,.837,3.343" transform="translate(-229.311 -321.684)"/><path class="e" d="M276.206,325.447A65.991,65.991,0,0,1,285.88,340" transform="translate(-243.754 -325.447)"/><path class="e" d="M313.194,384.627c-3.318-4.85-8.567-11.137-14.418-12.918" transform="translate(-298.776 -314.917)"/><path class="e" d="M297.432,387.683s-.59-1.15-1.647-2.892" transform="translate(-279.342 -311.94)"/><path class="e" d="M311.409,384.546s-6.03-15.074-12.06-18.951-2.584,3.877-2.584,3.877" transform="translate(-293.319 -316.556)"/></g><g transform="translate(0 76.838)"><path class="h" d="M351.018,418.491c-4.644,3.594-4.313,7.183-8.715,8.494s-20.877,5.091-27.156,5.67-3.471-3.3-3.471-3.3l10.72-7.322-9.346-2.3S303.687,431,301.935,431.612s-5.091.837-4.651-1.381c.856-4.305,10.332-20.4,13.878-21.181s25.081,2.21,25.081,2.21,41.141-28.267,45.642-31.29c17.473,1.679,25.806,10.834,29.275,16.317-.039.031-.082.069-.122.1C403.832,401.789,355.662,414.9,351.018,418.491Z" transform="translate(-297.244 -379.969)"/><g class="ac"><path class="j" d="M310.388,430.231c2.227-5.468,10.332-20.4,13.878-21.181s25.081,2.21,25.081,2.21,41.141-28.267,45.642-31.292a45.865,45.865,0,0,1,13.35,3.235c-6.494,3.662-49.783,28.2-55.23,29.324-5.8,1.192-25.135-1.951-28.537.333-2.162,1.452-8.559,11.654-12.933,18.894C310.372,431.54,309.939,431.335,310.388,430.231Z" transform="translate(-310.349 -379.969)"/><path class="k" d="M310.4,430.231c3.482-7.821,10.332-20.4,13.878-21.181s25.081,2.21,25.081,2.21S390.5,382.993,395,379.968a45.865,45.865,0,0,1,13.35,3.235c-6.494,3.662-49.783,28.2-55.23,29.324-5.8,1.192-25.135-1.951-28.537.333-2.162,1.452-8.559,11.654-12.933,18.894C310.387,431.54,309.919,431.32,310.4,430.231Z" transform="translate(-310.364 -379.969)"/></g><path class="e" d="M351.018,418.491c-4.644,3.594-4.313,7.183-8.715,8.494s-20.877,5.091-27.156,5.67-3.471-3.3-3.471-3.3l10.72-7.322-9.346-2.3S303.687,431,301.935,431.612s-5.091.837-4.651-1.381c.856-4.305,10.332-20.4,13.878-21.181s25.081,2.21,25.081,2.21,41.141-28.267,45.642-31.29c17.473,1.679,25.806,10.834,29.275,16.317-.039.031-.082.069-.122.1C403.832,401.789,355.662,414.9,351.018,418.491Z" transform="translate(-297.244 -379.969)"/></g></g></g><g transform="translate(164.825 22.344)"><g transform="translate(0.491)"><path class="h" d="M237.573,236.73l36.973,15.426a54.484,54.484,0,0,0,4.747,18.793c4.369,9.254,1.821,26.74-2.377,36.178s-22.692,5.749-29.506,4.572a72.864,72.864,0,0,1-13.429-3.91,12.478,12.478,0,0,1-11.972-1.67S241.84,250.558,237.573,236.73Z" transform="translate(-222.01 -236.73)"/><g class="ad"><path class="j" d="M237.573,236.73l36.973,15.426a54.484,54.484,0,0,0,4.747,18.793c4.369,9.254,1.821,26.74-2.377,36.178a8.606,8.606,0,0,1-3.253,3.74v-.714s6.866-17,5.559-26.811-6.867-14.714-7.52-20.927-.328-9.155-12.752-13.732-17.657-8.829-18.964-4.251-6.539,34.659-10.136,41.853-3.269,14.713,2.289,17.983a77.431,77.431,0,0,0,17.881,7.884c-.983-.167-1.868-.325-2.609-.453a72.864,72.864,0,0,1-13.429-3.91,12.478,12.478,0,0,1-11.972-1.67S241.84,250.558,237.573,236.73Z" transform="translate(-222.01 -236.73)"/><path class="k" d="M237.573,236.73l36.973,15.426a54.484,54.484,0,0,0,4.747,18.793c4.369,9.254,1.821,26.74-2.377,36.178a8.606,8.606,0,0,1-3.253,3.74v-.714s6.866-17,5.559-26.811-6.867-14.714-7.52-20.927-.328-9.155-12.752-13.732-17.657-8.829-18.964-4.251-6.539,34.659-10.136,41.853-3.269,14.713,2.289,17.983a77.431,77.431,0,0,0,17.881,7.884c-.983-.167-1.868-.325-2.609-.453a72.864,72.864,0,0,1-13.429-3.91,12.478,12.478,0,0,1-11.972-1.67S241.84,250.558,237.573,236.73Z" transform="translate(-222.01 -236.73)"/></g><path class="e" d="M237.573,236.73l36.973,15.426a54.484,54.484,0,0,0,4.747,18.793c4.369,9.254,1.821,26.74-2.377,36.178s-22.692,5.749-29.506,4.572a72.864,72.864,0,0,1-13.429-3.91,12.478,12.478,0,0,1-11.972-1.67S241.84,250.558,237.573,236.73Z" transform="translate(-222.01 -236.73)"/></g><path class="e" d="M233.872,256.441a19.126,19.126,0,0,0,.791,6.436c.983,2.491,10.253,12.1,9.971,13.137s-1.115,4.4-2.758,4.723" transform="translate(-199.133 -232.244)"/><path class="e" d="M256.448,263.659c-1.291-2.576-5.529-.059-5.469,5.743" transform="translate(-231.959 -230.83)"/><path class="e" d="M240.732,257.331s-3.609-1.593-6.827,4.257" transform="translate(-195.285 -232.086)"/><path class="ae" d="M258.026,270.4a17.883,17.883,0,0,0-11.21,4.7" transform="translate(-228.429 -229.066)"/><path class="ae" d="M236.6,264.147a24.058,24.058,0,0,0-6.25,1.731" transform="translate(-186.8 -230.49)"/><path class="af" d="M233.079,252.7a6.976,6.976,0,0,1,6.217-.149c3.3,1.581,5.33,3.333,5.107,1.3s-4.108-4.257-5.268-4.553S232.749,248.165,233.079,252.7Z" transform="translate(-197.94 -233.928)"/><path class="af" d="M261.046,248.41s-5.543,4.267-7.972,10.384-4.4-.574-2.428-4.586S258.156,245.929,261.046,248.41Z" transform="translate(-235.162 -234.239)"/><path class="ag" d="M265.056,303.679c0,2.86,1.613,5.179,3.6,5.179s3.6-2.319,3.6-5.179-1.613-10.134-3.6-10.134S265.056,300.817,265.056,303.679Z" transform="translate(-265.056 -223.799)"/><path class="af" d="M253.283,262.562a7.381,7.381,0,0,1,.33,1.155c.361,1.816.714,5.611-.064,5.766s-2.394-3.389-2.756-5.206a7.541,7.541,0,0,1-.129-1.083A22.962,22.962,0,0,1,253.283,262.562Z" transform="translate(-229.142 -230.85)"/><path class="af" d="M236.49,257.032a7.521,7.521,0,0,1,.27.976c.361,1.817.35,5.808-.428,5.963s-2.03-3.586-2.391-5.4a7.367,7.367,0,0,1-.142-1.343A7.019,7.019,0,0,1,236.49,257.032Z" transform="translate(-191.411 -232.121)"/><path class="ah" d="M257.236,263.94l-1.2-2.285a8.887,8.887,0,0,0-5.015,2.9" transform="translate(-232.802 -231.057)"/><path class="ah" d="M238.893,257.293l-1.257-1.439s-.528-.264-3.431,1.056" transform="translate(-193.814 -232.382)"/><path class="e" d="M240.059,284.822s-2.067-3.792-4.826-3.792-4.826,6.2-4.826,6.2" transform="translate(-190.319 -226.647)"/></g></g><g transform="translate(354.942 388.636)"><g transform="translate(0)"><g transform="translate(0 2.124)"><path class="h" d="M158.571,422.861a21.659,21.659,0,0,0,7.736-1.844A2.674,2.674,0,1,0,164.2,416.1c-2.471,1.052-5.64,1.7-6.494,1.332-1.548-1.747-3.949-12.324-.848-17.363.691-1.124,1.343-1.331,1.773-1.39,1.755-.241,4.363,1.569,5.284,2.428a2.675,2.675,0,0,0,3.65-3.911c-.491-.458-4.929-4.459-9.649-3.818a7.705,7.705,0,0,0-5.613,3.887c-4.564,7.417-1.435,21.554,2.062,24.352A6.619,6.619,0,0,0,158.571,422.861Z" transform="translate(-150.023 -393.311)"/><g class="ai"><path class="j" d="M153.9,398.721a5.05,5.05,0,0,1,3.65-2.99c3.067-.492,5.951,2.585,6.271,2.938a2.309,2.309,0,0,1,.266,2.558,2.642,2.642,0,0,1-1.291-.657c-.921-.859-3.528-2.669-5.284-2.428-.43.059-1.082.265-1.773,1.39-3.1,5.039-.7,15.616.848,17.363.854.365,4.023-.28,6.494-1.332a2.672,2.672,0,0,1,.955-.209,2.043,2.043,0,0,1-1.032,1.639,12.354,12.354,0,0,1-5.029,1.418,3.846,3.846,0,0,1-2.733-.955C152.969,415.3,150.935,404.427,153.9,398.721Z" transform="translate(-148.904 -392.772)"/><path class="k" d="M153.9,398.721a5.05,5.05,0,0,1,3.65-2.99c3.067-.492,5.951,2.585,6.271,2.938a2.309,2.309,0,0,1,.266,2.558,2.642,2.642,0,0,1-1.291-.657c-.921-.859-3.528-2.669-5.284-2.428-.43.059-1.082.265-1.773,1.39-3.1,5.039-.7,15.616.848,17.363.854.365,4.023-.28,6.494-1.332a2.672,2.672,0,0,1,.955-.209,2.043,2.043,0,0,1-1.032,1.639,12.354,12.354,0,0,1-5.029,1.418,3.846,3.846,0,0,1-2.733-.955C152.969,415.3,150.935,404.427,153.9,398.721Z" transform="translate(-148.904 -392.772)"/></g><path class="e" d="M158.571,422.861a21.659,21.659,0,0,0,7.736-1.844A2.674,2.674,0,1,0,164.2,416.1c-2.471,1.052-5.64,1.7-6.494,1.332-1.548-1.747-3.949-12.324-.848-17.363.691-1.124,1.343-1.331,1.773-1.39,1.755-.241,4.363,1.569,5.284,2.428a2.675,2.675,0,0,0,3.65-3.911c-.491-.458-4.929-4.459-9.649-3.818a7.705,7.705,0,0,0-5.613,3.887c-4.564,7.417-1.435,21.554,2.062,24.352A6.619,6.619,0,0,0,158.571,422.861Z" transform="translate(-150.023 -393.311)"/></g><g transform="translate(13.284)"><rect class="h" width="29.527" height="39.19"/><g class="aj"><rect class="j" width="12.094" height="39.19" transform="translate(17.433)"/><rect class="k" width="12.094" height="39.19" transform="translate(17.433)"/></g><rect class="e" width="29.527" height="39.19"/></g></g></g><g transform="translate(201.805 352.449)"><path class="g" d="M184.381,436.933H310.494l4.124-69.333a4.718,4.718,0,0,0-4.653-5.5H184.91a4.717,4.717,0,0,0-4.651,5.5Z" transform="translate(-180.192 -362.103)"/><g transform="translate(0.984 1.66)"><path class="n" d="M311.772,363.455H193.308a4.592,4.592,0,0,0-4.585,5.322" transform="translate(-188.658 -363.455)"/><path class="n" d="M185.642,367.683a4.617,4.617,0,0,0-4.637-4.228" transform="translate(-53.132 -363.455)"/></g><rect class="ak" width="127.186" height="6.756" transform="translate(3.652 68.074)"/><ellipse class="a" cx="9.008" cy="5.405" rx="9.008" ry="5.405" transform="translate(58.688 32.273)"/></g><g transform="translate(122.551 0)"><rect class="al" width="255.701" height="158.571" rx="11.331"/><g transform="translate(84.404 10.262)"><ellipse class="af" cx="37.912" cy="37.912" rx="37.912" ry="37.912" transform="translate(74.863 86.893) rotate(-170.871)"/><g transform="translate(21.975 18.193)"><path class="h" d="M254.729,130.436l12.622,16.215a4.845,4.845,0,0,0,4.011,2.232,4.142,4.142,0,0,0,2.946-1.169,3.836,3.836,0,0,0,1.239-2.912,5.673,5.673,0,0,0-1.256-3.348l-14.4-17.819,13.529-17.82a4.878,4.878,0,0,0,.976-2.895,4.853,4.853,0,0,0-4.742-4.742,4.776,4.776,0,0,0-3.941,2.266l-12.2,16.077-12.309-15.8a5.229,5.229,0,0,0-4.219-2.545,3.832,3.832,0,0,0-2.826,1.2,3.913,3.913,0,0,0-1.186,2.842,4.3,4.3,0,0,0,.942,2.615l14.439,18.483L234.4,141.734a4.757,4.757,0,0,0-1.047,2.893,4.218,4.218,0,0,0,1.466,3.226,4.734,4.734,0,0,0,7.323-.89Z" transform="translate(-232.967 -98.179)"/></g></g><path class="h" d="M193.342,185.9h144.54a11.058,11.058,0,0,0,11.057-11.057h0a11.058,11.058,0,0,0-11.057-11.058H193.342a11.058,11.058,0,0,0-11.058,11.058h0A11.058,11.058,0,0,0,193.342,185.9Z" transform="translate(-137.761 -54.791)"/><g transform="translate(72.866 116.291)"><path d="M211.4,177.055a.71.71,0,0,0,.52-.222.738.738,0,0,0,.222-.543,1.008,1.008,0,0,0-.145-.5l-1.1-1.716,2.249.066a.722.722,0,0,0,.565-.222.806.806,0,0,0,0-1.063.718.718,0,0,0-.565-.222l-2.217.066,1.042-1.651a1.142,1.142,0,0,0,.167-.543.746.746,0,0,0-.227-.555.733.733,0,0,0-.527-.221.721.721,0,0,0-.654.421l-1.074,1.929-1.03-1.851a.867.867,0,0,0-.744-.5.7.7,0,0,0-.514.216.727.727,0,0,0-.216.538.952.952,0,0,0,.144.487l1.086,1.728-2.25-.066a.718.718,0,0,0-.565.222.806.806,0,0,0,0,1.063.722.722,0,0,0,.565.222l2.272-.066-1.008,1.573a1.264,1.264,0,0,0-.189.621.743.743,0,0,0,.216.548.688.688,0,0,0,.5.217.8.8,0,0,0,.708-.476l1.02-1.807,1.019,1.807A.8.8,0,0,0,211.4,177.055Z" transform="translate(-103.945 -169.73)"/><path d="M220.58,177.055a.713.713,0,0,0,.522-.222.738.738,0,0,0,.222-.543,1.021,1.021,0,0,0-.145-.5l-1.1-1.716,2.25.066a.721.721,0,0,0,.565-.222.81.81,0,0,0,0-1.063.717.717,0,0,0-.565-.222l-2.216.066,1.041-1.651a1.143,1.143,0,0,0,.167-.543.743.743,0,0,0-.228-.555.73.73,0,0,0-.525-.221.72.72,0,0,0-.654.421l-1.075,1.929-1.03-1.851a.867.867,0,0,0-.743-.5.7.7,0,0,0-.516.216.732.732,0,0,0-.216.538.954.954,0,0,0,.145.487l1.085,1.728-2.249-.066a.719.719,0,0,0-.566.222.81.81,0,0,0,0,1.063.723.723,0,0,0,.566.222l2.271-.066-1.008,1.573a1.265,1.265,0,0,0-.189.621.743.743,0,0,0,.216.548.692.692,0,0,0,.5.217.8.8,0,0,0,.71-.476l1.019-1.807,1.019,1.807A.807.807,0,0,0,220.58,177.055Z" transform="translate(-124.395 -169.73)"/><path d="M229.759,177.055a.711.711,0,0,0,.522-.222.733.733,0,0,0,.222-.543,1.021,1.021,0,0,0-.145-.5l-1.1-1.716,2.25.066a.725.725,0,0,0,.566-.222.81.81,0,0,0,0-1.063.721.721,0,0,0-.566-.222l-2.216.066,1.041-1.651a1.129,1.129,0,0,0,.167-.543.743.743,0,0,0-.228-.555.73.73,0,0,0-.525-.221.72.72,0,0,0-.654.421l-1.075,1.929-1.03-1.851a.865.865,0,0,0-.743-.5.7.7,0,0,0-.516.216.732.732,0,0,0-.216.538.955.955,0,0,0,.145.487l1.085,1.728-2.249-.066a.721.721,0,0,0-.566.222.81.81,0,0,0,0,1.063.725.725,0,0,0,.566.222l2.271-.066-1.008,1.573a1.262,1.262,0,0,0-.188.621.738.738,0,0,0,.216.548.688.688,0,0,0,.5.217.8.8,0,0,0,.71-.476l1.019-1.807,1.02,1.807A.805.805,0,0,0,229.759,177.055Z" transform="translate(-144.844 -169.73)"/><path d="M238.941,177.055a.707.707,0,0,0,.519-.222.733.733,0,0,0,.222-.543,1.009,1.009,0,0,0-.145-.5l-1.1-1.716,2.248.066a.725.725,0,0,0,.566-.222.806.806,0,0,0,0-1.063.721.721,0,0,0-.566-.222l-2.216.066,1.041-1.651a1.129,1.129,0,0,0,.167-.543.745.745,0,0,0-.226-.555.736.736,0,0,0-.528-.221.719.719,0,0,0-.653.421L237.2,172.08l-1.03-1.851a.865.865,0,0,0-.743-.5.7.7,0,0,0-.514.216.728.728,0,0,0-.217.538.953.953,0,0,0,.144.487l1.086,1.728-2.249-.066a.721.721,0,0,0-.566.222.806.806,0,0,0,0,1.063.725.725,0,0,0,.566.222l2.271-.066-1.008,1.573a1.275,1.275,0,0,0-.188.621.738.738,0,0,0,.216.548.687.687,0,0,0,.5.217.8.8,0,0,0,.71-.476l1.019-1.807,1.02,1.807A.8.8,0,0,0,238.941,177.055Z" transform="translate(-165.294 -169.73)"/><path d="M248.12,177.055a.708.708,0,0,0,.521-.222.733.733,0,0,0,.222-.543,1.019,1.019,0,0,0-.144-.5l-1.1-1.716,2.249.066a.723.723,0,0,0,.566-.222.81.81,0,0,0,0-1.063.719.719,0,0,0-.566-.222l-2.216.066,1.042-1.651a1.14,1.14,0,0,0,.166-.543.746.746,0,0,0-.227-.555.735.735,0,0,0-.527-.221.72.72,0,0,0-.654.421l-1.075,1.929-1.03-1.851a.865.865,0,0,0-.741-.5.7.7,0,0,0-.516.216.727.727,0,0,0-.216.538.953.953,0,0,0,.144.487l1.086,1.728-2.25-.066a.717.717,0,0,0-.565.222.81.81,0,0,0,0,1.063.721.721,0,0,0,.565.222l2.272-.066-1.009,1.573a1.275,1.275,0,0,0-.188.621.738.738,0,0,0,.216.548.69.69,0,0,0,.5.217.8.8,0,0,0,.71-.476l1.018-1.807,1.02,1.807A.805.805,0,0,0,248.12,177.055Z" transform="translate(-185.744 -169.73)"/><path d="M257.3,177.055a.713.713,0,0,0,.522-.222.736.736,0,0,0,.22-.543,1.018,1.018,0,0,0-.142-.5l-1.1-1.716,2.249.066a.723.723,0,0,0,.566-.222.81.81,0,0,0,0-1.063.719.719,0,0,0-.566-.222l-2.216.066,1.042-1.651a1.15,1.15,0,0,0,.165-.543.745.745,0,0,0-.226-.555.733.733,0,0,0-.527-.221.723.723,0,0,0-.654.421l-1.074,1.929-1.03-1.851a.867.867,0,0,0-.743-.5.7.7,0,0,0-.516.216.727.727,0,0,0-.216.538.943.943,0,0,0,.145.487l1.085,1.728-2.25-.066a.718.718,0,0,0-.565.222.81.81,0,0,0,0,1.063.722.722,0,0,0,.565.222l2.272-.066-1.008,1.573a1.265,1.265,0,0,0-.189.621.738.738,0,0,0,.216.548.688.688,0,0,0,.5.217.794.794,0,0,0,.708-.476l1.02-1.807,1.019,1.807A.8.8,0,0,0,257.3,177.055Z" transform="translate(-206.193 -169.73)"/><path d="M266.48,177.055a.713.713,0,0,0,.522-.222.737.737,0,0,0,.221-.543,1.019,1.019,0,0,0-.144-.5l-1.1-1.716,2.25.066a.72.72,0,0,0,.563-.222.806.806,0,0,0,0-1.063.716.716,0,0,0-.563-.222l-2.217.066,1.042-1.651a1.153,1.153,0,0,0,.166-.543.746.746,0,0,0-.227-.555.73.73,0,0,0-.525-.221.72.72,0,0,0-.654.421l-1.075,1.929-1.03-1.851a.867.867,0,0,0-.743-.5.7.7,0,0,0-.516.216.728.728,0,0,0-.216.538.954.954,0,0,0,.145.487l1.085,1.728-2.25-.066a.718.718,0,0,0-.565.222.81.81,0,0,0,0,1.063.722.722,0,0,0,.565.222l2.272-.066-1.008,1.573a1.265,1.265,0,0,0-.189.621.743.743,0,0,0,.216.548.69.69,0,0,0,.5.217.794.794,0,0,0,.708-.476l1.02-1.807,1.019,1.807A.8.8,0,0,0,266.48,177.055Z" transform="translate(-226.643 -169.73)"/><path d="M275.661,177.055a.713.713,0,0,0,.522-.222.732.732,0,0,0,.221-.543,1.019,1.019,0,0,0-.144-.5l-1.1-1.716,2.25.066a.724.724,0,0,0,.565-.222.81.81,0,0,0,0-1.063.72.72,0,0,0-.565-.222l-2.216.066,1.041-1.651a1.14,1.14,0,0,0,.166-.543.742.742,0,0,0-.227-.555.73.73,0,0,0-.525-.221.72.72,0,0,0-.654.421l-1.075,1.929-1.03-1.851a.867.867,0,0,0-.743-.5.7.7,0,0,0-.516.216.732.732,0,0,0-.216.538.955.955,0,0,0,.145.487l1.085,1.728-2.249-.066a.719.719,0,0,0-.566.222.81.81,0,0,0,0,1.063.723.723,0,0,0,.566.222l2.271-.066-1.008,1.573a1.265,1.265,0,0,0-.189.621.739.739,0,0,0,.217.548.685.685,0,0,0,.5.217.794.794,0,0,0,.708-.476l1.02-1.807,1.02,1.807A.8.8,0,0,0,275.661,177.055Z" transform="translate(-247.094 -169.73)"/><path d="M284.84,177.055a.711.711,0,0,0,.522-.222.732.732,0,0,0,.221-.543,1.019,1.019,0,0,0-.144-.5l-1.1-1.716,2.249.066a.724.724,0,0,0,.565-.222.806.806,0,0,0,0-1.063.72.72,0,0,0-.565-.222l-2.216.066,1.041-1.651a1.14,1.14,0,0,0,.166-.543.742.742,0,0,0-.227-.555.73.73,0,0,0-.525-.221.72.72,0,0,0-.654.421L283.1,172.08l-1.03-1.851a.865.865,0,0,0-.741-.5.7.7,0,0,0-.517.216.732.732,0,0,0-.216.538.955.955,0,0,0,.145.487l1.085,1.728-2.249-.066a.721.721,0,0,0-.566.222.81.81,0,0,0,0,1.063.725.725,0,0,0,.566.222l2.271-.066-1.008,1.573a1.263,1.263,0,0,0-.188.621.738.738,0,0,0,.216.548.686.686,0,0,0,.5.217.8.8,0,0,0,.71-.476l1.019-1.807,1.02,1.807A.8.8,0,0,0,284.84,177.055Z" transform="translate(-267.543 -169.73)"/><path d="M294.021,177.055a.708.708,0,0,0,.52-.222.732.732,0,0,0,.221-.543,1.007,1.007,0,0,0-.144-.5l-1.1-1.716,2.249.066a.722.722,0,0,0,.565-.222.806.806,0,0,0,0-1.063.718.718,0,0,0-.565-.222l-2.216.066,1.042-1.651a1.15,1.15,0,0,0,.164-.543.745.745,0,0,0-.226-.555.735.735,0,0,0-.527-.221.72.72,0,0,0-.654.421l-1.075,1.929-1.03-1.851a.865.865,0,0,0-.742-.5.7.7,0,0,0-.516.216.727.727,0,0,0-.216.538.953.953,0,0,0,.144.487l1.086,1.728-2.25-.066a.721.721,0,0,0-.566.222.81.81,0,0,0,0,1.063.725.725,0,0,0,.566.222l2.271-.066-1.008,1.573a1.275,1.275,0,0,0-.188.621.738.738,0,0,0,.216.548.687.687,0,0,0,.5.217.8.8,0,0,0,.71-.476l1.019-1.807,1.02,1.807A.8.8,0,0,0,294.021,177.055Z" transform="translate(-287.992 -169.73)"/></g><line class="am" x1="15.007" transform="translate(25.316 150.777)"/><path class="am" d="M345.823,107.768v99.657a10.894,10.894,0,0,1-10.894,10.894h-183.1" transform="translate(-97.257 -67.542)"/><line class="am" y2="14.953" transform="translate(248.565 13.783)"/></g><g transform="translate(264.074 135.673)"><path class="an" d="M24.194,33.964h0a3.8,3.8,0,0,1-7.6,0h0c-.02-1.094-.031-1.753-.031-2a13.181,13.181,0,0,1,1.226-6.059,18.521,18.521,0,0,1,4.871-5.349,35.607,35.607,0,0,0,4.377-3.89,5.194,5.194,0,0,0,1.105-3.212,5.326,5.326,0,0,0-1.957-4.144,7.608,7.608,0,0,0-5.256-1.733,8.014,8.014,0,0,0-5.338,1.813,9.7,9.7,0,0,0-2.947,5.543h0a3.861,3.861,0,0,1-7.66-.972h0a12.752,12.752,0,0,1,4.54-9.046Q13.735,1.192,20.577,1.2q7.2,0,11.457,3.759A11.348,11.348,0,0,1,36.289,13.7,9.6,9.6,0,0,1,34.73,18.93q-1.565,2.459-6.677,6.717a12.7,12.7,0,0,0-3.283,3.534,11.87,11.87,0,0,0-.576,4.782Zm-3.8,6.639a4.32,4.32,0,1,1-4.32,4.32A4.32,4.32,0,0,1,20.395,40.6Z" transform="translate(0)"/></g></g></svg>