<?xml version="1.0" encoding="utf-8"?>
<!-- Generator: Adobe Illustrator 24.3.0, SVG Export Plug-In . SVG Version: 6.00 Build 0)  -->
<svg version="1.1" id="Capa_1" xmlns="http://www.w3.org/2000/svg" xmlns:xlink="http://www.w3.org/1999/xlink" x="0px" y="0px"
	 viewBox="0 0 512 512" style="enable-background:new 0 0 512 512;" xml:space="preserve">
<path d="M240,480c-2.3,0-4.7-0.5-6.9-1.5c-5.6-2.7-9.1-8.3-9.1-14.5V352.5C161.3,355.9,101.3,380,53.4,421l-27,23.1
	c-4.7,4.1-11.4,5-17.1,2.4C3.6,443.9,0,438.2,0,432v-32c0-127,99.1-231.2,224-239.5V48c0-6.2,3.5-11.8,9.1-14.5
	c5.5-2.6,12.2-1.8,17,2l256,208c3.7,3,5.9,7.6,5.9,12.4s-2.2,9.4-5.9,12.4l-256,208C247.2,478.8,243.6,480,240,480L240,480z
	 M470.6,256c0,0-214.6-174.4-214.6-174.4V176c0,8.8-7.2,16-16,16c-113.8,0-206.5,91.8-208,205.2l0.5-0.5C90.3,347.2,164,320,240,320
	c8.8,0,16,7.2,16,16v94.4L470.6,256L470.6,256z"/>
</svg>
