<svg width="21" height="21" viewBox="0 0 21 21" fill="none" xmlns="http://www.w3.org/2000/svg">
<path fill-rule="evenodd" clip-rule="evenodd" d="M20.25 0C20.6642 0 21 0.335786 21 0.75V20.25C20.9823 20.3575 20.9413 20.4599 20.88 20.55C20.8827 20.5699 20.8827 20.5901 20.88 20.61V20.67C20.8511 20.7195 20.8158 20.7649 20.775 20.805C20.7144 20.8651 20.6432 20.9134 20.565 20.9475H20.5125C20.4289 20.9806 20.3399 20.9984 20.25 21H0.75004C0.63273 20.9889 0.519676 20.9504 0.42004 20.8875H0.36004C0.290495 20.8494 0.225137 20.8042 0.165041 20.7525C0.115056 20.7055 0.0743496 20.6495 0.0450412 20.5875V20.5425V20.4825C0.0149348 20.4087 -0.000355655 20.3297 4.13028e-05 20.25V0.75C4.13028e-05 0.335786 0.335827 0 0.75004 0H20.25ZM19.5 17.25V1.5H1.50004V17.6325L7.61252 7.83C7.74928 7.60934 7.99042 7.47509 8.25002 7.47509C8.50963 7.47509 8.75077 7.60934 8.88752 7.83L12.48 13.575L14.34 10.125C14.4709 9.88243 14.7244 9.73123 15 9.73123C15.2757 9.73123 15.5291 9.88243 15.66 10.125L19.5 17.25ZM8.25002 9.6675L11.8875 15.4875L14.4 19.5H2.10004L8.25002 9.6675ZM13.395 15.0675L16.1625 19.5H18.9975L15 12.0675L13.395 15.0675Z" fill="#4A4A4A"/>
<path d="M5.72749 6.68183C6.25468 6.68183 6.68204 6.25446 6.68204 5.72728C6.68204 5.2001 6.25468 4.77274 5.72749 4.77274C5.20031 4.77274 4.77295 5.2001 4.77295 5.72728C4.77295 6.25446 5.20031 6.68183 5.72749 6.68183Z" fill="black"/>
</svg>
