<svg width="21" height="21" viewBox="0 0 21 21" fill="none" xmlns="http://www.w3.org/2000/svg">
<path d="M5.0948 21C3.75327 21 2.48638 20.4684 1.50894 19.491C0.485483 18.4675 -0.0491129 17.1265 0.00355098 15.715C0.0579785 14.2571 0.716564 12.8567 1.90814 11.6652L4.05358 9.51098C4.37326 9.18995 4.89263 9.18888 5.21366 9.5086C5.53465 9.82827 5.53576 10.3477 5.21604 10.6687L3.06946 12.8241C1.32995 14.5636 1.16581 16.8276 2.6691 18.3309C4.17244 19.8344 6.43646 19.6702 8.17469 17.9318L11.1232 14.9833C12.0169 14.0896 12.5097 13.0692 12.5484 12.0324C12.5839 11.0821 12.2195 10.1748 11.5224 9.47767C11.2888 9.24413 11.0304 9.04594 10.7542 8.88865C10.3605 8.66441 10.2232 8.16349 10.4474 7.76986C10.6717 7.37619 11.1726 7.23887 11.5662 7.46306C11.9697 7.69291 12.3453 7.98043 12.6825 8.31763C13.706 9.34109 14.2405 10.6821 14.1879 12.0936C14.1335 13.5515 13.4749 14.9519 12.2833 16.1435L9.33481 19.092C8.14319 20.2835 6.74284 20.9421 5.28503 20.9966C5.22154 20.9988 5.158 21 5.0948 21ZM10.5526 13.2302C10.7769 12.8365 10.6395 12.3356 10.2458 12.1114C9.96969 11.9541 9.71121 11.7559 9.47767 11.5224C7.97437 10.019 8.13852 7.75501 9.87683 6.01669L12.8253 3.06823C14.5637 1.32995 16.8276 1.16576 18.3309 2.66907C19.8342 4.17237 19.6701 6.4364 17.9305 8.17592L15.784 10.3313C15.4642 10.6523 15.4653 11.1717 15.7863 11.4914C16.1073 11.8111 16.6267 11.81 16.9464 11.489L19.0919 9.33481C20.2834 8.14323 20.942 6.74283 20.9965 5.28505C21.0491 3.87349 20.5145 2.53244 19.4911 1.50898C18.4676 0.485475 17.1259 -0.0490412 15.715 0.00354091C14.2572 0.0579687 12.8568 0.716557 11.6653 1.90814L8.71675 4.8566C7.52517 6.04819 6.86663 7.44858 6.81216 8.90636C6.75949 10.3179 7.29409 11.659 8.31755 12.6825C8.65474 13.0196 9.03031 13.3071 9.43387 13.537C9.562 13.61 9.70145 13.6447 9.8391 13.6447C10.1243 13.6446 10.4014 13.4956 10.5526 13.2302Z" fill="#2F2E41" fill-opacity="0.8"/>
</svg>
