<svg xmlns="http://www.w3.org/2000/svg" width="28" height="28" viewBox="0 0 28 28"><defs><style>.a{fill:#64b159;}.b{fill:#fff;}</style></defs><g transform="translate(-319 -585)"><circle class="a" cx="14" cy="14" r="14" transform="translate(319 585)"/><g transform="translate(322.5 587.6)"><g transform="translate(2.5 3.4)"><path class="b" d="M38.509,57.1H37.173a.472.472,0,0,0-.473.473v.811a.472.472,0,0,0,.473.473h1.335a.472.472,0,0,0,.473-.473v-.811A.472.472,0,0,0,38.509,57.1Z" transform="translate(-30.919 -48.022)"/><path class="b" d="M18.309,57.1H16.973a.472.472,0,0,0-.473.473v.811a.472.472,0,0,0,.473.473h1.335a.473.473,0,0,0,.473-.473v-.811A.472.472,0,0,0,18.309,57.1Z" transform="translate(-14.133 -48.022)"/><path class="b" d="M38.509,39.4H37.173a.472.472,0,0,0-.473.473v.811a.472.472,0,0,0,.473.473h1.335a.472.472,0,0,0,.473-.473v-.811A.472.472,0,0,0,38.509,39.4Z" transform="translate(-30.919 -33.314)"/><path class="b" d="M18.309,39.4H16.973a.472.472,0,0,0-.473.473v.811a.472.472,0,0,0,.473.473h1.335a.472.472,0,0,0,.473-.473v-.811A.472.472,0,0,0,18.309,39.4Z" transform="translate(-14.133 -33.314)"/><path class="b" d="M58.709,39.4H57.373a.472.472,0,0,0-.473.473v.811a.472.472,0,0,0,.473.473h1.335a.472.472,0,0,0,.473-.473v-.811A.462.462,0,0,0,58.709,39.4Z" transform="translate(-47.704 -33.314)"/><path class="b" d="M16.362,12.14V6.291a1.6,1.6,0,0,0-.406-1.065V5.192h-.017a1.6,1.6,0,0,0-1.2-.541H13.555v-.71a.534.534,0,0,0-.541-.541H12.2a.534.534,0,0,0-.541.541v.727H7.233V3.941A.534.534,0,0,0,6.692,3.4H5.881a.534.534,0,0,0-.541.541v.727H4.14a1.633,1.633,0,0,0-1.2.541H2.906v.017A1.6,1.6,0,0,0,2.5,6.291v8.689A1.623,1.623,0,0,0,4.123,16.6h7.269a3.668,3.668,0,1,0,4.97-4.463ZM11.223,15.5v.017h-7.1a.534.534,0,0,1-.541-.541V8.336H15.263v3.516a2.865,2.865,0,0,0-.389-.017A3.661,3.661,0,0,0,11.223,15.5Zm3.668,2.569A2.586,2.586,0,1,1,17.477,15.5,2.6,2.6,0,0,1,14.891,18.073Z" transform="translate(-2.5 -3.4)"/><path class="b" d="M68.476,68.347l-.9.964-.372-.406a.538.538,0,0,0-.778.744l.778.828a.532.532,0,0,0,.778,0l1.285-1.386a.551.551,0,0,0-.017-.761A.541.541,0,0,0,68.476,68.347Z" transform="translate(-55.493 -57.224)"/></g></g></g></svg>