<svg xmlns="http://www.w3.org/2000/svg" viewBox="0 0 64.63 93.68" id="thumbs"><path class="st1" d="M64.53 42.54c-.12-.41-.39-.76-.67-1.02-.24-.2-.49-.35-.75-.47-.21-.08-.4-.13-.6-.19-.4-.14-.8-.2-1.19-.23-.94-.1-1.79-.01-2.67.1-1.33.19-2.2.75-3.17 1.33-.97.59-1.93 1.12-2.95 1.51.01-.23.01-.46.04-.7.08-.68.21-1.36.32-2.03l.27-1.79c.09-.6.18-1.16.42-1.6.23-.43.37-.79.48-1.4.12-.64.29-1.37.33-2.02.03-.54-.15-.93-.09-1.46.03-.26.11-.49.15-.74l.03-.25c.02-.13.05-.26.07-.38.12-.57.22-1.16.29-1.75.04-.34.07-.67.08-1 .01-.25.01-.5.01-.75.06-.2.13-.4.18-.6.01-.07.03-.15.06-.21.02-.04.04-.08.06-.11l.03-.09c.01-.03.03-.08.03-.11.01-.04 0-.08-.01-.12-.01-.09 0-.18.04-.25.03-.05.07-.1.1-.15.04-.07.06-.17.06-.26 0-.14-.05-.26-.09-.38-.04-.11-.11-.24-.09-.38.02-.15.13-.21.21-.3.2-.23-.03-.41-.01-.67.01-.12.04-.22.02-.34-.02-.13-.09-.25-.12-.38-.09-.36.13-.51.22-.87.11-.41.06-.76-.02-1.16-.09-.39-.02-.73-.1-1.14-.02-.15-.06-.29-.09-.44-.04-.28-.15-.59-.22-.88-.15-.43-.37-.86-.65-1.26-.11-.19-.21-.35-.39-.49-.16-.13-.33-.31-.52-.37-.33-.14-.58-.27-.9-.42-.36-.15-.7-.21-1.06-.2-.02-.18-.05-.36-.07-.54-.13-.94-.3-2.05-1.03-3.1-.14-.18-.29-.35-.45-.52-.17-.15-.36-.31-.56-.43-.36-.2-.81-.33-1.27-.37-.44-.04-.91-.02-1.31.19-.42.2-.64.51-.92.76-.26.24-.52.45-.72.72-.08.12-.15.25-.22.38-.19-.05-.38-.1-.58-.13-.31-.01-.59-.04-.91 0-.69 0-1.39.27-1.97.63-.7.46-1.02 1.17-1.27 1.77-.26.66-.4 1.29-.64 1.92-.09.21-.2.41-.25.64-.04.21-.08.46-.12.67-.08.39-.15.78-.18 1.17-.02.34.03.67.02 1.01 0 .09-.03.17-.06.24a3.18 3.18 0 0 0-.76-.02c-1.42.1-2.6 1.13-3.34 2.17-.4.55-.74 1.14-1.1 1.69-.09.15-.19.3-.28.51-.06.14-.12.28-.14.43-.04.27.06.48.08.74.02.44-.34.76-.5 1.13-.17.41-.18.84-.43 1.2.17.2-.11.57-.23.78-.09.17-.09.27-.1.46 0 .13-.05.26-.09.39-.07.26-.17.55-.18.82 0 .13.07.19.09.31.02.13-.02.32-.08.45-.03.07-.04.15-.06.22-.02.09-.05.18-.07.27-.05.16-.12.31-.2.46-.16.34-.28.69-.3 1.07-.03.46.04.93.19 1.29.06.14.13.27.24.35.1.07.21.1.32.1h.3c.18-.01.36-.03.54-.05.06-.01.13.01.19-.02.04-.02.08-.05.12-.08.02-.01.12-.07.12-.09.01-.05.07-.09.1-.12s.06-.07.08-.11c.02-.04.06-.1.08-.14.02-.04.02-.08.04-.11.02-.05.05-.09.07-.14.02-.05.04-.12.06-.17.02-.08.04-.15.05-.23.01-.06 0-.13.03-.19-.01-.01-.01-.02-.01-.03-.01-.01-.01-.06-.01-.08-.01-.17.05-.31.13-.46.19-.35.48-.74.42-1.16-.02-.13-.05-.24-.04-.38.01-.17.08-.35.12-.52.09-.33.16-.66.2-1 .05-.34.02-.68.11-1.01.12-.42.42-.8.48-1.24.03-.16.01-.31.01-.47 0-.22.04-.43.1-.64.13-.44.33-.83.54-1.22.08-.17.13-.22.17-.36.04-.14.02-.29.03-.45.02-.5.31-.98.67-1.32.31-.3.68-.42 1.04-.52.06-.01.1-.04.16-.06-.02.06-.04.13-.06.19-.04.1-.09.21-.13.33-.14.34-.3.69-.34 1.07-.03.35.07.6.09.92.03.55-.33 1-.48 1.49-.17.53-.16 1.1-.42 1.55.17.2-.14.67-.27.94-.11.22-.11.34-.14.57-.02.16-.08.33-.13.49-.1.32-.23.68-.27 1.02-.02.16.05.24.06.38.01.19-.08.4-.14.59l-.31.94c-.05.17-.06.33-.12.5-.07.19-.12.36-.17.56-.02.11-.05.21-.1.31-.14.35-.28.73-.26 1.08.02.39.17.67.33.87.09.11.19.2.3.26v.02s0-.01.01-.02c.14.08.3.12.47.09.3-.05.65-.27.94-.66.09-.12.17-.26.24-.4.11-.24.19-.49.26-.75.06-.24.13-.46.25-.68.24-.45.6-.94.59-1.48 0-.16-.02-.3.01-.48.04-.22.12-.44.19-.66.13-.42.24-.85.32-1.28.09-.44.08-.86.21-1.31.18-.59.44-1.09.51-1.66.02-.21 0-.4 0-.6 0-.27.03-.55.09-.83.12-.58.32-1.09.52-1.62.07-.19.15-.39.18-.6.03-.24 0-.46-.01-.68 0-.15-.01-.26-.01-.4-.01-.1.02-.21.01-.32 0-.02 0-.06-.01-.08 0-.01-.02-.02-.02-.03 0-.02 0-.05.01-.07.15-.11.27-.24.35-.42l.12-.28c.06-.14.12-.29.15-.45.08-.39-.07-.73.01-1.12.1-.48.34-.9.39-1.4.04-.35-.04-.72.14-1.04.1-.18.21-.35.27-.52.03-.09.05-.18.06-.27.01-.07-.01-.05-.01-.1-.01-.03-.02-.08-.03-.13-.04-.17-.12-.34-.11-.54.02-.27.2-.5.39-.67.49-.47 1.03-.61 1.46-.76.13-.06.28-.07.43-.11.16.02.31-.01.47.08.08.04.16.1.23.16-.05.08-.09.17-.14.24-.08.17-.17.46-.2.69-.01.1-.01.19-.03.29-.02.15-.06.29-.09.43-.04.14-.08.3-.13.46-.14.47-.3.97-.34 1.49-.04.48.07.8.08 1.23.02.73-.34 1.39-.52 2.06-.18.74-.21 1.46-.48 2.15.16.28-.15.99-.28 1.36-.11.31-.11.48-.13.8-.01.23-.07.45-.12.68-.1.45-.23.95-.27 1.4-.02.21.05.31.05.5 0 .25-.09.54-.16.81-.11.43-.24.86-.36 1.28-.07.23-.08.44-.15.66-.09.25-.17.47-.23.73-.04.14-.07.27-.14.4-.2.44-.41.89-.48 1.25-.09.42-.01.65.02.9.01.05.01.11.01.16l-.05.22h.01c-.01.02-.01.03-.02.05-.11.11-.04.33.25.41.53.14 1.23-.25 1.71-.83.14-.17.29-.38.41-.6.17-.35.34-.72.44-1.08.1-.35.2-.65.35-.97.29-.65.71-1.39.7-2.11 0-.22-.01-.41.02-.65.05-.31.13-.62.2-.93.13-.59.25-1.18.32-1.77.08-.6.07-1.17.19-1.77.16-.76.46-1.49.55-2.26.03-.28.02-.54.02-.81.01-.37.04-.75.11-1.13.13-.8.34-1.52.55-2.26.08-.27.15-.54.18-.84.03-.33 0-.63-.02-.93 0-.19-.01-.35-.01-.55-.01-.14.02-.29.01-.43 0-.03 0-.09-.01-.11-.01-.02-.02-.02-.02-.04-.01-.04.01-.1.01-.15 0-.04-.01-.07 0-.12l-.01-.02c0-.04.01-.12.01-.16l.52-.38s.01-.01.01-.02c.12-.25-.01-.62.21-.86.21-.23.53-.18.6-.46.06-.23.09-.41.31-.4.06.03.11.04.15.03.05.01.09-.07.15-.05.18 0 .35.21.4.36.06.14.16.29.23.53.1.27.17.6.16.96-.02.55.18 1.03.28 1.6.01.06.02.12.03.17l.07.45c-.04.05-.08.09-.12.15l-.06.11c-.08.14-.16.29-.24.43-.08.16-.16.44-.19.67-.01.1-.01.18-.02.28-.02.14-.05.28-.08.42-.04.14-.08.29-.12.44-.12.46-.29.94-.31 1.45-.03.46.09.77.11 1.19.04.71-.33 1.34-.48 2-.16.72-.17 1.42-.44 2.08.17.27-.13.96-.25 1.32-.1.3-.11.46-.12.77-.01.22-.07.44-.11.66-.08.44-.21.92-.25 1.36-.02.2.06.3.06.48.01.25-.07.53-.14.78l-.33 1.24c-.06.22-.08.42-.15.64-.07.25-.15.46-.21.71-.03.13-.07.26-.12.39-.19.44-.38.89-.43 1.29-.06.42.02.75.09 1 .06.12.09.25.14.37v.02l.01-.01c.07.15.18.27.42.26.38-.01.9-.33 1.32-.89.12-.17.26-.37.35-.57.16-.34.3-.69.39-1.04.09-.33.19-.63.32-.93.29-.63.66-1.34.66-2.05 0-.21-.02-.39 0-.63.03-.3.12-.6.19-.9.14-.57.21-1.15.29-1.72.08-.58.05-1.13.16-1.72.14-.74.45-1.44.51-2.19.02-.27 0-.52 0-.78 0-.36.04-.72.09-1.09.11-.77.3-1.47.49-2.19.07-.26.14-.53.16-.81.02-.32-.02-.61-.04-.9l-.03-.53c-.01-.13.01-.28 0-.41 0-.03 0-.08-.01-.11-.01-.02-.02-.02-.02-.04-.01-.04.01-.1.01-.15 0-.04-.01-.07 0-.11l-.01-.02c0-.04.01-.13.01-.16 0-.05-.03-.05-.04-.09.34-.02.69.07.9.32.08.1.15.21.24.27.08.07.24.04.34.08.26.06.55.2.71.49.09.12.14.27.17.43.04.16.09.3.09.47.04.29.08.58.06.89.01.3-.03.6-.22.83-.19.23-.27.36-.37.73-.09.36-.23.78-.25 1.15-.01.31.19.55.15.86-.02.15-.08.28-.11.42-.01.05-.01.09-.02.14-.01.07-.03.15-.05.22-.09.32-.17.66-.21 1-.02.19-.04.39-.04.58 0 .14.01.29.02.44-.09.38-.17.78-.24 1.17-.02.12-.04.25-.07.37l-.07.2a.75.75 0 0 0-.04.16c-.01.06-.04.13-.04.19-.01.07 0 .14 0 .21 0 .15-.02.31-.06.44-.03.08-.08.18-.11.27-.05.13-.07.29-.08.44-.01.24.03.44.06.63.03.18.09.41.06.65-.03.25-.15.38-.23.54-.22.41 0 .7-.04 1.14-.02.2-.06.38-.05.58.02.23.07.42.1.64.06.59-.16.94-.3 1.46-.17.62-.14 1.15-.16 1.77-.02.59-.12 1.12-.21 1.7-.02.22-.05.43-.07.64-.05.42-.13.83-.21 1.23-.11.59-.19 1.2-.33 1.77-.06.25-.14.47-.17.73-.02.16-.04.34-.06.51a.7.7 0 0 1-.1.08c-.05.02-.1.04-.14.06-.15.06-.32.11-.4.26-.07.13-.02.3-.06.44-.06.25-.4.21-.58.3-.2.1-.3.32-.56.33.07.21-.2.21-.33.23-.1.01-.12.07-.18.15-.04.06-.1.09-.15.12-.11.07-.25.12-.33.24-.04.05-.01.14-.04.21-.03.09-.12.11-.19.15-.12.05-.24.1-.35.16-.06.03-.1.09-.17.11-.07.03-.14.05-.2.09-.04.02-.07.04-.11.05-.14.02-.29.05-.37.2-.1.17-.13.41-.16.64-.01.12-.02.25-.02.37h-.01.01c0 .16.01.32.08.47.1.26.33.49.62.57.09.03.18.03.27.03.15-.01.28-.06.41-.12.12-.06.23-.11.36-.11.28-.01.64.03.8-.24.05-.08.08-.17.15-.23.09-.08.2-.12.3-.18.19-.11.37-.24.53-.4.16-.16.26-.36.44-.5.23-.16.56-.19.74-.41.07-.08.09-.18.14-.28.06-.12.14-.24.24-.33.21-.19.47-.31.72-.45.09-.05.19-.1.25-.19a.3.3 0 0 0 .04-.1c.16-.06.31-.14.45-.27l.03-.02c.26-.26.59-.43.94-.62.41-.21.76-.42 1.13-.68.3-.2.56-.32.9-.45 1.18-.43 2.31-1.12 3.47-1.45.64-.2 1.32-.28 1.98-.28.33.02.66.06.96.13.14.05.28.09.43.14.06.02.16.04.19.07.03.03.07.04.08.07.02.02.01.03.02.04-.13.03-.1.03-.16.12-.08.17-.25.48-.49.78.02-.05-.35.15-.66.4-.32.26-.6.57-.97.82-.36.24-.74.42-1.1.66-.32.22-.62.48-.97.65-.32.16-.59.23-.91.45-.37.25-.68.54-1.06.79-.37.24-.78.44-1.16.67-.27.15-.74.47-1.08.75-.81.64-1.45 1.49-1.84 2.45-.13.32-.17.5-.23.73-.05.2-.11.42-.16.65-.11.43-.2.87-.34 1.29-.29.92-.58 1.76-1.18 2.54-.23.29-.47.57-.69.88-.2.3-.41.6-.63.89-.4.49-.81.96-1.23 1.41-.21.24-.47.53-.72.81l-.22.24c-.17.2-.21.47-.1.69 0 .05 0 .11.01.16.01.5-.12.89-.25 1.32-.24.76-.45 1.53-.6 2.39-.32 1.85-.36 3.72-.51 5.59-.08.97-.19 1.98-.4 2.89-.11.48-.25.99-.25 1.52 0 .48.13.79.18 1.22.08.73-.23 1.41-.33 2.11-.11.76-.05 1.49-.24 2.21.2.26-.01 1.01-.09 1.41-.06.33-.04.5-.01.82.02.23 0 .48-.01.72-.01.48-.08 1.04.02 1.49.04.21.13.29.19.48.07.21.08.54.07.79-.01.13.01.26.02.4.01.17.01.32.02.49 0 .29-.01.58-.03.86-.04.66-.03 1.28.07 1.94.13.78.35 1.53.61 2.06.1.21.22.38.34.46.11.07.23.06.34.01.1-.04.19-.1.28-.15.17-.1.33-.23.5-.34.06-.04.12-.04.17-.12.03-.06.06-.13.09-.2.01-.02.09-.17.09-.2-.01-.09.04-.18.05-.25.01-.07.03-.14.04-.22.01-.08.02-.19.03-.26.01-.07 0-.14 0-.21.01-.08.01-.19.02-.27v-.3c0-.14-.01-.26-.03-.4-.01-.1-.04-.21-.04-.32a.076.076 0 0 1-.02-.05c-.02-.01-.03-.09-.04-.13-.07-.28-.06-.53-.03-.82.06-.67.21-1.45.01-2.12-.06-.2-.13-.37-.17-.61-.04-.3-.05-.62-.05-.92.02-.57.02-1.14 0-1.7-.01-.59-.1-1.14-.07-1.74.05-.76.28-1.5.28-2.26 0-.28-.04-.53-.06-.79-.03-.36-.03-.74 0-1.12.07-.79.21-1.52.37-2.25.06-.27.11-.54.13-.83.01-.32-.04-.62-.07-.91-.1-.98-.03-2.04.11-3.08.11-.89.3-1.68.47-2.53.17-.83.15-1.56.21-2.4.06-.8.32-1.5.39-2.29.04-.49-.02-.9-.04-1.34.66-.49 1.29-.97 1.8-1.63.41-.52.65-1.11 1.11-1.58.51-.54.95-1 1.11-1.74.08-.34.08-.64.18-1 .13-.49.41-.98.66-1.43.33-.58.63-1.15.91-1.75.25-.55.49-.94.83-1.38.4-.52.81-.86 1.61-1.22.69-.31 1.41-.44 2.1-.86.6-.36.86-.88 1.47-1.2.57-.31 1.1-.33 1.6-.85.41-.44.57-.72 1.21-1.06.2-.12.38-.2.6-.43.08-.05.39-.46.4-.54.07-.14.14-.28.2-.41.21-.42.45-.85.57-1.48.08-.24.07-.64-.05-1.04z"></path><path class="st1" d="M44.17 42.97c.07-.1.15-.2.22-.31h.01c.09-.13.16-.28.17-.45.02-.29-.11-.62-.36-.83a.764.764 0 0 0-.26-.15c-.15-.06-.31-.08-.46-.09-.15-.01-.27-.01-.41-.07-.27-.12-.59-.33-.88-.17-.09.05-.16.11-.26.13-.12.03-.25.01-.37.01-.23 0-.47.02-.7.07-.23.05-.44.17-.68.18-.3.01-.61-.15-.9-.08-.11.03-.2.1-.29.14-.13.07-.28.1-.42.11-.31.02-.6-.03-.9-.09-.11-.02-.22-.04-.33-.02-.12.03-.22.12-.32.19-.07.04-.12.07-.19.12-.05.03-.11.04-.15.07-.01.01-.03.02-.04.03-.01.01 0 .02-.01.03-.01.02-.04.01-.05.02-.01.01-.02.02-.04.02v.01c-.02 0-.05.01-.06.02-.02.01-.01.04-.03.05-.01.01-.02.01-.03.02 0 .01-.01.02-.01.03l-.01.06-.03.12c-.01.05-.02.09-.03.13-.01.06-.03.12-.02.18-.01.07-.02.14-.01.21 0 .01.01.02.01.03.01.05.03.11.04.16l.06.3c.01.07.05.13.08.18.04.07.09.12.15.17l.05.04c.06.05.14.11.2.16.07.05.19.08.27.07.04-.01.07-.03.1-.03.05-.01.11 0 .16.01s.12.02.18.04c.19.05.38.12.57.05.17-.06.26-.22.4-.32.25-.16.53.08.78.11.28.03.53-.08.79.04.08-.22.36-.06.5-.01.12.04.18.01.28-.04.08-.03.16-.02.24-.02.16 0 .35.02.5-.04.07-.03.1-.12.17-.16.09-.06.19-.04.29-.03.15.01.31.03.46.03.08 0 .16-.03.24-.02.09.01.17.02.26.01.05 0 .1 0 .14.01.16.05.32.09.47 0 .17-.05.32-.25.46-.43z"></path><path class="st0" d="M3.77 50.88zM10.32 21.28c.01.01.01.02 0 0z"></path><path class="st0" d="M4.95 46.8l.09.05c1.23.65 2.54 1.53 3.58 2.7.54.6 1.02 1.32 1.3 2.06.04.1.07.2.11.29l.06.15.03.07.01.02.01.02.06.1c.09.13.21.27.36.38.63.45 1.49.4 2.06-.25.29-.33.39-.82.33-1.15l-.02-.17c-.01-.12-.03-.23-.06-.35-.1-.42-.29-.66-.42-1.02-.23-.62-.06-1.29-.1-1.92-.05-.69-.24-1.32-.19-1.99-.25-.19-.17-.89-.17-1.25 0-.3-.05-.45-.13-.72-.06-.2-.08-.41-.11-.62-.06-.42-.11-.89-.23-1.29-.06-.18-.16-.24-.23-.4-.08-.18-.13-.47-.14-.69 0-.12-.03-.23-.05-.35l-.06-.44c-.03-.26-.04-.52-.05-.78-.02-.59-.08-1.15-.25-1.72-.1-.36-.23-.71-.37-1.02v-.02c-.01-.06-.01-.11-.02-.16-.01-.08 0-.17 0-.24 0-.66-.04-1.37-.08-2.06-.01-.16-.02-.33-.02-.48.01-.08.01-.18.02-.27v-.21-.25c-.01-.09-.03-.18-.05-.26-.03-.18-.05-.39-.04-.57.01-.11.03-.25.05-.36.02-.18 0-.38-.02-.57-.04-.3-.12-.55-.2-.78-.07-.22-.17-.49-.19-.8-.01-.32.08-.51.13-.73.14-.55-.12-.87-.15-1.44-.01-.26 0-.49-.04-.73-.06-.28-.14-.51-.19-.78-.12-.73.07-1.19.2-1.84.16-.76.15-1.39.27-2.03.06-.29.18-.54.26-.63 0-.01.01-.01.01-.01h.01v-.01.01h.13c.1.01.17.01.26.05.08.04.17.12.25.25l.06.08c.08.1.19.19.31.27v.01c-.02.2-.01.53.04.79.02.11.05.2.07.31.03.16.04.32.06.48l.03.52c.03.54.05 1.12.19 1.68.13.51.35.81.51 1.26.28.76.16 1.57.26 2.33.1.84.34 1.6.35 2.42.26.23.24 1.08.27 1.53.02.37.09.54.19.88.08.24.11.5.16.75.1.51.18 1.08.34 1.56.07.23.18.29.27.49.12.26.16.6.21.9.09.49.18.99.28 1.47.05.26.14.49.19.75.06.3.11.57.18.87.04.16.08.31.1.48.08.57.19 1.17.41 1.62.24.5.53.78.79.94.32.2.62.22.85-.05.22-.26.38-.79.4-1.5 0-.22-.01-.45-.04-.69-.05-.39-.12-.78-.22-1.16-.09-.36-.16-.69-.18-1.05-.05-.75-.03-1.63-.34-2.34-.09-.21-.19-.39-.27-.65-.09-.32-.14-.67-.21-1-.12-.64-.27-1.28-.42-1.9-.16-.63-.39-1.2-.51-1.86-.15-.83-.12-1.69-.33-2.51-.07-.3-.18-.56-.28-.83-.13-.38-.23-.78-.3-1.2-.16-.87-.22-1.69-.27-2.52-.02-.3-.04-.61-.12-.93-.08-.35-.21-.65-.33-.96-.07-.18-.13-.38-.2-.56-.05-.14-.08-.31-.14-.45-.01-.03-.03-.09-.04-.11-.01-.02-.02-.01-.03-.03-.02-.04-.03-.11-.04-.16-.01-.04-.03-.07-.04-.12-.01 0-.01-.01-.02-.01-.01-.03-.02-.07-.03-.12.05-.15.07-.3.06-.44-.03-.27-.03-.17-.03-.21l-.04-.33c-.08-.63-.01-1.29.19-1.5.09-.09.15-.08.22-.14.05-.03.12-.05.21-.08l.02-.01c.06.04.13.13.2.27.19.34.39.75.59 1.24.15.4.23.75.32 1.25.15.86.4 1.72.66 2.56l.06.18c.05.17.16.32.27.45.03.15.05.29.06.43.02.17.03.33.04.49.04.51.07 1.06.23 1.59.14.48.36.75.53 1.17.29.71.19 1.48.3 2.2.12.79.38 1.5.4 2.28.27.21.27 1.02.31 1.44.03.35.1.51.21.82.08.22.12.47.18.71.11.48.21 1.02.37 1.47.08.21.18.27.27.45.12.24.17.56.23.84.1.46.2.93.31 1.39.06.25.15.46.2.71.06.28.12.53.2.81.04.15.08.29.11.45.1.53.22 1.1.44 1.52.25.47.55.71.81.86.32.18.62.18.85-.08.22-.26.37-.76.36-1.44 0-.2-.02-.43-.05-.65-.05-.37-.14-.73-.24-1.09-.1-.34-.17-.64-.2-.99-.07-.71-.06-1.54-.39-2.21-.1-.2-.2-.36-.28-.6-.1-.3-.16-.63-.23-.94-.13-.6-.29-1.2-.46-1.78-.17-.59-.41-1.13-.55-1.75-.17-.78-.16-1.6-.38-2.37-.08-.28-.19-.52-.29-.78-.14-.35-.24-.73-.32-1.13-.17-.82-.25-1.59-.33-2.38-.03-.28-.06-.58-.14-.87-.09-.33-.22-.61-.35-.89l-.12-.3c.02-.11.04-.21.03-.33-.07-.64 0-1.52.2-1.85.12-.18.06-.17.22-.18.14 0 .39.12.64.39.49.54.87 1.41 1.08 2.22.08.31.12.56.16.89.06.33.11.66.17.97.12.6.23 1.12.36 1.73.1.55.16 1.08.33 1.65.18.57.42 1.07.58 1.65l.03.1.01.05.01.04c.02.08.06.16.1.24.08.16.2.31.34.43.06.05.13.1.21.14l.06.24c.07.24.14.49.19.74.07.32.1.64.15.96.01.05.02.11.02.16.07.44.16.87.27 1.3.11.43.23.85.37 1.28.13.42.27.85.4 1.27.13.42.26.84.38 1.27.06.2.09.4.16.59.07.18.11.38.18.56.03.08.05.15.07.23.05.28.12.58.3.78.2.23.47.32.71.37.3.06.59.02.84-.15.14-.1.3-.26.37-.46.07-.22.05-.49.04-.74-.01-.15-.03-.3-.05-.45-.11-.62-.3-1.23-.49-1.82-.17-.52-.36-1.03-.51-1.56-.11-.37-.19-.74-.28-1.11-.15-.65-.38-1.27-.53-1.92-.11-.47-.17-.94-.26-1.41-.05-.23-.1-.46-.17-.68.08-.05.17-.1.24-.13.22-.09.27-.15.33-.07.06.08.14.23.3.45.1.13.26.4.4.62.15.23.29.47.42.72.27.5.46 1.04.7 1.55.2.41.38.83.55 1.26.38.94.68 1.9 1.04 2.85.37 1.16.96 2.2 1.38 3.29.5 1.18.9 2.27 1.13 3.57.09.48.14.98.25 1.48.11.47.23.97.34 1.45.22.84.31 1.7.53 2.52.18.72.4 1.37.53 2.1.12.63.09 1.14.05 1.71-.06.99-.22 2-.24 3.08 0 .59-.05 1.17-.09 1.76-.03.58-.06 1.16-.08 1.75-.04 1.17-.24 2.32-.38 3.48-.2 1.2-.59 2.41-.97 3.49l-.04.11-.02.05-.01.03-.01.01.03.06c-.02.05-.03.11-.04.17l-.03.28-.02.12-.06.49c-.04.33-.06.67-.05 1.01.02.62.16 1.01.22 1.56.1.93-.19 1.83-.27 2.73-.09.98-.02 1.91-.19 2.85.21.33 0 1.3-.07 1.81-.06.43-.04.64-.01 1.05.02.29 0 .6-.01.9-.02.61-.06 1.28-.02 1.87.02.27.11.38.15.62.05.28.04.7 0 1.01-.02.17-.01.34-.02.51-.01.21-.01.42-.02.63-.02.38-.06.74-.1 1.11-.09.84-.13 1.64-.08 2.49.07 1.01.23 1.99.45 2.69.09.27.19.51.3.62.11.1.22.09.34.04.1-.05.2-.11.29-.17.18-.12.35-.27.52-.41.06-.05.13-.04.18-.14.04-.07.07-.17.11-.25.01-.03.1-.21.1-.26 0-.11.05-.23.07-.32.02-.09.04-.18.06-.28.02-.11.03-.24.05-.34.01-.09.01-.18.01-.27.01-.11.03-.24.04-.35.01-.13.02-.27.02-.39.01-.18.01-.34.01-.52-.01-.13-.03-.28-.01-.42-.01-.01-.01-.03-.01-.07-.02-.01-.02-.12-.03-.17-.04-.36-.01-.69.03-1.06.11-.87.33-1.87.19-2.75-.04-.27-.1-.49-.12-.8-.02-.39.01-.8.02-1.19.03-.76.02-1.52.01-2.27-.02-.76-.11-1.47-.08-2.26.04-.99.25-1.96.24-2.95-.01-.36-.05-.68-.08-1.02-.04-.47-.05-.95-.03-1.45.04-1.02.16-1.98.29-2.94l.06-.53c.01-.09.01-.18.02-.27l.01-.14v-.1l.01-.05c.01-.1.03-.2.04-.3l.06-.59c.06-.65.17-1.31.32-1.99.16-.67.2-1.37.34-2.05.1-.59.21-1.14.34-1.69.11-.55.17-1.1.25-1.67.15-1.11.14-2.09.06-3.19-.07-1.06.16-2.03.02-3.07-.1-.91-.38-1.57-.47-2.47-.18-1.11-.21-2.18-.45-3.3-.21-.78-.53-1.49-.59-2.31-.06-.93-.17-1.69-.59-2.51-.2-.38-.4-.67-.61-1.1-.28-.58-.44-1.28-.58-1.91-.37-1.64-.71-3.21-1.38-4.86-.41-.96-.87-1.89-1.23-2.87-.16-.47-.29-.93-.43-1.39-.15-.48-.28-.89-.59-1.46-.34-.53-.77-.92-1.33-1.2-.56-.29-1.28-.38-1.95-.28-.37.05-.67.13-.95.23-.06-.2-.12-.41-.16-.69-.04-.26-.06-.49-.15-.77-.11-.31-.22-.66-.33-.97-.15-.48-.25-.97-.35-1.45-.11-.48-.16-.96-.31-1.53-.25-.91-.58-1.82-1.19-2.69-.37-.51-.81-1.05-1.56-1.45-.38-.19-.83-.32-1.32-.32-.49 0-1.06.16-1.48.48-.08.07-.15.13-.22.2-.19-.75-.38-1.52-.77-2.34-.2-.38-.44-.84-1.05-1.18a2.074 2.074 0 0 0-1.77-.09l.14-.04-.36.15c-.59.26-1.14.79-1.39 1.39-.25.56-.31 1.11-.32 1.63-.45-.14-.94-.14-1.39-.01-.36.1-.68.33-.89.57-.2.23-.35.47-.46.69-.43.9-.54 1.66-.81 2.29-.25.6-.39 1.12-.46 1.95-.07.87-.16 1.87-.09 2.73.05.72.3 1.18.34 1.89.02.34-.01.66 0 .99l.02.32c0 .16.01.34.01.51.01.76.05 1.54.12 2.31.04.44.1.87.17 1.3.11.66.26 1.34.42 1.95v.18c0 .06.01.13.02.19.01.09 0 .16.01.25l.03.28c.02.13.03.24.06.36.02.09.06.19.06.29.01.01.02.02.02.05.02 0 .04.08.05.11.09.25.1.48.11.74 0 .62-.08 1.35.19 1.94.08.18.16.32.22.54.07.26.1.56.14.83.07.53.18 1.06.3 1.57.12.52.31 1 .39 1.55.1.69.01 1.4.16 2.08.01.05.03.09.04.14-.12-.14-.24-.28-.37-.42-.59-.64-1.11-1.24-1.77-1.81-.32-.28-.66-.49-1.02-.67-.18-.09-.37-.17-.56-.25l-.3-.11-.17-.06-.1-.03-.03-.01c-.02-.02-.29-.06-.22-.04h-.04c-.78-.05-1.49-.29-2.36-.18-.76.12-1.35.44-2.1 1.07-.48.42-.79 1.05-.86 1.62-.08.57 0 1.08.17 1.53.24.64.65 1.08.86 1.66.24.66.46 1.2 1.05 1.61.06.04.13.09.2.13l.03.02.01.01c-.03-.03.12.13.17.15l.05.01.1.03c.13.04.27.08.42.15.4.19.75.53 1.06.85.75.89 1.38 1.75 2.2 2.63.5.49 1 1 1.4 1.58.38.55.53 1.2.96 1.75.37.48.87.66 1.18 1.18.29.49.32.96.78 1.38.39.34.66.48.89 1.04.07.17.13.33.24.49.13.2.29.37.43.57.4.58.64 1.24.94 1.85.27.52.54 1.06.84 1.57.36.61.68 1.2.99 1.83.46.96 1.04 1.58 1.62 2.37.17.23.32.46.46.69.02.03.03.05.05.08v.37c-.02.56-.09 1.1-.25 1.64-.07.23-.16.47-.18.75-.02.28.04.57.08.82.1.61.17 1.24.16 1.91-.01.62-.08 1.24-.12 1.86-.03.55-.06 1.09-.1 1.64-.03.55-.07 1.06-.26 1.48-.18.41-.29.75-.34 1.3-.06.59-.16 1.26-.14 1.85.01.25.07.45.13.66.01.05.03.11.04.16.01.01.01.09.02.04l.02.08c.02.11.03.22.03.35 0 .24-.06.45-.07.68v.23c0 .12-.02.24-.03.35-.06.53-.1 1.07-.11 1.61-.01.31 0 .62.02.92.04.61.12 1.26.25 1.78.03.12.06.21.1.29.08.15.17.24.27.31.16.12.33.23.5.3.18.07.37.03.55-.01 0-.03.09-.09.1-.1.05-.04.1-.03.14-.09.05-.07.09-.16.14-.24.03-.11.09-.1.14-.15.02-.03.04-.05.05-.09.01-.03.02-.07.04-.09 0-.08.05-.18.07-.25.03-.09.06-.19.07-.3v-.11c0-.06.02-.12.03-.17.08-.46.14-.96.17-1.44.01-.11.02-.23.04-.34.01-.05.03-.13.05-.19.01-.05.02-.09.02-.14.01-.05.02-.12.02-.17 0-.07-.01-.13-.02-.19-.01-.13-.01-.28.02-.4.02-.07.06-.17.08-.25.03-.12.04-.27.03-.4-.01-.22-.08-.4-.13-.57-.05-.16-.14-.36-.13-.58.01-.25.11-.31.18-.54.18-.39-.06-.63-.07-1.04 0-.19.02-.35-.01-.53-.04-.21-.11-.37-.16-.57-.12-.53.06-.86.16-1.35.11-.57.02-1.05-.02-1.61-.04-.53.02-1.02.05-1.55.01-.19 0-.39.01-.59.01-.38.05-.76.09-1.13.06-.54.08-1.1.16-1.63.04-.23.09-.43.1-.67 0-.22.04-.48.01-.69-.05-.38-.01-.71.03-1.1.05-.44.04-.83.01-1.27-.03-.35-.01-.62.03-.96v-.06c0-.07 0-.13-.01-.2-.01-.13-.06-.28-.1-.38l-.01-.01-.01-.03-.04-.11c-.03-.08-.06-.15-.09-.22a8.27 8.27 0 0 0-.2-.43c-.15-.28-.3-.55-.47-.82-.33-.52-.71-1.1-1.01-1.56-.7-1.13-1.44-2.4-2.02-3.6-.21-.43-.37-.86-.56-1.3-.17-.38-.39-.75-.56-1.12-.17-.36-.29-.73-.54-1.07-.25-.35-.55-.61-.79-.97-.23-.34-.41-.7-.66-1.03-.22-.29-.49-.55-.68-.87-.16-.3-.26-.54-.5-.82-.28-.32-.59-.57-.87-.9-.27-.33-.53-.65-.79-.98-.22-.26-.46-.5-.67-.77-.48-.58-.98-1.14-1.49-1.7-.66-.64-1.4-1.13-2.15-1.6-.41-.26-.8-.49-1.18-.75l-.11-.07c-.05-.06-.1-.12-.15-.19-.12-.17-.24-.35-.34-.54-.15-.29-.27-.59-.43-.88-.15-.27-.31-.54-.43-.81-.2-.47-.29-.92-.29-1.16-.02-.2 0-.42.33-.66.29-.18.63-.16.98-.1.31.06.63.12.95.2.18.04.34.08.5.11l.13.03.02-.01zm12.16 25.31c-.02-.11.02 0 0 0zM3.77 50.88l-.05-.05h.01c.06.07.05.06.04.05zm-.16-.15c.01.01-.01-.01 0 0zm29.83 18.51c-.04.18-.03.13-.03.12v-.02l.01-.04.01-.08.01-.07c.01.04.01.06 0 .09z"></path><g><path class="st4" d="M35.38 6.94c.07-.05.14-.09.23-.11.07-.02.14-.03.21-.02.1.02.2.05.3.07.07.01.14.01.2.02.07.02.13.06.18.11.06.02.11.07.16.11.04.03.07.07.11.09.04.03.06.06.1.09.02.02.04.02.05.04.01.01.02.01.02.02.01.01 0 .03 0 .04.01.02.03.03.04.06 0 .02 0 .06-.01.09l.01.01v.06c0 .02-.01.05-.01.08 0 .01.02.01.02.02.01.01.01.04.01.05.01.07-.01.14 0 .22.01.09.01.19.02.28.02.16.05.31.03.48-.02.14-.09.27-.16.4-.19.34-.37.68-.47 1.07-.05.19-.08.37-.07.56.01.14.03.27.02.41-.05.38-.32.71-.42 1.08-.08.29-.03.59-.06.89-.03.29-.08.59-.15.87-.04.15-.09.3-.1.45 0 .12.04.22.06.34.08.38-.19.71-.36 1.02-.08.15-.11.3-.14.47-.02.18-.06.35-.13.52-.04.1-.1.2-.16.28-.22.27-.52.42-.8.45-.3.03-.58-.07-.81-.25-.19-.14-.39-.34-.46-.62-.07-.24 0-.51.09-.76.02-.07.04-.14.04-.22.01-.14.04-.26.08-.39.03-.12.02-.23.04-.35.05-.22.11-.44.17-.66.04-.13.09-.28.06-.42-.02-.1-.1-.16-.11-.27-.01-.24.08-.49.14-.71.03-.11.07-.23.07-.34 0-.16-.01-.25.07-.4.1-.18.36-.51.19-.68.23-.32.22-.69.37-1.05.13-.33.48-.61.44-.99-.02-.23-.14-.41-.11-.65.03-.27.18-.49.31-.71l.12-.21c.03-.06.07-.13.09-.2.01-.05.01-.1.02-.14.03-.12.11-.25.19-.32s.16-.12.24-.19c-.01-.06.01-.08.03-.09zM18.28 10.83c.01-.08.03-.16.07-.24.03-.06.07-.12.12-.17.08-.06.17-.12.24-.19.05-.04.09-.1.15-.14a.48.48 0 0 1 .2-.07c.05-.03.12-.04.18-.05.05-.01.09-.01.14-.03.04-.01.08-.01.13-.02.02 0 .04-.01.06-.01.01 0 .02-.01.03 0 .01 0 .02.02.03.02.02.01.04-.01.06.01.02.01.04.04.06.06h.01c.01.02.03.02.05.03.02.01.03.04.05.05.01 0 .02-.01.03 0 .01 0 .03.02.05.03.06.04.1.09.16.13.07.05.14.11.22.15.13.08.27.15.37.26.09.1.14.23.19.36.13.34.26.68.47.99.1.15.22.28.37.38.1.08.22.14.31.23.25.26.31.66.52.96.17.23.41.37.61.57.19.2.38.41.54.63.08.12.16.25.27.34.09.08.19.1.29.15.33.16.4.56.51.87.06.15.14.26.25.38.12.12.22.26.3.41.05.09.08.19.1.29.06.32-.02.64-.19.88s-.43.39-.71.46c-.23.06-.5.09-.75-.02-.22-.09-.38-.31-.5-.52a1.01 1.01 0 0 0-.13-.16c-.09-.09-.16-.19-.24-.29-.07-.09-.16-.15-.23-.24-.13-.17-.26-.34-.38-.52-.08-.11-.15-.24-.27-.29-.09-.04-.19-.02-.27-.08-.18-.14-.31-.35-.44-.53-.06-.09-.12-.19-.21-.25-.12-.09-.19-.14-.25-.29-.07-.18-.13-.58-.38-.54-.09-.36-.36-.58-.53-.9-.15-.29-.14-.72-.44-.92-.18-.12-.39-.14-.55-.3-.18-.18-.25-.43-.32-.66-.02-.07-.05-.15-.08-.22-.03-.06-.06-.13-.09-.19a.902.902 0 0 0-.09-.1.599.599 0 0 1-.11-.34c0-.1.02-.19.02-.29v-.07zM25.76.55c.04-.12.09-.21.16-.29.05-.07.11-.12.18-.14.1-.02.2-.02.3-.05.07-.02.13-.06.19-.07.07-.01.14.03.21.08.06 0 .13.05.19.09.05.03.09.07.14.09.05.02.08.06.13.09.02.02.04.02.06.04.01.01.02.01.03.02.01.02.01.05.02.06.02.03.04.03.06.07.01.03.03.1.03.14l.01.01c.01.04.02.06.03.09.01.04.01.09.03.12.01.01.02.01.03.02.01.02.02.06.03.09.04.11.05.23.09.34.05.14.09.29.14.43.09.23.19.46.23.72.04.24.04.47.03.7-.02.63-.04 1.25.04 1.9.03.31.09.62.19.91.07.21.15.41.2.63.13.62.02 1.27.09 1.9.06.5.23.93.33 1.41.1.47.19.95.24 1.44.03.25.05.52.11.76.05.19.13.33.2.49.24.54.14 1.2.12 1.77-.01.28.03.52.08.8.06.29.1.58.11.88.01.18 0 .36-.03.52-.08.53-.28.93-.53 1.12-.26.2-.56.18-.85.02-.24-.13-.5-.34-.69-.72-.17-.34-.22-.8-.25-1.23-.01-.12-.03-.24-.05-.36-.05-.23-.07-.43-.1-.65-.02-.2-.09-.37-.11-.57-.05-.37-.1-.75-.14-1.11-.03-.23-.04-.49-.13-.68-.07-.15-.17-.2-.22-.37-.11-.36-.14-.8-.19-1.18-.02-.19-.04-.39-.09-.57-.07-.25-.12-.38-.11-.66.01-.33.11-.97-.13-1.15.07-.61-.1-1.19-.12-1.82-.02-.58.17-1.19-.04-1.76-.12-.34-.3-.56-.39-.95-.09-.43-.05-.86-.03-1.27.01-.13.01-.26.02-.39 0-.12 0-.24-.01-.36-.01-.08-.03-.16-.04-.24-.03-.2-.01-.45.03-.6.04-.14.09-.27.14-.41.01-.08.02-.12.03-.15z"></path></g><g><circle class="st11" cx="29.62" cy="51.51" r=".75"></circle><circle class="st11" cx="29.62" cy="57.51" r=".75"></circle><circle class="st11" cx="29.62" cy="54.51" r=".75"></circle><circle class="st11" cx="29.62" cy="60.51" r=".75"></circle><circle class="st11" cx="26.62" cy="47.01" r=".75"></circle><circle class="st11" cx="26.62" cy="44.01" r=".75"></circle><circle class="st11" cx="23.62" cy="45.51" r=".75"></circle><circle class="st11" cx="23.62" cy="42.51" r=".75"></circle><circle class="st11" cx="26.62" cy="53.01" r=".75"></circle><circle class="st11" cx="26.62" cy="50.01" r=".75"></circle><circle class="st11" cx="23.62" cy="51.51" r=".75"></circle><circle class="st11" cx="23.62" cy="48.51" r=".75"></circle><circle class="st11" cx="26.62" cy="59.01" r=".75"></circle><circle class="st11" cx="26.62" cy="56.01" r=".75"></circle><circle class="st11" cx="23.62" cy="57.51" r=".75"></circle><circle class="st11" cx="23.62" cy="54.51" r=".75"></circle><circle class="st11" cx="26.62" cy="65.01" r=".75"></circle><circle class="st11" cx="26.62" cy="62.01" r=".75"></circle><circle class="st11" cx="23.62" cy="63.51" r=".75"></circle><circle class="st11" cx="23.62" cy="60.51" r=".75"></circle><circle class="st11" cx="26.62" cy="71.01" r=".75"></circle><circle class="st11" cx="26.62" cy="68.01" r=".75"></circle><circle class="st11" cx="23.62" cy="69.51" r=".75"></circle><circle class="st11" cx="23.62" cy="66.51" r=".75"></circle><circle class="st11" cx="26.62" cy="77.01" r=".75"></circle><circle class="st11" cx="26.62" cy="74.01" r=".75"></circle><circle class="st11" cx="23.62" cy="75.51" r=".75"></circle><circle class="st11" cx="23.62" cy="72.51" r=".75"></circle><circle class="st11" cx="26.62" cy="83.01" r=".75"></circle><circle class="st11" cx="26.62" cy="80.01" r=".75"></circle><circle class="st11" cx="23.62" cy="81.51" r=".75"></circle><circle class="st11" cx="23.62" cy="78.51" r=".75"></circle><circle class="st11" cx="26.62" cy="86.01" r=".75"></circle><circle class="st11" cx="23.62" cy="87.51" r=".75"></circle><circle class="st11" cx="23.62" cy="84.51" r=".75"></circle><circle class="st11" cx="23.62" cy="90.51" r=".75"></circle><circle class="st11" cx="20.62" cy="32.01" r=".75"></circle><circle class="st11" cx="20.62" cy="47.01" r=".75"></circle><circle class="st11" cx="17.62" cy="45.51" r=".75"></circle><circle class="st11" cx="20.62" cy="53.01" r=".75"></circle><circle class="st11" cx="20.62" cy="50.01" r=".75"></circle><circle class="st11" cx="17.62" cy="51.51" r=".75"></circle><circle class="st11" cx="17.62" cy="48.51" r=".75"></circle><circle class="st11" cx="20.62" cy="59.01" r=".75"></circle><circle class="st11" cx="20.62" cy="56.01" r=".75"></circle><circle class="st11" cx="17.62" cy="57.51" r=".75"></circle><circle class="st11" cx="17.62" cy="54.51" r=".75"></circle><circle class="st11" cx="20.62" cy="65.01" r=".75"></circle><circle class="st11" cx="20.62" cy="62.01" r=".75"></circle><circle class="st11" cx="17.62" cy="63.51" r=".75"></circle><circle class="st11" cx="17.62" cy="60.51" r=".75"></circle><circle class="st11" cx="20.62" cy="71.01" r=".75"></circle><circle class="st11" cx="20.62" cy="68.01" r=".75"></circle><circle class="st11" cx="17.62" cy="66.51" r=".75"></circle><circle class="st11" cx="20.62" cy="77.01" r=".75"></circle><circle class="st11" cx="20.62" cy="74.01" r=".75"></circle><circle class="st11" cx="20.62" cy="83.01" r=".75"></circle><circle class="st11" cx="20.62" cy="80.01" r=".75"></circle><circle class="st11" cx="20.62" cy="89.01" r=".75"></circle><circle class="st11" cx="20.62" cy="86.01" r=".75"></circle><circle class="st11" cx="20.62" cy="92.01" r=".75"></circle><circle class="st11" cx="11.62" cy="33.51" r=".75"></circle><circle class="st11" cx="11.62" cy="30.51" r=".75"></circle><circle class="st11" cx="11.62" cy="36.51" r=".75"></circle><circle class="st11" cx="14.62" cy="47.01" r=".75"></circle><circle class="st11" cx="14.62" cy="44.01" r=".75"></circle><circle class="st11" cx="14.62" cy="53.01" r=".75"></circle><circle class="st11" cx="14.62" cy="50.01" r=".75"></circle><circle class="st11" cx="14.62" cy="59.01" r=".75"></circle><circle class="st11" cx="14.62" cy="56.01" r=".75"></circle><circle class="st11" cx="11.62" cy="54.51" r=".75"></circle><circle class="st11" cx="8.62" cy="53.01" r=".75"></circle><circle class="st11" cx="5.62" cy="48.51" r=".75"></circle><path class="st11" d="M17.62 35.76c-.41 0-.75.34-.75.75s.34.75.75.75c.4 0 .72-.31.74-.71-.03-.14-.07-.27-.1-.41a.745.745 0 0 0-.64-.38zM16.87 33.51c0 .41.34.75.75.75.06 0 .1-.02.16-.03 0-.04-.01-.07-.01-.11-.04-.42-.26-1.37-.24-1.33-.37.04-.66.34-.66.72zM17.03 30.08c-.09.12-.15.27-.15.43 0 .25.13.46.32.6.04.19-.07-.27-.14-.71-.02-.11-.02-.22-.03-.32zM18.11 24.19c.07.17.15.35.22.53.02-.07.04-.14.04-.21 0-.28-.16-.51-.38-.64v.02l.12.3zM15.15 22.48a.774.774 0 0 0-.53-.22c-.41 0-.75.34-.75.75s.34.75.75.75c.36 0 .65-.26.72-.6l-.19-.68zM18.22 21.7c-.05.09-.1.22-.13.38a.76.76 0 0 0 .28-.55c.02 0-.03-.01-.15.17zM14.97 29.25c.03.12.05.24.07.36.2-.14.33-.35.33-.61 0-.4-.32-.72-.72-.74l.04.15c.1.29.21.55.28.84zM15.37 26.01c0-.41-.34-.75-.75-.75-.17 0-.32.07-.44.16l.14 1.28c.09.04.19.06.3.06.42 0 .75-.34.75-.75zM20.37 25.31c-.29.1-.5.37-.5.7 0 .41.34.75.75.75.01 0 .02 0 .03-.01-.05-.25-.1-.5-.16-.76-.05-.32-.12-.68-.12-.68zM14.21 37.4c-.2.13-.34.35-.34.61 0 .36.25.64.58.72l-.24-1.33zM17.62 38.76c-.25 0-.46.13-.6.32.01.15.01.3.02.44.03.37.07.54.07.54.13.12.31.2.51.2a.749.749 0 1 0 0-1.5zM17.39 43.21c.07.02.15.05.23.05.41 0 .75-.34.75-.75s-.34-.75-.75-.75c-.06 0-.12.02-.17.04.02.21.04.43.03.62 0 .3-.04.56-.09.79zM14.8 40.3c-.06-.01-.12-.04-.18-.04-.41 0-.75.34-.75.75s.34.75.75.75c.17 0 .32-.07.45-.16-.01-.07-.03-.13-.04-.19-.02-.17-.06-.32-.1-.48l-.13-.63zM19.87 29.01c0 .41.34.75.75.75.25 0 .45-.13.59-.31l-.03-.09c-.18-.57-.23-1.02-.23-1.02a.739.739 0 0 0-.33-.09.77.77 0 0 0-.75.76zM10.96 21.57c-.08-.13-.08-.1-.08-.1 0 .01-.01.02-.01.04 0 .31.19.57.45.69 0-.09 0-.19.01-.26v-.01c-.12-.08-.24-.17-.31-.27l-.06-.09zM20.82 35.72c.32-.09.56-.37.56-.71 0-.41-.34-.75-.75-.75-.06 0-.12.02-.18.04v-.01c.01.02.02.05.02.07.16.58.35 1.36.35 1.36zM11.52 23.78c-.36.05-.64.35-.64.73 0 .41.34.75.75.75h.02c.02.16-.09-.67-.11-1.21-.01-.1-.02-.18-.02-.27zM14.27 19.36c-.23.13-.39.36-.39.65 0 .41.34.75.75.75.05 0 .1-.02.15-.03 0 0-.04-.26-.2-.66a29.2 29.2 0 0 0-.31-.71zM21.1 44.14c-.26-.14-.5-.29-.75-.76.01.02-.03-.07-.03-.06a.76.76 0 0 0-.45.68c0 .41.34.75.75.75.33 0 .61-.22.7-.52-.07-.01-.14-.05-.22-.09zM24.31 39.25l-.03-.09a.752.752 0 0 0-.66-.41c-.41 0-.75.34-.75.75s.34.75.75.75.74-.33.75-.74c-.02-.08-.04-.17-.06-.26zM23.28 35.85c-.24.13-.41.37-.41.66 0 .41.34.75.75.75.03 0 .05-.01.07-.01 0 0-.04-.11-.17-.53-.12-.43-.28-1.01-.24-.87zM11.62 26.76c-.41 0-.75.34-.75.75s.34.75.75.75.74-.33.75-.74c-.03-.18-.11-.42-.09-.35a.74.74 0 0 0-.66-.41zM12.16 46.04c.13-.14.22-.32.22-.53a.74.74 0 0 0-.4-.65c-.01.36 0 .78.18.92-.01.09 0 .17 0 .26zM12.37 42.51c0-.41-.34-.75-.75-.75-.06 0-.12.02-.17.03.02.03.04.06.06.1.12.39.17.87.23 1.29 0 .02 0 .03.01.05.35-.06.62-.35.62-.72zM11.62 38.76c-.29 0-.53.17-.66.41 0 .03.01.05.01.08.01.26.04.71.04.68.13.2.35.34.61.34a.755.755 0 0 0 0-1.51zM8.62 49.54c-.07-.08-.16-.15-.23-.23-.29.1-.51.37-.51.7 0 .41.34.75.75.75.28 0 .51-.16.64-.38l-.65-.84z"></path></g></svg>