<svg xmlns="http://www.w3.org/2000/svg" width="55" height="55" viewBox="0 0 55 55"><defs><style>.a{fill:#0040db;}.b,.e{fill:none;}.b{stroke:#fff;stroke-width:2px;}.c{fill:#f5f6f8;}.d{stroke:none;}</style></defs><g transform="translate(-355 -514)"><circle class="a" cx="27.5" cy="27.5" r="27.5" transform="translate(355 514)"/><g class="b" transform="translate(355 514)"><circle class="d" cx="27.5" cy="27.5" r="27.5"/><circle class="e" cx="27.5" cy="27.5" r="26.5"/></g><g transform="translate(343.726 527)"><g transform="translate(25.274)"><g transform="translate(0)"><path class="c" d="M47.092,281.414a6.524,6.524,0,0,1-5.281,2.694H38.768a2.431,2.431,0,0,1-2.285-1.6,7.717,7.717,0,0,1-1.229-.486,8.274,8.274,0,0,1-2.3-1.7,9.8,9.8,0,0,0-7.685,9.568v.612a1.524,1.524,0,0,0,1.524,1.524H50.451a1.524,1.524,0,0,0,1.524-1.524v-.612A9.793,9.793,0,0,0,47.092,281.414Z" transform="translate(-25.274 -262.028)"/><path class="c" d="M93.344,15.153a1.735,1.735,0,0,0,1.521-.9l.024.063.007.019a6.775,6.775,0,0,0,3.82,4.022,2.428,2.428,0,0,1,2.058-1.138h3.042a1.7,1.7,0,0,0,.834-.224,3.438,3.438,0,0,0,.983-1.135,8.772,8.772,0,0,0,.761-1.608,1.744,1.744,0,0,0,.48.553v.746a3.061,3.061,0,0,1-3.057,3.057h-3.043a1.041,1.041,0,0,0,0,2.083h3.043a5.146,5.146,0,0,0,5.14-5.14v-.746a1.733,1.733,0,0,0,.694-1.389V9.072a1.733,1.733,0,0,0-.721-1.408,8.327,8.327,0,0,0-16.6,0,1.733,1.733,0,0,0-.721,1.408v4.345A1.737,1.737,0,0,0,93.344,15.153Zm7.285-13.07a6.252,6.252,0,0,1,6.213,5.625,1.742,1.742,0,0,0-.488.6A5.943,5.943,0,0,0,94.908,8.3l0,.01a1.742,1.742,0,0,0-.488-.6A6.253,6.253,0,0,1,100.629,2.083Z" transform="translate(-87.279)"/></g></g></g></g></svg>