<svg xmlns="http://www.w3.org/2000/svg" viewBox="0 0 24 24" id="calendar-x"><path d="M16 1a1 1 0 0 1 .993.883L17 2v1h3a2 2 0 0 1 1.995 1.85L22 5v7a1 1 0 0 1-1.993.117L20 12v-1H4v9a1 1 0 0 0 .883.993L5 21h7a1 1 0 0 1 .117 1.993L12 23H5a3 3 0 0 1-2.995-2.824L2 20V5a2 2 0 0 1 1.85-1.995L4 3h3V2a1 1 0 0 1 1.993-.117L9 2v1h6V2a1 1 0 0 1 1-1zm-.707 14.293a1 1 0 0 1 1.414 0L19 17.586l2.293-2.293a1 1 0 0 1 1.414 1.414L20.414 19l2.293 2.293a1 1 0 0 1-1.414 1.414L19 20.414l-2.293 2.293a1 1 0 0 1-1.414-1.414L17.586 19l-2.293-2.293a1 1 0 0 1 0-1.414zM7 5H4v4h16V5h-3v1a1 1 0 1 1-2 0V5H9v1a1 1 0 0 1-2 0z" fill-rule="evenodd"></path></svg>