<svg xmlns="http://www.w3.org/2000/svg" viewBox="0 0 24 24" id="location"><path d="M12 1a9 9 0 0 1 9 9c0 2.783-1.355 5.466-2.916 7.682-1.574 2.235-3.453 4.126-4.672 5.328a2.012 2.012 0 0 1-2.824 0c-1.219-1.203-3.097-3.093-4.672-5.328C4.356 15.466 3 12.783 3 10a9 9 0 0 1 9-9zm0 2a7 7 0 0 0-7 7c0 2.167 1.075 4.434 2.551 6.53 1.464 2.077 3.23 3.861 4.442 5.057l.001.001.003.001h.006a.009.009 0 0 0 .004-.002c1.212-1.196 2.978-2.98 4.442-5.057C17.925 14.434 19 12.167 19 10a7 7 0 0 0-7-7zm0 3a4 4 0 1 1 0 8 4 4 0 0 1 0-8zm0 2a2 2 0 1 0 0 4 2 2 0 0 0 0-4z" fill-rule="evenodd"></path></svg>