<svg xmlns="http://www.w3.org/2000/svg" viewBox="0 0 120 100" id="segment-color"><g fill="none" fill-rule="evenodd"><path d="M107.17 37.12c.12-.01.24-.01.35.02.07.02.16.05.22.07.11.03.24.03.35.01.05-.01.1-.02.16-.02.04 0 .1.02.15.02.05.01.09.01.13.02l.16.04c.09.02.19.03.29.03.42.02.85.06 1.25.13l.15.02h.1c.09 0 .18.04.26.06.06.02.14.07.21.07.02.02.05.03.08.04.03.02.06.03.08.05.04.04.04.11.13.13.07.05.15.09.21.14.05.04.05.09.08.14.01.02.06.1.09.1.03.18.08.37.02.55-.05.17-.14.34-.24.5-.06.1-.14.2-.26.28a.9.9 0 0 1-.24.11c-.44.15-.99.24-1.51.3-.26.03-.52.05-.78.05-.46 0-.93-.02-1.38-.07-.1-.01-.2-.02-.3-.02h-.19c-.2-.01-.39-.05-.59-.05-.42.01-.7.23-1.12.27-.5.04-1.09-.04-1.59-.08-.48-.04-.78-.13-1.13-.3-.37-.17-.81-.19-1.28-.21-.47-.02-.93-.03-1.41-.05-.53-.02-1.06-.07-1.6-.06-.57.01-1.11.1-1.63.22-.21.05-.46.12-.7.11-.24 0-.45-.09-.65-.15-.92-.28-1.89-.24-2.85-.03-.84.18-1.55.41-2.48.37-.61-.03-1.2-.02-1.81-.01-.52.01-1.04-.02-1.55-.06-.59-.05-1.19-.18-1.8-.16l-.62.06c-.17 0-.31-.04-.47-.07-.15-.04-.28-.04-.39-.04-.22.28-.53.42-.79.7-.36.39-.36.88-.69 1.3-.39.49-.91.75-1.35 1.16-.15.15-.29.32-.42.49.56.77.95 1.57 1.4 2.38.19.34.41.71.72.95.23.18.45.25.68.39l.05.04c.16.03.32.06.49.1.48.1.93-.06 1.41-.11.68-.07 1.3.06 1.97.05.54-.01.94-.24 1.48-.25.62-.02 1.18.17 1.81.14.65-.03 1.22-.12 1.88-.03.68.09 1.3.2 2 .23.82.03 1.65.02 2.4-.17.23-.05.46-.13.71-.14.23-.01.45.02.66.06.58.1 1.16.19 1.78.2.3.01.59-.01.87-.07.2-.04.39-.1.61-.12.59-.05 1.18.13 1.78.14.47.01.9-.11 1.36-.15.45-.04.91-.06 1.37-.06.24 0 .49.01.72-.02.18-.03.32-.09.48-.14.53-.17 1.13.01 1.66.1.22.03.42.05.64 0 .03 0 .09-.01.1-.03.02.01.03 0 .04-.01.08.01.17-.01.25-.02.11-.02.2-.01.31-.01l.24.01c.08 0 .13.03.21.03l.16.01.21.04c.058.01.115.027.17.05.06.01.13.06.2.06.03 0 .14.09.16.1.05.03.11.06.15.1.07.06.06.12.09.18.08.17.18.34.25.51.04.1.08.19.11.29.03.11.04.23-.02.34-.07.12-.21.23-.37.32-.42.24-1.01.43-1.62.52-.51.08-.99.06-1.5-.01-.22-.03-.44-.06-.67-.07h-.38c-.11 0-.21.01-.31 0-.19-.02-.44-.02-.61.04-.15.05-.21.14-.37.17-.35.06-.76.04-1.13.04-.18 0-.36-.01-.54.02-.24.05-.37.08-.63.03-.31-.06-.89-.24-1.09-.02-.57-.14-1.13-.05-1.72-.1-.54-.05-1.09-.31-1.65-.18-.34.08-.57.24-.94.27-.41.04-.81-.05-1.19-.12-.71-.14-1.5-.16-2.26-.15-1.46.02-2.9.17-4.36.04-.67-.06-1.29-.18-1.89-.34-.34-.09-.65-.17-1.04-.11-.45.07-.86.2-1.32.26-.52.07-1.05.08-1.58.1-.3.01-.63.03-.92.04-.32 0-.62-.05-.92-.09-.05-.01-.1-.01-.14-.02l-.22-.03a.771.771 0 0 1-.59-.37c-.39-.65-.89-1.11-1.42-1.63-.51-.51-1.1-.97-1.54-1.58-.31-.44-.62-.9-.94-1.35l-.07-.11c-.33-.49-.29-1.12.08-1.55l.15-.18c.18-.22.34-.45.51-.68.22-.28.46-.53.66-.82.2-.29.33-.61.53-.9.17-.25.36-.37.56-.57.21-.22.35-.51.53-.76.2-.28.45-.5.66-.78l.02-.03c.24-.33.61-.52.99-.53h.09c.35-.02.66-.11 1.01-.12.36-.02.68.07 1.01.12l1.06.12c.4.06.78.15 1.19.19 1.13.11 2.37.08 3.5-.02 1.02-.08 2.11-.34 3.15-.22.3.03.53.04.83 0 .37-.05.71-.06 1.09-.03.34.03.62.05.95-.01.18-.03.4 0 .59-.01.21-.01.38.04.58.07.46.07.93.07 1.4.11.32.03.64.06.97.06.17 0 .33-.02.5-.01.45.02.87.06 1.33 0 .48-.06.89-.16 1.39-.07.42.08.71.26 1.16.12.17-.06.3-.14.48-.18.15-.04.29-.02.45-.03.35-.02.55-.26.89-.1.13.07.24.17.44.17.18.01.35-.08.49-.14.14-.05.29-.12.48-.14zm0-16.56c.12-.01.24-.01.35.02.07.02.16.05.22.07.11.03.24.03.35.01.05-.01.1-.02.16-.02.04 0 .1.02.15.02.05.01.09.01.13.02l.16.04c.09.02.19.03.29.03.42.02.85.06 1.25.13l.15.02h.1c.09 0 .18.04.26.06.06.02.14.07.21.07.02.02.05.03.08.04.03.02.06.03.08.05.04.04.04.11.13.13.07.05.15.09.21.14.05.04.05.09.08.14.01.02.06.1.09.1.03.18.08.37.02.55-.05.17-.14.34-.24.5-.06.1-.14.2-.26.28a.9.9 0 0 1-.24.11c-.44.15-.99.24-1.51.3-.26.03-.52.05-.78.05-.46 0-.93-.02-1.38-.07-.1-.01-.2-.02-.3-.02h-.19c-.2-.01-.39-.05-.59-.05-.42.01-.7.23-1.12.27-.5.04-1.09-.04-1.59-.08-.48-.04-.78-.13-1.13-.3-.37-.17-.81-.19-1.28-.21-.47-.02-.93-.03-1.41-.05-.53-.02-1.06-.07-1.6-.06-.57.01-1.11.1-1.63.22-.21.05-.46.12-.7.11-.24 0-.45-.09-.65-.15-.92-.28-1.89-.24-2.85-.03-.84.18-1.55.41-2.48.37-.61-.03-1.2-.02-1.81-.01-.52.01-1.04-.02-1.55-.06-.59-.05-1.19-.18-1.8-.16l-.62.06c-.17 0-.31-.04-.47-.07-.15-.04-.28-.04-.39-.04-.22.28-.53.42-.79.7-.36.39-.36.88-.69 1.3-.39.49-.91.75-1.35 1.16-.15.15-.29.32-.42.49.56.77.95 1.57 1.4 2.38.19.34.41.71.72.95.23.18.45.25.68.39l.05.04c.16.03.32.06.49.1.48.1.93-.06 1.41-.11.68-.07 1.3.06 1.97.05.54-.01.94-.24 1.48-.25.62-.02 1.18.17 1.81.14.65-.03 1.22-.12 1.88-.03.68.09 1.3.2 2 .23.82.03 1.65.02 2.4-.17.23-.05.46-.13.71-.14.23-.01.45.02.66.06.58.1 1.16.19 1.78.2.3.01.59-.01.87-.07.2-.04.39-.1.61-.12.59-.05 1.18.13 1.78.14.47.01.9-.11 1.36-.15.45-.04.91-.06 1.37-.06.24 0 .49.01.72-.02.18-.03.32-.09.48-.14.53-.17 1.13.01 1.66.1.22.03.42.05.64 0 .03 0 .09-.01.1-.03.02.01.03 0 .04-.01.08.01.17-.01.25-.02.11-.02.2-.01.31-.01l.24.01c.08 0 .13.03.21.03l.16.01.21.04c.058.01.115.027.17.05.06.01.13.06.2.06.03 0 .14.09.16.1.05.03.11.06.15.1.07.06.06.12.09.18.08.17.18.34.25.51.04.1.08.19.11.29.03.11.04.23-.02.34-.07.12-.21.23-.37.32-.42.24-1.01.43-1.62.52-.51.08-.99.06-1.5-.01-.22-.03-.44-.06-.67-.07h-.38c-.11 0-.21.01-.31 0-.19-.02-.44-.02-.61.04-.15.05-.21.14-.37.17-.35.06-.76.04-1.13.04-.18 0-.36-.01-.54.02-.24.05-.37.08-.63.03-.31-.06-.89-.24-1.09-.02-.57-.14-1.13-.05-1.72-.1-.54-.05-1.09-.31-1.65-.18-.34.08-.57.24-.94.27-.41.04-.81-.05-1.19-.12-.71-.14-1.5-.16-2.26-.15-1.46.02-2.9.17-4.36.04-.67-.06-1.29-.18-1.89-.34-.34-.09-.65-.17-1.04-.11-.45.07-.86.2-1.32.26-.52.07-1.05.08-1.58.1-.3.01-.63.03-.92.04-.32 0-.62-.05-.92-.09-.05-.01-.1-.01-.14-.02l-.22-.03a.771.771 0 0 1-.59-.37c-.39-.65-.89-1.11-1.42-1.63-.51-.51-1.1-.97-1.54-1.58-.31-.44-.62-.9-.94-1.35l-.07-.11c-.33-.49-.29-1.12.08-1.55l.15-.18c.18-.22.34-.45.51-.68.22-.28.46-.53.66-.82.2-.29.33-.61.53-.9.17-.25.36-.37.56-.57.21-.22.35-.51.53-.76.2-.28.45-.5.66-.78l.02-.03c.24-.33.61-.52.99-.53h.09c.35-.02.66-.11 1.01-.12.36-.02.68.07 1.01.12l1.06.12c.4.06.78.15 1.19.19 1.13.11 2.37.08 3.5-.02 1.02-.08 2.11-.34 3.15-.22.3.03.53.04.83 0 .37-.05.71-.06 1.09-.03.34.03.62.05.95-.01.18-.03.4 0 .59-.01.21-.01.38.04.58.07.46.07.93.07 1.4.11.32.03.64.06.97.06.17 0 .33-.02.5-.01.45.02.87.06 1.33 0 .48-.06.89-.16 1.39-.07.42.08.71.26 1.16.12.17-.06.3-.14.48-.18.15-.04.29-.02.45-.03.35-.02.55-.26.89-.1.13.07.24.17.44.17.18.01.35-.08.49-.14.14-.05.29-.12.48-.14zm.03-16.55a.775.775 0 0 1 .34.02c.07.02.16.05.22.07a.73.73 0 0 0 .36 0c.05-.01.1-.02.16-.02.04 0 .1.02.15.02.05.01.09.01.13.02l.16.04c.09.02.19.03.29.03.42.02.85.06 1.25.13l.15.02h.1c.09 0 .18.04.26.06.06.02.14.07.21.07.02.02.05.03.05.04.03.02.06.03.08.05.04.04.04.11.13.13.07.05.15.09.21.14.05.04.05.09.08.14.01.02.06.1.09.1.03.18.08.37.02.55-.05.17-.14.34-.24.5-.06.1-.14.2-.26.28a.9.9 0 0 1-.24.11c-.44.15-.99.24-1.51.3-.26.03-.52.05-.78.05-.46 0-.93-.02-1.38-.07-.1-.01-.2-.02-.3-.02h-.19c-.2-.01-.39-.05-.59-.05-.42.01-.7.23-1.12.27-.5.04-1.09-.04-1.59-.08-.48-.04-.78-.13-1.13-.3-.37-.17-.81-.19-1.28-.21-.47-.02-.93-.03-1.41-.05-.53-.02-1.06-.07-1.6-.06-.57.01-1.11.1-1.63.22-.21.05-.46.12-.7.11-.24 0-.45-.09-.65-.15-.92-.28-1.89-.24-2.85-.03-.84.18-1.55.41-2.48.37-.61-.03-1.2-.02-1.81-.01-.52.01-1.04-.02-1.55-.06-.59-.05-1.19-.18-1.8-.16l-.62.06c-.17 0-.31-.04-.47-.07-.15-.04-.28-.04-.39-.04-.22.28-.53.42-.79.7-.36.39-.36.88-.69 1.3-.39.49-.91.75-1.32 1.17-.15.15-.29.32-.42.49.56.77.95 1.57 1.4 2.38.19.34.41.71.72.95.23.18.45.25.68.39l.05.04c.16.03.32.06.49.1.48.1.93-.06 1.41-.11.67-.07 1.3.06 1.96.06.54-.01.94-.24 1.48-.25.62-.02 1.18.17 1.81.14.65-.03 1.22-.12 1.88-.03.68.09 1.3.2 2 .23.82.03 1.65.02 2.4-.17.23-.05.46-.13.71-.14.23-.01.45.02.66.06.58.1 1.16.19 1.78.2.3.01.59-.01.87-.07.2-.04.39-.1.61-.12.59-.05 1.18.13 1.78.14.47.01.9-.11 1.36-.15.45-.04.91-.06 1.37-.06.24 0 .49.01.72-.02.18-.03.32-.09.48-.14.53-.17 1.13.01 1.66.1.22.03.42.05.64 0 .03 0 .09-.01.1-.03.02.01.03 0 .04-.01.08.01.17-.01.25-.02.11-.02.2-.01.31-.01l.24.01c.08 0 .13.03.21.03l.16.01.21.04c.058.01.115.027.17.05.06.01.13.06.2.06.03 0 .14.09.16.1.05.03.11.06.15.1.07.06.06.12.09.18.08.17.18.34.25.51.04.1.08.19.11.29.03.11.04.23-.02.34-.07.12-.21.23-.37.32-.42.24-1.01.43-1.62.52-.51.08-.99.06-1.5-.01-.22-.03-.44-.06-.67-.07h-.38c-.11 0-.21.01-.31 0-.19-.02-.44-.02-.61.04-.15.05-.21.14-.37.17-.35.06-.76.04-1.13.04-.18 0-.36-.01-.54.02-.24.05-.37.08-.63.03-.31-.06-.89-.24-1.09-.02-.57-.14-1.13-.05-1.72-.1-.54-.05-1.09-.31-1.65-.18-.34.08-.57.24-.94.27-.41.04-.81-.05-1.19-.12-.71-.14-1.5-.16-2.26-.15-1.46.02-2.9.17-4.36.04-.67-.06-1.29-.18-1.89-.34-.34-.09-.65-.17-1.04-.11-.45.07-.86.2-1.32.26-.52.07-1.05.08-1.58.1-.3.01-.63.03-.92.04-.32 0-.62-.05-.92-.09-.05-.01-.1-.01-.14-.02l-.22-.03a.771.771 0 0 1-.59-.37c-.39-.65-.89-1.11-1.42-1.63-.51-.51-1.1-.97-1.54-1.58-.31-.44-.62-.9-.94-1.35l-.07-.11c-.33-.49-.29-1.12.08-1.55l.15-.18c.18-.22.34-.45.51-.68.22-.28.46-.53.66-.82.2-.29.33-.61.53-.9.17-.25.36-.37.56-.57.21-.22.35-.51.53-.76.2-.28.45-.5.66-.78l.02-.03c.24-.33.61-.52.99-.53h.09c.35-.02.66-.11 1.01-.12.36-.02.68.07 1.01.12l1.06.12c.4.06.78.15 1.19.19 1.13.11 2.37.08 3.5-.02 1.02-.08 2.11-.34 3.15-.22.3.03.53.04.83 0 .37-.05.7-.06 1.08-.03.34.03.62.05.95-.01.18-.03.4 0 .59-.01.21-.01.38.04.6.06.46.07.93.07 1.4.11.32.03.64.06.97.06.17 0 .33-.02.5-.01.45.02.87.06 1.33 0 .48-.06.89-.16 1.39-.07.42.08.71.26 1.16.12.17-.06.3-.14.48-.18.15-.04.29-.02.45-.03.35-.02.55-.26.89-.1.13.07.24.17.44.17.18.01.35-.08.49-.14.14-.05.29-.12.48-.14z" fill="#36A635"></path><path d="M89.05 41.13c.43-.24.95-.19 1.32.08.21.16.46.28.68.47.31.25.5.69.91.8.25.07.47.03.72.15.11.05.19.13.28.2.15-.09.31-.18.45-.28.59-.4 1.15-.85 1.75-1.24.42-.27.93-.26 1.32-.01l.02.01c.7.425 1.312.982 1.8 1.64.12.16.25.29.41.39l.05-.06c.28-.26.59-.49.91-.71.17-.12.37-.27.53-.39.19-.13.4-.21.61-.29l.44-.21c.06-.02.08-.04.13-.08.03-.02.07-.04.11-.06a.954.954 0 0 1 .99-.03l.06.03.03.02.05.01c.03.02.03.02.05.03l.1.02.35.08c.12.03.22.11.33.16.07.02.12.06.18.1l.17.1c.02.01.038.022.054.036l.096.084c.18.13.4.22.54.39.08.1.11.2.18.29.04.05.1.16.16.2.01.02.03.08.06.13.02.02.03.04.05.04.12.21.18.45.24.66.04.13.08.29.07.39-.04.07-.13.1-.2.15-.08.05-.13.12-.19.19-.05.05-.09.12-.17.14-.14.04-.33.01-.49-.01-.12-.02-.26-.03-.39-.08-.08-.03-.16-.08-.24-.13-.12-.07-.24-.13-.35-.21-.21-.15-.41-.32-.59-.5-.12-.12-.25-.23-.38-.34-.21.2-.53.28-.78.35-.35.1-.54.42-.81.65-.35.3-.77.43-1.14.67a.99.99 0 0 1-1.06 0l-.1-.06c-.34-.2-.7-.17-1.04-.37-.39-.23-.63-.61-1.03-.83-.18-.1-.36-.19-.53-.28-.26.1-.52.22-.77.36-.51.29-1.01.64-1.37 1.09l-.2.25c-.17.18-.42.25-.65.18l-.61-.18c-.07-.02-.14-.04-.2-.08-.15-.08-.26-.2-.37-.31-.31-.31-.61-.62-.98-.87-.18-.12-.37-.22-.57-.28-.15-.05-.3-.08-.44-.15l-.03-.02c-.24.18-.43.4-.66.59-.25.21-.52.41-.8.59-.15.09-.31.18-.43.3-.1.1-.15.2-.22.31-.03.04-.06.08-.1.12-.27.26-.65.33-.98.21l-.55-.21c-.23-.09-.41-.27-.57-.44-.1-.11-.2-.23-.31-.33-.07-.06-.18-.17-.27-.2-.07-.02-.12-.02-.19-.05-.09-.04-.17-.11-.25-.16a1.09 1.09 0 0 1-.19-.18c-.06-.06-.12-.13-.16-.2-.02-.02-.03-.05-.05-.08l-.06-.05c-.21-.23-.42-.49-.44-.76.01-.21.03-.41.14-.57.12-.17.31-.32.52-.41.22-.09.47-.13.73-.06s.5.21.74.35c.22.13.44.22.65.34.07.03.11.08.17.12.04.03.084.053.13.07.01-.05.03-.1.07-.14.18-.19.44-.34.66-.48.11-.07.23-.14.32-.23.12-.13.19-.21.37-.27.21-.08.67-.16.67-.42.14-.03.27-.09.39-.16zm.53-16.57c.2-.048.41.031.53.2.13.19.26.39.5.44.21.05.41 0 .62.1.22.11.37.32.52.51.17.21.37.39.59.56.43-.33.86-.65 1.35-.89.37-.18.75-.29 1.14-.36l.05-.01.63-.12a.263.263 0 0 1 .27.12c.11.18.22.33.43.4.27.09.55.13.81.23.3.12.57.28.85.45.15.09.32.17.47.27a4.6 4.6 0 0 1 .11-.17c.05-.09.15-.14.22-.21.05-.04.09-.07.14-.1l.13-.09c.04-.03.09-.04.14-.07.16-.08.3-.23.48-.27.1-.02.19 0 .29-.02.05-.02.16-.01.21-.05.02 0 .08.01.13.01.03 0 .05-.01.05-.02.21-.01.42.05.62.09.12.02.26.06.33.16.05.07.05.16.07.24.02.08.07.16.11.24.03.06.07.13.12.2 0 .13-.08.27-.14.4-.05.1-.1.21-.18.3-.05.06-.12.09-.18.14-.09.07-.17.14-.27.2a3.1 3.1 0 0 1-.58.28c-.16.06-.31.12-.46.2-.15.09-.31.19-.43.31-.04.04-.07.08-.1.12-.05.06-.06.12-.1.18-.04.06-.08.1-.13.14-.33.24-.76.26-1.09.06l-.11-.06c-.18-.1-.31-.31-.42-.46-.18-.25-.51-.27-.77-.39-.38-.18-.62-.5-.96-.71-.03-.02-.07-.03-.1-.04-.14.06-.27.12-.39.21-.31.24-.54.51-.92.66-.39.16-.76.28-1.13.49l-.15.09-.08.05c-.3.17-.65.14-.91-.05-.35-.26-.73-.48-1.16-.57-.14-.03-.3-.05-.43-.12-.12-.07-.21-.17-.3-.27-.15-.17-.3-.34-.46-.49-.27.18-.61.24-.88.42-.24.16-.38.4-.59.59-.2.19-.42.37-.65.52-.09.06-.19.12-.28.19-.29.25-.7.29-1.03.14l-.31-.14c-.02-.01-.05-.02-.08-.04-.11-.04-.21-.04-.32-.05-.26-.02-.44-.22-.59-.41-.08-.1-.15-.2-.24-.29-.05-.06-.14-.16-.22-.18-.05-.02-.1-.01-.16-.04-.07-.03-.13-.09-.2-.13a.572.572 0 0 1-.15-.16c-.04-.05-.09-.12-.12-.18-.01-.03-.01-.06-.03-.08-.03-.02-.03-.03-.05-.05-.17-.21-.33-.45-.32-.7.03-.19.07-.38.18-.54.13-.17.3-.32.5-.42a.896.896 0 0 1 .67-.1c.21.05.41.17.61.29l.54.28.13.11.25.12.04.03.13-.09c.09-.06.19-.12.26-.2.1-.12.14-.19.3-.24.18-.06.57-.12.55-.36.37-.08.59-.35.92-.5.1-.05.22-.07.33-.1zM93.76 8c.49-.32 1.11-.27 1.54.08.22.18.41.39.59.59.38.41.84.77 1.3 1.12.67-.54 1.34-1.08 2.07-1.54l.14-.09c.41-.26.93-.21 1.28.09.1.07.19.15.29.24.49.43.9.88 1.27 1.35.107.145.227.279.36.4.13-.14.26-.29.4-.43.36-.35.76-.66 1.17-.97l.65-.52c.37-.31.89-.31 1.26-.05l.06.04.04.03c.25.17.45.39.66.59.16.15.34.28.46.44.06.06.1.08.17.12.06.04.11.1.17.13l.06.02.06.04a.564.564 0 0 0 .12.04l.27.1c.18-.13.36-.27.55-.35.14-.06.27-.07.41-.12.08-.03.24-.06.31-.12.03-.01.12-.01.18-.03.04-.01.06-.02.07-.04.3-.08.58-.08.85-.09.16-.01.35-.01.42.09.05.07.03.17.04.26.02.088.053.173.1.25.04.07.08.13.06.22-.04.16-.17.36-.29.53-.09.13-.19.28-.31.41-.08.09-.18.16-.28.23a7.243 7.243 0 0 1-1.31.84l-.16.08-.25.13c-.29.15-.63.09-.85-.13-.14-.14-.29-.28-.45-.41a5.33 5.33 0 0 0-.69-.48c-.07-.04-.15-.08-.22-.11l-.29-.09c-.23-.08-.43-.26-.61-.44-.1.1-.19.21-.3.3-.49.44-1.05.68-1.56 1.07-.09.07-.18.15-.25.23-.23.24-.58.29-.86.16l-.33-.16c-.33-.16-.67-.24-1-.47-.41-.28-.72-.66-1.11-.97-.12.09-.24.17-.37.24-.57.31-1.12.57-1.68.94l-.22.15-.05.03c-.31.2-.7.18-.99-.04-.55-.42-1.13-.81-1.75-1.05-.21-.08-.43-.15-.63-.28-.01 0-.02-.01-.03-.02-.21.12-.41.24-.61.38-.23.17-.45.35-.63.55-.14.15-.25.3-.41.44-.09.07-.18.14-.27.2l-.09.06c-.39.26-.89.22-1.24-.06-.35-.29-.65-.66-1.02-.93-.32-.24-.66-.38-.99-.56-.14.1-.27.2-.39.31-.13.13-.2.26-.29.39-.22.31-.59.5-.93.66-.15.07-.31.14-.47.22l-.3.16c-.39.21-.86.13-1.16-.16l-.04-.04c-.09-.08-.24-.23-.35-.28-.08-.04-.15-.05-.23-.1-.11-.06-.22-.15-.32-.22-.09-.06-.18-.15-.25-.23-.07-.08-.16-.18-.21-.26-.02-.03-.03-.07-.06-.1l-.07-.07c-.28-.31-.55-.64-.6-.94 0-.22.01-.43.13-.59.13-.17.34-.29.59-.35.25-.06.56-.05.92.1.31.13.62.34.92.54.08.05.17.1.25.16l.62-.45c.17-.12.37-.24.48-.4.09-.12.08-.23.19-.35.2-.21.46-.39.7-.56l.02-.01a1.38 1.38 0 0 1 1.62.01l.12.11c.14.1.28.22.43.29.22.1.34.15.51.33.21.22.56.69.84.63l.14.13c.35-.15.71-.28.96-.58.21-.25.3-.5.57-.74.08-.07.16-.13.25-.19z" fill="#085440"></path><path d="M57.46 56.86c-.07-.1-.17-.19-.28-.27-.18-.12-.38-.22-.6-.27-.2-.06-.38-.09-.57-.18-.38-.17-.9-.38-1.32-.16-.12.07-.22.14-.36.2-.17.08-.36.1-.54.16-.3.09-.57.26-.82.45-.13-.11-.28-.21-.45-.26-.16-.05-.32-.04-.48-.05-.22 0-.43-.03-.64-.06-.45-.06-.87-.14-1.33-.15-.16.01-.34 0-.51.08-.18.07-.32.21-.45.34-.08.07-.16.14-.23.22-.05.06-.13.1-.18.17-.01.01-.03.04-.04.05 0 .01.01.02 0 .03-.01.02-.04.04-.06.06-.01.02-.02.04-.04.05v.02l-.07.07c-.02.03 0 .04-.01.07-.01.01-.02.02-.02.04v.03c0 .02.01.04.02.06.01.05.01.09.03.13.02.05.02.09.04.14.02.06.03.13.07.17a.4.4 0 0 0 .1.18c.05.05.11.08.16.13l.22.21c.05.05.11.08.17.11.07.04.14.06.21.07l.06.01c.08.01.15.05.22.07.07.02.17.02.22-.01.02-.01.03-.04.06-.05.04-.01.08-.02.12-.02.04 0 .09.01.13.02.14.02.27.09.38.03.1-.05.17-.21.29-.28.21-.12.37.18.49.28.14.11.35.12.4.34.11-.08.16-.01.19.06.1.24.37.38.64.32l1.27-.32c.06-.02.13-.02.17-.03.09-.01.1-.05.13-.13.03-.05.08-.07.13-.1.1-.05.21-.07.3-.16.04-.04.04-.13.08-.19.05-.07.14-.07.21-.07.12 0 .24 0 .37.01.06.01.13-.03.19-.01.07.02.14.03.22.04.04 0 .08.01.12.03.12.08.25.15.42.12.2-.04.43-.15.63-.26.25-.14.5-.32.62-.59.16-.26.15-.62-.08-.95zm-1.96 3.2c.06.02.12.05.19.09.06.03.11.07.16.12l.22.21.15.13c.05.05.08.11.11.17.04.05.07.1.09.16l.06.12c.02.04.03.07.05.11l.03.06c0 .01.01.02.01.03 0 .01-.01.02-.01.03 0 .02.01.04.01.06 0 .01-.03.04-.04.05v.01c-.01.01-.01.03-.02.04-.01.02-.03.03-.03.05 0 .01.01.02.01.03 0 .01-.01.03-.02.04-.02.05-.07.08-.09.13l-.11.19c-.05.11-.11.24-.21.31-.09.07-.2.09-.31.11-.3.04-.59.08-.87.16-.13.05-.26.1-.38.19-.09.06-.16.14-.27.18-.28.1-.59-.05-.87-.05-.22.01-.43.1-.66.13-.22.01-.46.01-.68-.05-.11-.03-.23-.07-.35-.07-.1 0-.18.03-.27.05-.32.08-.54-.24-.73-.43a.778.778 0 0 0-.32-.21c-.13-.05-.24-.14-.34-.24a.496.496 0 0 1-.13-.22c-.09-.27-.03-.56.11-.8.15-.24.38-.43.62-.59.19-.12.41-.25.58-.28.16-.03.25.04.33.13.02.03.05.04.09.04.06.01.11.04.16.07.04.03.11.01.16.03.09.03.18.09.27.12.06.02.11.06.18.02.05-.03.09-.12.14-.14.1-.04.2.01.29.02.05.01.09.02.14 0 .07-.03.1-.07.16-.02.07.06.24.23.28.01.16.14.29.02.45.04.14.02.38.23.48.05.06-.1.05-.28.12-.35.08-.07.2-.06.33-.04.04 0 .08.01.12 0 .03 0 .07-.01.09-.03.02-.01.03-.03.04-.05.04-.03.12-.03.19-.01.06.02.14.04.2.07l.09.02z" fill="#36A635"></path><path d="M52.77 33.07c.29-.23.58-.12.84.16.2.23.43.57.56 1.13.12.5.12 1.13.1 1.72a2.79 2.79 0 0 0 .02.5c.03.32.03.59.05.91.02.27.07.51.09.79.05.51.09 1.02.13 1.53.04.31.06.66.16.93.08.2.18.28.24.51.15.49.21 1.07.32 1.58.05.25.1.51.18.75.11.33.18.5.24.86.06.43.13 1.28.44 1.45.11.8.53 1.45.86 2.16.17.3.28.65.44.97.18.29.38.59.65.82.45.4.5 1.09.13 1.56-.18.2-.41.32-.66.36l-.24.04-.05.01c-.49.08-.84.24-1.4.27-.61.04-1.21-.05-1.78-.12-.19-.02-.38-.04-.55-.06-.17-.01-.34-.03-.51-.03-.12 0-.23.01-.34.01-.28 0-.63-.05-.83-.11l-.55-.19-.15-.05c-.16-.05-.28-.11-.38-.19-.08-.07-.15-.13-.16-.2-.02-.11 0-.21-.02-.31-.02-.07-.07-.13-.07-.2s.07-.13.14-.2c.01-.06.09-.12.16-.18.05-.05.11-.08.15-.13.04-.05.1-.08.15-.12l.06-.06c.01-.01.02-.02.04-.03.02-.01.06-.01.09-.02.05-.01.05-.04.11-.05.05 0 .15-.01.2-.01l.02-.01c.05 0 .08-.01.13-.02.05 0 .12 0 .17-.01l.04-.03c.03-.01.09-.01.13-.02.16-.03.33-.02.49-.05.22-.03.4-.06.62-.09.33-.05.67-.13 1.05-.14.29-.01.57.02.85.05-.17-.2-.34-.39-.47-.63a8.09 8.09 0 0 1-.57-1.32c-.13-.46-.24-.92-.4-1.36-.2-.71-.53-1.32-.71-2.01-.2-.68-.37-1.38-.47-2.08-.06-.36-.1-.75-.17-1.1-.06-.28-.15-.48-.23-.72-.26-.81-.15-1.76-.1-2.57.01-.4 0-.76-.03-1.16-.04-.42-.04-.85-.02-1.27.02-.26.05-.51.1-.74.15-.75.43-1.26.71-1.48zm9.57 5.82a1.38 1.38 0 0 1 .67.04c.13.05.25.12.34.2.31.29.32.65.19.9-.08.15-.19.26-.31.37l.13-.11.06-.03c.05-.04.11-.06.17-.08.04-.01.08-.03.13-.04.05-.02.09-.02.13-.03l.06-.01h.03c.02 0 .03.01.04.02.03.01.05-.01.07.01a.204.204 0 0 1 .06.07h.02l.04.04c.01.02.02.06.04.07.01 0 .02-.01.03 0l.04.05c.05.06.08.13.12.2.05.08.1.18.14.28.092.17.146.357.16.55-.01.18-.1.34-.19.48-.27.39-.61.64-.99.85-.1.05-.21.11-.56.29-.14.06-.28.14-.45.15-.48.03-.87-.32-1.18-.59-.25-.21-.53-.4-.71-.72-.16-.31-.24-.69-.19-1.05.02-.19.09-.38.13-.56.03-.15.03-.28.06-.42.11-.5.69-.74 1.12-.8zm-19.18-.08c.43-.27 1.02-.03 1.36.23.18.12.34.21.52.33.19.13.35.3.45.5.06.12.09.26.1.38.02.42-.23.69-.5.77-.15.05-.31.05-.48.05v.01h.04a.647.647 0 0 1 .2.04c.07 0 .12.03.18.06l.12.06c.039.02.076.043.11.07.01.01.03.02.05.03 0 .01.01.01.02.02l.01.04c.01.02.04.02.04.05l-.01.09.01.01c-.01.02 0 .04 0 .06-.01.03-.03.06-.02.08l.02.03c.01.01 0 .04 0 .06-.01.08-.04.15-.06.23-.02.1-.06.2-.1.3-.06.17-.13.35-.29.48-.14.12-.32.18-.48.21-.46.08-.88.02-1.3-.1-.11-.03-.23-.07-.6-.19-.14-.05-.29-.1-.42-.21-.37-.31-.39-.83-.42-1.24-.02-.33-.09-.67.01-1.02.11-.34.32-.66.61-.88.15-.11.33-.2.49-.3.13-.08.22-.17.34-.25zm.18-3.35c.21.03.57.22.71.02.35.15.72.12 1.08.25.34.12.58.47.95.47.22 0 .41-.07.65 0 .26.07.44.3.61.48l.16.18c.05.05.1.11.15.15l.12.07c.1.07.18.19.2.3.02.1.03.19.04.29l.02.06c.01.08 0 .16-.02.24-.02.07-.05.13-.09.18l-.21.22-.12.16c-.05.05-.11.08-.18.11-.05.04-.11.07-.16.09l-.12.06c-.04.02-.07.04-.11.05l-.05.03-.03.01-.03-.01c-.02 0-.04.02-.06.01-.01 0-.04-.02-.05-.03l-.01.01c-.01-.01-.03-.01-.04-.01-.02-.01-.03-.03-.05-.03l-.03.01-.04-.01-.14-.05-.19-.03c-.11-.01-.22-.01-.32-.04-.09-.04-.14-.11-.2-.19-.17-.19-.35-.39-.61-.48a.619.619 0 0 0-.38-.04c-.09.02-.18.05-.27.05-.25.01-.47-.21-.73-.22-.2-.02-.38.13-.56.17-.18.07-.36.11-.54.16-.09.02-.2.03-.28.09-.06.05-.09.13-.14.2-.14.22-.41.16-.64.17a.54.54 0 0 0-.27.14c-.09.07-.17.15-.27.19-.09.06-.16.07-.24.08-.24.03-.53-.06-.77-.2-.25-.15-.45-.37-.56-.63-.09-.21-.16-.47-.08-.74.07-.24.3-.38.51-.51.06-.04.12-.07.17-.12.1-.09.21-.15.32-.21.1-.06.18-.14.28-.19.2-.1.4-.2.61-.26.13-.04.28-.07.37-.17.07-.07.09-.17.18-.22.2-.12.47-.16.7-.19.12-.02.24-.02.35-.07.15-.06.24-.09.41-.05zm18.75-.04c.21.03.57.23.71.02.35.15.72.12 1.08.25.34.12.58.47.95.47.22 0 .41-.07.65 0 .26.07.44.3.61.48l.16.18c.05.05.1.11.15.15l.12.07c.1.07.18.19.2.3.02.1.03.19.04.29l-.02.1c.01.08 0 .16-.02.24-.02.07-.05.13-.09.18l-.21.22-.12.16c-.05.05-.11.08-.18.11-.05.04-.11.07-.16.09l-.12.06c-.04.02-.07.04-.11.05l-.05.03-.03.01-.03-.01c-.02 0-.04.02-.06.01-.01 0-.04-.02-.05-.03l-.01.01c-.01-.01-.03-.01-.04-.01-.02-.01-.03-.03-.05-.03l-.03.01-.04-.01-.14-.05-.19-.03c-.11-.01-.22-.01-.32-.04-.09-.04-.14-.11-.2-.19-.17-.19-.35-.39-.61-.48a.619.619 0 0 0-.38-.04c-.09.02-.18.05-.27.05-.25.01-.47-.21-.73-.22-.2-.02-.38.13-.56.17-.18.07-.36.11-.54.16-.09.02-.2.03-.28.09-.06.05-.09.13-.14.2-.14.22-.41.16-.64.17a.54.54 0 0 0-.27.14c-.09.07-.17.15-.27.19-.06.03-.14.04-.21.04-.24.03-.53-.06-.77-.2-.25-.15-.45-.37-.56-.63-.09-.21-.16-.47-.08-.74.07-.24.3-.38.51-.51.06-.04.12-.07.18-.12.1-.09.21-.15.32-.21.1-.06.18-.14.28-.19.2-.1.4-.2.61-.26.13-.04.28-.07.37-.17.07-.07.09-.17.18-.22.2-.12.47-.16.7-.19.12-.02.24-.02.35-.07.15-.06.24-.09.41-.05zM54.44 85.27c.27-.08.52-.35.51-.76a1.13 1.13 0 0 0-.1-.38 1.3 1.3 0 0 0-.44-.49c-.18-.12-.34-.21-.51-.33-.34-.26-.92-.5-1.34-.23-.12.08-.21.17-.34.25-.16.1-.34.18-.49.3-.29.22-.5.54-.6.87-.1.35-.03.68 0 1 .03.4.05.92.41 1.23.13.11.28.15.42.2.37.12.49.15.59.19.41.12.83.18 1.29.1.16-.03.34-.09.47-.2.15-.13.23-.31.28-.47.04-.1.08-.2.09-.3.01-.08.05-.15.06-.23 0-.02.01-.05 0-.06 0-.01-.02-.02-.02-.03-.01-.02.01-.05.01-.08 0-.02-.01-.04 0-.06l-.01-.01c0-.02.01-.07.01-.09 0-.03-.03-.03-.04-.05-.01-.01 0-.03-.01-.04-.01-.01-.02-.01-.02-.02-.02-.01-.04-.02-.05-.03a.673.673 0 0 0-.11-.07l-.12-.06a.546.546 0 0 0-.18-.06.647.647 0 0 0-.2-.04h-.04v-.01c.16.01.32.01.48-.04zm0 5.99c.27-.08.52-.35.51-.76a1.13 1.13 0 0 0-.1-.38 1.3 1.3 0 0 0-.44-.49c-.18-.12-.34-.21-.51-.33-.34-.26-.92-.5-1.34-.23-.12.08-.21.17-.34.25-.16.1-.34.18-.49.3-.29.22-.5.54-.6.87-.1.35-.03.68 0 1 .03.4.05.92.41 1.23.13.11.28.15.42.2.37.12.49.15.59.19.41.12.83.18 1.29.1.16-.03.34-.09.47-.2.15-.13.23-.31.28-.47.04-.1.08-.2.09-.3.01-.08.05-.15.06-.23 0-.02.01-.05 0-.06 0-.01-.02-.02-.02-.03-.01-.02.01-.05.01-.08 0-.02-.01-.04 0-.06l-.01-.01c0-.02.01-.07.01-.09 0-.03-.03-.03-.04-.05-.01-.01 0-.03-.01-.04-.01-.01-.02-.01-.02-.02a.219.219 0 0 1-.05-.03.673.673 0 0 0-.11-.07l-.12-.06a.546.546 0 0 0-.18-.06.647.647 0 0 0-.2-.04h-.04v-.01c.16.01.32.01.48-.04z" fill="#085440"></path><path d="M21.79 92.52c.06.06.1.12.14.2.03.06.06.13.06.2.01.1 0 .2.01.31.01.07.03.13.03.2s-.03.14-.07.2c-.01.06-.04.12-.08.18-.02.04-.05.08-.07.12-.02.04-.05.07-.07.11l-.03.06c-.01.01-.01.02-.02.03-.01.01-.03.01-.05.01-.02.01-.02.04-.05.05-.02.01-.07.01-.1.01h-.01c-.03 0-.04.01-.07.01-.03 0-.06 0-.09.01-.01.01-.01.02-.02.03-.01.01-.05.01-.07.02-.08.02-.17 0-.25.02-.12.01-.2.02-.32.04-.18.03-.37.08-.56.03-.17-.03-.33-.11-.47-.18-.4-.24-.77-.46-1.18-.68-.2-.1-.4-.18-.61-.25-.15-.05-.31-.07-.46-.15-.4-.23-.64-.65-.96-.96-.26-.24-.55-.41-.82-.65-.23-.26-.49-.51-.66-.82-.09-.16-.18-.33-.3-.47-.07-.13-.18-.2-.28-.29-.35-.3-.34-.84-.38-1.25-.01-.21-.06-.38-.13-.57-.08-.2-.1-.42-.11-.63 0-.13.01-.26.04-.38.12-.39.36-.65.63-.76.27-.11.57-.07.85.04.22.09.47.22.62.42.13.18.18.42.19.65 0 .07.03.13.05.19.05.11.08.22.11.33.02.11.1.18.13.28.08.18.13.37.22.54.05.11.09.24.19.31.08.05.18.03.25.09.15.13.24.33.37.48.06.08.11.16.19.22.11.07.19.1.24.23.06.16.18.51.4.42.12.32.44.42.67.64.21.2.36.58.71.59.2.01.38-.11.57-.07.21.05.4.16.58.29.06.04.12.08.18.1.06.02.12.05.18.06.04.01.08 0 .13.01.1.02.22.08.3.14l.2.2.05.04zm9.09-15.61c.06-.06.12-.1.2-.14.06-.03.13-.06.2-.06.1 0 .2.01.31 0 .07 0 .13-.03.2-.02.07 0 .14.03.2.07.06.01.12.05.17.08.04.03.08.06.12.08.04.02.07.05.11.08l.06.03c.01.01.02.01.03.02.01.01.01.03.01.05.01.02.04.03.04.05.01.02.01.07.01.1l.01.01c0 .03.01.04.01.07 0 .03-.01.06.01.09.01.01.02.01.03.02.01.01.01.05.02.07.02.08 0 .17.01.25.01.12.02.2.03.32.03.18.07.37.02.56-.03.17-.11.33-.19.47-.24.39-.48.76-.71 1.17-.1.2-.19.4-.26.6-.05.15-.08.31-.16.46-.24.4-.66.63-.98.94-.25.25-.42.54-.66.8-.26.23-.52.48-.84.64-.16.09-.33.18-.48.29-.12.09-.19.19-.28.29-.31.35-.85.32-1.26.36-.21.01-.38.05-.57.12-.2.08-.42.09-.64.1-.13 0-.26-.01-.38-.04-.39-.13-.64-.38-.75-.64-.11-.28-.06-.57.06-.85.09-.22.22-.47.43-.61.19-.13.42-.18.65-.18.07 0 .13-.03.19-.05.11-.05.22-.07.33-.1.11-.02.18-.09.28-.13.18-.07.37-.12.55-.21.11-.05.24-.09.31-.19.05-.08.03-.18.1-.25.13-.15.33-.23.49-.36.08-.06.17-.11.22-.18.08-.11.1-.19.24-.24.16-.06.51-.17.42-.39.32-.12.42-.43.65-.66.2-.21.59-.35.6-.7.01-.2-.1-.38-.06-.57.05-.21.17-.39.3-.57.04-.06.08-.12.11-.18s.05-.12.06-.18c.01-.04 0-.08.01-.13.02-.1.08-.22.15-.29.06-.06.14-.13.2-.19l.07-.08zm-5.81 15.37c-.08 0-.16-.02-.24-.04a.4.4 0 0 1-.18-.1c-.07-.07-.14-.15-.22-.22-.05-.04-.11-.08-.16-.13a.42.42 0 0 1-.09-.19c-.04-.05-.05-.12-.07-.18-.01-.05-.02-.1-.03-.14-.02-.04-.02-.09-.02-.13 0-.02-.01-.04-.02-.06 0-.01-.01-.02 0-.03 0-.02.02-.03.02-.04.01-.02-.01-.04.01-.07.01-.02.05-.06.06-.07v-.02c.02-.02.02-.04.04-.06.02-.02.05-.04.06-.07 0-.01-.01-.02 0-.03 0-.02.02-.04.03-.06.04-.07.12-.12.17-.18.08-.09.13-.16.21-.25.11-.15.21-.31.38-.41.15-.1.31-.15.47-.2.45-.11.88-.2 1.32-.33.21-.07.42-.15.61-.24.14-.07.27-.16.43-.21.45-.11.92.02 1.36.03.35-.01.68-.09 1.04-.1.35.02.71.03 1.05.14.18.05.36.11.54.13.14.02.26 0 .4 0 .46-.03.83.37 1.14.64.15.14.31.23.49.32.2.09.36.23.52.38.09.09.18.19.24.3.18.37.19.72.07.98-.12.27-.37.45-.64.56-.22.09-.49.17-.74.13-.22-.04-.42-.17-.58-.33-.05-.05-.11-.07-.17-.1-.12-.05-.2-.1-.31-.17-.09-.06-.19-.06-.29-.1-.18-.08-.35-.18-.53-.24-.11-.04-.23-.11-.35-.08-.09.02-.15.1-.24.11-.2.01-.4-.07-.6-.09a.923.923 0 0 0-.29-.03c-.13.03-.2.06-.34 0-.16-.08-.48-.24-.58-.02-.31-.15-.6 0-.92 0-.29 0-.66-.16-.92.07-.15.13-.2.34-.37.44-.19.11-.4.16-.62.19-.07.01-.14.03-.2.05-.06.02-.12.05-.17.08-.04.02-.06.06-.09.08-.08.06-.22.1-.31.1h-.28l-.09-.01zm22.38-5.74c.06-.06.12-.1.2-.14.06-.03.13-.06.2-.06.1 0 .2.01.31 0 .07 0 .13-.03.2-.02.07 0 .14.03.2.07.06.01.12.05.17.08.04.03.08.06.12.08.04.02.07.05.11.08l.06.03c.01.01.02.01.03.02.01.01.01.03.01.05.01.02.04.03.04.05.01.02.01.07.01.1l.01.01c0 .03.01.04.01.07 0 .03-.01.06.01.09.01.01.02.01.03.02.01.01.01.05.02.07.02.08 0 .17.01.25.01.12.02.2.03.32.03.18.07.37.02.56-.03.17-.11.33-.19.47-.24.39-.48.76-.71 1.17-.1.2-.19.4-.26.6-.05.15-.08.31-.16.46-.24.4-.66.63-.98.94-.25.25-.42.54-.66.8-.26.23-.52.48-.84.64-.16.09-.33.18-.48.29-.12.09-.19.19-.28.29-.31.35-.85.32-1.26.36-.21.01-.38.05-.57.12-.2.08-.42.09-.64.1-.13 0-.26-.01-.38-.04-.39-.13-.64-.38-.75-.64-.11-.28-.06-.57.06-.85.09-.22.22-.47.43-.61.19-.13.42-.18.65-.18.07 0 .13-.03.19-.05.11-.05.22-.07.34-.1.11-.02.18-.09.28-.13.18-.07.37-.12.55-.21.11-.05.24-.09.31-.19.05-.08.03-.18.1-.25.13-.15.33-.23.49-.36.08-.06.17-.11.22-.18.08-.11.1-.19.24-.24.16-.06.51-.17.42-.39.32-.12.42-.43.65-.66.2-.21.59-.35.6-.7.01-.2-.1-.38-.06-.57.05-.21.17-.39.3-.57.04-.06.08-.12.11-.18s.05-.12.06-.18c.01-.04 0-.08.01-.13.02-.1.08-.22.15-.29.06-.06.14-.13.2-.19l.06-.08zm-9.15 2.61c-.06.06-.12.1-.2.14-.06.03-.13.06-.2.06-.1 0-.2-.01-.31 0-.07 0-.13.03-.2.02-.07 0-.14-.03-.2-.07-.06-.01-.12-.05-.17-.08a.834.834 0 0 0-.12-.08c-.04-.02-.07-.05-.11-.08l-.06-.03c-.01-.01-.02-.01-.03-.02-.01-.01-.01-.03-.01-.05-.01-.02-.04-.03-.04-.05-.01-.02-.01-.07-.01-.1l-.01-.01c0-.03-.01-.04-.01-.07 0-.03.01-.06-.01-.09-.01-.01-.02-.01-.03-.02-.01-.01-.01-.05-.02-.07-.02-.08 0-.17-.01-.25-.01-.12-.02-.2-.03-.32-.03-.18-.07-.37-.02-.56.03-.17.11-.33.19-.47.24-.39.48-.76.71-1.17.1-.2.19-.4.26-.6.05-.15.08-.31.16-.46.24-.4.66-.63.98-.94.25-.25.42-.54.66-.8.26-.23.52-.48.84-.64.16-.09.33-.18.48-.29.12-.09.19-.19.28-.29.31-.35.85-.32 1.26-.36.21-.01.38-.05.57-.12.2-.08.42-.09.64-.1.13 0 .26.01.38.04.39.13.64.38.75.64.11.28.06.57-.06.85-.09.22-.22.47-.43.61-.19.13-.42.18-.65.18-.07 0-.13.03-.19.05-.11.05-.22.07-.34.1-.11.02-.18.09-.28.13-.18.07-.37.12-.55.21-.11.05-.24.09-.31.19-.05.08-.03.18-.1.25-.13.15-.33.23-.49.36-.08.06-.17.11-.22.18-.08.11-.1.19-.24.24-.16.06-.51.17-.42.39-.32.12-.42.43-.65.66-.2.21-.59.35-.6.7-.02.2.1.38.06.57-.05.21-.17.39-.3.57-.04.06-.08.12-.11.18s-.05.12-.06.18c-.01.04 0 .08-.01.13-.02.1-.08.22-.15.29-.06.06-.14.13-.2.19l-.06.08zm2.75-16.35c.06-.06.12-.1.2-.14.06-.03.13-.06.2-.06.1 0 .2.01.31 0 .07 0 .13-.03.2-.02.07 0 .14.03.2.07.06.01.12.05.17.08.04.03.08.06.12.08.04.02.07.05.11.08l.06.03c.01.01.02.01.03.02.01.01.01.03.01.05.01.01.04.01.05.04.01.02.01.07.01.1l.01.01c0 .03.01.04.01.07 0 .03-.01.06.01.09.01.01.02.01.03.02.01.01.01.05.02.07.02.08 0 .17.01.25.01.12.02.2.03.32.03.18.07.37.02.56-.03.17-.11.33-.19.47-.24.39-.48.76-.71 1.17-.1.2-.19.4-.26.6-.05.15-.08.31-.16.46-.24.4-.66.63-.98.94-.25.25-.42.54-.66.8-.26.23-.52.48-.84.64-.16.09-.33.18-.48.29-.12.09-.19.19-.28.29-.31.35-.85.32-1.26.36-.21.01-.38.05-.57.12-.2.08-.42.09-.64.1-.13 0-.26-.01-.38-.04-.39-.13-.64-.38-.75-.64-.11-.28-.06-.57.06-.85.09-.22.22-.47.43-.61.19-.13.42-.18.65-.18.07 0 .13-.03.19-.05.11-.05.22-.07.34-.1.11-.02.18-.09.28-.13.18-.07.37-.12.55-.21.11-.05.24-.09.31-.19.05-.08.03-.18.1-.25.13-.15.33-.23.49-.36.08-.06.17-.11.22-.18.08-.11.1-.19.24-.24.16-.06.51-.17.42-.39.32-.12.42-.43.65-.66.2-.21.59-.35.6-.7.02-.2-.1-.38-.06-.57.05-.21.17-.39.3-.57.04-.06.08-.12.11-.18s.05-.12.06-.18c.01-.04 0-.08.01-.13.02-.1.08-.22.15-.29.06-.06.14-.13.2-.19l.05-.07zm-19 5.92a.71.71 0 0 1 .25.01c.07.01.14.03.19.07.08.06.16.13.24.18.06.04.12.06.18.1.06.04.09.11.12.18.05.04.07.11.09.17.02.05.03.09.05.13.02.04.03.08.04.13l.03.06c0 .01.01.02.01.03 0 .02-.02.03-.02.04-.01.03.01.04 0 .07-.01.02-.04.06-.05.08v.01c-.02.02-.02.04-.03.06-.01.02-.04.05-.05.07 0 .01.01.02.01.03 0 .02-.02.04-.03.06-.03.08-.1.13-.14.21l-.17.28c-.08.16-.17.33-.32.46-.13.12-.29.19-.44.26-.43.17-.84.32-1.27.5-.2.1-.39.2-.57.32-.13.09-.25.2-.4.27-.43.17-.91.1-1.35.16-.35.05-.66.18-1.01.24-.34.05-.7.1-1.05.04-.18-.03-.37-.06-.55-.06-.15 0-.26.04-.4.06-.46.09-.87-.25-1.22-.47a1.72 1.72 0 0 0-.53-.25c-.21-.06-.39-.18-.57-.3-.11-.08-.2-.17-.27-.26-.23-.34-.29-.69-.21-.96.08-.28.3-.49.56-.64.21-.12.46-.24.72-.23.23.01.44.11.62.25a.4.4 0 0 0 .18.07c.12.03.22.07.33.12.09.05.2.03.3.06.19.05.37.13.56.17.12.03.24.08.36.04.09-.03.14-.12.23-.14.2-.04.41.02.6.01.1 0 .2.02.29-.01.13-.04.19-.09.33-.05.16.05.51.18.58-.06.33.1.6-.09.91-.13.29-.04.68.07.9-.19.13-.15.15-.36.3-.49.17-.14.37-.21.59-.27a.64.64 0 0 0 .19-.08c.05-.03.11-.06.16-.1.03-.03.05-.07.08-.1.08-.07.2-.12.29-.14l.28-.03.08-.04zM85.26 92.5a.656.656 0 0 1-.19-.18.455.455 0 0 1-.08-.19c-.01-.1 0-.2-.01-.31-.01-.07-.03-.13-.03-.2s.03-.14.06-.21a.67.67 0 0 1 .07-.18c.02-.04.04-.09.06-.13.01-.04.04-.08.06-.12l.02-.06c0-.01.01-.02.01-.03.01-.01.03-.01.04-.02.02-.01.02-.04.04-.05.02-.01.06-.02.08-.02l.01-.01c.02 0 .03-.01.05-.02.02-.01.05 0 .07-.01.01-.01.01-.02.01-.03.01-.01.03-.02.05-.02.06-.03.12-.04.18-.08.08-.04.14-.08.22-.12.12-.07.23-.16.36-.22.12-.04.24-.04.37-.03.33-.01.69-.03 1-.19.16-.06.3-.17.4-.3.08-.09.14-.2.23-.28.24-.23.62-.29.87-.52.21-.18.27-.45.41-.66.11-.23.26-.44.38-.66.07-.11.16-.22.19-.35.02-.11 0-.2-.01-.3-.02-.32.24-.55.42-.8.08-.12.1-.25.12-.39.03-.15.03-.3.08-.45.03-.09.08-.17.13-.25.15-.26.42-.45.69-.54.28-.09.58-.07.85.06.21.1.45.28.57.57.11.27.04.6-.02.89-.02.09-.04.17-.05.26-.02.16-.06.31-.1.47-.03.14-.04.27-.09.41-.09.25-.18.52-.3.75-.07.15-.17.31-.18.47-.01.12.04.21 0 .33-.09.27-.27.54-.45.77-.09.11-.18.23-.24.35-.09.18-.14.27-.31.39-.2.16-.65.34-.63.6-.42.2-.72.53-1.14.74-.39.2-.88.15-1.21.45-.2.18-.32.37-.58.51-.29.16-.63.13-.93.14-.1 0-.19 0-.29-.01-.09 0-.18 0-.27.01-.06.01-.11.03-.17.04a.68.68 0 0 1-.43-.06c-.09-.05-.2-.12-.29-.17l-.1-.04zm-11.8-13.92c.05-.08.11-.14.18-.19.06-.04.12-.08.19-.08.1-.01.2 0 .31-.01.07-.01.13-.03.2-.03s.14.03.21.06c.06 0 .12.04.18.06.05.02.09.04.13.06.04.01.08.03.12.05l.06.02c.01 0 .02.01.03.01.01.01.01.03.02.04.01.02.04.02.05.04.01.02.02.06.02.08l.01.01c0 .02.01.03.02.05.01.02 0 .05.02.07.01.01.02.01.03.01.01.01.02.03.02.05.03.06.04.12.08.18.05.08.08.14.13.22.08.12.17.22.22.35.05.12.04.24.04.37.02.33.04.68.21 1 .07.16.17.29.31.4.1.08.2.14.28.23.24.23.3.61.54.86.18.2.46.26.67.4.23.11.44.25.66.37.11.06.22.15.35.18.11.02.2-.01.3-.02.32-.03.55.23.81.41.13.07.25.1.4.11.15.02.3.02.45.07.09.03.18.07.25.13.26.15.46.41.55.68.1.28.08.58-.05.85-.1.22-.27.45-.56.58-.27.12-.59.05-.89-.01-.09-.02-.17-.04-.26-.04a3.55 3.55 0 0 1-.47-.09c-.14-.03-.27-.04-.41-.08-.26-.08-.52-.17-.76-.29-.15-.07-.31-.17-.47-.17-.12-.01-.21.04-.33.01-.27-.08-.55-.26-.77-.44-.12-.08-.23-.18-.36-.24-.18-.09-.27-.14-.4-.3-.16-.2-.35-.65-.61-.62-.21-.41-.54-.71-.76-1.13-.2-.39-.17-.88-.47-1.2-.19-.19-.38-.31-.52-.57-.16-.29-.14-.63-.15-.93-.01-.1 0-.19 0-.29 0-.09 0-.18-.01-.27-.01-.06-.03-.11-.04-.17a.721.721 0 0 1 .05-.44c.05-.09.11-.2.17-.29l.02-.11zm23.12 7.56a.43.43 0 0 1 .22-.09c.07-.02.13-.02.2-.01l.3.06c.07.01.13.01.2.02.07.02.13.05.19.09.06.02.11.06.16.09.04.03.07.05.12.07.04.02.07.05.1.07l.05.03c.01.01.02.01.02.02.01.01 0 .02.01.03.01.02.03.02.04.04v.06l.01.01c0 .02.01.03.01.04 0 .02-.01.04 0 .05 0 .01.02.01.02.02.01.01.01.03.01.04.02.05 0 .1.03.15.02.07.04.12.07.19.05.1.1.21.11.32.01.1-.03.19-.07.28-.12.25-.19.5-.18.77.01.13.05.25.12.37.05.08.13.15.16.24.09.23-.01.51.06.76.07.19.24.31.36.45.11.15.23.28.32.43.04.08.1.16.17.21.06.04.14.04.22.05.26.02.26.29.36.47.04.1.12.13.2.16.09.03.17.08.25.14.05.04.08.09.11.15.1.19.16.47.16.75 0 .29-.08.58-.25.81-.13.19-.33.38-.61.44-.24.03-.51-.08-.72-.23a.724.724 0 0 0-.19-.11c-.13-.06-.24-.12-.34-.21-.09-.08-.2-.11-.3-.19-.18-.14-.33-.31-.48-.47-.09-.1-.16-.24-.29-.29-.1-.04-.19-.02-.28-.09-.18-.15-.3-.39-.42-.59-.05-.1-.1-.21-.17-.3-.1-.12-.18-.18-.19-.35-.02-.21 0-.6-.23-.65.03-.38-.15-.68-.15-1.04-.01-.34.21-.68.07-.99-.08-.19-.25-.32-.28-.55-.03-.25.07-.48.16-.7.03-.07.06-.15.09-.21.02-.06.05-.13.06-.19.01-.05 0-.09 0-.13.01-.11.08-.23.16-.3.07-.05.15-.12.22-.17l.03-.02zM79.62 91c.02.09.02.17.01.26-.01.07-.03.14-.08.19-.07.08-.14.15-.21.23-.04.05-.07.12-.12.16-.05.05-.12.08-.19.11-.05.04-.11.06-.17.09-.05.02-.09.03-.13.05-.04.02-.08.03-.12.05l-.06.03c-.01 0-.02.01-.03.01-.01 0-.02-.01-.04-.01s-.04.02-.06.01c-.02-.01-.05-.03-.07-.04l-.01.01c-.02-.01-.03-.01-.05-.02-.02-.01-.04-.03-.06-.04-.01 0-.02.01-.03.01-.01 0-.04-.01-.05-.02-.06-.02-.12-.06-.18-.07-.09-.02-.15-.04-.24-.07-.14-.03-.28-.04-.41-.09-.11-.05-.2-.14-.29-.23-.25-.22-.51-.46-.85-.56-.16-.06-.33-.09-.5-.06-.12.01-.24.04-.36.04-.33 0-.64-.22-.99-.23-.27-.02-.51.14-.76.19-.24.09-.49.13-.73.21-.13.03-.27.05-.38.12-.09.06-.14.15-.2.22-.21.25-.55.23-.86.28-.14.04-.25.11-.36.2-.12.09-.23.2-.37.27-.08.04-.18.07-.27.09-.29.08-.61.03-.88-.09-.27-.13-.47-.35-.57-.63a1.12 1.12 0 0 1-.01-.81c.1-.27.38-.46.64-.63.07-.05.15-.09.21-.15.13-.1.25-.18.4-.27.12-.08.22-.17.35-.23.24-.12.48-.25.74-.33.16-.06.34-.1.46-.21.09-.08.11-.18.23-.24.25-.13.57-.2.86-.24.14-.02.29-.04.42-.09.19-.07.29-.1.5-.07.25.03.71.21.87 0 .44.15.88.12 1.33.26.42.13.74.5 1.18.52.27.01.49-.05.78.04.32.09.54.35.77.55.07.06.14.14.21.21.06.06.12.13.2.18.05.04.1.06.15.09.12.08.24.23.27.34.03.1.06.22.09.32l.02.09zm-22.73-4.36c.05-.08.11-.14.18-.19.06-.04.12-.08.19-.08.1-.01.2 0 .31-.01.07-.01.13-.03.2-.03s.14.03.21.06c.06 0 .12.04.18.06.05.02.09.04.13.06.04.01.08.03.12.05l.06.02c.01 0 .02.01.03.01.01.01.01.03.02.04.01.02.04.02.05.04.01.02.02.06.02.08l.01.01c0 .02.01.03.02.05.01.02 0 .05.02.07.01.01.02.01.03.01.01.01.02.03.02.05.03.06.04.12.08.18.05.08.08.14.13.22.08.12.17.22.22.35.05.12.04.24.04.37.02.33.04.68.21 1 .07.16.17.29.31.4.1.08.2.14.28.23.24.23.3.61.54.86.18.2.46.26.67.4.23.11.44.25.66.37.11.06.22.15.35.18.11.02.2-.01.3-.02.32-.03.55.23.81.41.13.07.25.1.4.11.15.02.3.02.45.07.09.03.18.07.25.13.26.15.46.41.55.68.1.28.08.58-.05.85-.1.22-.27.45-.56.58-.27.12-.59.05-.89-.01-.09-.02-.17-.04-.26-.04a3.55 3.55 0 0 1-.47-.09c-.14-.03-.27-.04-.41-.08-.26-.08-.52-.17-.76-.29-.15-.07-.31-.17-.47-.17-.12-.01-.21.04-.33.01-.27-.08-.55-.26-.77-.44-.12-.08-.23-.18-.36-.24-.18-.09-.27-.14-.4-.3-.16-.2-.35-.65-.61-.62-.21-.41-.54-.71-.76-1.13-.2-.39-.17-.88-.47-1.2-.19-.19-.38-.31-.52-.57-.16-.29-.14-.63-.15-.93-.01-.1 0-.19 0-.29 0-.09 0-.18-.01-.27-.01-.06-.03-.11-.04-.17a.721.721 0 0 1 .05-.44c.05-.09.11-.2.17-.29l.02-.11zm13.04-5.85c.08.05.14.11.19.18.04.06.08.12.08.19.01.1 0 .2.01.31.01.07.03.13.03.2s-.03.14-.06.21c0 .06-.04.12-.06.18-.02.05-.04.09-.06.13-.01.04-.03.08-.05.12l-.01.06c0 .01-.01.02-.01.03-.01.01-.03.01-.04.02-.02.01-.02.04-.04.05-.02.01-.06.02-.08.02l-.01.01c-.02 0-.03.01-.05.02-.02.01-.05 0-.07.02-.01.01-.01.02-.01.03-.01.01-.03.02-.05.02-.06.03-.12.04-.18.08-.08.05-.14.08-.22.13-.12.08-.22.17-.35.22-.12.05-.24.04-.37.04-.33.02-.68.04-1 .21-.16.07-.29.17-.4.31-.08.1-.14.2-.23.28-.23.24-.61.3-.86.54-.2.18-.26.46-.4.67-.11.23-.25.44-.37.66-.06.11-.15.22-.18.35-.02.11.01.2.02.3.03.32-.23.55-.41.81a.92.92 0 0 0-.11.4c-.02.15-.02.3-.07.45-.03.09-.07.18-.13.25-.15.26-.41.46-.68.55-.28.1-.58.08-.85-.05-.22-.1-.45-.27-.58-.56-.12-.27-.05-.59.01-.89.02-.09.04-.17.04-.26.02-.17.05-.31.09-.47.03-.14.04-.27.08-.41.08-.26.17-.52.29-.76.07-.15.17-.31.17-.47.01-.12-.04-.21-.01-.33.08-.27.26-.55.44-.77.08-.12.18-.23.24-.36.09-.18.14-.27.3-.4.2-.16.65-.35.62-.61.41-.21.71-.54 1.13-.76.39-.2.88-.17 1.2-.47.19-.19.31-.38.57-.52.29-.16.63-.14.93-.15.1-.01.19 0 .29 0 .09 0 .18 0 .27-.01.06-.01.11-.03.17-.04.14-.03.33-.01.44.05.09.05.2.11.29.17l.1.02zm3.25-5.62c.02.09.02.17.01.26-.01.07-.03.14-.08.19-.07.08-.14.15-.21.23-.04.05-.07.12-.12.16-.05.05-.12.08-.19.11-.05.04-.11.06-.17.09-.05.02-.09.03-.13.05-.04.02-.08.03-.12.05l-.06.03c-.01 0-.02.01-.03.01-.01 0-.02-.01-.04-.01s-.04.02-.06.01c-.02-.01-.05-.03-.07-.04l-.01.01c-.02-.01-.03-.01-.05-.02-.02-.01-.04-.03-.06-.04-.01 0-.02.01-.03.01-.01 0-.04-.01-.05-.02-.06-.02-.12-.06-.18-.07-.09-.02-.15-.04-.24-.07-.14-.03-.28-.04-.41-.09-.11-.05-.2-.14-.29-.23-.25-.22-.51-.46-.85-.56-.16-.06-.33-.09-.5-.06-.12.01-.24.04-.36.04-.33 0-.64-.22-.99-.23-.27-.02-.51.14-.76.19-.24.09-.49.13-.73.21-.13.03-.27.05-.38.12-.09.06-.14.15-.2.23-.21.25-.55.23-.86.28-.14.04-.25.11-.36.2-.12.09-.23.2-.37.27-.08.04-.18.07-.27.09-.29.08-.61.03-.88-.09-.27-.13-.47-.35-.57-.63a1.12 1.12 0 0 1-.01-.81c.1-.27.38-.46.64-.63.07-.05.15-.09.21-.15.13-.1.25-.18.4-.27.12-.08.22-.17.35-.23.24-.12.48-.25.74-.33.16-.06.34-.1.46-.21.09-.08.11-.18.23-.24.25-.13.57-.2.86-.24.14-.02.29-.04.42-.09.19-.07.29-.1.5-.07.25.03.71.21.87 0 .44.15.88.12 1.33.26.42.13.74.5 1.18.52.27.01.49-.05.78.04.32.09.54.35.77.55.07.06.14.14.21.21.06.06.12.13.2.18.05.04.1.06.15.09.12.08.24.23.27.34.03.1.06.22.09.32l.02.08zm18.74 5.59c.02.09.02.17.01.26-.01.07-.03.14-.08.19-.07.08-.14.15-.21.23-.04.05-.07.12-.12.16-.05.05-.12.08-.19.11-.05.04-.11.06-.17.09-.05.02-.09.03-.13.05-.04.02-.08.03-.12.05l-.06.03c-.01 0-.02.01-.03.01-.01 0-.02-.01-.04-.01s-.04.02-.06.01c-.02-.01-.05-.03-.07-.04l-.01.01c-.02-.01-.03-.01-.05-.02-.02-.01-.04-.03-.06-.04-.01 0-.02.01-.03.01-.01 0-.04-.01-.05-.02-.06-.02-.12-.06-.18-.07-.09-.02-.15-.04-.24-.07-.14-.03-.28-.04-.41-.09-.11-.05-.2-.14-.29-.23-.25-.22-.51-.46-.85-.56a.95.95 0 0 0-.5-.06c-.12.01-.24.04-.36.04-.33 0-.64-.22-.99-.23-.27-.02-.51.14-.76.19-.24.09-.49.13-.73.21-.13.03-.27.05-.38.12-.09.06-.14.15-.2.23-.21.25-.55.23-.86.28-.14.04-.25.11-.36.2-.12.09-.23.2-.37.27-.08.04-.18.07-.27.09-.29.08-.61.03-.88-.09-.27-.13-.47-.35-.57-.63a1.12 1.12 0 0 1-.01-.81c.1-.27.38-.46.64-.63.07-.05.15-.09.21-.15.13-.1.25-.18.4-.27.12-.08.22-.17.35-.23.24-.12.48-.25.74-.33.16-.06.34-.1.46-.21.09-.08.11-.18.23-.24.25-.13.57-.2.86-.24.14-.02.29-.04.42-.09.19-.07.29-.1.5-.07.25.03.71.21.87 0 .44.15.88.12 1.33.26.42.13.74.5 1.18.52.27.01.49-.05.78.04.32.09.54.35.77.55.07.06.14.14.21.21.06.06.12.13.2.18.05.04.1.06.15.09.12.08.24.23.27.34.03.1.06.22.09.32l.02.08z" fill="#36A635"></path><path d="M104.51 90.84c-.01-.14 0-.27-.01-.42l-.04-.43c-.01-.16-.02-.29-.05-.45-.07-.26-.1-.54-.19-.78s-.17-.48-.25-.72c-.02-.06-.05-.12-.07-.19-.01-.04-.01-.08-.02-.12a.318.318 0 0 1-.03-.09c-.03-.11-.04-.24-.06-.35-.03-.13-.04-.18-.08-.33-.06-.34-.16-.71-.23-1.06-.1-.48-.15-.98-.37-1.46-.19-.45-.4-.92-.59-1.37-.44-.77-.81-1.57-1.4-2.21-.46-.61-1.04-1.02-1.57-1.52-.53-.37-.81-.81-1.25-1.2-.71-.74-1.62-1.35-2.74-1.77-.33-.11-.62-.2-1.02-.26-1.81-.55-3.66-.95-5.5-1.45-1.13-.3-2.29-.65-3.32-1.08-.54-.23-1.11-.48-1.73-.61-.56-.12-.95-.07-1.46-.13-.87-.1-1.61-.59-2.4-.86-.87-.3-1.72-.44-2.52-.81h-.05c-.71-.89-1.36-1.79-1.89-2.8-.84-1.58-1.61-2.75-2.27-4.26-.77-1.74-1.15-3.68-1.05-5.53.01-.4.08-.83.06-1.3-.03-.48-.11-.96-.17-1.4-.15-1.04-.23-2.13-.19-3.28.03-1.08.15-2.16.26-3.23l.3-2.85c.11-.95.22-1.85.46-2.58.24-.7.39-1.3.51-2.29.13-1.03.3-2.23.32-3.29 0-.88-.19-1.47-.18-2.35 0-.42.07-.81.06-1.23l-.01-.41c0-.21.01-.42.02-.64.01-.78-.01-1.59-.07-2.39.05-.67.08-1.34-.02-1.97-.06-.33-.14-.63-.19-1.02-.07-.49-.04-1.03-.15-1.52-.08-.48-.17-.95-.25-1.44-.12-.47-.28-.93-.42-1.39-.13-.47-.33-.89-.55-1.32-.21-.42-.38-.87-.61-1.3-.29-.55-.51-1.14-.8-1.7-.31-.54-.61-1.1-1-1.59-.3-.35-.6-.63-.9-.94-.39-.44-.87-.83-1.29-1.29-.43-.48-.92-.87-1.35-1.31-.43-.44-.92-.81-1.39-1.21-.34-.29-.7-.58-1.13-.79-.47-.25-.92-.43-1.36-.6-1.51-.5-3.1-1.14-4.75-1.53-.35-.09-.69-.18-1.03-.28-.33-.07-.67-.13-1.01-.2-.33-.07-.67-.14-1.01-.21l-1.04-.12c-.34-.04-.67-.06-1-.08-.33 0-.65.03-.97.05-.64.03-1.28.1-1.95.23-.65.09-1.27.14-1.88.26-.61.1-1.24.18-1.85.4-1.09.33-1.79.88-2.8 1.33-.62.3-1.22.6-1.84.91-.58.35-1.17.7-1.73 1.12-.76.66-1.41 1.35-2.18 1.99-.23.18-.45.35-.65.51-.19.18-.38.37-.55.56-.34.39-.71.77-.92 1.31-.22.48-.34.9-.6 1.41-.27.75-.8 1.46-1.13 2.19-1 1.81-1.64 3.75-1.82 5.96-.02.49-.03.99-.05 1.49v.05l.01.06c.1.75.2 1.51.23 2.26v.27l-.03.35-.03.5c-.01.23-.01.43 0 .66.01.17.03.35.02.53.01.01.02.04.01.09 0 0 .01.03.01.04 0 .33.02.67.06 1.03v.01c0 .15 0 .31-.01.47-.06 1.1-.18 2.37.07 3.46.07.33.16.6.21.98.07.48.09 1 .14 1.48.08.94.2 1.88.33 2.8.14.93.34 1.79.44 2.76.12 1.21.06 2.43.22 3.63.06.44.15.82.23 1.23.11.56.17 1.15.21 1.76.08 1.25.05 2.42-.03 3.59-.03.42-.05.86-.05 1.31 0 .5.08.96.1 1.41.12 1.5-.03 3.16-.45 4.7-.35 1.32-.89 2.41-1.59 3.46-.69 1-1.25 1.89-2.16 2.7-.32.29-.68.51-1.01.74-.1.07-.18.16-.26.25-.35.12-.71.22-1.08.3-.62.14-1.2.19-1.82.27-.6.08-1.08.3-1.64.49-.54.18-1.09.14-1.63.31-.47.15-.77.46-1.24.6-.58.18-1.17.2-1.75.43-.41.16-.76.43-1.22.45-.36.01-.84 0-1.17.22-.08.05-.14.11-.24.17-.07.04-.14.07-.21.1-.24.1-.52.17-.77.23s-.5.08-.75.11c-.32.04-.64.09-.96.17-.17.04-.33.09-.49.15-.11.03-.23.06-.33.11-.15.07-.29.18-.41.27-.16.12-.35.25-.43.39-.05.08-.03.15-.02.23.01.09.02.18.01.27-.03.08-.09.17-.07.25.03.12.2.18.35.24.24.08.5.18.79.22.01-.01.04-.02.07-.01.06.01.14.03.17.04.09-.03.23 0 .32 0 .14 0 .26.04.41.04.27-.01.54-.13.81-.19.08-.02.15-.02.24-.04.08-.02.16-.05.24-.07.09-.02.16-.04.25-.08.14-.06.3-.09.43-.17.12-.08.26-.15.38-.23.03-.02.06-.05.1-.07.02-.02.04-.02.06-.03.02-.01.03-.03.05-.03.06-.02.13-.03.2-.05.07-.02.11-.05.19-.05.2-.02.4-.08.61-.1.28-.03.56-.06.84-.14.26-.08.53-.18.79-.26.47-.15.93-.29 1.36-.49.39-.17.72-.39 1.09-.57.33-.15.62-.15.95-.15.57.01 1.15-.03 1.76-.13 1.32-.23 2.55-.73 3.82-1.11.66-.2 1.37-.37 2.03-.41.35-.02.73-.03 1.08-.17.32-.12.48-.33.75-.49.04-.02.08-.03.11-.04.05-.02.11-.04.16-.06.4-.11.83-.06 1.23-.13.54-.09 1-.32 1.54-.32.11-.26.68-.23.97-.25.24-.02.35-.08.55-.18.15-.07.31-.11.47-.15.32-.09.69-.17.98-.32.14-.07.17-.17.28-.25.15-.11.37-.15.56-.2.31-.08.62-.16.93-.26.13-.04.25-.11.39-.15.09-.02.17-.03.26-.06.29-.1.57-.22.86-.31.33-.11.67-.21.95-.37.24-.14.39-.31.5-.48.26-.08.51-.17.76-.28-.06.63-.09 1.26-.08 1.9.03 1.22.1 2.34.43 3.52.32 1.15.88 2.04 1.59 2.98.68.9 1.32 1.76 2.27 2.42.84.57 1.63.7 2.56 1 1.16.35 2.34.6 3.59.39.87-.18 1.64-.53 2.47-.81.94-.31 1.75-.67 2.33-1.49.28-.35.41-.73.7-1.13.33-.58.7-.6 1.1-1.16.53-.71.85-1.2 1.13-1.72.28-.52.53-1.08.71-2.02.04-.13.16-.67.28-1.23.09-.56.14-1.13.15-1.26h-.01c0-.16-.01-.5-.03-.81 0-.28-.05-.55-.07-.72.13.03.27.07.41.11.04.12.12.25.21.39.27.3.89.58 1.5.84.06.02.1.04.15.06.07.03.1.06.16.09.13.07.32.16.47.22.16.07.34.14.52.19.2.05.4.12.6.16.15.03.25.03.39.05.19.03.5.15.69.21.3.11.58.23.86.35.55.23 1.18.47 1.77.51.25.02.47.01.75.06.35.06.72.18 1.07.28.65.19 1.31.34 1.97.49l.89.35.65.24.36.12.09.03c.05.01.01.01.15.04.21.05.45.07.66.05.1-.01.21-.03.31-.06.54.2 1.07.42 1.63.54.33.07.63.1.94.14.43.06.87.16 1.31.29.92.26 1.75.59 2.59.93.3.12.62.25.96.33.38.09.73.12 1.08.15 1.17.13 2.41.46 3.61.83 1.03.32 1.93.68 2.91 1.05.51.19 1 .32 1.49.44l.06.01c.05.01.11.02.16.02.23.02.66.08 1.02.2.8.26 1.39.79 2.05 1.28.57.44 1.14.65 1.64 1.23.62.71 1 1.53 1.49 2.37.39.56.72 1.16.91 1.84.13.56.15 1.31.44 1.86.07.14.15.24.21.41.04.12.08.24.11.36.1.41.18.87.25 1.29.07.41.08.81.07 1.22 0 .52.01 1.05.05 1.59.03.28.05.55.05.83.01.19 0 .39.02.57.03.28.1.54.16.77.07.3.16.66.27.86.07.12.14.12.22.14.09.02.18.04.26.11.08.06.15.19.24.2.12.01.23-.24.31-.46.14-.36.3-.74.41-1.21a.202.202 0 0 1 .01-.13c.02-.1.07-.22.08-.26-.01-.16.05-.39.07-.53.03-.24.11-.42.13-.66.03-.45-.06-.97-.09-1.45zM60.18 70.09c-.06.78-.16 1.88-.38 2.62-.27 1.02-.5 2.04-.98 2.96-.52.99-1.17 1.87-2.2 2.43-.38.2-.78.37-1.19.53-.38.18-.79.32-1.2.41-.73.19-1.48.18-2.21.17-.65-.03-1.26-.08-1.9-.29-.55-.19-.91-.5-1.27-.87-.62-.66-1.15-1.39-1.64-2.21-1.06-1.79-1.75-3.86-1.63-6.02.02-.5.1-1.01.23-1.51-.11-.08 3.71 2.1 6.08 2.42.47-.07 1.41-.04 2.39-.19 1-.1 2.01-.41 2.69-.66 1.12-.45 1.64-.78 2.53-1.42.07-.05.13-.1.2-.15.11.03.23.06.34.1.01.07.01.13.02.2.02.27.13.57.16.85.01.03-.01.36-.04.63zm-7.48-.75c-10.33 0-18.22-17.78-18.74-29.43l.26-.03c0-.05.35-.07.35-.12l.3-.49c-.04-.44.1-.45.05-.89.03-.32.11-.65.34-1.07.15-.23.25-.45.41-.7.18-.31.31-.63.55-.92.64-.85 1.55-1.45 2.47-1.95.81-.4 1.66-.8 2.57-1.07 1.06-.35 2.13-.57 3.27-.66.87-.09 1.61-.12 2.4-.23.83-.09 1.63-.22 2.48-.42 1.96-.42 3.86-.91 5.76-1.37.42-.08.85-.22 1.31-.42.47-.21.88-.56 1.26-.82.88-.71 1.75-1.45 2.56-2.38.21-.24.39-.51.58-.76.14-.18.29-.35.41-.54v.02c.03.17.07.32.11.48.16.6.43 1.16.91 1.87.65.91 1.48 1.89 2.28 2.55.66.57 1.24.75 1.86 1.31.29.26.54.54.8.8l.26.25c.13.14.26.27.39.41.27.33.54.65.81.97.25.33.49.66.73.99.23.38.46.76.71 1.16.17.41.41.81.58 1.23.14.43.31.85.45 1.23.04.18.09.32.14.43.1.22.2.35.31.46.12.12.24.22.36.32-.42 11.26-8.86 29.79-19.29 29.79z" fill="#085440"></path></g></svg>