<svg width="29" height="25" viewBox="0 0 29 25" fill="none" xmlns="http://www.w3.org/2000/svg">
<path d="M22 10C23.6562 10 25 8.65625 25 7C25 5.34375 23.6562 4 22 4C20.3438 4 19 5.34375 19 7C19 8.65625 20.3438 10 22 10Z" fill="#4A4A4A"/>
<path fill-rule="evenodd" clip-rule="evenodd" d="M1.8125 0H27.1875C28.1973 0 29 0.826823 29 1.84245V23.1576C29 24.1732 28.1973 25 27.1875 25H1.8125C0.802679 25 0 24.1732 0 23.1576V1.84245C0 0.826823 0.802679 0 1.8125 0ZM19.685 12.4674C20.0217 12.4674 20.3194 12.6432 20.5136 12.8711L26.9286 19.8177L26.9092 2.86458C26.8833 2.41536 26.5208 2.08333 26.0741 2.08333H2.91942C2.47924 2.08333 2.13616 2.40234 2.07143 2.84505V19.8047L10.26 9.86979C10.5125 9.57682 10.9138 9.36198 11.3475 9.36198C11.7812 9.36198 12.1696 9.55078 12.4286 9.85026L15.9112 13.6393C16.0083 13.737 16.1248 13.8477 16.1895 13.9062C16.3708 14.069 16.6232 14.1732 16.9016 14.1732C17.1929 14.1732 17.3935 14.0495 17.646 13.8672L18.8565 12.8385C19.1219 12.6237 19.3549 12.4674 19.685 12.4674Z" fill="#4A4A4A"/>
</svg>
