<svg xmlns="http://www.w3.org/2000/svg" viewBox="0 0 120 100" id="import-contacts-color"><g fill="none" fill-rule="evenodd"><path d="M53.2 34c0-.23-.01-.47-.04-.69a4.52 4.52 0 0 0-.14-.75c-.19-.77-.63-1.56-1.34-2.09-.66-.46-1.18-.53-1.85-.63-1.09-.14-2.25-.27-3.31.26-1.13.58-1.82 1.62-2.29 2.73.06.45-.23 1.64-.07 2.32.08.56.24.81.51 1.26.21.31.44.64.71.92.53.57 1.3 1.05 2.04 1.2.34.06.49 0 .79-.01.39-.02.88 0 1.31-.08.7-.11 1.38-.42 1.93-.86.3-.24.51-.5.74-.8.27-.34.45-.68.6-1.09.08-.22.13-.43.19-.66.07-.3.11-.61.11-.93h.1c.01-.04.01-.07.01-.1zm-2.42.1c-.02.24-.06.47-.12.69-.07.23-.18.44-.36.59-.4.34-.91.4-1.33.61-.13.06-.26.13-.44.14-.22.01-.45-.07-.65-.17-.39-.18-.74-.48-.99-.84s-.46-.79-.4-1.3c.09-.64.57-1.08.99-1.45.16-.14.3-.29.49-.39.25-.15.56-.23.88-.21.67.03 1.21.44 1.51.93.11.18.19.37.29.56.11.21.22.41.31.63.02.07.04.13.05.2h-.23v.01zM29.16 14.99c0-.23-.01-.47-.04-.69a4.52 4.52 0 0 0-.14-.75c-.19-.77-.63-1.56-1.34-2.09-.65-.46-1.17-.53-1.84-.63-1.09-.14-2.25-.27-3.31.26-1.13.57-1.82 1.61-2.28 2.73.06.45-.23 1.64-.07 2.32.08.56.24.81.51 1.26.21.31.44.64.71.92.53.57 1.3 1.05 2.04 1.2.34.06.49 0 .79-.01.39-.02.88 0 1.31-.08.7-.11 1.38-.42 1.93-.86.3-.24.51-.5.74-.8.27-.34.45-.68.6-1.09.08-.22.13-.43.19-.66.07-.3.11-.61.11-.93h.1c0-.03 0-.07-.01-.1zm-2.42.1c-.02.24-.06.47-.12.69-.07.23-.18.44-.36.59-.4.34-.91.4-1.33.61-.13.06-.26.13-.44.14-.22.01-.45-.07-.65-.17-.39-.18-.74-.48-.99-.84s-.46-.79-.4-1.3c.09-.64.57-1.08.99-1.45.16-.14.3-.29.49-.39.25-.15.56-.23.88-.21.67.03 1.21.44 1.51.93.11.18.19.37.29.56.11.21.22.41.31.63.02.07.04.13.05.2h-.23v.01zm21.94-4.15c.02-.44-.01-.89-.12-1.33-.16-.62-.62-1.07-1.04-1.44-.48-.41-.95-.65-1.44-1.03-.18-.14-.38-.28-.61-.36-.22-.07-.46-.11-.7-.13-.41-.06-.82-.04-1.2.08-.33.11-.6.29-.87.48-.24.15-.46.17-.72.22-.45.09-.92.29-1.3.66-.86.81-1.1 2.07-.99 3.18.05.59.2 1.18.34 1.76.07.3.18.64.43.88.23.21.47.24.72.35.41.18.6.64 1 .86.43.25.89.29 1.33.48.18-.19.64.01.9.04.22.04.33-.02.52-.09.14-.05.29-.09.43-.12.29-.08.62-.19.84-.38.11-.08.1-.2.18-.3.1-.13.26-.22.39-.32.22-.16.43-.35.6-.56.1-.11.14-.24.23-.36.11-.13.18-.26.24-.41.1-.26.24-.47.4-.69.11-.13.17-.29.24-.45.07-.14.01-.33.04-.48.03-.04.16-.54.16-.54zm22.45 18.29c0-.23-.01-.47-.04-.69a4.52 4.52 0 0 0-.14-.75c-.19-.77-.63-1.56-1.34-2.09-.66-.46-1.18-.53-1.85-.63-1.09-.14-2.25-.27-3.31.26-1.13.58-1.82 1.62-2.29 2.73.06.45-.23 1.64-.07 2.32.08.56.24.81.51 1.26.21.31.44.64.71.92.53.57 1.3 1.05 2.04 1.2.34.06.49 0 .79-.01.39-.02.88 0 1.31-.08.7-.11 1.38-.42 1.93-.86.3-.24.51-.5.74-.8.27-.34.45-.68.6-1.09.08-.22.13-.43.19-.66.07-.3.11-.61.11-.93h.1c.01-.03.01-.06.01-.1zm14.4-2.01c-.01-.64-.35-1.19-.67-1.64-.37-.51-.77-.85-1.15-1.34-.15-.18-.3-.37-.51-.5-.2-.12-.42-.21-.65-.29-.38-.15-.79-.23-1.18-.21-.35.03-.66.14-.96.26-.26.09-.48.06-.75.05-.46-.02-.96.07-1.42.33-1.02.58-1.56 1.75-1.71 2.85-.09.58-.09 1.2-.09 1.79 0 .31.03.66.21.95.17.26.4.35.61.51.35.27.44.76.77 1.08.35.34.79.49 1.18.78.22-.14.61.16.87.25.2.09.32.05.52.03.15-.02.3-.02.45-.02.3-.01.64-.04.91-.17.13-.06.15-.17.24-.25.13-.1.3-.15.46-.22.25-.11.5-.24.72-.4.12-.08.2-.2.31-.29.13-.1.23-.21.34-.34.16-.23.35-.4.56-.57.14-.1.23-.24.34-.38.1-.12.08-.32.16-.45.02-.03.27-.48.27-.48h.01c.09-.44.17-.88.16-1.33zm18.37 9.66c-.46-.66-.93-.9-1.52-1.22-.98-.51-2.03-1.01-3.2-.88-1.26.16-2.26.91-3.08 1.8-.1.44-.77 1.46-.86 2.16-.11.55-.05.85.06 1.35.09.36.19.75.35 1.1.3.71.86 1.43 1.51 1.82.3.18.46.16.75.26.38.11.82.3 1.26.37.7.13 1.44.07 2.11-.15.36-.12.65-.3.97-.5.37-.23.65-.48.93-.82.15-.18.27-.36.4-.55.16-.24.29-.5.39-.77l.13-.02c.01-.04.02-.07.03-.1.08-.22.15-.44.2-.66.06-.25.11-.5.13-.75.07-.8-.07-1.7-.56-2.44zm-2.44 3.72c-.14.2-.31.35-.54.43-.49.18-.99.07-1.45.12-.15.01-.29.03-.46-.01-.21-.07-.4-.22-.55-.38-.31-.3-.53-.7-.65-1.12-.11-.42-.17-.9.06-1.36.3-.57.9-.82 1.43-1.03.2-.08.38-.17.59-.21.29-.06.61-.02.9.1.62.26.99.82 1.1 1.39.04.21.06.41.08.63.03.24.07.46.07.69-.01.07-.01.14-.02.2l-.21-.05c-.1.21-.21.41-.35.6zM86.51 9.28c0-.23-.01-.47-.04-.69a4.52 4.52 0 0 0-.14-.75c-.19-.77-.62-1.56-1.33-2.09-.66-.46-1.18-.53-1.85-.63-1.09-.14-2.25-.27-3.31.26-1.13.58-1.82 1.62-2.29 2.73.06.45-.23 1.64-.07 2.32.08.56.24.81.51 1.26.22.31.44.64.71.92.53.57 1.3 1.05 2.04 1.2.34.06.49 0 .79-.01.39-.02.88 0 1.31-.08.7-.11 1.38-.42 1.93-.86.3-.24.51-.5.74-.8.27-.34.45-.68.6-1.09.08-.22.13-.43.19-.66.07-.3.11-.61.11-.93h.1v-.1zm-2.42.11c-.02.24-.06.47-.12.69-.07.23-.18.44-.36.59-.4.34-.91.4-1.33.61-.13.06-.26.13-.44.14-.22.01-.45-.07-.65-.17-.39-.18-.74-.48-.99-.84s-.46-.79-.4-1.3c.09-.64.57-1.08.99-1.45.16-.14.3-.29.49-.39.25-.15.56-.23.88-.21.67.04 1.22.45 1.51.94.11.18.19.37.29.56.11.21.22.41.31.63.02.07.04.13.05.2h-.23zM29.34 39.31c.02-.44-.01-.89-.12-1.33-.16-.62-.62-1.07-1.04-1.44-.48-.41-.95-.65-1.44-1.03-.18-.14-.38-.29-.62-.36-.22-.07-.46-.11-.7-.13-.41-.06-.82-.04-1.2.08-.33.11-.6.29-.87.48-.24.15-.46.17-.72.22-.45.09-.92.29-1.3.66-.86.81-1.1 2.07-.99 3.18.05.59.2 1.18.34 1.76.07.3.18.64.43.88.23.21.47.24.72.35.41.18.6.64 1 .86.43.25.89.29 1.33.48.18-.19.64.01.9.04.22.04.33-.02.52-.09.14-.05.29-.09.43-.12.29-.08.62-.19.84-.38.11-.08.1-.2.18-.3.1-.13.26-.22.39-.32.22-.16.43-.35.6-.56.1-.11.14-.24.23-.36.11-.13.18-.26.24-.41.1-.26.24-.47.4-.69.11-.13.17-.29.24-.45.07-.14.01-.33.04-.48.03-.04.16-.54.17-.54zm10.61 14.25c1.18-.2 2.17-.11 3.34 0l.17.02c.244.022.463.16.59.37l.15.26c.59.99 1.36 1.77 2.06 2.65.74.94 1.35 1.88 2 2.82h.22c1.27-.01 2.23-.24 3.51-.25 1.47-.02 2.81.17 4.29.14 1.55-.03 2.89-.12 4.45-.03 1.6.09 3.08.2 4.74.23.98.02 1.97.02 2.94 0v-.02c.03-.22-.03-.3.02-.44.06-.13.12-.26.2-.37.13-.18.24-.36.3-.58.04-.13.09-.24.16-.36.06-.1.08-.22.14-.32.12-.18.26-.36.42-.52.1-.1.22-.19.27-.32.04-.1.01-.2.08-.29.14-.2.39-.34.6-.46.11-.06.23-.1.32-.18.13-.11.21-.17.39-.19.22-.03.63.05.72-.18.39.07.75-.06 1.15.03.36.07.65.4 1.02.37.22 0 .43-.1.67-.02.27.08.46.3.62.5.31.38.65.75.94 1.13.27.37.53.77.7 1.21.08.22.15.44.18.68.01.08.02.16.02.24.24.01.47.03.71.03h.03c.464.013.85.36.91.82l.07.57c.1.72.21 1.42.36 2.09.1.49.22.95.31 1.48.028.167.052.334.074.5.297.02.576 0 .686-.1.85.13 1.63.03 2.49.08.79.05 1.61.3 2.39.17.46-.08.77-.23 1.3-.27.59-.04 1.18.05 1.72.12 1.03.14 2.16.16 3.23.15h.15a1.17 1.17 0 0 1 1.17 1.08c0 .13-.02.25-.06.37l-.01.03c-.64 1.86-1.17 3.75-1.95 5.56-.37.86-.78 1.63-1.21 2.36-.25.43-.47.8-.59 1.33-.14.61-.22 1.19-.37 1.81-.18.7-.41 1.4-.64 2.1-.13.4-.26.82-.39 1.21-.15.41-.34.79-.52 1.17-.48 1.02-.69 1.98-.95 3.04-.24.97-.4 1.98-.77 2.95-.31.79-.63 1.6-.95 2.41l-.07.19v.01c-.21.56-.75.9-1.32.88l-.97-.03c-.48-.02-.97-.08-1.45-.09-.49-.01-.95.06-1.44.06-.42 0-.71-.09-1.1-.15-.42-.06-.86-.01-1.28-.02-.38-.01-.74-.06-1.1-.09.58-.02 1.16-.03 1.71-.06 1.2-.06 2.45-.15 3.42-.26.21-.02.37-.05.5-.08.24-.05.34-.12.41-.19.11-.11.2-.23.2-.34 0-.06.09-.49.17-.95.1-.06.2-.17.3-.26.04-.04.09.01.11-.11.01-.09.02-.2.03-.31 0-.03.04-.25.03-.31-.02-.17 0-.3 0-.43-.01-.13-.01-.26-.01-.38 0-.15-.01-.32-.02-.47-.02-.14-.03-.26-.04-.39l-.03-.49c-.01-.19-.03-.38-.05-.57-.02-.26-.05-.49-.09-.76-.03-.2-.08-.42-.09-.62-.01-.02-.01-.06-.02-.11-.02-.02-.05-.19-.06-.26-.11-.55-.15-1.03-.18-1.55-.07-1.23-.07-2.65-.38-4.01-.09-.41-.19-.76-.27-1.22-.1-.58-.16-1.18-.23-1.76-.13-1.11-.29-2.24-.47-3.34-.19-1.12-.43-2.17-.58-3.31-.099-.78-.148-1.558-.212-2.34.059.782.104 1.563.202 2.35.15 1.14.4 2.19.58 3.31.17 1.1.34 2.23.47 3.34.07.58.13 1.18.23 1.76.08.46.18.81.27 1.22.31 1.37.31 2.78.38 4.01.03.52.07.99.18 1.55.02.07.05.24.06.26a.268.268 0 0 0 .02.11c.02.19.06.42.09.62.04.27.06.5.09.76.01.19.03.38.05.57l.03.49c.01.13.03.25.04.39 0 .15.01.32.02.47.01.12.01.25.01.38s-.02.27-.03.38c.01.05-.03.27-.03.31-.01.11-.01.23-.03.31-.02.13-.07.08-.11.11-.11.09-.21.22-.32.28-.06.03-.12.06-.19.07-.08.01-.16-.05-.27-.26-.11-.23-.24-.62-.37-1.06-.33-1.13-.7-2.59-1-4.02-.26-1.2-.42-2.29-.54-3.41-.06-.49-.11-.97-.18-1.49l-.13-.87c-.04-.24-.09-.47-.11-.7-.05-.43-.14-1-.25-1.4-.1-.35-.2-.51-.29-.89-.18-.81-.3-1.73-.43-2.55-.06-.4-.11-.82-.2-1.22-.12-.56-.2-.85-.24-1.43-.05-.68-.07-1.99-.35-2.45-.04-1.27-.32-2.54-.45-3.88-.07-.73-.07-1.48-.12-2.23-.56.08-1.05.18-1.74.21-.97.04-1.93-.05-2.82-.12-1.7-.14-3.58-.16-5.37-.15-3.46.02-6.88.17-10.34.04-1.59-.06-3.06-.18-4.49-.34-.83-.09-1.56-.17-2.48-.11-.67.06-1.38.12-2.07.18a.736.736 0 0 1-.63-.26l-.1-.11-.68-.8c-.78-.95-1.53-1.95-2.29-2.97-.44-.57-.88-1.16-1.31-1.73l-.05-.08-.96-.05c-1.92-.1-3.59.02-5.45.13-1.7.1-3.41.28-5.19.26l-.85-.01.04.48c.06.67.16 1.33.24 2 .09.82.15 1.65.26 2.47.12.84.29 1.6.41 2.43.1.72.08 1.22.12 1.89.05.72.2 1.45.29 2.17.11.82.13 1.61.23 2.42.11.85.29 1.61.4 2.45.11.84.11 1.59.15 2.38.05.85.1 1.65.16 2.5.05.94.06 1.84.13 2.81.19 2.67.55 5.6.95 8.24.06.35.12.73.18 1.1 1.39-.08 2.78-.13 4.16-.06.7.04 1.24.05 1.92.01.86-.04 1.64-.06 2.52-.02.78.03 1.44.06 2.19 0 .41-.04.92-.01 1.36-.01.47 0 .88.05 1.36.08 1.08.07 2.19.08 3.28.12.76.03 1.52.07 2.28.07H54c1.07.03 2.06.07 3.1.03 1.09-.04 1.99-.13 3.19-.03 1.01.08 1.78.24 2.76.13.36-.04.65-.11 1.03-.14.34-.03.67-.01 1.04-.01.81-.01 1.14-.2 2.01-.06.34.06.66.14 1.12.15.43.01.77-.06 1.06-.1.31-.04.62-.08 1.04-.09.27 0 .56 0 .83.03.18.03.37.05.55.07.27.03.56.03.81.02l.36-.01c.1.01.25.01.36.02.1.01.19.01.3.02.14.01.28.03.41.04l.7.03c.99.03 2.04.08 3.02.14l.36.02h.23c.23.01.46.03.66.05.15.01.38.05.55.05.06.02.14.02.22.03l.22.03c.14.03.17.07.41.09l.59.09c.15.02.18.06.29.09.04.01.23.07.29.07.23.12.47.24.47.36s-.09.23-.2.34c-.07.07-.17.13-.41.19-.12.03-.28.06-.5.08-.96.11-2.22.2-3.42.26-.61.03-1.23.05-1.86.06-1.11.03-2.25.02-3.37 0-.24 0-.49-.01-.74-.01l-.46.01c-.49 0-.96-.03-1.45-.02-1.01.02-1.56.21-2.56.26-1.21.05-2.66 0-3.9-.02-1.18-.01-1.94-.09-2.87-.23-.96-.15-2.03-.16-3.17-.17-1.13-.01-2.26-.01-3.4-.02-1.28-.01-2.57-.05-3.86-.04-1.37.01-2.63.11-3.87.23-.52.04-1.09.12-1.68.11-.57-.01-1.09-.09-1.59-.15-2.27-.27-4.56-.23-6.87-.02-1.04.1-2.05.19-3 .28-.56.06-1.06-.33-1.17-.87l-.04-.21c-.17-.9-.32-1.83-.42-2.89-.13-1.45-.3-2.83-.47-4.27-.15-1.21-.27-2.45-.36-3.65-.11-1.41-.14-2.84-.33-4.27l-.22-1.46c-.05-.41-.05-.75-.06-1.12-.02-1.24-.23-1.76-.48-2.78-.29-1.23-.12-2.08-.21-3.26-.09-1.24-.49-2.12-.63-3.38-.16-1.46-.04-2.73-.12-4.12-.08-1.45-.32-2.9-.5-4.36-.02-.15-.03-.3-.05-.44a.973.973 0 0 1 .86-1.09c.04-.01.08-.01.12-.01 2.33.01 4.45.2 6.68.34.92.06 1.93.11 2.83.01.66-.07 1.13-.2 1.72-.3z" fill="#085440"></path><path d="M48.11 84.21l-.03-.1c-.01-.02-.02-.05-.03-.07-.05-.14-.1-.28-.17-.42-.06-.12-.18-.21-.28-.3-.23-.2-.44-.42-.68-.61-.24-.19-.47-.38-.69-.59-.28-.26-.54-.54-.8-.82l-.14-.14c-.37-.37-.75-.73-1.15-1.07-.4-.34-.81-.67-1.22-.99l-1.24-.97a58.064 58.064 0 0 1-1.52-1.23c.38-.04.76-.08 1.14-.1.31-.02.63 0 .94 0 .55.01 1.09-.06 1.64-.05.39.01.78.07 1.17.09.2.01.4.02.59 0 .08-.01.17-.01.25-.05.08-.04.16-.06.24-.1.06-.03.13-.02.19-.05.01-.01.04-.01.05-.02.01-.01.01-.02.02-.03.02-.01.05-.01.07-.01.02-.01.03-.02.05-.02 0 0 0-.01.01-.01.02 0 .06-.01.08-.01.02-.01.02-.04.04-.05.01-.01.03-.01.04-.02.01-.01.01-.02.02-.03.01-.02.01-.04.02-.06.02-.04.04-.07.06-.12.02-.05.04-.08.06-.13.03-.06.06-.12.06-.18.03-.07.06-.13.06-.2s-.02-.13-.03-.2c-.01-.1 0-.2-.01-.31 0-.07-.03-.13-.06-.2a.38.38 0 0 0-.09-.13c-.02-.02-.04-.04-.06-.05a.176.176 0 0 1-.05-.04c-.09-.07-.18-.15-.28-.21-.09-.05-.19-.04-.29-.04-.21 0-.42-.03-.64-.02-.21.01-.42.02-.63.01-.27-.01-.53-.06-.79-.09-.05-.01-.09-.01-.14-.02-.36-.04-.73-.06-1.09-.06-.36 0-.73.02-1.09.04-.36.03-.73.05-1.09.08-.36.03-.73.05-1.09.06-.17.01-.34-.01-.51.01-.16.02-.33.01-.49.04-.07.01-.13.02-.2.01-.06-.01-.11 0-.17 0-.03-.13-.05-.25-.08-.38-.13-.63-.24-1.26-.35-1.9-.05-.3-.08-.59-.15-.88-.07-.28-.1-.57-.17-.84-.03-.12-.05-.23-.06-.35-.04-.41-.11-.85-.29-1.18-.2-.36-.47-.56-.71-.67-.3-.14-.6-.15-.85.05-.15.12-.31.32-.38.59-.07.3-.06.7-.05 1.05.01.22.02.44.04.65.1.91.28 1.82.46 2.71.16.78.34 1.55.48 2.34.1.54.18 1.09.26 1.64.14.96.36 1.9.5 2.86.1.69.15 1.38.23 2.07.04.35.09.7.16 1.04.03.14.05.3.11.42.06.13.11.27.16.41.04.1.06.22.1.33.01.02.02.07.03.08.01.01.02.01.03.02.02.03.02.08.03.12.01.03.02.05.03.09l.01.01c.01.03.02.1.03.13.02.04.04.03.06.06.01.02.01.04.02.06.01.01.02.02.03.02.02.02.04.02.07.03.04.03.08.06.13.08.05.02.09.05.14.08.06.04.13.08.19.08.07.04.15.08.22.07.07-.01.13-.06.19-.08.1-.03.2-.03.3-.06.07-.02.12-.07.18-.14a.784.784 0 0 0 .15-.3c.01-.03.01-.06.02-.09.05-.17.1-.34.13-.53.03-.16-.01-.34-.04-.51-.06-.37-.09-.74-.16-1.12-.07-.36-.13-.73-.18-1.1-.06-.47-.09-.93-.13-1.4-.01-.08-.01-.16-.02-.24-.03-.37-.09-.73-.14-1.1.18.14.35.28.53.42.51.39 1.04.77 1.54 1.18.35.28.68.58 1.02.88.59.52 1.23.98 1.82 1.51.42.38.81.79 1.22 1.17.21.19.42.38.65.56.09.07.19.16.3.2.11.04.22.1.33.15.08.04.16.1.24.14.02.01.05.03.07.03.01 0 .02-.01.03-.01.03.01.05.04.08.05.02.01.04.02.07.04h.02c.02.02.07.05.09.06.03.01.05-.01.08 0 .02 0 .03.02.05.02.01 0 .02 0 .03-.01.02 0 .04-.02.06-.02l.14-.03c.05-.02.1-.03.15-.04.07-.02.14-.03.18-.08.07-.02.15-.05.19-.1.04-.05.07-.12.1-.18.06-.09.13-.16.19-.24.04-.05.05-.13.06-.21-.01 0-.01-.06-.02-.13zM63.32 32.55c-.07-.07-.13-.15-.19-.22-.21.48-.55.95-.88 1.37-.51.61-.97 1.23-1.4 1.89-.14-.26-.29-.53-.4-.8-.34-.75-.53-1.5-.99-2.25-.38-.65-.98-.9-1.37-1.53-.39-.58-.43-1.17-1.04-1.63-.5-.39-.82-.54-1.2-1.17-.12-.19-.22-.37-.38-.55-.2-.18-.44-.4-.64-.59-.62-.59-1.07-1.32-1.67-1.91-.5-.51-1.03-1.03-1.58-1.51-.68-.54-1.33-1.04-1.99-1.6-1.03-.8-2-1.18-3.07-1.66-1.27-.5-2.42-1.17-3.47-1.96-.23-.18-.45-.39-.75-.54-.3-.17-.64-.24-.94-.31-.72-.18-1.45-.37-2.19-.66-.7-.24-1.4-.51-2.09-.77-.61-.24-1.24-.41-1.87-.58-.63-.18-1.22-.36-1.68-.64-.45-.25-.84-.42-1.5-.58-.69-.17-1.49-.4-2.21-.41-.28-.01-.51.02-.75.05.02.1.04.2.06.31.03.22.04.46.04.69 0 .03 0 .07.01.1h-.1c0 .31-.04.63-.11.93-.06.23-.12.44-.19.66-.01.02-.02.03-.02.05.31.06.58-.07.95-.04.21.01.39.05.6.04.18-.02.45-.04.66-.07.61-.03.96.21 1.49.39.63.19 1.17.24 1.8.34.6.1 1.13.26 1.71.45l.64.2c.41.14.81.3 1.2.46.58.21 1.15.48 1.69.77.24.13.43.26.68.36.23.09.49.22.72.29.41.14.74.33 1.12.55.43.25.84.43 1.3.61.36.17.62.33.94.56 1.15.76 2.45 1.38 3.63 2.08.62.42 1.26.89 1.88 1.37.63.48 1.17 1.06 1.7 1.6.38.39.68.8 1 1.23.31.39.56.7.88 1.09.28.34.47.73.78 1.07.31.35.66.62.97.98.31.34.5.74.78 1.1.24.32.54.61.75.96.2.32.29.59.51.92.26.38.57.7.84 1.09.26.38.47.79.68 1.2.18.33.37.65.54.98l.42.86c.12.24.3.45.55.59.66.38 1.5.15 1.88-.5l.05-.09c.25-.44.5-.87.75-1.3.46-.87.81-1.77 1.24-2.62.13-.29.27-.56.42-.82-.47-.24-.88-.54-1.19-.88zm36.07-17.41c-.04-.1-.09-.19-.15-.29-.1-.17-.23-.34-.35-.51-.04-.06-.03-.12-.12-.18-.06-.04-.14-.07-.21-.1-.03-.01-.18-.1-.21-.1-.09 0-.19-.05-.27-.06-.07-.02-.15-.04-.23-.05-.09-.01-.2-.03-.28-.04-.07-.01-.15 0-.22-.01l-.29-.03c-.11 0-.22-.01-.33-.01-.15 0-.29 0-.44.02-.11.01-.24.04-.35.03-.01.01-.03.02-.06.02-.01.02-.1.03-.14.04-.31.06-.59.05-.9.03-.74-.08-1.61-.17-2.34.08-.22.08-.4.16-.66.21-.32.07-.67.09-1 .13-.63.11-1.26.25-1.88.4-.31.08-.61.17-.91.26-.3.11-.59.22-.91.3-.8.22-1.67.19-2.44.52-.28.11-.52.25-.78.38-.36.18-.73.32-1.13.45-.81.29-1.58.53-2.38.75-.29.09-.59.15-.87.31-.31.17-.57.38-.83.57-.43.32-.9.61-1.39.88-.47.31-.97.59-1.47.86-.87.45-1.64.86-2.47 1.32-.82.43-1.4 1-2.09 1.59-.34.28-.69.51-1.04.74-.34.24-.67.49-.99.79-.26.25-.46.5-.66.75.33.09.66.22 1.02.47.22.16.4.35.57.55.18-.13.37-.25.57-.37.69-.44 1.42-.85 2.15-1.35.85-.6 1.58-1.11 2.36-1.66.76-.59 1.59-1.07 2.42-1.58.84-.54 1.83-.93 2.73-1.24.47-.17 1.01-.26 1.49-.51.44-.22.66-.48 1.04-.72.64-.4 1.43-.35 2.12-.54.75-.22 1.45-.48 2.2-.52.2-.27.99-.3 1.39-.34.34-.02.51-.08.81-.17.22-.07.46-.1.7-.15.48-.07 1-.19 1.46-.28.21-.05.28-.15.46-.22.21-.08.55-.12.8-.12.14 0 .27-.03.41-.04.17-.02.33-.04.5-.05.3-.03.59 0 .89.02.67.04 1.31.04 1.99-.06.81-.11 1.63-.29 2.2-.53.22-.09.42-.2.51-.32.06-.09.04-.21 0-.32zM40.28 8.55a.898.898 0 0 1-.27-.07c-.4-.17-.6-.51-1.09-.5-.4.02-.62.1-1.02-.14-.12-.07-.23-.13-.38-.16-.18-.04-.36-.04-.53-.08-.52-.1-.99-.35-1.48-.52-.42-.13-.86-.24-1.3-.31-.52-.09-1.02-.19-1.54-.3-.79-.15-1.44-.01-2.16.08-.84.1-1.66.1-2.44-.25-.17-.07-.34-.18-.55-.2-.21-.02-.42.05-.61.09-.46.1-.92.19-1.41.19-.46 0-.92-.07-1.36-.08-.4-.02-.79-.03-1.18-.05-.39-.03-.76-.05-1.07-.22-.3-.17-.55-.26-.95-.3-.42-.04-.91-.12-1.34-.08-.35.04-.59.27-.94.27-.17 0-.33-.04-.49-.05h-.16c-.09 0-.17-.01-.26-.02-.38-.05-.78-.08-1.16-.07-.22 0-.44.02-.66.05-.43.06-.9.15-1.27.3-.09.02-.16.06-.21.1-.1.08-.17.18-.22.28-.08.16-.16.33-.21.5-.04.19-.01.38.02.56.02 0 .07.08.08.1.03.05.02.1.07.14.05.05.11.09.17.13.08.02.07.09.11.13.02.03.04.04.07.05.02.01.05.02.07.04.06 0 .13.05.18.07.07.02.14.06.22.06h.08c.04 0 .08.02.12.02.33.07.7.11 1.05.13.08 0 .17.01.25.03.05.01.1.03.14.04.03.01.07.01.11.02.04 0 .09.02.13.02.05 0 .09-.01.14-.02.1-.02.2-.02.29.01.05.01.12.04.18.06.09.03.2.03.29.02.16-.02.29-.08.41-.14.12-.06.26-.15.42-.14.17 0 .26.1.37.17.28.16.45-.08.75-.1.13-.01.25.01.38-.03.14-.05.26-.13.4-.18.38-.14.62.03.98.11.41.1.76-.01 1.16-.06.38-.06.74-.02 1.12 0 .14.01.28-.01.42-.01.28 0 .55.03.81.06.38.05.77.06 1.15.14.16.03.3.09.47.09.16 0 .33.03.48 0 .27-.06.5 0 .77.04.31.06.58.06.89.04.25-.02.44.01.67.06.84.18 1.75.09 2.6.11.93.03 1.95.23 2.84.51.32.11.6.28.9.41.26.12.55.21.81.33.25.12.48.26.76.32.28.07.56.06.85.14.27.08.51.22.79.29.22.06.45.08.66.16-.02-.83.16-1.7.63-2.39zm26.43 9.73a.497.497 0 0 0-.2-.27c-.08-.06-.17-.11-.26-.17-.16-.09-.33-.17-.49-.26-.06-.03-.1-.08-.17-.09-.05 0-.11 0-.16.01-.02 0-.15 0-.17.01-.04.04-.12.04-.17.06-.05.02-.1.03-.14.06-.05.03-.12.06-.16.08-.04.02-.07.06-.11.08-.05.04-.1.06-.16.1l-.16.13c-.07.06-.14.11-.2.18-.05.05-.09.12-.15.16 0 .01 0 .02-.02.03.01.01-.03.06-.04.08-.1.17-.25.27-.41.37-.39.24-.91.47-1.11.91-.06.13-.1.26-.2.39-.12.16-.28.31-.43.45-.28.28-.54.58-.77.89-.07.09-.12.18-.18.27-.13-.11-.27-.18-.4-.27-.2-.14-.39-.31-.56-.5-.37-.38-.66-.79-.95-1.21-.11-.15-.22-.31-.37-.44-.17-.14-.35-.23-.54-.32-.61-.29-1.16-.74-1.66-1.23-.42-.43-.79-.82-1.19-1.26-.39-.41-.82-.66-1.3-.96-.46-.29-.75-.72-1.19-1.01-.39-.26-.8-.27-1.2-.5-.49-.29-.88-.69-1.41-.95-.37-.18-.8-.21-1.11-.51-.19-.18-.37-.35-.57-.48-.04.09-.09.18-.15.25-.16.22-.3.43-.4.69-.08.19-.15.32-.25.45-.09.12-.13.25-.23.36l-.06.06c.04.03.09.05.13.09.2.16.39.33.62.45.21.1.46.22.68.33.38.22.76.44 1.16.6.35.15.71.22 1.06.36.3.12.46.34.65.58.32.42.66.81 1.08 1.18.86.85 1.91 1.42 2.81 2.22.47.41.96.83 1.28 1.35.17.27.35.56.61.77.24.19.49.21.74.34.43.23.53.75.8 1.11.28.37.63.63.85 1.03l.04.06c.31.49.97.64 1.46.33l.61-.39.06-.04c-.06-.26.4-.5.61-.65.18-.12.23-.22.33-.4.08-.12.19-.23.29-.33.21-.22.46-.44.62-.69.07-.12.04-.22.09-.34.06-.14.2-.29.33-.38.07-.05.12-.11.18-.18a3.65 3.65 0 0 1 .68-.53c.35-.23.66-.48.92-.82.31-.4.56-.85.68-1.26.04-.15.06-.31.03-.43zm11.28-6.59c-.28-.44-.43-.7-.51-1.26-.02-.08-.03-.17-.04-.27-.5.19-1.01.33-1.48.62-.44.26-.81.63-1.32.76-.4.12-.94.25-1.28.57-.09.08-.14.16-.24.24-.08.06-.16.12-.22.17-.25.18-.54.35-.81.49s-.54.25-.8.37c-.29.13-.58.28-.87.45.01-.06.01-.12.03-.18.13-.48.34-.9.55-1.33.08-.15.15-.32.19-.49.04-.2.01-.39 0-.58v-.34c0-.09.02-.18.02-.27v-.07c0-.01-.02-.01-.02-.03-.01-.03.01-.06.01-.09s-.01-.05 0-.07l-.01-.01c.01-.03.01-.08.01-.1 0-.03-.03-.04-.03-.07v-.05c0-.01-.01-.02-.02-.03-.01-.02-.03-.03-.05-.05a.902.902 0 0 0-.09-.1.524.524 0 0 1-.1-.11c-.05-.05-.09-.11-.15-.13-.05-.06-.11-.11-.18-.12-.07-.02-.14-.01-.2-.02-.1-.01-.2-.05-.3-.07-.08-.02-.16 0-.23.03-.09.03-.16.08-.24.15l-.07.06c-.08.08-.17.16-.25.24-.09.09-.18.26-.21.4-.01.06-.01.12-.03.18-.03.09-.06.17-.1.25-.04.08-.09.17-.14.27-.15.28-.31.56-.36.89-.04.3.06.52.07.79.02.47-.35.82-.51 1.23-.17.45-.19.9-.44 1.3.1.12.04.31-.05.49-.24.5-.05 1.1.44 1.36l.52.28c.11.06.26.14.35.19.19.1.3.09.5.1.14.01.28.05.42.09.28.07.59.18.88.18.14 0 .21-.07.33-.09.17-.03.35.04.51.09.27.07.54.14.82.21.15.04.29.03.43.07.17.04.31.08.49.11.09.01.18.03.27.06.31.1.64.19.93.14.33-.06.57-.25.73-.43.21-.23.32-.51.27-.81-.05-.29-.25-.61-.59-.84-.1-.07-.22-.14-.35-.18-.21-.08-.42-.13-.64-.17-.21-.03-.39-.07-.58-.17-.39-.19-.81-.49-1.26-.43l-.23.03c.1-.06.19-.13.29-.18.08-.04.16-.07.24-.12.08-.05.15-.11.24-.15.09-.05.17-.09.24-.15.14-.1.3-.18.42-.3s.23-.23.36-.35c.03-.03.06-.07.09-.1.03-.02.04-.02.07-.04.02-.01.03-.03.04-.05.06-.04.14-.07.2-.11.07-.04.11-.07.19-.1.21-.07.43-.19.64-.27.29-.11.59-.21.88-.36.26-.14.56-.3.83-.45.49-.26.98-.5 1.44-.78.07-.04.14-.1.21-.14-.03-.08-.09-.17-.15-.25zm25.92-5.24c-.23-.21-.69-.32-1.14-.4-.04-.01-.07-.01-.11-.01-.04-.01-.08-.04-.12-.05-.1-.04-.24-.06-.35-.09-.11-.02-.25-.04-.37-.04-.14 0-.29-.01-.43 0-.1.01-.17.04-.27.06-.13.03-.36-.01-.49-.02-.22-.02-.42-.07-.63-.11-.41-.07-.86-.13-1.26-.01-.17.05-.31.11-.51.14-.23.04-.5.02-.75.02-.48-.01-.98.03-1.46.08-.49.06-.95.16-1.45.2-.64.04-1.29-.13-1.92-.02-.24.04-.44.12-.65.18-.29.09-.6.14-.92.16-.66.08-1.28.07-1.92.06-.23 0-.47.01-.71.06-.27.06-.49.18-.72.28-.48.2-1 .35-1.52.48.05.14.1.27.14.41.07.24.11.49.14.75.03.22.04.46.04.69 0 .03 0 .07.01.1h-.1v.07h.01c.75-.19 1.56-.33 2.31-.31.39 0 .81.02 1.22-.07.37-.09.59-.27.91-.4.55-.22 1.15.01 1.7 0 .61-.02 1.18-.13 1.76-.02.19-.23.8-.09 1.12-.03.27.04.4.01.65-.04.18-.03.37-.03.55-.03.37-.01.81.02 1.18-.05.17-.03.24-.12.39-.17.2-.07.46-.05.68-.04h1.11c.16 0 .32-.04.48-.04.1 0 .2.02.3.01.34-.02.72-.05 1.05-.07.4-.01.8-.02 1.17-.11.41-.09.7-.26.88-.46.18-.19.3-.41.3-.63-.02-.17-.15-.35-.3-.53zM44.72 31.89c.43-.74 1.01-1.39 1.81-1.8.01-.01.03-.01.04-.02-.09-.07-.18-.14-.28-.19-.12-.06-.22-.02-.34-.06-.16-.05-.3-.19-.43-.3-.22-.18-.43-.37-.66-.53-.1-.07-.22-.11-.31-.19-.06-.05-.11-.1-.18-.15-.23-.15-.46-.27-.68-.42a3.19 3.19 0 0 0-.8-.41c-.31-.1-.58-.07-.8.02-.22.09-.41.23-.52.41-.11.16-.12.37-.13.58.03.27.24.54.46.79.03.02.03.03.06.05.02.03.03.06.05.09.04.07.1.15.16.21s.12.13.19.19c.08.06.16.13.25.18.07.04.12.04.19.06.09.04.2.16.27.22.11.11.2.23.29.35.19.22.39.48.69.56.12.04.24.05.37.12.1.06.2.15.3.24zm15.83 13.24c-.14-.28-.36-.48-.66-.54-.29-.06-.66.02-1 .25-.1.07-.21.16-.3.26-.15.16-.28.35-.39.54-.11.18-.21.34-.36.48-.32.29-.75.58-.85 1.03-.02.07-.03.14-.05.21-.02-.07-.03-.13-.06-.2-.05-.13-.07-.27-.14-.38-.07-.11-.14-.23-.21-.33-.02-.03-.05-.05-.06-.09l-.02-.06c-.01-.02-.02-.03-.03-.04-.02-.05-.03-.12-.05-.17-.02-.06-.04-.09-.05-.16-.02-.18-.07-.35-.09-.53-.03-.24-.04-.5-.14-.73L55.8 44c-.16-.4-.31-.8-.55-1.15-.2-.31-.44-.57-.65-.86-.17-.26-.21-.51-.25-.8-.07-.5-.16-1.01-.37-1.51-.43-1.06-1.13-1.96-1.78-2.88-.23.29-.44.55-.73.79-.26.2-.54.37-.84.51.04.06.09.12.12.18.25.46.42.91.6 1.4.16.47.45.8.71 1.21.24.41.26.87.47 1.28.2.35.51.54.68.91.21.46.28.93.51 1.39.16.32.44.59.46.96.01.3-.02.7.19.97.05.07.11.11.16.19.03.05.07.11.1.17.09.19.16.42.19.64.04.21.04.42.05.62 0 .02.01.04.01.06-.08-.05-.16-.08-.24-.14-.4-.29-.72-.64-1.04-.99-.12-.13-.24-.26-.39-.35-.17-.11-.36-.15-.54-.21-.12-.04-.2-.08-.32-.12-.08-.03-.16-.08-.24-.11a.185.185 0 0 0-.07-.02c-.01 0-.02.01-.03.01-.03 0-.06-.03-.08-.04-.02-.01-.04-.01-.07-.03l-.01.01-.09-.05c-.03-.01-.05.01-.07.01-.02 0-.03-.02-.05-.02-.01 0-.02.01-.03.01l-.06.03c-.05.02-.09.03-.13.05-.04.02-.09.04-.14.06-.06.03-.13.05-.17.1-.07.03-.14.06-.18.12-.04.06-.06.12-.09.18-.05.09-.12.17-.17.25-.04.06-.04.13-.04.21 0 .09.02.18.05.27l.04.08.13.32c.05.11.18.26.3.34.05.04.1.05.16.09.07.06.14.12.2.18.06.07.13.15.2.22.21.23.41.49.7.65.26.14.5.13.76.22.44.15.64.62.97.91.35.32.77.5 1.06.88.15-.05.31.07.44.22.38.4 1.01.44 1.43.07l.45-.39c.1-.08.23-.19.3-.26.16-.14.19-.24.27-.43.06-.13.15-.25.24-.36.17-.24.38-.49.49-.76.05-.13.01-.22.04-.34.04-.16.16-.31.27-.45l.49-.69c.09-.13.13-.26.22-.38.1-.14.19-.26.27-.42.04-.08.09-.16.15-.23.21-.25.41-.53.46-.82.03-.33-.06-.61-.17-.83zm-40.21-5.5c-.05-.47-.03-.97.07-1.46-.16.03-.31.05-.46.08-.21.03-.39.06-.6.09-.15.03-.32.02-.48.05-.03.01-.1.01-.12.02-.02.01-.02.02-.04.03-.04.01-.12.01-.17.01-.05.01-.08.02-.13.02l-.01.01c-.05 0-.15.01-.19.01-.06.01-.06.04-.1.05-.03.01-.07.01-.09.02-.02.01-.03.02-.04.03-.03.02-.03.04-.06.06-.05.04-.11.07-.14.12-.04.05-.1.08-.15.13-.06.06-.14.12-.16.18-.07.07-.14.13-.14.2s.05.13.06.2c.02.1 0 .2.02.31.01.07.07.13.15.2.1.08.21.14.36.19l.14.05.53.19c.2.06.53.11.8.11.11 0 .22-.01.33-.01.17 0 .33.02.49.03l.24.03c-.03-.33-.08-.64-.11-.95zm74.83-1.57c.09.01.18.01.27.01-.09.24-.17.47-.2.67-.11.55-.05.84.06 1.35.03.15.07.29.13.47-.04 0-.08 0-.13.01-.76.12-1.54.22-2.27.44-.47.09-.97.27-1.34.48-.28.17-.39.27-.69.46-.33.19-.69.37-1.06.56-.35.21-.71.43-1.04.63-.33.21-.64.46-.93.7-.41.33-.56.57-1.01.9-.28.19-.64.51-.96.83-.34.31-.59.65-.62.89-.89.86-1.37 2-1.96 3.13-.46 1.07-1.11 2.15-1.14 3.4-.06.72.08 1.24.08 2.04.01.91-.06 1.9-.14 2.78l-.06.86c-.01.26-.03.53-.03.8l.01.53c0 .44-.05.99-.11 1.31-.07.29-.13.58-.19.87l-.05.23c-.05.24-.11.43-.19.59-.07.13-.13.24-.2.25-.11.03-.21-.01-.31.03-.07.02-.13.1-.2.1s-.13-.11-.2-.23c-.06-.02-.12-.14-.18-.25-.05-.08-.08-.18-.13-.24s-.08-.15-.12-.23c-.02-.05-.04-.06-.06-.1-.01-.02-.02-.03-.03-.06l-.02-.15c-.01-.08-.04-.08-.05-.17 0-.08-.01-.23-.01-.31l-.01-.03c0-.08-.01-.14-.02-.21 0-.08 0-.2-.01-.27l-.03-.06c-.01-.04-.01-.14-.02-.2-.02-.28-.03-.49-.05-.77l-.09-.98c-.05-.53-.13-1.06-.14-1.66-.01-.54.02-1.05.06-1.55.03-.66.14-1.43.21-2.15.12-.73.24-1.47.42-2.22.18-.72.34-1.43.55-2.1.13-.5.25-.98.49-1.47.58-1.4 1.6-2.53 2.54-3.67.78-.89 1.46-1.72 2.35-2.47.88-.73 1.85-1.4 2.89-1.9.55-.27 1.12-.53 1.67-.74.44-.18.74-.39 1.12-.53.63-.24 1.34-.47 2.07-.51.36-.04.73-.07 1.08-.09zm-18.6-8.8c.03.07.04.14.08.21.17.26.4.35.61.51.35.27.44.75.76 1.07-.32.28-.65.55-1.01.78-.39.24-.79.41-1.19.59-.24.1-.44.19-.59.42-.17.27-.28.55-.46.81-.21.28-.44.56-.66.85l-.38.49c-.14.16-.32.28-.48.41-.46.34-.65.81-.87 1.3-.21.45-.34.95-.66 1.34-.26.33-.49.68-.74 1.01-.11.15-.19.33-.29.49-.12.2-.28.38-.39.59-.12.2-.13.45-.22.67-.08.19-.21.28-.33.43-.12.17-.16.38-.24.57-.1.21-.26.38-.36.59-.11.22-.09.46-.17.69-.08.23-.24.39-.37.58-.14.19-.24.41-.38.61-.15.23-.34.43-.47.68-.33.69-.56 1.52-.69 2.27-.09.7.02 1.47-.25 2.13-.07.19-.11.34-.12.54 0 .26 0 .48-.07.73-.05.22-.1.4-.07.63.02.12-.03.26-.04.39-.01.14-.07.25-.12.38-.11.3-.16.62-.2.93-.03.21-.07.43-.08.65l-.01.34c-.03.31-.08.59-.04.9.04.32.14.6.05.95-.08.29-.26.5-.12.81.06.12.14.22.18.34.04.11.02.21.03.32.02.24.26.38.1.62-.07.09-.17.17-.17.31-.01.14.08.25.14.35.05.1.12.21.14.34.01.09.01.18-.02.25l-.07.15a.391.391 0 0 0-.01.24.36.36 0 0 1 .02.11c0 .04-.02.08-.02.11-.01.01-.01.02-.01.03-.28 0-.57.01-.85 0-.65-.01-1.27-.04-1.88-.07.01-.26.02-.53.06-.79.01-.07.02-.14.02-.21v-.14c.01-.14.05-.27.08-.4-.01-.3-.23-.49-.27-.79-.04-.36.04-.77.08-1.12.04-.34.13-.54.3-.79.17-.25.21-.57.24-.91.03-.34.06-.66.09-1.01.05-.38.11-.76.12-1.14.04-.41 0-.8-.07-1.19-.02-.16-.07-.35-.04-.52.03-.17.13-.3.21-.44.33-.63.47-1.3.41-2.02-.04-.62-.19-1.2.05-1.84.15-.42.28-.83.4-1.26.1-.36.24-.72.39-1.06.21-.39.49-.74.64-1.16.05-.15.07-.3.12-.44.04-.12.12-.2.19-.29.25-.3.16-.52.19-.86.03-.41.38-.52.59-.82.22-.31.08-.7.26-1.05.2-.41.62-.6.92-.92.31-.33.47-.75.7-1.14.37-.67.99-1.07 1.52-1.57.21-.19.43-.4.51-.68.06-.21.04-.41.08-.6.09-.43.4-.59.75-.81.31-.19.4-.55.59-.84.27-.43.71-.63 1.04-.98.27-.28.33-.65.6-.93.3-.34.73-.47 1.07-.77.34-.32.61-.66 1.03-.89zm-53.09.67c.54-.06 1.13-.06 1.73-.02.29.01.59.04.87.02.39-.02.6-.04 1.01.03.49.09 1.39.43 1.73.26.88.24 1.76.39 2.66.68.84.23 1.55.83 2.43 1 .52.09.92.11 1.47.34.6.26 1.16.59 1.64.96.46.35.95.7 1.45 1.03.51.32.97.73 1.46 1.07.96.65 1.78 1.45 2.66 2.2.78.85 1.62 1.66 2.22 2.65.28.45.58.87.79 1.32.21.46.39.91.57 1.35.22.51.37.97.68 1.49.34.6.8 1.1 1.08 1.77.32.75.7 1.51.9 2.33.13.46.27.94.4 1.39.15.48.14.98.18 1.45.02.35.07.71.09 1.05.01.13.03.2.05.33.03.11.02.24.03.35.002.03.009.061.02.09l.01.12c.01.08.04.14.05.2.06.25.11.48.16.73.06.25.06.53.09.79.02.15.03.29.03.44v.41c.01.14-.01.26-.02.39-.02.46.03.95-.04 1.38-.03.23-.1.4-.14.63-.02.13-.08.35-.08.5-.01.04-.06.15-.08.25-.01.05-.02.09-.01.12-.05.22-.12.42-.19.61-.29.02-.59.04-.91.04h-.22c-.16-.22-.31-.44-.46-.66-.03-.14-.06-.28-.08-.43-.02-.18-.02-.38-.02-.57-.01-.28-.02-.56-.01-.84.01-.54.05-1.08.1-1.6.05-.41.05-.78.05-1.2-.01-.41-.03-.87-.08-1.28-.01-.13-.04-.24-.08-.36-.05-.16-.11-.27-.16-.42-.21-.58-.15-1.31-.2-1.88-.07-.7-.4-1.31-.61-1.96-.2-.45-.35-.9-.49-1.35-.14-.45-.27-.91-.5-1.33-.37-.69-.76-1.15-1.19-1.79-.47-.74-.7-1.56-1.3-2.25-.3-.35-.58-.7-.86-1.04-.31-.32-.6-.64-.89-1.02-.56-.82-1.21-1.45-1.93-2.17-.92-.75-1.88-1.5-2.94-1.87-.31-.12-.62-.22-.94-.4-.29-.14-.56-.3-.82-.47l-1.08-.67c-.38-.2-.78-.36-1.2-.52-.4-.14-.8-.3-1.21-.34-.3-.04-.58-.05-.89-.11-.43-.08-.83-.24-1.24-.36-.42-.11-.84-.22-1.27-.26a5.66 5.66 0 0 0-.99-.08c-.33.02-.65.05-.98.05h-2.01c-.36 0-.74-.01-1.09.02-.28.03-.49.09-.73.14-.56.12-1.22.06-1.8-.01-.29-.04-.59-.09-.9-.11-.19-.01-.52-.05-.71-.02-.13.02-.23.05-.38.06-.2.01-.41 0-.61 0-.18 0-.38-.02-.54-.04-.16-.03-.36-.05-.5-.09-.06-.02-.1-.04-.17-.05l-.16-.01c-.65-.08-1.3-.19-1.64-.4-.22-.18-.39-.36-.39-.55 0-.22.17-.44.43-.63.26-.2.67-.37 1.26-.46.53-.09 1.11-.1 1.68-.11.5-.02 1.02-.05 1.51-.07.15-.01.28.01.43.01.23 0 .45-.04.68-.04h1.6c.32.01.69.03.98-.04.22-.05.31-.14.56-.17zm33.48 22.91c.22.03.46.09.61.22.13.11.13.26.12.4-.01.04 0 .08.01.12.03.09.02.19.05.29.03.1.02.2.03.3.02.22.04.44.08.65.03.22.08.44.1.65.03.21.04.42.04.63 0 .21-.01.42-.06.63l-.02.08c-.04.15-.08.31-.09.46-.01.12-.01.24.01.37.01.12-.01.25-.02.37 0 .06.01.12-.04.17-.06.06-.14.11-.21.16l-.01.02-.05.04c-.04.02-.09.04-.13.05-.06.02-.13.03-.2.04h-.31l-.2.01c-.07 0-.14-.02-.2-.03-.06 0-.12-.02-.18-.04-.04-.01-.08-.02-.13-.03l-.12-.03-.06-.01c-.01 0-.02 0-.03-.01l-.02-.02-.05-.02c-.01-.01-.01-.03-.01-.04h-.01c0-.01-.01-.02-.02-.03l-.01-.04c-.01 0-.02 0-.03-.01-.01-.01-.02-.02-.02-.03-.03-.04-.02-.07-.05-.11a.71.71 0 0 0-.1-.14c-.04-.04-.04-.1-.05-.14-.02-.11-.01-.23 0-.35.02-.23.08-.45.09-.68.02-.32-.06-.63-.05-.95 0-.18.02-.37 0-.54-.03-.25-.1-.5-.15-.75-.06-.29-.1-.58-.07-.87.01-.07.03-.14.05-.21.04-.11.08-.24.2-.34.11-.09.3-.16.46-.2.28-.07.57-.08.85-.04zm16.72-5.36c.28.03.56.15.8.3.19.12.39.28.48.46.08.16.03.31-.04.45-.02.04-.03.08-.03.12 0 .11-.05.2-.05.31-.01.11-.05.21-.07.31-.05.22-.09.44-.11.67-.02.22-.04.44-.05.66-.01.22-.03.44-.05.65-.03.22-.06.44-.12.65l-.02.08c-.05.16-.1.32-.12.49-.02.13-.01.27-.01.4.01.14-.02.27-.02.41 0 .06.01.13-.05.18-.06.07-.14.12-.21.18l-.06.02-.05.04-.13.06c-.06.02-.13.04-.2.04h-.31l-.2.02c-.07 0-.14-.02-.2-.04-.06 0-.12-.02-.18-.04-.04-.01-.08-.03-.13-.04a.564.564 0 0 1-.12-.04l-.09-.03c-.01-.01-.01-.02-.01-.02-.01-.01-.04-.01-.05-.03-.01-.01-.01-.04-.01-.05h-.01c0-.01-.01-.02-.02-.03-.01-.01 0-.03-.01-.05-.01-.01-.02-.01-.03-.01-.01-.01-.02-.02-.02-.03-.03-.04-.02-.09-.05-.13-.03-.06-.05-.11-.09-.17-.04-.05-.03-.11-.04-.17-.01-.14 0-.27.01-.41.03-.27.1-.54.13-.81.04-.38.01-.77.08-1.16.04-.22.09-.44.12-.66.03-.27.07-.64.1-.96.05-.36.12-.73.27-1.05.04-.08.08-.15.13-.22.08-.12.18-.25.33-.31.14-.06.34-.06.51-.04zm-33 2.73l.02.01.05.01c.01.01.03.03.03.04h.01l.03.02c.01.01 0 .02.02.03h.03c.01 0 .02.01.03.02.04.03.05.07.08.09.04.03.08.07.13.1s.06.08.08.12c.05.1.07.21.09.32.03.22.02.44.06.65.05.29.18.57.22.87.03.17.04.34.08.51.03.16.08.31.12.46-.58-.02-1.17 0-1.8.11-.18.03-.34.07-.51.1-.01-.01-.01-.02-.01-.03-.05-.17-.1-.34-.15-.5-.05-.16-.1-.33-.13-.5-.04-.17-.06-.34-.05-.52v-.07c.01-.13.02-.26 0-.39-.01-.1-.04-.2-.08-.29-.04-.1-.04-.2-.07-.32-.01-.04-.04-.09 0-.14.04-.06.1-.13.16-.19l.03-.03c.01-.02.02-.03.04-.05.03-.03.07-.05.11-.08.06-.03.12-.07.18-.09l.29-.1.19-.07c.07-.03.13-.03.2-.04.06-.01.12-.02.18-.02.04 0 .08-.01.13-.01.04-.01.08-.01.12-.01l.06-.01h.03zM29.32 38.97l.12.04c.34.12.68.2 1.02.27.33.1.66.19 1 .3.66.25 1.32.54 1.93.91.33.17.64.42.96.58.27.13.47.21.7.32.78.35 1.39 1.14 1.9 1.78.27.3.5.58.79.87.04.05.08.1.12.14-.02-.37.13-.75.23-1.09.06-.2.06-.39.06-.6 0-.22.01-.44.05-.66.03-.14.07-.26.12-.38.17-.38.44-.64.72-.74.28-.11.58-.04.84.12.21.13.44.33.56.64.1.28.08.62.03.94-.01.1-.01.19-.01.28 0 .18-.01.33-.02.5-.01.15.02.29.01.44l-.06.84c-.01.17-.05.36.01.52.04.12.13.18.15.31.04.28 0 .61-.02.9-.01.14-.03.29-.05.47.03.2.05.31-.01.51-.03.1-.08.26-.12.38l-.18.57c-.17.53-.73.82-1.26.68-.19-.06-.39-.08-.49.04-.44-.18-.89-.11-1.36-.2-.43-.08-.84-.38-1.3-.28-.27.06-.47.2-.77.21-.33.02-.64-.1-.94-.19-.1-.03-.2-.06-.29-.09-.09-.02-.18-.04-.27-.05-.06-.01-.12 0-.18 0a.994.994 0 0 1-.44-.14l-.28-.21-.07-.05a.928.928 0 0 1-.19-.21.372.372 0 0 1-.07-.2c0-.11.02-.21.01-.31l-.02-.2c0-.07.05-.14.09-.2.01-.06.06-.11.1-.17.03-.04.07-.08.09-.12l.09-.11.04-.06c0-.01.01-.02.02-.03.01-.01.03 0 .05-.01l.06-.04c.03-.01.08-.01.11-.01l.01-.01.07-.01.09-.01.02-.03c.02-.01.05-.02.07-.02l.27-.03c.13-.02.22-.04.34-.06.18-.04.37-.1.57-.1.18.01.35.05.52.1.46.13.92.26 1.41.3.1.01.19-.01.29-.01l-.426-.569c-.067-.079-.14-.148-.214-.221-.21-.2-.37-.41-.58-.61-.18-.18-.37-.3-.55-.48-.36-.3-.71-.64-1.09-.91-.23-.17-.47-.39-.73-.47-.19-.07-.31-.03-.51-.13-.43-.19-.88-.49-1.32-.69-.22-.1-.44-.23-.66-.29-.31-.08-.48-.11-.78-.28-.27-.14-.73-.4-1.07-.46.08-.14.16-.28.26-.41.1-.13.16-.29.24-.45.06-.14 0-.33.04-.48.02-.03.15-.53.15-.53h.01l-.01-.35zm64.8-8.89c.31-.15.69-.15 1.03-.09.17.03.34.07.52.09.11.01.29.04.4.01.08-.02.13-.06.22-.07.11-.02.24-.02.35-.02.1-.005.202.005.3.03.09.03.2.05.27.09.03.02.05.04.09.05.04 0 .05 0 .09.01.35.08.71.19.89.4.12.18.22.36.16.56 0 .22-.09.44-.23.63-.14.2-.36.37-.68.46-.28.08-.61.08-.9.11-.27.02-.52.07-.78.1-.07 0-.14-.01-.22-.01-.12 0-.23.04-.35.05l-.82.08c-.17.02-.36.02-.5.1-.11.06-.15.16-.27.2-.26.09-.57.15-.85.19-.14.03-.28.05-.41.1-.17.07-.26.12-.47.11-.25-.01-.73-.06-.82.19-.46-.02-.86.16-1.3.27-.41.09-.91-.03-1.27.25-.21.17-.32.39-.57.53-.27.16-.6.18-.89.25-.55.14-1.13.37-1.63.69-.98.59-1.83 1.33-2.79 1.93-.44.29-.92.47-1.36.69-.26.12-.5.23-.68.49-.21.29-.34.61-.54.92-.21.35-.5.65-.75.99-.13.19-.28.4-.41.58-.15.2-.35.35-.52.51-.12.12-.22.27-.35.39a.45.45 0 0 0-.1.14l-.1.14-.01.05-.03.05c-.02.03-.02.07-.03.1l-.11.37c-.03.11-.1.22-.15.33.36-.25.85-.22 1.27-.25.21-.02.38-.07.58-.15.21-.08.42-.14.64-.18.14-.02.27-.03.4-.02.42.03.75.19.94.42.2.23.24.53.18.83-.05.24-.16.52-.41.74-.23.2-.56.29-.88.36-.09.02-.17.05-.26.09l-.155.061c-.102.037-.202.066-.315.099-.15.04-.27.12-.41.16l-.81.23c-.17.05-.36.08-.49.19-.1.08-.12.18-.24.25-.25.14-.57.21-.85.29-.14.04-.28.07-.41.14-.18.1-.27.16-.48.17-.1.01-.27.01-.4.02l-.6.02c-.55.02-1.02-.4-1.07-.95-.02-.2-.06-.4-.21-.45.01-.48-.2-.88-.28-1.35-.08-.43.06-.93-.19-1.32-.14-.24-.34-.37-.46-.65-.12-.31-.13-.64-.14-.95-.01-.1-.01-.21-.02-.3s-.02-.18-.04-.27c-.01-.06-.04-.11-.06-.17a1.04 1.04 0 0 1-.02-.46c.03-.1.07-.22.1-.33l.03-.09c.03-.1.07-.18.13-.25.04-.06.1-.12.16-.14.09-.03.2-.05.29-.09.06-.03.12-.07.18-.09a.416.416 0 0 1 .22.02c.07-.01.13.01.2.03l.15.04c.04 0 .08.02.13.04.03.01.05.01.07.02.01 0 .02 0 .03.01.02.01.02.03.03.04.02.02.04.01.06.04.01.02.03.07.04.1l.02.01.04.06c.02.03.02.07.04.09l.03.01a.311.311 0 0 1 .04.06c.05.07.07.17.12.24.064.098.124.198.18.3.1.16.22.31.29.5.06.17.08.35.09.52.03.47.07.94.2 1.42.03.11.08.21.12.31.07-.09.14-.19.21-.27.15-.18.3-.35.44-.55.14-.19.3-.41.41-.62.04-.06.06-.13.09-.2.04-.1.04-.18.07-.27.1-.37.48-.62.75-.82.34-.25.45-.66.68-1 .34-.46.81-.77 1.18-1.19.32-.33.42-.72.75-1.05.37-.39.88-.54 1.27-.9.4-.38.75-.74 1.26-.99.52-.27 1.02-.47 1.55-.74.6-.34 1.21-.68 1.71-1.13.15-.14.29-.29.48-.4.17-.09.36-.13.54-.17.5-.1.98-.23 1.48-.39.24-.08.47-.18.68-.31.15-.09.29-.2.46-.28.47-.22 1.02-.14 1.51-.27.39-.1.72-.3 1.1-.4.37-.11.75-.21 1.14-.28.2-.03.42-.03.61-.09.16-.05.27-.12.4-.19zm-57.83-9.89c.25.01.55.06.81.27.23.18.39.49.51.79.03.08.08.16.13.24.1.15.16.28.24.44.06.14.16.24.23.37.13.26.25.51.38.76.07.15.14.33.27.44.1.08.2.09.29.19.18.23.31.53.44.79.06.13.12.27.21.38.12.16.2.23.25.44.02.1.06.27.09.39l.13.58c.13.54-.2 1.08-.77 1.23-.19.05-.37.14-.4.29-.46.08-.82.37-1.27.53-.41.15-.92.11-1.26.43-.2.19-.3.42-.55.58-.28.19-.61.25-.91.32-.1.02-.2.05-.29.07-.09.02-.18.05-.26.09-.06.02-.11.06-.16.09-.13.06-.32.11-.44.1l-.35-.03-.09-.01a.773.773 0 0 1-.27-.08c-.06-.04-.13-.08-.16-.14l-.15-.27c-.04-.05-.09-.1-.12-.16a.407.407 0 0 1-.02-.22.45.45 0 0 1 0-.2l.01-.15c0-.05.01-.09.02-.14v-.07l.01-.03c.01-.02.03-.03.04-.04l.03-.07a.47.47 0 0 1 .09-.06v-.02c.03-.02.04-.03.06-.05.03-.02.06-.03.08-.05l.01-.03c.01-.02.04-.04.05-.05.06-.06.15-.1.21-.16.1-.09.17-.15.26-.23.14-.13.27-.28.44-.38.16-.09.33-.14.5-.18.46-.12.91-.24 1.36-.46.13-.05.23-.14.34-.21-.13-.09-.25-.18-.39-.25-.16-.07-.34-.14-.51-.17-.05-.01-.11-.01-.16-.01-.07 0-.13.02-.2.03-.28.03-.52-.2-.72-.35-.24-.19-.56-.11-.85-.15-.41-.04-.74-.28-1.14-.36-.32-.06-.61.09-.93.04-.36-.07-.66-.32-1.04-.36-.39-.05-.74-.01-1.12-.16-.39-.14-.75-.31-1.17-.38-.49-.09-1-.12-1.47.04-.14.04-.28.11-.43.12-.13 0-.26-.04-.39-.08l-.21-.063a3.894 3.894 0 0 0-.87-.157c-.19-.01-.37.01-.55.07-.12.04-.24.1-.38.12-.38.05-.75-.13-1.12-.14-.3-.01-.56.11-.85.15-.28.04-.57.06-.86.06-.15 0-.3-.01-.45.02-.12.03-.2.09-.3.14-.24.12-.51.06-.75-.01-.12-.04-.24-.09-.37-.11-.08-.01-.21-.05-.29 0-.06.02-.1.05-.16.06-.08.01-.17 0-.25 0a.85.85 0 0 1-.22-.04c-.07-.03-.15-.05-.21-.09-.02-.02-.04-.04-.07-.05-.03 0-.04 0-.07-.01-.27-.08-.54-.19-.68-.4-.09-.18-.16-.36-.16-.55 0-.22.07-.44.18-.63a.95.95 0 0 1 .52-.46c.22-.09.46-.1.7-.11.21-.01.41-.05.62-.07.06-.01.12.01.18.01.09 0 .18-.04.28-.04.22-.01.44 0 .66 0 .14.01.29.03.41-.04.09-.05.13-.14.23-.17.23-.06.48-.04.71-.04.11 0 .23.01.34-.02.16-.05.24-.08.4-.03.2.06.56.23.69 0 .36.14.71.04 1.08.1.34.05.67.31 1.04.19.21-.08.36-.23.61-.26.27-.03.53.08.77.16.46.15.97.22 1.46.25.94.06 1.9.05 2.81.34.42.14.79.34 1.13.58.2.14.37.26.63.26.3 0 .59-.06.89-.04.34.02.67.09 1.01.18.18.04.41.09.58.13.2.06.37.18.54.28.13.07.27.12.39.2.05.03.08.03.13.05.04.01.08.04.13.05.01.01.03 0 .04 0 .03.01.03.01.05.02l.09-.01c.08-.01.15-.01.23-.01a.55.55 0 0 1-.09-.07c-.35-.3-.4-.81-.51-1.23-.05-.21-.14-.37-.25-.55-.12-.18-.22-.38-.3-.59a1.62 1.62 0 0 1-.09-.38c-.05-.41.05-.77.24-1 .2-.24.48-.34.79-.33zm58.87-1.89a.364.364 0 0 1 .21.05c.08.05.16.12.25.17.06.03.13.05.18.09.06.04.09.11.12.18a.311.311 0 0 1 .034.056l.056.124c.02.05.04.1.06.14.03.04.03.08.05.13l.03.06.01.03-.02.05c0 .02.02.04.01.07l-.05.09.01.01c-.02.03-.02.05-.03.07-.02.03-.05.05-.05.08l.01.03c0 .02-.01.05-.02.07l-.12.24c-.05.12-.08.2-.13.32-.06.18-.11.37-.22.54-.1.15-.23.28-.36.39-.35.32-.7.63-1 1.03l-.04.07c.26.03.52.05.79.04.2-.01.4-.04.59-.1.14-.04.27-.11.42-.13.41-.06.83.12 1.22.13.32.01.6-.11.91-.15.3-.04.6-.06.91-.06.16 0 .33.01.48-.02.12-.03.21-.09.32-.14.35-.17.76.01 1.11.1.17.05.32.04.5.02s.37-.03.55 0c.11.02.22.05.32.09.33.15.56.4.66.67.1.28.07.57-.05.85-.09.22-.25.46-.5.6-.22.13-.51.12-.78.1-.08-.01-.15 0-.23.01-.15.02-.28.02-.42.02-.12 0-.23.04-.36.04-.24.01-.48 0-.71 0-.14-.01-.3-.03-.43.04-.1.05-.14.14-.25.17-.23.06-.51.04-.75.04-.12 0-.24-.01-.36.02-.16.05-.25.08-.42.03-.21-.06-.6-.24-.73-.02-.36-.14-.72-.04-1.1-.08-.35-.04-.72-.29-1.07-.13-.05.02-.09.05-.13.08l.29.08c.44.12.72.55 1.01.87.15.16.3.26.48.37.19.11.37.24.53.39.1.09.19.19.26.3.23.34.3.71.24 1-.06.3-.27.51-.55.65-.22.11-.51.2-.84.13-.3-.05-.57-.26-.82-.47-.07-.07-.15-.11-.23-.16-.15-.09-.27-.18-.41-.28-.13-.09-.26-.13-.38-.22l-.68-.5c-.14-.1-.29-.23-.45-.27-.12-.03-.22.01-.34-.04-.26-.12-.52-.33-.75-.5-.12-.09-.23-.18-.36-.24-.18-.08-.28-.12-.42-.28-.06-.07-.17-.2-.25-.3l-.38-.46a1.04 1.04 0 0 1 .09-1.43c.15-.14.28-.29.23-.44.38-.28.57-.7.89-1.05.3-.32.77-.52.93-.96.1-.26.08-.5.23-.76.16-.28.42-.49.66-.69l.23-.2c.07-.06.13-.13.19-.2l.1-.15c.09-.12.24-.24.35-.29l.32-.13.08-.03c.09-.03.18-.05.27-.05z" fill="#36A635"></path></g></svg>