<svg xmlns="http://www.w3.org/2000/svg" width="28" height="28" viewBox="0 0 28 28"><defs><style>.a{fill:#fdb400;}.b{fill:#fff;fill-rule:evenodd;}</style></defs><g transform="translate(-324 -514)"><circle class="a" cx="14" cy="14" r="14" transform="translate(324 514)"/><path class="b" d="M14.575,3a1.4,1.4,0,0,1,1.4,1.4v9.78a1.4,1.4,0,0,1-1.4,1.4h-1.4a1.4,1.4,0,0,1-1.4-1.4V4.4a1.4,1.4,0,0,1,1.4-1.4Zm0,1.4h-1.4v9.78h1.4ZM4.794,3a1.4,1.4,0,0,1,1.4,1.4v6.986a1.4,1.4,0,0,1-1.4,1.4H3.4a1.4,1.4,0,0,1-1.4-1.4V4.4A1.4,1.4,0,0,1,3.4,3Zm0,1.4H3.4v6.986h1.4ZM9.684,3a1.4,1.4,0,0,1,1.4,1.4V8.589a1.4,1.4,0,0,1-1.4,1.4h-1.4a1.4,1.4,0,0,1-1.4-1.4V4.4A1.4,1.4,0,0,1,8.287,3Zm0,1.4h-1.4V8.589h1.4Z" transform="translate(329 519)"/></g></svg>