<svg xmlns="http://www.w3.org/2000/svg" width="28" height="28" viewBox="0 0 28 28"><defs><style>.a{fill:#322377;}.b{fill:#fff;}</style></defs><g transform="translate(-419 -507)"><circle class="a" cx="14" cy="14" r="14" transform="translate(419 507)"/><g transform="translate(425 430.667)"><g transform="translate(0 85.333)"><path class="b" d="M16.3,86.08a.34.34,0,0,0-.313-.041l-2.793,1.016a1.36,1.36,0,0,0-.776.714,1.376,1.376,0,0,0-.067.193,12.66,12.66,0,0,1-2.256-.877,2.722,2.722,0,0,0-3.218.319c-.445.007-1.068.061-1.679.115-.384.034-.747.065-1.041.083a1.371,1.371,0,0,0-.9-1.232L.46,85.353a.342.342,0,0,0-.46.322v6.851a.342.342,0,0,0,.343.343h1a1.378,1.378,0,0,0,1.077-.525l.467.352c.4.3.837.629,1.029.79,1.276,1.068,2.809,2.221,3.115,2.422a2.514,2.514,0,0,0,1.19.387,1.258,1.258,0,0,0,.808-.229,1.1,1.1,0,0,0,.858-.019,1.284,1.284,0,0,0,.635-.636,1.334,1.334,0,0,0,.854-.125,1.168,1.168,0,0,0,.557-.56,1.076,1.076,0,0,0,.748-.239,1.11,1.11,0,0,0,.449-1.016L14,92.99a1.372,1.372,0,0,0,1.1.564h1a.342.342,0,0,0,.343-.343V86.36A.343.343,0,0,0,16.3,86.08Zm-4.031,7.863c-.116.089-.279.139-.351.066,0,0-.009,0-.013-.007s-.01-.014-.017-.02c-.245-.193-1.342-1.316-2.02-2.023a.342.342,0,1,0-.494.474c.159.166,1.437,1.5,1.948,1.962a.473.473,0,0,1-.248.279.528.528,0,0,1-.534.012s-.006,0-.009,0-.006-.009-.01-.012c-.411-.328-1.442-1.423-1.675-1.677a.343.343,0,0,0-.5.464c.011.012,1.021,1.1,1.589,1.608a.6.6,0,0,1-.315.357.447.447,0,0,1-.468-.07c-.492-.417-1.479-1.468-1.673-1.676a.342.342,0,1,0-.5.468c.23.246.911.968,1.428,1.456a1.481,1.481,0,0,1-.176.011,1.883,1.883,0,0,1-.814-.274c-.24-.158-1.748-1.283-3.051-2.374-.2-.165-.647-.5-1.058-.813-.221-.166-.424-.318-.573-.433l1.283-3.421c.333-.015.777-.053,1.247-.094.266-.023.532-.046.786-.066a2.58,2.58,0,0,0-.895,1.793.987.987,0,0,0,.485.738,1.094,1.094,0,0,0,.588.151,2.055,2.055,0,0,0,1.507-.709,2.38,2.38,0,0,0,.777-.247c.4.377.94.821,1.505,1.287A13.728,13.728,0,0,1,12.4,93.394.413.413,0,0,1,12.267,93.943Z" transform="translate(0 -85.333)"/></g></g></g></svg>