<svg width="10" height="16" viewBox="0 0 10 16" fill="none" xmlns="http://www.w3.org/2000/svg">
<path d="M7.72414 16H1.65517C1.21619 16 0.795194 15.8256 0.484789 15.5152C0.174384 15.2048 0 14.7838 0 14.3448V1.65517C0 1.21619 0.174384 0.795194 0.484789 0.484789C0.795194 0.174384 1.21619 0 1.65517 0H7.72414C8.16312 0 8.58412 0.174384 8.89452 0.484789C9.20493 0.795194 9.37931 1.21619 9.37931 1.65517V14.3448C9.37931 14.7838 9.20493 15.2048 8.89452 15.5152C8.58412 15.8256 8.16312 16 7.72414 16ZM1.65517 0.551724C1.36252 0.551724 1.08185 0.66798 0.874917 0.874917C0.66798 1.08185 0.551724 1.36252 0.551724 1.65517V14.3448C0.551724 14.6375 0.66798 14.9181 0.874917 15.1251C1.08185 15.332 1.36252 15.4483 1.65517 15.4483H7.72414C8.01679 15.4483 8.29746 15.332 8.50439 15.1251C8.71133 14.9181 8.82759 14.6375 8.82759 14.3448V1.65517C8.82759 1.36252 8.71133 1.08185 8.50439 0.874917C8.29746 0.66798 8.01679 0.551724 7.72414 0.551724H1.65517Z" fill="#2A2A2A"/>
<path d="M5.63703 1.65518H3.74461C3.67145 1.65518 3.60128 1.62611 3.54955 1.57438C3.49781 1.52265 3.46875 1.45248 3.46875 1.37932C3.46875 1.30615 3.49781 1.23599 3.54955 1.18425C3.60128 1.13252 3.67145 1.10345 3.74461 1.10345H5.63703C5.71019 1.10345 5.78036 1.13252 5.83209 1.18425C5.88382 1.23599 5.91289 1.30615 5.91289 1.37932C5.91289 1.45248 5.88382 1.52265 5.83209 1.57438C5.78036 1.62611 5.71019 1.65518 5.63703 1.65518Z" fill="#2A2A2A"/>
<path d="M7.5885 0.551724H1.79539C1.72223 0.551724 1.65206 0.52266 1.60033 0.470926C1.54859 0.419192 1.51953 0.349025 1.51953 0.275862C1.51953 0.202699 1.54859 0.132532 1.60033 0.0807981C1.65206 0.0290639 1.72223 0 1.79539 0H7.5885C7.66166 0 7.73183 0.0290639 7.78356 0.0807981C7.83529 0.132532 7.86436 0.202699 7.86436 0.275862C7.86436 0.349025 7.83529 0.419192 7.78356 0.470926C7.73183 0.52266 7.66166 0.551724 7.5885 0.551724Z" fill="#2A2A2A"/>
<path d="M9.10345 2.75862H0.275862C0.202699 2.75862 0.132532 2.72955 0.0807982 2.67782C0.029064 2.62609 0 2.55592 0 2.48276C0 2.40959 0.029064 2.33943 0.0807982 2.28769C0.132532 2.23596 0.202699 2.20689 0.275862 2.20689H9.10345C9.17661 2.20689 9.24678 2.23596 9.29851 2.28769C9.35025 2.33943 9.37931 2.40959 9.37931 2.48276C9.37931 2.55592 9.35025 2.62609 9.29851 2.67782C9.24678 2.72955 9.17661 2.75862 9.10345 2.75862Z" fill="#2A2A2A"/>
<path d="M7.5885 16H1.79539C1.72223 16 1.65206 15.9709 1.60033 15.9192C1.54859 15.8675 1.51953 15.7973 1.51953 15.7241C1.51953 15.651 1.54859 15.5808 1.60033 15.5291C1.65206 15.4773 1.72223 15.4483 1.79539 15.4483H7.5885C7.66166 15.4483 7.73183 15.4773 7.78356 15.5291C7.83529 15.5808 7.86436 15.651 7.86436 15.7241C7.86436 15.7973 7.83529 15.8675 7.78356 15.9192C7.73183 15.9709 7.66166 16 7.5885 16Z" fill="#2A2A2A"/>
<path d="M9.10345 13.1503H0.275862C0.202699 13.1503 0.132532 13.1213 0.0807982 13.0695C0.029064 13.0178 0 12.9476 0 12.8745C0 12.8013 0.029064 12.7312 0.0807982 12.6794C0.132532 12.6277 0.202699 12.5986 0.275862 12.5986H9.10345C9.17661 12.5986 9.24678 12.6277 9.29851 12.6794C9.35025 12.7312 9.37931 12.8013 9.37931 12.8745C9.37931 12.9476 9.35025 13.0178 9.29851 13.0695C9.24678 13.1213 9.17661 13.1503 9.10345 13.1503Z" fill="#2A2A2A"/>
<path d="M4.68842 15.2883C4.49243 15.2888 4.30068 15.2312 4.13746 15.1227C3.97424 15.0142 3.84687 14.8597 3.77149 14.6788C3.69611 14.4979 3.67611 14.2987 3.71401 14.1064C3.75191 13.9141 3.84601 13.7374 3.9844 13.5986C4.12279 13.4599 4.29925 13.3653 4.49143 13.3268C4.68362 13.2884 4.88288 13.3078 5.06401 13.3827C5.24513 13.4576 5.39996 13.5845 5.50891 13.7474C5.61785 13.9104 5.676 14.1019 5.676 14.2979C5.67637 14.4279 5.65109 14.5566 5.60162 14.6767C5.55215 14.7968 5.47946 14.906 5.38772 14.998C5.29598 15.09 5.18699 15.163 5.06699 15.2128C4.94699 15.2626 4.81834 15.2883 4.68842 15.2883ZM4.68842 13.8621C4.60143 13.8615 4.51625 13.8869 4.4437 13.9348C4.37115 13.9828 4.3145 14.0513 4.28096 14.1316C4.24742 14.2118 4.2385 14.3002 4.25534 14.3856C4.27218 14.4709 4.31401 14.5493 4.37551 14.6108C4.43702 14.6723 4.51543 14.7142 4.60077 14.731C4.68611 14.7478 4.77453 14.7389 4.85479 14.7054C4.93505 14.6718 5.00352 14.6152 5.05151 14.5426C5.09949 14.4701 5.12482 14.3849 5.12428 14.2979C5.12428 14.1823 5.07836 14.0715 4.99662 13.9897C4.91488 13.908 4.80401 13.8621 4.68842 13.8621Z" fill="#2A2A2A"/>
</svg>
