<svg width="28" height="21" viewBox="0 0 28 21" fill="none" xmlns="http://www.w3.org/2000/svg">
<path d="M24.4453 8.77779V7.77779H25.4453V8.77779H24.4453ZM17.3342 2.55557V1.55557H18.3342V2.55557H17.3342ZM24.4453 7.8889L25.0961 7.12965L27.1486 8.8889H24.4453V7.8889ZM18.2231 2.55557H17.2231V0.381348L18.8739 1.79631L18.2231 2.55557ZM25.4453 8.77779V17.6591H23.4453V8.77779H25.4453ZM19.1103 7.77779H24.4453V9.77779H19.1103V7.77779ZM18.3342 6.99475C18.3342 7.43347 18.6809 7.77779 19.1103 7.77779V9.77779C17.5639 9.77779 16.3342 8.52552 16.3342 6.99475H18.3342ZM18.3342 2.55557V6.99475H16.3342V2.55557H18.3342ZM2.2208 1.55557H17.3342V3.55557L2.2208 3.55557V1.55557ZM-0.554688 4.33106C-0.554688 2.79929 0.683867 1.55557 2.2208 1.55557V3.55557C1.79062 3.55557 1.44531 3.90167 1.44531 4.33106H-0.554688ZM-0.554688 17.669V4.33106H1.44531V17.669H-0.554688ZM2.22961 20.4445C0.697653 20.4445 -0.554688 19.2106 -0.554688 17.669H1.44531C1.44531 18.0945 1.79069 18.4445 2.22961 18.4445V20.4445ZM22.661 20.4445H2.22961V18.4445H22.661V20.4445ZM25.4453 17.6591C25.4453 19.1967 24.1998 20.4445 22.661 20.4445V18.4445C23.0938 18.4445 23.4453 18.0935 23.4453 17.6591H25.4453ZM24.4453 8.8889H19.1146V6.8889H24.4453V8.8889ZM18.8739 1.79631L25.0961 7.12965L23.7945 8.64816L17.5723 3.31483L18.8739 1.79631ZM17.2231 7.00821V2.55557H19.2231V7.00821H17.2231ZM19.1146 8.8889C18.0766 8.8889 17.2231 8.04696 17.2231 7.00821H19.2231C19.2231 6.96582 19.205 6.93495 19.1888 6.9189C19.1721 6.90226 19.1452 6.8889 19.1146 6.8889V8.8889Z" fill="#4A4A4A"/>
</svg>
