<?xml version="1.0" encoding="utf-8"?>
<!-- Generator: Adobe Illustrator 24.2.0, SVG Export Plug-In . SVG Version: 6.00 Build 0)  -->
<svg version="1.1" id="Layer_1" xmlns="http://www.w3.org/2000/svg" xmlns:xlink="http://www.w3.org/1999/xlink" x="0px" y="0px"
	 viewBox="0 0 28 21" style="enable-background:new 0 0 28 21;" xml:space="preserve">
<style type="text/css">
	.st0{fill:#FFFFFF;}
</style>
<path class="st0" d="M24.4,8.8v-1h1v1H24.4z M17.3,2.6v-1h1v1H17.3z M24.4,7.9l0.7-0.8l2.1,1.8h-2.7V7.9z M18.2,2.6h-1V0.4l1.7,1.4
	L18.2,2.6z M25.4,8.8v8.9h-2V8.8H25.4z M19.1,7.8h5.3v2h-5.3V7.8z M18.3,7c0,0.4,0.3,0.8,0.8,0.8v2c-1.5,0-2.8-1.3-2.8-2.8H18.3z
	 M18.3,2.6V7h-2V2.6H18.3z M2.2,1.6h15.1v2H2.2V1.6z M-0.6,4.3c0-1.5,1.2-2.8,2.8-2.8v2c-0.4,0-0.8,0.3-0.8,0.8H-0.6z M-0.6,17.7
	V4.3h2v13.3H-0.6z M2.2,20.4c-1.5,0-2.8-1.2-2.8-2.8h2c0,0.4,0.3,0.8,0.8,0.8V20.4z M22.7,20.4H2.2v-2h20.4V20.4z M25.4,17.7
	c0,1.5-1.2,2.8-2.8,2.8v-2c0.4,0,0.8-0.4,0.8-0.8H25.4z M24.4,8.9h-5.3v-2h5.3V8.9z M18.9,1.8l6.2,5.3l-1.3,1.5l-6.2-5.3L18.9,1.8z
	 M17.2,7V2.6h2V7H17.2z M19.1,8.9c-1,0-1.9-0.8-1.9-1.9h2c0,0,0-0.1,0-0.1c0,0,0,0-0.1,0V8.9z"/>
</svg>
