<?xml version="1.0" encoding="utf-8"?>
<!-- Generator: Adobe Illustrator 24.3.0, SVG Export Plug-In . SVG Version: 6.00 Build 0)  -->
<svg version="1.1" id="Layer_1" xmlns="http://www.w3.org/2000/svg" xmlns:xlink="http://www.w3.org/1999/xlink" x="0px" y="0px"
	 viewBox="0 0 512 512" style="enable-background:new 0 0 512 512;" xml:space="preserve">
<style type="text/css">
	.st0{display:none;}
</style>
<g id="Layer_2_1_" class="st0">
	
		<image style="display:inline;overflow:visible;enable-background:new    ;" width="134" height="157" xlink:href="8CEF05DE.png"  transform="matrix(2.1277 0 0 2.1277 114.051 120)">
	</image>
</g>
<g id="Layer_1_1_">
	<g>
		<path d="M407.2,43.6c8.3,0,15,6.7,15,15v394.9c0,8.3-6.7,15-15,15H104.8c-8.3,0-15-6.7-15-15V58.5c0-8.3,6.7-15,15-15L407.2,43.6
			 M407.2,0H104.8C72.5,0,46.3,26.2,46.3,58.5v394.9c0,32.3,26.2,58.5,58.5,58.5h302.4c32.3,0,58.5-26.2,58.5-58.5V58.5
			C465.7,26.2,439.5,0,407.2,0L407.2,0z"/>
		<rect x="138.9" y="98" width="228.8" height="38.1"/>
		<g>
			<rect x="144.3" y="192" width="108.9" height="38.1"/>
			<circle cx="351.3" cy="211.1" r="21.8"/>
		</g>
		<g>
			<rect x="144.3" y="290" width="108.9" height="38.1"/>
			<circle cx="351.3" cy="309.1" r="21.8"/>
		</g>
		<g>
			<rect x="144.3" y="388.1" width="108.9" height="38.1"/>
			<circle cx="351.3" cy="407.2" r="21.8"/>
		</g>
	</g>
</g>
</svg>
