<svg width="24" height="12" viewBox="0 0 24 12" fill="none" xmlns="http://www.w3.org/2000/svg">
<path d="M15 0C14.4477 0 14 0.447715 14 1C14 1.55228 14.4477 2 15 2V0ZM18 1V0V1ZM15 10C14.4477 10 14 10.4477 14 11C14 11.5523 14.4477 12 15 12V10ZM9 12C9.55229 12 10 11.5523 10 11C10 10.4477 9.55229 10 9 10V12ZM9 2C9.55229 2 10 1.55228 10 1C10 0.447715 9.55229 0 9 0V2ZM15 2H18V0H15V2ZM18 2C19.0609 2 20.0783 2.42143 20.8284 3.17157L22.2426 1.75736C21.1174 0.632141 19.5913 0 18 0V2ZM20.8284 3.17157C21.5786 3.92172 22 4.93913 22 6H24C24 4.4087 23.3679 2.88258 22.2426 1.75736L20.8284 3.17157ZM22 6C22 8.20914 20.2091 10 18 10V12C21.3137 12 24 9.31371 24 6H22ZM18 10H15V12H18V10ZM9 10H6V12H9V10ZM6 10C4.93913 10 3.92172 9.57857 3.17157 8.82843L1.75736 10.2426C2.88258 11.3679 4.4087 12 6 12V10ZM3.17157 8.82843C2.42143 8.07828 2 7.06087 2 6H0C0 7.5913 0.632141 9.11742 1.75736 10.2426L3.17157 8.82843ZM2 6C2 3.79086 3.79086 2 6 2V0C2.68629 0 0 2.68629 0 6H2ZM6 2H9V0H6V2Z" fill="#4A4A4A"/>
<path d="M8 6H16" stroke="#4A4A4A" stroke-width="2" stroke-linecap="round" stroke-linejoin="round"/>
</svg>
