<svg xmlns="http://www.w3.org/2000/svg" xmlns:xlink="http://www.w3.org/1999/xlink" width="673.265" height="480.882" viewBox="0 0 673.265 480.882"><defs><style>.a{fill:url(#a);}.b,.p{fill:#4d8593;}.c{fill:url(#b);}.d{fill:url(#c);}.e{fill:url(#d);}.f{fill:url(#e);}.g{fill:url(#f);}.h{fill:#f2f2f2;}.h,.p{mix-blend-mode:multiply;isolation:isolate;}.i{fill:url(#g);}.j{fill:url(#h);}.k{fill:url(#i);}.l{fill:url(#j);}.m{fill:#001e48;}.n{fill:#e26b6d;}.o{fill:#fff;}.q{fill:url(#k);}.r{fill:url(#l);}.s{fill:#f1cbb3;}.t{fill:#e29f77;}.u{fill:#eaab3b;}.v{fill:#253770;}.w{fill:url(#m);}.x{fill:url(#n);}.y{fill:url(#o);}.z{fill:url(#p);}.aa{fill:#a7adc0;}.ab{fill:#edc2a9;}.ac{fill:#dbbdaf;}.ad{fill:#5da1f0;}.ae{fill:url(#v);}.af{fill:url(#w);}.ag{fill:url(#x);}.ah{fill:url(#ab);}.ai{fill:url(#ac);}.aj{fill:url(#ad);}.ak{fill:url(#ak);}</style><linearGradient id="a" x1="0.285" y1="0.418" x2="1.18" y2="0.694" gradientUnits="objectBoundingBox"><stop offset="0.012" stop-color="#5692a3"/><stop offset="0.168" stop-color="#629da4"/><stop offset="0.996" stop-color="#a0d6ad"/></linearGradient><linearGradient id="b" x1="0.549" y1="0.57" x2="1.032" y2="-0.065" xlink:href="#a"/><linearGradient id="c" x1="0.217" y1="0.775" x2="0.789" y2="0.36" xlink:href="#a"/><linearGradient id="d" x1="0.427" y1="0.619" x2="1.352" y2="0.619" xlink:href="#a"/><linearGradient id="e" x1="0.814" y1="0.548" x2="1.206" y2="-0.274" xlink:href="#a"/><linearGradient id="f" x1="0.163" y1="0.649" x2="0.864" y2="0.649" xlink:href="#a"/><linearGradient id="g" x1="0.5" y1="1.451" x2="0.5" y2="0.419" gradientUnits="objectBoundingBox"><stop offset="0.007" stop-color="#d7dff2"/><stop offset="0.196" stop-color="#d3ddf1"/><stop offset="0.383" stop-color="#c7d7ef"/><stop offset="0.568" stop-color="#b3cdeb"/><stop offset="0.753" stop-color="#97c0e6"/><stop offset="0.936" stop-color="#74aee0"/><stop offset="1" stop-color="#66a8de"/></linearGradient><linearGradient id="h" x1="0.5" y1="1.479" x2="0.5" y2="-3.515" gradientUnits="objectBoundingBox"><stop offset="0.007" stop-color="#d7dff2"/><stop offset="0.128" stop-color="#b7cfec"/><stop offset="0.27" stop-color="#9ac1e7"/><stop offset="0.421" stop-color="#83b6e3"/><stop offset="0.583" stop-color="#72aee0"/><stop offset="0.764" stop-color="#69a9de"/><stop offset="1" stop-color="#66a8de"/></linearGradient><linearGradient id="i" x1="0.5" y1="-0.233" x2="0.5" y2="0.693" gradientUnits="objectBoundingBox"><stop offset="0.007" stop-color="#d7dff2"/><stop offset="0.196" stop-color="#c7d7ef"/><stop offset="0.563" stop-color="#9ec3e7"/><stop offset="1" stop-color="#66a8de"/></linearGradient><linearGradient id="j" x1="0.5" y1="0.592" x2="0.5" y2="-0.08" gradientUnits="objectBoundingBox"><stop offset="0.002" stop-color="#d7dff2"/><stop offset="0.486" stop-color="#e9ecf1"/><stop offset="1" stop-color="#f1f1f1"/></linearGradient><linearGradient id="k" x1="0" y1="0.5" x2="1" y2="0.5" xlink:href="#j"/><linearGradient id="l" x1="-33.5" y1="0.5" x2="-32.5" y2="0.5" xlink:href="#j"/><linearGradient id="m" x1="0.5" y1="1.099" x2="0.5" y2="-0.61" gradientUnits="objectBoundingBox"><stop offset="0" stop-color="#66a8de"/><stop offset="0.437" stop-color="#9ec3e7"/><stop offset="0.804" stop-color="#c7d7ef"/><stop offset="0.993" stop-color="#d7dff2"/></linearGradient><linearGradient id="n" x1="0.5" y1="1.804" x2="0.5" y2="-0.571" xlink:href="#m"/><linearGradient id="o" x1="0.5" y1="2.098" x2="0.5" y2="0.079" xlink:href="#m"/><linearGradient id="p" x1="0" y1="0.5" x2="1" y2="0.5" xlink:href="#i"/><linearGradient id="v" x1="0.5" y1="0.865" x2="0.5" y2="-0.492" xlink:href="#m"/><linearGradient id="w" x1="0.425" y1="0.077" x2="0.637" y2="1.267" xlink:href="#m"/><linearGradient id="x" x1="0" y1="0.5" x2="1" y2="0.5" xlink:href="#m"/><linearGradient id="ab" y1="0.828" y2="-0.454" xlink:href="#i"/><linearGradient id="ac" x1="0.5" y1="1.103" x2="0.5" y2="0.087" xlink:href="#m"/><linearGradient id="ad" x1="0" y1="0.5" x2="1" y2="0.5" xlink:href="#a"/><linearGradient id="ak" x1="-0.009" y1="0.5" x2="0.991" y2="0.5" gradientUnits="objectBoundingBox"><stop offset="0.357" stop-color="#d7dff2"/><stop offset="0.479" stop-color="#c7d7ef"/><stop offset="0.717" stop-color="#9ec3e7"/><stop offset="1" stop-color="#66a8de"/></linearGradient></defs><g transform="translate(31.989 140.913)"><g transform="translate(418.263)"><g transform="translate(0 185.203)"><path class="a" d="M568.3,340.488c-3.657-1.518-24.071-1.171-33.236-.933A9.818,9.818,0,0,0,527.848,343a105.335,105.335,0,0,1-9.126,9.747c.643-4.841,1.667-9.7,1.952-14.683-4.6-.847-9.808-.561-14.511-1.143a103.453,103.453,0,0,0-14.745-.945c-4.451.086-10.926-.712-13.888,2.1-3.027,2.875-6.271,8.284-8.715,11.756-.091-3.029.885-6.4,1.562-9.5,1.223-5.58.212-5.108-5.686-6.27a106.056,106.056,0,0,0-21.273-2.113,155.662,155.662,0,0,0-26.008,2.372c-5.108.864-4.918.39-6.781,5.3a107.95,107.95,0,0,1-4.6,9.961c-4.584-2.189-4.728-10.856-5.01-15.087-11.1-.1-22.63,11.775-30.128,18.934-1.47,1.4-15.69,16.044-16.419,16.8a16.022,16.022,0,0,0,5.633,26.02c5.549,2.209,12.51,4.654,21.2,7.238,7.625,2.272,43.344,9.377,54,6.494-1.494-5.236-4.244-10.638-4.933-16.129,4.62,2.592,7.943,8.232,10.356,12.769.279.529.975,1.75,1.768,3.128a9.716,9.716,0,0,0,9.824,4.772c10.57-1.535,30.1-6.627,39.2-9.92-2.632-4.846-5.471-7.923-8.282-12.863,5.1,1.785,8.759,7.492,13.263,10.258,3.238,1.982,1.963,2.327,5.671.337,2.065-1.107,3.8-2.491,5.849-3.617-5.055-4.783-8.9-11.138-13.845-16.318,3.456,3.6,8.7,6.093,12.772,8.872,5.517,3.766,6.311,3.819,12.192.577,10.1-5.566,21.006-11.9,30.058-18.831,7.221-5.537,18.15-13.1,21.975-21.436C573.546,346.433,574.485,343.058,568.3,340.488Z" transform="translate(-349.977 -331.944)"/><path class="b" d="M545.836,353.34c-11.547,3.474-23.226,6.7-35,9.559a125.017,125.017,0,0,0,33.275-.688c1.581-.246,2.291,2.171.686,2.421a129.3,129.3,0,0,1-39.933,0,1.207,1.207,0,0,1-.51-.2q-6.83,1.574-13.7,2.964a99.689,99.689,0,0,0,25.265,11.027c1.562.438.967,2.88-.6,2.442a102.115,102.115,0,0,1-27.9-12.514,1.333,1.333,0,0,1-.272-.264c-4.369.851-8.751,1.622-13.138,2.346,2.794,2.408,5.695,4.666,8.268,7.354,3.065,3.2,5.833,6.672,8.612,10.118,1.013,1.258-1.153,2.544-2.156,1.3C483.2,382.338,477.18,376.9,470.8,370.967q-7.942,1.25-15.914,2.18c3.183,2.892,6.732,5.373,9.778,8.448a76.575,76.575,0,0,1,8.575,10.488c.921,1.335-1.239,2.63-2.158,1.3a72.162,72.162,0,0,0-9.6-11.386c-3.147-3-6.8-5.411-9.856-8.484q-7.3.793-14.613,1.289c6.756,6.85,12.055,14.774,17.261,22.863.876,1.364-1.28,2.663-2.158,1.3-5.483-8.523-11.057-16.9-18.433-23.941q-12.672.75-25.363.524a140.506,140.506,0,0,1,12.057,23.308c.606,1.5-1.822,2.17-2.426.679a136.87,136.87,0,0,0-12.678-24.066q-7.372-.216-14.738-.815c5.265,6.114,9.559,12.885,11.869,20.685a1.261,1.261,0,0,1-2.426.681c-2.387-8.058-6.956-14.937-12.563-21.135a1.306,1.306,0,0,1-.286-.518c-4.938-.455-9.872-1.061-14.8-1.788a41.834,41.834,0,0,1,11.109,13.328c.758,1.424-1.395,2.733-2.156,1.3a39.441,39.441,0,0,0-14.7-15.555c-4.079-.693-8.155-1.454-12.223-2.354a1.258,1.258,0,0,1,.6-2.442c3.958.876,7.923,1.627,11.891,2.31a1.094,1.094,0,0,1,.607.106c.118.021.236.038.354.056A53.8,53.8,0,0,0,386.593,345.8c.626-1.494,2.835-.275,2.216,1.2a55.983,55.983,0,0,1-17.541,22.877q7.723,1.186,15.466,1.922a1.235,1.235,0,0,1,.525-.975c9.892-7.178,19.666-14.482,26.735-24.6.919-1.316,3.143-.123,2.218,1.2-7.041,10.075-16.585,17.488-26.42,24.656q11.676.986,23.368,1.016c9.008-11.574,17.9-23.362,22.1-37.615.457-1.549,2.907-.953,2.449.6-4.114,13.96-12.568,25.637-21.369,37q7.752-.051,15.5-.471c7.94-9.55,17.011-18.922,20.786-31.018.481-1.538,2.931-.945,2.449.6-3.658,11.72-11.98,20.96-19.776,30.2q6.761-.434,13.51-1.116a1.091,1.091,0,0,1,.554-.667c10.154-5.484,18.342-13.357,26.453-21.427,1.146-1.143,2.981.585,1.833,1.728-7.3,7.262-14.661,14.362-23.4,19.774q7.459-.87,14.9-2.017c.493-2.367,4.452-4.858,5.726-6.073q7.136-6.8,14.577-13.273c1.21-1.059,3.051.664,1.833,1.728q-5.082,4.438-10.039,9.011c-.715.662-6.846,5.859-8.927,8.1q6.948-1.124,13.867-2.454c.008-.009.008-.019.017-.027a108.956,108.956,0,0,1,21.55-17.279,1.259,1.259,0,0,1,1.306,2.151,106.364,106.364,0,0,0-18.431,14.273q13.183-2.682,26.222-6.029a1.112,1.112,0,0,1,.476-.441l20.3-10.015c1.442-.712,2.762,1.434,1.306,2.151l-10.748,5.3q8.529-2.343,16.975-4.889A1.259,1.259,0,0,1,545.836,353.34Z" transform="translate(-347.527 -330.07)"/></g><g transform="translate(2.472 88.098)"><path class="c" d="M527.816,275.257c-3.946.337-21.875,10.05-29.889,14.482a9.782,9.782,0,0,0-4.8,6.386,104.964,104.964,0,0,1-3.571,12.853c-1.672-4.593-3.017-9.375-5.074-13.931-4.47,1.369-8.951,4.02-13.388,5.669a103.134,103.134,0,0,0-13.506,5.955c-3.9,2.125-10.01,4.4-11.335,8.262-1.352,3.944-1.72,10.24-2.278,14.446-1.484-2.645-2.183-6.088-3.019-9.155-1.5-5.517-2.178-4.63-7.943-2.945a105.707,105.707,0,0,0-19.832,7.924,155.04,155.04,0,0,0-21.949,14.085c-4.127,3.119-4.179,2.611-3.554,7.83a107.487,107.487,0,0,1,.537,10.958c-5.075.169-9.218-7.457-11.429-11.083-9.884,5.022-14.6,20.875-17.93,30.685-.652,1.923-6.472,21.468-6.768,22.473a16.07,16.07,0,0,0,17.045,20.5c5.941-.6,13.243-1.631,22.139-3.339,7.811-1.5,42.757-11.644,50.87-19.114-3.749-3.96-8.689-7.486-11.845-12.045,5.3.175,10.856,3.65,15.094,6.564.491.34,1.675,1.1,3.017,1.963a9.709,9.709,0,0,0,10.916-.291c8.657-6.23,23.607-19.747,30.149-26.862-4.576-3.089-8.518-4.512-13.3-7.6,5.346-.765,11.234,2.613,16.506,2.995,3.789.267,2.817,1.162,5.183-2.313,1.316-1.934,2.214-3.961,3.506-5.9-6.694-1.918-13.051-5.784-19.831-8.106,4.731,1.6,10.532,1.4,15.431,1.992,6.634.8,7.363.482,11.071-5.1,6.371-9.593,13.106-20.24,17.916-30.561,3.835-8.241,10.019-19.986,9.545-29.148C535.215,278.118,534.483,274.691,527.816,275.257Z" transform="translate(-351.421 -275.196)"/><path class="b" d="M516.211,289.167c-8.624,8.4-17.479,16.646-26.591,24.608a124.637,124.637,0,0,0,29.172-15.94c1.287-.946,3.036.873,1.73,1.833A128.817,128.817,0,0,1,485.13,318.06a1.192,1.192,0,0,1-.544.06q-5.323,4.543-10.767,8.941a99.637,99.637,0,0,0,27.5-1.85c1.586-.332,2.19,2.11.6,2.442A101.986,101.986,0,0,1,471.4,329.4a1.264,1.264,0,0,1-.363-.108q-5.218,4.153-10.558,8.135c3.592.85,7.209,1.518,10.734,2.719,4.2,1.429,8.26,3.234,12.32,5.014,1.48.648.157,2.789-1.309,2.146-8.089-3.544-15.943-5.6-24.343-7.926q-6.458,4.766-13.094,9.264c4.16,1.1,8.455,1.668,12.579,3a76.674,76.674,0,0,1,12.457,5.358c1.434.761.12,2.906-1.309,2.147a72.458,72.458,0,0,0-13.787-5.685c-4.177-1.21-8.532-1.67-12.666-2.989q-6.1,4.068-12.355,7.876c9.163,2.967,17.531,7.56,25.89,12.341,1.408.806.1,2.953-1.309,2.148-8.807-5.039-17.63-9.909-27.427-12.759q-10.883,6.5-22.237,12.148a141.125,141.125,0,0,1,21.484,15.134c1.23,1.049-.611,2.767-1.836,1.721a137.483,137.483,0,0,0-22.384-15.52q-6.632,3.206-13.439,6.066c7.5,3,14.44,7.033,20.1,12.892,1.126,1.164-.7,2.89-1.834,1.721-5.849-6.052-13.085-10.053-20.926-12.972a1.322,1.322,0,0,1-.495-.327q-6.879,2.805-13.943,5.229a41.986,41.986,0,0,1,16.02,6.711c1.331.916.031,3.068-1.309,2.148a39.536,39.536,0,0,0-20.236-7.033c-3.937,1.263-7.9,2.466-11.925,3.54a1.258,1.258,0,0,1-.6-2.444c3.913-1.046,7.776-2.2,11.609-3.428a1.083,1.083,0,0,1,.589-.185c.113-.038.224-.077.337-.113a53.734,53.734,0,0,0,5.753-29.538c-.139-1.614,2.384-1.552,2.521.046a55.892,55.892,0,0,1-4.949,28.386q7.395-2.508,14.6-5.419a1.236,1.236,0,0,1,.014-1.107c5.442-10.927,10.72-21.913,12.3-34.15.205-1.59,2.728-1.555,2.521.046-1.573,12.185-6.6,23.162-11.992,34.054q10.8-4.5,21.179-9.861c2.622-14.423,5.043-28.982,2.163-43.566-.313-1.586,2.134-2.185,2.449-.592,2.822,14.285.737,28.544-1.795,42.687q6.845-3.617,13.516-7.555c2.611-12.134,6.309-24.632,4.05-37.107-.288-1.586,2.161-2.189,2.45-.592,2.187,12.088-.909,24.122-3.534,35.919q5.791-3.5,11.455-7.214a1.1,1.1,0,0,1,.181-.847c6.46-9.547,10.069-20.3,13.518-31.2.488-1.542,2.914-.852,2.426.691-3.1,9.807-6.341,19.5-11.581,28.33q6.209-4.209,12.267-8.652c-.659-2.327,1.694-6.362,2.26-8.029,2.115-6.217,4.386-12.377,6.769-18.5.584-1.5,3.013-.816,2.426.691q-2.449,6.281-4.724,12.622c-.327.917-3.352,8.354-4.16,11.3q5.636-4.2,11.153-8.564c0-.012,0-.022,0-.034a108.629,108.629,0,0,1,11.094-25.264,1.261,1.261,0,0,1,2.154,1.309,105.887,105.887,0,0,0-9.723,21.157q10.439-8.452,20.447-17.428a1.1,1.1,0,0,1,.216-.611q6.676-9.12,13.354-18.243c.948-1.3,3.113,0,2.154,1.309q-3.534,4.828-7.07,9.658,6.476-6.009,12.781-12.158C515.64,286.207,517.373,288.036,516.211,289.167Z" transform="translate(-350.737 -266.815)"/></g><g transform="translate(4.578)"><path class="d" d="M478.19,224.742c-3.611,1.619-17.307,16.7-23.4,23.522a9.765,9.765,0,0,0-2.416,7.613,105.019,105.019,0,0,1,.888,13.315c-3.1-3.787-5.951-7.861-9.4-11.485-3.763,2.765-7.112,6.745-10.751,9.764a102.879,102.879,0,0,0-10.768,10.072c-2.979,3.294-7.986,7.454-7.957,11.535.032,4.172,1.769,10.238,2.639,14.394-2.276-2.011-4.078-5.031-5.881-7.652-3.243-4.714-3.588-3.653-8.469-.164a105.468,105.468,0,0,0-16.085,14.018,154.621,154.621,0,0,0-16.04,20.531c-2.859,4.307-3.075,3.843-.758,8.566a108.2,108.2,0,0,1,4.138,10.171c-4.731,1.833-11.167-4.006-14.453-6.7-7.661,8-6.86,24.523-6.749,34.882.022,2.033,1.006,22.4,1.059,23.452a16.1,16.1,0,0,0,22.873,13.744c5.407-2.519,11.952-5.9,19.779-10.447,6.874-3.985,36.479-25.081,41.657-34.809-4.849-2.5-10.678-4.206-15.164-7.471,5.053-1.581,11.449-.13,16.414,1.225.575.161,1.946.493,3.5.859a9.687,9.687,0,0,0,10.2-3.869c6.1-8.735,15.727-26.426,19.542-35.3-5.341-1.41-9.531-1.454-15.062-2.8,4.788-2.483,11.461-1.232,16.562-2.609,3.662-1,3.042.169,4.122-3.891.6-2.259.777-4.471,1.353-6.73-6.951.4-14.228-1.162-21.393-1.122,4.993-.046,10.4-2.146,15.216-3.2,6.525-1.429,7.106-1.968,8.754-8.467,2.832-11.157,5.657-23.429,6.776-34.762.886-9.044,2.829-22.175-.654-30.669C486.118,225.007,484.292,222.011,478.19,224.742Z" transform="translate(-352.652 -223.712)"/><path class="b" d="M474.653,239.477c-5.353,10.775-10.975,21.477-16.934,32a124.193,124.193,0,0,0,22.24-24.661c.9-1.318,3.152-.176,2.238,1.16A128.373,128.373,0,0,1,454.9,277a1.194,1.194,0,0,1-.493.236q-3.516,6.042-7.2,11.99a99.431,99.431,0,0,0,25.33-10.808c1.388-.835,2.765,1.271,1.374,2.11a101.735,101.735,0,0,1-28.214,11.7,1.239,1.239,0,0,1-.378.017q-3.547,5.639-7.266,11.16c3.67-.382,7.3-.941,11.028-.969,4.435-.034,8.864.334,13.282.676,1.614.125,1.073,2.582-.524,2.459-8.8-.684-16.9-.038-25.591.534q-4.512,6.627-9.283,13.061c4.29-.33,8.53-1.21,12.859-1.314a76.677,76.677,0,0,1,13.527.956c1.605.245,1.076,2.7-.524,2.457a72.4,72.4,0,0,0-14.889-.825c-4.341.234-8.6,1.234-12.938,1.35q-4.407,5.85-9.047,11.506c9.627-.216,19.042,1.364,28.511,3.126a1.258,1.258,0,0,1-.524,2.459c-9.976-1.857-19.915-3.551-30.1-3.012q-8.111,9.723-16.951,18.8a141.153,141.153,0,0,1,25.279,7.214c1.509.585.341,2.813-1.16,2.23a137.832,137.832,0,0,0-26.26-7.283q-5.2,5.213-10.669,10.156c8.068.364,15.953,1.886,23.234,5.553a1.257,1.257,0,0,1-1.16,2.23c-7.522-3.787-15.674-5.183-24.038-5.356a1.264,1.264,0,0,1-.573-.147q-5.562,4.918-11.422,9.533a41.953,41.953,0,0,1,17.336,1.061c1.559.426,1.045,2.887-.524,2.457a39.55,39.55,0,0,0-21.42.026c-3.3,2.49-6.638,4.932-10.075,7.271-1.343.914-2.714-1.2-1.374-2.11,3.345-2.276,6.605-4.642,9.815-7.06a1.1,1.1,0,0,1,.493-.37c.1-.072.188-.145.282-.217a53.781,53.781,0,0,0-4.36-29.788c-.664-1.478,1.735-2.25,2.394-.787a55.955,55.955,0,0,1,4.735,28.436q6.147-4.8,11.975-9.926a1.24,1.24,0,0,1-.352-1.049c1.513-12.113,2.853-24.225.289-36.3-.334-1.569,2.057-2.368,2.394-.785,2.553,12.024,1.449,24.044-.033,36.107q8.7-7.813,16.713-16.29c-2.3-14.483-4.843-29.03-12.392-41.853-.821-1.395,1.288-2.767,2.113-1.367,7.4,12.562,10.154,26.715,12.449,40.9q5.259-5.67,10.248-11.586c-1.555-12.32-2.209-25.341-8.472-36.376-.8-1.4,1.314-2.779,2.115-1.365,6.07,10.693,7.136,23.077,8.566,35.082q4.3-5.213,8.417-10.585a1.093,1.093,0,0,1-.109-.861c2.931-11.143,2.77-22.49,2.414-33.92a1.261,1.261,0,0,1,2.517-.145c.32,10.282.479,20.5-1.538,30.567q4.461-6.019,8.706-12.211c-1.393-1.98-.51-6.567-.527-8.327-.065-6.567.036-13.132.257-19.7.055-1.607,2.572-1.764,2.517-.147-.151,4.492-.253,8.982-.274,13.475,0,.974-.394,8.994-.181,12.04q3.927-5.821,7.685-11.763c0-.012-.009-.019-.009-.033a108.615,108.615,0,0,1,2.094-27.512,1.263,1.263,0,0,1,2.467.527,105.888,105.888,0,0,0-2.165,23.183q7.051-11.422,13.517-23.195a1.106,1.106,0,0,1,0-.647q3.278-10.814,6.554-21.627c.467-1.537,2.936-1.025,2.468.525q-1.735,5.726-3.47,11.449,4.117-7.805,8.027-15.691A1.262,1.262,0,0,1,474.653,239.477Z" transform="translate(-352.031 -213.799)"/></g></g><g transform="translate(0 3.889)"><g transform="translate(0 172.943)"><path class="e" d="M109.445,358.417c3.386-2.053,23.619-4.788,32.716-5.936a9.818,9.818,0,0,1,7.659,2.319,105.465,105.465,0,0,0,10.489,8.258c-1.365-4.689-3.111-9.338-4.144-14.221,4.423-1.53,9.612-2.033,14.174-3.318a103.272,103.272,0,0,1,14.434-3.157c4.413-.587,10.691-2.351,14.045-.019,3.426,2.384,7.449,7.242,10.389,10.306-.368-3.008-1.84-6.2-2.979-9.16-2.05-5.332-.979-5.017,4.675-7.055a106.049,106.049,0,0,1,20.714-5.3,155.652,155.652,0,0,1,26.066-1.578c5.18.082,4.921-.356,7.505,4.22a108.077,108.077,0,0,0,6.047,9.151c4.2-2.854,3.037-11.444,2.678-15.669,10.957-1.776,24.146,8.225,32.639,14.174,1.665,1.167,17.93,13.494,18.765,14.129a16.023,16.023,0,0,1-1.644,26.573c-5.152,3.02-11.665,6.489-19.863,10.353-7.2,3.4-41.434,15.806-52.408,14.564.688-5.4,2.591-11.157,2.445-16.689-4.177,3.26-6.612,9.338-8.313,14.184-.2.565-.7,1.879-1.277,3.361a9.711,9.711,0,0,1-8.99,6.2c-10.681.077-30.758-2.011-40.252-3.893,1.87-5.187,4.213-8.657,6.246-13.963-4.771,2.533-7.529,8.725-11.564,12.141-2.9,2.447-1.588,2.6-5.554,1.189-2.209-.784-4.132-1.891-6.326-2.7,4.274-5.489,7.122-12.353,11.225-18.219-2.875,4.078-7.68,7.334-11.289,10.7-4.885,4.555-5.662,4.728-11.964,2.409-10.823-3.98-22.562-8.6-32.557-14.083-7.972-4.384-19.918-10.211-24.956-17.877C105.16,365.084,103.723,361.889,109.445,358.417Z" transform="translate(-105.545 -327.052)"/><path class="b" d="M121.127,366.694c11.939,1.692,23.972,3.121,36.042,4.172a125.1,125.1,0,0,1-33,4.338c-1.6,0-1.937,2.493-.315,2.5a129.27,129.27,0,0,0,39.477-6.025,1.218,1.218,0,0,0,.476-.272q6.989.524,13.989.864a99.73,99.73,0,0,1-23.315,14.711c-1.478.667-.52,2.991.963,2.322a102.082,102.082,0,0,0,25.69-16.576,1.268,1.268,0,0,0,.228-.3c4.449.181,8.9.282,13.344.335-2.4,2.8-4.926,5.474-7.065,8.518-2.546,3.628-4.759,7.474-6.987,11.3-.813,1.4,1.523,2.341,2.327.958,4.439-7.623,9.569-13.908,14.978-20.734q8.039.038,16.061-.245c-2.709,3.339-5.844,6.326-8.39,9.826a76.4,76.4,0,0,0-6.9,11.662c-.708,1.458,1.622,2.413,2.329.958A72.08,72.08,0,0,1,208.84,382.3c2.659-3.436,5.905-6.374,8.465-9.873q7.333-.316,14.641-.931c-5.647,7.793-9.69,16.426-13.616,25.206-.661,1.48,1.667,2.438,2.329.96,4.134-9.252,8.381-18.378,14.612-26.446q12.639-1.171,25.151-3.308a140.468,140.468,0,0,0-8.4,24.858c-.373,1.571,2.13,1.872,2.5.308a136.755,136.755,0,0,1,8.9-25.7q7.254-1.324,14.447-3.029c-4.283,6.84-7.507,14.18-8.614,22.238a1.261,1.261,0,0,0,2.5.306c1.143-8.325,4.624-15.815,9.232-22.788a1.3,1.3,0,0,0,.205-.554q7.218-1.794,14.358-4a41.865,41.865,0,0,0-8.972,14.851c-.534,1.523,1.79,2.492,2.327.96a39.433,39.433,0,0,1,12.19-17.594c3.927-1.3,7.842-2.669,11.728-4.172a1.258,1.258,0,0,0-.963-2.322c-3.78,1.463-7.586,2.8-11.4,4.076a1.093,1.093,0,0,0-.587.2c-.113.038-.226.072-.339.109a53.82,53.82,0,0,1-22.122-20.426c-.844-1.383-2.844.154-2.011,1.523a55.974,55.974,0,0,0,20.792,19.969q-7.456,2.338-15,4.232a1.225,1.225,0,0,0-.664-.883c-10.862-5.606-21.627-11.352-30.142-20.286-1.105-1.162-3.125.352-2.009,1.523,8.481,8.9,19.033,14.786,29.836,20.389q-11.394,2.734-22.947,4.529c-10.65-10.084-21.22-20.4-27.522-33.852-.685-1.461-3.017-.5-2.329.967,6.172,13.181,16.292,23.448,26.706,33.357q-7.672,1.119-15.39,1.874c-9.29-8.244-19.672-16.141-25.226-27.529-.708-1.449-3.041-.493-2.331.965,5.385,11.035,15.005,18.913,24.105,26.877q-6.748.59-13.523.934a1.086,1.086,0,0,0-.649-.577c-10.866-3.891-20.146-10.438-29.381-17.192-1.307-.956-2.859,1.028-1.552,1.985,8.309,6.078,16.66,11.987,26.118,16.018q-7.508.264-15.031.253c-.844-2.266-5.133-4.132-6.576-5.14q-8.08-5.652-16.412-10.924c-1.357-.864-2.918,1.117-1.55,1.987q5.69,3.619,11.283,7.392c.806.546,7.651,4.76,10.046,6.658-4.692-.043-9.386-.145-14.079-.334-.01-.007-.012-.017-.022-.024a108.937,108.937,0,0,0-23.908-13.833,1.26,1.26,0,0,0-.967,2.326,106.336,106.336,0,0,1,20.373,11.328q-13.437-.662-26.833-2a1.1,1.1,0,0,0-.536-.365L128.5,360.525c-1.533-.486-2.514,1.834-.967,2.324l11.425,3.621q-8.786-1.029-17.519-2.273A1.259,1.259,0,0,0,121.127,366.694Z" transform="translate(-95.217 -323.792)"/></g><g transform="translate(20.469 93.968)"><path class="f" d="M124.023,280.907c3.951-.262,23.14,6.636,31.73,9.808a9.779,9.779,0,0,1,5.712,5.589,105.06,105.06,0,0,0,5.469,12.166c.96-4.791,1.567-9.724,2.914-14.536,4.627.679,9.456,2.623,14.091,3.585a103.157,103.157,0,0,1,14.249,3.848c4.18,1.513,10.56,2.841,12.45,6.458,1.932,3.7,3.246,9.863,4.432,13.939,1.066-2.841,1.239-6.35,1.6-9.507.652-5.679,1.456-4.906,7.408-4.108a105.738,105.738,0,0,1,20.8,4.843A154.881,154.881,0,0,1,268.705,323.6c4.55,2.461,4.523,1.952,4.694,7.2a108.211,108.211,0,0,0,1.121,10.916c5.043-.6,7.988-8.765,9.625-12.681,10.531,3.474,17.584,18.434,22.353,27.63.936,1.8,9.637,20.245,10.08,21.195A16.07,16.07,0,0,1,302.821,400.7c-5.963.308-13.337.385-22.389.039-7.948-.3-44.025-5.062-53.171-11.223,3.109-4.478,7.461-8.712,9.892-13.693-5.209.97-10.18,5.245-13.931,8.765-.435.411-1.489,1.345-2.687,2.4a9.714,9.714,0,0,1-10.835,1.36c-9.5-4.855-26.316-15.962-33.855-22.009,4.059-3.744,7.741-5.744,12-9.519-5.4.05-10.71,4.278-15.866,5.448-3.7.837-2.608,1.574-5.471-1.5-1.593-1.715-2.787-3.583-4.358-5.308,6.33-2.906,12.03-7.687,18.381-11-4.435,2.3-10.2,2.974-14.954,4.3-6.437,1.793-7.206,1.588-11.715-3.374-7.745-8.522-16.008-18.031-22.32-27.51-5.033-7.567-12.918-18.246-13.831-27.375C117.141,284.851,117.348,281.354,124.023,280.907Z" transform="translate(-117.507 -280.9)"/><path class="b" d="M130.948,293.846c9.793,7,19.79,13.818,30,20.315A124.587,124.587,0,0,1,129.7,302.8c-1.415-.741-2.87,1.321-1.434,2.072a128.829,128.829,0,0,0,37.762,12.844,1.221,1.221,0,0,0,.546-.022q5.95,3.686,11.992,7.214a99.7,99.7,0,0,1-27.464,2.319c-1.619-.089-1.846,2.416-.222,2.505a102.068,102.068,0,0,0,30.433-2.88,1.288,1.288,0,0,0,.342-.163c3.857,2.213,7.75,4.352,11.665,6.449-3.424,1.383-6.9,2.589-10.2,4.307-3.936,2.047-7.676,4.444-11.422,6.816-1.366.864.265,2.781,1.619,1.923,7.461-4.723,14.916-7.94,22.868-11.508q7.1,3.737,14.341,7.185c-3.946,1.715-8.106,2.924-11.982,4.856a76.742,76.742,0,0,0-11.508,7.177c-1.3.969.318,2.89,1.617,1.925a72.254,72.254,0,0,1,12.772-7.7c3.948-1.827,8.183-2.94,12.071-4.867q6.643,3.1,13.4,5.922c-8.609,4.316-16.189,10.116-23.73,16.105-1.271,1.01.347,2.933,1.617,1.925,7.947-6.309,15.934-12.456,25.19-16.749q11.738,4.787,23.813,8.655a141.052,141.052,0,0,0-18.955,18.2c-1.059,1.223,1.02,2.644,2.074,1.425a137.444,137.444,0,0,1,19.786-18.718q7.041,2.166,14.2,3.968c-6.961,4.1-13.215,9.131-17.928,15.777a1.259,1.259,0,0,0,2.074,1.425c4.868-6.865,11.417-11.911,18.729-15.981a1.312,1.312,0,0,0,.44-.4q7.223,1.738,14.572,3.068a41.967,41.967,0,0,0-14.826,9.05c-1.177,1.105.433,3.037,1.619,1.925a39.535,39.535,0,0,1,18.944-10c4.081.654,8.183,1.244,12.322,1.7a1.259,1.259,0,0,0,.222-2.507c-4.026-.443-8.018-1.006-11.992-1.638a1.119,1.119,0,0,0-.611-.094c-.116-.019-.234-.041-.351-.06a53.735,53.735,0,0,1-10.142-28.332c-.106-1.617-2.591-1.174-2.485.426a55.9,55.9,0,0,0,9.174,27.314q-7.687-1.363-15.246-3.155a1.235,1.235,0,0,0-.18-1.092c-7.029-9.983-13.9-20.046-17.31-31.9-.443-1.54-2.931-1.126-2.485.428,3.392,11.807,10.014,21.9,16.99,31.853q-11.36-2.823-22.425-6.554c-4.766-13.862-9.357-27.889-8.708-42.741.07-1.615-2.44-1.838-2.51-.217-.635,14.548,3.576,28.33,8.214,41.929q-7.313-2.541-14.5-5.43c-4.411-11.6-9.952-23.4-9.6-36.07.045-1.614-2.466-1.84-2.51-.217-.341,12.279,4.535,23.71,8.91,34.974q-6.253-2.587-12.413-5.4a1.092,1.092,0,0,0-.306-.809c-7.825-8.463-13.015-18.554-18.07-28.807-.715-1.451-3.01-.4-2.293,1.049,4.547,9.225,9.208,18.32,15.721,26.258q-6.774-3.224-13.433-6.7c.3-2.4-2.635-6.035-3.446-7.6q-4.541-8.742-9.48-17.264c-.8-1.393-3.1-.353-2.295,1.049q3.368,5.839,6.574,11.766c.46.856,4.572,7.752,5.816,10.541q-6.206-3.3-12.319-6.785c-.005-.012,0-.021-.007-.033a108.587,108.587,0,0,0-14.778-23.3,1.261,1.261,0,0,0-1.932,1.619,105.907,105.907,0,0,1,12.8,19.449q-11.6-6.781-22.842-14.146a1.106,1.106,0,0,0-.3-.571q-7.977-8.008-15.953-16.02c-1.133-1.138-3.077.471-1.932,1.619l8.445,8.482q-7.3-4.964-14.466-10.092C131.064,290.833,129.628,292.9,130.948,293.846Z" transform="translate(-110.274 -273.449)"/></g><g transform="translate(52.279)"><path class="g" d="M145.854,226.474c3.812,1.056,19.627,13.9,26.677,19.725a9.761,9.761,0,0,1,3.537,7.161,105.213,105.213,0,0,0,1.129,13.3c2.491-4.209,4.7-8.669,7.562-12.772,4.138,2.168,8.048,5.6,12.1,8.032a102.84,102.84,0,0,1,12.165,8.332c3.441,2.808,9.02,6.165,9.6,10.2.6,4.129-.205,10.387-.436,14.627,1.946-2.331,3.27-5.589,4.658-8.451,2.495-5.149,3-4.153,8.349-1.439a105.315,105.315,0,0,1,18.013,11.431,154.58,154.58,0,0,1,18.955,17.877c3.477,3.826,3.619,3.335,2.041,8.354a108.211,108.211,0,0,0-2.557,10.678c4.954,1.1,10.435-5.643,13.277-8.8,8.78,6.752,10.479,23.208,11.932,33.467.286,2.011,2.385,22.3,2.49,23.342a16.1,16.1,0,0,1-20.537,17.036c-5.726-1.675-12.707-4.032-21.128-7.344-7.4-2.9-39.844-19.292-46.431-28.126,4.415-3.205,9.921-5.77,13.864-9.673-5.234-.8-11.338,1.6-16.04,3.688-.546.245-1.85.779-3.327,1.376a9.69,9.69,0,0,1-10.669-2.286c-7.349-7.716-19.535-23.751-24.643-31.947,5.067-2.2,9.2-2.875,14.468-5.038-5.108-1.733-11.518.51-16.768-.082-3.77-.431-2.981.626-4.661-3.224-.936-2.144-1.442-4.3-2.353-6.451,6.93-.657,13.891-3.294,20.979-4.336-4.944.708-10.6-.553-15.525-.871-6.665-.428-7.32-.874-9.93-7.048-4.483-10.6-9.127-22.308-11.942-33.344-2.242-8.807-6.141-21.494-3.98-30.418C138.056,227.932,139.41,224.7,145.854,226.474Z" transform="translate(-136.097 -225.985)"/><path class="b" d="M148.355,241.086c6.917,9.844,14.09,19.576,21.566,29.078a124.2,124.2,0,0,1-25.7-21.027c-1.09-1.165-3.145.3-2.04,1.485a128.359,128.359,0,0,0,31.36,24.579,1.186,1.186,0,0,0,.524.159q4.389,5.444,8.92,10.768a99.429,99.429,0,0,1-26.67-6.863c-1.5-.618-2.541,1.673-1.039,2.293a101.768,101.768,0,0,0,29.654,7.312,1.287,1.287,0,0,0,.378-.041q4.356,5.041,8.866,9.937c-3.688.178-7.363.171-11.049.7-4.389.637-8.712,1.667-13.029,2.673-1.576.366-.671,2.714.888,2.351,8.6-2,16.7-2.584,25.378-3.332q5.462,5.87,11.147,11.513c-4.29.32-8.614.091-12.909.638a76.824,76.824,0,0,0-13.229,2.986c-1.549.486-.655,2.835.888,2.351a72.461,72.461,0,0,1,14.594-3.061c4.328-.424,8.691-.079,12.995-.618q5.239,5.118,10.678,10.012c-9.548,1.237-18.617,4.22-27.714,7.391-1.533.534-.643,2.885.89,2.351,9.583-3.34,19.151-6.513,29.3-7.517q9.487,8.388,19.593,16.025a141.024,141.024,0,0,0-23.9,10.943c-1.4.806.087,2.834,1.484,2.029a137.58,137.58,0,0,1,24.858-11.159q5.924,4.369,12.081,8.429c-7.923,1.578-15.488,4.269-22.132,8.992a1.258,1.258,0,0,0,1.484,2.031c6.865-4.879,14.713-7.488,22.955-8.92a1.287,1.287,0,0,0,.546-.233q6.24,4.022,12.728,7.7a41.991,41.991,0,0,0-16.978,3.664c-1.477.657-.6,3.012.89,2.351a39.54,39.54,0,0,1,21.177-3.2c3.635,1.964,7.307,3.874,11.059,5.667a1.259,1.259,0,0,0,1.039-2.293c-3.65-1.745-7.23-3.593-10.767-5.5a1.1,1.1,0,0,0-.544-.289c-.1-.058-.207-.116-.311-.173a53.794,53.794,0,0,1-.183-30.106c.435-1.561-2.055-1.963-2.485-.416a55.944,55.944,0,0,0-.392,28.824q-6.8-3.819-13.335-8.007a1.242,1.242,0,0,0,.192-1.09c-3.323-11.747-6.475-23.518-5.762-35.842.092-1.6-2.392-2.031-2.485-.418-.71,12.274,2.192,23.989,5.476,35.692q-9.777-6.412-18.979-13.583c.094-14.665.411-29.427,5.939-43.243.6-1.5-1.692-2.541-2.3-1.034-5.416,13.534-6.008,27.94-6.136,42.314q-6.055-4.813-11.879-9.909c-.32-12.413-1.638-25.382,2.888-37.237.577-1.509-1.716-2.55-2.3-1.032-4.386,11.487-3.573,23.891-3.178,35.974q-5.039-4.5-9.916-9.2a1.1,1.1,0,0,0-.022-.868c-4.577-10.572-6.131-21.814-7.5-33.168a1.262,1.262,0,0,0-2.51.236c1.232,10.212,2.618,20.341,6.131,29.985q-5.321-5.277-10.448-10.758c1.078-2.168-.488-6.569-.736-8.31-.926-6.5-2.016-12.977-3.226-19.434-.3-1.578-2.808-1.354-2.51.236.828,4.417,1.605,8.84,2.3,13.28.152.96,1.747,8.83,2,11.874q-4.759-5.162-9.37-10.469a.208.208,0,0,0,0-.033,108.656,108.656,0,0,0-6.22-26.882,1.262,1.262,0,0,0-2.36.893,105.852,105.852,0,0,1,5.637,22.591q-8.691-10.228-16.86-20.892a1.088,1.088,0,0,0-.1-.64q-4.869-10.2-9.74-20.39c-.691-1.448-3.056-.57-2.358.892q2.577,5.4,5.156,10.8-5.246-7.1-10.3-14.3C149.464,238.278,147.424,239.76,148.355,241.086Z" transform="translate(-131.998 -216.669)"/></g></g></g><path class="h" d="M663.378,415.287c-3.643,0-7.185.048-10.585.137-17.726-3.977-125.841-7.035-256.591-7.035-143.127,0-259.156,3.665-259.156,8.186,0,.375.808.741,2.343,1.1-31.946,1.5-52.538,3.842-52.538,6.48,0,4.521,60.464,8.188,135.047,8.188,71.747,0,130.4-3.393,134.758-7.676,12.9.062,26.1.094,39.547.094,93.71,0,175.8-1.571,221.315-3.925,2.158,2.584,21.862,4.608,45.861,4.608,25.442,0,46.066-2.274,46.066-5.079S688.82,415.287,663.378,415.287Z" transform="translate(-86.851 48.537)"/><g transform="translate(206.801 166.313)"><g transform="translate(73.248 213.92)"><rect class="i" width="44.171" height="71.839" transform="translate(72.737)"/><path class="j" d="M8.43,0H182.672a8.43,8.43,0,0,1,8.43,8.43v6.424a0,0,0,0,1,0,0H0a0,0,0,0,1,0,0V8.43A8.43,8.43,0,0,1,8.43,0Z" transform="translate(0 66.014)"/></g><path class="k" d="M5.293,0H332.305A5.294,5.294,0,0,1,337.6,5.294V250.835a5.294,5.294,0,0,1-5.294,5.294H5.294A5.294,5.294,0,0,1,0,250.835V5.293A5.293,5.293,0,0,1,5.293,0Z" transform="translate(0)"/><rect class="l" width="311.913" height="206.427" transform="translate(12.843 12.417)"/><path class="m" d="M322.406,383.7a11.491,11.491,0,1,1-9.083-13.475A11.49,11.49,0,0,1,322.406,383.7Z" transform="translate(-142.328 -145.069)"/><rect class="m" width="311.843" height="33.562" transform="translate(12.891 185.282)"/></g><g transform="translate(312.011)"><path class="n" d="M296.115,224.619c2.866,10.95-3.024,24.1-8.02,34.264,0,0,28.065,20.06,63.335,1.588l-2.885-7.687a47.146,47.146,0,0,1-2.851-26.364l5.967-33.178a15.678,15.678,0,0,0-10.667-17.7L333,173.005l-2.493-.791a30.393,30.393,0,0,0-9.174-1.419h-3.258a30.349,30.349,0,0,0-13.99,3.415h0l-7.551,3.915A15.64,15.64,0,0,0,288.611,196Z" transform="translate(-255.746 -120.431)"/><path class="n" d="M321.472,174.637a14.981,14.981,0,0,1,6.775,4.155c3.078,3.135,30.59,51.722,30.59,51.722.986,5.832-19.242,9.117-19.242,9.117l-18.222-30.447Z" transform="translate(-232.079 -117.7)"/><path class="o" d="M347.747,204.485a26.4,26.4,0,0,0-17.587,6.3c-.448.376.2,1.016.643.642a25.4,25.4,0,0,1,16.944-6.034A.455.455,0,0,0,347.747,204.485Z" transform="translate(-225.937 -96.474)"/><path class="n" d="M309.347,174.637a14.982,14.982,0,0,0-6.776,4.155c-3.077,3.135-30.59,51.722-30.59,51.722-.984,5.832,19.242,9.117,19.242,9.117l18.222-30.447Z" transform="translate(-267.229 -117.7)"/><path class="o" d="M293.54,211.481a21.405,21.405,0,0,0-18.212-7.127c-.578.055-.584.965,0,.909a20.545,20.545,0,0,1,17.569,6.862C293.287,212.561,293.928,211.916,293.54,211.481Z" transform="translate(-265.134 -96.64)"/><path class="b" d="M359.214,223.918h19.433l-31.172,27.2-30.031,2.17-40.3-30.371,23.057-.72Z" transform="translate(-263.53 -83.878)"/><path class="p" d="M359.214,223.918h19.433l-31.172,27.2-30.031,2.17-40.3-30.371,23.057-.72Z" transform="translate(-263.53 -83.878)"/><g transform="translate(37.701 75.241)"><path class="q" d="M292.418,185.771c.034-.584-.874-.582-.909,0a163.557,163.557,0,0,0,.688,27.538c.062.575.972.582.909,0A163.75,163.75,0,0,1,292.418,185.771Z" transform="translate(-291.222 -185.334)"/><path class="r" d="M322.407,185.771c-.034-.584.876-.582.91,0a163.757,163.757,0,0,1-.688,27.538c-.063.575-.974.582-.91,0A163.574,163.574,0,0,0,322.407,185.771Z" transform="translate(-269.536 -185.334)"/></g><path class="s" d="M309.119,183.991h0a6.167,6.167,0,0,0,6.167-6.167V165.37a1.7,1.7,0,0,0-1.694-1.694h-8.946a1.7,1.7,0,0,0-1.694,1.694v12.454A6.167,6.167,0,0,0,309.119,183.991Z" transform="translate(-245.179 -125.495)"/><path class="t" d="M309.119,181.395h0a6.167,6.167,0,0,0,6.167-6.167V162.774a1.7,1.7,0,0,0-1.694-1.694h-8.946a1.7,1.7,0,0,0-1.694,1.694v12.454A6.167,6.167,0,0,0,309.119,181.395Z" transform="translate(-245.179 -127.341)"/><g transform="translate(41.622 4.867)"><path class="s" d="M338.766,170.655c-.919,3.994-3.939,5.252-6.752,6.058a29.059,29.059,0,0,1-5.193,7.408,15.835,15.835,0,0,1-8.251,5.287l-.281.057c-.188.038-.377.094-.563.132-.132.019-.264.019-.394.038-.113.019-.207.019-.32.038-.243.019-.5.038-.749.038-.262,0-.507-.019-.749-.038-.113-.019-.226-.019-.339-.038-.13-.019-.262-.019-.375-.038-.205-.038-.375-.094-.563-.132-.092-.019-.186-.038-.3-.057a15.835,15.835,0,0,1-8.251-5.287,29.611,29.611,0,0,1-4.613-6.3c-.205-.376-.394-.732-.58-1.107a12.424,12.424,0,0,1-2.495-.919,7.065,7.065,0,0,1-4.239-5.139c-.507-2.231-.243-4.95.9-6.451a2.51,2.51,0,0,1,1.857-1.105,4.439,4.439,0,0,1,2.551.731,34.775,34.775,0,0,1,7.351-14.757,11.912,11.912,0,0,1,4.894-3.92,8.253,8.253,0,0,1,2.943-.862,26.782,26.782,0,0,1,4.014,0,8.171,8.171,0,0,1,2.924.862,11.926,11.926,0,0,1,4.9,3.92,34.366,34.366,0,0,1,7.35,14.757,6.359,6.359,0,0,1,1.145-.525,3.482,3.482,0,0,1,1.407-.205C338.635,163.322,339.478,167.486,338.766,170.655Z" transform="translate(-293.513 -144.207)"/></g><path class="u" d="M340.618,151.876c-3.674-.289-7.028-4.2-9.762-6.458a16.4,16.4,0,0,0-9.731-3.771,19.008,19.008,0,0,0-4.9-.176c-2.009.329-3.128,1.576-5.084,1.7-5.406.342-7.514.178-10.794,4.844-2.353,3.349-4.875,7.633-8.667,9.514.926.067,4.617-.548,5.318.051.749.642-.142,3.309-.1,4.439a12.83,12.83,0,0,0,2.712,6.8,47.523,47.523,0,0,0,3.036,10.755c-.111-6.855.493-14.921,4.2-20.885a33.608,33.608,0,0,1,.282,4.99c2.7-2.206,4.629-5.149,7.036-7.587,1.891,2.75,3.658,5.125,6.715,6.8.169-2.786,1.141-5.161,1.934-7.8,1.591,2.185,2.507,4.757,4.026,6.988,1.739,2.551,3.869,4.878,4.988,7.829,1.518,4,1.152,9.064.756,13.282,1.378-3.231,3.132-5.878,3.79-9.418a41.353,41.353,0,0,0,.686-7.538c-.012-4.665-.789-8.96-.946-13.518C337.755,152.633,339.157,152.777,340.618,151.876Z" transform="translate(-253.194 -141.363)"/><g transform="translate(54.059 23.244)"><path class="v" d="M301.29,158.332a.537.537,0,0,0,.5-.286,3.375,3.375,0,0,1,4.49-1.728.536.536,0,1,0,.447-.975,4.426,4.426,0,0,0-5.888,2.2.534.534,0,0,0,.226.724A.493.493,0,0,0,301.29,158.332Z" transform="translate(-300.782 -154.947)"/><g transform="translate(16.047 0.948)"><path class="v" d="M310.3,156.579a.453.453,0,0,0,.479.1,2.833,2.833,0,0,1,3.8,1.367.45.45,0,1,0,.82-.373,3.717,3.717,0,0,0-4.95-1.836.453.453,0,0,0-.255.587A.441.441,0,0,0,310.3,156.579Z" transform="translate(-310.159 -155.501)"/></g><g transform="translate(4.998 13.439)"><path class="v" d="M308.406,167.331a.535.535,0,0,0-.445-.371,3.364,3.364,0,0,1-3.183-3.585.534.534,0,1,0-1.066-.077,4.414,4.414,0,0,0,4.115,4.726.535.535,0,0,0,.6-.465A.508.508,0,0,0,308.406,167.331Z" transform="translate(-303.702 -162.8)"/></g><g transform="translate(10.065 4.907)"><path class="v" d="M308.985,169.188a2,2,0,0,0,1.109-.323c1.054-.686,1.319-2.259.712-4.2l-1.376-6.478a.462.462,0,1,0-.9.192l1.384,6.521c.573,1.839.207,2.849-.322,3.193a1.839,1.839,0,0,1-2.122-.5.492.492,0,0,0-.672.017.437.437,0,0,0,0,.628A3.419,3.419,0,0,0,308.985,169.188Z" transform="translate(-306.663 -157.814)"/></g><path class="v" d="M313.521,159.676a1.585,1.585,0,1,1-1.434-1.857A1.661,1.661,0,0,1,313.521,159.676Z" transform="translate(-293.963 -152.907)"/><path class="v" d="M305.372,159.674a1.586,1.586,0,1,1-1.434-1.855A1.664,1.664,0,0,1,305.372,159.674Z" transform="translate(-299.759 -152.907)"/></g><path class="s" d="M311.041,232.323l-1.571-8.1a3.614,3.614,0,0,1,2.047-3.956l1.728-.792a5.641,5.641,0,0,1,5.8.688l6.1,4.752a2.941,2.941,0,0,0,3.318.231l.34-.2,4.832-2.811s26.148-21.959,33.708-14.143a9.452,9.452,0,0,1-5.5,14.369l-24.038,6.232-6.46,1.679-4.251,1.109a4.941,4.941,0,0,1-2.627-.067l-8.747-2.724a1.016,1.016,0,0,0-1.307.8l-1,3.08A1.233,1.233,0,0,1,311.041,232.323Z" transform="translate(-240.588 -95.176)"/><path class="s" d="M328.931,232.323l1.571-8.1a3.619,3.619,0,0,0-2.047-3.956l-1.728-.792a5.641,5.641,0,0,0-5.8.688l-6.1,4.752a2.941,2.941,0,0,1-3.318.231l-.34-.2-4.831-2.811s-26.148-21.959-33.71-14.143a9.452,9.452,0,0,0,5.5,14.369l24.04,6.232,6.458,1.679,4.252,1.109a4.935,4.935,0,0,0,2.625-.067l8.747-2.724a1.016,1.016,0,0,1,1.307.8l1,3.08A1.233,1.233,0,0,0,328.931,232.323Z" transform="translate(-267.872 -95.176)"/><g transform="translate(24.719 100.095)"><rect class="w" width="73.273" height="47.18" transform="translate(3.012)"/><path class="x" d="M361.1,227.43H285.468a1.832,1.832,0,0,0-1.833,1.833h0a1.833,1.833,0,0,0,1.833,1.833H361.1a1.834,1.834,0,0,0,1.833-1.833h0A1.833,1.833,0,0,0,361.1,227.43Z" transform="translate(-283.635 -180.25)"/><path class="y" d="M316.1,218.258a6.384,6.384,0,1,1-6.384-6.383A6.385,6.385,0,0,1,316.1,218.258Z" transform="translate(-269.626 -191.312)"/></g><g transform="translate(0 138.13)"><path class="b" d="M269.534,239.438a13.8,13.8,0,0,0,10.59,10.421,13.308,13.308,0,0,0,1.364.216,369.62,369.62,0,0,0,58,10.529c5.7.628,11.526,1.15,17.442,1.595l10.224,9.5c.091.077.183.168.291.245,4.6,3.617,11.218-.566,10.223-6.33l-.6-3.4c0-.031-.015-.046-.015-.062a10.065,10.065,0,0,0-7.711-6.347l-10.575-1.93c-5.1-1.609-10.132-3.234-15.021-4.873-21.289-7.142-40.248-14.745-54.886-25.06a13.764,13.764,0,0,0-19.328,15.5Z" transform="translate(-269.19 -221.715)"/><path class="v" d="M310.271,249.634c5.7.628,11.526,1.15,17.442,1.595l10.224,9.5c.091.077.183.168.291.245,4.6,3.617,11.218-.566,10.222-6.33l-.6-3.4c0-.031-.015-.046-.015-.062a10.065,10.065,0,0,0-7.71-6.347l-10.575-1.93c-5.1-1.609-10.132-3.234-15.021-4.873Z" transform="translate(-239.974 -210.745)"/><path class="b" d="M292.931,271.459c.106-.092.2-.169.291-.246l10.361-9.639c5.287-.553,10.515-1.121,15.633-1.718,22.806-2.635,43.59-5.779,58.9-10.315.46-.046.9-.123,1.364-.214a13.765,13.765,0,1,0-8.736-25.9c-15.695,10.147-34.3,18.347-54.841,25.214-5.164,1.747-10.452,3.386-15.847,4.966l.015.062-9.059,1.655a10.069,10.069,0,0,0-7.693,6.33c0,.031-.015.046-.015.077l-.6,3.4C281.711,270.89,288.333,275.061,292.931,271.459Z" transform="translate(-259.648 -222.086)"/><path class="v" d="M292.931,260.424c.106-.092.2-.169.291-.246l10.361-9.639c5.287-.553,10.515-1.121,15.633-1.718-.828-2.835-2.192-7.418-3.311-11.218-5.164,1.747-10.452,3.386-15.847,4.966l.015.062-9.059,1.655a10.069,10.069,0,0,0-7.693,6.33c0,.031-.015.046-.015.077l-.6,3.4C281.711,259.856,288.333,264.026,292.931,260.424Z" transform="translate(-259.648 -211.051)"/></g><path class="o" d="M321.787,172.34c-.217-.536-1.1-.3-.876.241,5.212,12.849-23.52,15.034-19.776-.2.14-.568-.737-.809-.876-.241C296.147,188.867,327.542,186.526,321.787,172.34Z" transform="translate(-247.359 -119.705)"/></g><g transform="translate(47.956 178.469)"><g transform="translate(55.352)"><g transform="translate(24.246 102.767)"><circle class="m" cx="8.465" cy="8.465" r="8.465" transform="translate(72.425 168.678)"/><path class="m" d="M181.548,412.756a8.465,8.465,0,1,0,8.465-8.465A8.465,8.465,0,0,0,181.548,412.756Z" transform="translate(-147.06 -235.613)"/><circle class="m" cx="8.465" cy="8.465" r="8.465" transform="translate(0 168.678)"/><g transform="translate(13.586 18.185)"><path class="z" d="M188.339,445.67h0a3.554,3.554,0,0,0,3.552-3.554V357.569h-7.106v84.547A3.554,3.554,0,0,0,188.339,445.67Z" transform="translate(-158.344 -287.025)"/><rect class="aa" width="7.107" height="50.582" transform="translate(57.689 50.582) rotate(180)"/><rect class="z" width="7.107" height="50.582" transform="translate(7.107 50.582) rotate(180)"/><rect class="z" width="17.667" height="21.565" transform="translate(38.877 82.353) rotate(180)"/></g><path class="m" d="M173.135,366.331h61.451a11.5,11.5,0,0,0,11.5-11.5h0a11.5,11.5,0,0,0-11.5-11.5H173.135a11.5,11.5,0,0,0-11.5,11.5h0A11.5,11.5,0,0,0,173.135,366.331Z" transform="translate(-161.219 -278.961)"/><path class="m" d="M176.41,328.707h55.847a11.5,11.5,0,0,0,11.5-11.5h0a11.5,11.5,0,0,0-11.5-11.5H176.41a11.5,11.5,0,0,0-11.5,11.5h0A11.5,11.5,0,0,0,176.41,328.707Z" transform="translate(-158.89 -305.716)"/><path class="z" d="M175.971,392.931H231.4A11.573,11.573,0,0,1,242.968,404.5V418.8a3.292,3.292,0,0,1-3.292,3.292h0a3.294,3.294,0,0,1-3.292-3.292V405.974a6.459,6.459,0,0,0-6.458-6.46H177.631a6.46,6.46,0,0,0-6.46,6.46V418.8a3.294,3.294,0,0,1-3.292,3.292h-.036a3.291,3.291,0,0,1-3.291-3.256l-.154-14.2A11.574,11.574,0,0,1,175.971,392.931Z" transform="translate(-159.257 -243.692)"/></g><path class="n" d="M203.84,293.619l-5.594,37.468a11.42,11.42,0,0,1-14.261,9.341l-36.761-9.889.84-8.919,34.415,3.022,3.169-27.053a23.487,23.487,0,0,1,12.877-18.3h0C204.259,276.843,204.76,287.452,203.84,293.619Z" transform="translate(-147.224 -221.999)"/><g transform="translate(50.809 2.899)"><path class="m" d="M199.017,290.224a9.567,9.567,0,0,0,1.992-.939A1.546,1.546,0,0,1,199.017,290.224Z" transform="translate(-161.199 -217.534)"/><path class="m" d="M177.9,275.553c.705-3.937.664-7.972,1.586-11.9a33.426,33.426,0,0,1,4.482-10.012,14.955,14.955,0,0,1,4.875-4.909c1.408-.845,4.434-2.146,5.881-.8l9.15.974c2.849-.857,6.427.888,8.9,2.782,3.605,2.76,5.274,6.852,7.238,11.41a23.375,23.375,0,0,1,1.634,11.516c-.238,3.181-1.456,5.741-1.439,9.076a13.616,13.616,0,0,0,2.935,8.484,19.609,19.609,0,0,0,4.3,4.322c1.006.642,2.39,1,3.253,1.85-1.8.606-4.884-.883-6.639-1.573-1.516-.6-2.77-1.946-4.276-2.49.46,2.124,1.473,3.566,1.648,5.972.26,3.576-.838,5.746-2.615,8.457-2.438,3.722-5.78,6.016-8.843,8.8a42.512,42.512,0,0,1-6.049,5.012c.85-2.081-.575-6.834-.809-8.52-.252-1.816-1.04-3.258-1.093-5.113a22.935,22.935,0,0,1,.2-4.564c-3.645,5.924-9.372,13.5-6.687,21.783a66.977,66.977,0,0,1-6.749-7.642,90.786,90.786,0,0,1-6.526-8.386A35.382,35.382,0,0,1,177,291.94,76.268,76.268,0,0,1,177.9,275.553Z" transform="translate(-176.917 -247.354)"/></g><path class="n" d="M208.111,357.324l-38.084.743,11.249-19.134c-2.473-13.958-5.142-35.139-5.669-48.14-.246-6.1,3.91-11.244,9.244-11.461l36.3-1.47c5.691-.231-.274,3.9-.638,10.4s3.164,14.728,3.469,20.262c.368,6.72-3.469,4.381-4.747,14.968a39.483,39.483,0,0,0-.212,5.821,69.25,69.25,0,0,0,5.067,23.643l1.607,4.023-16.946.33c-.043.041-.086.086-.127.127Z" transform="translate(-131.007 -222.766)"/><path class="o" d="M199.656,309.215a.337.337,0,0,1,.317-.3c2.1-3.487,4.21-7.214,3.072-11.432-.782-2.9-2.6-5.31-3.236-8.282-.121-.57.756-.814.878-.241.8,3.766,3.561,6.959,3.631,10.9.063,3.528-1.923,6.809-3.677,9.714-.038.062-.1.07-.145.1-1.362,8.186-2.471,16.437,1.345,24.162.258.524-.527.984-.785.459C197.1,326.3,198.234,317.723,199.656,309.215Z" transform="translate(-110.874 -215.095)"/><g transform="translate(9.724 133.906)"><path class="m" d="M204.076,391.194s-4.387,32.043-12.522,24.94a15.617,15.617,0,0,1-2.243,6.27c-3.53,5.022,8.085,6.843,12.565,4.649,4.505-2.194,1.959-19.381,1.959-19.381S210.187,397.394,204.076,391.194Z" transform="translate(-127.485 -276.067)"/><path class="b" d="M178.77,323.914l47.339.258c8.125.044,14.73,7.625,14.68,16.848a17.935,17.935,0,0,1-4.261,11.641,4.569,4.569,0,0,1-.243.631c-2.923,5.344-8.212,9.033-15.24,11.535-.383.122-3.419,1.314-4.7,1.771L197.7,361.82v-.092a12.457,12.457,0,0,1,1.326-4.167l-20.436-.113c-8.125-.045-14.731-7.625-14.682-16.846S170.645,323.87,178.77,323.914Z" transform="translate(-145.085 -323.914)"/><path class="ab" d="M209.211,394.03c-.036,1.964-.072,3.946-.127,5.948-.236,10.621-.71,21.716-1.2,32.411,0,0-3.546,25.974-10.2,25.974a3.544,3.544,0,0,1-2.327-1.02c.563-5.455,1.235-10.657,2.072-15.3.183-1.073.4-2.11.6-3.073.109-.546.236-1.128.382-1.709.4-1.6.856-3.238,1.437-4.911-.017-.236-1.2-4.148-2.911-10.423-1.545-5.712-3.564-13.35-5.546-21.953q-.3-1.283-.6-2.62a338.66,338.66,0,0,1-6.4-36.432c-1.145-10.166-1.509-19.807-.472-27.664l18.643,4.784c-.274.091-.472.145-.546.181C208.374,339.627,209.666,364.418,209.211,394.03Z" transform="translate(-131.292 -317.267)"/><path class="b" d="M209.211,394.03c-.036,1.964-.072,3.946-.127,5.948h-17.7q-.3-1.283-.6-2.62a338.66,338.66,0,0,1-6.4-36.432c-1.145-10.166-1.509-19.807-.472-27.664l18.643,4.784c-.274.091-.472.145-.546.181C208.374,339.627,209.666,364.418,209.211,394.03Z" transform="translate(-131.292 -317.267)"/><path class="ac" d="M193.529,391.168a49.948,49.948,0,0,0-1.4,4.92c.388-1.612.856-3.251,1.422-4.92Z" transform="translate(-125.01 -276.085)"/><path class="ab" d="M220.441,337.143c.436,18.607-14.569,42.088-31.393,66.171-.546.763-1.073,1.545-1.638,2.31-6.311,9-12.8,18.078-18.825,26.973l-6.167-5.548,7.75-21.426,5.074-14.006,20.045-55.384c2.418-6.621,8.075-10.914,14.386-10.914a10.185,10.185,0,0,1,7.495,3.457A12.6,12.6,0,0,1,220.441,337.143Z" transform="translate(-146.142 -322.913)"/><path class="m" d="M161.946,415.456c4.316-5.1,10.205-11.814,13.4-25.125a123.49,123.49,0,0,1-8.174,14.206c-3.376,4.783-10.051-.231-7.437-5.59A81.41,81.41,0,0,1,169.18,384.8l-.051-.058c-9.62,9.162-13.174,13.888-15.965,25.44C151.564,416.809,157.782,420.382,161.946,415.456Z" transform="translate(-152.907 -280.655)"/><path class="ab" d="M164.582,404.513a123.5,123.5,0,0,0,8.174-14.206l-6.169-5.531a81.408,81.408,0,0,0-9.442,14.146C154.531,404.282,161.206,409.3,164.582,404.513Z" transform="translate(-150.314 -280.631)"/></g><g transform="translate(24.269 55.029)"><path class="o" d="M194.014,300.926a15.83,15.83,0,0,1-11.852-11.153,10.075,10.075,0,0,0,3.171-2.062.3.3,0,0,0-.106-.494.3.3,0,0,0-.2-.418,9.747,9.747,0,0,1-2.252-.9,5.384,5.384,0,0,1-1.7-1.242,16.04,16.04,0,0,0,3.036-2.283q2.21-1.8,4.321-3.71c.3-.274-.157-.708-.459-.436-1.191,1.073-2.4,2.127-3.635,3.147a18.189,18.189,0,0,1-3.508,2.7.332.332,0,0,0-.452.169c-.055.017-.108.044-.163.058-.4.1-.209.708.185.606.015,0,.031-.012.046-.015A4.1,4.1,0,0,0,181.9,286.1a10.153,10.153,0,0,0,2.861,1.275,9.359,9.359,0,0,1-3.171,1.958.33.33,0,0,0-.038.6,16.457,16.457,0,0,0,12.32,11.612A.318.318,0,0,0,194.014,300.926Z" transform="translate(-148.189 -277.591)"/><path class="o" d="M202.635,284.912a29.472,29.472,0,0,1-6.994-6.957c-.236-.33-.775,0-.537.334a30.416,30.416,0,0,0,6.937,6.958.273.273,0,0,0-.147.108c-.435.739-2.44.927-3.234,1.083a27.085,27.085,0,0,1-3.64.447.31.31,0,0,0-.139.573.27.27,0,0,0,.048.241,10.505,10.505,0,0,0,3.378,3.08,19.182,19.182,0,0,1-9.023,9.966c-.361.19-.026.727.334.539a19.681,19.681,0,0,0,9.343-10.423.325.325,0,0,0-.007-.26.27.27,0,0,0-.144-.255,9.743,9.743,0,0,1-3.261-2.878,26.958,26.958,0,0,0,3.984-.572c.946-.217,2.379-.322,2.918-1.237a.249.249,0,0,0,.019-.163A.319.319,0,0,0,202.635,284.912Z" transform="translate(-141.692 -277.818)"/><g transform="translate(0 70.991)"><path class="z" d="M214.882,324.008H189.563v-4.7l23.872,3.376Z" transform="translate(-141.383 -319.305)"/><rect class="z" width="48.18" height="4.702" transform="translate(48.18 4.702) rotate(180)"/></g></g><g transform="translate(49.529 4.212)"><path class="ab" d="M196.577,290.7l-6.092,12.264-4.726-14.37a15.773,15.773,0,0,1-.784-5.65l.082-2.012-.012-.341-.1-6.494,13.347-1.855-.036,5.366c-.007.975-.022,1.987-.086,2.974,0,.234.026,1.335.063,2.567a6.382,6.382,0,0,1-.012.83A15.745,15.745,0,0,1,196.577,290.7Z" transform="translate(-169.93 -230.97)"/><path class="t" d="M198.218,283.975a16.058,16.058,0,0,1-13.173-3.388l-.1-6.494,13.347-1.855-.036,5.366c-.007.975-.022,1.987-.086,2.974,0,.234.026,1.335.063,2.567A6.382,6.382,0,0,1,198.218,283.975Z" transform="translate(-169.93 -230.97)"/><path class="ab" d="M180,264.1a4.423,4.423,0,0,1,2.4,1.1,34.335,34.335,0,0,1,9.358-13.463,11.64,11.64,0,0,1,5.371-3.155,8.433,8.433,0,0,1,3.02-.441,27.692,27.692,0,0,1,3.943.577,8.379,8.379,0,0,1,2.767,1.287,11.644,11.644,0,0,1,4.245,4.559,34.342,34.342,0,0,1,5.116,15.578,4.427,4.427,0,0,1,2.618-.363c2.551.6,2.8,4.824,1.632,7.827-1.477,3.806-4.63,4.6-7.5,4.986a29.089,29.089,0,0,1-6.179,6.547,15.73,15.73,0,0,1-8.879,4.013c-.1.01-.193.017-.291.026-.19.014-.378.044-.57.05-.13,0-.258-.015-.387-.019-.11,0-.217-.01-.325-.015-.25-.015-.5-.034-.746-.074s-.491-.086-.734-.142c-.106-.026-.21-.05-.317-.079-.123-.034-.253-.053-.375-.092-.183-.062-.354-.144-.534-.212-.089-.034-.18-.068-.27-.106a15.732,15.732,0,0,1-7.363-6.39,29.005,29.005,0,0,1-4.045-8.036c-2.642-1.188-5.436-2.856-5.763-6.925C175.942,267.918,177.384,263.943,180,264.1Z" transform="translate(-176.169 -248.121)"/><g transform="translate(12.982 17.166)"><g transform="translate(5.235 14.566)"><path class="m" d="M190.874,271.558a6.789,6.789,0,0,0,5.353-4.23.472.472,0,1,0-.862-.382c-2.284,5.163-7.709,3.59-7.941,3.522a.47.47,0,0,0-.274.9A9.243,9.243,0,0,0,190.874,271.558Z" transform="translate(-186.815 -266.665)"/></g><g transform="translate(13.794 7.179)"><path class="m" d="M194.974,264.29a1.6,1.6,0,1,1-1.222-1.906A1.6,1.6,0,0,1,194.974,264.29Z" transform="translate(-191.817 -262.348)"/></g><g transform="translate(0.987 5.309)"><path class="m" d="M187.489,263.2a1.6,1.6,0,1,1-1.22-1.906A1.6,1.6,0,0,1,187.489,263.2Z" transform="translate(-184.332 -261.255)"/></g><g transform="translate(14.847 1.747)"><path class="m" d="M197.047,262.846l.05-.012a.47.47,0,0,0,.332-.578,3.89,3.89,0,0,0-4.627-3.007.471.471,0,0,0-.359.558.459.459,0,0,0,.558.364,2.984,2.984,0,0,1,3.516,2.332A.474.474,0,0,0,197.047,262.846Z" transform="translate(-192.432 -259.174)"/></g><path class="m" d="M189.419,259.71l.033-.039a.471.471,0,0,0-.111-.657,3.89,3.89,0,0,0-5.484.613.474.474,0,0,0,.077.66.458.458,0,0,0,.662-.074,2.984,2.984,0,0,1,4.2-.429A.471.471,0,0,0,189.419,259.71Z" transform="translate(-183.755 -258.153)"/><g transform="translate(4.884 9.649)"><path class="m" d="M188.436,268.421a.457.457,0,0,0,.137-.9c-.01,0-.869-.149-1.022-.647-.072-.229-.072-.909,1.41-2.29a.458.458,0,0,0-.625-.669c-1.388,1.294-1.932,2.351-1.658,3.231.327,1.054,1.7,1.27,1.756,1.278Z" transform="translate(-186.61 -263.791)"/></g></g></g><path class="m" d="M204.621,260.217c-.3-3.166-1.793-8.588-5.484-9.117l-.662.9c-1.254,5.382-.684,12.373,2.476,17.1C202.81,266.569,204.935,263.54,204.621,260.217Z" transform="translate(-111.217 -241.79)"/><path class="n" d="M239.724,314.735a11.108,11.108,0,0,1-4.861,17.818l-34.951,10.062-4.013-4.175,28.583-16.1-18.25-20.221c-5.318-5.893-8.024-10.457-5.993-18.131l.548-2.228a5.3,5.3,0,0,1,9.186-2.159Z" transform="translate(-112.608 -222.858)"/><path class="ab" d="M203.735,312.882s-17.546,1.408-17.346,12.408c0,0-.2,3.8,3.2-3.4,0,0,1.6-2.2,2.8-2,0,0-4.235,5.508-4.088,7.134.075.827,2.488,2.266,5.688-5.934,0,0-3.25,8.152.077,7.707l2.124-7.307-.351,6.567s2.365,3.03,2.75-5.768h0c.024.009.044.026.068.022,3.292-.5,5.919-1.34,7.986-4.095l.282-.726Z" transform="translate(-119.373 -197.853)"/><path class="m" d="M216.674,259.678a15.428,15.428,0,0,0-7.064-10.573,25.341,25.341,0,0,0-17.642-2.983c-8.57,1.715-13.9,12.5-12.1,20.8a16.8,16.8,0,0,1,.416,2.8c2.75-.091,5.363-2.416,7.385-4.044a30.4,30.4,0,0,0,6.689-7.062c-1.376,3.621,2.324,7.314,5,9.108-1.668-3.368,1.427-6.641,4.1-8.419.26,1.887-.205,3.34.787,5.219a22.834,22.834,0,0,0,2.065,3.224,18.026,18.026,0,0,1,3.879,10.7c1.733-.891,2.948-3.859,3.85-5.518C216,269.328,217.34,263.475,216.674,259.678Z" transform="translate(-124.258 -245.659)"/><path class="n" d="M181.232,266.015a1.9,1.9,0,1,1-1.9-1.894A1.9,1.9,0,0,1,181.232,266.015Z" transform="translate(-125.734 -232.53)"/><path class="n" d="M201.3,269.071a1.9,1.9,0,1,1-1.9-1.894A1.9,1.9,0,0,1,201.3,269.071Z" transform="translate(-111.466 -230.357)"/><path class="o" d="M178.948,308.843a.339.339,0,0,0-.318-.3c-2.1-3.487-4.208-7.214-3.072-11.432.784-2.9,2.6-5.31,3.236-8.282.121-.572-.755-.814-.878-.241-.8,3.765-3.561,6.958-3.631,10.9-.062,3.528,1.923,6.809,3.677,9.714.038.062.1.068.145.1,1.362,8.186,2.473,16.437-1.343,24.163-.258.522.525.984.785.458C181.5,325.925,180.368,317.351,178.948,308.843Z" transform="translate(-127.98 -215.361)"/><path class="b" d="M216.38,337.143c.436,18.607-14.569,42.088-31.393,66.171-.546.763-1.073,1.545-1.638,2.31l-15.221-5.164,3.053-8.842,20.045-55.384c2.418-6.621,8.075-10.914,14.386-10.914a10.185,10.185,0,0,1,7.495,3.457A12.6,12.6,0,0,1,216.38,337.143Z" transform="translate(-132.357 -189.007)"/></g><g transform="translate(1.978 130.624)"><g transform="translate(0 7.96)"><path class="m" d="M252.086,476.438h5.744l-24.172-149.79h-7.467Z" transform="translate(-37.691 -326.648)"/><path class="m" d="M237.725,476.438h5.744L219.3,326.648h-7.467Z" transform="translate(-47.905 -326.648)"/><path class="m" d="M121.776,476.438h-5.744L140.2,326.648h7.467Z" transform="translate(-116.032 -326.648)"/><path class="m" d="M136.137,476.438h-5.744l24.172-149.79h7.467Z" transform="translate(-105.819 -326.648)"/></g><path class="ad" d="M119.884,332.128H331.15c1.674,0,3.03-2.269,3.03-5.067h0c0-2.8-1.357-5.065-3.03-5.065H119.884c-1.674,0-3.03,2.269-3.03,5.065h0C116.854,329.859,118.211,332.128,119.884,332.128Z" transform="translate(-115.448 -321.996)"/></g><g transform="translate(0 47.791)"><path class="ae" d="M114.876,275.071h81.745L207.2,339.6H125.452Z" transform="translate(-114.876 -272.535)"/><path class="af" d="M130.041,289.106h37.531l4.856,29.628H134.9Z" transform="translate(-104.091 -262.553)"/><path class="ag" d="M151.974,290.234l2.036-2.713L158.69,317.3l-1.86,2.565Z" transform="translate(-88.493 -263.681)"/><path class="ag" d="M169.609,287.521H131.951l-1.91,2.713h37.531Z" transform="translate(-104.091 -263.681)"/><path class="ag" d="M173.224,340.656l1.763-2.689-10.136-64.379-2.2,2.536Z" transform="translate(-80.903 -273.589)"/><path class="ag" d="M198.825,273.589H116.858l-1.981,2.536h81.745Z" transform="translate(-114.876 -273.589)"/><path class="ah" d="M133.488,318.661h41.893a5.532,5.532,0,0,1,5.53,5.532H127.956A5.533,5.533,0,0,1,133.488,318.661Z" transform="translate(-105.574 -241.535)"/><path class="ai" d="M162.5,334.848l-2.243-28.28A11.583,11.583,0,0,0,148.711,295.9h0a11.583,11.583,0,0,0-11.547,10.667l-2.243,28.28Z" transform="translate(-100.622 -257.722)"/></g></g><g transform="translate(512.794 214.819)"><g transform="translate(38.966)"><path class="aj" d="M409.307,297.992c.123-6.105,2.521-12.651,7.765-16.044,6.36-4.115,13.065-.4,19.411,2.512-1.863-4.774-7.469-6.126-11.33-8.758,17.023-11.1,39-8.547,39-8.547s12.991,15.2,13.6,22.327c-3.669-.859-7.276-2.091-11.094-2.553,3.65,1.338,9.223,6.845,10.97,11.884,1.47,4.233-1.682,11.739-3.694,15.746-3.98,7.919-17.25,22.779-26.395,12.329-7.632-8.72-4.252-20.8-19.735-17.023C416.216,312.693,409.016,312.45,409.307,297.992Z" transform="translate(-409.298 -266.902)"/><path class="b" d="M415.851,385.537c-.688-20.9-1.289-42.356,4.863-62.593a123.407,123.407,0,0,1,9.41-22.635c-1.711-1.039-3.21-2.755-4.887-3.749a27.96,27.96,0,0,0-9.011-3.333c-1.032-.2-.558-1.764.469-1.566a29.762,29.762,0,0,1,7.952,2.71,27.353,27.353,0,0,1,3.506,2.141c.844.606,1.8,1.634,2.781,2.319.693-1.22,1.4-2.42,2.13-3.58.257-.406.556-.792.828-1.191a33.523,33.523,0,0,0-8.623-8.773c-.859-.6-.014-2,.85-1.395a35.681,35.681,0,0,1,8.751,8.754,69.892,69.892,0,0,1,6.33-7.334,40.728,40.728,0,0,0-5.212-10.551c-.594-.869.84-1.655,1.431-.794a42.057,42.057,0,0,1,5.044,10.056c2.332-2.324,4.755-4.57,7.139-6.8q-1.707-3.4-3.162-6.915c-.4-.962,1.028-1.764,1.429-.794.912,2.218,1.913,4.393,2.979,6.538,1.406-1.321,2.8-2.64,4.119-3.965.744-.744,1.877.433,1.135,1.177-1.229,1.229-2.515,2.455-3.821,3.686q4.7.29,9.408.578c1.046.065,1,1.7-.051,1.634l-10.176-.626a.768.768,0,0,1-.568-.281c-2.314,2.168-4.67,4.358-6.942,6.622a49.252,49.252,0,0,1,8.9,1.333c2.628.611,5.322,1.04,7.363,2.918.777.714-.406,1.843-1.176,1.135-1.975-1.814-5.163-2.163-7.692-2.722a41.645,41.645,0,0,0-8.688-1.087.7.7,0,0,1-.205-.044,72.009,72.009,0,0,0-5.642,6.463c8.171.833,16.28,2.363,22.546,8.1.779.712-.4,1.841-1.176,1.135-6.212-5.683-14.422-6.935-22.5-7.705-.667.95-1.312,1.91-1.891,2.9-.428.731-.839,1.478-1.253,2.221,3.96.9,8.167,1.564,11.694,3.662a25.668,25.668,0,0,1,7.442,7.341c.616.852-.82,1.636-1.429.794a22.817,22.817,0,0,0-7.74-7.231c-3.285-1.7-7.19-2.245-10.761-3.073l-.034,0a121.193,121.193,0,0,0-10.187,25.01c-5.344,19.338-4.692,39.709-4.04,59.566C417.518,386.639,415.885,386.586,415.851,385.537Z" transform="translate(-404.934 -265.354)"/></g><g transform="translate(0 27.303)"><path class="aj" d="M441.831,307.885c-.1-4.914-2.028-10.183-6.249-12.916-5.12-3.313-10.517-.318-15.626,2.023,1.5-3.843,6.013-4.93,9.12-7.05-13.7-8.932-31.395-6.881-31.395-6.881s-10.457,12.235-10.95,17.972a83.535,83.535,0,0,1,8.931-2.055c-2.938,1.078-7.423,5.51-8.831,9.567-1.182,3.407,1.355,9.449,2.976,12.675,3.2,6.374,13.884,18.337,21.246,9.925,6.143-7.019,3.422-16.742,15.885-13.7C436.269,319.718,442.065,319.523,441.831,307.885Z" transform="translate(-386.526 -282.858)"/><path class="b" d="M429.306,378.354c.553-16.824,1.037-34.1-3.915-50.384a99.341,99.341,0,0,0-7.575-18.221c1.377-.835,2.584-2.218,3.934-3.017A22.517,22.517,0,0,1,429,304.048c.83-.161.448-1.42-.378-1.259a23.927,23.927,0,0,0-6.4,2.182,21.9,21.9,0,0,0-2.823,1.723c-.678.488-1.451,1.316-2.238,1.867-.558-.984-1.126-1.949-1.715-2.882-.207-.327-.447-.638-.666-.96a26.993,26.993,0,0,1,6.94-7.062c.691-.483.01-1.608-.684-1.122a28.772,28.772,0,0,0-7.045,7.048,56.473,56.473,0,0,0-5.094-5.905,32.816,32.816,0,0,1,4.194-8.493c.479-.7-.674-1.331-1.15-.638a33.863,33.863,0,0,0-4.062,8.1c-1.877-1.872-3.828-3.679-5.744-5.472q1.373-2.736,2.545-5.566c.32-.773-.828-1.42-1.15-.638-.734,1.785-1.54,3.535-2.4,5.264-1.131-1.064-2.25-2.127-3.315-3.191-.6-.6-1.511.347-.912.946.987.989,2.024,1.976,3.075,2.967q-3.788.234-7.574.465c-.842.053-.808,1.367.041,1.316l8.191-.5A.624.624,0,0,0,401.1,292c1.862,1.744,3.759,3.506,5.59,5.33a39.613,39.613,0,0,0-7.165,1.071c-2.117.493-4.285.838-5.928,2.349-.625.575.325,1.484.946.912,1.588-1.46,4.155-1.74,6.191-2.19a33.46,33.46,0,0,1,6.994-.874.68.68,0,0,0,.164-.036,57.959,57.959,0,0,1,4.543,5.2c-6.578.671-13.106,1.9-18.15,6.516-.626.573.325,1.482.948.914,5-4.574,11.607-5.582,18.111-6.2.536.763,1.056,1.535,1.521,2.332.344.589.676,1.189,1.01,1.788-3.188.726-6.576,1.258-9.415,2.947a20.708,20.708,0,0,0-5.991,5.91c-.495.686.662,1.316,1.152.638a18.386,18.386,0,0,1,6.229-5.821c2.645-1.365,5.789-1.807,8.664-2.473l.027,0a97.641,97.641,0,0,1,8.2,20.132c4.3,15.565,3.777,31.965,3.251,47.947C427.963,379.24,429.277,379.2,429.306,378.354Z" transform="translate(-382.78 -281.612)"/></g><g transform="translate(49.115 35.667)"><path class="aj" d="M420.7,305.188c1.312-4.969,4.572-9.848,9.536-11.585,6.018-2.1,10.765,2.269,15.38,5.907-.577-4.275-4.894-6.492-7.531-9.411,16.128-5.7,33.6.746,33.6.746s7.611,15.012,6.7,20.963a86.78,86.78,0,0,0-8.568-4.288c2.721,1.817,6.186,7.428,6.617,11.9.361,3.754-3.706,9.269-6.148,12.148-4.827,5.688-18.63,15.211-24.039,4.848-4.512-8.647.65-17.858-12.765-17.842C423.439,318.585,417.6,316.957,420.7,305.188Z" transform="translate(-411.93 -287.746)"/><path class="b" d="M415.246,378.8c3.587-17.235,7.351-34.9,16.4-50.238a103.851,103.851,0,0,1,12.19-16.648c-1.194-1.189-2.079-2.892-3.255-4.037a23.567,23.567,0,0,0-6.71-4.516c-.8-.368-.106-1.554.695-1.188a25.064,25.064,0,0,1,5.967,3.8,23.244,23.244,0,0,1,2.444,2.447c.568.664,1.15,1.694,1.814,2.449.809-.861,1.626-1.7,2.454-2.505.291-.282.611-.537.912-.811a28.218,28.218,0,0,0-5.311-8.888c-.583-.661.385-1.638.972-.972a30.043,30.043,0,0,1,5.423,8.9,58.564,58.564,0,0,1,6.632-4.745,34.281,34.281,0,0,0-2.17-9.665c-.315-.828,1.015-1.188,1.326-.366a35.392,35.392,0,0,1,2.132,9.228c2.368-1.439,4.8-2.794,7.189-4.144q-.721-3.119-1.215-6.283c-.133-.866,1.191-1.239,1.326-.366.306,2,.695,3.973,1.14,5.939,1.413-.8,2.811-1.605,4.156-2.425.758-.462,1.449.727.693,1.188-1.247.76-2.544,1.509-3.855,2.257q3.789,1.17,7.58,2.339c.844.262.483,1.59-.366,1.326l-8.2-2.531A.643.643,0,0,1,465.2,298c-2.322,1.314-4.685,2.639-6.993,4.04a41.375,41.375,0,0,1,7.016,2.856c2.029,1.022,4.146,1.908,5.445,3.848.493.738-.7,1.425-1.188.693-1.254-1.875-3.794-2.793-5.751-3.753a35.04,35.04,0,0,0-6.891-2.613.6.6,0,0,1-.159-.077,60.815,60.815,0,0,0-5.9,4.167c6.52,2.3,12.849,5.164,16.838,11.1.5.738-.695,1.425-1.188.695-3.953-5.881-10.419-8.534-16.877-10.767-.732.643-1.451,1.3-2.122,2-.493.513-.979,1.042-1.465,1.569,3.061,1.523,6.371,2.9,8.84,5.315a21.631,21.631,0,0,1,4.632,7.483c.334.818-1,1.176-1.328.364a19.185,19.185,0,0,0-4.9-7.45c-2.351-2.041-5.436-3.263-8.195-4.649l-.026-.009a102.021,102.021,0,0,0-13.3,18.438c-8.21,14.757-11.718,31.552-15.125,47.925C416.392,380.037,415.066,379.67,415.246,378.8Z" transform="translate(-415.229 -286.317)"/></g><g transform="translate(19.619 56.233)"><g transform="translate(22.248)"><path class="aj" d="M411,317.517c.072-3.487,1.439-7.225,4.434-9.162,3.633-2.35,7.461-.226,11.085,1.434-1.064-2.726-4.266-3.5-6.47-5,9.719-6.336,22.269-4.88,22.269-4.88s7.418,8.677,7.767,12.748a58.923,58.923,0,0,0-6.335-1.458c2.084.763,5.267,3.908,6.264,6.785.839,2.418-.96,6.7-2.11,8.992-2.273,4.521-9.849,13-15.07,7.04-4.358-4.979-2.428-11.877-11.268-9.721C414.944,325.91,410.832,325.772,411,317.517Z" transform="translate(-410.993 -299.765)"/><path class="b" d="M414.735,367.5c-.392-11.935-.736-24.186,2.777-35.739a70.324,70.324,0,0,1,5.373-12.924c-.977-.592-1.833-1.573-2.791-2.141a15.955,15.955,0,0,0-5.146-1.9c-.589-.115-.318-1.008.269-.893a16.975,16.975,0,0,1,4.54,1.547,15.719,15.719,0,0,1,2,1.222c.481.347,1.03.934,1.588,1.324.4-.7.8-1.383,1.217-2.043.145-.233.317-.453.472-.681a19.137,19.137,0,0,0-4.923-5.009c-.491-.344-.009-1.141.484-.8a20.4,20.4,0,0,1,5,5,39.714,39.714,0,0,1,3.614-4.189,23.306,23.306,0,0,0-2.976-6.023c-.34-.5.479-.945.815-.453a24.018,24.018,0,0,1,2.882,5.743c1.331-1.328,2.716-2.609,4.076-3.881q-.975-1.943-1.805-3.949c-.228-.549.587-1.008.814-.453.522,1.266,1.093,2.509,1.7,3.734.8-.755,1.595-1.508,2.351-2.264.426-.426,1.071.248.647.673-.7.7-1.436,1.4-2.18,2.1l5.371.33c.6.036.572.97-.029.933l-5.811-.358a.437.437,0,0,1-.323-.159c-1.321,1.237-2.668,2.488-3.965,3.78a28.152,28.152,0,0,1,5.082.762c1.5.349,3.037.594,4.2,1.665.443.407-.231,1.052-.672.649-1.126-1.035-2.947-1.236-4.391-1.555a23.769,23.769,0,0,0-4.961-.62.412.412,0,0,1-.116-.026A41.129,41.129,0,0,0,426.7,314.6c4.665.477,9.3,1.35,12.873,4.624.445.406-.229,1.051-.671.647-3.547-3.244-8.234-3.96-12.847-4.4-.38.544-.749,1.092-1.08,1.656-.243.416-.477.844-.715,1.268,2.262.515,4.665.892,6.679,2.089a14.694,14.694,0,0,1,4.249,4.192c.351.488-.469.934-.816.453a13.021,13.021,0,0,0-4.42-4.129,26.158,26.158,0,0,0-6.145-1.754l-.019,0a69.224,69.224,0,0,0-5.816,14.28c-3.051,11.042-2.68,22.675-2.307,34.011C415.688,368.131,414.755,368.1,414.735,367.5Z" transform="translate(-408.501 -298.881)"/></g><g transform="translate(0 15.59)"><path class="aj" d="M429.569,323.165c-.057-2.806-1.157-5.815-3.568-7.373-2.924-1.893-6-.183-8.922,1.153.857-2.194,3.433-2.815,5.207-4.025-7.823-5.1-17.926-3.929-17.926-3.929s-5.97,6.987-6.251,10.262a47.865,47.865,0,0,1,5.1-1.174,10.556,10.556,0,0,0-5.043,5.462c-.676,1.946.773,5.4,1.7,7.238,1.828,3.64,7.926,10.469,12.13,5.666,3.508-4.008,1.954-9.559,9.071-7.823C426.393,329.921,429.7,329.809,429.569,323.165Z" transform="translate(-397.991 -308.875)"/><path class="b" d="M422.417,363.4c.315-9.606.592-19.468-2.235-28.768a56.779,56.779,0,0,0-4.326-10.4c.785-.477,1.475-1.266,2.247-1.723a12.851,12.851,0,0,1,4.141-1.531c.474-.092.257-.811-.216-.72a13.672,13.672,0,0,0-3.655,1.246,12.713,12.713,0,0,0-1.612.984c-.387.279-.828.751-1.278,1.066-.318-.561-.643-1.112-.979-1.644-.118-.188-.255-.365-.38-.548a15.4,15.4,0,0,1,3.963-4.033c.4-.275.007-.919-.39-.642a16.4,16.4,0,0,0-4.023,4.025,32.2,32.2,0,0,0-2.909-3.371,18.7,18.7,0,0,1,2.4-4.849c.274-.4-.387-.76-.657-.365a19.333,19.333,0,0,0-2.319,4.622c-1.073-1.068-2.187-2.1-3.282-3.125q.785-1.561,1.454-3.178c.181-.441-.472-.811-.657-.365-.419,1.02-.879,2.019-1.369,3-.647-.608-1.285-1.213-1.894-1.822-.342-.342-.862.2-.52.541.565.565,1.157,1.129,1.756,1.7q-2.161.131-4.324.265c-.481.029-.46.78.024.751l4.677-.287a.36.36,0,0,0,.262-.13c1.063,1,2.146,2,3.191,3.044a22.563,22.563,0,0,0-4.091.613,7.023,7.023,0,0,0-3.385,1.34c-.356.329.186.847.541.522.907-.833,2.372-.994,3.535-1.251a19.15,19.15,0,0,1,3.992-.5.342.342,0,0,0,.1-.021,32.915,32.915,0,0,1,2.592,2.971c-3.756.383-7.483,1.085-10.363,3.72-.358.327.185.847.541.522,2.854-2.611,6.627-3.188,10.341-3.54.306.436.6.876.869,1.331.2.335.385.679.577,1.022a18.236,18.236,0,0,0-5.376,1.682,11.806,11.806,0,0,0-3.419,3.374c-.282.392.376.751.655.365a10.5,10.5,0,0,1,3.557-3.323,21.106,21.106,0,0,1,4.947-1.413h.015a55.731,55.731,0,0,1,4.682,11.494c2.456,8.888,2.156,18.251,1.857,27.377C421.651,363.906,422.4,363.882,422.417,363.4Z" transform="translate(-395.852 -308.163)"/></g><g transform="translate(28.044 20.365)"><path class="aj" d="M417.505,321.625c.749-2.837,2.611-5.623,5.445-6.614,3.438-1.2,6.146,1.294,8.782,3.371-.329-2.44-2.794-3.706-4.3-5.373,9.209-3.255,19.186.426,19.186.426s4.346,8.571,3.824,11.97a49.792,49.792,0,0,0-4.892-2.449,11.043,11.043,0,0,1,3.778,6.793c.205,2.144-2.117,5.293-3.511,6.935-2.755,3.248-10.637,8.686-13.725,2.769-2.575-4.937.371-10.2-7.288-10.187C419.067,329.274,415.732,328.345,417.505,321.625Z" transform="translate(-412.497 -311.666)"/><path class="b" d="M414.39,363.657c2.047-9.839,4.2-19.928,9.362-28.684a59.274,59.274,0,0,1,6.961-9.506c-.683-.678-1.188-1.651-1.858-2.3a13.446,13.446,0,0,0-3.831-2.577c-.459-.21-.06-.888.4-.679a14.3,14.3,0,0,1,3.407,2.168,13.111,13.111,0,0,1,1.395,1.4c.325.378.657.969,1.037,1.4.46-.491.928-.972,1.4-1.431.166-.161.349-.306.522-.462a16.11,16.11,0,0,0-3.034-5.075c-.334-.378.221-.934.556-.554a17.179,17.179,0,0,1,3.1,5.08,33.474,33.474,0,0,1,3.787-2.709,19.591,19.591,0,0,0-1.239-5.519c-.18-.472.578-.678.758-.209a20.275,20.275,0,0,1,1.217,5.269c1.352-.821,2.74-1.595,4.1-2.365-.274-1.189-.508-2.384-.693-3.588-.075-.495.681-.708.758-.209.175,1.138.4,2.267.65,3.391.806-.459,1.605-.917,2.373-1.386.433-.263.827.416.4.678-.712.435-1.453.862-2.2,1.29l4.328,1.335c.481.149.276.907-.209.758l-4.682-1.446a.369.369,0,0,1-.234-.2c-1.326.749-2.675,1.506-3.992,2.307a23.675,23.675,0,0,1,4.006,1.631,7.338,7.338,0,0,1,3.109,2.2c.281.421-.4.815-.679.4-.715-1.071-2.165-1.595-3.284-2.144a19.907,19.907,0,0,0-3.934-1.49.444.444,0,0,1-.091-.045,34.5,34.5,0,0,0-3.368,2.379c3.722,1.316,7.336,2.948,9.613,6.336.284.421-.4.814-.678.4-2.257-3.357-5.95-4.872-9.636-6.147-.419.368-.83.743-1.212,1.14-.282.293-.56.6-.837.895a19.013,19.013,0,0,1,5.046,3.036,12.352,12.352,0,0,1,2.646,4.271c.19.469-.57.672-.758.209a10.978,10.978,0,0,0-2.8-4.254,21.963,21.963,0,0,0-4.678-2.654l-.015-.005a58.328,58.328,0,0,0-7.591,10.527c-4.687,8.427-6.691,18.017-8.636,27.363C415.044,364.36,414.287,364.152,414.39,363.657Z" transform="translate(-414.38 -310.85)"/></g><g transform="translate(3.726 39.538)"><path class="aj" d="M420.823,329.109a5.836,5.836,0,0,0-3.41-4.143c-2.153-.753-3.85.811-5.5,2.112.207-1.528,1.751-2.322,2.693-3.366-5.767-2.038-12.016.267-12.016.267s-2.721,5.368-2.394,7.5a30.813,30.813,0,0,1,3.063-1.533,6.9,6.9,0,0,0-2.365,4.254c-.13,1.343,1.324,3.314,2.2,4.345,1.727,2.033,6.662,5.438,8.6,1.733,1.614-3.092-.231-6.386,4.565-6.381C419.844,333.9,421.933,333.317,420.823,329.109Z" transform="translate(-400.169 -322.87)"/><path class="b" d="M422.9,355.432c-1.282-6.164-2.628-12.481-5.862-17.964a37.084,37.084,0,0,0-4.36-5.953c.428-.426.744-1.035,1.164-1.444a8.435,8.435,0,0,1,2.4-1.615c.287-.13.039-.554-.248-.424a9.048,9.048,0,0,0-2.134,1.357,8.283,8.283,0,0,0-.873.876c-.2.236-.411.606-.649.874-.289-.308-.582-.607-.878-.895-.1-.1-.219-.193-.327-.289a10.084,10.084,0,0,1,1.9-3.179c.209-.236-.137-.585-.347-.347a10.8,10.8,0,0,0-1.939,3.183,20.982,20.982,0,0,0-2.372-1.7,12.214,12.214,0,0,1,.777-3.455c.111-.3-.363-.424-.476-.132a12.682,12.682,0,0,0-.762,3.3c-.847-.513-1.716-1-2.57-1.48.171-.744.318-1.492.435-2.249.048-.31-.426-.443-.474-.13-.111.714-.25,1.42-.409,2.124-.5-.286-1-.573-1.485-.868a.246.246,0,0,0-.248.424c.447.272.91.541,1.379.808l-2.711.837c-.3.092-.175.568.13.474l2.933-.905a.234.234,0,0,0,.145-.122c.83.469,1.675.943,2.5,1.444a14.669,14.669,0,0,0-2.508,1.021,4.577,4.577,0,0,0-1.946,1.376c-.178.263.248.51.424.248a4.943,4.943,0,0,1,2.055-1.342,12.509,12.509,0,0,1,2.464-.934.371.371,0,0,0,.058-.027,21.539,21.539,0,0,1,2.108,1.489c-2.331.825-4.594,1.846-6.02,3.968-.178.264.248.51.424.248,1.413-2.1,3.725-3.051,6.035-3.85.262.231.519.465.758.714.176.183.349.373.524.561a11.919,11.919,0,0,0-3.16,1.9,7.725,7.725,0,0,0-1.656,2.675c-.12.294.356.421.474.132a6.886,6.886,0,0,1,1.751-2.664,13.786,13.786,0,0,1,2.931-1.663l.009,0a36.474,36.474,0,0,1,4.755,6.593c2.935,5.277,4.189,11.283,5.407,17.137C422.487,355.872,422.961,355.74,422.9,355.432Z" transform="translate(-399.113 -322.36)"/></g></g><path class="ak" d="M444.042,415.978c0-16.843-3.042-31.848-7.787-41.561a80.443,80.443,0,0,1-7.906-35.337h-9.73a80.42,80.42,0,0,1-7.906,35.337c-4.745,9.713-7.788,24.718-7.788,41.561,0,23.344,5.847,43.152,13.967,50.241v3.744h13.183V466.22C438.195,459.13,444.042,439.322,444.042,415.978Z" transform="translate(-374.864 -215.572)"/></g></svg>