<svg xmlns="http://www.w3.org/2000/svg" xmlns:xlink="http://www.w3.org/1999/xlink" width="1366" height="768.465" viewBox="0 0 1366 768.465"><defs><style>.a,.b{mix-blend-mode:multiply;isolation:isolate;}.a{fill:url(#a);}.b{fill:url(#b);}</style><linearGradient id="a" x1="0.281" y1="0.792" x2="0.727" y2="0.199" gradientUnits="objectBoundingBox"><stop offset="0" stop-color="#66a8de"/><stop offset="0.171" stop-color="#84b9e4"/><stop offset="0.566" stop-color="#c6def2"/><stop offset="0.853" stop-color="#eff6fb"/><stop offset="1" stop-color="#fff"/></linearGradient><linearGradient id="b" x1="0.314" y1="0.749" x2="0.712" y2="0.218" xlink:href="#a"/></defs><g transform="translate(-21.922 0)"><path class="a" d="M1440.218,843.453H75.919V76.918c63.247-8.551,124.631,11.409,146.512,57.725,20.389,43.148,19.38,95.8,82.541,119.012,44.1,16.208,94.576,6.359,140.836,2.565,49.391-4.05,103.477,2.293,146.835,22.475,51.923,24.172,69.909,62.906,91.452,103.352,28.186,52.916,74.959,94.759,153.566,104.315,91.265,11.092,217.268-2.047,293.413,45.018,63.281,39.113,44.958,111.031,96.015,156.536C1295.572,748.956,1460.4,716.8,1440.218,843.453Z" transform="translate(-53.997 -74.987)"/><path class="b" d="M1377.573,816.721H75.919V99.758c60.113-8,123.408,10.671,144.2,53.989,19.377,40.359,18.42,89.608,78.452,111.316,41.913,15.158,89.89,5.948,133.856,2.4,46.945-3.788,98.349,2.141,139.561,21.02,49.351,22.607,66.445,58.838,86.921,96.67,26.789,49.492,71.244,88.631,145.957,97.567,86.74,10.376,206.5-1.913,278.876,42.107,60.145,36.583,42.728,103.848,91.255,146.412C1240.091,728.335,1396.759,698.262,1377.573,816.721Z" transform="translate(-53.997 -48.255)"/></g></svg>