<svg width="558" height="522" viewBox="0 0 558 522" fill="none" xmlns="http://www.w3.org/2000/svg">
<path d="M531.038 350.992H327.349V233.006H531.038V350.992ZM328.592 349.748H529.795V234.25H328.592V349.748Z" fill="#E0E0E0"/>
<path d="M489.023 295.917H354.607V299.863H489.023V295.917Z" fill="#F0F0F0"/>
<path d="M498.28 310.624H354.607V314.929H498.28V310.624Z" fill="#F0F0F0"/>
<path d="M498.28 325.502H354.607V329.808H498.28V325.502Z" fill="#F0F0F0"/>
<path d="M401.584 274.559H354.607V284.796H401.584V274.559Z" fill="#F0F0F0"/>
<path d="M530.416 233.628H327.971V252.412H530.416V233.628Z" fill="#E0E0E0"/>
<path d="M514.838 249.605C514.58 249.356 517.189 246.209 520.663 242.573C524.138 238.937 527.168 236.189 527.427 236.436C527.685 236.684 525.076 239.831 521.599 243.468C518.123 247.106 515.097 249.854 514.838 249.605Z" fill="white"/>
<path d="M527.427 249.605C527.169 249.854 524.14 247.105 520.665 243.468C517.189 239.832 514.574 236.684 514.839 236.436C515.104 236.189 518.123 238.935 521.6 242.573C525.076 246.21 527.686 249.356 527.427 249.605Z" fill="white"/>
<path d="M280.363 0H77.9165V116.744H280.363V0Z" fill="#E6E6E6"/>
<path d="M238.967 62.2887H104.552V66.2347H238.967V62.2887Z" fill="#F0F0F0"/>
<path d="M248.226 76.9954H104.552V81.2996H248.226V76.9954Z" fill="#F0F0F0"/>
<path d="M248.226 91.8724H104.552V96.1767H248.226V91.8724Z" fill="#F0F0F0"/>
<path d="M151.529 40.9303H104.552V51.1673H151.529V40.9303Z" fill="#F0F0F0"/>
<path d="M280.363 0H77.9165V18.782H280.363V0Z" fill="#E0E0E0"/>
<path d="M264.09 15.8872C263.832 15.6384 266.441 12.4911 269.917 8.85482C273.392 5.21859 276.42 2.47057 276.679 2.71688C276.937 2.9632 274.329 6.11302 270.853 9.7505C267.376 13.388 264.349 16.1348 264.09 15.8872Z" fill="white"/>
<path d="M276.679 15.8872C276.42 16.136 273.393 13.3855 269.918 9.75053C266.442 6.11554 263.827 2.96447 264.091 2.71691C264.354 2.46935 267.376 5.21737 270.853 8.85485C274.329 12.4923 276.937 15.6397 276.679 15.8872Z" fill="white"/>
<path d="M203.689 216.875H0V98.8862H203.689V216.875ZM1.24304 215.631H202.446V100.13H1.24304V215.631Z" fill="#E0E0E0"/>
<path d="M161.673 161.797H27.2563V165.743H161.673V161.797Z" fill="#F0F0F0"/>
<path d="M170.931 176.505H27.2563V180.809H170.931V176.505Z" fill="#F0F0F0"/>
<path d="M170.931 191.382H27.2563V195.686H170.931V191.382Z" fill="#F0F0F0"/>
<path d="M74.2334 140.438H27.2563V150.677H74.2334V140.438Z" fill="#F0F0F0"/>
<path d="M203.067 99.5094H0.621582V118.293H203.067V99.5094Z" fill="#E0E0E0"/>
<path d="M211.737 176.448H24.4878V371.146H211.737V176.448Z" fill="#F0F0F0"/>
<path d="M211.737 176.448H24.4878V197.662H211.737V176.448Z" fill="#E0E0E0"/>
<path d="M39.9511 186.838C39.917 187.608 39.6574 188.352 39.2046 188.977C38.7519 189.601 38.1258 190.079 37.4041 190.35C36.6825 190.622 35.897 190.675 35.1453 190.503C34.3936 190.332 33.7088 189.944 33.1758 189.386C32.6429 188.829 32.2853 188.127 32.1474 187.368C32.0096 186.608 32.0975 185.826 32.4004 185.116C32.7033 184.407 33.2077 183.802 33.8511 183.377C34.4944 182.951 35.2484 182.725 36.0193 182.725C37.0856 182.749 38.0988 183.195 38.8361 183.966C39.5734 184.738 39.9744 185.77 39.9511 186.838Z" fill="white"/>
<path d="M55.8969 186.838C55.8628 187.608 55.6032 188.352 55.1504 188.977C54.6975 189.601 54.0713 190.079 53.3496 190.35C52.6279 190.622 51.8424 190.675 51.0907 190.503C50.339 190.332 49.6541 189.943 49.1212 189.386C48.5883 188.828 48.2308 188.126 48.0931 187.367C47.9554 186.608 48.0435 185.825 48.3466 185.115C48.6496 184.406 49.1542 183.801 49.7978 183.376C50.4413 182.951 51.1954 182.725 51.9664 182.725C53.0324 182.749 54.0453 183.196 54.7823 183.967C55.5193 184.738 55.9202 185.771 55.8969 186.838Z" fill="white"/>
<path d="M71.8437 186.838C71.8096 187.608 71.55 188.352 71.0972 188.977C70.6444 189.601 70.0183 190.079 69.2967 190.35C68.575 190.622 67.7896 190.675 67.0379 190.503C66.2862 190.332 65.6014 189.944 65.0684 189.386C64.5355 188.829 64.1779 188.127 64.04 187.368C63.9021 186.608 63.9901 185.826 64.293 185.116C64.5958 184.407 65.1003 183.802 65.7436 183.377C66.387 182.951 67.141 182.725 67.9119 182.725C68.9782 182.749 69.9913 183.195 70.7286 183.966C71.4659 184.738 71.867 185.77 71.8437 186.838Z" fill="white"/>
<path d="M504.307 42.5836H265.265V281.011H504.307V42.5836Z" fill="#F0F0F0"/>
<path d="M504.307 42.5836H265.265V70.5116H504.307V42.5836Z" fill="#E0E0E0"/>
<path d="M285.623 56.2602C285.578 57.275 285.236 58.2541 284.64 59.0763C284.044 59.8984 283.22 60.5272 282.27 60.8847C281.32 61.2421 280.286 61.3125 279.296 61.087C278.307 60.8615 277.405 60.3501 276.704 59.6163C276.002 58.8825 275.531 57.9587 275.349 56.9594C275.168 55.9601 275.283 54.9294 275.682 53.9953C276.08 53.0612 276.744 52.2648 277.591 51.705C278.438 51.1452 279.43 50.8466 280.445 50.8463C281.849 50.878 283.183 51.466 284.153 52.4811C285.124 53.4962 285.653 54.8555 285.623 56.2602Z" fill="white"/>
<path d="M305.1 52.5991C305.785 53.3485 306.235 54.2828 306.394 55.2859C306.553 56.2891 306.415 57.3169 305.995 58.2419C305.576 59.1668 304.894 59.9481 304.035 60.4887C303.176 61.0294 302.177 61.3055 301.162 61.2829C300.147 61.2603 299.162 60.94 298.327 60.3616C297.493 59.7833 296.847 58.9724 296.469 58.0297C296.091 57.087 295.998 56.054 296.202 55.059C296.405 54.0639 296.896 53.1506 297.614 52.4324C298.629 51.4613 299.988 50.9334 301.391 50.9646C302.795 50.9959 304.129 51.5838 305.1 52.5991Z" fill="white"/>
<path d="M327.61 56.2602C327.566 57.275 327.224 58.2542 326.628 59.0764C326.032 59.8985 325.208 60.5273 324.258 60.8848C323.308 61.2422 322.273 61.3125 321.284 61.0869C320.294 60.8613 319.393 60.3498 318.691 59.6159C317.989 58.882 317.518 57.958 317.337 56.9586C317.155 55.9592 317.271 54.9285 317.67 53.9944C318.069 53.0603 318.733 52.264 319.58 51.7044C320.427 51.1447 321.419 50.8463 322.434 50.8463C323.838 50.8783 325.171 51.4664 326.142 52.4815C327.112 53.4966 327.64 54.8557 327.61 56.2602Z" fill="white"/>
<path d="M452.668 521.335C452.668 521.514 366.352 521.66 259.902 521.66C153.413 521.66 67.1157 521.514 67.1157 521.335C67.1157 521.156 153.413 521.012 259.902 521.012C366.348 521.012 452.668 521.157 452.668 521.335Z" fill="#263238"/>
<path d="M412.516 31.8777L406.11 34.1704L403.375 25.7982C398.324 10.3588 382.201 2.0974 367.451 7.37572C352.701 12.654 344.808 29.5191 349.858 44.9559L352.593 53.3281L346.166 55.6283C343.717 56.5803 341.727 58.44 340.612 60.8212C339.497 63.2024 339.34 65.9221 340.176 68.4154L357.996 122.892C358.365 124.126 358.978 125.274 359.8 126.267C360.621 127.259 361.633 128.076 362.776 128.669C363.919 129.263 365.17 129.619 366.454 129.719C367.738 129.818 369.028 129.659 370.249 129.249L436.595 105.497C439.075 104.545 441.09 102.669 442.217 100.262C443.344 97.8554 443.496 95.1054 442.641 92.589L424.825 38.1127C424.445 36.8815 423.822 35.7395 422.991 34.7548C422.161 33.77 421.141 32.9626 419.993 32.3807C418.844 31.7989 417.59 31.4545 416.306 31.368C415.021 31.2816 413.732 31.4549 412.516 31.8777ZM361.948 40.628C360.588 36.6131 360.832 32.2273 362.629 28.3883C364.426 24.5492 367.637 21.5546 371.59 20.031C373.544 19.3629 375.611 19.0954 377.67 19.2445C379.729 19.3936 381.737 19.9563 383.574 20.8989C385.411 21.8415 387.039 23.1448 388.361 24.731C389.684 26.3172 390.674 28.1538 391.271 30.1311L394.006 38.502L364.683 49.0002L361.948 40.628ZM399.25 88.9615L403.801 102.873C403.888 103.153 403.862 103.455 403.729 103.715C403.596 103.975 403.366 104.173 403.089 104.266L396.721 106.546C396.591 106.588 396.455 106.604 396.319 106.593C396.183 106.582 396.051 106.544 395.93 106.481C395.809 106.419 395.702 106.333 395.614 106.229C395.526 106.124 395.46 106.004 395.419 105.874L390.867 91.962C388.332 91.8308 385.898 90.926 383.892 89.3692C381.886 87.8125 380.405 85.6784 379.646 83.254C378.566 80.0554 378.764 76.5625 380.198 73.5065C381.632 70.4504 384.192 68.068 387.342 66.8579C388.896 66.3247 390.542 66.1102 392.181 66.2272C393.82 66.3443 395.419 66.7906 396.882 67.5394C398.345 68.2883 399.642 69.3243 400.697 70.5858C401.751 71.8473 402.54 73.3083 403.018 74.8818C403.829 77.3408 403.904 79.9833 403.235 82.4847C402.566 84.986 401.181 87.2371 399.25 88.9615Z" fill="#E8505B"/>
<path d="M405.831 34.0186C405.89 34.1878 393.96 38.6575 379.182 44.003C364.405 49.3485 352.374 53.5471 352.313 53.3779C352.252 53.2087 364.181 48.7402 378.962 43.3935C393.743 38.0467 405.77 33.8519 405.831 34.0186Z" fill="#263238"/>
<path d="M419.923 36.3126C419.984 36.4152 420.032 36.5246 420.066 36.6385C420.161 36.8873 420.28 37.2132 420.428 37.6138L421.756 41.3844C422.894 44.7171 424.523 49.453 426.522 55.2912C428.518 61.184 430.887 68.1778 433.516 75.9417C434.815 79.8391 436.235 83.8884 437.595 88.1653C438.334 90.3614 438.651 92.6782 438.527 94.9924C438.424 96.1953 438.082 97.3655 437.521 98.4346C436.926 99.5025 436.127 100.444 435.172 101.206C433.256 102.612 431.125 103.701 428.863 104.429L422.455 106.733L410.34 111.072L389.812 118.387L375.953 123.266L372.176 124.561L371.181 124.882C371.071 124.927 370.955 124.956 370.837 124.97C370.938 124.908 371.046 124.857 371.159 124.82L372.125 124.438L375.863 123.029L389.652 117.957L410.131 110.511L422.234 106.136L428.635 103.825C430.829 103.118 432.897 102.064 434.758 100.702C435.647 99.9938 436.391 99.1193 436.947 98.1273C437.466 97.1337 437.783 96.0471 437.88 94.9302C437.997 92.6978 437.692 90.4635 436.98 88.3444C435.642 84.1148 434.223 80.0233 432.944 76.1308C430.365 68.3532 428.047 61.3408 426.086 55.4355C424.168 49.5712 422.606 44.8104 421.513 41.464L420.3 37.6549C420.176 37.2468 420.078 36.9184 420.001 36.6597C419.96 36.5478 419.934 36.4311 419.923 36.3126Z" fill="#263238"/>
<path d="M384.922 19.1577C384.89 19.2124 384.262 18.8231 383.041 18.3304C381.305 17.6671 379.471 17.2991 377.614 17.2419C374.866 17.1437 372.13 17.6609 369.608 18.7559C366.528 20.1156 363.894 22.3183 362.01 25.1103C360.11 27.8937 359.092 31.1853 359.089 34.556C359.122 37.316 359.548 40.0572 360.354 42.6968C361.009 44.9684 361.679 46.7697 362.121 48.0224C362.385 48.6596 362.6 49.3164 362.763 49.9867C362.417 49.3889 362.123 48.7621 361.884 48.1132C361.371 46.8879 360.634 45.1065 359.916 42.8274C359.03 40.1559 358.55 37.3664 358.492 34.5523C358.465 31.0556 359.506 27.6339 361.476 24.7458C363.428 21.854 366.17 19.5845 369.374 18.2073C371.983 17.1041 374.811 16.6172 377.639 16.7841C379.538 16.8822 381.403 17.3278 383.142 18.0991C383.609 18.3136 384.06 18.5605 384.493 18.838C384.786 19.0296 384.934 19.1378 384.922 19.1577Z" fill="#263238"/>
<path d="M385.491 67.8357C385.69 67.7108 385.902 67.6058 386.121 67.5222C386.742 67.2428 387.383 67.0115 388.039 66.8306C389.091 66.5222 390.176 66.3422 391.271 66.2944C392.754 66.2118 394.238 66.4332 395.632 66.945C398.807 68.0646 401.735 71.3115 403.172 75.6157C403.885 77.9405 403.905 80.423 403.229 82.7588C402.447 85.3007 401.051 87.6104 399.165 89.4839L399.247 89.1543C400.897 93.6874 402.695 98.6224 404.567 103.756L404.68 104.07L404.365 104.174L401.524 105.127L395.338 107.201L395.033 107.303L394.932 106.997C393.229 101.838 391.363 96.9766 390.008 92.3277L390.277 92.5392C387.849 92.3342 385.535 91.4188 383.624 89.9069C381.884 88.5695 380.459 86.8657 379.45 84.9159C378.546 83.1912 378.092 81.2653 378.132 79.3179C378.177 77.6645 378.531 76.0342 379.175 74.5111C380.052 72.3469 381.491 70.457 383.343 69.0374C383.993 68.5274 384.718 68.1224 385.492 67.837C384.791 68.2514 384.113 68.7028 383.46 69.1892C381.696 70.6369 380.335 72.5153 379.508 74.6429C378.828 76.2423 378.51 77.9724 378.577 79.7093C378.643 81.4461 379.092 83.1468 379.892 84.6895C380.884 86.5601 382.272 88.1917 383.958 89.4702C385.789 90.898 387.996 91.759 390.309 91.9471L390.519 91.9595L390.578 92.1586C391.945 96.7738 393.824 101.613 395.542 106.796L395.135 106.592L401.319 104.515L404.16 103.562L403.959 103.979C402.101 98.8401 400.313 93.9026 398.674 89.3633L398.606 89.1804L398.754 89.0336C400.568 87.2404 401.916 85.0314 402.682 82.5983C403.344 80.3703 403.344 77.998 402.682 75.77C401.324 71.5901 398.531 68.4129 395.5 67.2983C394.156 66.7819 392.722 66.5403 391.284 66.588C390.208 66.6124 389.138 66.7597 388.095 67.0271C386.377 67.465 385.509 67.8892 385.491 67.8357Z" fill="#263238"/>
<path d="M102.904 167.472C102.714 167.51 102.521 167.532 102.327 167.537L100.635 167.661C99.7186 167.716 98.8071 167.838 97.9082 168.026C97.3749 168.133 96.7894 168.176 96.1841 168.354L94.2574 168.889C90.9762 169.9 87.8806 171.437 85.0912 173.44C81.4151 176.12 78.3423 179.542 76.0716 183.486C74.7438 185.765 73.6831 188.189 72.9106 190.711C71.7063 194.911 71.2672 199.294 71.6141 203.649C71.6551 204.412 71.8192 205.169 71.9161 205.939C72.0059 206.716 72.1517 207.486 72.3524 208.242C73.4685 213.23 75.7331 217.889 78.9659 221.847C82.1987 225.805 86.3103 228.953 90.9732 231.04C94.3514 232.499 97.9725 233.313 101.65 233.439C105.434 233.642 109.22 233.096 112.794 231.833L113.886 231.433L114.03 231.379L114.155 231.445L129.833 239.407L129.367 239.805C127.693 234.606 126.069 229.564 124.519 224.726L124.46 224.541L124.598 224.402C128.405 220.568 131.23 215.869 132.829 210.706C134.266 205.988 134.673 201.015 134.022 196.125C132.985 187.983 129.001 180.503 122.825 175.102C120.485 173.131 117.893 171.482 115.118 170.196C113.024 169.295 110.845 168.608 108.613 168.145L106.174 167.73L104.376 167.605L103.273 167.521C103.148 167.517 103.023 167.501 102.9 167.472C103.024 167.458 103.149 167.456 103.273 167.465L104.379 167.496L106.191 167.569L108.652 167.936C110.91 168.364 113.118 169.027 115.24 169.913C118.058 171.182 120.692 172.825 123.071 174.798C125.957 177.283 128.403 180.238 130.306 183.538C132.521 187.397 133.963 191.651 134.549 196.062C135.231 201.031 134.835 206.088 133.388 210.89C131.775 216.155 128.909 220.95 125.036 224.863L125.115 224.537C126.68 229.373 128.309 234.411 129.991 239.608L130.24 240.368L129.527 240.006L113.845 232.051L114.12 232.065L113.001 232.475C109.348 233.765 105.476 234.321 101.607 234.114C97.8495 233.98 94.1497 233.145 90.6985 231.65C85.9454 229.52 81.7569 226.305 78.4683 222.264C75.1798 218.222 72.8826 213.466 71.7608 208.376C71.5598 207.606 71.4144 206.822 71.3257 206.031C71.2287 205.249 71.0647 204.479 71.0274 203.703C70.6868 199.275 71.1501 194.823 72.3947 190.561C73.1908 188.005 74.2807 185.549 75.6428 183.245C77.9657 179.262 81.1048 175.816 84.8537 173.134C87.689 171.133 90.8347 169.614 94.1641 168.638L96.1145 168.129C96.7223 167.96 97.3177 167.926 97.8547 167.828C98.762 167.655 99.6813 167.554 100.604 167.526L102.306 167.468C102.505 167.454 102.705 167.455 102.904 167.472Z" fill="#E8505B"/>
<path d="M109.993 196.518H107.696L102.683 189.526V184.937C102.683 184.937 99.1313 184.719 99.5489 190.728C99.9666 196.736 99.5154 195.206 99.5154 195.206C99.5154 195.206 91.9751 195.235 91.3486 195.89C90.8936 196.367 90.6873 203.862 90.6028 207.926C90.5533 208.907 90.8332 209.876 91.398 210.68C91.9627 211.483 92.7797 212.075 93.7191 212.36C93.9837 212.429 94.2559 212.466 94.5295 212.469C96.4102 212.469 106.019 210.939 106.019 210.939H109.987L109.993 196.518Z" fill="#E8505B"/>
<path d="M116.569 195.258L115.155 210.982H111.221V195.575L116.569 195.258Z" fill="#E8505B"/>
<path d="M558 131.294H194.597V338.786H558V131.294Z" fill="#E6E6E6"/>
<path d="M547.449 145.361H205.147V329.408H547.449V145.361Z" fill="white"/>
<path d="M557.846 120.744H194.597V136.193H557.846V120.744Z" fill="#455A64"/>
<path d="M206.064 132.692C207.644 132.692 208.925 131.41 208.925 129.828C208.925 128.247 207.644 126.965 206.064 126.965C204.485 126.965 203.204 128.247 203.204 129.828C203.204 131.41 204.485 132.692 206.064 132.692Z" fill="white"/>
<path d="M216.921 132.692C218.501 132.692 219.782 131.41 219.782 129.828C219.782 128.247 218.501 126.965 216.921 126.965C215.342 126.965 214.061 128.247 214.061 129.828C214.061 131.41 215.342 132.692 216.921 132.692Z" fill="white"/>
<path d="M227.778 132.692C229.357 132.692 230.638 131.41 230.638 129.828C230.638 128.247 229.357 126.965 227.778 126.965C226.198 126.965 224.917 128.247 224.917 129.828C224.917 131.41 226.198 132.692 227.778 132.692Z" fill="white"/>
<path d="M440.773 179.357H322.374V193.424H440.773V179.357Z" fill="#E6E6E6"/>
<path d="M440.773 241.487H322.374V255.555H440.773V241.487Z" fill="#6C63FF"/>
<path d="M440.773 207.492H322.374V222.731H440.773V207.492Z" fill="#E6E6E6"/>
<path d="M461.31 405.712C442.107 392.285 437.75 367.364 438.51 344.962C438.634 341.224 438.226 337.282 440.001 334C441.776 330.718 445.926 328.477 449.272 330.053C452.046 331.36 453.25 334.591 454.808 337.262C456.882 340.825 459.921 343.729 463.573 345.638C465.954 346.874 468.897 347.628 471.245 346.333C474.468 344.553 474.85 340.097 474.825 336.381C474.781 329.449 474.74 322.518 474.701 315.586C474.478 311.868 474.856 308.138 475.82 304.541C476.976 301.01 479.529 297.732 483.064 296.741C486.599 295.749 490.972 297.789 491.718 301.429C491.857 302.969 491.893 304.516 491.824 306.061C491.927 307.605 492.645 309.313 494.111 309.743C495.576 310.173 497.082 309.121 498.192 308.036C502.028 304.281 504.631 299.444 507.063 294.632C509.496 289.82 511.857 284.896 515.337 280.801C518.818 276.706 523.632 273.462 528.953 273.158C534.275 272.854 539.947 276.144 541.292 281.368C542.637 286.593 539.584 291.931 536.258 296.172C531.324 302.468 525.507 308.018 518.987 312.649C517.718 313.352 516.705 314.441 516.097 315.759C515.29 318.238 517.638 320.7 520.083 321.516C522.854 322.439 525.859 322.152 528.757 322.493C531.655 322.834 534.793 324.11 535.89 326.854C537.412 330.655 534.235 334.639 531.11 337.249C524.848 342.476 517.734 346.586 510.079 349.399C507.344 350.395 504.468 351.278 502.264 353.2C500.06 355.122 498.729 358.466 500.06 361.084C501.391 363.703 504.811 364.547 507.675 364.014C510.539 363.482 513.101 361.927 515.831 360.897C520.937 358.967 527.533 359.319 530.803 363.737C531.801 365.257 532.434 366.987 532.651 368.793C532.868 370.599 532.664 372.43 532.055 374.144C530.811 377.555 528.895 380.68 526.421 383.336C518.328 393.066 507.799 400.471 495.91 404.795C484.063 408.907 473.086 410.02 461.312 405.709" fill="#F5A623"/>
<path d="M535.918 276.268C535.809 276.396 535.688 276.515 535.558 276.621L534.454 277.605C533.48 278.466 532.045 279.738 530.241 281.423C525.134 286.172 520.389 291.297 516.047 296.756C513.282 300.203 510.408 304.105 507.399 308.351C504.389 312.597 501.218 317.168 498.056 322.092C494.713 327.22 491.652 332.526 488.887 337.987C487.454 340.83 486.178 343.805 484.874 346.838C483.57 349.871 482.263 352.947 480.931 356.061C475.853 367.735 471.432 379.684 467.687 391.851C464.673 401.807 462.601 412.023 461.497 422.367C460.776 429.346 460.659 436.374 461.148 443.373C461.343 445.849 461.532 447.771 461.707 449.067C461.778 449.689 461.831 450.178 461.877 450.545C461.904 450.713 461.917 450.884 461.915 451.055C461.863 450.893 461.828 450.726 461.809 450.557C461.751 450.193 461.67 449.706 461.569 449.088C461.35 447.795 461.118 445.876 460.882 443.395C460.289 436.381 460.334 429.327 461.016 422.321C462.056 411.932 464.089 401.668 467.088 391.668C470.804 379.465 475.217 367.486 480.306 355.79C481.639 352.675 482.955 349.599 484.253 346.563C485.556 343.538 486.848 340.537 488.292 337.681C491.076 332.201 494.161 326.88 497.533 321.743C500.716 316.815 503.918 312.256 506.941 308.015C509.965 303.774 512.879 299.883 515.676 296.446C520.062 290.998 524.874 285.908 530.067 281.224C531.899 279.566 533.364 278.327 534.368 277.5L535.514 276.567C535.639 276.454 535.774 276.354 535.918 276.268Z" fill="#263238"/>
<path d="M488.487 337.65C488.31 337.136 488.188 336.604 488.124 336.064C487.929 335.036 487.696 333.541 487.435 331.689C486.909 327.985 486.359 322.846 485.772 317.178C485.185 311.511 484.563 306.392 483.982 302.708C483.697 300.865 483.453 299.374 483.269 298.354C483.141 297.824 483.071 297.282 483.061 296.737C483.274 297.238 483.43 297.761 483.528 298.296C483.792 299.308 484.111 300.784 484.457 302.627C485.163 306.305 485.864 311.432 486.446 317.109C487.01 322.707 487.52 327.764 487.91 331.631C488.097 333.373 488.256 334.848 488.383 336.029C488.477 336.564 488.512 337.107 488.487 337.65Z" fill="#263238"/>
<path d="M536.267 328.718C535.64 328.852 535.003 328.929 534.362 328.946C533.135 329.055 531.361 329.204 529.174 329.458C524.798 329.93 518.776 330.795 512.173 332.041C505.57 333.286 499.645 334.69 495.392 335.821C493.258 336.371 491.539 336.864 490.357 337.196C489.751 337.408 489.127 337.561 488.492 337.654C489.064 337.36 489.662 337.12 490.278 336.938C491.443 336.527 493.137 335.962 495.266 335.348C499.502 334.093 505.431 332.62 512.054 331.359C517.703 330.271 523.403 329.474 529.133 328.97C531.332 328.779 533.119 328.703 534.354 328.678C534.992 328.631 535.632 328.644 536.267 328.718Z" fill="#263238"/>
<path d="M467.675 390.789C467.54 390.61 467.43 390.415 467.348 390.207L466.53 388.476C465.828 386.971 464.867 384.765 463.717 382.026C461.411 376.552 458.465 368.882 455.329 360.38C452.193 351.879 449.319 344.188 447.125 338.671C446.053 335.989 445.171 333.782 444.514 332.143C444.235 331.431 444.004 330.844 443.815 330.361C443.718 330.158 443.65 329.942 443.613 329.721C443.747 329.901 443.857 330.097 443.94 330.305L444.758 332.034C445.46 333.54 446.421 335.744 447.571 338.485C449.877 343.958 452.823 351.629 455.96 360.13C459.098 368.632 461.969 376.319 464.157 381.837C465.23 384.518 466.111 386.726 466.767 388.364L467.467 390.146C467.566 390.349 467.636 390.566 467.675 390.789Z" fill="#263238"/>
<path d="M531.166 370.31C530.969 370.425 530.758 370.512 530.537 370.57L528.693 371.192L521.893 373.396C516.153 375.262 508.254 377.925 499.53 380.88C490.805 383.836 482.873 386.432 477.09 388.176C474.2 389.047 471.856 389.733 470.225 390.167L468.344 390.664C468.128 390.737 467.903 390.779 467.675 390.789C467.873 390.675 468.085 390.587 468.306 390.528C468.803 390.363 469.411 390.154 470.15 389.906L476.947 387.701C482.688 385.835 490.588 383.173 499.314 380.216C508.041 377.259 515.971 374.665 521.75 372.921C524.64 372.05 526.986 371.365 528.618 370.931L530.497 370.433C530.714 370.362 530.939 370.321 531.166 370.31Z" fill="#263238"/>
<path d="M163.421 515.376V504.734L144.364 504.609L144.206 520.688L145.388 520.776C150.645 521.117 172.138 521.611 175.661 520.52C179.589 519.3 163.421 515.376 163.421 515.376Z" fill="#B8E986"/>
<path d="M176.112 519.517C176.112 519.698 168.983 519.842 160.192 519.842C151.401 519.842 144.271 519.698 144.271 519.517C144.271 519.337 151.399 519.195 160.192 519.195C168.985 519.195 176.112 519.34 176.112 519.517Z" fill="#263238"/>
<path d="M163.756 517.548C163.599 517.466 163.735 516.904 164.144 516.35C164.553 515.797 165.05 515.498 165.174 515.624C165.298 515.749 165.041 516.22 164.664 516.733C164.288 517.247 163.916 517.634 163.756 517.548Z" fill="#263238"/>
<path d="M164.975 518.25C164.811 518.188 164.896 517.557 165.271 516.894C165.647 516.231 166.141 515.83 166.278 515.94C166.415 516.049 166.181 516.594 165.834 517.212C165.487 517.831 165.142 518.311 164.975 518.25Z" fill="#263238"/>
<path d="M150.013 519.47C149.938 519.522 149.655 519.244 149.242 518.775C148.739 518.165 148.179 517.604 147.57 517.099C146.973 516.624 146.263 516.313 145.509 516.196C144.929 516.119 144.55 516.208 144.515 516.115C144.482 516.045 144.837 515.78 145.523 515.742C146.41 515.729 147.274 516.029 147.964 516.588C148.625 517.121 149.183 517.772 149.61 518.507C149.934 519.057 150.084 519.42 150.013 519.47Z" fill="#263238"/>
<path d="M163.814 515.548C163.908 515.698 163.581 516.068 163.036 516.267C162.492 516.466 162.004 516.399 161.978 516.223C161.952 516.048 162.336 515.838 162.814 515.66C163.291 515.482 163.72 515.394 163.814 515.548Z" fill="#263238"/>
<path d="M163.515 514.519C163.531 514.697 163.018 514.851 162.38 514.859C161.743 514.866 161.226 514.734 161.238 514.55C161.25 514.366 161.758 514.221 162.372 514.212C162.986 514.203 163.497 514.341 163.515 514.519Z" fill="#263238"/>
<path d="M210.346 515.376V504.734L191.289 504.609L191.131 520.525L192.312 520.612C197.569 520.953 219.064 521.607 222.587 520.52C226.517 519.3 210.346 515.376 210.346 515.376Z" fill="#B8E986"/>
<path d="M223.039 519.542C223.039 519.72 215.91 519.867 207.119 519.867C198.328 519.867 191.198 519.72 191.198 519.542C191.198 519.364 198.325 519.218 207.119 519.218C215.914 519.218 223.039 519.363 223.039 519.542Z" fill="#263238"/>
<path d="M210.683 517.548C210.527 517.466 210.661 516.904 211.071 516.35C211.481 515.797 211.977 515.498 212.101 515.624C212.226 515.749 211.968 516.22 211.592 516.733C211.215 517.247 210.844 517.634 210.683 517.548Z" fill="#263238"/>
<path d="M211.899 518.25C211.733 518.188 211.819 517.557 212.195 516.894C212.57 516.231 213.065 515.83 213.201 515.94C213.338 516.049 213.104 516.594 212.758 517.212C212.411 517.831 212.068 518.311 211.899 518.25Z" fill="#263238"/>
<path d="M196.939 519.47C196.866 519.522 196.581 519.244 196.17 518.775C195.666 518.165 195.107 517.604 194.498 517.099C193.9 516.624 193.19 516.313 192.436 516.197C191.856 516.12 191.476 516.21 191.441 516.116C191.408 516.047 191.762 515.782 192.448 515.743C193.336 515.73 194.201 516.03 194.891 516.589C195.552 517.123 196.11 517.773 196.536 518.509C196.865 519.057 197.011 519.42 196.939 519.47Z" fill="#263238"/>
<path d="M210.742 515.548C210.834 515.698 210.508 516.068 209.963 516.267C209.419 516.466 208.932 516.399 208.906 516.223C208.879 516.048 209.264 515.838 209.74 515.66C210.216 515.482 210.647 515.394 210.742 515.548Z" fill="#263238"/>
<path d="M210.442 514.519C210.459 514.697 209.952 514.851 209.308 514.859C208.664 514.866 208.154 514.734 208.165 514.55C208.176 514.366 208.686 514.221 209.3 514.212C209.914 514.203 210.425 514.341 210.442 514.519Z" fill="#263238"/>
<path d="M280.55 199.528C280.052 199.015 278.83 199.256 278.83 199.256C278.944 198.542 278.94 197.813 278.818 197.099C278.593 196.396 277.026 196.532 277.026 196.532C276.967 195.943 276.981 195.349 277.067 194.763C277.078 194.634 277.049 194.505 276.984 194.394C276.918 194.282 276.82 194.194 276.702 194.141C275.96 193.838 275.162 193.693 274.361 193.714C273.4 193.028 277.283 187.594 278.724 185.853C280.146 184.136 279.907 182.758 278.623 182.761C277.753 182.761 273.214 187.986 271.831 189.74C270.447 191.494 266.734 196.37 266.61 192.477C266.486 188.583 264.92 185.641 263.944 185.137C262.968 184.633 261.913 185.812 262.452 186.893C262.918 188.123 263.211 189.412 263.322 190.723C263.453 191.772 263.405 192.836 263.179 193.87C262.774 195.785 262.214 197.663 261.506 199.488L261.41 199.434C261.41 199.434 234.279 225.469 232.323 227.329C230.563 229.001 195.309 225.351 188.246 224.601C185.84 224.254 183.411 224.088 180.979 224.103C177.915 224.237 177.375 224.673 174.304 224.714C166.584 224.798 158.882 225.476 151.266 226.74C147.814 227.324 144.59 228.847 141.946 231.143C139.302 233.438 137.339 236.417 136.273 239.754C129.146 262.022 113.017 314.728 110.143 344.34C107.988 348.243 106.045 352.26 104.322 356.373C102.325 361.816 102.811 362.001 103.483 362.127C105.291 362.462 107.359 352.687 108.131 355.045C108.903 357.402 104.213 366.706 106.116 366.977C108.602 367.332 110.575 357.061 110.807 356.203C111.031 355.371 112.284 355.652 112.033 356.414C111.674 357.51 108.179 369.117 110.608 369.489C111.957 369.695 112.1 367.236 112.1 367.236C112.1 367.236 114.574 356.136 115.716 356.35C116.858 356.564 115.644 363.133 115.071 365.318C114.505 367.477 115.302 368.624 116.466 368.081C117.259 367.708 119.169 361.061 119.684 358.886C120.198 356.712 121.507 350.727 123.262 354.203C125.018 357.678 127.674 359.689 128.772 359.732C129.024 359.716 129.266 359.621 129.462 359.461C129.659 359.301 129.8 359.083 129.867 358.839C129.934 358.594 129.924 358.335 129.837 358.097C129.75 357.859 129.591 357.654 129.382 357.51C128.441 356.59 127.632 355.544 126.979 354.4C126.418 353.504 126.014 352.519 125.783 351.487C125.287 349.422 124.996 347.314 124.913 345.192L124.711 343.912C127.494 330.112 135.518 289.626 147.043 263.761L151.789 273.536L153.85 280.771L141.201 312.044L195.165 311.333L187.121 280.309L196.895 247.958C207.475 248.194 234.643 248.589 239.209 246.546C244.902 244.001 274.361 206.837 274.361 206.837C276.277 205.34 278.115 203.744 279.866 202.055C279.866 202.055 281.63 200.637 280.55 199.528Z" fill="#FFBE9D"/>
<path d="M138.862 289.024C140.423 283.675 148.468 257.232 148.468 257.232C148.468 257.232 152.416 278.792 151.378 281.388C150.419 283.613 149.284 285.759 147.986 287.804C138.862 301.709 140.059 308.659 140.059 308.659L195.175 306.978C195.309 299.265 190.747 281.329 189.793 278.471C188.838 275.614 192.004 266.235 192.004 266.235C192.004 266.235 198.232 259.904 197.991 256.646C197.87 253.726 197.507 250.821 196.906 247.962L230.443 249.198L229.39 226.424L181.181 221.596C179.513 226.347 164.332 224.02 164.332 224.02C147.942 224.558 146.949 227.575 140.115 232.871C133.28 238.166 122.026 283.65 122.026 283.65L138.862 289.024Z" fill="#B8E986"/>
<path d="M171.458 283.645C170.499 283.813 169.524 283.862 168.553 283.792C166.758 283.781 164.279 283.667 161.555 283.396C158.83 283.125 156.377 282.736 154.616 282.388C153.651 282.265 152.705 282.022 151.799 281.666C152.769 281.659 153.738 281.749 154.689 281.937C156.462 282.166 158.916 282.477 161.619 282.75C164.323 283.024 166.788 283.207 168.57 283.334C169.541 283.34 170.509 283.444 171.458 283.645Z" fill="#263238"/>
<path d="M175.23 278.954C174.273 279.418 173.262 279.763 172.221 279.98C167.264 281.293 162.146 281.901 157.02 281.786C155.957 281.82 154.894 281.722 153.855 281.493C154.904 281.351 155.962 281.296 157.02 281.327C158.969 281.266 161.656 281.123 164.602 280.773C167.548 280.422 170.196 279.93 172.108 279.528C173.131 279.251 174.175 279.059 175.23 278.954Z" fill="#263238"/>
<path d="M193.77 258.028C193.759 258.978 193.633 259.922 193.398 260.842C193.077 262.563 192.573 264.926 191.938 267.519C191.303 270.111 190.657 272.443 190.145 274.112C189.93 275.037 189.605 275.933 189.179 276.78C189.25 275.835 189.426 274.9 189.703 273.993C190.173 272.052 190.714 269.823 191.309 267.361L192.951 260.739C193.123 259.808 193.398 258.899 193.77 258.028Z" fill="#263238"/>
<path d="M139.44 285.856C136.564 285.406 133.727 284.744 130.95 283.875C128.115 283.212 125.335 282.339 122.63 281.263C125.505 281.713 128.343 282.376 131.12 283.246C133.954 283.909 136.734 284.781 139.44 285.856Z" fill="#263238"/>
<path d="M197.512 247.671C197.039 247.744 196.558 247.741 196.085 247.663C194.787 247.534 193.511 247.23 192.294 246.759C190.475 246.066 188.798 245.044 187.348 243.745C185.567 242.14 184.183 240.144 183.303 237.914C182.411 235.69 182.028 233.294 182.184 230.903C182.245 228.934 182.832 227.018 183.885 225.354C184.63 224.237 185.744 223.417 187.031 223.036C187.377 222.939 187.734 222.892 188.093 222.894C188.341 222.9 188.465 222.926 188.465 222.946C188.465 223.008 187.95 222.978 187.109 223.276C185.933 223.722 184.934 224.541 184.268 225.609C182.576 228.272 182.104 233.132 183.901 237.676C184.749 239.818 186.065 241.741 187.754 243.305C189.139 244.581 190.734 245.607 192.469 246.336C194.098 246.959 195.789 247.407 197.512 247.671Z" fill="#263238"/>
<path d="M226.486 248.743C226.171 244.931 226.071 241.103 226.186 237.28C226.085 233.455 226.201 229.628 226.532 225.816C226.848 229.629 226.948 233.457 226.833 237.281C226.933 241.105 226.817 244.932 226.486 248.743Z" fill="#263238"/>
<path d="M180.886 222.983C181.021 220.207 181.312 217.071 181.312 217.071C181.312 217.071 188.171 216.314 188.588 209.222C189.004 202.13 188.588 185.778 188.588 185.778L176.094 179.411L162.348 190.266L164.43 225.72L177.077 226.525C177.56 226.547 178.043 226.472 178.497 226.305C178.952 226.138 179.368 225.882 179.723 225.553C180.077 225.223 180.362 224.826 180.562 224.385C180.762 223.944 180.872 223.467 180.886 222.983Z" fill="#FFBE9D"/>
<path d="M182.119 203.613C182.139 203.613 182.14 203.745 182.011 203.918C181.915 204.032 181.793 204.123 181.656 204.184C181.52 204.244 181.371 204.272 181.221 204.265C180.426 204.227 179.659 203.347 179.377 202.274C179.242 201.759 179.23 201.219 179.342 200.698C179.366 200.472 179.447 200.255 179.577 200.068C179.708 199.881 179.883 199.73 180.088 199.63C180.172 199.596 180.262 199.58 180.352 199.582C180.443 199.584 180.532 199.605 180.615 199.642C180.738 199.703 180.837 199.803 180.896 199.928C180.989 200.14 180.917 200.268 180.896 200.257C180.874 200.245 180.874 200.14 180.771 200.008C180.705 199.919 180.608 199.857 180.499 199.834C180.391 199.811 180.278 199.829 180.181 199.883C180.031 199.98 179.907 200.111 179.818 200.266C179.729 200.42 179.678 200.594 179.67 200.772C179.589 201.239 179.608 201.718 179.727 202.177C179.976 203.14 180.643 203.929 181.237 204C181.355 204.015 181.475 204.007 181.59 203.976C181.705 203.944 181.812 203.89 181.906 203.817C182.045 203.701 182.093 203.601 182.119 203.613Z" fill="#EB996E"/>
<path d="M192.845 181.95C191.891 178.684 188.424 177.063 185.263 176.168C180.456 174.799 175.249 174.201 170.552 175.931C165.856 177.662 160.208 180.706 160.209 185.898C157.437 185.671 155.858 188.101 154.753 191.113C154.081 192.952 153.684 194.88 153.574 196.836L153.529 196.821C153.172 203.617 151.28 212.98 146.877 218.006C144.446 220.781 140.946 222.7 139.529 226.156C138.297 229.16 138.934 232.71 137.77 235.743C136.742 238.42 134.466 240.321 132.834 242.65C131.133 245.287 130.132 248.315 129.925 251.447C129.717 254.579 130.311 257.712 131.649 260.551C132.995 263.317 134.889 265.78 137.214 267.792C139.54 269.803 142.25 271.321 145.179 272.254C150.99 274.019 157.185 274.077 163.027 272.42C167.408 271.373 171.496 269.346 174.983 266.493C178.539 263.536 180.965 259.438 181.847 254.896C182.723 249.814 181.301 244.654 180.256 239.607C176.949 223.639 177.894 222.813 182.067 207.998C182.161 207.737 182.218 207.466 182.292 207.197C182.346 207 182.399 206.813 182.456 206.611H182.447C182.57 206.028 182.635 205.435 182.642 204.84C182.032 205.069 181.369 205.117 180.731 204.979C180.094 204.841 179.51 204.523 179.049 204.062C178.588 203.574 178.266 202.971 178.116 202.316C177.967 201.662 177.995 200.979 178.198 200.339C178.49 199.637 178.926 199.005 179.478 198.484C180.031 197.963 180.687 197.565 181.404 197.316C182.783 196.735 184.263 196.445 185.619 195.803C188.49 194.435 190.478 191.6 191.835 188.628C192.95 186.591 193.308 184.225 192.845 181.95Z" fill="#263238"/>
<path d="M182.61 203.915C182.878 204.297 183.097 204.71 183.264 205.146C183.637 205.931 184.134 207.039 184.678 208.313L184.781 208.554L184.519 208.577C184.104 208.613 183.685 208.647 183.254 208.686C182.384 208.742 181.663 208.846 180.822 208.837C180.749 208.821 180.682 208.786 180.625 208.737C180.569 208.687 180.527 208.625 180.502 208.554C180.467 208.442 180.461 208.324 180.482 208.208C180.519 208.013 180.561 207.869 180.606 207.711L180.825 206.83C180.937 206.238 181.112 205.661 181.348 205.107C181.328 205.708 181.243 206.306 181.093 206.888L180.921 207.779C180.856 208.079 180.748 208.526 180.909 208.494C181.531 208.467 182.41 208.37 183.228 208.304L184.493 208.203L184.334 208.467C183.802 207.187 183.351 206.059 183.044 205.248C182.844 204.823 182.699 204.376 182.61 203.915Z" fill="#E8505B"/>
<path d="M140.058 308.659L195.175 306.978L219.147 400.7L214.732 508.206H185.559L189.175 402.991L167.854 337.747L171.138 512.376L141.687 512.811L138.579 348.667C138.455 344.105 136.95 333.811 137.509 329.285L140.058 308.659Z" fill="#263238"/>
<path d="M175.194 339.07C174.29 339.133 173.381 339.079 172.491 338.91C170.832 338.715 168.551 338.364 166.053 337.862C163.554 337.361 161.316 336.799 159.713 336.336C158.827 336.148 157.968 335.847 157.158 335.439C157.206 335.259 161.209 336.229 166.183 337.227C171.158 338.225 175.218 338.885 175.194 339.07Z" fill="#455A64"/>
<path d="M214.467 502.309C214.467 502.489 207.862 502.634 199.717 502.634C191.573 502.634 184.965 502.489 184.965 502.309C184.965 502.129 191.568 501.987 199.717 501.987C207.867 501.987 214.467 502.131 214.467 502.309Z" fill="#455A64"/>
<path d="M170.875 507.838C170.875 508.017 164.468 508.162 156.565 508.162C148.662 508.162 142.255 508.017 142.255 507.838C142.255 507.658 148.66 507.514 156.565 507.514C164.469 507.514 170.875 507.658 170.875 507.838Z" fill="#455A64"/>
<path d="M167.081 507.39C166.902 507.39 166.128 469.233 165.351 422.175C164.574 375.096 164.089 336.939 164.268 336.937C164.447 336.935 165.222 375.084 165.998 422.164C166.775 469.243 167.26 507.387 167.081 507.39Z" fill="#455A64"/>
<path d="M210.549 502.309C210.53 502.141 210.525 501.971 210.535 501.802L210.562 500.309C210.601 498.964 210.657 497.041 210.729 494.586C210.902 489.579 211.152 482.395 211.459 473.525C212.14 455.714 213.075 431.164 214.114 404.047C214.124 403.799 214.134 403.55 214.144 403.316L214.152 403.408C207.62 377.232 201.716 353.571 197.436 336.414L192.446 316.118C191.877 313.746 191.433 311.889 191.123 310.595C190.983 309.987 190.874 309.51 190.794 309.156C190.749 308.993 190.719 308.826 190.704 308.658C190.768 308.814 190.819 308.974 190.858 309.138L191.248 310.563C191.587 311.853 192.071 313.696 192.69 316.056C193.922 320.867 195.692 327.774 197.876 336.299C202.205 353.441 208.175 377.086 214.781 403.246L214.794 403.291V403.338C214.785 403.567 214.774 403.819 214.765 404.07C213.655 431.183 212.652 455.728 211.92 473.539C211.526 482.403 211.206 489.587 210.984 494.591C210.86 497.049 210.764 498.971 210.697 500.314C210.658 500.943 210.628 501.433 210.605 501.807C210.601 501.975 210.582 502.144 210.549 502.309Z" fill="#455A64"/>
<path d="M201.041 401.125C198.945 401.813 196.786 402.294 194.596 402.562C191.916 403.024 189.601 403.34 188.589 403.397V403.148C188.925 403.24 189.105 403.311 189.098 403.357C189.09 403.403 188.898 403.416 188.55 403.401L187.796 403.367L188.548 403.148C189.52 402.863 191.808 402.388 194.488 401.928C196.641 401.447 198.836 401.178 201.041 401.125Z" fill="#455A64"/>
<path d="M200.483 404.701C198.545 404.782 196.603 404.694 194.68 404.437C192.741 404.392 190.809 404.178 188.906 403.799C192.788 403.484 196.696 403.789 200.483 404.701Z" fill="#455A64"/>
<path opacity="0.2" d="M139.813 310.64C140.467 311.478 141.289 312.169 142.227 312.668C143.164 313.167 144.196 313.463 145.256 313.537C147.479 313.8 149.727 313.758 151.939 313.413C166.166 311.833 181.242 310.375 195.175 306.979C177.14 307.99 158.094 307.649 140.058 308.661C140.058 308.661 139.904 309.905 139.868 310.202" fill="black"/>
<g opacity="0.2">
<path opacity="0.2" d="M158.405 336.081L168.565 375.556L167.854 337.738L158.405 336.081Z" fill="black"/>
</g>
</svg>
