<svg xmlns="http://www.w3.org/2000/svg" width="27.034" height="18.667" viewBox="0 0 27.034 18.667"><defs><style>.a{fill:#91919c;}</style></defs><g transform="translate(-4 -21)"><g transform="translate(4 21)"><path class="a" d="M10.575,973.362A2.617,2.617,0,0,0,8,976.007v13.366a2.626,2.626,0,0,0,2.575,2.655H32.46a2.626,2.626,0,0,0,2.575-2.655V976.007a2.617,2.617,0,0,0-2.575-2.645H10.575Zm0,1.287H32.46a1.279,1.279,0,0,1,.533.121l-10.641,9.846a1.155,1.155,0,0,1-1.639,0L10.052,974.77A1.273,1.273,0,0,1,10.575,974.649Zm-1.267,1.187,7.553,6.98-7.412,7.211a1.437,1.437,0,0,1-.161-.654V976.007a1.485,1.485,0,0,1,.02-.171Zm24.419.01a1.456,1.456,0,0,1,.02.161v13.366a1.445,1.445,0,0,1-.151.644L26.2,982.806l7.523-6.96Zm-8.458,7.825,7.231,7.07H10.544l7.261-7.06,2.032,1.881a2.5,2.5,0,0,0,3.389,0l2.042-1.891Z" transform="translate(-8 -973.362)"/></g></g></svg>