<svg width="18" height="17" viewBox="0 0 18 17" fill="none" xmlns="http://www.w3.org/2000/svg">
<path d="M14.7092 1H3.29079C2.68323 1 2.10056 1.24135 1.67096 1.67096C1.24135 2.10056 1 2.68323 1 3.29079V10.5572C1 11.1647 1.24135 11.7474 1.67096 12.177C2.10056 12.6066 2.68323 12.8479 3.29079 12.8479H6.95891V14.9944H5.83757C5.68568 14.9944 5.54001 15.0548 5.43261 15.1622C5.32521 15.2696 5.26487 15.4152 5.26487 15.5671C5.26487 15.719 5.32521 15.8647 5.43261 15.9721C5.54001 16.0795 5.68568 16.1398 5.83757 16.1398H12.1624C12.3143 16.1398 12.46 16.0795 12.5674 15.9721C12.6748 15.8647 12.7351 15.719 12.7351 15.5671C12.7351 15.4152 12.6748 15.2696 12.5674 15.1622C12.46 15.0548 12.3143 14.9944 12.1624 14.9944H11.0411V12.8479H14.7092C15.3168 12.8479 15.8994 12.6066 16.329 12.177C16.7586 11.7474 17 11.1647 17 10.5572V3.29079C17 2.68323 16.7586 2.10056 16.329 1.67096C15.8994 1.24135 15.3168 1 14.7092 1ZM9.8957 14.9944H8.1043V12.8479H9.8957V14.9944ZM15.8546 10.5572C15.8546 10.8609 15.7339 11.1523 15.5191 11.3671C15.3043 11.5819 15.013 11.7026 14.7092 11.7026H3.29079C2.98701 11.7026 2.69567 11.5819 2.48087 11.3671C2.26607 11.1523 2.14539 10.8609 2.14539 10.5572V3.29079C2.14539 2.98701 2.26607 2.69567 2.48087 2.48087C2.69567 2.26607 2.98701 2.14539 3.29079 2.14539H14.7092C15.013 2.14539 15.3043 2.26607 15.5191 2.48087C15.7339 2.69567 15.8546 2.98701 15.8546 3.29079V10.5572Z" fill="#2A2A2A" stroke="#F8F8F8" stroke-width="0.3"/>
</svg>
