<svg width="200" height="179" viewBox="0 0 200 179" fill="none" xmlns="http://www.w3.org/2000/svg">
<path d="M197.655 68.4532C197.583 68.4533 197.514 68.4314 197.455 68.3905L100.706 1.01174C100.412 0.807651 100.062 0.69858 99.7035 0.699191C99.3453 0.699802 98.9958 0.810064 98.7021 1.01516L2.64994 68.3899C2.57397 68.4431 2.47994 68.4641 2.38854 68.448C2.29714 68.432 2.21585 68.3803 2.16256 68.3043C2.10928 68.2283 2.08835 68.1343 2.10439 68.0429C2.12043 67.9515 2.17213 67.8702 2.2481 67.8169L98.3003 0.442241C98.7116 0.155152 99.2009 0.000827569 99.7024 3.31906e-06C100.204 -0.000820931 100.694 0.151893 101.106 0.437629L197.855 67.8162C197.916 67.8588 197.962 67.9198 197.986 67.9903C198.01 68.0608 198.011 68.1372 197.989 68.2082C197.966 68.2793 197.922 68.3414 197.862 68.3854C197.802 68.4295 197.729 68.4532 197.655 68.4532L197.655 68.4532Z" fill="#3F3D56"/>
<path d="M8.13867 70.8415L99.7987 2.91016L192.154 75.6751L104.521 127.625L56.9444 116.78L8.13867 70.8415Z" fill="#E6E6E6"/>
<path d="M60.9602 159.713H15.6779C15.3998 159.713 15.1244 159.658 14.8674 159.552C14.6104 159.446 14.3769 159.29 14.1802 159.094C13.9834 158.897 13.8274 158.664 13.7209 158.407C13.6144 158.15 13.5596 157.875 13.5596 157.597C13.5596 157.319 13.6144 157.044 13.7209 156.787C13.8274 156.53 13.9834 156.297 14.1802 156.1C14.3769 155.904 14.6104 155.748 14.8674 155.642C15.1244 155.536 15.3998 155.481 15.6779 155.481H60.9602C61.2382 155.481 61.5136 155.536 61.7706 155.642C62.0276 155.748 62.2611 155.904 62.4578 156.1C62.6546 156.297 62.8107 156.53 62.9171 156.787C63.0236 157.044 63.0784 157.319 63.0784 157.597C63.0784 157.875 63.0236 158.15 62.9171 158.407C62.8107 158.664 62.6546 158.897 62.4578 159.094C62.2611 159.29 62.0276 159.446 61.7706 159.552C61.5136 159.658 61.2382 159.713 60.9602 159.713Z" fill="#4776E6"/>
<path d="M31.9241 150.617H15.6779C15.3998 150.617 15.1244 150.563 14.8674 150.457C14.6104 150.35 14.3769 150.195 14.1802 149.998C13.9834 149.802 13.8274 149.568 13.7209 149.312C13.6144 149.055 13.5596 148.779 13.5596 148.501C13.5596 148.223 13.6144 147.948 13.7209 147.691C13.8274 147.434 13.9834 147.201 14.1802 147.004C14.3769 146.808 14.6104 146.652 14.8674 146.546C15.1244 146.44 15.3998 146.385 15.6779 146.386H31.9241C32.2022 146.385 32.4776 146.44 32.7346 146.546C32.9915 146.652 33.2251 146.808 33.4218 147.004C33.6186 147.201 33.7746 147.434 33.8811 147.691C33.9876 147.948 34.0424 148.223 34.0424 148.501C34.0424 148.779 33.9876 149.055 33.8811 149.312C33.7746 149.568 33.6186 149.802 33.4218 149.998C33.2251 150.195 32.9915 150.35 32.7346 150.457C32.4776 150.563 32.2022 150.617 31.9241 150.617Z" fill="#4776E6"/>
<path d="M101.087 108.679C100.743 108.679 100.402 108.612 100.084 108.482L43.5542 85.0261V11.6056C43.555 10.9563 43.8132 10.3339 44.2723 9.87482C44.7313 9.41574 45.3538 9.15749 46.003 9.15674H154.451C155.1 9.1575 155.722 9.41574 156.182 9.87482C156.641 10.3339 156.899 10.9563 156.9 11.6056V85.0774L156.793 85.1228L102.122 108.47C101.794 108.608 101.443 108.679 101.087 108.679Z" fill="white"/>
<path d="M101.087 108.853C100.72 108.854 100.357 108.782 100.017 108.644L43.3789 85.1428V11.6054C43.3797 10.9098 43.6564 10.2429 44.1483 9.75103C44.6401 9.25916 45.307 8.98248 46.0026 8.98169H154.45C155.146 8.98248 155.813 9.25916 156.305 9.75103C156.797 10.2429 157.073 10.9098 157.074 11.6054V85.1927L102.19 108.631C101.841 108.778 101.466 108.853 101.087 108.853ZM44.0785 84.6755L100.284 107.997C100.808 108.21 101.395 108.206 101.917 107.987L156.375 84.7308V11.6054C156.374 11.0953 156.171 10.6063 155.81 10.2456C155.45 9.88487 154.961 9.68196 154.45 9.68135H46.0027C45.4925 9.68196 45.0035 9.88487 44.6428 10.2456C44.2821 10.6063 44.0792 11.0953 44.0786 11.6054L44.0785 84.6755Z" fill="#3F3D56"/>
<path d="M196.955 67.7537H196.885L156.725 84.9024L101.777 108.366C101.562 108.456 101.331 108.503 101.099 108.504C100.866 108.505 100.635 108.461 100.419 108.373L43.7289 84.8534L2.58172 67.7817L2.51886 67.7537H2.44882C1.79957 67.7544 1.17712 68.0126 0.718037 68.4717C0.25895 68.9308 0.000720391 69.5532 0 70.2025V176.551C0.000721315 177.201 0.25895 177.823 0.718037 178.282C1.17712 178.741 1.79957 178.999 2.44882 179H196.955C197.604 178.999 198.227 178.741 198.686 178.282C199.145 177.823 199.403 177.201 199.404 176.551V70.2025C199.403 69.5532 199.145 68.9308 198.686 68.4717C198.227 68.0126 197.604 67.7544 196.955 67.7537ZM198.704 176.551C198.704 177.015 198.52 177.46 198.192 177.788C197.864 178.116 197.419 178.3 196.955 178.3H2.44882C1.98497 178.3 1.54018 178.116 1.21219 177.788C0.884196 177.46 0.699849 177.015 0.699663 176.551V70.2025C0.700297 69.7502 0.875755 69.3156 1.18935 68.9896C1.50295 68.6636 1.9304 68.4715 2.38237 68.4533L43.7289 85.6091L100.15 109.02C100.761 109.268 101.445 109.265 102.053 109.009L156.725 85.6615L197.025 68.4533C197.476 68.4728 197.903 68.6655 198.215 68.9913C198.528 69.3171 198.703 69.7509 198.704 70.2025V176.551Z" fill="#3F3D56"/>
<path d="M99.9768 88C96.3719 88 93.7563 85.5144 93.7563 81.8637C93.7563 78.3545 96.5015 75.7539 99.9768 75.7539C103.45 75.7539 106.087 78.3904 106.087 81.8637C106.087 85.4221 103.523 88 99.9768 88Z" fill="#4776E6"/>
<path d="M80 43.1109C80 32.4255 91.269 26 100.97 26C110.779 26 120.961 31.5607 120.961 42.3422C120.961 55.033 107.077 55.6027 104.408 67.7724C103.287 73.9237 94.4977 73.5897 94.4977 66.4991C94.4977 52.9822 109.693 50.6175 109.693 42.4266C109.693 37.5406 105.583 34.6396 100.97 34.6396C94.7148 34.6396 92.5549 38.1358 90.737 43.6144C88.4249 51.2051 80 48.4161 80 43.1109Z" fill="#4776E6"/>
</svg>
