<svg width="298" height="209" viewBox="0 0 298 209" fill="none" xmlns="http://www.w3.org/2000/svg">
<path d="M251.61 144.698C251.301 144.357 251.071 143.952 250.936 143.513C250.801 143.073 250.763 142.609 250.827 142.154C250.89 141.698 251.052 141.262 251.302 140.876C251.553 140.49 251.884 140.164 252.274 139.92L249.78 129.022L255.221 131.058L256.756 141.094C257.122 141.777 257.225 142.569 257.046 143.323C256.867 144.076 256.418 144.737 255.783 145.182C255.149 145.626 254.374 145.822 253.605 145.733C252.836 145.644 252.126 145.275 251.61 144.698Z" fill="#FFB8B8"/>
<path d="M251.234 136.048L246.45 126.801L247.097 103.514L247.404 104.162C247.763 104.916 256.155 122.684 255.557 128.632L256.516 134.068L251.234 136.048Z" fill="#3F3D56"/>
<path d="M248.115 204.393H251.951L253.775 189.599L248.114 189.599L248.115 204.393Z" fill="#FFB8B8"/>
<path d="M247.136 203.141L254.69 203.141H254.69C255.967 203.141 257.191 203.648 258.094 204.55C258.997 205.453 259.504 206.678 259.504 207.954V208.111L247.136 208.111L247.136 203.141Z" fill="#2F2E41"/>
<path d="M210.217 201.478L213.913 202.506L219.634 188.741L214.18 187.225L210.217 201.478Z" fill="#FFB8B8"/>
<path d="M209.61 200.009L216.888 202.033L216.888 202.033C218.118 202.375 219.162 203.192 219.79 204.303C220.418 205.415 220.578 206.73 220.236 207.96L220.194 208.111L208.279 204.798L209.61 200.009Z" fill="#2F2E41"/>
<path d="M244.291 198.625L236.55 143.201L219.831 198.312L206.685 193.823L225.526 120.028L225.65 120.019L245.388 118.646L259.648 194.146L244.291 198.625Z" fill="#2F2E41"/>
<path d="M242.244 93.9116C242.244 93.9116 235.048 90.1574 225.35 91.7216C225.35 91.7216 220.188 104.175 225.35 109.133L226.758 121.599C226.758 121.599 239.898 129.42 244.278 120.348L243.652 110.024C243.652 110.024 246.78 105.072 244.278 101.447C242.777 99.2328 242.061 96.5801 242.244 93.9116Z" fill="#4776E6"/>
<path d="M243.155 150.614L244.418 124.406L240.844 93.2303L241.008 93.2054C245.697 92.4985 247.2 100.576 247.262 100.92L255.423 147.062L243.155 150.614Z" fill="#3F3D56"/>
<path d="M227.244 150.887L212.816 149.284L212.82 149.126C212.871 146.99 214.113 96.7712 217.593 93.2145C221.093 89.6366 227.698 91.1847 227.977 91.2527L228.117 91.2863L226.929 112.536L227.244 150.887Z" fill="#3F3D56"/>
<path d="M229.901 120.872C229.464 121.015 229.001 121.061 228.544 121.006C228.088 120.951 227.649 120.797 227.258 120.554C226.868 120.311 226.535 119.985 226.284 119.6C226.033 119.214 225.87 118.779 225.805 118.323L214.834 116.174L218.905 112.029L228.699 114.706C229.472 114.648 230.238 114.876 230.854 115.346C231.469 115.816 231.891 116.495 232.039 117.255C232.187 118.015 232.051 118.803 231.657 119.47C231.263 120.136 230.638 120.635 229.901 120.872Z" fill="#FFB8B8"/>
<path d="M224.046 118.356L220.471 117.588C215.194 119.175 205.982 113.587 202.259 111.106C201.558 110.639 201.331 109.713 201.584 108.356C201.956 106.457 203.003 104.757 204.53 103.569L217.643 93.1726L220.953 92.6191L221.936 98.1898L213.581 107.163L225.879 113.857L224.046 118.356Z" fill="#3F3D56"/>
<path d="M222.632 87.0057V79.7821C222.632 76.7259 223.846 73.7949 226.007 71.6339C228.168 69.4728 231.099 68.2588 234.156 68.2588C237.212 68.2588 240.143 69.4728 242.304 71.6339C244.465 73.7949 245.679 76.7259 245.679 79.7821V87.0057C245.678 87.4161 245.515 87.8095 245.225 88.0997C244.935 88.3899 244.541 88.5531 244.131 88.5536H224.18C223.77 88.5531 223.376 88.3899 223.086 88.0997C222.796 87.8095 222.633 87.4161 222.632 87.0057Z" fill="#2F2E41"/>
<path d="M233.693 88.4824C238.359 88.4824 242.141 84.6999 242.141 80.0339C242.141 75.368 238.359 71.5854 233.693 71.5854C229.027 71.5854 225.244 75.368 225.244 80.0339C225.244 84.6999 229.027 88.4824 233.693 88.4824Z" fill="#FFB8B8"/>
<path d="M225.013 80.0015C224.932 79.9084 224.872 79.7989 224.838 79.6806C224.803 79.5623 224.794 79.438 224.811 79.3159L225.812 72.347C225.832 72.2052 225.887 72.0706 225.972 71.9553C226.057 71.8401 226.169 71.7478 226.299 71.6869C231.407 69.2962 236.587 69.2932 241.695 71.6778C241.831 71.7421 241.947 71.8404 242.034 71.9632C242.12 72.0859 242.173 72.2289 242.187 72.3782L242.855 79.3562C242.866 79.4755 242.853 79.5959 242.815 79.7097C242.777 79.8234 242.716 79.928 242.635 80.0167C242.555 80.1053 242.456 80.1762 242.347 80.2247C242.237 80.2732 242.119 80.2982 241.999 80.2982H240.305C240.141 80.2978 239.981 80.2509 239.843 80.1631C239.705 80.0752 239.595 79.95 239.525 79.802L238.794 78.2353C238.747 78.1338 238.668 78.0505 238.569 77.9979C238.47 77.9453 238.357 77.9263 238.246 77.9437C238.136 77.9611 238.034 78.014 237.956 78.0944C237.878 78.1748 237.828 78.2784 237.815 78.3895L237.67 79.5447C237.644 79.7526 237.543 79.9438 237.386 80.0825C237.229 80.2212 237.026 80.2979 236.817 80.2982H225.663C225.539 80.2982 225.418 80.2717 225.306 80.2205C225.193 80.1694 225.094 80.0947 225.013 80.0015Z" fill="#2F2E41"/>
<path d="M189.533 13.8853H0V131.909H189.533V13.8853Z" fill="#E6E6E6"/>
<path d="M47.4229 36.6221H12.71V59.1855H47.4229V36.6221Z" fill="white"/>
<path d="M90.5557 36.6221H55.8428V59.1855H90.5557V36.6221Z" fill="white"/>
<path d="M133.69 36.6221H98.9766V59.1855H133.69V36.6221Z" fill="white"/>
<path d="M176.823 36.6221H142.11V59.1855H176.823V36.6221Z" fill="white"/>
<path d="M47.4229 68.5581H12.71V91.1215H47.4229V68.5581Z" fill="white"/>
<path d="M90.5557 68.5581H55.8428V91.1215H90.5557V68.5581Z" fill="white"/>
<path d="M133.69 68.5581H98.9766V91.1215H133.69V68.5581Z" fill="white"/>
<path d="M176.823 68.5581H142.11V91.1215H176.823V68.5581Z" fill="white"/>
<path d="M47.4229 100.494H12.71V123.058H47.4229V100.494Z" fill="white"/>
<path d="M90.5557 100.494H55.8428V123.058H90.5557V100.494Z" fill="white"/>
<path d="M133.69 100.494H98.9766V123.058H133.69V100.494Z" fill="white"/>
<path d="M176.823 100.494H142.11V123.058H176.823V100.494Z" fill="white"/>
<path d="M49.6396 27.7703C52.5153 27.7703 54.8465 25.4391 54.8465 22.5634C54.8465 19.6877 52.5153 17.3564 49.6396 17.3564C46.7638 17.3564 44.4326 19.6877 44.4326 22.5634C44.4326 25.4391 46.7638 27.7703 49.6396 27.7703Z" fill="white"/>
<path d="M135.727 27.7703C138.603 27.7703 140.934 25.4391 140.934 22.5634C140.934 19.6877 138.603 17.3564 135.727 17.3564C132.852 17.3564 130.521 19.6877 130.521 22.5634C130.521 25.4391 132.852 27.7703 135.727 27.7703Z" fill="white"/>
<path d="M51.7222 0H47.5566V23.9519H51.7222V0Z" fill="#E6E6E6"/>
<path d="M137.811 0H133.645V23.9519H137.811V0Z" fill="#E6E6E6"/>
<path d="M167.317 47.9036C167.315 49.7887 166.633 51.6098 165.396 53.0324C164.159 54.4549 162.45 55.3833 160.584 55.647C158.717 55.9107 156.818 55.4919 155.236 54.4677C153.653 53.4434 152.493 51.8825 151.97 50.0716C151.446 48.2608 151.593 46.3217 152.384 44.6107C153.175 42.8997 154.557 41.5317 156.276 40.758C157.995 39.9843 159.936 39.857 161.741 40.3994C163.546 40.9417 165.096 42.1174 166.104 43.7103C166.897 44.9648 167.318 46.4191 167.317 47.9036Z" fill="#4776E6"/>
<path d="M166.103 43.7104L158.376 51.4361C157.89 50.6842 155.185 47.19 155.185 47.19C155.531 46.8396 155.901 46.513 156.292 46.2124L158.536 49.2039L165.198 42.5415C165.536 42.9017 165.839 43.2931 166.103 43.7104Z" fill="white"/>
<path d="M81.0496 79.8396C81.0478 81.7247 80.3658 83.5458 79.1289 84.9684C77.892 86.3909 76.1833 87.3193 74.3168 87.583C72.4502 87.8467 70.5512 87.4279 68.9686 86.4037C67.3861 85.3794 66.2263 83.8185 65.7024 82.0076C65.1785 80.1968 65.3257 78.2578 66.1169 76.5468C66.9081 74.8357 68.2902 73.4677 70.0092 72.694C71.7282 71.9204 73.6687 71.793 75.474 72.3354C77.2794 72.8778 78.8284 74.0534 79.8365 75.6464C80.6303 76.9008 81.051 78.3551 81.0496 79.8396Z" fill="#4776E6"/>
<path d="M79.8364 75.6464L72.1093 83.3721C71.6236 82.6203 68.918 79.1261 68.918 79.1261C69.2647 78.7756 69.6347 78.449 70.0255 78.1484L72.2691 81.1399L78.9315 74.4775C79.2694 74.8377 79.5724 75.2291 79.8364 75.6464Z" fill="white"/>
<path d="M37.9164 79.8397C37.9146 81.7248 37.2326 83.5459 35.9957 84.9684C34.7588 86.391 33.0501 87.3194 31.1835 87.5831C29.3169 87.8468 27.4179 87.428 25.8354 86.4038C24.2528 85.3795 23.093 83.8185 22.5691 82.0077C22.0452 80.1969 22.1924 78.2578 22.9836 76.5468C23.7748 74.8357 25.1569 73.4677 26.8759 72.694C28.5949 71.9204 30.5354 71.793 32.3408 72.3354C34.1462 72.8778 35.6952 74.0535 36.7032 75.6464C37.4971 76.9008 37.9178 78.3551 37.9164 79.8397Z" fill="#4776E6"/>
<path d="M36.7026 75.6464L28.9755 83.3721C28.4899 82.6203 25.7842 79.1261 25.7842 79.1261C26.1309 78.7756 26.5009 78.449 26.8917 78.1484L29.1354 81.1399L35.7978 74.4775C36.1356 74.8377 36.4386 75.2291 36.7026 75.6464Z" fill="white"/>
<path d="M297.656 208.362H166.6C166.509 208.362 166.421 208.326 166.357 208.262C166.292 208.197 166.256 208.11 166.256 208.018C166.256 207.927 166.292 207.84 166.357 207.775C166.421 207.711 166.509 207.674 166.6 207.674H297.656C297.747 207.674 297.835 207.711 297.899 207.775C297.964 207.84 298 207.927 298 208.018C298 208.11 297.964 208.197 297.899 208.262C297.835 208.326 297.747 208.362 297.656 208.362Z" fill="#3F3D56"/>
</svg>
