<svg width="30" height="8" viewBox="0 0 30 8" fill="none" xmlns="http://www.w3.org/2000/svg">
<g opacity="0.552944">
<path d="M12.0886 4.41176C12.0886 6.29603 13.6161 7.82353 15.5003 7.82353C17.3846 7.82353 18.9121 6.29603 18.9121 4.41176C18.9121 2.5275 17.3846 1 15.5003 1C13.6161 1 12.0886 2.5275 12.0886 4.41176Z" fill="#4A4A4A"/>
<path d="M23.1765 4.41176C23.1765 6.29603 24.704 7.82353 26.5882 7.82353C28.4725 7.82353 30 6.29603 30 4.41176C30 2.5275 28.4725 1 26.5882 1C24.704 1 23.1765 2.5275 23.1765 4.41176Z" fill="#4A4A4A"/>
<path d="M0.912109 4.32353C0.912109 6.25653 2.47911 7.82353 4.41211 7.82353C6.34511 7.82353 7.91211 6.25653 7.91211 4.32353C7.91211 2.39054 6.34511 0.823532 4.41211 0.823532C2.47911 0.823532 0.912109 2.39054 0.912109 4.32353Z" fill="#4A4A4A"/>
</g>
</svg>
