<svg width="43" height="43" viewBox="0 0 43 43" fill="none" xmlns="http://www.w3.org/2000/svg">
<circle cx="21.5" cy="21.5" r="21.5" fill="#F8F8F8"/>
<path d="M9.23843 21.8955C9.20849 25.0845 12.0239 27.707 15.5159 27.7398L19.3023 27.7753L19.3135 26.5847L15.5271 26.5491C12.6914 26.5225 10.4053 24.4393 10.4291 21.9066C10.4528 19.3739 12.7735 17.3298 15.6154 17.3628L19.4019 17.3984L19.4298 16.2163L15.6433 16.1808C12.1347 16.1394 9.26837 18.7064 9.23843 21.8955Z" fill="#2A2A2A"/>
<path d="M32.9499 18.0135C31.7363 16.9092 30.1552 16.2959 28.5144 16.293L24.728 16.2575L24.7168 17.4481L28.5033 17.4836C29.8487 17.4844 31.1457 17.9855 32.1422 18.8895C32.6048 19.2911 32.9747 19.7884 33.2264 20.3469C33.4781 20.9055 33.6056 21.512 33.6001 22.1246C33.5945 22.7372 33.4561 23.3413 33.1943 23.8952C32.9325 24.4491 32.5536 24.9396 32.0838 25.3327C31.0697 26.2176 29.7627 26.6935 28.417 26.6679L24.6306 26.6323L24.6027 27.8144L28.3891 27.8499C30.0297 27.8778 31.6219 27.2944 32.856 26.2131L33.079 25.9943C33.6243 25.4784 34.0564 24.8547 34.3476 24.1628C34.6389 23.4709 34.7831 22.726 34.7709 21.9754C34.7588 21.2249 34.5906 20.485 34.2771 19.8029C33.9636 19.1208 33.5116 18.5114 32.9499 18.0135Z" fill="#2A2A2A"/>
<path d="M15.7026 21.3609L15.6914 22.5509L28.3288 22.6696L28.34 21.4796L15.7026 21.3609Z" fill="#2A2A2A"/>
</svg>
