<svg version="1.1" id="Layer_1" xmlns="http://www.w3.org/2000/svg" x="0" y="0" viewBox="0 0 50.31 95.62" xml:space="preserve"><style>.st0{fill:#aeaeae}.st1{fill:#3a3a3a}.st2{fill:#fff}</style><path class="st2" d="M38.86 78.46c-.99.01-1.93.02-2.92-.01-1.5-.04-2.62.19-3.91.38-1.49.21-3.01.24-4.58-.01-.34-.06-.7-.14-1.09-.14-.39-.01-.76.06-1.09.11-.8.11-1.62.21-2.53.22-.85.01-1.72-.03-2.58-.05l-2.27-.03c-.76-.01-1.47-.02-2.15-.17-.65-.14-1.18-.22-1.97-.24-.83-.02-1.81-.08-2.61-.03-.66.04-.97.23-1.65.24-.32 0-.65-.03-.97-.03h-.29c-.16 0-.33-.01-.5-.01-.75-.03-1.52-.05-2.25-.03-.42.01-.83.02-1.22.05-.59.04-1.2.1-1.72.17 0-.05 0-.11.01-.15.01-.1.03-.16.05-.24.04-.19.06-.47.09-.69.02-.23.04-.49.04-.74 0-.28.01-.57 0-.84-.01-.21-.04-.34-.06-.53-.03-.26.01-.71.02-.97.02-.42.07-.83.11-1.24.07-.8.13-1.7.01-2.48-.05-.33-.11-.61-.14-1-.03-.48-.02-1-.02-1.49.01-.95-.02-1.9-.06-2.84-.04-.95-.16-1.84-.15-2.82.01-1.24.19-2.46.15-3.7-.02-.45-.08-.85-.11-1.27-.06-.58-.08-1.19-.07-1.8.01-1.29.1-2.48.2-3.69.04-.44.07-.89.06-1.36-.01-.52-.08-.99-.14-1.46-.18-1.57-.2-3.29-.16-4.98.03-1.45.14-2.74.23-4.15.09-1.36 0-2.54-.03-3.89-.03-1.3.16-2.47.14-3.75-.01-1.12-.24-1.96-.25-3.07-.01-1.38.12-2.68.05-4.09-.04-.99-.21-1.94-.11-2.94.08-.8.22-1.83.11-2.7-.03-.22-.07-.39-.09-.63-.02-.17-.03-.34-.04-.52-.03-.58-.03-1.24-.01-1.83.01-.58.06-1.14.1-1.7.05-.71.09-1.45.1-2.2h.09c.07 0 .14.01.2.02.54.06 1.17.1 1.78.12.14.01.29.01.42.03.07.01.15.02.22.04.05.01.11.01.18.01.06 0 .16.01.21.02.09 0 .17-.01.26-.01.18-.01.37-.01.51.01.08.02.19.04.28.06.14.03.33.03.51.02.29-.01.56-.06.81-.1.24-.04.55-.11.82-.1.3 0 .4.09.56.14.41.14.86-.06 1.39-.07.24-.01.44.01.69-.01.29-.03.54-.1.82-.14.75-.11 1.09.04 1.67.11.69.09 1.36 0 2.11-.04.71-.04 1.32 0 1.99.02h.76c.49 0 .96.03 1.43.06.68.04 1.4.05 2.06.11.29.03.53.08.84.08.29 0 .61.02.89-.01.51-.05.93-.03 1.42 0 .56.03 1.07.02 1.64-.02.46-.03.8-.02 1.24.01 1.54.12 3.24-.12 4.79-.2 1.71-.09 3.57-.12 5.24-.01.61.04 1.17.13 1.76.19.56.04 1.01.08 1.58.12.5.05.97.14 1.51.12.2-.01.38-.03.57-.05 0 .3.01.59 0 .88-.01.18-.03.35-.03.54v.57c0 .21 0 .38.01.58.02.35 0 .71.05 1.04l.12.97c.01.08.03.17.04.26v.16c0 .05.02.08.02.12.01.15-.01.31 0 .46 0 .17.01.27 0 .44-.05.47-.05.95-.08 1.41-.04.63-.1 1.26-.09 1.92 0 .63.03 1.26.04 1.89.01 1.11.03 2.21.1 3.29.06.95.19 1.81.26 2.74.06.81-.02 1.44-.11 2.17-.16 1.25-.29 2.54-.35 3.93-.13 3.03.01 6.02.03 9.05.01 1.57-.02 3.21-.15 4.7-.07.79-.17 1.62-.13 2.47.03.78.19 1.26.27 1.95.13 1.16-.14 2.3-.19 3.43-.06 1.23.04 2.39-.11 3.57.22.41.04 1.63-.02 2.27-.05.54-.02.81.03 1.31.03.36.02.75.02 1.13 0 .76-.02 1.61.04 2.34.03.34.12.47.17.78.07.4.05.9.04 1.35-.01.73-.01 1.47 0 2.19 0 .32.04.62.04.94 0 .2-.02.39-.01.59.02.69.05 1.37.07 2.07.01.51.02 1.01.05 1.5-.87-.01-1.73-.1-2.59-.15-.85-.04-1.7-.06-2.52-.05z"/><path class="st0" d="M46.17 70.08c-.03-.48-.02-1-.01-1.49.01-.95-.02-1.91-.06-2.84-.04-.95-.16-1.84-.15-2.82.01-1.24.19-2.46.15-3.7-.02-.45-.08-.85-.11-1.28-.06-.58-.08-1.19-.07-1.81.01-1.29.1-2.48.2-3.7.04-.44.07-.89.06-1.36-.01-.52-.08-.99-.14-1.46-.18-1.57-.2-3.3-.16-4.99.03-1.45.14-2.74.23-4.15.09-1.36 0-2.54-.03-3.9-.03-1.3.16-2.48.14-3.76-.01-1.12-.23-1.96-.25-3.08-.01-1.38.12-2.68.06-4.09-.04-.99-.21-1.94-.11-2.94.08-.8.22-1.83.11-2.7-.03-.22-.07-.39-.09-.63-.02-.17-.03-.34-.04-.53-.03-.58-.03-1.24-.01-1.83.01-.58.06-1.14.1-1.7.05-.71.09-1.46.1-2.2v-.19c.13-.21.23-.44.23-.71v-.01c0-.47.06-.92.04-1.4-.01-.45-.08-.91-.04-1.36.04-.41.11-.72.09-1.17-.02-.52-.11-1-.13-1.52-.02-.56-.03-1.27-.22-1.88-.13-.51-.36-.98-.59-1.45-.54-1.01-1.32-1.91-2.32-2.53-1.17-.77-2.72-.86-3.82-.71-1.15.11-2.19.24-3.38.13-.44-.04-.89-.09-1.35-.09-.44.01-.9.03-1.34.04-.78.02-1.56.04-2.33.11-.67.06-1.27.19-1.93.26-.57.06-1.02-.01-1.53-.1-.89-.16-1.8-.28-2.78-.34-2.14-.13-4.26.03-6.41.05-1.12.04-2.28.02-3.34-.12-.55-.07-1.15-.16-1.75-.12-.55.04-.89.19-1.37.27C11 .41 10.2.15 9.4.1 8.53.05 7.71.14 6.87 0c-.11.1-.49.13-.87.13-.39.03-.81.04-1.1.1-.48.09-.71.2-1.1.44-.28.17-.57.34-.86.52-.56.38-1.13.91-1.48 1.47-.16.26-.15.39-.24.65-.12.28-.31.68-.46.99-.08.17-.13.34-.19.52-.05.22-.11.44-.16.66-.08.4-.14.79-.18 1.19-.07.86-.07 1.72.05 2.57.09.64.22 1.22.36 1.7-.02.06-.03.11-.04.14 0 .21-.06.51-.08.69-.04.32-.11.55-.15.86-.07.59-.02 1.26-.04 1.89-.01.18-.03.35-.03.54v.57c0 .2 0 .38.01.58.02.35 0 .71.05 1.04l.12.97c.01.08.03.17.04.26v.16c0 .05.02.08.02.12.01.15-.01.31 0 .46 0 .17.01.26 0 .44-.04.45-.04.93-.07 1.39-.04.62-.1 1.25-.09 1.92 0 .62.03 1.26.04 1.89.01 1.11.03 2.21.1 3.29.06.95.19 1.81.26 2.74.06.81-.02 1.44-.11 2.17-.16 1.25-.29 2.54-.35 3.93-.13 3.02.01 6.02.03 9.04.01 1.57-.02 3.21-.15 4.7-.07.79-.17 1.62-.13 2.47.03.77.19 1.26.27 1.94.13 1.16-.14 2.3-.19 3.42-.06 1.23.04 2.39-.11 3.57.22.41.04 1.62-.02 2.27-.05.54-.02.81.03 1.31.03.36.02.75.02 1.12 0 .76-.02 1.61.04 2.34.03.34.12.47.17.77.07.4.05.9.04 1.35-.01.72-.01 1.47 0 2.19 0 .32.04.62.04.94 0 .2-.02.39-.01.59.02.69.06 1.37.07 2.07.01.78.02 1.59.1 2.31.04.4.11.73.18 1.02-.01.03-.03.06-.05.1-.01.02-.09.16-.09.2-.01.12-.05.21-.07.29a4.425 4.425 0 0 0-.11.59c-.01.11-.01.18-.02.28-.01.11-.03.24-.04.35l-.03.41c-.03.2-.04.37-.04.56 0 .14.02.31 0 .45.01.01.01.04.01.08.01.01.02.14.02.19.03.4.01.74-.04 1.12-.11.89-.32 1.95-.15 2.9.05.29.1.49.15.86.05.45.09.92.2 1.36.2.84.57 1.63 1.06 2.31.5.69 1.12 1.2 1.82 1.72.86.66 1.92 1.28 3.12 1.29.44.01.67-.07 1.01-.1.44-.05.9-.07 1.37-.07.97.01 1.88.11 2.8.2.33.04.68.07 1.03.06.4-.01.75-.08 1.11-.14 1.19-.18 2.49-.2 3.78-.16 1.1.03 2.08.14 3.15.24 1.03.09 1.93 0 2.96-.03.98-.03 1.87.16 2.85.15.85-.01 1.49-.23 2.33-.25 1.05-.01 2.04.12 3.1.06.75-.04 1.47-.21 2.23-.1.86.12 1.57.25 2.41.03.39-.1.7-.23 1.14-.3.6-.1 1.27-.05 1.88.01 1.73.18 3.65-.4 4.91-1.95.73-.91 1.12-2.03 1.35-3.14.07-.42.17-.95.26-1.47.08-.44.14-.89.15-1.38.01-.84-.3-1.45-.24-2.28.05-.79.31-1.33.16-2.17-.13-.69-.28-1.05-.16-1.87.03-.25.07-.47.07-.75 0-.1-.01-.19-.01-.29l-.01-.13v-.02c-.01-.09-.04-.17-.07-.25.01-.12.02-.23.04-.35.01-.07.01-.16.01-.22.01-.1.03-.16.05-.24.04-.19.06-.47.09-.69.02-.23.04-.49.04-.74 0-.28.01-.57 0-.84-.01-.21-.04-.34-.06-.53-.03-.26.01-.71.02-.97.02-.43.07-.83.11-1.24.07-.8.14-1.7.01-2.48-.05-.32-.11-.61-.14-.99zm-7.31 8.38c-.99.01-1.93.02-2.92-.01-1.5-.04-2.62.19-3.91.38-1.49.21-3.01.24-4.58-.01-.34-.06-.7-.14-1.09-.14-.39-.01-.76.06-1.09.11-.8.11-1.62.21-2.53.22-.85.01-1.72-.03-2.58-.05l-2.27-.03c-.76-.01-1.47-.02-2.15-.17-.65-.14-1.18-.22-1.97-.24-.83-.02-1.81-.08-2.61-.03-.66.04-.97.23-1.65.24-.32 0-.65-.03-.97-.03h-.29c-.16 0-.33-.01-.5-.01-.75-.03-1.52-.05-2.25-.03-.42.01-.83.02-1.22.05-.59.04-1.2.1-1.72.17 0-.05 0-.11.01-.15.01-.1.03-.16.05-.24.04-.19.06-.47.09-.69.02-.23.04-.49.04-.74 0-.28.01-.57 0-.84-.01-.21-.04-.34-.06-.53-.03-.26.01-.71.02-.97.02-.42.07-.83.11-1.24.07-.8.13-1.7.01-2.48-.05-.33-.11-.61-.14-1-.03-.48-.02-1-.02-1.49.01-.95-.02-1.9-.06-2.84-.04-.95-.16-1.84-.15-2.82.01-1.24.19-2.46.15-3.7-.02-.45-.08-.85-.11-1.27-.06-.58-.08-1.19-.07-1.8.01-1.29.1-2.48.2-3.69.04-.44.07-.89.06-1.36-.01-.52-.08-.99-.14-1.46-.18-1.57-.2-3.29-.16-4.98.03-1.45.14-2.74.23-4.15.09-1.36 0-2.54-.03-3.89-.03-1.3.16-2.47.14-3.75-.01-1.12-.24-1.96-.25-3.07-.01-1.38.12-2.68.05-4.09-.04-.99-.21-1.94-.11-2.94.08-.8.22-1.83.11-2.7-.03-.22-.07-.39-.09-.63-.02-.17-.03-.34-.04-.52-.03-.58-.03-1.24-.01-1.83.01-.58.06-1.14.1-1.7.05-.71.09-1.45.1-2.2h.09c.07 0 .14.01.2.02.54.06 1.17.1 1.78.12.14.01.29.01.42.03.07.01.15.02.22.04.05.01.11.01.18.01.06 0 .16.01.21.02.09 0 .17-.01.26-.01.18-.01.37-.01.51.01.08.02.19.04.28.06.14.03.33.03.51.02.29-.01.56-.06.81-.1.24-.04.55-.11.82-.1.3 0 .4.09.56.14.41.14.86-.06 1.39-.07.24-.01.44.01.69-.01.29-.03.54-.1.82-.14.75-.11 1.09.04 1.67.11.69.09 1.36 0 2.11-.04.71-.04 1.32 0 1.99.02h.76c.49 0 .96.03 1.43.06.68.04 1.4.05 2.06.11.29.03.53.08.84.08.29 0 .61.02.89-.01.51-.05.93-.03 1.42 0 .56.03 1.07.02 1.64-.02.46-.03.8-.02 1.24.01 1.54.12 3.24-.12 4.79-.2 1.71-.09 3.57-.12 5.24-.01.61.04 1.17.13 1.76.19.56.04 1.01.08 1.58.12.5.05.97.14 1.51.12.2-.01.38-.03.57-.05 0 .3.01.59 0 .88-.01.18-.03.35-.03.54v.57c0 .21 0 .38.01.58.02.35 0 .71.05 1.04l.12.97c.01.08.03.17.04.26v.16c0 .05.02.08.02.12.01.15-.01.31 0 .46 0 .17.01.27 0 .44-.05.47-.05.95-.08 1.41-.04.63-.1 1.26-.09 1.92 0 .63.03 1.26.04 1.89.01 1.11.03 2.21.1 3.29.06.95.19 1.81.26 2.74.06.81-.02 1.44-.11 2.17-.16 1.25-.29 2.54-.35 3.93-.13 3.03.01 6.02.03 9.05.01 1.57-.02 3.21-.15 4.7-.07.79-.17 1.62-.13 2.47.03.78.19 1.26.27 1.95.13 1.16-.14 2.3-.19 3.43-.06 1.23.04 2.39-.11 3.57.22.41.04 1.63-.02 2.27-.05.54-.02.81.03 1.31.03.36.02.75.02 1.13 0 .76-.02 1.61.04 2.34.03.34.12.47.17.78.07.4.05.9.04 1.35-.01.73-.01 1.47 0 2.19 0 .32.04.62.04.94 0 .2-.02.39-.01.59.02.69.05 1.37.07 2.07.01.51.02 1.01.05 1.5-.87-.01-1.73-.1-2.59-.15-.85-.04-1.7-.06-2.52-.05z"/><path class="st2" d="M30.8 5.98c.04.02.07.03.1.05.06.04.1.09.14.13.05.06.09.13.1.2.01.1 0 .2.01.31.01.07.04.13.04.2s-.04.14-.09.2c0 .06-.05.12-.1.18-.03.04-.07.08-.09.13-.02.04-.06.08-.09.12-.02.02-.02.04-.04.06-.01.01-.01.02-.02.03-.02.01-.04.01-.06.02-.03.01-.03.04-.07.05-.03.01-.09.01-.12.01l-.01.01c-.03 0-.05.01-.08.02s-.08 0-.11.01c-.01.01-.01.02-.02.03-.02.01-.06.02-.08.02-.1.03-.21.02-.31.05-.13.03-.27.06-.39.1-.12.04-.26.04-.4.05-.32.02-.64.01-.96 0-.63-.02-1.26-.08-1.9-.09-.88-.02-1.76.06-2.65.05-.51-.01-1.01-.02-1.52 0-.73.02-1.45.08-2.18.12-.83.04-1.67.08-2.51.04-.2-.01-.4-.03-.6-.06-.32-.04-.68-.09-.94-.21-.24-.11-.39-.3-.48-.47-.15-.28-.1-.58.07-.85.14-.22.35-.46.71-.6.32-.13.72-.12 1.1-.1.11.01.21 0 .32-.01.26-.03.53-.01.78-.04.27-.03.54-.01.82-.01.59-.01 1.17-.03 1.76-.06.59-.03 1.18-.05 1.76-.08.59-.03 1.17-.04 1.76-.04.59 0 1.18.01 1.76.06.07.01.15.01.22.02.43.04.85.08 1.28.09.34.01.68.01 1.02-.01.35-.01.68.01 1.03.02.16 0 .33-.01.46.04.17.06.31.14.46.21a.16.16 0 0 1 .12 0zM27.13 86.68c0-.08 0-.17-.03-.24-.04-.12-.11-.22-.18-.31-.08-.12-.19-.25-.31-.31-.07-.04-.15-.02-.22-.01-.09.01-.18.02-.27.02-.05 0-.11-.01-.16-.01v-.02a.488.488 0 0 1-.03-.07c.05-.01.1-.02.14-.03.18-.06.33-.18.45-.34.14-.23.1-.55-.01-.85-.02-.03-.02-.04-.03-.07-.01-.03-.01-.06-.01-.1a.784.784 0 0 0-.09-.24c-.04-.08-.08-.17-.14-.23-.07-.07-.14-.15-.22-.21-.06-.04-.12-.05-.18-.08-.09-.04-.19-.17-.26-.23-.11-.1-.21-.23-.32-.33-.22-.21-.52-.4-.83-.36-.13.01-.24.05-.38.05-.17-.01-.35-.04-.53-.06-.34-.03-.68.01-.99.11-.32.1-.58.29-.88.42-.37.15-.84.22-1.14.55-.11.11-.16.26-.23.39-.09.19-.2.35-.31.52-.24.35-.49.67-.7 1.05-.08.14-.14.29-.16.45-.01.19.04.36.1.52.17.54.28 1.07.46 1.59.16.44.29.87.56 1.29.26.41.67.6 1.08.79.4.18.73.49 1.19.56.4.05.7-.16 1.07-.21.23-.02.45-.04.68-.08.11-.02.24-.05.32-.07.07-.02.14-.05.22-.09.21-.12.54-.39.94-.61.32-.18.64-.41.67-.68.01-.07 0-.13.01-.2l.03-.15c.05-.14.17-.37.24-.54.06-.11.15-.31.25-.51.1-.22.16-.46.19-.69.02-.14.02-.26.01-.38z"/><path class="st0" d="M32.15 42.37c-.02-.1-.01-.2-.02-.31a.475.475 0 0 0-.09-.19.8.8 0 0 0-.13-.13.405.405 0 0 0-.09-.05c-.02-.01-.05-.02-.07-.03-.13-.07-.26-.14-.4-.2-.12-.05-.27-.03-.4-.03-.3.01-.59-.01-.89.02-.29.02-.59.04-.88.04-.37 0-.74-.03-1.11-.05-.06 0-.13-.01-.19-.01-.51-.02-1.02-.02-1.52 0-.51.02-1.02.05-1.52.1-.51.04-1.01.09-1.52.13-.5.05-1.01.08-1.52.11-.24.01-.47.01-.71.04-.22.03-.45.03-.68.06-.09.01-.18.02-.28.02-.16-.01-.32 0-.47.01l-.03-.67a116 116 0 0 1-.1-2.66c-.01-.41 0-.82-.03-1.24-.03-.39-.02-.79-.06-1.18-.01-.16-.02-.32-.02-.49.01-.57.01-1.18-.13-1.66-.15-.54-.4-.85-.62-1.06-.28-.25-.58-.32-.85-.09-.16.13-.35.37-.46.73-.11.39-.16.94-.19 1.42-.02.29-.04.6-.04.9-.02 1.26.03 2.53.1 3.79.06 1.1.13 2.19.17 3.29.03.76.03 1.53.04 2.29.01 1.34.11 2.66.11 4 .01.96-.04 1.91-.04 2.87 0 .48 0 .97.02 1.45.01.2.01.42.06.6.04.19.07.39.11.59.03.15.03.32.06.46.01.03.01.09.02.12.01.02.02.02.03.04.01.04.01.11.01.16.01.04.02.08.02.13 0 .01.01.01.01.02 0 .05.01.15.02.19.01.06.04.05.05.1.01.03.01.06.02.09.01.02.02.03.03.04.02.03.04.03.06.06.04.05.07.1.12.14.05.04.09.09.13.14.06.06.12.14.18.15.07.07.13.13.21.13.07 0 .13-.05.2-.07.1-.02.2-.01.31-.02.07-.01.13-.07.19-.15.05-.06.09-.13.13-.22.02-.05.04-.1.05-.16l.03-.12c.07-.22.14-.44.2-.69.05-.21.03-.46.03-.7-.01-.52.01-1.03-.01-1.55-.02-.51-.03-1.02-.03-1.54 0-.65.03-1.29.06-1.94 0-.11.01-.22.01-.33.03-.88.03-1.78.01-2.66 0-.19-.01-.37-.02-.56.53.52 1.08 1.02 1.64 1.5.63.54 1.26 1.07 1.88 1.62.43.39.84.79 1.25 1.19.72.7 1.5 1.34 2.22 2.04.52.51 1 1.04 1.51 1.55.26.26.52.51.79.75.11.1.24.22.36.28.13.07.26.16.39.23.1.06.19.15.29.21.02.01.06.04.08.05.02 0 .02-.01.04 0 .03.01.07.05.1.08.03.02.05.03.08.05h.02c.03.02.08.07.11.09.04.02.05 0 .09.02.02.01.04.03.06.04h.04c.03 0 .04-.01.07-.01.05 0 .11 0 .16-.01s.11-.01.17-.02c.07-.01.16-.01.21-.05.08-.01.17-.03.21-.08.05-.05.07-.12.1-.18.06-.09.14-.15.2-.23.04-.05.05-.13.05-.22 0-.06-.01-.13-.03-.21a.612.612 0 0 0-.05-.12c-.01-.03-.03-.06-.04-.09-.07-.17-.14-.34-.23-.51-.08-.15-.22-.27-.35-.4-.28-.27-.55-.56-.84-.82-.29-.26-.57-.52-.85-.79-.35-.35-.67-.71-1-1.07-.06-.06-.11-.12-.17-.18-.45-.49-.93-.96-1.42-1.42-.49-.46-.98-.91-1.49-1.35-.5-.44-1.01-.88-1.51-1.32-.5-.44-1-.89-1.49-1.34-.23-.21-.44-.44-.69-.63-.18-.15-.36-.31-.54-.47.42-.02.83-.05 1.25-.09.63-.06 1.25-.14 1.88-.18.44-.03.87-.04 1.31-.05.76-.02 1.52-.12 2.28-.13.55-.01 1.09.03 1.64.03.28 0 .55 0 .83-.03.11-.01.24-.02.34-.06.1-.05.22-.07.33-.11.08-.03.18-.03.26-.06.02-.01.05-.01.07-.02.01-.01.01-.02.02-.03.02-.01.06-.01.09-.02s.04-.02.07-.02l.01-.01c.03 0 .08-.01.11-.02s.03-.04.06-.05c.02-.01.04-.01.05-.02.01-.01.01-.02.02-.03l.03-.06c.03-.04.06-.08.07-.12.02-.05.05-.09.08-.13.03-.06.08-.12.08-.18.04-.07.07-.13.07-.21-.01-.12-.04-.19-.05-.25z"/><path class="st1" d="M37.31.36c-.2-.02-.41-.03-.62-.04v.05c.21.01.42 0 .62-.01zM50.24 82.66c-.05-.48-.11-.89-.14-1.45-.03-.7-.02-1.46-.02-2.18 0-1.38-.02-2.77-.06-4.14-.04-1.39-.16-2.68-.15-4.11.01-1.8.19-3.58.14-5.38-.02-.66-.08-1.24-.12-1.85-.06-.85-.08-1.73-.07-2.63.01-1.87.1-3.61.2-5.37.04-.64.07-1.3.06-1.98-.01-.77-.09-1.45-.14-2.14-.19-2.28-.2-4.79-.17-7.25.03-2.12.14-4 .23-6.04.09-1.98 0-3.7-.03-5.67-.03-1.89.16-3.6.14-5.46-.01-1.63-.24-2.85-.25-4.47-.01-2.02.12-3.91.05-5.95-.05-1.44-.21-2.81-.11-4.27.12-1.66.24-3.01.02-4.63-.05-.35-.11-.71-.16-1.06-.06-.4-.15-.81-.28-1.26-.36-1.24-1.1-2.51-2.11-3.36a5.967 5.967 0 0 0-3.5-1.42C43.34.53 43 .54 42.62.54h-.21c.26.1.51.22.74.38 1 .61 1.78 1.51 2.32 2.53.23.47.46.94.59 1.45.19.61.2 1.32.22 1.88.02.53.11 1 .13 1.52.02.45-.06.76-.09 1.17-.04.45.03.91.04 1.36.01.47-.04.93-.04 1.4v.01c0 .27-.1.5-.23.71v.19c-.01.74-.05 1.49-.1 2.2-.04.56-.08 1.12-.1 1.7-.01.59-.02 1.25.01 1.83.01.18.03.36.04.53.02.24.07.41.09.63.12.87-.02 1.9-.11 2.7-.1 1 .06 1.95.11 2.94.06 1.41-.07 2.71-.06 4.09.01 1.12.23 1.96.25 3.08.01 1.28-.17 2.46-.14 3.76.03 1.35.12 2.53.03 3.9-.09 1.41-.2 2.7-.23 4.15-.04 1.69-.02 3.42.16 4.99.06.47.13.94.14 1.46.01.47-.02.93-.06 1.36-.1 1.21-.19 2.41-.2 3.7-.01.62.02 1.23.07 1.81.04.43.1.83.11 1.28.05 1.24-.14 2.46-.15 3.7-.01.98.11 1.87.15 2.82.04.94.07 1.89.06 2.84 0 .49-.02 1.01.01 1.49.03.39.09.67.14 1 .12.78.06 1.68-.01 2.48-.04.41-.08.81-.11 1.24-.01.26-.05.71-.02.97.02.19.05.32.06.53.01.27 0 .56 0 .84 0 .25-.02.51-.04.74-.02.22-.05.5-.09.69-.02.08-.04.14-.05.24-.01.06-.01.15-.01.22-.01.12-.02.23-.04.35.03.08.06.16.07.25v.02l.01.13c0 .1.01.2.01.29 0 .27-.03.5-.07.75-.12.82.03 1.18.16 1.87.15.84-.11 1.38-.16 2.17-.05.83.25 1.44.24 2.28 0 .49-.07.94-.15 1.38-.09.52-.18 1.05-.26 1.47-.22 1.12-.62 2.23-1.35 3.14-.76.93-1.77 1.51-2.82 1.79.17 0 .32-.01.43-.04.04-.02.07-.04.09-.07l.14.11c.33 0 .67-.04 1.02-.11.1.07.2.13.32.17.27.11.62.19.93.24.11.02.12.09.35.06.15-.03.34-.08.51-.13.07-.01.44-.12.52-.17.17-.08.44-.21.61-.3.17-.09.34-.17.51-.3.19-.13.4-.27.58-.43.14-.12.29-.25.42-.38.18-.2.35-.32.53-.54.18-.23.37-.44.52-.69.23-.32.39-.66.56-1.03.09-.3.21-.62.29-.94-.01-.02 0-.08.02-.16-.01-.02.05-.29.04-.41.01-.23.01-.44.02-.64v-.48c0-.32.02-.64.04-.98.09-1.62.28-3.46.11-5.06z"/></svg>