<svg width="24" height="32" viewBox="0 0 24 32" fill="none" xmlns="http://www.w3.org/2000/svg">
<path d="M23.8047 6.862L17.138 0.195312C17.013 0.0703125 16.8438 0 16.6666 0H2.66663C1.19662 0 0 1.19594 0 2.66669V29.3334C0 30.8041 1.19662 32 2.66669 32H21.3334C22.8034 32 24 30.8041 24 29.3333V7.33331C24 7.15625 23.9297 6.987 23.8047 6.862ZM17.3333 2.27606L21.7239 6.66669H18.6666C17.9309 6.66669 17.3333 6.06838 17.3333 5.33337V2.27606ZM22.6667 29.3333C22.6667 30.0683 22.069 30.6666 21.3334 30.6666H2.66669C1.931 30.6666 1.33337 30.0683 1.33337 29.3333V2.66669C1.33337 1.93169 1.93106 1.33337 2.66669 1.33337H16V5.33337C16 6.80406 17.1966 8 18.6667 8H22.6667V29.3333Z" fill="#2A2A2A"/>
<path d="M19.3333 18.6667H4.66669C4.29819 18.6667 4 18.9649 4 19.3334C4 19.7019 4.29819 20.0001 4.66669 20.0001H19.3334C19.7019 20.0001 20.0001 19.7019 20.0001 19.3334C20 18.9649 19.7018 18.6667 19.3333 18.6667Z" fill="#2A2A2A"/>
<path d="M19.3333 14.6667H4.66669C4.29819 14.6667 4 14.9649 4 15.3334C4 15.7019 4.29819 16.0001 4.66669 16.0001H19.3334C19.7019 16.0001 20.0001 15.7019 20.0001 15.3334C20 14.9649 19.7018 14.6667 19.3333 14.6667Z" fill="#2A2A2A"/>
<path d="M19.3333 22.6667H4.66669C4.29819 22.6667 4 22.9649 4 23.3334C4 23.7019 4.29819 24.0001 4.66669 24.0001H19.3334C19.7019 24.0001 20.0001 23.7019 20.0001 23.3334C20 22.9649 19.7018 22.6667 19.3333 22.6667Z" fill="#2A2A2A"/>
<path d="M12.6667 26.6667H4.66669C4.29819 26.6667 4 26.9649 4 27.3334C4 27.7019 4.29819 28.0001 4.66669 28.0001H12.6667C13.0352 28.0001 13.3334 27.7019 13.3334 27.3334C13.3333 26.9649 13.0352 26.6667 12.6667 26.6667Z" fill="#2A2A2A"/>
<path d="M10.6666 11.3333C10.6666 11.7018 10.9648 12 11.3333 12H19.3333C19.7018 12 20 11.7018 20 11.3333C20 10.9648 19.7018 10.6666 19.3333 10.6666H11.3333C10.9648 10.6667 10.6666 10.9649 10.6666 11.3333Z" fill="#2A2A2A"/>
<path d="M6.5 7.375C5.8225 7.375 5.25 6.94625 5.25 6.4375C5.25 5.92875 5.8225 5.5 6.5 5.5C6.84 5.5 7.1575 5.605 7.3925 5.7975C7.66 6.015 8.0525 5.97375 8.2725 5.7075C8.49 5.44 8.45 5.04625 8.1825 4.8275C7.88125 4.5825 7.51625 4.4175 7.125 4.32875V3.625C7.125 3.28 6.845 3 6.5 3C6.155 3 5.875 3.28 5.875 3.625V4.3275C4.8 4.5725 4 5.42125 4 6.4375C4 7.64375 5.12125 8.625 6.5 8.625C7.1775 8.625 7.75 9.05375 7.75 9.5625C7.75 10.0712 7.1775 10.5 6.5 10.5C6.16 10.5 5.8425 10.395 5.6075 10.2025C5.33875 9.98375 4.94625 10.025 4.72875 10.2925C4.51 10.56 4.55 10.9538 4.8175 11.1725C5.11875 11.4175 5.48375 11.5825 5.875 11.6725V12.375C5.875 12.72 6.155 13 6.5 13C6.845 13 7.125 12.72 7.125 12.375V11.6725C8.2 11.4275 9 10.5788 9 9.5625C9 8.35625 7.87875 7.375 6.5 7.375Z" fill="#2A2A2A"/>
</svg>
