<svg width="37" height="37" viewBox="0 0 37 37" fill="none" xmlns="http://www.w3.org/2000/svg">
<circle opacity="0.08" cx="18.2078" cy="18.2083" r="14.5833" fill="#D8D8D8"/>
<circle opacity="0.8" cx="18.5" cy="18.5" r="18" stroke="#979797" stroke-dasharray="3 3"/>
<path d="M18.4315 11.5C20.6212 11.5 22.4143 13.2931 22.4143 15.4828C22.4143 17.6897 20.6212 19.4655 18.4315 19.4655C16.2246 19.4655 14.4315 17.6897 14.4315 15.4828C14.4315 13.2931 16.2246 11.5 18.4315 11.5ZM15.8626 20.1379H21.1557C23.5522 20.1379 25.5005 22.0862 25.5005 24.4828V25.5517H24.6212V24.4828C24.6212 22.5862 23.0695 21.0172 21.1557 21.0172H15.8626C13.9488 21.0172 12.397 22.5862 12.397 24.4828V25.5517H11.5005V24.4828C11.5005 22.0862 13.466 20.1379 15.8626 20.1379ZM18.4315 12.3793C16.7074 12.3793 15.3281 13.7759 15.3281 15.4828C15.3281 17.2069 16.7074 18.5862 18.4315 18.5862C20.1384 18.5862 21.5177 17.2069 21.5177 15.4828C21.5177 13.7759 20.1384 12.3793 18.4315 12.3793Z" fill="#959596"/>
</svg>
