<svg width="176" height="175" viewBox="0 0 176 175" fill="none" xmlns="http://www.w3.org/2000/svg">
<path d="M115.988 46.3641H87.1261C86.4943 46.366 85.8703 46.2237 85.3017 45.9482C84.7331 45.6726 84.2348 45.271 83.8448 44.7738C83.4478 44.272 83.1704 43.6862 83.0339 43.061C82.8974 42.4358 82.9053 41.7877 83.0571 41.1661C85.7171 30.0243 85.7171 18.4128 83.0569 7.27108C82.9052 6.64943 82.8974 6.00138 83.0339 5.37623C83.1704 4.75108 83.4477 4.16531 83.8448 3.66348C84.2347 3.16632 84.733 2.76467 85.3016 2.48911C85.8703 2.21354 86.4942 2.07132 87.1261 2.07326H115.988C116.985 2.07613 117.948 2.43262 118.706 3.07923C119.464 3.72585 119.968 4.62062 120.128 5.60416C122.028 17.9411 122.028 30.4962 120.128 42.8332C119.968 43.8167 119.464 44.7115 118.706 45.3581C117.948 46.0047 116.985 46.3612 115.988 46.3641Z" fill="#E6E6E6"/>
<path d="M87.1263 4.24415C86.8228 4.24313 86.5232 4.31134 86.25 4.44358C85.9769 4.57581 85.7376 4.7686 85.5502 5.00727C85.3572 5.25182 85.2226 5.53714 85.1565 5.84155C85.0904 6.14596 85.0946 6.46144 85.1688 6.76398C87.9084 18.2386 87.9085 30.1971 85.169 41.6718C85.0947 41.9743 85.0905 42.2897 85.1565 42.594C85.2226 42.8984 85.3572 43.1837 85.5501 43.4281L85.5503 43.4283C85.7376 43.667 85.9769 43.8599 86.25 43.9922C86.5231 44.1244 86.8228 44.1926 87.1263 44.1916H115.988C116.467 44.1918 116.93 44.0221 117.295 43.7127C117.66 43.4034 117.904 42.9745 117.982 42.5024C119.848 30.3841 119.848 18.0516 117.982 5.93334C117.904 5.46126 117.66 5.03237 117.295 4.72303C116.93 4.41369 116.467 4.24398 115.988 4.24415L87.1263 4.24415Z" fill="white"/>
<path d="M109.69 14.6869H94.5446C93.9689 14.6863 93.4169 14.4573 93.0098 14.0502C92.6027 13.6431 92.3737 13.0911 92.373 12.5153V11.6667C92.3737 11.091 92.6027 10.539 93.0098 10.1319C93.4169 9.72474 93.9689 9.49575 94.5446 9.49512H109.69C110.266 9.49575 110.818 9.72474 111.225 10.1319C111.632 10.539 111.861 11.091 111.862 11.6667V12.5153C111.861 13.0911 111.632 13.6431 111.225 14.0502C110.818 14.4573 110.266 14.6863 109.69 14.6869Z" fill="#E6E6E6"/>
<path d="M109.69 25.4105H94.5446C93.9689 25.4099 93.4169 25.1809 93.0098 24.7738C92.6027 24.3667 92.3737 23.8147 92.373 23.239V22.3903C92.3737 21.8146 92.6027 21.2626 93.0098 20.8555C93.4169 20.4484 93.9689 20.2194 94.5446 20.2188H109.69C110.266 20.2194 110.818 20.4484 111.225 20.8555C111.632 21.2626 111.861 21.8146 111.862 22.3903V23.239C111.861 23.8147 111.632 24.3667 111.225 24.7738C110.818 25.1809 110.266 25.4099 109.69 25.4105Z" fill="#E6E6E6"/>
<path d="M109.69 36.1332H94.5446C93.9689 36.1326 93.4169 35.9036 93.0098 35.4964C92.6027 35.0893 92.3737 34.5373 92.373 33.9616V33.113C92.3737 32.5372 92.6027 31.9852 93.0098 31.5781C93.4169 31.171 93.9689 30.942 94.5446 30.9414H109.69C110.266 30.942 110.818 31.171 111.225 31.5781C111.632 31.9852 111.861 32.5372 111.862 33.113V33.9616C111.861 34.5373 111.632 35.0893 111.225 35.4964C110.818 35.9036 110.266 36.1326 109.69 36.1332Z" fill="#E6E6E6"/>
<path d="M170.28 73.8719H141.418C140.786 73.8738 140.162 73.7316 139.593 73.456C139.025 73.1804 138.526 72.7788 138.136 72.2817C137.739 71.7798 137.462 71.194 137.325 70.5688C137.189 69.9436 137.197 69.2955 137.349 68.6739C140.009 57.5321 140.009 45.9206 137.348 34.7789C137.197 34.1572 137.189 33.5092 137.325 32.884C137.462 32.2589 137.739 31.6731 138.136 31.1713C138.526 30.6741 139.025 30.2725 139.593 29.9969C140.162 29.7214 140.786 29.5791 141.418 29.5811H170.28C171.276 29.5839 172.239 29.9404 172.997 30.587C173.756 31.2337 174.26 32.1284 174.42 33.112C176.319 45.449 176.319 58.004 174.42 70.341C174.26 71.3245 173.756 72.2193 172.997 72.8659C172.239 73.5125 171.276 73.869 170.28 73.8719Z" fill="#E6E6E6"/>
<path d="M141.418 31.7529C141.114 31.7519 140.815 31.8201 140.542 31.9524C140.268 32.0846 140.029 32.2774 139.842 32.5161C139.649 32.7606 139.514 33.0459 139.448 33.3503C139.382 33.6548 139.386 33.9702 139.46 34.2728C142.2 45.7474 142.2 57.7059 139.46 69.1806C139.386 69.483 139.382 69.7985 139.448 70.1028C139.514 70.4072 139.649 70.6924 139.842 70.9369L139.842 70.9371C140.029 71.1758 140.268 71.3687 140.542 71.5009C140.815 71.6332 141.114 71.7014 141.418 71.7004H170.28C170.758 71.7006 171.221 71.5309 171.586 71.2215C171.952 70.9122 172.195 70.4833 172.274 70.0112C174.139 57.8929 174.139 45.5604 172.274 33.4421C172.195 32.9701 171.952 32.5412 171.586 32.2318C171.221 31.9225 170.758 31.7528 170.28 31.7529L141.418 31.7529Z" fill="white"/>
<path d="M112.731 105.179H83.8687C83.2095 105.181 82.5585 105.033 81.9652 104.745C81.372 104.458 80.8522 104.039 80.4453 103.52C80.0312 102.997 79.742 102.386 79.5996 101.734C79.4572 101.082 79.4655 100.406 79.6237 99.7579C82.2771 88.6439 82.277 77.0614 79.6235 65.9474C79.4654 65.2992 79.4572 64.6234 79.5996 63.9715C79.742 63.3196 80.0312 62.7088 80.4452 62.1855C80.8521 61.6669 81.372 61.2478 81.9652 60.9603C82.5584 60.6728 83.2094 60.5244 83.8687 60.5264H112.731C113.77 60.5295 114.775 60.9015 115.566 61.5762C116.357 62.251 116.883 63.1845 117.05 64.2107C118.952 76.5659 118.952 89.1396 117.05 101.495C116.883 102.521 116.357 103.455 115.566 104.129C114.775 104.804 113.77 105.176 112.731 105.179Z" fill="#F2F2F2"/>
<path d="M163.982 47.6234H148.836C148.26 47.6228 147.708 47.3938 147.301 46.9867C146.894 46.5796 146.665 46.0276 146.665 45.4518V44.6032C146.665 44.0275 146.894 43.4755 147.301 43.0684C147.708 42.6613 148.26 42.4323 148.836 42.4316H163.982C164.557 42.4323 165.109 42.6613 165.517 43.0684C165.924 43.4755 166.153 44.0275 166.153 44.6032V45.4519C166.153 46.0276 165.924 46.5796 165.517 46.9867C165.109 47.3938 164.557 47.6228 163.982 47.6234Z" fill="#E6E6E6"/>
<path d="M163.982 58.348H148.836C148.26 58.3474 147.708 58.1184 147.301 57.7113C146.894 57.3042 146.665 56.7522 146.665 56.1765V55.3278C146.665 54.7521 146.894 54.2001 147.301 53.793C147.708 53.3859 148.26 53.1569 148.836 53.1562H163.982C164.557 53.1569 165.109 53.3859 165.517 53.793C165.924 54.2001 166.153 54.7521 166.153 55.3278V56.1765C166.153 56.7522 165.924 57.3042 165.517 57.7113C165.109 58.1184 164.557 58.3474 163.982 58.348Z" fill="#E6E6E6"/>
<path d="M98.3799 91.0283C102.978 91.0283 106.705 87.3012 106.705 82.7036C106.705 78.106 102.978 74.3789 98.3799 74.3789C93.7823 74.3789 90.0552 78.106 90.0552 82.7036C90.0552 87.3012 93.7823 91.0283 98.3799 91.0283Z" fill="white"/>
<path d="M102.362 81.6181H99.4665V78.7226C99.4665 78.4346 99.3521 78.1584 99.1485 77.9548C98.9449 77.7511 98.6687 77.6367 98.3807 77.6367C98.0927 77.6367 97.8165 77.7511 97.6129 77.9548C97.4093 78.1584 97.2949 78.4346 97.2949 78.7226V81.6181H94.3993C94.1113 81.6181 93.8351 81.7325 93.6315 81.9361C93.4279 82.1398 93.3135 82.416 93.3135 82.7039C93.3135 82.9919 93.4279 83.2681 93.6315 83.4717C93.8351 83.6754 94.1113 83.7898 94.3993 83.7898H97.2949V86.6853C97.2949 86.9733 97.4093 87.2495 97.6129 87.4531C97.8165 87.6568 98.0927 87.7712 98.3807 87.7712C98.6687 87.7712 98.9449 87.6568 99.1485 87.4531C99.3521 87.2495 99.4665 86.9733 99.4665 86.6853V83.7898H102.362C102.65 83.7898 102.926 83.6754 103.13 83.4717C103.334 83.2681 103.448 82.9919 103.448 82.7039C103.448 82.416 103.334 82.1398 103.13 81.9361C102.926 81.7325 102.65 81.6181 102.362 81.6181Z" fill="#E6E6E6"/>
<path d="M108.877 6.15305H93.6751C93.2433 6.15256 92.8293 5.98081 92.524 5.67546C92.2186 5.37012 92.0469 4.95612 92.0464 4.5243V1.62875C92.0469 1.19693 92.2186 0.782931 92.524 0.477587C92.8293 0.172242 93.2433 0.000486655 93.6751 0H108.877C109.309 0.000486655 109.723 0.172242 110.028 0.477587C110.333 0.782931 110.505 1.19693 110.506 1.62875V4.5243C110.505 4.95612 110.333 5.37012 110.028 5.67546C109.723 5.98081 109.309 6.15256 108.877 6.15305Z" fill="#CCCCCC"/>
<path d="M163.892 34.0222H148.691C148.259 34.0217 147.845 33.8499 147.54 33.5446C147.234 33.2393 147.062 32.8253 147.062 32.3934V29.4979C147.062 29.0661 147.234 28.6521 147.54 28.3467C147.845 28.0414 148.259 27.8696 148.691 27.8691H163.892C164.324 27.8696 164.738 28.0414 165.044 28.3467C165.349 28.6521 165.521 29.0661 165.521 29.4979V32.3934C165.521 32.8253 165.349 33.2393 165.044 33.5446C164.738 33.8499 164.324 34.0217 163.892 34.0222Z" fill="#CCCCCC"/>
<path d="M32.0671 170.498H36.5046L37.8919 153.383H32.0664L32.0671 170.498Z" fill="#FFB8B8"/>
<path d="M30.9351 169.049L39.6738 169.049H39.6741C40.4055 169.049 41.1296 169.193 41.8053 169.473C42.481 169.753 43.0949 170.163 43.6121 170.68C44.1292 171.197 44.5394 171.811 44.8193 172.487C45.0991 173.162 45.2432 173.886 45.2432 174.618V174.799L30.9353 174.799L30.9351 169.049Z" fill="#2F2E41"/>
<path d="M8.17846 170.498H12.6159L14.7271 153.383H8.17773L8.17846 170.498Z" fill="#FFB8B8"/>
<path d="M7.04688 169.049L15.7856 169.049H15.7859C16.5173 169.049 17.2415 169.193 17.9171 169.473C18.5928 169.753 19.2067 170.163 19.7239 170.68C20.241 171.197 20.6512 171.811 20.9311 172.487C21.2109 173.162 21.355 173.886 21.355 174.618V174.799L7.04715 174.799L7.04688 169.049Z" fill="#2F2E41"/>
<path d="M8.96531 165.091C8.51266 165.09 8.0766 164.92 7.74375 164.613C7.56508 164.45 7.42117 164.253 7.32068 164.033C7.22019 163.813 7.16518 163.575 7.15895 163.333L5.37939 99.5537L30.6471 105.87L38.4432 129.258C39.4486 132.267 39.8838 135.437 39.7265 138.605L38.7584 161.276C38.7364 161.741 38.5362 162.179 38.1996 162.5C37.863 162.82 37.4157 162.999 36.9508 162.999H32.7128C32.2753 162.997 31.8532 162.838 31.5238 162.55C31.1944 162.262 30.9798 161.865 30.9194 161.432L27.8903 136.406C27.6256 134.454 26.9427 132.582 25.8881 130.918L19.9271 121.48C19.8872 121.417 19.8289 121.367 19.76 121.339C19.6911 121.31 19.6151 121.304 19.5423 121.32C19.4695 121.336 19.4035 121.374 19.3533 121.43C19.3032 121.485 19.2712 121.554 19.262 121.628L14.584 163.284C14.5338 163.706 14.3361 164.097 14.0258 164.388C13.7155 164.68 13.3124 164.852 12.8876 164.875L9.06834 165.087C9.03397 165.089 8.99969 165.091 8.96531 165.091Z" fill="#2F2E41"/>
<path d="M26.4425 58.2619C31.3521 58.2619 35.3322 54.2818 35.3322 49.3721C35.3322 44.4625 31.3521 40.4824 26.4425 40.4824C21.5328 40.4824 17.5527 44.4625 17.5527 49.3721C17.5527 54.2818 21.5328 58.2619 26.4425 58.2619Z" fill="#FFB8B8"/>
<path d="M30.5265 108.464C30.3736 108.464 30.2212 108.444 30.073 108.406H30.0728L5.00296 101.978C4.55474 101.864 4.16752 101.581 3.92094 101.19C3.67435 100.798 3.58712 100.327 3.6772 99.8735L9.4347 68.8582C9.79341 67.0654 10.5819 65.3864 11.7324 63.9654C12.8829 62.5444 14.3611 61.4239 16.0401 60.7001C17.676 59.9761 19.4651 59.6658 21.2493 59.7968C23.0335 59.9278 24.758 60.496 26.2707 61.4512C26.6217 61.6702 26.9752 61.9089 27.3212 62.161C28.7143 63.1886 29.8504 64.525 30.6403 66.0654C31.4302 67.6058 31.8525 69.3082 31.8741 71.0392L32.3319 106.629C32.335 106.868 32.2906 107.106 32.2013 107.328C32.1121 107.55 31.9797 107.752 31.8118 107.923C31.6439 108.093 31.4439 108.229 31.2233 108.322C31.0027 108.415 30.7659 108.463 30.5265 108.464Z" fill="#4776E6"/>
<path d="M7.58288 108.83C7.28382 108.389 7.08489 107.889 7.00011 107.364C6.91533 106.839 6.94676 106.301 7.09218 105.789C7.23759 105.277 7.49346 104.804 7.84177 104.401C8.19007 103.999 8.62234 103.678 9.10812 103.461L7.99304 90.5752L13.9021 93.7779L14.0551 105.523C14.3658 106.364 14.3574 107.289 14.0316 108.123C13.7058 108.958 13.0852 109.644 12.2874 110.051C11.4897 110.459 10.5701 110.559 9.70303 110.334C8.83595 110.109 8.08159 109.574 7.58289 108.83H7.58288Z" fill="#FFB8B8"/>
<path d="M9.69372 101.756C9.52699 101.756 9.36093 101.735 9.19941 101.694C8.85199 101.605 8.53498 101.424 8.28191 101.17C8.02885 100.916 7.84914 100.599 7.76179 100.251L4.85785 88.7108C3.84299 84.6803 4.32678 80.4183 6.2192 76.7179L12.3031 64.8165C12.6876 63.3915 13.6169 62.1748 14.8904 61.4288C16.1638 60.6827 17.6795 60.4671 19.1105 60.8284C19.8238 61.0085 20.4942 61.3284 21.0829 61.7696C21.6716 62.2107 22.1668 62.7644 22.5399 63.3984C22.9207 64.0415 23.1697 64.7539 23.2725 65.4942C23.3753 66.2344 23.3298 66.9877 23.1386 67.7102L14.4782 87.0764L14.581 98.6715C14.5837 99.0806 14.4607 99.4806 14.2287 99.8175C13.9966 100.154 13.6668 100.412 13.2837 100.555L10.3854 101.632C10.1641 101.714 9.92989 101.756 9.69372 101.756Z" fill="#4776E6"/>
<path d="M51.149 104.09C50.6204 104.029 50.1114 103.854 49.658 103.575C49.2045 103.297 48.8176 102.922 48.5246 102.478C48.2315 102.034 48.0394 101.531 47.9617 101.005C47.884 100.479 47.9227 99.9415 48.075 99.4317L37.5811 91.8709L43.8632 89.4814L52.8653 97.0276C53.7048 97.3403 54.4005 97.95 54.8204 98.7413C55.2404 99.5326 55.3555 100.45 55.144 101.321C54.9324 102.191 54.4089 102.954 53.6726 103.464C52.9363 103.975 52.0384 104.197 51.149 104.09H51.149Z" fill="#FFB8B8"/>
<path d="M45.6556 98.5685C45.3462 98.5683 45.0411 98.4963 44.7643 98.3581L34.1234 93.0312C30.4067 91.1709 27.4921 88.0242 25.9215 84.1761L20.8698 71.8011C20.0407 70.58 19.7248 69.082 19.9901 67.63C20.2553 66.1781 21.0805 64.8886 22.2878 64.0395C22.891 63.6153 23.5725 63.3155 24.2928 63.1575C25.013 62.9994 25.7575 62.9863 26.4828 63.1189C27.2167 63.2508 27.9171 63.5271 28.5434 63.9317C29.1697 64.3363 29.7095 64.8612 30.1315 65.4759L39.1602 84.6733L48.0155 92.1592C48.3273 92.424 48.5503 92.7782 48.6543 93.1738C48.7583 93.5694 48.7383 93.9875 48.597 94.3714L47.5221 97.2699C47.3818 97.6501 47.1283 97.978 46.7958 98.2096C46.4615 98.4433 46.0635 98.5686 45.6556 98.5685Z" fill="#4776E6"/>
<path d="M24.5763 58.3963C25.0487 58.603 26.0159 54.8394 25.5826 54.0866C24.9383 52.9672 24.9764 52.9752 24.5486 52.2346C24.1209 51.4939 24.0252 50.4802 24.5791 49.8285C25.133 49.1768 26.4149 49.2633 26.6677 50.0803C26.505 48.5284 28.0401 47.2809 29.5607 46.9303C31.0813 46.5797 32.6851 46.7974 34.2141 46.4854C35.9885 46.1234 37.8347 44.636 37.1267 42.6848C37.0052 42.3599 36.8233 42.061 36.5907 41.8037C35.7727 40.8841 34.6285 40.4914 33.5098 40.1117C31.1825 39.3217 28.7915 38.5219 26.3353 38.6091C24.3115 38.7149 22.3625 39.4084 20.7267 40.6046C19.0909 41.8009 17.8393 43.4481 17.1251 45.3446C16.9559 45.819 16.8247 46.3062 16.733 46.8015C15.8899 51.3346 18.5223 55.806 22.7978 57.5321L24.5763 58.3963Z" fill="#2F2E41"/>
<path opacity="0.2" d="M14.0791 98.9345L14.2807 87.016L20.5941 74.3223L15.5269 87.3523L14.0791 98.9345Z" fill="black"/>
<path d="M71.3309 128.846L44.6779 117.772C44.0937 117.531 43.572 117.16 43.1527 116.688C42.7333 116.215 42.4273 115.653 42.2579 115.044C42.0837 114.428 42.0524 113.781 42.1662 113.151C42.28 112.522 42.536 111.926 42.9147 111.41C49.646 102.142 54.1011 91.4191 55.9195 80.1094C56.0179 79.4772 56.2593 78.8757 56.6252 78.3508C56.9912 77.8259 57.472 77.3913 58.0312 77.0802C58.5821 76.7708 59.1963 76.591 59.8272 76.5547C60.458 76.5184 61.0888 76.6265 61.6716 76.8707L88.3245 87.9446C89.2437 88.3296 89.9963 89.0283 90.4484 89.9164C90.9005 90.8044 91.0227 91.8241 90.7932 92.7938C87.8138 104.915 82.9966 116.51 76.509 127.173C75.9837 128.02 75.175 128.653 74.2267 128.959C73.2784 129.266 72.2522 129.225 71.3309 128.846Z" fill="#E6E6E6"/>
<path d="M60.8383 78.876C60.5585 78.7586 60.2556 78.7066 59.9526 78.724C59.6497 78.7413 59.3547 78.8275 59.0901 78.976C58.8181 79.1278 58.5842 79.3396 58.4064 79.5954C58.2286 79.8511 58.1114 80.1441 58.0639 80.4519C56.1912 92.0995 51.603 103.143 44.6704 112.688C44.4858 112.939 44.3609 113.229 44.3051 113.535C44.2493 113.841 44.2641 114.156 44.3485 114.456L44.3486 114.456C44.43 114.749 44.577 115.019 44.7785 115.246C44.9799 115.473 45.2305 115.651 45.5111 115.766L72.1641 126.84C72.606 127.024 73.0987 127.045 73.5546 126.899C74.0105 126.754 74.3999 126.451 74.6535 126.045C81.026 115.57 85.7578 104.181 88.6845 92.2748C88.7931 91.8087 88.7328 91.3192 88.5143 90.8935C88.2958 90.4677 87.9333 90.1333 87.4913 89.9499L60.8383 78.876Z" fill="white"/>
<path d="M75.0296 103.527L61.0432 97.7158C60.5118 97.4943 60.0899 97.071 59.8702 96.5389C59.6504 96.0067 59.6507 95.4091 59.871 94.8772L60.1966 94.0935C60.4181 93.5621 60.8414 93.1402 61.3735 92.9204C61.9057 92.7007 62.5033 92.701 63.0352 92.9213L77.0216 98.7324C77.553 98.9539 77.9749 99.3772 78.1947 99.9093C78.4144 100.441 78.4141 101.039 78.1938 101.571L77.8682 102.355C77.6467 102.886 77.2234 103.308 76.6913 103.528C76.1591 103.748 75.5615 103.747 75.0296 103.527Z" fill="#4776E6"/>
<path d="M70.9159 113.429L56.9294 107.618C56.398 107.397 55.9761 106.973 55.7564 106.441C55.5366 105.909 55.5369 105.311 55.7573 104.78L56.0829 103.996C56.3044 103.464 56.7276 103.043 57.2598 102.823C57.7919 102.603 58.3895 102.603 58.9215 102.824L72.9079 108.635C73.4393 108.856 73.8612 109.28 74.0809 109.812C74.3007 110.344 74.3004 110.941 74.08 111.473L73.7544 112.257C73.5329 112.788 73.1097 113.21 72.5775 113.43C72.0454 113.65 71.4478 113.65 70.9159 113.429Z" fill="#4776E6"/>
<path d="M80.6344 89.6114C80.425 89.6112 80.2176 89.5706 80.0237 89.4917L65.9303 83.7938C65.5302 83.6315 65.2107 83.3171 65.0421 82.9196C64.8735 82.522 64.8694 82.0739 65.0307 81.6734L66.1161 78.9888C66.2781 78.5884 66.5925 78.2687 66.9901 78.1C67.3878 77.9313 67.8362 77.9275 68.2366 78.0894L82.33 83.7874C82.7301 83.9497 83.0496 84.2641 83.2182 84.6616C83.3869 85.0591 83.3909 85.5073 83.2296 85.9078L82.1442 88.5924C82.0222 88.893 81.8135 89.1505 81.5446 89.332C81.2757 89.5135 80.9588 89.6108 80.6344 89.6114Z" fill="#CCCCCC"/>
<path d="M51.0341 175H0.361944C0.265951 175 0.173894 174.962 0.106016 174.894C0.0381385 174.826 0 174.734 0 174.638C0 174.542 0.0381385 174.45 0.106016 174.382C0.173894 174.315 0.265951 174.276 0.361944 174.276H51.0341C51.1301 174.276 51.2222 174.315 51.2901 174.382C51.3579 174.45 51.3961 174.542 51.3961 174.638C51.3961 174.734 51.3579 174.826 51.2901 174.894C51.2222 174.962 51.1301 175 51.0341 175Z" fill="#CCCCCC"/>
</svg>
