<svg width="405" height="243" viewBox="0 0 405 243" fill="none" xmlns="http://www.w3.org/2000/svg">
<path d="M227.018 241.858C226.957 241.757 225.489 239.307 224.98 234.221C224.514 229.555 224.813 221.69 228.893 210.718C236.62 189.933 227.112 173.163 227.015 172.996L227.484 172.724C229.314 176.228 230.637 179.974 231.412 183.851C233.327 192.877 232.629 202.263 229.401 210.907C221.687 231.657 227.422 241.479 227.481 241.576L227.018 241.858Z" fill="#F2F2F2"/>
<path d="M223.997 171.776C225.943 171.776 227.521 170.198 227.521 168.252C227.521 166.305 225.943 164.728 223.997 164.728C222.051 164.728 220.473 166.305 220.473 168.252C220.473 170.198 222.051 171.776 223.997 171.776Z" fill="#F2F2F2"/>
<path d="M235.108 184.788C237.055 184.788 238.633 183.21 238.633 181.264C238.633 179.318 237.055 177.74 235.108 177.74C233.162 177.74 231.584 179.318 231.584 181.264C231.584 183.21 233.162 184.788 235.108 184.788Z" fill="#F2F2F2"/>
<path d="M227.519 193.464C229.466 193.464 231.044 191.886 231.044 189.939C231.044 187.993 229.466 186.415 227.519 186.415C225.573 186.415 223.995 187.993 223.995 189.939C223.995 191.886 225.573 193.464 227.519 193.464Z" fill="#F2F2F2"/>
<path d="M236.737 200.782C238.684 200.782 240.261 199.205 240.261 197.258C240.261 195.312 238.684 193.734 236.737 193.734C234.791 193.734 233.213 195.312 233.213 197.258C233.213 199.205 234.791 200.782 236.737 200.782Z" fill="#F2F2F2"/>
<path d="M224.809 212.168C226.756 212.168 228.334 210.59 228.334 208.644C228.334 206.697 226.756 205.12 224.809 205.12C222.863 205.12 221.285 206.697 221.285 208.644C221.285 210.59 222.863 212.168 224.809 212.168Z" fill="#F2F2F2"/>
<path d="M229.147 241.987C229.147 241.987 225.623 233.312 236.195 226.806L229.147 241.987Z" fill="#F2F2F2"/>
<path d="M224.812 241.831C224.812 241.831 223.208 232.606 210.794 232.685L224.812 241.831Z" fill="#F2F2F2"/>
<path d="M44.0999 0H0V30.8699H44.0999V0Z" fill="#F2F2F2"/>
<path d="M105.839 0H61.7393V30.8699H105.839V0Z" fill="#F2F2F2"/>
<path d="M167.579 0H123.479V30.8699H167.579V0Z" fill="#F2F2F2"/>
<path d="M229.319 0H185.219V30.8699H229.319V0Z" fill="#F2F2F2"/>
<path d="M44.0999 45.2024H0V76.0723H44.0999V45.2024Z" fill="#F2F2F2"/>
<path d="M105.839 45.2024H61.7393V76.0723H105.839V45.2024Z" fill="#F2F2F2"/>
<path d="M167.579 45.2024H123.479V76.0723H167.579V45.2024Z" fill="#F2F2F2"/>
<path d="M229.319 45.2024H185.219V76.0723H229.319V45.2024Z" fill="#F2F2F2"/>
<path d="M23.4263 14.924L29.7193 8.63099C29.9014 8.44239 30.0022 8.18979 30 7.92759C29.9977 7.66539 29.8925 7.41458 29.7071 7.22917C29.5217 7.04376 29.2709 6.9386 29.0087 6.93632C28.7465 6.93404 28.4939 7.03483 28.3053 7.21699L22.0123 13.51L15.7193 7.21699C15.5307 7.03483 15.2781 6.93404 15.0159 6.93632C14.7537 6.9386 14.5029 7.04376 14.3175 7.22917C14.1321 7.41458 14.0269 7.66539 14.0246 7.92759C14.0223 8.18979 14.1231 8.44239 14.3053 8.63099L20.5983 14.924L14.3053 21.217C14.2098 21.3092 14.1336 21.4196 14.0812 21.5416C14.0288 21.6636 14.0012 21.7948 14 21.9276C13.9989 22.0604 14.0242 22.192 14.0745 22.3149C14.1247 22.4378 14.199 22.5495 14.2929 22.6434C14.3868 22.7373 14.4984 22.8115 14.6213 22.8618C14.7442 22.9121 14.8759 22.9374 15.0087 22.9362C15.1415 22.9351 15.2727 22.9075 15.3947 22.8551C15.5167 22.8027 15.627 22.7265 15.7193 22.631L22.0123 16.338L28.3053 22.631C28.4939 22.8132 28.7465 22.9139 29.0087 22.9117C29.2709 22.9094 29.5217 22.8042 29.7071 22.6188C29.8925 22.4334 29.9977 22.1826 30 21.9204C30.0022 21.6582 29.9014 21.4056 29.7193 21.217L23.4263 14.924Z" fill="#4776E6"/>
<path d="M85.4263 14.924L91.7193 8.63099C91.9014 8.44239 92.0022 8.18979 92 7.92759C91.9977 7.66539 91.8925 7.41458 91.7071 7.22917C91.5217 7.04376 91.2709 6.9386 91.0087 6.93632C90.7465 6.93404 90.4939 7.03483 90.3053 7.21699L84.0123 13.51L77.7193 7.21699C77.5307 7.03483 77.2781 6.93404 77.0159 6.93632C76.7537 6.9386 76.5029 7.04376 76.3175 7.22917C76.1321 7.41458 76.0269 7.66539 76.0246 7.92759C76.0223 8.18979 76.1231 8.44239 76.3053 8.63099L82.5983 14.924L76.3053 21.217C76.2098 21.3092 76.1336 21.4196 76.0812 21.5416C76.0288 21.6636 76.0012 21.7948 76 21.9276C75.9989 22.0604 76.0242 22.192 76.0745 22.3149C76.1247 22.4378 76.199 22.5495 76.2929 22.6434C76.3868 22.7373 76.4984 22.8115 76.6213 22.8618C76.7442 22.9121 76.8759 22.9374 77.0087 22.9362C77.1415 22.9351 77.2727 22.9075 77.3947 22.8551C77.5167 22.8027 77.627 22.7265 77.7193 22.631L84.0123 16.338L90.3053 22.631C90.4939 22.8132 90.7465 22.9139 91.0087 22.9117C91.2709 22.9094 91.5217 22.8042 91.7071 22.6188C91.8925 22.4334 91.9977 22.1826 92 21.9204C92.0022 21.6582 91.9014 21.4056 91.7193 21.217L85.4263 14.924Z" fill="#4776E6"/>
<path d="M204.426 14.924L210.719 8.63099C210.901 8.44239 211.002 8.18979 211 7.92759C210.998 7.66539 210.893 7.41458 210.707 7.22917C210.522 7.04376 210.271 6.9386 210.009 6.93632C209.746 6.93404 209.494 7.03483 209.305 7.21699L203.012 13.51L196.719 7.21699C196.531 7.03483 196.278 6.93404 196.016 6.93632C195.754 6.9386 195.503 7.04376 195.317 7.22917C195.132 7.41458 195.027 7.66539 195.025 7.92759C195.022 8.18979 195.123 8.44239 195.305 8.63099L201.598 14.924L195.305 21.217C195.21 21.3092 195.134 21.4196 195.081 21.5416C195.029 21.6636 195.001 21.7948 195 21.9276C194.999 22.0604 195.024 22.192 195.074 22.3149C195.125 22.4378 195.199 22.5495 195.293 22.6434C195.387 22.7373 195.498 22.8115 195.621 22.8618C195.744 22.9121 195.876 22.9374 196.009 22.9362C196.141 22.9351 196.273 22.9075 196.395 22.8551C196.517 22.8027 196.627 22.7265 196.719 22.631L203.012 16.338L209.305 22.631C209.494 22.8132 209.746 22.9139 210.009 22.9117C210.271 22.9094 210.522 22.8042 210.707 22.6188C210.893 22.4334 210.998 22.1826 211 21.9204C211.002 21.6582 210.901 21.4056 210.719 21.217L204.426 14.924Z" fill="#4776E6"/>
<path d="M147.426 59.924L153.719 53.631C153.901 53.4424 154.002 53.1898 154 52.9276C153.998 52.6654 153.893 52.4146 153.707 52.2292C153.522 52.0438 153.271 51.9386 153.009 51.9363C152.746 51.934 152.494 52.0348 152.305 52.217L146.012 58.51L139.719 52.217C139.531 52.0348 139.278 51.934 139.016 51.9363C138.754 51.9386 138.503 52.0438 138.317 52.2292C138.132 52.4146 138.027 52.6654 138.025 52.9276C138.022 53.1898 138.123 53.4424 138.305 53.631L144.598 59.924L138.305 66.217C138.21 66.3092 138.134 66.4196 138.081 66.5416C138.029 66.6636 138.001 66.7948 138 66.9276C137.999 67.0604 138.024 67.192 138.074 67.3149C138.125 67.4378 138.199 67.5495 138.293 67.6434C138.387 67.7373 138.498 67.8115 138.621 67.8618C138.744 67.9121 138.876 67.9374 139.009 67.9362C139.141 67.9351 139.273 67.9075 139.395 67.8551C139.517 67.8027 139.627 67.7265 139.719 67.631L146.012 61.338L152.305 67.631C152.494 67.8132 152.746 67.9139 153.009 67.9117C153.271 67.9094 153.522 67.8042 153.707 67.6188C153.893 67.4334 153.998 67.1826 154 66.9204C154.002 66.6582 153.901 66.4056 153.719 66.217L147.426 59.924Z" fill="#4776E6"/>
<path d="M403.725 242.799H194.663C194.56 242.806 194.456 242.792 194.358 242.757C194.261 242.722 194.171 242.667 194.095 242.596C194.02 242.526 193.959 242.44 193.918 242.345C193.877 242.25 193.855 242.147 193.855 242.043C193.855 241.939 193.877 241.837 193.918 241.742C193.959 241.646 194.02 241.561 194.095 241.49C194.171 241.419 194.261 241.364 194.358 241.329C194.456 241.294 194.56 241.28 194.663 241.287H403.725C403.829 241.28 403.933 241.294 404.03 241.329C404.128 241.364 404.217 241.419 404.293 241.49C404.369 241.561 404.429 241.646 404.471 241.742C404.512 241.837 404.533 241.939 404.533 242.043C404.533 242.147 404.512 242.25 404.471 242.345C404.429 242.44 404.369 242.526 404.293 242.596C404.217 242.667 404.128 242.722 404.03 242.757C403.933 242.792 403.829 242.806 403.725 242.799Z" fill="#3F3D56"/>
<path d="M343.567 123.876C343.86 123.788 344.158 123.724 344.461 123.684L356.533 99.1537L352.847 93.6285L360.459 86.9766L370.027 98.6851L350.539 127.046C351.02 128.119 351.162 129.312 350.948 130.468C350.733 131.624 350.172 132.687 349.338 133.516C348.504 134.345 347.438 134.9 346.281 135.108C345.124 135.316 343.931 135.167 342.861 134.68C341.791 134.194 340.894 133.393 340.291 132.384C339.687 131.376 339.404 130.207 339.481 129.034C339.558 127.861 339.99 126.739 340.72 125.818C341.45 124.896 342.443 124.219 343.567 123.876Z" fill="#FFB8B8"/>
<path d="M364.173 90.3694C364.009 90.5426 363.82 90.6911 363.613 90.8104L351.262 97.9706C350.693 98.3005 350.016 98.3908 349.38 98.2216C348.744 98.0524 348.202 97.6376 347.872 97.0684C347.837 97.0089 347.805 96.948 347.776 96.8857L341.767 84.1943C341.512 83.6603 341.457 83.0521 341.612 82.4809C341.768 81.9096 342.123 81.4133 342.614 81.0825L350.271 75.8743C350.749 75.5492 351.325 75.4012 351.901 75.456C352.476 75.5107 353.015 75.7648 353.423 76.1742L364.124 86.9131C364.58 87.3698 364.84 87.9862 364.849 88.6314C364.858 89.2766 364.615 89.8998 364.172 90.3689L364.173 90.3694Z" fill="#CCCCCC"/>
<path d="M381.515 230.922L374.994 232.697L365.047 208.387L374.672 205.768L381.515 230.922Z" fill="#FFB8B8"/>
<path d="M369.831 232.097L382.407 228.675L384.561 236.592L364.066 242.168C363.495 240.068 363.781 237.827 364.862 235.938C365.943 234.049 367.73 232.666 369.83 232.095H369.83L369.831 232.097Z" fill="#2F2E41"/>
<path d="M325.766 235.898H319.007L315.792 209.831H325.766V235.898Z" fill="#FFB8B8"/>
<path d="M314.181 233.966H327.215V242.173H305.975C305.975 241.096 306.187 240.028 306.599 239.033C307.011 238.037 307.616 237.132 308.378 236.37C309.14 235.608 310.044 235.004 311.04 234.591C312.036 234.179 313.103 233.966 314.18 233.966H314.181Z" fill="#2F2E41"/>
<path d="M332.888 67.2213C340.365 67.2213 346.427 61.1596 346.427 53.6821C346.427 46.2045 340.365 40.1428 332.888 40.1428C325.41 40.1428 319.349 46.2045 319.349 53.6821C319.349 61.1596 325.41 67.2213 332.888 67.2213Z" fill="#FFB8B8"/>
<path d="M325.351 217.312H316.116C315.484 217.312 314.877 217.071 314.416 216.638C313.955 216.206 313.676 215.615 313.636 214.984C310.884 171.236 312.493 139.855 318.702 116.226C318.729 116.123 318.762 116.021 318.802 115.922L319.298 114.685C319.481 114.224 319.798 113.829 320.209 113.55C320.62 113.272 321.106 113.124 321.602 113.126H340.593C340.951 113.126 341.305 113.203 341.63 113.352C341.955 113.502 342.244 113.72 342.477 113.992L345.056 117.002C345.106 117.06 345.154 117.12 345.199 117.183C356.83 133.404 367.255 165.116 379.328 207.741C379.506 208.361 379.436 209.025 379.131 209.593C378.826 210.162 378.312 210.588 377.697 210.783L367.775 213.959C367.205 214.138 366.59 214.107 366.041 213.871C365.492 213.635 365.046 213.21 364.784 212.673L339.028 159.253C338.848 158.88 338.553 158.575 338.186 158.382C337.818 158.19 337.399 158.121 336.99 158.186C336.58 158.251 336.202 158.445 335.912 158.742C335.622 159.038 335.435 159.419 335.379 159.83L327.809 215.167C327.726 215.761 327.432 216.304 326.981 216.698C326.529 217.092 325.951 217.31 325.351 217.312Z" fill="#2F2E41"/>
<path d="M344.017 117.222H343.939L320.869 116.492C320.276 116.476 319.709 116.247 319.27 115.847C318.832 115.446 318.553 114.902 318.483 114.313C315.561 90.6416 323.578 84.3001 327.163 82.6711C327.462 82.536 327.722 82.3257 327.916 82.0608C328.11 81.7959 328.233 81.4853 328.272 81.1591L328.582 78.6784C328.635 78.2402 328.804 77.8241 329.072 77.4734C334.692 70.1942 342.365 67.8629 346.437 67.1221C347.083 67.0059 347.749 67.1513 348.289 67.5263C348.828 67.9013 349.196 68.4753 349.312 69.1218C349.32 69.1625 349.326 69.2033 349.331 69.2444L349.796 72.8071C349.843 73.1468 349.979 73.4682 350.189 73.7392C361.908 89.0596 348.853 111.68 346.116 116.059C345.893 116.415 345.583 116.708 345.216 116.911C344.849 117.114 344.437 117.221 344.017 117.222Z" fill="#CCCCCC"/>
<path d="M336.757 146.809L319.327 150.168L318.665 146.73L332.006 144.159L316.5 103.282L319.773 102.041L336.757 146.809Z" fill="#6C63FF"/>
<path d="M360.202 55.2064C357.182 50.9536 353.56 47.1619 349.45 43.9499C346.033 41.2813 342.229 39.0008 338.035 37.9104C333.84 36.82 329.204 37.0053 325.376 39.0399C321.548 41.0746 317.59 45.1174 317.566 49.4524C317.558 50.8455 317.912 52.7296 319.284 52.4887L319.681 52.5439L329.607 50.539L333.835 65.211C334.132 66.2418 334.53 67.3945 335.509 67.8338C336.43 68.2478 337.493 67.8576 338.43 67.4684C338.584 67.4044 339.901 64.4464 339.901 64.4464C339.934 64.354 339.991 64.272 340.066 64.209C340.142 64.146 340.232 64.1043 340.329 64.0881C340.426 64.0719 340.526 64.0819 340.617 64.117C340.709 64.152 340.79 64.211 340.851 64.2877L341.634 65.2661C341.783 65.4534 341.989 65.587 342.221 65.6466C342.453 65.7063 342.698 65.6889 342.919 65.5969L359.107 58.8391C359.853 58.5277 360.686 58.1225 360.903 57.3425C361.106 56.5922 360.65 55.8381 360.202 55.2064Z" fill="#2F2E41"/>
<path d="M341.864 150.868C342.573 150.371 343.164 149.724 343.596 148.974C344.027 148.224 344.289 147.388 344.363 146.525C344.437 145.663 344.321 144.795 344.023 143.982C343.725 143.169 343.253 142.431 342.639 141.821L346.924 90.0747L334.166 91.8299L333.923 142.104C332.964 143.202 332.442 144.615 332.455 146.073C332.469 147.531 333.017 148.934 333.996 150.015C334.975 151.096 336.316 151.78 337.766 151.937C339.216 152.095 340.673 151.714 341.861 150.869L341.864 150.868Z" fill="#FFB8B8"/>
<path d="M347.759 97.5257C347.52 97.5258 347.282 97.4914 347.053 97.4237L333.357 93.3952C333.044 93.3033 332.753 93.1507 332.499 92.9462C332.246 92.7417 332.035 92.4892 331.879 92.2032C331.723 91.9172 331.625 91.6033 331.59 91.2794C331.556 90.9555 331.585 90.628 331.677 90.3154C331.696 90.2495 331.719 90.1844 331.743 90.1202L336.812 77.0259C337.023 76.4727 337.427 76.014 337.948 75.7334C338.47 75.4529 339.075 75.3693 339.653 75.4978L348.701 77.4647C349.266 77.5875 349.77 77.9037 350.127 78.3588C350.483 78.8138 350.67 79.379 350.654 79.9569L350.233 95.1118C350.215 95.7568 349.947 96.3697 349.485 96.8202C349.023 97.2708 348.404 97.5237 347.759 97.5252V97.5257Z" fill="#CCCCCC"/>
</svg>
