<svg width="218" height="179" viewBox="0 0 218 179" fill="none" xmlns="http://www.w3.org/2000/svg">
<path d="M203.872 179V158.837C203.872 158.837 211.729 173.132 203.872 179Z" fill="#F1F1F1"/>
<path d="M204.357 178.996L189.503 165.361C189.503 165.361 205.348 169.239 204.357 178.996Z" fill="#F1F1F1"/>
<path d="M66.4556 6.14163C68.1515 6.14163 69.5264 4.76678 69.5264 3.07082C69.5264 1.37485 68.1515 0 66.4556 0C64.7596 0 63.3848 1.37485 63.3848 3.07082C63.3848 4.76678 64.7596 6.14163 66.4556 6.14163Z" fill="#F1F1F1"/>
<path d="M58.6514 13.9458C60.3473 13.9458 61.7222 12.571 61.7222 10.875C61.7222 9.17905 60.3473 7.8042 58.6514 7.8042C56.9554 7.8042 55.5806 9.17905 55.5806 10.875C55.5806 12.571 56.9554 13.9458 58.6514 13.9458Z" fill="#F1F1F1"/>
<path d="M56.7002 152.472C58.3962 152.472 59.771 151.097 59.771 149.401C59.771 147.705 58.3962 146.331 56.7002 146.331C55.0042 146.331 53.6294 147.705 53.6294 149.401C53.6294 151.097 55.0042 152.472 56.7002 152.472Z" fill="#F1F1F1"/>
<path d="M161.68 175.359H158.34L158.148 162.676L161.68 162.476V175.359Z" fill="#9F616A"/>
<path d="M162.535 178.6L151.759 178.6V178.461C151.761 177.348 152.203 176.282 152.989 175.496C153.776 174.709 154.842 174.267 155.954 174.266H162.535V178.6Z" fill="#2F2E41"/>
<path d="M180.8 171.511L177.738 172.846L172.494 161.296L175.652 159.702L180.8 171.511Z" fill="#9F616A"/>
<path d="M173 178.447L172.945 178.319C172.725 177.814 172.606 177.271 172.596 176.72C172.586 176.169 172.684 175.622 172.886 175.109C173.087 174.596 173.388 174.128 173.77 173.732C174.152 173.335 174.609 173.017 175.114 172.797L181.146 170.167L182.878 174.141L173 178.447Z" fill="#2F2E41"/>
<path d="M167.615 75.2447C171.612 75.2447 174.852 72.0046 174.852 68.0076C174.852 64.0107 171.612 60.7705 167.615 60.7705C163.618 60.7705 160.378 64.0107 160.378 68.0076C160.378 72.0046 163.618 75.2447 167.615 75.2447Z" fill="#9F616A"/>
<path d="M180.569 165.457L171.215 142.606L175.758 121.225L167.139 120.757L162.396 144.677L174.355 168.396L180.569 165.457Z" fill="#2F2E41"/>
<path d="M170.347 116.949L165.937 144.276L164.611 170.469L156.999 170.402L156.717 120.29L170.347 116.949Z" fill="#2F2E41"/>
<path d="M176.396 118.507L175.963 122.466L154.384 123.431L155.845 117.479L176.396 118.507Z" fill="#CBCBCB"/>
<path d="M155.877 125.979C155.671 125.719 155.518 125.421 155.428 125.102C155.338 124.783 155.312 124.449 155.352 124.119C155.391 123.79 155.496 123.471 155.66 123.183C155.823 122.894 156.043 122.641 156.305 122.437C156.415 122.352 156.531 122.276 156.654 122.21L165.117 90.4048L170.134 92.6096L160.192 123.345C160.428 123.859 160.484 124.439 160.35 124.99C160.216 125.541 159.899 126.03 159.452 126.378C158.923 126.795 158.252 126.988 157.583 126.913C156.913 126.838 156.301 126.503 155.877 125.979Z" fill="#9F616A"/>
<path d="M161.227 82.211L162.225 80.1491C162.225 80.1491 167.14 75.9 172.324 78.4471L173.123 80.8274L177.352 87.6553L176.396 119.192C176.396 119.192 158.756 117.851 154.384 119.449L156.306 94.4591L161.227 82.211Z" fill="#3F3D56"/>
<path d="M162.145 122.236L154.697 120.152L161.585 98.6247L162.209 86.6055C162.245 85.9984 162.408 85.4057 162.687 84.8656C162.967 84.3254 163.356 83.85 163.831 83.47C164.403 83.0064 165.065 82.6661 165.775 82.4704C166.485 82.2747 167.227 82.2279 167.956 82.3329C170.39 82.6662 172.18 84.5273 172.213 86.7582L172.213 86.7691L172.211 86.7798L169.819 103.626L169.052 106.369L162.145 122.236Z" fill="#CBCBCB"/>
<path d="M170.896 73.6803L172.543 74.0968L175.04 71.4423C175.04 71.4423 179.629 60.7976 169.487 59.1687C159.344 57.5398 161.559 61.6521 160.203 64.231L164.348 65.3086L168.078 69.1214C168.078 69.1214 170.511 67.3387 171.227 68.9556C171.943 70.5726 170.896 73.6803 170.896 73.6803Z" fill="#2F2E41"/>
<path d="M113.188 135.418H0V22.2295H113.188V135.418Z" fill="white"/>
<path d="M113.188 135.418H0V22.2295H113.188V135.418ZM1.67235 133.745H111.516V23.9018H1.67235V133.745Z" fill="#E5E5E5"/>
<path d="M95.9291 70.8877H23.3379V73.4502H95.9291V70.8877Z" fill="#4776E6"/>
<path d="M95.9291 77.5503H23.3379V80.1128H95.9291V77.5503Z" fill="#4776E6"/>
<path d="M95.9291 84.2129H23.3379V86.7754H95.9291V84.2129Z" fill="#4776E6"/>
<path d="M18.9316 74.2168C19.8552 74.2168 20.604 73.468 20.604 72.5444C20.604 71.6208 19.8552 70.8721 18.9316 70.8721C18.008 70.8721 17.2593 71.6208 17.2593 72.5444C17.2593 73.468 18.008 74.2168 18.9316 74.2168Z" fill="#4776E6"/>
<path d="M95.9291 42.1792H23.3379V44.7417H95.9291V42.1792Z" fill="#E5E5E5"/>
<path d="M95.9291 48.8418H23.3379V51.4043H95.9291V48.8418Z" fill="#E5E5E5"/>
<path d="M95.9291 55.5044H23.3379V58.0669H95.9291V55.5044Z" fill="#E5E5E5"/>
<path d="M18.9316 45.2295C19.8552 45.2295 20.604 44.4807 20.604 43.5571C20.604 42.6335 19.8552 41.8848 18.9316 41.8848C18.008 41.8848 17.2593 42.6335 17.2593 43.5571C17.2593 44.4807 18.008 45.2295 18.9316 45.2295Z" fill="#E5E5E5"/>
<path d="M95.9291 99.8755H23.3379V102.438H95.9291V99.8755Z" fill="#E5E5E5"/>
<path d="M95.9291 106.538H23.3379V109.1H95.9291V106.538Z" fill="#E5E5E5"/>
<path d="M95.9291 113.2H23.3379V115.762H95.9291V113.2Z" fill="#E5E5E5"/>
<path d="M18.9316 102.926C19.8552 102.926 20.604 102.177 20.604 101.253C20.604 100.33 19.8552 99.5811 18.9316 99.5811C18.008 99.5811 17.2593 100.33 17.2593 101.253C17.2593 102.177 18.008 102.926 18.9316 102.926Z" fill="#E5E5E5"/>
<path d="M217.593 178.928H134.255C134.181 178.928 134.11 178.899 134.058 178.846C134.005 178.794 133.976 178.723 133.976 178.649C133.976 178.575 134.005 178.505 134.058 178.452C134.11 178.4 134.181 178.371 134.255 178.371H217.593C217.667 178.371 217.738 178.4 217.791 178.452C217.843 178.505 217.872 178.575 217.872 178.649C217.872 178.723 217.843 178.794 217.791 178.846C217.738 178.899 217.667 178.928 217.593 178.928Z" fill="#CBCBCB"/>
</svg>
