<svg width="20" height="25" viewBox="0 0 20 25" fill="none" xmlns="http://www.w3.org/2000/svg">
<path d="M13.6094 0H0.653125C0.292411 0 0 0.292411 0 0.859821V24.5536C0 24.7076 0.292411 25 0.653125 25H18.5433C18.904 25 19.1964 24.7076 19.1964 24.5536V5.79375C19.1964 5.48304 19.1549 5.38304 19.0817 5.30937L13.8871 0.114732C13.8134 0.0415179 13.7134 0 13.6094 0Z" fill="#E9E9E0"/>
<path d="M13.8389 0.0673828V5.35712H19.1286L13.8389 0.0673828Z" fill="#D9D7CA"/>
<path d="M5.80964 14.8768C5.65428 14.8768 5.50517 14.8264 5.37794 14.7313C4.91321 14.3826 4.85071 13.9947 4.88017 13.7304C4.96142 13.0036 5.86008 12.2429 7.55205 11.4679C8.22347 9.99648 8.86231 8.18354 9.24312 6.66881C8.79758 5.69916 8.36455 4.44113 8.68017 3.70318C8.79089 3.4447 8.92883 3.24648 9.18642 3.16077C9.28821 3.12684 9.54535 3.08398 9.63999 3.08398C9.86499 3.08398 10.0628 3.37372 10.2029 3.55229C10.3346 3.72014 10.6333 4.07595 10.0364 6.5889C10.6382 7.83175 11.4909 9.09782 12.3078 9.96479C12.8931 9.85898 13.3967 9.80497 13.807 9.80497C14.5061 9.80497 14.9297 9.96791 15.1025 10.3036C15.2454 10.5813 15.1869 10.9059 14.9284 11.2679C14.6797 11.6157 14.3369 11.7996 13.9373 11.7996C13.3945 11.7996 12.7623 11.4568 12.0574 10.7795C10.7909 11.0443 9.31187 11.5166 8.11633 12.0393C7.74312 12.8313 7.38553 13.4693 7.05249 13.9371C6.5949 14.5777 6.20026 14.8768 5.80964 14.8768ZM6.99803 12.5884C6.04401 13.1246 5.65517 13.5652 5.62705 13.8134C5.62258 13.8545 5.61053 13.9626 5.81946 14.1224C5.88597 14.1014 6.27437 13.9242 6.99803 12.5884ZM13.086 10.6054C13.4498 10.8853 13.5387 11.0268 13.7766 11.0268C13.8811 11.0268 14.1788 11.0224 14.3168 10.83C14.3833 10.7367 14.4092 10.6768 14.4195 10.6447C14.3645 10.6157 14.2918 10.5568 13.8949 10.5568C13.6695 10.5572 13.386 10.567 13.086 10.6054ZM9.75115 7.66702C9.43196 8.77148 9.01053 9.9639 8.5574 11.0438C9.49044 10.6818 10.5047 10.3657 11.4574 10.142C10.8547 9.44202 10.2525 8.56791 9.75115 7.66702ZM9.48017 3.88934C9.43642 3.90407 8.88642 4.67372 9.52303 5.32506C9.94669 4.38086 9.49937 3.88309 9.48017 3.88934Z" fill="#CC4B4C"/>
<path d="M18.5433 24.9999H0.653125C0.292411 24.9999 0 24.7075 0 24.3468V17.4106H19.1964V24.3468C19.1964 24.7075 18.904 24.9999 18.5433 24.9999Z" fill="#CC4B4C"/>
<path d="M4.85954 23.6608H4.12695V19.1626H5.4207C5.61177 19.1626 5.80106 19.193 5.98811 19.2541C6.17517 19.3153 6.34302 19.4068 6.49169 19.5287C6.64035 19.6505 6.76044 19.7983 6.85195 19.9711C6.94347 20.1438 6.98945 20.338 6.98945 20.5541C6.98945 20.7822 6.95061 20.9885 6.87338 21.1738C6.79615 21.359 6.68811 21.5148 6.54972 21.6407C6.41133 21.7666 6.24436 21.8644 6.04927 21.9336C5.85418 22.0028 5.63811 22.0372 5.4024 22.0372H4.8591V23.6608H4.85954ZM4.85954 19.718V21.5001H5.53097C5.62026 21.5001 5.70865 21.4849 5.7966 21.4541C5.8841 21.4238 5.96445 21.3738 6.03767 21.3046C6.11088 21.2354 6.16981 21.1389 6.21445 21.0148C6.2591 20.8907 6.28142 20.7372 6.28142 20.5541C6.28142 20.4809 6.27115 20.3961 6.25106 20.301C6.23052 20.2055 6.18901 20.1139 6.12606 20.0264C6.06267 19.9389 5.97427 19.8657 5.86044 19.8068C5.7466 19.7479 5.5957 19.7184 5.40865 19.7184H4.85954V19.718Z" fill="white"/>
<path d="M11.4823 21.2867C11.4823 21.6568 11.4425 21.9733 11.3631 22.2358C11.2836 22.4983 11.1832 22.718 11.0609 22.8952C10.9385 23.0724 10.8015 23.2117 10.6488 23.3135C10.4961 23.4153 10.3488 23.4912 10.2064 23.5425C10.064 23.5934 9.93362 23.626 9.81576 23.6403C9.69791 23.6537 9.61041 23.6608 9.55326 23.6608H7.85059V19.1626H9.2055C9.58407 19.1626 9.91666 19.2229 10.2033 19.3425C10.4899 19.4622 10.7283 19.6224 10.9176 19.8215C11.1068 20.0206 11.2479 20.2479 11.3417 20.5019C11.4354 20.7563 11.4823 21.018 11.4823 21.2867ZM9.30951 23.1238C9.80594 23.1238 10.164 22.9653 10.3836 22.6479C10.6033 22.3305 10.7131 21.8706 10.7131 21.2684C10.7131 21.0813 10.6908 20.8961 10.6461 20.713C10.601 20.53 10.5149 20.3644 10.3867 20.2157C10.2586 20.0671 10.0845 19.947 9.86487 19.8555C9.64523 19.7639 9.36041 19.718 9.01041 19.718H8.58318V23.1238H9.30951Z" fill="white"/>
<path d="M13.2886 19.718V21.134H15.1685V21.6345H13.2886V23.6608H12.5439V19.1626H15.3573V19.718H13.2886Z" fill="white"/>
</svg>
