<svg width="20" height="26" viewBox="0 0 20 26" fill="none" xmlns="http://www.w3.org/2000/svg">
<path d="M19.3413 5.57538L13.9246 0.158691C13.8231 0.0571289 13.6855 0 13.5416 0H2.16663C0.971699 0 0 0.971699 0 2.16668V23.8334C0 25.0283 0.971699 26 2.16668 26H17.3334C18.5283 26 19.5 25.0283 19.5 23.8333V5.95832C19.5 5.81445 19.4429 5.67694 19.3413 5.57538ZM14.0833 1.8493L17.6507 5.41668H15.1666C14.5694 5.41668 14.0833 4.93055 14.0833 4.33337V1.8493ZM18.4167 23.8333C18.4167 24.4305 17.9306 24.9166 17.3334 24.9166H2.16668C1.5695 24.9166 1.08337 24.4305 1.08337 23.8333V2.16668C1.08337 1.5695 1.5695 1.08337 2.16668 1.08337H13V4.33337C13 5.5283 13.9717 6.5 15.1667 6.5H18.4167V23.8333Z" fill="#2F2E41" fill-opacity="0.8"/>
<path d="M12.5117 15.9015C12.0103 15.5069 11.5337 15.1012 11.2163 14.7838C10.8037 14.3712 10.4361 13.9713 10.1166 13.5904C10.6149 12.0506 10.8334 11.2566 10.8334 10.8334C10.8334 9.03547 10.1838 8.66675 9.20837 8.66675C8.46727 8.66675 7.58337 9.05182 7.58337 10.8853C7.58337 11.6936 8.02613 12.6748 8.90368 13.8153C8.68893 14.4706 8.43659 15.2266 8.15308 16.0787C8.01658 16.4876 7.8685 16.8663 7.71189 17.2165C7.58443 17.2731 7.46063 17.3308 7.34109 17.3906C6.91052 17.6059 6.50163 17.7994 6.12234 17.9793C4.39258 18.7982 3.25 19.3398 3.25 20.4094C3.25 21.1859 4.09373 21.6667 4.875 21.6667C5.88214 21.6667 7.40294 20.3215 8.51378 18.0554C9.66692 17.6005 11.1005 17.2636 12.2319 17.0525C13.1386 17.7497 14.1399 18.4167 14.625 18.4167C15.9681 18.4167 16.25 17.6402 16.25 16.989C16.25 15.7084 14.7868 15.7084 14.0833 15.7084C13.8649 15.7084 13.2788 15.773 12.5117 15.9015ZM4.875 20.5834C4.56554 20.5834 4.35607 20.4374 4.33332 20.4094C4.33332 20.0253 5.47854 19.4826 6.58623 18.9579C6.65656 18.9246 6.72801 18.8912 6.80047 18.8569C5.98691 20.0365 5.18233 20.5834 4.875 20.5834ZM8.66668 10.8853C8.66668 9.75011 9.019 9.75011 9.20837 9.75011C9.59136 9.75011 9.75005 9.75011 9.75005 10.8334C9.75005 11.0619 9.59771 11.6332 9.31892 12.5251C8.89357 11.8702 8.66668 11.309 8.66668 10.8853ZM9.08192 16.7071C9.11579 16.613 9.1486 16.5178 9.18034 16.4215C9.38133 15.8185 9.56226 15.2768 9.72359 14.7891C9.9484 15.0366 10.1907 15.29 10.4504 15.5497C10.552 15.6513 10.8038 15.8798 11.1392 16.166C10.4715 16.3115 9.76112 16.4918 9.08192 16.7071ZM15.1667 16.9891C15.1667 17.2324 15.1667 17.3334 14.6642 17.3366C14.5166 17.3049 14.1754 17.1039 13.7543 16.8172C13.9072 16.8003 14.0198 16.7918 14.0833 16.7918C14.8837 16.7918 15.1106 16.87 15.1667 16.9891Z" fill="#2F2E41" fill-opacity="0.8"/>
</svg>
