<?xml version="1.0" encoding="utf-8"?>
<!-- Generator: Adobe Illustrator 24.3.0, SVG Export Plug-In . SVG Version: 6.00 Build 0)  -->
<svg version="1.1" id="Capa_1" xmlns="http://www.w3.org/2000/svg" xmlns:xlink="http://www.w3.org/1999/xlink" x="0px" y="0px"
	 viewBox="0 0 512 512" style="enable-background:new 0 0 512 512;" xml:space="preserve">
<style type="text/css">
	.st0{fill:none;}
</style>
<g>
	<path class="st0" d="M178.2,376.5l-42.7-42.7c-2.2-2.2-5.3-3.4-8.4-3.1c-3.1,0.2-5.9,1.8-7.8,4.3L2.1,495
		c-3.5,4.7-2.6,11.4,2.1,14.9c3.8,2.8,9,2.8,12.8,0l160-117.3c4.8-3.5,5.8-10.2,2.3-14.9C179.1,377.2,178.7,376.8,178.2,376.5
		L178.2,376.5z"/>
	<path class="st0" d="M316.9,301.8L210.2,195.1c-17.9-14-40.3-21-63-19.9c-29.7-1-58.6,10-80.1,30.6c-17.3,17.3-15.5,44.1,5.3,79.6
		c19.7,30.9,43,59.4,69.3,84.8c42.4,42.4,96,86.5,135,86.5c11,0.3,21.6-4,29.4-11.8C350.6,400.5,339.6,324.5,316.9,301.8z"/>
	<path class="st0" d="M402.2,216.5L295.6,109.8c-4.2-4.2-10.9-4.2-15.1,0l-85.3,85.3c-14,14-12.8,44.8,32,89.7
		c29.2,29.2,52.6,39.9,69.1,39.9c7.7,0.3,15.1-2.6,20.6-7.9l85.3-85.3C406.4,227.4,406.4,220.6,402.2,216.5z"/>
	<path class="st0" d="M511.2,187.9c-1.6-4-5.5-6.6-9.9-6.6c-23.1,0-73.9-25-109.8-60.9s-60.9-86.6-60.9-109.8
		C330.7,4.8,325.9,0,320,0c-2.8,0-5.6,1.1-7.6,3.1c-43.6,43.6-57.2,117.9,10.7,185.7c25.8,28.7,62.1,45.7,100.7,47.1
		c32.1-0.4,62.7-13.5,85.1-36.5C511.9,196.5,512.8,191.9,511.2,187.9z"/>
	<path class="st0" d="M444.9,67.1C399.7,22,358.9,0,320,0c-5.9,0-10.7,4.8-10.7,10.7c0,31.9,30.1,87.9,67.1,124.9
		s93.1,67.1,124.9,67.1c5.9,0,10.7-4.8,10.7-10.7C512,153.1,490.1,112.3,444.9,67.1z"/>
	<path d="M423.8,236c-38.6-1.4-74.9-18.4-100.7-47.1c-28.4-25.8-45.3-61.8-47.1-100.1c0.1-32.3,13.2-63.2,36.4-85.6
		c2-2,4.7-3.1,7.6-3.1c38.9,0,79.7,22,124.9,67.1S512,153.2,512,192c0,2.8-1.1,5.5-3.1,7.6C486.5,222.5,455.9,235.7,423.8,236z
		 M324.4,21.5c-17.3,18.1-27,42.1-27.1,67.1c1.8,32.7,16.5,63.3,40.9,85.2c59.4,59.4,118.3,45.1,152.3,13.8
		c-1.8-31.4-22.2-66.8-60.8-105.4S355.8,23.3,324.4,21.5z"/>
	<path d="M501.3,202.7c-31.8,0-87.9-30.1-124.9-67.1s-67.1-93-67.1-124.9C309.3,4.8,314.1,0,320,0s10.7,4.8,10.7,10.7
		c0,23.1,25,73.9,60.9,109.8s86.7,60.9,109.8,60.9c5.9,0,10.7,4.8,10.7,10.7C512,197.9,507.2,202.7,501.3,202.7z"/>
	<path d="M296.3,324.8c-16.6,0-39.9-10.7-69.1-39.9c-44.8-44.8-46-75.8-32-89.7l85.3-85.3c4.1-4.2,10.8-4.4,15.1-0.3
		s4.4,10.8,0.3,15.1c-0.1,0.1-0.2,0.2-0.3,0.3l-85.3,85.3c-4.3,4.3-2.3,25.3,32,59.6s55.3,36.3,59.6,32l85.3-85.3
		c4.2-4.1,11-4,15.1,0.3c4,4.1,4,10.7,0,14.8l-85.3,85.3C311.4,322.2,303.9,325.1,296.3,324.8z"/>
	<path d="M276.9,456.7c-39.1,0-92.6-44.1-135-86.5c-26.3-25.5-49.6-53.9-69.3-84.8c-20.9-35.5-22.7-62.3-5.3-79.6
		c21.2-20.3,49.7-31.4,79.1-30.6h0.9c22.7-1.1,45,6,63,20c4.1,4.2,4,11-0.3,15.1c-4.1,4-10.7,4-14.8,0c-14-9.7-30.9-14.5-47.9-13.7
		h-0.8c-23.8-0.6-46.8,8.2-64.2,24.4c-11.9,11.9-1.9,35.8,8.7,53.7c18.8,29.3,40.9,56.3,66,80.5c64.4,64.4,115.9,93,134.3,74.7
		c28-31.2,32.3-77,10.7-112.9c-4.1-4.2-4-11,0.3-15.1c4.1-4,10.7-4,14.8,0c22.7,22.7,33.7,98.7-10.7,143.1
		C298.5,452.7,287.8,457,276.9,456.7z"/>
	<path d="M10.7,512C4.8,512,0,507.2,0,501.4c0-2.3,0.7-4.6,2.1-6.4l117.3-160c3.5-4.7,10.2-5.7,14.9-2.1c4.7,3.5,5.7,10.2,2.1,14.9
		l-76.3,104l104-76.3c4.7-3.5,11.4-2.6,14.9,2.1c3.5,4.7,2.6,11.4-2.1,14.9c0,0,0,0,0,0l-160,117.3C15.2,511.3,13,512,10.7,512z"/>
</g>
</svg>
