<svg width="21" height="22" viewBox="0 0 21 22" fill="none" xmlns="http://www.w3.org/2000/svg">
<path d="M20.5721 9.74832L9.83998 20.1154C8.73988 21.1781 7.29752 21.6976 5.85517 21.6976C4.41281 21.6976 2.97045 21.1781 1.87035 20.1154C0.819143 19.0999 0.232422 17.7302 0.232422 16.2661C0.232422 14.802 0.819143 13.4559 1.87035 12.4168L13.3114 1.41216C14.0448 0.703704 15.0227 0.302246 16.0739 0.302246C17.1251 0.302246 18.103 0.703704 18.8364 1.41216C19.5698 2.12061 19.9854 3.06522 19.9854 4.08067C19.9854 5.09613 19.5698 6.04073 18.8364 6.74919L7.41976 17.7775C7.00416 18.1789 6.44189 18.3915 5.85517 18.3915C5.26845 18.3915 4.70617 18.1789 4.29058 17.7775C3.43494 16.9509 3.43494 15.6049 4.29058 14.7783L13.6537 5.75735C13.8492 5.56843 14.1426 5.56843 14.3382 5.75735C14.5338 5.94627 14.5338 6.22966 14.3382 6.41858L4.99953 15.4396C4.53505 15.9119 4.53505 16.6439 4.99953 17.1163C5.21955 17.3288 5.53736 17.4705 5.85517 17.4705C6.17298 17.4705 6.49078 17.3524 6.7108 17.1163L18.1274 6.08796C18.6897 5.54481 18.9831 4.83636 18.9831 4.08067C18.9831 3.32499 18.6897 2.61653 18.1274 2.07338C17.5651 1.53024 16.8317 1.24685 16.0495 1.24685C15.2672 1.24685 14.5338 1.53024 13.9715 2.07338L2.57931 13.1017C1.69923 13.9518 1.21029 15.0853 1.21029 16.2661C1.21029 17.4469 1.69923 18.5804 2.57931 19.4305C4.38836 21.1781 7.34642 21.1781 9.15548 19.4305L19.8631 9.08709C20.0587 8.89817 20.3521 8.89817 20.5476 9.08709C20.7432 9.27601 20.7432 9.58301 20.5721 9.74832Z" fill="#2A2A2A"/>
</svg>
