<svg width="27" height="18" viewBox="0 0 27 18" fill="none" xmlns="http://www.w3.org/2000/svg">
<path d="M16.2628 13.5H10.7372C10.2748 13.5 9.90002 13.0957 9.90002 12.597L9.90002 0.903015C9.90002 0.40428 10.2748 9.53674e-07 10.7372 9.53674e-07H16.2628C16.7252 9.53674e-07 17.1 0.40428 17.1 0.903015V12.597C17.1 13.0957 16.7252 13.5 16.2628 13.5ZM15.4256 1.80603H11.5744L11.5744 11.694H15.4256L15.4256 1.80603Z" fill="#2A2A2A"/>
<path d="M26.2242 17.6896H21.0647C20.6362 17.6896 20.2888 17.3423 20.2888 16.9138L20.2888 0.77585C20.2888 0.347342 20.6362 -1.14441e-05 21.0647 -1.14441e-05H26.2242C26.6527 -1.14441e-05 27 0.347342 27 0.77585V16.9138C27 17.3422 26.6527 17.6896 26.2242 17.6896ZM25.4483 1.55171H21.8405L21.8405 16.1379H25.4483V1.55171Z" fill="#2A2A2A"/>
<path d="M5.57168 16.2H0.728321C0.326067 16.2 0 15.8819 0 15.4895L0 0.710529C0 0.318104 0.326067 1.90735e-06 0.728321 1.90735e-06H5.57168C5.97393 1.90735e-06 6.3 0.318104 6.3 0.710529L6.3 15.4895C6.3 15.8818 5.97393 16.2 5.57168 16.2ZM4.84335 1.42106H1.45664L1.45664 14.7789H4.84335L4.84335 1.42106Z" fill="#2A2A2A"/>
</svg>
