<svg xmlns="http://www.w3.org/2000/svg" viewBox="0 0 120 100" id="pipeline-gray"><g fill="none" fill-rule="evenodd"><path d="M50.57 79.58c.74-.04 1.37.54 1.4 1.28l.01.12v.04c.03.96-.06 1.89-.14 2.79-.14 1.67-.16 3.52-.15 5.29l.01.97c.01.62-.49 1.13-1.12 1.14h-.02c-3.08.04-6.14.15-9.22.03a58.76 58.76 0 0 1-4.43-.34c-.81-.09-1.53-.17-2.44-.11-1.05.07-2.01.2-3.08.26-1.21.08-2.45.1-3.7.11l-2.13.04c-.75 0-1.46-.05-2.16-.09-1.82-.1-3.43.01-5.19.12-.6.03-1.11-.42-1.15-1.02v-.01l-.01-.13-.01-.19c-.1-1.82-.24-3.78-.11-5.74.09-1.41.21-2.78.32-4.12h.01c.04 0 1.57.05 1.67.05.47 0 .93-.07 1.41-.06.53.02 1.01.04 1.57.06.84.05 1.66.07 2.49.03.51-.03.96-.03 1.48-.04.43-.01.85-.03 1.28-.05l2.53-.03c.52-.01 1.11.01 1.54-.06.33-.04.43-.13.82-.16.82-.07 1.82-.07 2.7-.08.43 0 .89 0 1.3-.03.57-.04.88-.08 1.52-.04.77.04 2.23.2 2.65-.01 1.4.13 2.73.03 4.17.08 1.31.04 2.65.3 3.98.17.78-.08 1.32-.23 2.2-.27zm-3.13 2.34c-.68 0-1.35.02-1.98.07-.46.04-.89.09-1.38.11-1.35.04-2.73-.15-4.09-.16-1.08-.01-2.02.09-3.05.12-1.01.02-2.05.04-3.09.02-.54-.01-1.12-.03-1.63-.01-.41.02-.69.07-1.03.11-1.12.13-2.58-.06-3.83-.15-.52-.04-1-.06-1.46-.03-.41.03-.72.06-1.19.06-1.11 0-2.25-.04-3.39-.09-.18 0-2.15-.04-2.15-.04.05.32.07 2.57.08 2.88.13 2.12-.03 2.68-.16 4.59.25.04.51.06.87.02.65-.07 1.12-.2 1.7-.3 1.26-.21 2.3-.09 3.58.03 1.13.1 2.2-.07 3.31-.11 1.58-.07 3.04.06 4.6.05 1.26-.01 2.2-.24 3.46-.25 1.44-.02 2.77.17 4.23.14 1.52-.03 2.85-.12 4.38-.01 1.51.08 2.91.19 4.46.22 0-1.39-.03-2.78-.17-4.06-.05-.53-.13-1.06-.14-1.65-.01-.51.03-1.01.06-1.49-.65-.04-1.31-.07-1.99-.07zm3.13-15.81c.74-.04 1.37.54 1.4 1.28l.01.12v.04c.03.96-.06 1.9-.13 2.78-.14 1.67-.16 3.52-.15 5.29l.01.97c.01.62-.49 1.13-1.12 1.14h-.02c-3.08.04-6.14.15-9.22.03a58.76 58.76 0 0 1-4.43-.34c-.81-.09-1.53-.17-2.44-.11-1.05.07-2.01.2-3.08.26-1.21.08-2.45.1-3.7.11l-2.13.04c-.75 0-1.46-.05-2.16-.09-1.82-.1-3.43.01-5.19.12-.6.03-1.11-.42-1.15-1.02v-.01l-.01-.13-.01-.19c-.1-1.82-.24-3.78-.11-5.74.09-1.41.21-2.78.32-4.12h.01c.04 0 1.57.05 1.67.05.47.01.93-.06 1.4-.05.53.02 1.01.04 1.57.06.84.05 1.66.07 2.49.03.51-.03.96-.03 1.48-.04.43-.01.85-.03 1.28-.05l2.53-.03c.52-.01 1.11.01 1.54-.06.33-.04.43-.13.82-.16.82-.07 1.82-.07 2.7-.08.43 0 .89 0 1.3-.03.57-.04.88-.08 1.52-.04.77.04 2.23.2 2.65-.01 1.4.13 2.73.03 4.17.08 1.31.04 2.65.3 3.98.17.78-.08 1.32-.23 2.2-.27zm-3.14 2.35c-.68 0-1.35.02-1.98.07-.46.04-.89.09-1.38.11-1.35.04-2.73-.15-4.09-.16-1.08-.01-2.02.09-3.05.12-1.01.02-2.05.04-3.09.02-.54-.01-1.12-.03-1.63-.01-.41.02-.69.07-1.03.11-1.12.13-2.58-.06-3.83-.15-.52-.04-1-.06-1.46-.03-.41.03-.72.06-1.19.06-1.11 0-2.25-.04-3.39-.09-.18 0-2.14-.04-2.15-.04.05.32.07 2.57.08 2.88.13 2.12-.03 2.68-.16 4.59.25.04.52.06.88.01.65-.07 1.12-.2 1.7-.3 1.26-.21 2.3-.09 3.58.03 1.13.1 2.2-.07 3.31-.11 1.58-.07 3.04.06 4.6.05 1.26-.01 2.2-.24 3.46-.25 1.44-.02 2.77.17 4.23.14 1.52-.02 2.85-.12 4.37 0 1.51.08 2.91.19 4.46.22 0-1.39-.03-2.78-.17-4.06-.05-.53-.13-1.06-.14-1.65-.01-.51.03-1.01.06-1.49-.65-.04-1.31-.07-1.99-.07zm37.87-29.3c.72-.23 1.48.17 1.71.88l.03.09.02.05c.36 1.15.6 2.31.83 3.41.44 2.07 1.04 4.32 1.66 6.46l.34 1.18c.18.61-.17 1.24-.77 1.41h-.02c-1.13.33-2.26.67-3.38 1-.19-.18-.37-.36-.56-.53l-.41-.35-.21-.17-.12-.1c-.09-.09-.22-.19-.38-.26-.31-.15-.77-.17-1.1-.02-.34.15-.52.36-.64.54-.24.37-.3.72-.32 1.07 0 .31-.02.62-.08.92-1.32.38-2.65.74-4 1.08-1.92.48-3.71.85-5.46 1.18-1.01.19-1.9.36-2.99.73-1.25.42-2.39.87-3.67 1.3-1.45.49-2.94.93-4.46 1.37-.86.26-1.73.52-2.58.77-.91.26-1.79.45-2.65.65-2.24.53-4.16 1.19-6.27 1.89-.58.2-1.2-.11-1.39-.69l-.03-.1-.07-.23c-.71-2.14-1.5-4.4-2.03-6.77-.39-1.7-.74-3.36-1.08-5h.01s1.89-.49 2.02-.52c.57-.16 1.12-.39 1.68-.53.64-.16 1.24-.32 1.9-.48 1.01-.24 2-.5 3-.82.61-.2 1.16-.36 1.78-.54.53-.17 1.01-.32 1.54-.49 1.01-.29 2.04-.59 3.05-.89.63-.18 1.34-.37 1.85-.58.4-.16.51-.28.97-.44.98-.35 2.18-.68 3.24-.99.52-.16 1.07-.31 1.56-.48.68-.24 1.04-.38 1.82-.56.94-.22 2.73-.56 3.19-.91 1.71-.35 3.29-.9 5.04-1.34 1.6-.41 3.28-.61 4.85-1.19.91-.33 1.54-.67 2.58-1zm-34.73-4.38c.74-.04 1.37.54 1.4 1.28l.01.12v.04c.03.96-.06 1.89-.12 2.78-.14 1.67-.16 3.52-.15 5.29l.01.97c.01.62-.49 1.13-1.12 1.14h-.02c-3.08.04-6.14.15-9.22.03a58.76 58.76 0 0 1-4.43-.34c-.81-.09-1.53-.17-2.44-.11-1.05.07-2.01.2-3.08.26-1.21.08-2.45.1-3.7.11l-2.13.04c-.75 0-1.46-.05-2.16-.09-1.82-.1-3.43.01-5.19.12-.6.03-1.11-.42-1.15-1.02v-.01l-.01-.13-.01-.19c-.1-1.82-.24-3.78-.11-5.74.09-1.41.21-2.78.32-4.12h.01c.05 0 1.56.05 1.66.05.47.01.93-.06 1.4-.05.53.02 1.01.04 1.57.06.84.05 1.66.07 2.49.03.51-.03.96-.03 1.48-.04.43-.01.85-.03 1.28-.05l2.53-.03c.52-.01 1.11.01 1.54-.06.33-.04.43-.13.82-.16.82-.07 1.82-.07 2.7-.08.43 0 .89 0 1.3-.03.57-.04.88-.08 1.52-.04.77.04 2.23.2 2.65-.01 1.4.13 2.73.03 4.17.08 1.31.04 2.65.3 3.98.17.78-.08 1.32-.23 2.2-.27zm-3.13 2.34c-.68 0-1.35.02-1.98.07-.46.04-.89.09-1.38.11-1.35.04-2.73-.15-4.09-.16-1.08-.01-2.02.09-3.05.12-1.01.02-2.05.04-3.09.02-.54-.01-1.12-.03-1.63-.01-.41.02-.69.07-1.03.11-1.12.13-2.58-.06-3.83-.15-.52-.04-1-.06-1.46-.03-.41.03-.72.06-1.19.06-1.11 0-2.25-.04-3.39-.09-.18 0-2.14-.04-2.15-.04.05.32.07 2.57.08 2.88.13 2.12-.03 2.68-.16 4.59.25.04.51.06.87.02.65-.07 1.12-.2 1.7-.3 1.26-.21 2.3-.09 3.58.03 1.13.1 2.2-.07 3.31-.11 1.58-.07 3.04.06 4.6.05 1.26-.01 2.2-.24 3.46-.25 1.44-.02 2.77.17 4.23.14 1.52-.03 2.85-.12 4.38-.01 1.51.08 2.91.19 4.46.22 0-1.39-.03-2.78-.17-4.06-.05-.53-.13-1.06-.14-1.65-.01-.51.03-1.01.06-1.49-.65-.04-1.31-.07-1.99-.07zm3.13-15.25c.74-.04 1.37.54 1.4 1.28l.01.12v.04c.03.96-.06 1.9-.12 2.79-.14 1.67-.16 3.52-.15 5.29l.01.97c.01.62-.49 1.13-1.12 1.14h-.02c-3.08.04-6.14.15-9.22.03a58.76 58.76 0 0 1-4.43-.34c-.81-.09-1.53-.17-2.44-.11-1.05.07-2.01.2-3.08.26-1.21.07-2.45.09-3.7.1l-2.13.04c-.75 0-1.46-.05-2.16-.09-1.82-.1-3.43.01-5.19.12-.6.03-1.11-.42-1.15-1.02v-.01l-.01-.13-.01-.19c-.1-1.82-.24-3.78-.11-5.74.09-1.41.21-2.78.32-4.12 0 0 1.57.05 1.67.05.47.01.93-.06 1.4-.05.53.02 1.01.04 1.57.06.84.05 1.66.07 2.49.03.51-.03.96-.03 1.48-.04.43-.01.85-.03 1.28-.05l2.53-.03c.52-.01 1.11.01 1.54-.06.33-.04.43-.13.82-.16.82-.07 1.82-.07 2.7-.08.43 0 .89 0 1.3-.03.57-.04.88-.08 1.52-.04.77.04 2.23.2 2.65-.01 1.4.13 2.73.03 4.17.08 1.31.04 2.65.3 3.98.17.78-.08 1.32-.23 2.2-.27zm51.9 0c.74-.04 1.37.54 1.4 1.28l.01.12v.04c.04.96-.05 1.9-.12 2.79-.14 1.67-.16 3.52-.15 5.29l.01.97c.01.62-.49 1.13-1.12 1.14h-.02c-3.08.04-6.14.15-9.22.03a58.76 58.76 0 0 1-4.43-.34c-.81-.09-1.53-.17-2.44-.11-1.05.07-2.01.2-3.08.26-1.21.07-2.45.09-3.7.1l-2.13.04c-.75 0-1.46-.05-2.16-.09-1.82-.1-3.43.01-5.19.12-.6.03-1.11-.42-1.15-1.02v-.01l-.01-.13-.01-.19c-.1-1.82-.24-3.78-.11-5.74.09-1.41.21-2.78.32-4.12 0 0 1.57.05 1.67.05.47.01.93-.06 1.4-.05.53.02 1.01.04 1.57.06.84.05 1.66.07 2.49.03.51-.03.96-.03 1.48-.04.43-.01.85-.03 1.28-.05l2.53-.03c.52-.01 1.11.01 1.54-.06.33-.04.43-.13.82-.16.82-.07 1.82-.07 2.7-.08.43 0 .89 0 1.3-.03.57-.04.88-.08 1.52-.04.77.04 2.23.2 2.65-.01 1.4.13 2.73.03 4.17.08 1.31.04 2.65.3 3.98.17.78-.08 1.32-.23 2.2-.27zm-3.12 2.35c-.68 0-1.35.02-1.98.07-.46.04-.89.09-1.38.11-1.35.04-2.73-.15-4.09-.16-1.08-.01-2.02.09-3.05.12-1.01.02-2.05.04-3.09.02-.54-.01-1.12-.03-1.63-.01-.41.02-.69.07-1.03.11-1.12.13-2.58-.06-3.83-.15-.52-.04-1-.06-1.46-.03-.41.03-.72.06-1.19.06-1.11 0-2.25-.04-3.39-.09-.18 0-2.15-.04-2.15-.04.05.31.07 2.56.08 2.87.13 2.12-.03 2.68-.16 4.59.25.04.51.06.87.02.65-.07 1.12-.2 1.7-.3 1.26-.21 2.3-.09 3.58.03 1.13.1 2.2-.07 3.31-.11 1.58-.07 3.04.06 4.6.05 1.26-.01 2.2-.24 3.46-.25 1.44-.02 2.77.17 4.23.14 1.52-.03 2.85-.12 4.38-.03 1.51.09 2.92.19 4.46.25 0-1.39-.03-2.78-.17-4.06-.05-.53-.13-1.06-.14-1.65-.01-.51.03-1.01.06-1.49-.65-.04-1.31-.07-1.99-.07zm-51.9 0c-.68 0-1.35.02-1.98.07-.46.04-.89.09-1.38.11-1.35.04-2.73-.15-4.09-.16-1.08-.01-2.02.09-3.05.12-1.01.02-2.05.04-3.09.02-.54-.01-1.12-.03-1.63-.01-.41.02-.69.07-1.03.11-1.12.13-2.58-.06-3.83-.15-.52-.04-1-.06-1.46-.03-.41.03-.72.06-1.19.06-1.11 0-2.25-.04-3.39-.09-.18 0-2.15-.04-2.15-.04.05.31.07 2.56.08 2.87.13 2.12-.03 2.68-.16 4.59.25.04.51.06.87.02.65-.07 1.12-.2 1.7-.3 1.26-.21 2.3-.09 3.58.03 1.13.1 2.2-.07 3.31-.11 1.58-.07 3.04.06 4.6.05 1.26-.01 2.2-.24 3.46-.25 1.44-.02 2.77.17 4.23.14 1.52-.03 2.85-.12 4.38-.03 1.51.09 2.91.19 4.46.25 0-1.39-.03-2.78-.17-4.06-.05-.53-.13-1.06-.14-1.65-.01-.51.03-1.01.06-1.49-.65-.04-1.31-.07-1.99-.07zm3.12-15.76c.74-.04 1.37.54 1.4 1.28l.01.12v.04c.03.95-.06 1.89-.14 2.78-.14 1.67-.16 3.52-.15 5.29l.01.97c.01.62-.49 1.13-1.12 1.14h-.02c-3.08.04-6.14.15-9.22.03a58.76 58.76 0 0 1-4.43-.34c-.81-.09-1.53-.17-2.44-.11-1.05.07-2.01.2-3.08.26-1.21.08-2.45.1-3.7.11l-2.13.04c-.75 0-1.46-.05-2.16-.09-1.82-.1-3.43.01-5.19.12-.6.03-1.11-.42-1.15-1.02v-.01l-.01-.13-.01-.19c-.1-1.82-.24-3.78-.11-5.74.09-1.41.21-2.77.33-4.11 0 0 1.57.05 1.67.05.47 0 .93-.07 1.39-.05.53.01 1.02.03 1.58.05.83.05 1.65.07 2.5.03.51-.03.96-.03 1.48-.04.43-.01.85-.03 1.28-.05l2.53-.03c.52-.01 1.11.01 1.54-.06.33-.04.43-.13.82-.16.82-.07 1.82-.07 2.7-.08.43 0 .89 0 1.3-.03.57-.04.88-.08 1.52-.04.77.04 2.23.2 2.65-.01 1.4.13 2.73.03 4.17.08 1.31.04 2.65.3 3.98.17.78-.08 1.32-.23 2.2-.27zm51.9 0c.74-.04 1.37.54 1.4 1.28l.01.12v.04c.04.95-.05 1.89-.14 2.78-.14 1.67-.16 3.52-.15 5.29l.01.97c.01.62-.49 1.13-1.12 1.14h-.02c-3.08.04-6.14.15-9.22.03a58.76 58.76 0 0 1-4.43-.34c-.81-.09-1.53-.17-2.44-.11-1.05.07-2.01.2-3.08.26-1.21.08-2.45.1-3.7.11l-2.13.04c-.75 0-1.46-.05-2.16-.09-1.82-.1-3.43.01-5.19.12-.6.03-1.11-.42-1.15-1.02v-.01l-.01-.13-.01-.19c-.1-1.82-.24-3.78-.11-5.74.09-1.41.21-2.78.32-4.12h.01c.02 0 1.57.05 1.67.05.47.01.93-.06 1.4-.05.53.02 1.01.04 1.57.06.84.05 1.66.07 2.5.03.51-.03.96-.03 1.48-.04.43-.01.85-.03 1.28-.05l2.53-.03c.52-.01 1.11.01 1.54-.06.33-.04.43-.13.82-.16.82-.07 1.82-.07 2.7-.08.43 0 .89 0 1.3-.03.57-.04.88-.08 1.52-.04.77.04 2.23.2 2.65-.01 1.4.13 2.73.03 4.17.08 1.31.04 2.65.3 3.98.17.78-.08 1.32-.23 2.2-.27zm-3.12 2.35c-.68 0-1.35.02-1.98.07-.46.04-.89.09-1.38.11-1.35.04-2.73-.15-4.09-.16-1.08-.01-2.02.09-3.05.12-1.01.02-2.05.04-3.09.02-.54-.01-1.12-.03-1.63-.01-.41.02-.69.07-1.03.11-1.12.13-2.58-.06-3.83-.15-.52-.04-1-.06-1.46-.03-.41.03-.72.06-1.19.06-1.11 0-2.25-.04-3.39-.09-.18 0-2.15-.04-2.15-.04.05.31.07 2.56.08 2.87.13 2.12-.03 2.68-.16 4.59.25.04.51.06.87.02.65-.07 1.12-.2 1.7-.3 1.26-.21 2.3-.09 3.58.03 1.13.1 2.2-.07 3.31-.11 1.58-.07 3.04.06 4.6.05 1.26-.01 2.2-.24 3.46-.25 1.44-.02 2.77.17 4.23.14 1.52-.03 2.85-.12 4.38 0 1.51.08 2.91.19 4.46.22 0-1.39-.03-2.78-.17-4.06-.05-.53-.13-1.06-.14-1.65-.01-.51.03-1.01.06-1.49-.65-.04-1.31-.07-1.99-.07zm-51.92-.01c-.68 0-1.35.02-1.98.07-.46.04-.89.09-1.38.11-1.35.04-2.73-.15-4.09-.16-1.08-.01-2.02.09-3.05.12-1.01.02-2.05.04-3.09.02-.54-.01-1.12-.03-1.63-.01-.41.02-.69.07-1.03.11-1.12.13-2.58-.06-3.83-.15-.52-.04-1-.06-1.46-.03-.41.03-.72.06-1.19.06-1.11 0-2.25-.04-3.39-.09-.18 0-2.15-.04-2.15-.04.04.32.07 2.57.1 2.88.13 2.12-.03 2.68-.16 4.59.25.04.51.06.87.02.65-.07 1.12-.2 1.7-.3 1.26-.21 2.3-.09 3.58.03 1.13.1 2.2-.07 3.31-.11 1.58-.07 3.04.06 4.6.05 1.26-.01 2.2-.24 3.46-.25 1.44-.02 2.77.17 4.23.14 1.52-.03 2.85-.12 4.38-.03 1.51.08 2.91.19 4.44.24 0-1.39-.03-2.78-.17-4.06-.05-.53-.13-1.06-.14-1.65-.01-.51.03-1.01.06-1.49-.65-.04-1.31-.07-1.99-.07z" fill="#B1B1BA"></path><path d="M57.35 31.65c.03-.38.03-.83.02-1.25-.02-.66-.09-1.21-.14-1.73-.06-.49-.15-1.09-.14-1.76 0-.71.1-1.1.17-1.57.16-1.2-.08-1.92-.1-3.17-.01-.57.01-1.07-.03-1.62-.04-.63-.12-1.12-.18-1.72-.14-1.6.04-2.64.12-4.14.09-1.77-.01-3.23-.07-4.94-.06-1.63-.02-3.12 0-4.75v-.6c0-.61-.5-1.1-1.11-1.09-.4 0-.81.01-1.21.01-1.17 0-2.33-.03-3.47-.06-1.66-.04-3.37-.04-5-.11-.72-.03-1.33-.08-2.07-.07-.68.01-1.46-.02-2.11.01-1.17.06-2.18.04-3.37.01-1.35-.03-2.55-.02-3.88.03-1.06.04-1.89.03-2.95 0-3.73-.12-7.62.14-11.26.22-2.6.06-5.37.1-8.09.09-.54 0-.98.43-.98.97v.01c-.01 1.5-.03 2.98-.07 4.4-.04 1.46-.13 2.81-.19 4.23l-.12 3.77c-.05 1.19-.13 2.32-.12 3.59.01 1.28.11 2.44.12 3.73 0 1.23-.06 2.42-.05 3.66.01 1.09.08 2.21.04 3.3-.04 1.01-.11 1.76-.1 2.85.02 1.26.11 2.43.13 3.7-.01 1.25-.01 2.5-.02 3.74 0 1.01.01 2.02.01 3.03l-.08 6.67c-.02 2.69.16 5.26.26 7.82.11 2.79.23 5.32.13 8.2-.04 1.07-.09 2.16-.09 3.29.01 1.08.03 2.18.04 3.27.02 1.91.03 3.79.1 5.65.09 1.58.17 3.13.26 4.7.06 1.39-.02 2.48-.11 3.73-.16 2.16-.28 4.36-.34 6.76l-.03 1.57v.01c-.01.65.51 1.19 1.16 1.2h.04c4.67.07 9.31-.05 13.99-.07 2.69-.01 5.52.01 8.08.15 1.35.07 2.78.16 4.25.12 1.33-.03 2.16-.19 3.34-.27 2-.13 3.95.13 5.88.18 2.12.05 4.12-.04 6.14.1.34-.1 1-.12 1.73-.1.71.02 1.31-.54 1.33-1.25v-.08c.02-.77.08-1.6.11-2.17.05-.92.02-1.39-.03-2.26-.03-.63-.02-1.29-.02-1.93 0-1.31.02-2.77-.04-4.02-.03-.59-.12-.8-.17-1.32-.06-.6-.06-1.5-.04-2.18.01-.36 0-.73 0-1.1v-1.36c.01-.81.04-1.6.07-2.38.07-1.81.09-3.54.01-5.36-.09-2.17-.28-4.27-.52-5.77-.09-.59-.2-1.09-.32-1.32-.11-.22-.23-.18-.34-.06-.1.1-.19.25-.29.39-.17.26-.34.61-.51.9-.06.1-.12.09-.18.32-.03.18-.07.36-.1.55-.01.07-.1.47-.1.56 0 .25-.05.49-.06.7-.02.2-.03.4-.05.61-.01.24-.03.5-.04.74 0 .2 0 .38-.01.58l-.03.75c0 .28-.01.57-.01.85 0 .38-.01.73.01 1.12.01.28.03.6.02.9.01.02.02.07.01.15.02.02.03.26.03.37.05.78.03 1.49 0 2.29-.09 1.88-.27 4.04-.1 5.94.05.57.11 1.05.14 1.72.03.83.02 1.73.02 2.57 0 1.63.02 3.27.06 4.89.03 1.14.09 2.24.12 3.38-1.95-.03-3.88-.18-5.83-.13-.78.02-1.46.08-2.19.12-1 .06-2.04.08-3.11.07-2.2-.01-4.26-.1-6.35-.2-.76-.04-1.54-.07-2.34-.06-.91.01-1.71.09-2.52.14-2.69.19-5.65.2-8.57.17-2.5-.03-4.73-.14-7.14-.23-1.13-.04-2.19-.04-3.25-.02-.01-.4-.01-.79-.02-1.2-.03-2.23.16-4.25.14-6.46-.01-1.92-.24-3.37-.25-5.28-.01-2.38.12-4.62.05-7.03-.05-1.7-.21-3.32-.11-5.04.12-1.96.24-3.55.03-5.47-.1-.88-.23-1.59-.3-2.59-.1-1.35-.05-2.88.01-4.26.17-3.65.38-7.02.37-10.8-.01-2.21-.09-4.43-.01-6.61.08-2.1.34-3.97.34-6.19.01-1.91-.3-3.29-.25-5.17.05-1.78.31-3.02.16-4.91-.13-1.57-.28-2.39-.16-4.24.03-.56.07-1.07.07-1.69l-.06-2.22c-.02-2.18.11-4.32.16-6.45.03-1.2.04-2.43.05-3.66 1.93-.01 3.8-.01 5.75.01 3.32.04 5.87-.19 8.84-.37 3.43-.21 6.88-.25 10.18.03.72.06 1.47.15 2.32.15.87.01 1.74-.06 2.51-.11 1.87-.12 3.79-.21 5.83-.22 1.91-.01 3.82.04 5.71.06h.12L55 8.44c-.02 1.68-.04 3.26-.21 4.56-.17 1.26-.26 2.32-.3 4.03-.04 1.8-.12 3.87-.08 5.69.04 1.5.26 2.5.27 4 0 .72-.04 1.39-.05 2.09v.69c-.01.36-.02.72-.02 1.08-.05 1.61-.07 3.28-.07 4.93 0 .94.02 1.87.05 2.79.06 1.84.15 3.81.3 5.4.03.36.07.64.11.87.08.44.18.7.28.92.16.35.33.68.5.87.18.2.37.05.55-.09 0-.1.08-.28.1-.32.05-.12.1-.1.14-.28.05-.25.09-.49.14-.74.02-.34.09-.31.13-.47.02-.08.03-.17.05-.29.01-.11.02-.23.04-.29 0-.25.05-.55.07-.76.02-.28.06-.6.06-.93v-.35c.01-.17.02-.36.02-.52.07-1.41.11-2.97.13-4.46 0-.35.01-.71.03-1.04.02-.2.03-.39.04-.59.01-.16.01-.29.02-.45.01-.16.01-.38.02-.54-.01-.2-.02-.39-.02-.58-.02-.4-.02-.85.01-1.23-.01-.26.02-.52.04-.78zm52.14 26.41l.12-3.27c.05-1.03.14-2.01.12-3.11-.01-1.1-.11-2.11-.12-3.23 0-1.07.06-2.1.05-3.17-.01-.94-.08-1.91-.04-2.85.04-.87.11-1.52.1-2.47-.02-1.09-.11-2.1-.13-3.21-.02-1.08.02-2.16.02-3.24 0-.88-.02-1.75-.01-2.62l.08-5.77c.02-2.33-.16-4.55-.26-6.77-.11-2.42-.23-4.61-.13-7.1.04-.93.09-1.87.09-2.85-.01-.93-.03-1.89-.04-2.83l-.01-1.16v-.02c-.01-.59-.49-1.06-1.08-1.05-1.26.01-2.5.04-3.73.09-1.41.06-2.68.19-4.07.26-1.2.06-2.15-.02-3.23-.11-1.87-.16-3.78-.28-5.85-.34-4.51-.13-8.96.02-13.48.04-2.33.01-4.78-.01-7-.15-1.17-.07-2.41-.16-3.68-.12-.95.03-1.6.14-2.38.22l-.23.02c-.58.06-1.01.58-.95 1.16l.05.51c.13 1.73-.13 3.42-.18 5.1-.05 1.83.04 3.56-.1 5.32.22.61.04 2.42-.02 3.37-.05.8-.02 1.2.03 1.96.03.54.02 1.12.02 1.68 0 1.13-.02 2.39.04 3.49.03.51.12.69.17 1.14.06.52.06 1.3.04 1.88-.01.31 0 .63 0 .95v1.18c-.01.7-.04 1.38-.07 2.06-.07 1.57-.09 3.06-.01 4.64.09 1.88.28 3.69.52 4.99.09.51.2.94.32 1.15.11.19.23.16.34.05.1-.09.19-.21.29-.34.17-.23.34-.53.51-.78.06-.09.12-.08.18-.28.04-.14.07-.31.1-.47.01-.06.1-.41.1-.48 0-.21.05-.43.06-.6.02-.17.03-.35.05-.52.01-.21.03-.43.04-.64 0-.17 0-.33.01-.5l.03-.65c0-.25.01-.49.01-.73 0-.33.01-.63-.01-.97-.01-.25-.03-.52-.02-.78-.01-.02-.02-.06-.01-.13-.02-.02-.03-.23-.03-.32-.05-.68-.03-1.29 0-1.98.09-1.62.27-3.5.1-5.14-.05-.49-.11-.91-.14-1.49-.03-.72-.02-1.49-.02-2.23 0-1.41-.02-2.83-.06-4.23-.04-1.42-.16-2.74-.15-4.2.01-1.84.19-3.66.14-5.51-.02-.67-.08-1.27-.12-1.9-.06-.87-.08-1.77-.07-2.69.01-.3.01-.59.02-.88.88.04 1.77.07 2.64.12.65.04 1.33.07 2.02.06.78-.01 1.48-.09 2.18-.14 2.33-.19 4.89-.2 7.42-.17 2.17.03 4.09.14 6.18.23 2.03.09 3.79 0 5.8-.03 1.93-.03 3.68.16 5.59.14 1.66-.01 2.91-.24 4.57-.25 1.72-.01 3.36.07 5.07.06.06 1.12.14 2.22.06 3.37-.12 1.69-.24 3.07-.03 4.74.1.76.23 1.38.3 2.25.1 1.17.05 2.49-.01 3.69-.15 3.1-.36 6.02-.34 9.29.01 1.92.09 3.83.01 5.73-.08 1.82-.34 3.44-.34 5.36-.01 1.65.3 2.85.25 4.48-.05 1.54-.31 2.62-.16 4.26.13 1.36.28 2.07.16 3.67-.03.48-.07.93-.07 1.46l.06 1.92c.02 1.88-.11 3.74-.16 5.57-.04 1.57-.07 3.19-.06 4.79.01 1.9.02 3.71-.01 5.6-.03 2.4.12 4.34.28 6.42-2.74.17-5.48.19-8.12-.07-.63-.06-1.27-.15-2.01-.15-.75-.01-1.5.06-2.17.11-1.62.12-3.28.21-5.04.22-1.66.01-3.31-.04-4.94-.06-1.45-.02-2.9-.03-4.35-.05-1.45-.02-2.82-.04-3.95-.21-1.09-.17-2.01-.26-3.49-.3-1.56-.04-3.35-.12-4.92-.08-.81.02-1.45.12-2.14.19.01-.2.02-.39.02-.59v-.6l.02-.94c.05-1.39.07-2.84.07-4.26 0-.82-.02-1.62-.05-2.42-.06-1.59-.15-3.3-.3-4.68-.03-.31-.07-.55-.11-.76a2.88 2.88 0 0 0-.28-.8c-.16-.3-.33-.59-.5-.75-.18-.18-.37-.05-.55.07 0 .08-.08.25-.1.28-.05.11-.1.09-.14.24-.05.22-.09.42-.14.64-.02.29-.09.27-.13.41-.02.07-.03.15-.05.25-.01.09-.02.2-.04.26 0 .22-.05.48-.07.66-.02.24-.06.52-.06.81v.31c-.01.14-.02.31-.02.45-.07 1.22-.11 2.57-.13 3.87 0 .3-.01.61-.03.9-.01.17-.03.34-.04.51-.01.14-.01.25-.02.39s-.01.33-.02.47c0 .18.01.34.02.5.02.35.02.74-.01 1.07l-.07.67c-.03.33-.03.72-.02 1.08.02.57.09 1.05.14 1.49.06.43.15.95.14 1.53 0 .08 0 .16-.01.24-.02.63.48 1.17 1.12 1.2h.09c.47.02.77.1 1.12.16 1.04.16 1.66-.08 2.74-.1.49-.01.93.01 1.4-.03.54-.04.97-.12 1.49-.18 1.39-.14 2.29.04 3.58.12 1.53.09 2.8-.01 4.28-.07 1.41-.06 2.7-.02 4.11 0 .52 0 1.03-.01 1.56-.01 1.01 0 2.01.03 3 .06 1.44.04 2.91.04 4.33.11.63.03 1.16.08 1.8.07.59-.01 1.26.02 1.82-.01 1.01-.06 1.89-.04 2.92-.01 1.17.03 2.21.02 3.36-.03.92-.04 1.63-.03 2.55 0 1.1.04 2.22.04 3.34.01h.09c.69-.03 1.23-.61 1.2-1.3-.08-2.12-.16-4.36-.24-6.41-.1-3.48-.13-7.33-.02-10.82.1-1.26.18-2.43.24-3.66z" fill="#242433"></path><path d="M29.17 83.35c.34-.14.71-.1 1.01.07.17.09.32.23.46.36.37.32.83.57 1.29.77.68.3 1.38.54 2.04.87.193-.04.382-.071.573-.093l.287-.027c.25-.02.46-.04.67-.2.24-.2.43-.42.68-.61.28-.21.59-.38.9-.54l.34-.187.16-.093a.937.937 0 0 1 .739-.094l.121.044.1.05.03.01c.19.08.35.22.51.34.12.09.26.16.37.25.05.04.08.04.13.06l.083.052.047.018h.04l.035.013.015.007.045.004.045-.004.33.02c.11.01.21.07.32.1.04.007.076.022.113.04l.057.03.16.07c.06.03.1.07.15.1.18.1.39.15.53.29.08.08.12.17.19.25.05.05.11.15.17.17l.033.076a.294.294 0 0 0 .027.044c.02.02.04.03.05.03.13.18.2.4.28.6.04.12.09.26.07.41-.03.08-.11.12-.17.18a.816.816 0 0 0-.112.143l-.048.077c-.04.07-.07.13-.15.17-.12.06-.3.06-.45.07-.12.01-.25.01-.37-.01l-.115-.041-.345-.145a1.602 1.602 0 0 1-.11-.054c-.21-.11-.41-.25-.59-.39-.15-.12-.29-.23-.45-.32a2.233 2.233 0 0 0-.394-.195l-.136-.045-.17-.03c-.08-.01-.14 0-.22 0-.19-.01-.36-.13-.51-.26-.08.07-.16.13-.24.19-.38.25-.81.31-1.2.51-.32.16-.46.48-.78.64-.36.19-.78.18-1.14.38-.11.07-.23.14-.35.21a.886.886 0 0 1-.619.112l-.121-.032-.22-.08c-.26-.09-.51-.18-.75-.36-.37-.27-.69-.55-1.1-.77-.48-.27-.98-.49-1.51-.53-.16-.01-.32-.01-.48-.07-.06-.02-.11-.06-.16-.09l-.253.079a1.48 1.48 0 0 0-.127.051c-.18.08-.35.18-.49.31l-.208.194a1.13 1.13 0 0 1-.112.086c-.34.21-.77.21-1.13.37-.29.13-.49.35-.75.52-.14.09-.28.18-.43.26-.231.129-.5.154-.742.096L25 87.84l-.15-.06c-.12-.05-.25-.1-.37-.16-.14-.07-.29-.15-.44-.19-.13-.03-.23-.01-.35-.01-.28 0-.51-.18-.71-.35l-.203-.184-.107-.086c-.07-.05-.18-.14-.27-.15-.06-.01-.12 0-.18-.02-.08-.03-.16-.07-.24-.11-.07-.03-.13-.09-.19-.14l-.112-.11-.048-.06-.05-.07-.06-.04-.184-.175c-.147-.15-.267-.31-.296-.495-.01-.2-.01-.39.08-.57.09-.2.25-.36.44-.49a.986.986 0 0 1 .69-.18c.24.03.48.13.71.22l.62.22c.06.02.1.06.16.09.1.05.2.06.29.1l.315.146.475.232a.69.69 0 0 0 .166.057l.084.005.03-.01c.03-.01.06-.02.08-.04l.137-.105a.546.546 0 0 1 .233-.095l.231-.029c.2-.029.415-.086.429-.261.4-.03.69-.27 1.07-.39.34-.11.78-.02 1.06-.3.17-.17.24-.37.45-.51l.091-.054.099-.046.19-.07zm0-13.47c.34-.14.71-.1 1.01.07.17.09.32.23.46.36.37.32.83.57 1.29.77.68.3 1.38.54 2.04.87.193-.04.382-.071.573-.093l.287-.027c.25-.02.46-.04.67-.2.24-.2.43-.42.68-.61.28-.21.59-.38.9-.54l.34-.187.16-.093a.937.937 0 0 1 .739-.094l.121.044.1.05.03.01c.19.08.35.22.51.34.12.09.26.16.37.25.05.04.08.04.13.06l.083.052.047.018h.04l.035.013.015.007.045.004.045-.004.33.02c.11.01.21.07.32.1l.057.016.113.054.16.07c.06.03.1.07.15.1.18.1.39.15.53.29.08.08.12.17.19.25.05.05.11.15.17.17l.033.076a.294.294 0 0 0 .027.044c.02.02.04.03.05.03.13.18.2.4.28.6.04.12.09.27.07.41-.03.08-.11.12-.17.18a.816.816 0 0 0-.112.143l-.048.077c-.04.07-.07.13-.15.17-.12.06-.3.06-.45.07-.12.01-.25.01-.37-.01l-.115-.041-.345-.145a1.602 1.602 0 0 1-.11-.054c-.21-.11-.41-.25-.59-.39-.15-.12-.29-.23-.45-.32a2.233 2.233 0 0 0-.394-.195l-.136-.045-.17-.03c-.08-.01-.14 0-.22 0-.19-.01-.36-.13-.51-.26-.08.07-.16.13-.24.19-.38.25-.81.31-1.2.51-.32.16-.46.48-.78.64-.36.19-.78.18-1.14.38-.11.07-.23.14-.35.21a.886.886 0 0 1-.619.112l-.121-.032-.22-.08c-.26-.09-.51-.18-.75-.36-.37-.27-.69-.55-1.1-.77-.48-.27-.98-.49-1.51-.53-.16-.01-.32-.01-.48-.07-.06-.02-.11-.06-.16-.09l-.253.079a1.48 1.48 0 0 0-.127.051c-.18.08-.35.18-.49.31l-.208.194a1.13 1.13 0 0 1-.112.086c-.34.21-.77.21-1.13.37-.29.13-.49.35-.75.52-.14.09-.28.18-.43.26-.231.129-.5.154-.742.096L25 74.37l-.15-.06c-.12-.05-.25-.1-.37-.16-.14-.07-.29-.15-.44-.19-.13-.03-.23-.01-.35-.01-.28 0-.51-.18-.71-.35l-.203-.184-.107-.086c-.07-.05-.18-.14-.27-.15-.06-.01-.12 0-.18-.02-.08-.03-.16-.07-.24-.11-.07-.03-.13-.09-.19-.14l-.112-.11-.048-.06-.05-.07-.06-.04-.184-.175c-.147-.15-.267-.31-.296-.495-.01-.2-.01-.39.08-.57.09-.2.25-.36.44-.49a.986.986 0 0 1 .69-.18c.24.03.48.13.71.22l.62.22c.06.02.1.06.16.09.1.05.2.06.29.1l.315.146.475.232a.69.69 0 0 0 .166.057l.084.005.03-.01c.03-.01.06-.02.08-.04l.137-.105a.546.546 0 0 1 .233-.095l.231-.029c.2-.029.415-.086.429-.261.4-.03.69-.27 1.07-.39.34-.11.78-.02 1.06-.3.17-.17.24-.37.45-.51l.091-.054.099-.046.19-.07zm.54-31.18c.134-.02.269.02.37.11.22.2.45.4.75.45.27.05.5-.02.78.08.31.1.56.32.8.51.39.31.86.57 1.33.79l.767-.41c.512-.27 1.03-.523 1.583-.71a7.3 7.3 0 0 1 1.201-.289l.369-.051.5-.06c.07-.011.14.011.19.06.19.18.37.33.65.4.35.09.7.11 1.05.21.41.11.79.27 1.18.44.21.09.46.19.67.27.107.053.209.116.307.18l.143.1.1-.05.03-.04c.02-.02.03-.02.05-.03.04-.02.06-.06.08-.08.09-.09.18-.18.28-.27.1-.09.23-.13.34-.21l.1-.054.1-.046.2-.08c.07-.04.13-.04.2-.07.22-.09.44-.23.67-.27.087-.013.16-.004.238-.003l.257-.016c.05-.004.1-.011.135-.031l.089.015c.02.003.041.005.061.005.03 0 .05-.01.06-.02.13 0 .255.017.376.041l.354.079c.14.03.3.08.35.19.03.07.01.17.01.25a.76.76 0 0 0 .06.26c.03.07.06.14.06.25a1.153 1.153 0 0 1-.214.32l-.086.1c-.09.11-.19.22-.31.31l-.083.052-.177.088c-.14.07-.26.14-.4.2-.26.11-.53.2-.8.27-.21.05-.42.11-.63.19-.21.08-.43.19-.62.31-.06.04-.11.09-.16.13-.07.06-.11.13-.17.19-.06.06-.13.1-.2.14a.954.954 0 0 1-.707.08l-.113-.04-.09-.04c-.25-.1-.46-.31-.65-.47-.3-.26-.7-.26-1.06-.38-.52-.17-.91-.5-1.39-.71-.19-.09-.38-.11-.57-.14l-.363.102a2.532 2.532 0 0 0-.537.208c-.46.24-.82.52-1.33.66l-.62.17a9.653 9.653 0 0 0-.606.185l-.304.115-.21.09-.06.03a.87.87 0 0 1-.69-.03c-.51-.27-1.04-.48-1.59-.56l-.276-.04a1.492 1.492 0 0 1-.284-.07c-.16-.06-.3-.17-.44-.27a7.24 7.24 0 0 0-1.12-.74c-.08.06-.15.13-.24.19-.4.24-.9.27-1.33.47-.34.16-.59.41-.9.6-.3.19-.62.37-.95.52-.13.06-.27.12-.4.19a.977.977 0 0 1-.653.112l-.127-.032-.37-.12c-.14-.04-.26-.03-.4-.04-.32-.01-.61-.21-.85-.41-.08-.067-.16-.138-.246-.204l-.134-.096c-.08-.06-.22-.16-.32-.18l-.138-.016a.753.753 0 0 1-.072-.014c-.1-.03-.19-.09-.29-.13-.09-.04-.17-.1-.24-.16l-.141-.127a.88.88 0 0 1-.059-.063l-.036-.057-.024-.023-.07-.05c-.27-.22-.53-.46-.6-.73-.03-.21-.04-.42.05-.59.09-.19.26-.35.47-.47.2-.12.47-.18.79-.13.28.04.56.16.84.28.24.11.49.18.74.28.053.02.093.049.135.075l.065.035.34.12c.18.08.37.17.55.26.2-.13.44-.24.65-.34.13-.06.27-.11.38-.2.16-.12.24-.19.44-.24l.372-.078c.2-.05.388-.126.418-.282.46-.06.82-.34 1.27-.49.087-.033.182-.058.28-.076l.82-.134zm51.65-13.19a.952.952 0 0 1 .72.12c.23.15.48.28.65.22.5.39 1.11.57 1.68.9.38.22.71.53 1.1.75.1-.09.21-.17.34-.25.32-.184.666-.291 1.001-.383l.523-.14c.044-.011.086-.024.126-.037l.18-.061.18-.069.22-.12c.18-.09.44-.16.6-.17l.146-.007.424-.003c.12.01.23.02.33.06a.381.381 0 0 1 .19.13l.088.184c.015.03.032.06.052.086.04.06.1.1.13.16s.01.14.01.22c.02.06-.01.14-.03.21l-.029.08-.042.155-.029.075c-.01.02-.01.04-.02.07 0 .01 0 .03-.01.04-.02.01-.04.02-.06.04-.03.03-.02.05-.05.08l-.13.07-.01.02-.08.06-.11.07-.01.04-.08.06-.31.2-.38.28-.31.241a2.437 2.437 0 0 1-.34.219 2.85 2.85 0 0 1-.508.207l-.172.053c-.26.08-.516.156-.77.239l-.55.191c-.23.08-.47.05-.66-.06-.22-.13-.45-.25-.69-.37-.29-.15-.6-.27-.9-.35-.23-.07-.44-.1-.67-.19-.55-.21-1.02-.58-1.53-.86l-.443.284c-.075.047-.15.093-.227.136-.44.24-.89.49-1.35.7-.24.11-.5.21-.72.35-.17.12-.28.24-.42.36-.12.105-.257.188-.402.26l-.148.07-.09.04c-.38.16-.79.13-1.13-.04-.36-.19-.7-.45-1.02-.67-.18-.12-.36-.206-.553-.288l-.197-.082c-.28-.11-.57-.24-.83-.39-.16-.09-.31-.2-.44-.31-.43-.36-.66-.75-.7-1.07-.04-.32.14-.57.44-.73.24-.13.57-.24 1.01-.19.39.04.82.25 1.22.46.112.06.23.11.35.15.22.09.41.18.63.28.127.06.253.098.38.143l.19.077.14.07.247-.111c.124-.059.243-.125.333-.209.12-.11.15-.22.3-.33.32-.22.74-.4 1.11-.57.19-.08.38-.16.54-.27.22-.15.34-.24.62-.32l.245-.063.705-.197zm-51.91 0a.952.952 0 0 1 .72.12c.23.15.48.28.65.22.5.39 1.11.57 1.68.9.38.22.71.53 1.1.75.1-.09.21-.17.34-.25.32-.184.666-.291 1.001-.383l.523-.14c.044-.011.086-.024.126-.037l.18-.061.18-.069.22-.12c.18-.09.44-.16.6-.17l.146-.007.424-.003c.12.01.23.02.33.06a.381.381 0 0 1 .19.13l.088.184c.015.03.032.06.052.086.04.06.1.1.13.16s.02.14.01.22c.02.06-.01.14-.03.21l-.029.08-.042.155-.029.075c-.01.02-.01.04-.02.07 0 .01 0 .03-.01.04a.21.21 0 0 0-.06.04c-.03.03-.02.05-.05.08l-.13.07-.01.02-.08.06-.11.07-.01.04-.08.06-.31.2-.38.28-.31.241a2.437 2.437 0 0 1-.34.219 2.85 2.85 0 0 1-.508.207l-.172.053c-.26.08-.516.156-.77.239l-.55.191c-.23.08-.47.05-.66-.06-.22-.13-.45-.25-.69-.37-.29-.15-.6-.27-.9-.35-.23-.07-.44-.1-.67-.19-.55-.21-1.02-.58-1.53-.86l-.443.284c-.075.047-.15.093-.227.136-.44.24-.89.49-1.35.7-.24.11-.5.21-.72.35-.17.12-.28.24-.42.36-.12.105-.257.188-.402.26l-.148.07-.09.04c-.38.16-.79.13-1.13-.04-.36-.19-.7-.45-1.02-.67-.18-.12-.36-.206-.553-.288l-.197-.082c-.28-.11-.57-.24-.83-.39-.16-.09-.31-.2-.44-.31-.43-.36-.66-.75-.7-1.07-.04-.32.14-.57.44-.73.24-.13.57-.24 1.01-.19.39.04.82.25 1.22.46.112.06.23.11.35.15.22.09.41.18.63.28.127.06.253.098.38.143l.19.077.14.07.247-.111c.124-.059.243-.125.333-.209.12-.11.15-.22.3-.33.32-.22.74-.4 1.11-.57.19-.08.38-.16.54-.27.22-.15.34-.24.62-.32l.245-.063.705-.197zm52.18-13.06c.134-.02.269.02.37.11.22.2.45.4.75.45.27.05.5-.02.78.08.31.1.56.32.8.51.39.31.86.57 1.33.79l.767-.41c.512-.27 1.03-.523 1.583-.71a7.3 7.3 0 0 1 1.201-.289l.369-.051.5-.06c.07-.011.14.011.19.06.19.18.37.33.65.4.35.09.7.11 1.05.21.41.11.79.27 1.18.44.21.09.46.19.67.27.107.053.209.116.307.18l.143.1.1-.05.03-.04c.02-.02.03-.02.05-.03.04-.02.06-.06.08-.08.09-.09.18-.18.28-.27.1-.09.23-.13.34-.21l.1-.054.1-.046.19-.1c.07-.04.13-.04.2-.07.22-.09.44-.23.67-.27.087-.013.16-.004.238-.003l.257-.016c.05-.004.1-.011.135-.031l.089.015c.02.003.041.005.061.005.03 0 .05-.01.06-.02.13 0 .255.018.376.041l.354.079c.14.03.3.08.35.19.03.07.01.17.01.25a.76.76 0 0 0 .03.176l.069.197a.66.66 0 0 1 .031.157 1.153 1.153 0 0 1-.214.32l-.086.1c-.09.11-.19.22-.31.31l-.083.052-.177.088c-.14.07-.26.14-.4.2-.26.11-.53.2-.8.27-.21.05-.42.11-.63.19-.21.08-.43.19-.62.31-.06.04-.11.09-.16.13-.07.06-.11.13-.17.19-.06.06-.13.1-.2.14a.954.954 0 0 1-.707.08l-.113-.04-.09-.04c-.25-.1-.46-.31-.65-.47-.3-.26-.7-.26-1.06-.38-.52-.17-.91-.5-1.39-.71-.19-.09-.38-.11-.57-.14l-.363.102a2.532 2.532 0 0 0-.537.208c-.46.24-.82.52-1.33.66l-.62.17a9.653 9.653 0 0 0-.606.185l-.304.115-.21.09-.06.03a.87.87 0 0 1-.69-.03c-.51-.27-1.04-.48-1.59-.56l-.276-.04a1.492 1.492 0 0 1-.284-.07c-.16-.06-.3-.17-.44-.27a7.24 7.24 0 0 0-1.12-.74c-.08.06-.15.13-.24.19-.4.24-.9.27-1.33.47-.34.16-.59.41-.9.6-.3.19-.62.37-.95.52-.13.06-.27.12-.4.19a.977.977 0 0 1-.653.112l-.127-.032-.37-.12c-.14-.04-.26-.03-.4-.04-.32-.01-.61-.21-.85-.41-.08-.067-.16-.138-.246-.204l-.134-.096c-.08-.06-.22-.16-.32-.18l-.138-.016a.753.753 0 0 1-.072-.014c-.1-.03-.19-.09-.29-.13-.09-.04-.17-.1-.24-.16l-.141-.127a.88.88 0 0 1-.059-.063l-.036-.057-.024-.023-.07-.05c-.27-.22-.53-.46-.6-.73-.03-.21-.04-.42.05-.59.09-.19.26-.35.47-.47.2-.12.47-.18.79-.13.28.04.56.16.84.28.24.11.49.18.74.28.053.02.093.049.135.075l.065.035.34.12c.18.08.37.17.55.26.2-.13.44-.24.65-.34.13-.06.27-.11.38-.2.16-.12.24-.19.44-.24l.372-.078c.2-.05.388-.126.418-.282.46-.06.82-.34 1.27-.49.087-.033.182-.058.28-.076l.82-.134zm-51.91 0c.134-.02.269.02.37.11.22.2.45.4.75.45.27.05.5-.02.78.08.31.1.56.32.8.51.39.31.86.57 1.33.79l.767-.41c.512-.27 1.03-.523 1.583-.71a7.3 7.3 0 0 1 1.201-.289l.369-.051.5-.06c.07-.011.14.011.19.06.19.18.37.33.65.4.35.09.7.11 1.05.21.41.11.79.27 1.18.44.21.09.46.19.67.27.107.053.209.116.307.18l.143.1.1-.05.03-.04c.02-.02.03-.02.05-.03.04-.02.06-.06.08-.08.09-.09.18-.18.28-.27.1-.09.23-.13.34-.21l.1-.054.1-.046.19-.1c.07-.04.13-.04.2-.07.22-.09.44-.23.67-.27.087-.013.16-.004.238-.003l.257-.016c.05-.004.1-.011.135-.031l.089.015c.02.003.041.005.061.005.03 0 .05-.01.06-.02.13 0 .255.018.376.041l.354.079c.14.03.3.08.35.19.03.07.01.17.01.25a.76.76 0 0 0 .06.26c.04.085.064.176.07.27a1.153 1.153 0 0 1-.214.32l-.086.1c-.09.11-.19.22-.31.31l-.083.052-.177.088c-.14.07-.26.14-.4.2-.26.11-.53.2-.8.27-.21.05-.42.11-.63.19-.21.08-.43.19-.62.31-.06.04-.11.09-.16.13-.07.06-.11.13-.17.19-.06.06-.13.1-.2.14a.954.954 0 0 1-.707.08l-.113-.04-.09-.04c-.25-.1-.46-.31-.65-.47-.3-.26-.7-.26-1.06-.38-.52-.17-.91-.5-1.39-.71-.19-.09-.38-.11-.57-.14l-.363.102a2.532 2.532 0 0 0-.537.208c-.46.24-.82.52-1.33.66l-.62.17a9.653 9.653 0 0 0-.606.185l-.304.115-.21.09-.06.03a.87.87 0 0 1-.69-.03c-.51-.27-1.04-.48-1.59-.56l-.276-.04a1.492 1.492 0 0 1-.284-.07c-.16-.06-.3-.17-.44-.27a7.24 7.24 0 0 0-1.12-.74c-.08.06-.15.13-.24.19-.4.24-.9.27-1.33.47-.34.16-.59.41-.9.6-.3.19-.62.37-.95.52-.13.06-.27.12-.4.19a.977.977 0 0 1-.653.112l-.127-.032-.37-.12c-.14-.04-.26-.03-.4-.04-.32-.01-.61-.21-.85-.41-.08-.067-.16-.138-.246-.204l-.134-.096c-.08-.06-.22-.16-.32-.18l-.138-.016a.753.753 0 0 1-.072-.014c-.1-.03-.19-.09-.29-.13-.09-.04-.17-.1-.24-.16l-.141-.127a.88.88 0 0 1-.059-.063l-.036-.057-.024-.023-.07-.05c-.27-.22-.53-.46-.6-.73-.03-.21-.04-.42.05-.59.09-.19.26-.35.47-.47.2-.12.47-.18.79-.13.28.04.56.16.84.28.24.11.49.18.74.28.053.02.093.049.135.075l.065.035.34.12c.18.08.37.17.55.26.2-.13.44-.24.65-.34.13-.06.27-.11.38-.2.16-.12.24-.19.44-.24l.372-.078c.2-.05.388-.126.418-.282.46-.06.82-.34 1.27-.49.087-.033.182-.058.28-.076l.82-.134z" fill="#242433"></path><path d="M82.15 47.13c-.04-.08-.08-.16-.1-.25-.01-.09.01-.19-.04-.26-.07-.1-.26-.1-.42-.09-.27.02-.55.02-.85.1-.01.02-.03.03-.07.04-.06.02-.15.02-.18.03-.07.06-.23.09-.31.13-.14.06-.27.06-.41.12-.26.11-.49.33-.73.49-.07.05-.15.07-.22.13l-.21.16a.87.87 0 0 0-.21.17c-.12.11-.26.2-.36.32-.1.13-.19.24-.29.36-.02.03-.04.07-.08.1-.02.02-.03.03-.06.05-.01.02-.02.04-.03.05-.05.05-.12.08-.17.12-.05.04-.08.07-.13.1-.26-.06-.53-.13-.81-.15l-.88-.03c-.52-.03-1.02-.05-1.53-.02-.44.03-.85.12-1.29.15-.35.03-.62-.06-.92-.16a.195.195 0 0 0-.15 0l-.39.15-.08.03c-.56.21-1.12.47-1.67.8-.98.59-1.84 1.31-2.72 2.02-.71-.05-1.44-.14-2.1-.33-.36-.1-.73-.23-1.13-.22-.36 0-.6.14-.92.19-.36.06-.71-.06-1.05-.17-.1-.03-.2-.03-.31.01l-.52.22c-.17.07-.33.14-.49.23-.49.29-.87.69-1.39.9-.02.29-.58.48-.86.61-.23.11-.31.21-.47.38-.12.12-.27.22-.41.32-.28.21-.61.42-.85.68-.01.01-.02.02-.02.04h-.01l-1.01-.09c-.15-.01-.29.01-.44 0-.09-.01-.18-.03-.27-.04-.31 0-.66-.01-.96-.01-.36-.02-.73-.04-1.07.01-.38.06-.66.21-.84.39-.18.18-.31.39-.33.6-.02.19.08.38.2.57.19.23.6.37 1 .49.04.01.06.01.1.02.04.01.07.04.11.06.08.04.21.08.31.11s.22.06.34.07c.13.01.26.03.39.03.1 0 .16-.03.25-.04.12-.02.33.03.45.06.19.04.38.1.56.16.36.1.77.2 1.14.11.16-.04.29-.09.47-.1h.36c.21 0 .42-.08.6-.22.14-.12.29-.22.44-.32.36-.26.7-.54 1.02-.83.33-.29.59-.63.96-.9.47-.33 1.03-.52 1.47-.9.14-.12.25-.26.37-.4h.15c.59.06 1.14.2 1.69.34.2.05.41.11.62.11.24.01.47-.05.69-.08.66-.11 1.36-.08 2.05 0 .19.02.38-.02.55-.14l.05-.03.22-.15c.56-.37 1.11-.64 1.69-.95.56-.3.95-.7 1.44-1.09.35-.28.75-.46 1.12-.68.32-.04.63-.13.99-.11.64.04 1.23.22 1.88.21.46-.01.91-.14 1.37.01.28.09.62.21.95.23h.08c.22.01.45-.06.64-.21.08-.06.15-.13.21-.21.06-.08.1-.16.18-.25.05-.06.11-.12.17-.18.2-.18.45-.36.67-.51.23-.15.46-.27.69-.39.3-.16.59-.33.88-.52.15-.1.29-.21.43-.33.09-.07.2-.14.28-.23.12-.13.22-.28.31-.41.11-.17.25-.37.29-.53.01-.12-.04-.18-.07-.25zm-25.21 7.51h-.06l.18-.05c-.04.02-.07.04-.12.05z" fill="#FFF"></path><path d="M94.29 63.09s.02-.19-.01-.47c-.04-.28-.08-.66-.45-1.15-.05-.06-.1-.12-.16-.17l-.06-.06-.1-.09-.17-.17-.2-.2c-.53-.58-1.08-1.15-1.66-1.69-.25-.23-.45-.36-.7-.54-.28-.21-.5-.45-.72-.73-.53-.66-1.09-1.47-1.81-1.95-.22-.14-.41-.25-.65-.44-.29-.24-.56-.53-.83-.8-.52-.52-1.06-1.02-1.6-1.5l-.41-.35-.21-.17-.12-.1a1.358 1.358 0 0 0-1.48-.28c-.34.15-.52.37-.64.54-.24.38-.31.72-.32 1.07-.01 1.01-.19 1.92-.15 2.89.02.35.08.66.12.99.06.45.08.92.07 1.4-.01 1-.1 1.92-.2 2.86-.04.34-.07.69-.06 1.05.01.41.09.77.14 1.13.19 1.21.2 2.55.17 3.86-.01.56-.05 1.09-.09 1.62l-.02.2c-.01.12 0 .25.02.37.04.25.11.52.29.8.1.13.18.27.44.44a1.413 1.413 0 0 0 1.56-.03c.1-.07.19-.15.26-.22l.1-.1c.48-.47.86-.94 1.25-1.42.03.07.04.13.07.2.34.79.8 1.31 1.14 2.1.21.49.38.98.56 1.47l.03.09c.02.06.05.13.09.2.08.14.17.29.33.42.15.14.35.27.61.33.25.07.61.04.82-.05.11-.04.21-.1.3-.16.04-.03.09-.06.13-.1l.04-.03.15-.14c.09-.09.19-.18.29-.28.54-.54.98-1.16 1.62-1.6l.14-.09c.07-.05.04-.01.19-.15.22-.22.32-.42.4-.61.194-.47.201-.995.02-1.47l-.06-.15a6.4 6.4 0 0 0-.13-.27c-.09-.18-.2-.36-.33-.54-.24-.33-.49-.57-.72-.96-.32-.52-.18-.83-.36-1.42-.1-.33-.18-.61-.25-.86.22-.09.45-.18.73-.3.11-.05.59-.21 1.07-.37l.36-.12c.41-.17.7-.51.83-.72.29-.52.31-.87.33-1.01zm-4.8 8.62l-.3.28c-.29-.52-.59-1.01-.87-1.54-.3-.55-.41-1.04-.54-1.59-.14-.6-.3-1.2-.48-1.83l-.47-1.56-1.35 1.27c-.28.26-.56.54-.84.83-.18.18-.35.38-.52.56-.01-.42-.02-.84-.02-1.26-.01-1.21.01-2.48.15-3.63.07-.61.16-1.25.12-1.91-.03-.6-.19-.97-.27-1.5-.13-.9.14-1.78.18-2.65.03-.46.02-.9.02-1.35.33.34.67.68 1.02.95.21.17.34.17.54.3.27.17.53.46.77.71l1.2 1.2c.22.21.43.37.65.59.25.25.46.46.72.69.43.38.78.79 1.1 1.22.2.27.42.53.64.79.1.12.22.23.35.33-.34.14-.68.28-1.02.41-.41.17-.81.36-1.19.57l-1.31.7.58 1.1 1.03 1.94c.29.56.57 1.09.83 1.64.13.27.25.55.37.84.05.14.11.29.17.44.02.06.05.13.07.2l-.01.01c-.1.08-.19.16-.29.25-.31.32-.68.67-1.03 1z" fill="#242433"></path><path d="M90.32 61.49c-.32-.43-.67-.84-1.1-1.22-.26-.23-.48-.45-.72-.69-.21-.22-.43-.38-.65-.59l-1.2-1.2c-.24-.25-.51-.54-.77-.71-.2-.13-.34-.14-.54-.3-.34-.27-.69-.62-1.02-.95 0 .44.01.89-.02 1.35-.05.87-.32 1.75-.18 2.65.08.53.23.9.27 1.5.04.66-.05 1.3-.12 1.91-.14 1.15-.16 2.42-.15 3.63.01.42.02.84.02 1.26.17-.19.34-.38.52-.56.28-.29.56-.56.84-.83l1.35-1.27.47 1.56c.19.62.34 1.23.48 1.83.13.55.25 1.04.54 1.59.29.53.59 1.02.87 1.54l.3-.28 1.06-1c.1-.08.19-.16.29-.25l.01-.01c-.02-.07-.05-.13-.07-.2-.06-.15-.11-.29-.17-.44-.12-.29-.24-.56-.37-.84-.26-.55-.54-1.08-.83-1.64-.33-.62-.7-1.33-1.03-1.94l-.58-1.1 1.31-.7c.38-.2.78-.4 1.19-.57.34-.14.68-.27 1.02-.41-.13-.11-.26-.21-.35-.33-.25-.26-.47-.52-.67-.79z" fill="#FFF"></path></g></svg>