<svg width="17" height="17" viewBox="0 0 17 17" fill="none" xmlns="http://www.w3.org/2000/svg">
<g opacity="0.542318">
<path d="M15.7857 7.28571H9.71429V1.21429C9.71429 0.544 9.17029 0 8.5 0C7.82971 0 7.28571 0.544 7.28571 1.21429V7.28571H1.21429C0.544 7.28571 0 7.82971 0 8.5C0 9.17029 0.544 9.71429 1.21429 9.71429H7.28571V15.7857C7.28571 16.456 7.82971 17 8.5 17C9.17029 17 9.71429 16.456 9.71429 15.7857V9.71429H15.7857C16.456 9.71429 17 9.17029 17 8.5C17 7.82971 16.456 7.28571 15.7857 7.28571Z" fill="#4A4A4A"/>
</g>
</svg>
