<svg width="25" height="25" viewBox="0 0 25 25" fill="none" xmlns="http://www.w3.org/2000/svg">
<path fill-rule="evenodd" clip-rule="evenodd" d="M13.9136 11.5122V7.52653C14.5449 7.69184 15.1927 8.00408 15.8405 8.4449C16.0233 8.57347 16.2226 8.62857 16.4053 8.62857C16.9867 8.62857 17.4518 8.13265 17.4518 7.4898C17.4518 6.99388 17.186 6.68163 16.887 6.49796C16.0233 5.89184 15.093 5.50612 13.9801 5.35918V4.9C13.9801 4.40408 13.6312 4 13.1661 4C12.7176 4 12.3355 4.38571 12.3355 4.9V5.34082C9.99336 5.54286 8.39867 7.08571 8.39867 9.30816C8.39867 11.6592 9.67774 12.798 12.4186 13.5878V17.6837C11.3887 17.4816 10.5249 17.0041 9.64452 16.2878C9.47841 16.1408 9.24585 16.0673 9.0299 16.0673C8.4485 16.0673 8 16.5633 8 17.2061C8 17.6469 8.18272 17.9776 8.49834 18.198C9.64452 19.098 10.9402 19.649 12.3522 19.8143V21.1C12.3522 21.5959 12.7342 22 13.1827 22C13.6312 22 13.9967 21.6143 13.9967 21.1V19.851C16.3721 19.5939 18 18.0878 18 15.8102C17.9834 13.5694 16.7708 12.302 13.9136 11.5122ZM12.4352 11.0714C10.99 10.5571 10.6412 10.0061 10.6412 9.14286C10.6412 8.22449 11.2392 7.52653 12.4352 7.39796V11.0714ZM13.9136 13.9551V17.7388C15.1262 17.5918 15.7741 16.9306 15.7741 15.9204C15.7741 15.0204 15.3588 14.451 13.9136 13.9551Z" fill="#333333"/>
<path fill-rule="evenodd" clip-rule="evenodd" d="M7.3558 1.10104C8.97602 0.372409 10.7097 0 12.4919 0C19.3778 0 25 5.60233 25 12.5C25 19.3977 19.3778 25 12.4919 25C9.23526 25 6.14064 23.737 3.79132 21.4702C1.4582 19.2034 0.0972132 16.1593 0 12.9048V12.5C0 7.59391 2.88399 3.125 7.3558 1.10104ZM2.26831 12.8238C2.44653 18.3776 6.93454 22.717 12.4919 22.717C18.1303 22.717 22.7479 18.1509 22.7479 12.5C22.7479 6.84909 18.1465 2.26684 12.5081 2.26684C11.0337 2.26684 9.62411 2.57448 8.29553 3.17357C4.63383 4.82513 2.26831 8.48446 2.26831 12.5V12.8238Z" fill="#333333"/>
</svg>
