<svg width="26" height="25" viewBox="0 0 26 25" fill="none" xmlns="http://www.w3.org/2000/svg">
<path d="M21.5 11.5C22.0523 11.5 22.5 11.0523 22.5 10.5C22.5 9.94772 22.0523 9.5 21.5 9.5C20.9477 9.5 20.5 9.94772 20.5 10.5C20.5 11.0523 20.9477 11.5 21.5 11.5Z" fill="#4A4A4A"/>
<path d="M20 7.5V0.5H5V7.5" stroke="#4A4A4A" stroke-width="2" stroke-linecap="round"/>
<path fill-rule="evenodd" clip-rule="evenodd" d="M20 14.5V24.5H5V14.5H20Z" stroke="#4A4A4A" stroke-width="2" stroke-linecap="round"/>
<path d="M5 20H1.5C0.948 20 0.5 19.552 0.5 19V8.5C0.5 7.948 0.948 7.5 1.5 7.5H23.5C24.052 7.5 24.5 7.948 24.5 8.5V19C24.5 19.552 24.052 20 23.5 20H20" stroke="#4A4A4A" stroke-width="2" stroke-linecap="round"/>
<path d="M17.5 17.5H7.5" stroke="#4A4A4A" stroke-width="2" stroke-linecap="round"/>
<path d="M15.5 19.5H7.5" stroke="#4A4A4A" stroke-width="2" stroke-linecap="round"/>
<path d="M17.5 21.5H7.5" stroke="#4A4A4A" stroke-width="2" stroke-linecap="round"/>
</svg>
