<?xml version="1.0" encoding="utf-8"?>
<!-- Generator: Adobe Illustrator 24.2.0, SVG Export Plug-In . SVG Version: 6.00 Build 0)  -->
<svg version="1.1" id="Layer_1" xmlns="http://www.w3.org/2000/svg" xmlns:xlink="http://www.w3.org/1999/xlink" x="0px" y="0px"
	 viewBox="0 0 100 100" style="enable-background:new 0 0 100 100;" xml:space="preserve">
<style type="text/css">
	.st0{fill:#FFFFFF;}
	.st1{fill:#DDF4DF;}
	.st2{fill:#00B61B;}
	.st3{fill:none;stroke:#7CBE8A;stroke-width:2;stroke-miterlimit:10;}
</style>
<rect x="-15.5" y="3.1" class="st0" width="6.1" height="6.1"/>
<g>
	<path class="st1" d="M94.8,89.4H5.2c-2.1,0-3.8-1.7-3.8-3.8V14.4c0-2.1,1.7-3.8,3.8-3.8h89.5c2.1,0,3.8,1.7,3.8,3.8v71.3
		C98.6,87.6,96.9,89.4,94.8,89.4z"/>
	<g>
		<g>
			<rect x="55.4" y="75.1" class="st2" width="34.2" height="8.5"/>
			<rect x="59.6" y="60.2" class="st2" width="29.9" height="8.5"/>
			<rect x="45.8" y="45.3" class="st2" width="43.8" height="8.5"/>
		</g>
		<g>
			<path class="st3" d="M27.4,20.8h-15c-1,0-1.9,0.8-1.9,1.9v7.1c0,1,0.8,1.9,1.9,1.9h13.2c1,0,1.9,0.8,1.9,1.9v6.9
				c0,1-0.8,1.9-1.9,1.9h-15"/>
			<line class="st3" x1="19" y1="17.1" x2="19" y2="46"/>
		</g>
	</g>
</g>
</svg>
