<svg width="18" height="21" viewBox="0 0 18 21" fill="none" xmlns="http://www.w3.org/2000/svg">
<path d="M15.97 8.90909C15.2794 8.90909 14.6751 9.51363 14.6751 10.2045V10.4636C14.6751 13.5727 12.4307 16.25 9.40933 16.6818C5.78372 17.1136 2.58972 14.2636 2.58972 10.6364V10.2045C2.58972 9.51363 1.98545 8.90909 1.29486 8.90909C0.604269 8.90909 0 9.51363 0 10.2045V10.6364C0 14.7818 2.58972 18.3227 6.90593 19.1V19.2727C6.90593 20.2227 7.68285 21 8.63241 21C9.58198 21 10.3589 20.2227 10.3589 19.2727V19.1C14.6751 18.2364 17.2648 14.5227 17.2648 10.3773V10.2045C17.2648 9.51363 16.6606 8.90909 15.97 8.90909Z" fill="#0040DC"/>
<path d="M8.63237 14C11.0494 14 12.9486 12.075 12.9486 9.625V4.375C12.9486 1.925 11.0494 0 8.63237 0C6.21529 0 4.31616 1.925 4.31616 4.375V9.625C4.31616 12.075 6.21529 14 8.63237 14Z" fill="#0040DC"/>
</svg>
