<svg width="657" height="431" viewBox="0 0 657 431" fill="none" xmlns="http://www.w3.org/2000/svg">
<g clip-path="url(#clip0)">
<path d="M607.351 294.011H427.092V377.144H607.351V294.011Z" fill="#F5F5F5"/>
<path d="M603.06 373.226H431.221V298.385H603.06V373.226ZM432.339 372.105H601.939V299.505H432.339V372.105Z" fill="#E0E0E0"/>
<path d="M651.388 294.011H607.351V377.144H651.388V294.011Z" fill="#E0E0E0"/>
<path d="M431.778 321.546H602.499C602.559 321.546 602.616 321.522 602.659 321.48C602.701 321.437 602.725 321.38 602.725 321.32C602.725 321.26 602.701 321.203 602.659 321.16C602.616 321.118 602.559 321.094 602.499 321.094H431.778C431.718 321.094 431.661 321.118 431.618 321.16C431.576 321.203 431.552 321.26 431.552 321.32C431.552 321.38 431.576 321.437 431.618 321.48C431.661 321.522 431.718 321.546 431.778 321.546Z" fill="#E0E0E0"/>
<path d="M517.696 321.32C518.171 313.801 518.19 306.26 517.755 298.738C517.755 298.677 517.731 298.618 517.688 298.575C517.645 298.532 517.586 298.508 517.525 298.508C517.464 298.508 517.406 298.532 517.362 298.575C517.319 298.618 517.295 298.677 517.295 298.738C516.859 306.26 516.879 313.801 517.353 321.32C517.356 321.363 517.376 321.404 517.408 321.433C517.439 321.463 517.481 321.479 517.525 321.479C517.568 321.479 517.61 321.463 517.641 321.433C517.673 321.404 517.693 321.363 517.696 321.32Z" fill="#E0E0E0"/>
<path d="M563.649 310.029C563.649 310.489 563.513 310.939 563.257 311.321C563.001 311.704 562.638 312.002 562.213 312.178C561.788 312.354 561.32 312.4 560.869 312.31C560.418 312.221 560.004 311.999 559.678 311.674C559.353 311.348 559.132 310.934 559.042 310.483C558.952 310.032 558.998 309.564 559.174 309.139C559.35 308.714 559.648 308.351 560.031 308.095C560.413 307.839 560.863 307.703 561.323 307.703C561.94 307.703 562.532 307.948 562.968 308.384C563.404 308.82 563.649 309.412 563.649 310.029Z" fill="#E0E0E0"/>
<path d="M474.054 310.029C474.054 310.489 473.918 310.939 473.662 311.321C473.407 311.704 473.043 312.002 472.618 312.178C472.193 312.354 471.726 312.4 471.274 312.31C470.823 312.221 470.409 311.999 470.083 311.674C469.758 311.348 469.537 310.934 469.447 310.483C469.357 310.032 469.403 309.564 469.579 309.139C469.755 308.714 470.053 308.351 470.436 308.095C470.818 307.839 471.268 307.703 471.728 307.703C472.345 307.703 472.937 307.948 473.373 308.384C473.809 308.82 474.054 309.412 474.054 310.029Z" fill="#E0E0E0"/>
<path d="M519.464 335.805C519.464 336.265 519.328 336.715 519.072 337.098C518.817 337.48 518.454 337.779 518.029 337.955C517.604 338.131 517.136 338.177 516.684 338.087C516.233 337.998 515.819 337.776 515.493 337.451C515.168 337.125 514.946 336.711 514.857 336.26C514.767 335.808 514.813 335.34 514.989 334.915C515.165 334.49 515.464 334.127 515.846 333.872C516.229 333.616 516.679 333.48 517.139 333.48C517.756 333.48 518.347 333.725 518.783 334.161C519.219 334.597 519.464 335.188 519.464 335.805Z" fill="#E0E0E0"/>
<path d="M448.643 377.144L439.362 429.337H444.582L461.693 377.144H448.643Z" fill="#E0E0E0"/>
<path d="M594.597 377.144L602.358 429.427H597.138L581.546 377.144H594.597Z" fill="#E0E0E0"/>
<path d="M629.444 377.144L638.237 429.427H633.021L616.394 377.144H629.444Z" fill="#E0E0E0"/>
<path d="M519.308 359.333C519.308 359.793 519.172 360.243 518.916 360.625C518.66 361.008 518.297 361.306 517.872 361.482C517.447 361.658 516.979 361.704 516.528 361.614C516.077 361.524 515.662 361.303 515.337 360.977C515.012 360.652 514.79 360.237 514.701 359.786C514.611 359.335 514.657 358.867 514.833 358.442C515.01 358.017 515.308 357.654 515.69 357.399C516.073 357.143 516.523 357.007 516.983 357.007C517.288 357.007 517.591 357.067 517.873 357.184C518.155 357.301 518.411 357.472 518.627 357.688C518.843 357.904 519.015 358.161 519.131 358.443C519.248 358.725 519.308 359.028 519.308 359.333Z" fill="#E0E0E0"/>
<path d="M431.778 347.294H602.499C602.557 347.29 602.61 347.265 602.65 347.223C602.689 347.181 602.711 347.125 602.711 347.067C602.711 347.01 602.689 346.954 602.65 346.912C602.61 346.87 602.557 346.845 602.499 346.841H431.778C431.721 346.845 431.667 346.87 431.627 346.912C431.588 346.954 431.566 347.01 431.566 347.067C431.566 347.125 431.588 347.181 431.627 347.223C431.667 347.265 431.721 347.29 431.778 347.294Z" fill="#E0E0E0"/>
<path d="M552.946 265.797L552.888 254.702L498.387 254.989L498.445 266.084L552.946 265.797Z" fill="#E0E0E0"/>
<path d="M559.494 293.78L559.403 276.54L498.658 276.861L498.749 294.101L559.494 293.78Z" fill="#F5F5F5"/>
<path d="M547.791 293.66C547.496 290.797 547.398 287.917 547.496 285.04C547.398 282.163 547.496 279.283 547.791 276.42C548.087 279.283 548.187 282.163 548.091 285.04C548.187 287.917 548.087 290.797 547.791 293.66Z" fill="#E0E0E0"/>
<path d="M550.343 293.66C550.048 290.797 549.95 287.917 550.048 285.04C549.95 282.163 550.048 279.283 550.343 276.42C550.639 279.283 550.739 282.163 550.643 285.04C550.739 287.917 550.639 290.797 550.343 293.66Z" fill="#E0E0E0"/>
<path d="M507.888 293.66C507.592 290.797 507.492 287.917 507.588 285.04C507.492 282.163 507.592 279.283 507.888 276.42C508.182 279.283 508.281 282.163 508.183 285.04C508.281 287.917 508.182 290.797 507.888 293.66Z" fill="#E0E0E0"/>
<path d="M510.44 293.66C510.144 290.797 510.044 287.917 510.14 285.04C510.044 282.163 510.144 279.283 510.44 276.42C510.735 279.283 510.833 282.163 510.735 285.04C510.833 287.917 510.734 290.797 510.44 293.66Z" fill="#E0E0E0"/>
<path d="M516.008 285.317C516.008 285.152 522.136 285.017 529.695 285.017C537.254 285.017 543.383 285.15 543.383 285.317C543.383 285.484 537.256 285.617 529.695 285.617C522.134 285.617 516.008 285.482 516.008 285.317Z" fill="#E0E0E0"/>
<path d="M582.306 276.441L582.247 265.346L507.288 265.742L507.347 276.837L582.306 276.441Z" fill="#EBEBEB"/>
<path d="M571.573 275.065C570.861 275.074 570.163 274.871 569.567 274.483C568.97 274.094 568.503 273.536 568.224 272.881C567.946 272.226 567.868 271.503 568.002 270.804C568.135 270.105 568.473 269.461 568.973 268.955C569.473 268.448 570.113 268.102 570.81 267.96C571.508 267.817 572.232 267.886 572.89 268.156C573.549 268.427 574.112 268.887 574.508 269.478C574.905 270.069 575.116 270.765 575.116 271.477C575.122 272.423 574.752 273.332 574.087 274.005C573.423 274.678 572.519 275.059 571.573 275.065Z" fill="#E0E0E0"/>
<path d="M561.831 272.586V270.368H511.654V272.586H561.831Z" fill="#E0E0E0"/>
<path d="M657.001 0H649.974V151.077H657.001V0Z" fill="#E0E0E0"/>
<path d="M648.805 1.16901H548.146C548.09 1.16901 548.045 1.21423 548.045 1.27001V151.187C548.045 151.243 548.09 151.288 548.146 151.288H648.805C648.861 151.288 648.906 151.243 648.906 151.187V1.27001C648.906 1.21423 648.861 1.16901 648.805 1.16901Z" fill="#F5F5F5"/>
<path d="M649.974 152.456H546.974C546.948 152.456 546.922 152.445 546.903 152.427C546.885 152.408 546.874 152.383 546.874 152.356V0.102001C546.874 0.088869 546.877 0.0758647 546.882 0.0637321C546.887 0.0515996 546.894 0.040574 546.903 0.0312881C546.913 0.0220023 546.924 0.0146385 546.936 0.00961304C546.948 0.00458757 546.961 0.0019989 546.974 0.0019989H649.974C649.987 0.0019989 650 0.00458757 650.012 0.00961304C650.024 0.0146385 650.035 0.0220023 650.045 0.0312881C650.054 0.040574 650.061 0.0515996 650.066 0.0637321C650.071 0.0758647 650.074 0.088869 650.074 0.102001V152.355C650.074 152.368 650.072 152.381 650.067 152.394C650.062 152.406 650.054 152.417 650.045 152.426C650.036 152.436 650.025 152.443 650.013 152.448C650 152.453 649.987 152.456 649.974 152.456ZM549.315 150.119H647.636C647.663 150.119 647.688 150.108 647.707 150.09C647.725 150.071 647.736 150.046 647.736 150.019V2.439C647.736 2.41248 647.725 2.38704 647.707 2.36829C647.688 2.34954 647.663 2.339 647.636 2.339H549.315C549.289 2.339 549.263 2.34954 549.244 2.36829C549.226 2.38704 549.215 2.41248 549.215 2.439V150.018C549.215 150.031 549.217 150.044 549.222 150.057C549.227 150.069 549.235 150.08 549.244 150.089C549.253 150.099 549.264 150.106 549.277 150.111C549.289 150.116 549.302 150.119 549.315 150.119Z" fill="#EBEBEB"/>
<path d="M638.828 10.43H558.302C558.246 10.43 558.201 10.4752 558.201 10.531V141.826C558.201 141.882 558.246 141.927 558.302 141.927H638.828C638.884 141.927 638.929 141.882 638.929 141.826V10.531C638.929 10.4752 638.884 10.43 638.828 10.43Z" fill="white"/>
<path d="M140.254 405.344V430.027H216.162V405.344H140.254Z" fill="#F5F5F5"/>
<path d="M137.07 398.443V405.343H218.821V398.443H137.07Z" fill="#E0E0E0"/>
<path d="M177.943 430.027H216.162V405.344H218.821V398.444H176.35V404.706L177.943 430.027Z" fill="#E0E0E0"/>
<path d="M166.265 409.324H150.871V413.04H166.265V409.324Z" fill="#E0E0E0"/>
<path d="M168.657 417.685H148.89V425.531H168.657V417.685Z" fill="white"/>
<path d="M157.921 373.794V398.477H233.829V373.794H157.921Z" fill="#F5F5F5"/>
<path d="M154.734 366.894V373.794H236.481V366.894H154.734Z" fill="#E0E0E0"/>
<path d="M195.607 398.476H233.826V373.794H236.48V366.894H194.015V373.156L195.607 398.476Z" fill="#E0E0E0"/>
<path d="M183.929 377.773H168.535V381.489H183.929V377.773Z" fill="#E0E0E0"/>
<path d="M186.321 386.133H166.554V393.979H186.321V386.133Z" fill="white"/>
<path d="M3.18506 404.45V429.133H79.0931V404.45H3.18506Z" fill="#F5F5F5"/>
<path d="M0 397.549V404.449H81.747V397.549H0Z" fill="#E0E0E0"/>
<path d="M40.873 429.133H79.092V404.45H81.746V397.55H39.281V403.812L40.873 429.133Z" fill="#E0E0E0"/>
<path d="M29.195 408.431H13.801V412.147H29.195V408.431Z" fill="#E0E0E0"/>
<path d="M31.5869 416.791H11.8199V424.637H31.5869V416.791Z" fill="white"/>
<path d="M625.482 429.22C625.482 429.364 492.204 429.481 327.835 429.481C163.409 429.481 30.16 429.364 30.16 429.22C30.16 429.076 163.409 428.96 327.835 428.96C492.204 428.96 625.482 429.077 625.482 429.22Z" fill="#263238"/>
<path d="M567.367 29.269L567.206 335.084C567.203 339.625 565.396 343.978 562.184 347.187C558.971 350.395 554.616 352.196 550.075 352.194L96.3031 351.955C94.0546 351.954 91.8283 351.51 89.7514 350.648C87.6746 349.787 85.7877 348.525 84.1986 346.934C82.6095 345.343 81.3493 343.455 80.4899 341.377C79.6306 339.299 79.1889 337.073 79.1901 334.824L79.3511 29.008C79.3537 24.4668 81.1601 20.1126 84.3729 16.9032C87.5857 13.6937 91.9418 11.8919 96.4831 11.894L550.253 12.133C552.502 12.1342 554.729 12.5784 556.806 13.4402C558.883 14.3021 560.77 15.5647 562.36 17.156C563.949 18.7473 565.209 20.636 566.068 22.7144C566.927 24.7928 567.369 27.0201 567.367 29.269Z" fill="#E0E0E0"/>
<path d="M567.367 29.269C567.367 29.269 567.341 28.914 567.301 28.213C567.289 27.7769 567.244 27.3423 567.167 26.913C567.092 26.3095 566.974 25.712 566.815 25.125C566.406 23.4489 565.733 21.8485 564.821 20.384C563.571 18.3526 561.917 16.5997 559.962 15.234C558.784 14.4216 557.507 13.7623 556.162 13.272C554.674 12.714 553.113 12.3754 551.527 12.267L550.265 12.204H548.965H546.282H540.57L513.218 12.214L338.904 12.205L218.532 12.173L151.473 12.151L116.404 12.138L98.504 12.131C97.0126 12.0799 95.5194 12.1447 94.038 12.325C92.5639 12.5336 91.1239 12.9371 89.756 13.525C87.0028 14.7296 84.6183 16.643 82.846 19.07C82.4036 19.6756 81.9966 20.3063 81.627 20.959C81.2788 21.6244 80.9706 22.3099 80.704 23.012C80.166 24.4203 79.8176 25.8939 79.668 27.394C79.559 28.894 79.589 30.432 79.585 31.965V36.575C79.585 42.731 79.5824 48.9233 79.577 55.152C79.5717 67.6093 79.5667 80.2057 79.562 92.941C79.55 118.408 79.5384 144.388 79.527 170.882C79.501 223.824 79.473 278.639 79.446 334.782C79.4676 336.511 79.7277 338.229 80.219 339.887C80.7548 341.528 81.5262 343.083 82.509 344.503C83.4969 345.917 84.6998 347.168 86.074 348.21C87.4298 349.271 88.9498 350.102 90.574 350.672C93.805 351.972 97.344 351.643 100.813 351.695L111.23 351.7L152.543 351.723L233.314 351.77L386.007 351.87L524.176 351.97L540.264 351.982L548.201 351.989C549.506 352.023 550.812 351.978 552.112 351.856C553.395 351.705 554.656 351.403 555.869 350.956C558.276 350.075 560.453 348.66 562.235 346.817C564.017 344.974 565.358 342.752 566.158 340.316C566.358 339.716 566.485 339.095 566.649 338.487C566.735 337.862 566.861 337.242 566.915 336.616C567.005 335.365 566.999 334.092 566.995 332.823C566.995 330.29 566.997 327.766 567.001 325.253C567.018 305.167 567.033 285.913 567.048 267.492C567.122 193.9 567.182 134.347 567.223 93.192C567.255 72.617 567.28 56.64 567.297 45.803C567.311 40.388 567.322 36.259 567.329 33.479C567.336 30.699 567.358 29.279 567.358 29.279C567.358 29.279 567.375 30.702 567.383 33.479C567.391 36.256 567.394 40.388 567.402 45.803C567.402 56.64 567.415 72.617 567.426 93.192C567.426 134.35 567.421 193.903 567.417 267.492C567.412 285.892 567.407 305.145 567.403 325.252C567.403 327.763 567.403 330.286 567.403 332.822C567.403 334.089 567.415 335.358 567.323 336.651C567.268 337.293 567.14 337.928 567.052 338.567C566.885 339.191 566.752 339.826 566.552 340.442C565.734 342.937 564.36 345.213 562.536 347.101C560.711 348.989 558.482 350.439 556.017 351.342C554.775 351.803 553.483 352.114 552.167 352.271C550.851 352.396 549.528 352.442 548.206 352.409H540.268L524.181 352.404L386.021 352.35L233.321 352.285L152.55 352.246L111.236 352.225H100.82C99.077 352.208 97.351 352.259 95.59 352.187C92.0252 352.045 88.5916 350.803 85.76 348.633C84.3437 347.558 83.1038 346.269 82.085 344.812C81.0721 343.348 80.2774 341.745 79.726 340.053C79.2175 338.344 78.9482 336.574 78.926 334.791C78.957 278.649 78.988 223.834 79.018 170.891C79.034 144.419 79.0497 118.439 79.065 92.95C79.073 80.2167 79.081 67.6203 79.089 55.161C79.093 48.933 79.097 42.7407 79.101 36.584V31.974C79.106 30.439 79.075 28.915 79.188 27.357C79.3425 25.8141 79.701 24.2986 80.254 22.85C80.7814 21.3957 81.5247 20.029 82.459 18.796C83.8119 16.9247 85.5289 15.3461 87.507 14.1547C89.485 12.9634 91.6833 12.1839 93.97 11.863C95.4743 11.6792 96.9905 11.6123 98.505 11.663L116.405 11.675L151.474 11.7L218.533 11.748L338.906 11.848L513.219 12.023L540.571 12.061L546.283 12.071H548.966H550.266L551.538 12.137C553.135 12.2507 554.707 12.596 556.204 13.162C557.556 13.6594 558.839 14.3267 560.022 15.148C561.984 16.5271 563.64 18.2956 564.888 20.343C565.798 21.8153 566.466 23.4241 566.866 25.108C567.023 25.6991 567.137 26.3006 567.207 26.908C567.281 27.3399 567.322 27.7769 567.328 28.215C567.359 28.914 567.367 29.269 567.367 29.269Z" fill="#263238"/>
<path d="M113.082 23.2651L112.915 341.879L520.467 342.092L520.634 23.4784L113.082 23.2651Z" fill="white"/>
<path d="M542.77 169.115C545.351 169.116 547.873 169.883 550.018 171.318C552.163 172.753 553.834 174.791 554.821 177.176C555.807 179.561 556.064 182.185 555.559 184.715C555.054 187.246 553.81 189.57 551.984 191.394C550.159 193.218 547.833 194.46 545.302 194.962C542.77 195.464 540.147 195.204 537.763 194.215C535.38 193.226 533.343 191.553 531.91 189.406C530.478 187.26 529.714 184.737 529.715 182.156C529.716 180.443 530.054 178.746 530.711 177.163C531.368 175.581 532.329 174.143 533.542 172.932C534.754 171.721 536.193 170.76 537.776 170.106C539.36 169.451 541.057 169.114 542.77 169.115Z" fill="#263238"/>
<path d="M298.057 293.76H149.551C146.552 293.76 144.121 296.191 144.121 299.19V314.733C144.121 317.732 146.552 320.163 149.551 320.163H298.057C301.056 320.163 303.487 317.732 303.487 314.733V299.19C303.487 296.191 301.056 293.76 298.057 293.76Z" fill="#F5F5F5"/>
<path d="M296.698 237.213H148.192C145.193 237.213 142.762 239.644 142.762 242.643V258.186C142.762 261.185 145.193 263.616 148.192 263.616H296.698C299.697 263.616 302.128 261.185 302.128 258.186V242.643C302.128 239.644 299.697 237.213 296.698 237.213Z" fill="#F5F5F5"/>
<path d="M467.963 237.213H319.457C316.458 237.213 314.027 239.644 314.027 242.643V258.186C314.027 261.185 316.458 263.616 319.457 263.616H467.963C470.962 263.616 473.393 261.185 473.393 258.186V242.643C473.393 239.644 470.962 237.213 467.963 237.213Z" fill="#F5F5F5"/>
<path d="M466.296 76.533H323.718C320.719 76.533 318.288 78.9641 318.288 81.963V97.506C318.288 100.505 320.719 102.936 323.718 102.936H466.296C469.295 102.936 471.726 100.505 471.726 97.506V81.963C471.726 78.9641 469.295 76.533 466.296 76.533Z" fill="#F5F5F5"/>
<path d="M469.918 128.963H149.551C146.552 128.963 144.121 131.394 144.121 134.393V149.936C144.121 152.935 146.552 155.366 149.551 155.366H469.918C472.917 155.366 475.348 152.935 475.348 149.936V134.393C475.348 131.394 472.917 128.963 469.918 128.963Z" fill="#F5F5F5"/>
<path d="M297.814 76.533H149.308C146.309 76.533 143.878 78.9641 143.878 81.963V97.506C143.878 100.505 146.309 102.936 149.308 102.936H297.814C300.813 102.936 303.244 100.505 303.244 97.506V81.963C303.244 78.9641 300.813 76.533 297.814 76.533Z" fill="#F5F5F5"/>
<path d="M469.918 184.98H149.065C146.066 184.98 143.635 187.411 143.635 190.41V205.953C143.635 208.952 146.066 211.383 149.065 211.383H469.918C472.917 211.383 475.348 208.952 475.348 205.953V190.41C475.348 187.411 472.917 184.98 469.918 184.98Z" fill="#F5F5F5"/>
<path d="M451.499 320.163C452.028 320.115 452.551 320.02 453.062 319.878C453.782 319.646 454.446 319.266 455.01 318.762C455.574 318.258 456.027 317.642 456.339 316.953C456.754 315.941 456.914 314.842 456.805 313.753C456.798 312.539 456.791 311.221 456.784 309.807C456.772 306.971 456.759 303.747 456.745 300.186C456.808 299.295 456.713 298.399 456.466 297.541C456.172 296.666 455.651 295.885 454.956 295.277C454.237 294.64 453.354 294.218 452.407 294.056C451.394 293.968 450.376 293.942 449.36 293.979L435.978 294.003L405.314 294.023C404.021 294.026 402.777 294.511 401.823 295.384C400.87 296.257 400.278 297.455 400.162 298.742C400.115 301.342 400.147 303.989 400.135 306.542C400.123 309.095 400.135 311.626 400.129 314.093C400.026 315.273 400.3 316.455 400.911 317.47C401.515 318.45 402.431 319.198 403.511 319.596C404.602 319.917 405.743 320.03 406.876 319.93L410.276 319.936L416.776 319.949L428.437 319.981L445.321 320.064L449.911 320.113L451.105 320.138C451.241 320.135 451.377 320.144 451.511 320.165C451.377 320.186 451.241 320.195 451.105 320.192L449.911 320.218L445.321 320.267L428.437 320.349L416.776 320.381L410.276 320.394L406.876 320.4C406.298 320.4 405.731 320.41 405.135 320.394C404.523 320.38 403.917 320.262 403.344 320.046C402.164 319.613 401.163 318.797 400.5 317.729C399.84 316.637 399.538 315.365 399.636 314.093C399.636 311.626 399.634 309.109 399.63 306.542C399.639 303.968 399.602 301.389 399.651 298.697C399.777 297.28 400.428 295.961 401.477 295C402.526 294.039 403.896 293.504 405.319 293.502L435.983 293.522L449.365 293.546C450.406 293.513 451.448 293.547 452.485 293.646C453.483 293.826 454.414 294.271 455.18 294.936C455.946 295.6 456.518 296.459 456.837 297.421C457.092 298.319 457.188 299.256 457.118 300.187C457.104 303.748 457.091 306.972 457.08 309.808C457.072 311.222 457.065 312.54 457.058 313.754C457.154 314.877 456.972 316.006 456.528 317.042C456.198 317.748 455.722 318.375 455.13 318.882C454.539 319.39 453.846 319.765 453.098 319.983C452.58 320.14 452.039 320.201 451.499 320.163Z" fill="#F5F5F5"/>
<path d="M384.326 293.76H338.137C335.138 293.76 332.707 296.191 332.707 299.19V314.733C332.707 317.732 335.138 320.163 338.137 320.163H384.326C387.325 320.163 389.756 317.732 389.756 314.733V299.19C389.756 296.191 387.325 293.76 384.326 293.76Z" fill="#F5F5F5"/>
<path d="M520.635 23.48L113.083 23.494L113.317 23.261C113.275 118.347 113.227 226.982 113.176 341.839V341.874L112.915 341.614L520.467 341.874L520.252 342.089C520.483 149.771 520.633 25.268 520.635 23.475C520.635 25.267 520.654 149.775 520.683 342.089V342.305H520.467L112.915 342.135H112.655V341.84C112.725 226.982 112.791 118.348 112.849 23.262V23.027H113.082L520.635 23.48Z" fill="#263238"/>
<path d="M115.362 367.489H41.858V377.589H115.362V367.489Z" fill="#263238"/>
<path d="M115.487 377.715H41.7321V367.363H115.487V377.715ZM41.9871 377.463H115.24V367.615H41.9831L41.9871 377.463Z" fill="#263238"/>
<path d="M48.6731 374.228L59.2531 426.428H98.4001L108.628 377.594L48.6731 374.228Z" fill="#263238"/>
<path d="M48.6731 421.486L54.3161 429.245H101.899L108.628 421.486H48.6731Z" fill="#455A64"/>
<path d="M75.8491 375.752C75.7051 375.752 75.5201 351.571 75.4361 321.752C75.3521 291.933 75.4011 267.742 75.5461 267.742C75.6911 267.742 75.8751 291.917 75.9591 321.75C76.0431 351.583 75.9941 375.752 75.8491 375.752Z" fill="#263238"/>
<path d="M92.221 315.239C92.1763 315.433 92.1092 315.622 92.021 315.801C91.849 316.212 91.631 316.73 91.365 317.366L90.885 318.493L90.396 319.866L89.829 321.44C89.629 321.999 89.478 322.607 89.285 323.24C88.4111 326.194 87.7247 329.2 87.23 332.24C86.6566 335.969 86.2768 339.726 86.092 343.494C85.8202 350.352 86.0144 357.22 86.673 364.052C86.909 366.677 87.147 368.798 87.322 370.262C87.397 370.948 87.458 371.507 87.507 371.95C87.5403 372.146 87.5501 372.346 87.536 372.544C87.4696 372.357 87.4249 372.162 87.403 371.965C87.328 371.526 87.235 370.971 87.12 370.289C86.883 368.832 86.588 366.715 86.304 364.089C85.5345 357.245 85.2884 350.352 85.568 343.47C85.7538 339.681 86.1497 335.906 86.754 332.161C87.2735 329.105 88.0012 326.089 88.932 323.132C89.137 322.503 89.304 321.895 89.514 321.337L90.122 319.767L90.654 318.403C90.836 317.992 91.021 317.624 91.178 317.289L91.926 315.76C92.0032 315.575 92.1023 315.4 92.221 315.239Z" fill="#263238"/>
<path d="M90.344 295.681C90.2889 295.954 90.2107 296.221 90.11 296.481L89.345 298.729C89.1737 299.22 88.9864 299.76 88.7831 300.349C88.6004 300.953 88.403 301.604 88.191 302.302C87.762 303.702 87.263 305.291 86.82 307.08L86.083 309.88L85.394 312.937C84.88 315.037 84.51 317.329 84.036 319.717C83.226 324.517 82.5131 329.829 82.0201 335.429C81.5561 341.034 81.3541 346.39 81.2831 351.262C81.2681 356.134 81.33 360.525 81.53 364.206C81.595 366.048 81.713 367.711 81.808 369.172C81.903 370.633 81.984 371.893 82.077 372.92C82.153 373.91 82.213 374.699 82.257 375.288C82.2899 375.563 82.2992 375.841 82.285 376.118C82.2179 375.849 82.1738 375.575 82.153 375.299C82.083 374.712 81.9904 373.925 81.875 372.939C81.75 371.914 81.6281 370.657 81.5161 369.195C81.4041 367.733 81.249 366.069 81.16 364.225C80.912 360.54 80.812 356.142 80.8 351.258C80.845 346.375 81.033 341.005 81.5 335.385C81.993 329.769 82.724 324.445 83.562 319.632C84.05 317.239 84.438 314.949 84.971 312.842C85.2197 311.785 85.46 310.765 85.692 309.782L86.4641 306.982C86.9311 305.194 87.456 303.606 87.913 302.212C88.1397 301.518 88.351 300.87 88.547 300.268C88.767 299.684 88.9694 299.148 89.154 298.66C89.5127 297.732 89.7987 296.993 90.012 296.442C90.101 296.179 90.212 295.925 90.344 295.681Z" fill="#263238"/>
<path d="M71.2 380.03C71.1747 379.938 71.1609 379.843 71.159 379.747C71.141 379.53 71.118 379.256 71.089 378.915C71.037 378.144 70.965 377.073 70.873 375.715C70.697 372.894 70.446 368.88 70.136 363.936C69.498 353.993 68.575 340.256 66.902 325.149C66.047 317.596 65.056 310.422 64.025 303.918C63.477 300.672 62.98 297.583 62.416 294.709C61.899 291.827 61.342 289.157 60.829 286.72C60.346 284.277 59.807 282.089 59.374 280.159C58.941 278.229 58.537 276.573 58.192 275.223C57.868 273.9 57.613 272.857 57.429 272.107C57.353 271.774 57.292 271.507 57.243 271.293C57.216 271.201 57.2005 271.107 57.197 271.011C57.2414 271.096 57.275 271.186 57.297 271.279C57.358 271.488 57.436 271.752 57.533 272.079C57.739 272.823 58.027 273.858 58.392 275.171C58.766 276.514 59.208 278.162 59.661 280.09C60.114 282.018 60.686 284.2 61.193 286.641C61.73 289.075 62.309 291.741 62.845 294.627C63.428 297.501 63.945 300.591 64.503 303.84C65.561 310.348 66.569 317.528 67.425 325.09C69.099 340.212 69.964 353.962 70.508 363.913C70.778 368.89 70.966 372.918 71.079 375.703C71.129 377.066 71.168 378.139 71.197 378.911C71.204 379.253 71.21 379.528 71.214 379.745C71.221 379.84 71.2163 379.936 71.2 380.03Z" fill="#263238"/>
<path d="M75.2501 279.363C74.9311 275.938 71.4691 273.353 68.0281 273.318C64.5871 273.283 61.3811 275.346 59.2771 278.068C57.2954 280.892 55.8656 284.065 55.0631 287.42C52.7461 295.491 51.4801 303.971 52.4701 312.309C53.4601 320.647 56.8441 328.856 62.8271 334.747C63.8001 335.705 65.0601 336.663 66.3951 336.378C67.1131 336.161 67.7619 335.76 68.2771 335.215C74.1354 329.852 78.7792 323.299 81.8968 315.994C85.0144 308.689 86.5338 300.802 86.3531 292.862C86.2601 289.691 85.8441 286.391 84.0881 283.749C82.3321 281.107 78.2391 278.303 75.2501 279.363Z" fill="#FF725E"/>
<path d="M49.56 251.924C47.944 254.849 46.3287 257.775 44.714 260.7C44.601 260.9 44.451 261.134 44.219 261.153C43.964 261.174 43.774 260.933 43.634 260.719L30.821 241.058L33.772 239.386L49.56 251.924Z" fill="#FF725E"/>
<g opacity="0.2">
<g opacity="0.2">
<g opacity="0.2">
<g opacity="0.2">
<path opacity="0.2" d="M49.56 251.924C47.944 254.849 46.3287 257.775 44.714 260.7C44.601 260.9 44.451 261.134 44.219 261.153C43.964 261.174 43.774 260.933 43.634 260.719L30.821 241.058L33.772 239.386L49.56 251.924Z" fill="black"/>
</g>
</g>
</g>
</g>
<path d="M75.546 267.738L31.846 241.951C31.3666 241.743 30.9857 241.358 30.782 240.877C30.607 240.231 31.093 239.607 31.559 239.126C34.5635 236.008 38.2049 233.574 42.2351 231.991C46.2653 230.407 50.5895 229.712 54.913 229.951C59.2339 230.261 63.4143 231.619 67.0929 233.907C70.7716 236.195 73.8379 239.344 76.027 243.082C80.244 250.618 80.383 260.582 75.547 267.738" fill="#FF725E"/>
<path d="M38.1429 233.719C38.3304 233.672 38.5228 233.648 38.7159 233.648C39.0919 233.629 39.6489 233.561 40.3669 233.569C42.3988 233.541 44.4289 233.702 46.4309 234.05C53.0951 235.175 59.2987 238.183 64.3101 242.717C69.3216 247.252 72.9321 253.125 74.7159 259.644C75.2615 261.601 75.6241 263.605 75.7989 265.63C75.8437 266.053 75.8661 266.478 75.8659 266.904C75.8312 267.244 75.7157 267.571 75.5289 267.857C75.6623 267.129 75.6852 266.386 75.5969 265.651C75.3444 263.654 74.9307 261.681 74.3599 259.751C72.5271 253.334 68.9321 247.558 63.9829 243.081C59.0336 238.603 52.9283 235.603 46.3599 234.42C44.3807 234.044 42.374 233.829 40.3599 233.778C38.9379 233.741 38.1449 233.766 38.1429 233.719Z" fill="#263238"/>
<path d="M69.63 249.939C68.9348 250.357 68.1935 250.692 67.421 250.939C66.029 251.488 64.083 252.189 61.907 252.881C59.731 253.573 57.736 254.122 56.282 254.481C55.5079 254.724 54.7082 254.877 53.899 254.936C54.6304 254.588 55.3958 254.316 56.183 254.125L61.749 252.386L67.297 250.595C68.0503 250.297 68.832 250.078 69.63 249.939Z" fill="#263238"/>
<path d="M62.749 231.454C63.3555 234.676 63.4389 237.975 62.996 241.224C62.7814 239.606 62.6965 237.973 62.742 236.342C62.614 234.715 62.6163 233.081 62.749 231.454Z" fill="#263238"/>
<path d="M31.463 241.462C32.4872 240.999 33.5495 240.625 34.638 240.345C36.623 239.732 39.388 238.958 42.47 238.214C45.552 237.47 48.37 236.903 50.415 236.544C51.5116 236.298 52.6274 236.147 53.75 236.093C52.6833 236.441 51.5933 236.713 50.488 236.907C48.463 237.358 45.669 237.983 42.593 238.723C39.517 239.463 36.746 240.181 34.739 240.701C33.6664 241.032 32.5716 241.286 31.463 241.462Z" fill="#263238"/>
<path d="M57.112 271.93C53.353 269.08 49.379 268.518 44.666 268.705C39.9464 269.02 35.3268 270.212 31.044 272.22C23.675 275.448 16.749 280.205 12.344 286.938C7.93905 293.671 6.40904 302.584 9.70504 309.923C9.96201 310.69 10.4939 311.335 11.198 311.733C12.0161 311.967 12.8909 311.9 13.664 311.545C22.045 308.81 30.486 306.051 38.192 301.769C45.898 297.487 52.912 291.536 57.048 283.75C58.1122 281.914 58.7876 279.878 59.032 277.77C59.1469 276.716 59.0349 275.649 58.7033 274.642C58.3718 273.635 57.8286 272.71 57.11 271.93" fill="#FF725E"/>
<path d="M57.186 271.046C56.9951 271.148 56.794 271.231 56.586 271.291L54.83 271.891L53.558 272.315C53.098 272.481 52.606 272.687 52.073 272.894C51.012 273.323 49.781 273.751 48.485 274.38L46.43 275.316C45.717 275.645 45.006 276.05 44.253 276.434C42.733 277.18 41.197 278.134 39.56 279.1C32.533 283.453 26.2838 288.951 21.071 295.366C19.904 296.866 18.762 298.266 17.828 299.682C17.352 300.382 16.86 301.034 16.443 301.699C16.026 302.364 15.632 303.006 15.252 303.618C14.46 304.828 13.879 305.994 13.321 306.994C13.048 307.494 12.781 307.958 12.558 308.394L11.975 309.601L11.153 311.266C11.0661 311.466 10.9589 311.656 10.833 311.833C10.8845 311.622 10.9593 311.418 11.056 311.224C11.246 310.782 11.49 310.216 11.791 309.514C11.957 309.139 12.138 308.728 12.334 308.284C12.53 307.84 12.8 307.37 13.062 306.858C13.6 305.844 14.162 304.658 14.934 303.435L16.102 301.488C16.513 300.813 17.002 300.15 17.471 299.442C18.396 298.011 19.531 296.589 20.695 295.07C25.9018 288.574 32.1986 283.033 39.304 278.694C40.958 277.732 42.513 276.787 44.05 276.053C44.812 275.675 45.532 275.278 46.25 274.953L48.33 274.043C49.643 273.433 50.889 273.026 51.964 272.621C52.505 272.427 53.003 272.233 53.47 272.081L54.76 271.699L56.55 271.188C56.7564 271.118 56.9696 271.071 57.186 271.046Z" fill="#263238"/>
<path d="M27.821 286.945C24.8302 288.093 21.779 289.078 18.681 289.894C15.6309 290.876 12.5297 291.692 9.39099 292.337C12.3829 291.19 15.4351 290.206 18.534 289.391C21.5829 288.407 24.6832 287.591 27.821 286.945Z" fill="#263238"/>
<path d="M27.447 307.12C27.2875 306.179 27.2205 305.226 27.247 304.272C27.199 302.511 27.191 300.072 27.266 297.389C27.341 294.706 27.485 292.27 27.632 290.514C27.6587 289.56 27.7793 288.612 27.992 287.682C28.0779 288.631 28.0809 289.586 28.001 290.535C27.942 292.465 27.869 294.81 27.789 297.403C27.709 299.996 27.666 302.342 27.617 304.272C27.6442 305.225 27.5873 306.178 27.447 307.12Z" fill="#263238"/>
<path d="M44.73 298.316C44.585 298.326 44.13 293.379 43.703 287.268C43.276 281.157 43.055 276.192 43.203 276.182C43.351 276.172 43.803 281.118 44.23 287.232C44.657 293.346 44.874 298.306 44.73 298.316Z" fill="#263238"/>
<path d="M23.2211 275.702C24.1931 275.585 25.1737 275.556 26.1511 275.614C27.9581 275.626 30.4511 275.679 33.2061 275.77C35.9611 275.861 38.4531 275.97 40.2571 276.081C41.2362 276.087 42.2128 276.181 43.1751 276.362C42.2045 276.48 41.2251 276.51 40.2491 276.451C38.4421 276.438 35.9491 276.385 33.1891 276.294C30.4291 276.203 27.9391 276.094 26.1351 275.984C25.1572 275.979 24.1818 275.885 23.2211 275.702Z" fill="#263238"/>
<path d="M64.701 335.894C64.6573 335.702 64.6365 335.506 64.639 335.309C64.619 334.869 64.593 334.309 64.562 333.628C64.496 332.168 64.481 330.052 64.537 327.439C64.593 324.826 64.762 321.716 65.076 318.272C65.417 314.832 65.909 311.059 66.615 307.128C67.339 303.2 68.207 299.492 69.102 296.147C70.021 292.809 70.951 289.83 71.828 287.361C72.705 284.892 73.458 282.909 74.034 281.561C74.305 280.93 74.525 280.416 74.699 280.01C74.7664 279.825 74.8553 279.648 74.964 279.483C74.931 279.677 74.8749 279.867 74.797 280.048C74.648 280.463 74.458 280.988 74.225 281.633C73.707 283.001 73.002 284.996 72.18 287.475C71.358 289.954 70.459 292.933 69.568 296.266C68.703 299.607 67.852 303.304 67.13 307.218C66.43 311.134 65.922 314.891 65.557 318.318C65.217 321.747 65.002 324.845 64.907 327.451C64.812 330.057 64.762 332.167 64.766 333.625C64.757 334.31 64.75 334.866 64.744 335.306C64.7532 335.503 64.7388 335.7 64.701 335.894Z" fill="#263238"/>
<path d="M67.0061 307.284C66.4964 307.983 65.9119 308.625 65.2631 309.197C64.1331 310.325 62.5271 311.838 60.6961 313.445C58.8651 315.052 57.1521 316.445 55.8871 317.417C55.2341 317.985 54.5216 318.48 53.7621 318.895C54.3341 318.248 54.967 317.657 55.6521 317.131L60.3521 313.051L65.0111 308.927C65.6223 308.317 66.2904 307.767 67.0061 307.284Z" fill="#263238"/>
<path d="M80.839 318.427C80.1551 317.618 79.5343 316.759 78.982 315.855L74.664 309.555L70.255 303.314C69.5996 302.483 69.0095 301.602 68.49 300.679C69.2472 301.421 69.9372 302.228 70.552 303.092C71.764 304.632 73.385 306.801 75.094 309.256C76.803 311.711 78.271 313.984 79.294 315.656C79.8912 316.531 80.4083 317.459 80.839 318.427Z" fill="#263238"/>
<path d="M73.5931 283.384C73.6711 283.506 69.0761 286.599 63.3311 290.293C57.5861 293.987 52.8641 296.883 52.7851 296.761C52.7061 296.639 57.3011 293.547 63.0481 289.852C68.7951 286.157 73.5151 283.263 73.5931 283.384Z" fill="#263238"/>
<path d="M86.549 297.368C84.1156 295.357 81.7954 293.213 79.599 290.946C77.2808 288.802 75.0828 286.532 73.015 284.146C75.4486 286.157 77.7688 288.301 79.965 290.569C82.283 292.713 84.4811 294.982 86.549 297.368Z" fill="#263238"/>
<path d="M89.807 297.088L93.752 296.761C96.5515 296.531 99.2684 295.699 101.717 294.323C102.913 293.621 104.153 292.998 105.43 292.458C110.307 290.5 115.748 290.851 120.996 290.587C129.59 290.15 138.01 287.997 145.759 284.255C146.211 284.048 146.588 283.706 146.838 283.276C147.648 281.8 146.143 280.486 144.848 279.688C138.203 275.588 131.438 271.446 123.902 269.414C116.366 267.382 107.812 267.725 101.381 272.15C93.833 277.344 91.081 288.014 89.807 297.088Z" fill="#FF725E"/>
<path d="M146.927 282.794C146.694 282.712 146.47 282.608 146.258 282.483L144.388 281.504C142.767 280.651 140.432 279.393 137.488 277.978C134.054 276.291 130.477 274.912 126.799 273.858C122.301 272.569 117.592 272.188 112.945 272.736C108.291 273.255 103.896 275.143 100.315 278.16C97.5178 280.76 95.2802 283.902 93.739 287.396C92.353 290.353 91.499 292.868 90.877 294.589C90.586 295.414 90.353 296.075 90.177 296.578C90.107 296.814 90.0149 297.043 89.902 297.262C89.9367 297.018 89.9953 296.778 90.077 296.546C90.231 296.034 90.434 295.362 90.686 294.524C91.4477 292.045 92.3556 289.613 93.405 287.241C94.9236 283.67 97.1689 280.454 99.998 277.798C103.638 274.693 108.124 272.749 112.879 272.217C117.591 271.66 122.367 272.06 126.921 273.394C130.619 274.475 134.209 275.899 137.643 277.645C140.583 279.108 142.892 280.417 144.485 281.325L146.307 282.391C146.526 282.506 146.733 282.641 146.927 282.794Z" fill="#263238"/>
<path d="M137.454 287.881C137.373 288.001 132.214 284.663 125.933 280.428C119.652 276.193 114.622 272.66 114.703 272.54C114.784 272.42 119.942 275.756 126.225 279.994C132.508 284.232 137.535 287.761 137.454 287.881Z" fill="#263238"/>
<path d="M131.951 272.268C130.741 272.684 129.475 272.912 128.196 272.944C126.924 273.121 125.632 273.104 124.365 272.894C125.615 272.668 126.881 272.539 128.151 272.507C129.41 272.331 130.68 272.251 131.951 272.268Z" fill="#263238"/>
<path d="M109.368 269.325C108.947 270.29 108.376 271.182 107.676 271.969C107.082 272.88 106.36 273.7 105.532 274.405C105.954 273.44 106.525 272.548 107.225 271.761C107.819 270.85 108.54 270.03 109.368 269.325Z" fill="#263238"/>
<path d="M113.99 290.92C113.118 290.558 112.286 290.107 111.507 289.574C110.017 288.674 108.007 287.344 105.851 285.782C103.695 284.22 101.802 282.741 100.438 281.659C99.6693 281.114 98.9523 280.499 98.296 279.823C99.1314 280.26 99.9233 280.776 100.661 281.363C102.208 282.488 104.084 283.85 106.161 285.357C108.306 286.915 110.276 288.281 111.71 289.263C112.516 289.75 113.278 290.304 113.99 290.92Z" fill="#263238"/>
<path d="M95.6151 313.846C91.8531 312.852 87.3681 316.512 86.5931 320.325C85.8181 324.138 87.2471 328.038 88.9221 331.551C92.5042 339.425 97.8233 346.384 104.48 351.908C111.217 357.276 119.655 360.708 128.269 360.665C126.678 353.278 128.69 345.565 127.803 338.055C127.022 331.442 124.02 325.29 119.288 320.605C114.556 315.92 108.374 312.979 101.754 312.264C99.3541 312.005 96.5731 311.628 95.6151 313.846Z" fill="#FF725E"/>
<path d="M128.269 360.665C128.081 360.604 127.902 360.521 127.734 360.416C127.238 360.143 126.767 359.827 126.326 359.472C124.748 358.099 123.482 356.405 122.612 354.503C122.012 353.339 121.341 352.074 120.686 350.674C120.051 349.274 119.373 347.774 118.662 346.199C117.933 344.555 117.102 342.958 116.175 341.417C115.155 339.78 114.011 338.224 112.752 336.762C110.176 333.736 107.412 331.118 105.016 328.618C102.849 326.434 100.875 324.067 99.1161 321.542C97.9389 319.829 96.9717 317.981 96.2351 316.037C96.0412 315.508 95.8743 314.969 95.7351 314.423C95.6729 314.236 95.633 314.042 95.6161 313.846C95.6651 313.832 95.8781 314.614 96.4271 315.963C97.2303 317.856 98.2362 319.656 99.4271 321.332C101.214 323.807 103.2 326.131 105.366 328.282C107.772 330.756 110.551 333.366 113.154 336.423C114.431 337.905 115.588 339.485 116.615 341.149C117.548 342.711 118.379 344.332 119.105 346C119.8 347.579 120.462 349.081 121.083 350.491C121.715 351.885 122.367 353.163 122.944 354.334C123.768 356.215 124.964 357.909 126.46 359.315C127.556 360.263 128.3 360.615 128.269 360.665Z" fill="#263238"/>
<path d="M108.814 354.526C108.833 353.671 108.949 352.822 109.159 351.993C109.454 350.444 109.937 348.317 110.589 346C111.241 343.683 111.94 341.616 112.498 340.14C112.751 339.324 113.096 338.539 113.525 337.8C113.377 338.639 113.15 339.463 112.848 340.26C112.382 341.76 111.748 343.835 111.093 346.142C110.438 348.449 109.906 350.55 109.52 352.074C109.361 352.911 109.125 353.732 108.814 354.526Z" fill="#263238"/>
<path d="M127.556 336.394C126.657 336.269 125.77 336.065 124.906 335.785C123.285 335.361 121.046 334.785 118.555 334.22C116.064 333.655 113.793 333.22 112.147 332.911C111.246 332.794 110.358 332.598 109.491 332.326C110.401 332.302 111.312 332.376 112.206 332.546C113.872 332.765 116.166 333.146 118.671 333.709C121.176 334.272 123.41 334.909 125.009 335.429C125.89 335.659 126.744 335.983 127.556 336.394Z" fill="#263238"/>
<path d="M94.853 341.661C94.8933 340.673 95.0292 339.692 95.259 338.73C95.59 336.93 96.117 334.465 96.82 331.767C97.523 329.069 98.273 326.657 98.862 324.929C99.1314 323.978 99.492 323.055 99.939 322.173C99.7768 323.147 99.5347 324.105 99.215 325.039C98.715 326.792 98.029 329.211 97.327 331.899C96.625 334.587 96.044 337.034 95.622 338.807C95.4437 339.778 95.1866 340.732 94.853 341.661Z" fill="#263238"/>
<path d="M118.921 320.594C118.905 320.737 114.209 320.357 108.431 319.745C102.653 319.133 97.9811 318.519 97.9961 318.375C98.0111 318.231 102.707 318.611 108.487 319.224C114.267 319.837 118.94 320.445 118.921 320.594Z" fill="#263238"/>
<path d="M115.484 377.547C115.484 377.691 98.9731 377.809 78.6121 377.809C58.2511 377.809 41.7361 377.691 41.7361 377.547C41.7361 377.403 58.2431 377.285 78.6121 377.285C98.9811 377.285 115.484 377.402 115.484 377.547Z" fill="#455A64"/>
<path d="M103.997 398.794C103.997 398.939 92.8731 399.056 79.1541 399.056C65.4351 399.056 54.3081 398.939 54.3081 398.794C54.3081 398.649 65.4301 398.533 79.1541 398.533C92.8781 398.533 103.997 398.649 103.997 398.794Z" fill="#455A64"/>
<path d="M103.565 401.831C103.565 401.976 92.6351 402.093 79.1551 402.093C65.6751 402.093 54.7421 401.976 54.7421 401.831C54.7421 401.686 65.6701 401.569 79.1551 401.569C92.6401 401.569 103.565 401.687 103.565 401.831Z" fill="#455A64"/>
<path d="M104.431 396.294C104.431 396.439 92.924 396.556 78.731 396.556C64.538 396.556 53.031 396.439 53.031 396.294C53.031 396.149 64.531 396.032 78.731 396.032C92.931 396.032 104.431 396.145 104.431 396.294Z" fill="#455A64"/>
<path d="M542.561 116.712C542.561 116.712 534.548 115.42 529.891 119.145C527.809 120.774 526.084 122.813 524.822 125.136C523.561 127.459 522.789 130.017 522.556 132.65C521.974 137.773 518.273 157.569 518.273 157.569L511.03 147.786L503.049 154.792C503.049 154.792 509.787 187.092 516.113 189.268C522.439 191.444 529.313 184.343 530.939 183.062C532.565 181.781 542.561 116.712 542.561 116.712Z" fill="#4776E6"/>
<path d="M539.849 116.501C539.849 116.501 529.334 131.501 528.116 135.334C526.898 139.167 518.029 146.097 518.196 155.179C518.272 159.318 518.643 163.447 519.304 167.534C519.689 169.858 519.643 172.232 519.168 174.539L515.068 194.333C516.09 195.825 517.434 197.068 519 197.971C520.566 198.875 522.315 199.416 524.118 199.554C530.557 200.254 546.971 204.124 557.881 199.554L565.712 195.725V165.094L571.112 152.563L586.467 127.676C586.467 127.676 578.626 122.246 571.31 119.899C563.613 117.433 551.174 117.215 539.849 116.501Z" fill="#4776E6"/>
<path d="M515.882 190.382C515.892 190.149 515.924 189.917 515.976 189.689L516.337 187.723L517.755 180.506C518.016 178.975 518.513 177.345 518.762 175.546C518.832 175.097 518.903 174.641 518.974 174.178C519.014 173.711 519.055 173.238 519.096 172.757C519.176 171.769 519.201 170.778 519.171 169.787C519.069 167.659 518.712 165.55 518.107 163.507C517.347 161.303 516.951 158.99 516.932 156.658C517.098 154.325 517.682 152.041 518.656 149.915C519.521 147.937 520.533 146.027 521.682 144.2C523.857 140.7 526.055 137.725 527.864 135.2L532.164 129.24L533.333 127.619C533.461 127.424 533.606 127.24 533.767 127.072C533.668 127.282 533.55 127.483 533.414 127.672L532.32 129.346C531.355 130.789 529.928 132.858 528.144 135.397C526.36 137.936 524.205 140.94 522.065 144.428C520.939 146.242 519.946 148.136 519.095 150.095C518.15 152.169 517.583 154.396 517.418 156.669C517.439 158.952 517.827 161.217 518.567 163.377C519.498 166.42 519.822 169.616 519.523 172.784C519.477 173.271 519.432 173.751 519.387 174.224C519.311 174.691 519.235 175.151 519.16 175.605C518.892 177.42 518.372 179.053 518.091 180.578C517.437 183.57 516.905 186.009 516.523 187.756L516.073 189.703C516.032 189.935 515.968 190.162 515.882 190.382Z" fill="#263238"/>
<path d="M581.321 124.494C581.321 124.494 600.472 131.346 593.202 155.225C587.414 174.24 575.518 196.93 567.993 197.38C564.084 197.614 559.826 197.467 557.17 195.374C546.404 186.891 539.851 164.148 539.851 164.148L550.151 152.642L562.632 171.142C564.032 170.542 572.342 144.933 572.342 144.933C572.342 144.933 578.31 125.294 581.321 124.494Z" fill="#4776E6"/>
<path d="M572.221 147.068C572.191 147.225 572.146 147.379 572.086 147.527L571.629 148.84L569.829 153.792C568.236 158.083 565.989 164.139 563.304 171.374L563.15 171.788L562.902 171.421L550.394 152.944L550.794 152.98L549.528 154.28L540.028 163.987L540.087 163.735C541.469 168.387 543.132 172.952 545.065 177.404C546.606 180.917 548.461 184.285 550.607 187.465C552.029 189.549 553.594 191.532 555.291 193.4L556.7 194.855C556.87 195.017 557.026 195.193 557.168 195.381C556.979 195.242 556.802 195.087 556.639 194.918L555.168 193.518C553.412 191.687 551.8 189.724 550.346 187.646C548.146 184.475 546.247 181.106 544.672 177.582C542.701 173.127 541.011 168.554 539.61 163.889L539.565 163.745L539.665 163.637L549.152 153.917L550.418 152.617L550.642 152.389L550.82 152.654L563.274 171.167L562.874 171.214L569.574 153.698C570.387 151.616 571.032 149.964 571.491 148.791C571.708 148.254 571.881 147.828 572.013 147.503C572.067 147.351 572.137 147.206 572.221 147.068Z" fill="#263238"/>
<path d="M525.635 397.848L526.911 417.304C526.911 417.304 507.563 425.135 507.448 428.754L545.263 427.636L544.519 397.236L525.635 397.848Z" fill="#4776E6"/>
<path d="M538.555 415.32C538.922 415.42 539.239 415.652 539.446 415.971C539.653 416.291 539.734 416.675 539.675 417.051C539.589 417.421 539.364 417.744 539.046 417.954C538.729 418.163 538.343 418.243 537.969 418.176C537.58 418.069 537.245 417.822 537.028 417.482C536.811 417.143 536.727 416.735 536.793 416.337C536.923 415.961 537.193 415.649 537.547 415.468C537.901 415.286 538.312 415.249 538.693 415.363" fill="#E0E0E0"/>
<path d="M545.326 428.974L545.244 425.486L508.885 426.794C508.885 426.794 507.223 427.576 507.448 428.756L545.326 428.974Z" fill="#263238"/>
<path d="M526.292 417.13C526.304 417.315 527.23 417.371 528.156 417.938C529.097 418.481 529.589 419.267 529.756 419.188C529.926 419.147 529.618 418.052 528.484 417.388C527.35 416.724 526.247 416.962 526.292 417.13Z" fill="#263238"/>
<path d="M522.375 418.888C522.338 419.068 523.147 419.358 523.797 420.121C524.47 420.864 524.653 421.704 524.836 421.691C525.011 421.714 525.107 420.629 524.28 419.697C523.453 418.765 522.373 418.712 522.375 418.888Z" fill="#263238"/>
<path d="M520.262 423.701C520.431 423.736 520.662 422.806 520.162 421.809C519.662 420.812 518.782 420.434 518.709 420.59C518.609 420.745 519.186 421.271 519.587 422.097C520.003 422.912 520.078 423.694 520.262 423.701Z" fill="#263238"/>
<path d="M526.494 412.664C526.576 412.83 527.416 412.55 528.461 412.59C529.508 412.609 530.33 412.935 530.422 412.774C530.522 412.637 529.712 411.974 528.479 411.947C527.246 411.92 526.399 412.521 526.494 412.664Z" fill="#263238"/>
<path d="M560.475 398.224L561.584 417.691C561.584 417.691 542.169 425.357 542.024 428.974L579.847 428.174L579.363 397.774L560.475 398.224Z" fill="#4776E6"/>
<path d="M573.245 415.806C573.61 415.91 573.924 416.145 574.127 416.466C574.33 416.787 574.408 417.171 574.345 417.546C574.256 417.916 574.028 418.237 573.709 418.444C573.39 418.65 573.004 418.727 572.63 418.657C572.242 418.547 571.909 418.297 571.695 417.955C571.48 417.614 571.4 417.205 571.469 416.808C571.602 416.432 571.876 416.122 572.232 415.944C572.589 415.765 573 415.732 573.381 415.851" fill="#E0E0E0"/>
<path d="M579.891 428.974L579.847 426.028L543.477 427.028C543.477 427.028 541.809 427.796 542.024 428.978L579.891 428.974Z" fill="#263238"/>
<path d="M560.967 417.511C560.977 417.696 561.902 417.76 562.823 418.335C563.76 418.886 564.245 419.676 564.413 419.599C564.583 419.56 564.284 418.462 563.157 417.785C562.03 417.108 560.921 417.343 560.967 417.511Z" fill="#263238"/>
<path d="M557.034 419.236C556.996 419.416 557.802 419.713 558.446 420.481C559.112 421.23 559.288 422.071 559.472 422.059C559.646 422.085 559.751 421 558.933 420.059C558.115 419.118 557.035 419.06 557.034 419.236Z" fill="#263238"/>
<path d="M554.881 424.031C555.05 424.067 555.287 423.139 554.792 422.137C554.297 421.135 553.424 420.751 553.349 420.907C553.249 421.061 553.82 421.592 554.215 422.42C554.628 423.239 554.697 424.017 554.881 424.031Z" fill="#263238"/>
<path d="M561.206 413.047C561.287 413.214 562.129 412.941 563.175 412.99C564.221 413.018 565.041 413.351 565.134 413.19C565.234 413.054 564.434 412.39 563.198 412.347C561.962 412.304 561.113 412.904 561.206 413.047Z" fill="#263238"/>
<path d="M566.247 195.06C566.247 195.06 575.881 205.171 580.937 217.616C585.993 230.061 583.772 289.977 583.772 289.977L582.713 321.389C582.713 321.389 584.238 348.389 583.071 367.636C581.904 386.883 580.596 408.212 580.596 408.212L559.596 409.22L537.308 245.981L542.883 321.263C546.431 340.463 546.013 374.333 545.326 409.196L523.079 409.22C523.079 409.22 515.417 357.114 513.67 344.737C511.696 330.749 505.876 292.274 505.876 292.274C505.876 292.274 501.393 255.458 502.949 235.624C504.505 215.79 516.321 188.059 516.713 186.894L564.213 195.45" fill="#263238"/>
<path d="M568.671 189.786L574.244 204.61C574.244 204.61 615.656 262.386 614.453 267.201C613.25 272.016 590.68 290.673 584.06 287.663C577.44 284.653 560.287 272.316 554.569 259.978C548.851 247.64 532.602 213.035 532.602 213.035L527.486 203.405L533.204 199.493L568.671 189.786Z" fill="#455A64"/>
<path d="M516.337 187.723C521.355 190.415 520.822 198.832 525.837 201.523C517.464 213.248 514.6 228.012 513.459 242.374C512.318 256.736 512.673 271.283 509.793 285.4L499.393 284.669C497.636 256.895 500.633 229.025 508.257 202.26C509.787 196.853 512.553 191.877 516.337 187.723Z" fill="#455A64"/>
<path d="M556.848 212.034C557.741 211.934 558.62 211.733 559.468 211.434C563.621 210.201 567.615 208.484 571.368 206.319C572.168 205.911 572.92 205.412 573.607 204.833C572.771 205.155 571.962 205.543 571.188 205.994C569.719 206.746 567.673 207.752 565.362 208.747C563.051 209.742 560.913 210.532 559.356 211.081C558.496 211.332 557.657 211.65 556.848 212.034Z" fill="#263238"/>
<g opacity="0.2">
<g opacity="0.2">
<g opacity="0.2">
<path opacity="0.2" d="M583.706 256.021L584.706 256.094C581.204 259.578 576.73 261.92 571.872 262.813C567.014 263.705 562 263.106 557.489 261.094C554.453 259.67 551.437 257.038 551.573 253.688C561.882 257.326 572.979 258.131 583.706 256.021Z" fill="black"/>
</g>
</g>
</g>
<path d="M531.987 203.445C535.858 202.734 543.287 204.76 546.011 207.605C548.735 210.45 550.364 214.147 551.704 217.847C554.609 225.867 556.676 234.747 562.98 240.495C568.91 245.895 577.339 247.349 585.27 248.569C585.485 251.498 585.451 254.988 583.041 256.669C582.305 257.133 581.495 257.469 580.647 257.662C578.289 258.312 575.876 258.741 573.439 258.941C562.148 259.868 550.187 255.323 543.56 246.134C535.177 234.512 534.515 220.547 529.774 207.025" fill="#455A64"/>
<path d="M529.774 207.023C529.8 207.168 529.838 207.311 529.888 207.45C529.981 207.75 530.108 208.16 530.272 208.686C530.621 209.767 531.094 211.377 531.654 213.463C532.214 215.549 532.846 218.115 533.57 221.099C534.294 224.083 535.113 227.486 536.254 231.187C537.445 235.249 539.102 239.16 541.193 242.84C542.355 244.9 543.729 246.832 545.293 248.605C546.97 250.474 548.876 252.124 550.966 253.517C555.49 256.473 560.632 258.352 565.996 259.008C568.823 259.36 571.681 259.388 574.514 259.093C575.959 258.936 577.395 258.698 578.814 258.381C579.53 258.223 580.241 258.041 580.953 257.841C581.692 257.655 582.4 257.361 583.053 256.969C583.728 256.523 584.285 255.919 584.673 255.209C585.038 254.516 585.289 253.768 585.417 252.995C585.636 251.523 585.672 250.031 585.526 248.55L585.512 248.35L585.312 248.319C580.012 247.503 574.821 246.624 570.199 244.687C567.931 243.771 565.813 242.52 563.915 240.976C562.125 239.475 560.572 237.714 559.306 235.751C557.073 232.051 555.299 228.093 554.024 223.964C552.899 220.373 551.578 216.847 550.066 213.401C549.366 211.914 548.52 210.5 547.543 209.179C547.086 208.577 546.594 208.003 546.068 207.46C545.556 206.962 544.988 206.526 544.375 206.16C542.353 204.991 540.153 204.162 537.862 203.707C536.432 203.385 534.968 203.236 533.502 203.264C532.993 203.271 532.486 203.333 531.99 203.45C531.995 203.484 532.509 203.368 533.504 203.361C534.959 203.374 536.407 203.551 537.822 203.891C540.079 204.374 542.243 205.218 544.231 206.391C544.821 206.752 545.368 207.179 545.86 207.666C546.372 208.204 546.851 208.771 547.295 209.366C548.249 210.677 549.072 212.079 549.754 213.55C551.237 216.993 552.534 220.514 553.638 224.097C554.905 228.264 556.679 232.26 558.921 235.994C560.206 238.001 561.786 239.803 563.609 241.338C565.54 242.918 567.698 244.198 570.009 245.138C574.7 247.112 579.927 248 585.235 248.821L585.018 248.587C585.161 250.024 585.128 251.474 584.918 252.903C584.835 253.624 584.601 254.32 584.233 254.945C583.865 255.571 583.371 256.113 582.781 256.536C581.499 257.183 580.127 257.635 578.712 257.878C577.31 258.189 575.892 258.423 574.464 258.578C571.67 258.871 568.852 258.845 566.064 258.502C560.774 257.861 555.701 256.019 551.233 253.116C549.172 251.75 547.29 250.131 545.633 248.296C544.084 246.55 542.722 244.648 541.568 242.619C539.478 238.973 537.813 235.098 536.607 231.072C535.448 227.393 534.607 223.998 533.855 221.023C533.103 218.048 532.455 215.482 531.855 213.404C531.255 211.326 530.76 209.72 530.378 208.647C530.194 208.128 530.051 207.723 529.946 207.426C529.899 207.287 529.842 207.153 529.774 207.023Z" fill="#263238"/>
<path d="M576.43 258.394C575.757 256.567 575.511 254.61 575.712 252.674C575.913 250.737 576.555 248.873 577.589 247.223C577.127 247.592 576.754 248.06 576.498 248.592C575.789 249.83 575.347 251.202 575.2 252.621C575.053 254.039 575.204 255.473 575.643 256.83C575.785 257.404 576.054 257.938 576.43 258.394Z" fill="#263238"/>
<path d="M576.146 251.188C579.074 251.73 582.055 251.931 585.03 251.788C582.102 251.247 579.121 251.046 576.146 251.188Z" fill="#263238"/>
<path d="M575.312 254.417C578.366 254.824 581.456 254.889 584.525 254.61C581.471 254.203 578.381 254.138 575.312 254.417Z" fill="#263238"/>
<path d="M522.472 205.957C515.539 212.216 512.947 222.14 513.201 231.477C513.455 240.814 516.168 249.877 518.254 258.986C520.34 268.095 521.803 277.648 519.561 286.716L528.451 287.994C532.065 284.118 534.813 279.517 536.512 274.497C538.21 269.477 538.821 264.152 538.303 258.878C537.391 250.171 533.437 242.129 530.603 233.847C527.769 225.565 526.088 216.223 529.66 208.231" fill="#455A64"/>
<path d="M529.659 208.227C529.587 208.352 529.526 208.482 529.475 208.616L528.984 209.782C528.433 211.313 528.035 212.895 527.795 214.504C527.451 217.064 527.423 219.656 527.713 222.222C528.107 225.623 528.834 228.977 529.886 232.235C531.027 235.866 532.575 239.735 534.126 243.929C535.88 248.351 537.15 252.949 537.912 257.645C538.616 262.869 538.183 268.185 536.642 273.226C535.005 278.667 532.138 283.658 528.264 287.813L528.488 287.735L524.119 287.109L519.598 286.461L519.811 286.777C521.062 281.179 521.284 275.401 520.467 269.724C519.736 264.485 518.696 259.294 517.351 254.178C516.151 249.286 515.013 244.646 514.292 240.247C513.574 236.184 513.282 232.057 513.421 227.933C513.583 221.958 515.285 216.127 518.36 211.002C519.222 209.638 520.205 208.355 521.298 207.169L522.182 206.275C522.287 206.177 522.384 206.071 522.472 205.957C522.357 206.042 522.248 206.136 522.147 206.237C521.924 206.447 521.618 206.737 521.226 207.1C520.094 208.265 519.08 209.538 518.196 210.9C515.03 216.028 513.262 221.895 513.067 227.918C512.902 232.068 513.174 236.225 513.879 240.318C514.585 244.741 515.711 249.398 516.897 254.292C518.224 259.394 519.25 264.57 519.972 269.792C520.773 275.409 520.549 281.124 519.311 286.661L519.244 286.937L519.525 286.977L524.046 287.626L528.415 288.251L528.547 288.27L528.638 288.17C532.566 283.955 535.468 278.89 537.12 273.37C538.675 268.26 539.103 262.873 538.375 257.581C537.596 252.854 536.302 248.227 534.518 243.781C532.946 239.588 531.382 235.732 530.225 232.126C529.16 228.894 528.413 225.567 527.992 222.19C527.684 219.646 527.684 217.073 527.992 214.529C528.211 212.927 528.576 211.349 529.083 209.814C529.271 209.314 529.419 208.921 529.526 208.634C529.621 208.369 529.659 208.227 529.659 208.227Z" fill="#263238"/>
<path d="M521.013 279.56C525.16 279.152 529.345 279.713 533.239 281.198C532.755 280.807 532.203 280.507 531.612 280.313C528.828 279.172 525.798 278.766 522.812 279.134C522.191 279.166 521.582 279.31 521.013 279.56Z" fill="#263238"/>
<path d="M526.187 287.756C527.725 285.497 528.973 283.053 529.901 280.482C528.363 282.741 527.115 285.185 526.187 287.756Z" fill="#263238"/>
<path d="M521.542 287.094C522.974 284.649 524.104 282.038 524.905 279.32C523.473 281.765 522.344 284.376 521.542 287.094Z" fill="#263238"/>
<path d="M534.3 203.052C534.361 203.071 534.507 202.858 534.58 202.452C534.657 201.923 534.585 201.383 534.374 200.892C534.162 200.401 533.818 199.979 533.38 199.672C533.038 199.449 532.78 199.409 532.755 199.467C532.686 199.597 533.485 200.088 533.903 201.096C534.348 202.094 534.158 203.013 534.3 203.052Z" fill="#263238"/>
<path d="M522.742 200.885C523.942 198.998 526.784 198.362 529.005 198.096C530.372 198.046 531.708 198.512 532.748 199.401C533.788 200.29 534.456 201.538 534.619 202.896C534.696 204.264 534.305 205.617 533.51 206.733C532.715 207.849 531.564 208.661 530.246 209.035C528.912 209.348 527.513 209.247 526.238 208.746C524.962 208.245 523.869 207.367 523.105 206.229C522.549 205.462 522.219 204.554 522.155 203.609C522.091 202.664 522.294 201.72 522.742 200.885Z" fill="#455A64"/>
<path d="M527.729 199.148C527.697 199.106 527.101 199.532 526.546 200.548C525.814 201.888 525.627 203.458 526.022 204.933C526.417 206.408 527.365 207.674 528.669 208.468C529.17 208.84 529.77 209.055 530.393 209.087C530.421 209.003 529.749 208.807 528.872 208.166C527.717 207.355 526.884 206.163 526.518 204.8C526.153 203.437 526.278 201.988 526.872 200.708C527.311 199.712 527.795 199.206 527.729 199.148Z" fill="#263238"/>
<path d="M523.301 200.174C523.256 200.138 522.913 200.447 522.586 201.107C522.181 201.983 522.021 202.952 522.123 203.911C522.224 204.871 522.583 205.785 523.162 206.557C523.62 207.134 524.02 207.364 524.062 207.319C524.118 207.258 523.817 206.938 523.462 206.351C523.01 205.589 522.728 204.738 522.635 203.857C522.542 202.976 522.64 202.085 522.922 201.245C523.142 200.594 523.369 200.222 523.301 200.174Z" fill="#263238"/>
<g opacity="0.2">
<g opacity="0.2">
<g opacity="0.2">
<path opacity="0.2" d="M522.621 205.945C523.472 206.899 524.512 207.665 525.675 208.195C526.838 208.725 528.099 209.007 529.377 209.023C529.029 209.675 528.53 210.234 527.922 210.655C527.314 211.075 526.615 211.344 525.882 211.44C525.221 211.483 524.562 211.342 523.977 211.033C523.391 210.724 522.903 210.259 522.565 209.69C522.227 209.121 522.054 208.469 522.064 207.807C522.074 207.145 522.267 206.499 522.621 205.94V205.945Z" fill="black"/>
</g>
</g>
</g>
<g opacity="0.2">
<g opacity="0.2">
<g opacity="0.2">
<path opacity="0.2" d="M554.258 214.654C555.278 213.611 556.561 212.865 557.971 212.493C563.122 210.633 568.678 207.451 573.828 205.593C569.128 209.76 564.041 214.676 558.651 217.899C557.351 218.677 555.651 219.418 554.414 218.536C553.233 217.694 553.345 215.782 554.258 214.654Z" fill="black"/>
</g>
</g>
</g>
<g opacity="0.2">
<g opacity="0.2">
<g opacity="0.2">
<path opacity="0.2" d="M511.595 223.917C512.395 217.731 515.257 211.627 520.248 207.885C517.565 212.773 514.848 217.745 513.648 223.19C512.332 229.172 513.299 232.996 513.894 239.09L513.321 242.094C511.512 236.216 510.925 230.03 511.595 223.917Z" fill="black"/>
</g>
</g>
</g>
<path d="M557.039 218.935C557.324 218.845 557.593 218.713 557.839 218.543C558.339 218.264 559.039 217.831 559.896 217.271C564.342 214.329 568.393 210.83 571.95 206.86C572.629 206.097 573.16 205.46 573.508 205.011C573.711 204.793 573.879 204.545 574.008 204.277C573.187 205.009 572.409 205.789 571.68 206.612C570.264 208.07 568.259 210.035 565.915 212.062C563.571 214.089 561.333 215.782 559.685 216.971C558.765 217.573 557.882 218.229 557.039 218.935Z" fill="#263238"/>
<path d="M531.601 69.304C530.101 66.633 531.033 63.048 533.245 60.933C535.587 58.9058 538.635 57.8848 541.726 58.092C544.783 58.3128 547.797 58.9351 550.691 59.943C551.791 58.508 553.267 57.4063 554.956 56.7608C556.645 56.1152 558.48 55.9509 560.257 56.2864C562.034 56.6218 563.682 57.4437 565.019 58.6606C566.357 59.8776 567.33 61.4417 567.831 63.179C568.881 62.7628 570.025 62.6411 571.14 62.8269C572.254 63.0127 573.296 63.4991 574.155 64.2335C575.013 64.9679 575.655 65.9227 576.011 66.9948C576.367 68.067 576.424 69.216 576.175 70.318L563.215 76.85L551.769 104.86C549.82 107.015 547.154 108.388 544.268 108.722C541.381 109.055 538.472 108.327 536.083 106.672C533.695 105.018 531.99 102.551 531.287 99.7312C530.584 96.9118 530.931 93.933 532.264 91.351C531.338 90.7195 530.521 89.9405 529.847 89.045C528.571 88.4994 527.416 87.7058 526.449 86.7101C525.482 85.7144 524.722 84.5366 524.214 83.245C522.179 77.673 525.851 70.745 531.601 69.304Z" fill="#263238"/>
<path d="M547.734 119.857C547.779 118.304 547.916 116.755 548.145 115.218C548.145 115.218 539.734 113.139 538.834 101.884C538.387 96.284 539.371 87.243 540.416 79.869C541.356 73.232 546.416 65.394 553.003 66.614L573.346 73.476C575.346 73.847 575.919 75.608 575.721 77.635L575.814 78.598L572.367 110.362L571.301 119.9C570.67 125.937 565.247 132.079 559.177 131.989C557.61 132.007 556.057 131.7 554.614 131.087C553.172 130.475 551.872 129.57 550.797 128.43C549.722 127.29 548.895 125.94 548.368 124.464C547.84 122.989 547.625 121.42 547.734 119.857Z" fill="#FFBE9D"/>
<path d="M542.539 90.031C542.506 90.4024 542.62 90.7719 542.856 91.0606C543.092 91.3493 543.431 91.5346 543.802 91.577C543.982 91.6055 544.166 91.5977 544.343 91.554C544.521 91.5103 544.687 91.4315 544.834 91.3224C544.98 91.2133 545.103 91.076 545.195 90.9186C545.288 90.7612 545.348 90.5869 545.372 90.406C545.405 90.0347 545.291 89.6653 545.056 89.3764C544.82 89.0875 544.481 88.9018 544.111 88.859C543.93 88.8303 543.746 88.838 543.569 88.8818C543.391 88.9255 543.224 89.0043 543.078 89.1135C542.931 89.2227 542.808 89.3602 542.715 89.5178C542.623 89.6753 542.563 89.8498 542.539 90.031Z" fill="#263238"/>
<path d="M542.284 85.866C542.446 86.066 543.584 85.35 545.122 85.474C546.656 85.574 547.722 86.452 547.902 86.274C547.99 86.197 547.836 85.847 547.374 85.452C546.746 84.9398 545.974 84.6345 545.166 84.578C544.368 84.5134 543.571 84.7043 542.889 85.123C542.389 85.452 542.203 85.776 542.284 85.866Z" fill="#263238"/>
<path d="M555.761 90.8C555.728 91.1714 555.842 91.5409 556.078 91.8296C556.314 92.1184 556.653 92.3036 557.024 92.346C557.204 92.3745 557.388 92.3667 557.565 92.323C557.743 92.2793 557.909 92.2005 558.056 92.0914C558.202 91.9823 558.325 91.845 558.417 91.6876C558.51 91.5302 558.57 91.3559 558.594 91.175C558.626 90.8036 558.512 90.4342 558.277 90.1453C558.041 89.8564 557.702 89.6708 557.332 89.628C557.151 89.5995 556.967 89.6073 556.79 89.6511C556.612 89.6949 556.446 89.7737 556.299 89.8829C556.153 89.9921 556.03 90.1295 555.937 90.287C555.845 90.4445 555.785 90.6189 555.761 90.8Z" fill="#263238"/>
<path d="M556.957 86.714C557.12 86.914 558.264 86.199 559.797 86.323C561.331 86.423 562.397 87.301 562.576 87.123C562.664 87.046 562.513 86.697 562.048 86.301C561.42 85.7894 560.649 85.4845 559.841 85.428C559.043 85.3632 558.245 85.5537 557.563 85.972C557.065 86.3 556.878 86.624 556.957 86.714Z" fill="#263238"/>
<path d="M550.621 97.144C549.832 96.8286 549.006 96.6126 548.164 96.501C547.775 96.43 547.411 96.323 547.364 96.051C547.362 95.6435 547.484 95.245 547.715 94.909C548.157 93.9903 548.622 93.0263 549.107 92.017C551.046 87.894 552.483 84.492 552.317 84.417C552.151 84.342 550.442 87.617 548.502 91.741C548.034 92.759 547.585 93.728 547.159 94.656C546.875 95.1095 546.761 95.6485 546.836 96.178C546.882 96.3206 546.96 96.4509 547.064 96.5589C547.168 96.6668 547.295 96.7496 547.436 96.801C547.648 96.8764 547.869 96.9248 548.094 96.945C548.924 97.1184 549.773 97.1853 550.621 97.144Z" fill="#263238"/>
<path d="M548.145 115.218C553.374 115.706 558.636 114.732 563.345 112.406C563.345 112.406 558.978 119.96 547.932 118.053L548.145 115.218Z" fill="#F99B6B"/>
<path d="M557.27 82.55C557.425 82.968 558.96 82.758 560.77 82.961C562.582 83.128 564.042 83.646 564.278 83.268C564.384 83.088 564.127 82.697 563.535 82.296C562.745 81.8051 561.854 81.5007 560.929 81.406C560.005 81.3112 559.07 81.4285 558.198 81.749C557.535 82.021 557.203 82.353 557.27 82.55Z" fill="#263238"/>
<path d="M542.586 81.385C542.878 81.758 544.157 81.494 545.662 81.594C547.169 81.649 548.42 82.044 548.742 81.703C548.884 81.536 548.711 81.171 548.18 80.803C547.445 80.3317 546.598 80.0671 545.726 80.037C544.86 79.9763 543.993 80.1526 543.22 80.547C542.661 80.859 542.458 81.204 542.586 81.385Z" fill="#263238"/>
<path d="M567.707 66.894C567.626 68.0116 567.301 69.0978 566.753 70.0753C566.205 71.0528 565.449 71.8978 564.538 72.55C563.627 73.2023 562.583 73.6459 561.481 73.8493C560.379 74.0527 559.246 74.0109 558.162 73.727C556.487 73.287 554.69 72.288 553.151 73.082C551.532 73.916 551.292 76.243 549.83 77.33C547.741 78.883 544.745 77.051 542.201 77.6C540.236 78.025 538.901 79.771 537.501 81.22C536.101 82.669 534.084 83.993 532.201 83.277C532.388 81.5483 532.774 79.847 533.352 78.207C533.94 76.5554 535.08 75.1576 536.58 74.25C537.455 73.8788 538.311 73.4636 539.145 73.006C540.838 71.839 541.377 69.626 542.498 67.906C543.233 66.7985 544.222 65.8822 545.382 65.233C546.542 64.5838 547.84 64.2204 549.169 64.173C551.369 64.115 553.578 64.942 555.751 64.566C557.357 64.288 558.811 63.366 560.431 63.187C563.585 62.831 566.307 65.281 568.393 67.674" fill="#263238"/>
<path d="M557.421 70.563C558.845 70.27 561.766 69.583 562.605 68.431C563.454 67.1876 564.617 66.1906 565.975 65.5408C567.333 64.8911 568.839 64.6117 570.34 64.731C571.845 64.9644 573.234 65.6787 574.3 66.767C575.365 67.8553 576.05 69.2593 576.251 70.769C578.064 70.9714 579.789 71.659 581.244 72.7595C582.699 73.8599 583.831 75.3325 584.519 77.022C585.225 78.792 585.489 80.707 585.291 82.6021C585.092 84.4972 584.436 86.3157 583.379 87.901C582.873 88.7354 582.425 89.6042 582.04 90.501C582.83 91.2573 583.546 92.087 584.179 92.979C587.134 97.763 581.155 100.518 581.155 100.518C581.581 103.937 578.43 104.33 576.408 104.582C574.464 104.824 573.968 110.366 572.369 110.36L571.807 93.515C571.583 93.6346 571.34 93.7122 571.088 93.744C567.288 94.307 567.347 86.973 568.339 84.949C567.016 83.691 565.857 82.2715 564.888 80.724C563.869 78.2993 563.474 75.6576 563.741 73.041C562.386 73.02 556.794 70.694 557.421 70.563Z" fill="#263238"/>
<path d="M571.351 94.473C571.412 93.9265 571.61 93.4043 571.927 92.9552C572.244 92.5061 572.67 92.1448 573.165 91.9051C573.66 91.6654 574.208 91.555 574.757 91.5844C575.306 91.6137 575.838 91.7818 576.305 92.073C577.382 92.809 578.144 94.183 577.85 96.687C577.068 103.364 570.526 101.201 570.536 101.008C570.543 100.887 571.002 97.232 571.351 94.473Z" fill="#FFBE9D"/>
<path d="M572.873 98.716C572.905 98.698 572.98 98.816 573.166 98.925C573.429 99.0755 573.739 99.1185 574.033 99.045C574.496 98.8216 574.891 98.4791 575.178 98.0527C575.466 97.6262 575.634 97.1311 575.667 96.618C575.751 96.0487 575.707 95.4679 575.537 94.918C575.5 94.7012 575.41 94.4968 575.276 94.3225C575.142 94.1483 574.967 94.0094 574.767 93.918C574.637 93.8677 574.494 93.8639 574.362 93.9073C574.23 93.9507 574.117 94.0386 574.043 94.156C573.931 94.333 573.958 94.471 573.922 94.478C573.901 94.493 573.791 94.349 573.877 94.078C573.934 93.9174 574.044 93.7809 574.189 93.691C574.388 93.5716 574.626 93.5356 574.852 93.591C575.12 93.6774 575.361 93.8311 575.553 94.0373C575.744 94.2436 575.88 94.4955 575.946 94.769C576.162 95.3804 576.226 96.0354 576.131 96.677C576.094 97.2753 575.881 97.8494 575.519 98.3272C575.157 98.8049 574.662 99.1649 574.096 99.362C573.911 99.3933 573.721 99.3826 573.54 99.3307C573.36 99.2788 573.193 99.1869 573.053 99.062C572.866 98.879 572.848 98.726 572.873 98.716Z" fill="#F99B6B"/>
<path d="M535.491 89.94C535.524 89.886 534.847 89.564 533.891 88.662C532.558 87.3673 531.63 85.7128 531.22 83.9C530.922 82.6643 530.88 81.3805 531.097 80.128C531.349 78.6978 531.982 77.3621 532.93 76.262C534.037 75.0188 535.45 74.0875 537.03 73.5611C538.609 73.0347 540.298 72.9316 541.93 73.262C542.246 73.319 542.545 73.435 542.847 73.516C543.14 73.624 543.42 73.751 543.695 73.862L544.122 74.035L544.071 73.591C543.98 72.8118 544.171 72.0258 544.609 71.375C545.047 70.7345 545.622 70.1992 546.292 69.808C547.584 69.063 549.083 68.756 550.564 68.933C553.418 69.202 555.935 70.165 558.189 70.133C559.965 70.2053 561.704 69.6147 563.069 68.476C563.416 68.1505 563.704 67.7676 563.921 67.344C563.998 67.1977 564.054 67.0416 564.088 66.88C563.784 67.4215 563.396 67.911 562.938 68.33C561.579 69.3629 559.895 69.8748 558.191 69.773C557.009 69.7124 555.837 69.5329 554.691 69.237C553.347 68.8868 551.981 68.6275 550.602 68.461C549.836 68.3825 549.062 68.405 548.302 68.528C547.502 68.6762 546.734 68.9613 546.032 69.371C545.292 69.7983 544.656 70.386 544.173 71.091C543.665 71.8456 543.443 72.7572 543.548 73.661L543.923 73.39C543.631 73.27 543.332 73.134 543.023 73.019C542.702 72.931 542.382 72.81 542.046 72.747C540.324 72.3955 538.539 72.5064 536.873 73.0685C535.207 73.6306 533.72 74.6237 532.563 75.947C531.568 77.1181 530.911 78.5384 530.663 80.055C530.454 81.3658 530.519 82.7057 530.854 83.99C531.31 85.8545 532.321 87.5366 533.754 88.814C534.137 89.1592 534.558 89.4592 535.009 89.708C535.159 89.8062 535.321 89.8842 535.491 89.94Z" fill="#455A64"/>
<path d="M533.859 67.06C534.467 66.631 535.138 66.2987 535.848 66.075C536.663 65.8518 537.518 65.8176 538.348 65.975C539.419 66.1607 540.399 66.6955 541.134 67.496L541.426 67.819L541.526 67.397C541.892 66.0948 542.597 64.9134 543.57 63.9741C544.543 63.0348 545.749 62.3714 547.063 62.052C549.148 61.7005 551.291 62.0294 553.175 62.99C554.77 63.7606 556.44 64.367 558.158 64.8C559.339 65.0806 560.572 65.0659 561.746 64.757C562.059 64.6637 562.361 64.5366 562.646 64.378C562.839 64.263 562.934 64.195 562.925 64.178C562.903 64.133 562.494 64.369 561.69 64.556C560.544 64.7765 559.362 64.7348 558.234 64.434C556.555 63.9537 554.923 63.3196 553.36 62.54C552.398 62.1068 551.395 61.7689 550.367 61.531C549.238 61.276 548.065 61.278 546.937 61.537C545.532 61.8759 544.244 62.59 543.213 63.6029C542.181 64.6159 541.444 65.8899 541.079 67.289L541.47 67.189C540.657 66.331 539.578 65.7728 538.408 65.605C537.523 65.4628 536.617 65.5348 535.766 65.815C535.222 65.9907 534.713 66.2634 534.266 66.62C533.978 66.885 533.844 67.046 533.859 67.06Z" fill="#455A64"/>
<path d="M551.584 100.385C551.796 100.145 552.059 99.9546 552.352 99.8266C552.646 99.6986 552.964 99.6363 553.284 99.644C553.647 99.6742 553.999 99.7802 554.318 99.9552C554.638 100.13 554.917 100.37 555.137 100.66C555.148 100.671 555.158 100.683 555.168 100.694C555.188 100.721 555.216 100.742 555.234 100.769L555.208 100.756C555.38 100.963 555.481 101.221 555.495 101.49C555.483 101.791 555.397 102.085 555.245 102.346C555.093 102.606 554.879 102.826 554.622 102.984C554.226 103.255 553.755 103.396 553.275 103.389C552.795 103.382 552.329 103.227 551.941 102.945C551.57 102.642 551.326 102.21 551.26 101.735C551.194 101.26 551.31 100.778 551.584 100.385Z" fill="#F99B6B"/>
<path d="M555.552 99.129C555.464 99.107 555.332 99.459 554.998 99.922C554.587 100.529 554.001 100.997 553.318 101.262C552.635 101.527 551.887 101.577 551.174 101.406C550.616 101.288 550.281 101.118 550.231 101.194C550.186 101.252 550.451 101.564 551.049 101.811C551.847 102.128 552.735 102.132 553.535 101.822C554.336 101.511 554.989 100.909 555.364 100.137C555.639 99.551 555.621 99.142 555.552 99.129Z" fill="#263238"/>
<path d="M581.272 80.688C581.381 80.6275 581.482 80.5536 581.572 80.468C581.838 80.2365 582.088 79.988 582.322 79.724C583.2 78.7506 583.82 77.5717 584.122 76.296C584.322 75.4045 584.32 74.4796 584.116 73.589C583.886 72.5555 583.366 71.6093 582.616 70.862C582.198 70.4486 581.702 70.1224 581.157 69.9023C580.611 69.6822 580.028 69.5726 579.44 69.58C578.804 69.5682 578.174 69.7036 577.599 69.9758C577.025 70.248 576.521 70.6496 576.127 71.149L576.435 71.311L576.459 71.239C577.321 68.972 577.253 66.4562 576.27 64.239C575.857 63.3414 575.23 62.5587 574.444 61.9592C573.658 61.3598 572.738 60.9618 571.763 60.8C571.106 60.7181 570.438 60.7689 569.801 60.9496C569.163 61.1304 568.569 61.4372 568.052 61.852C567.777 62.0794 567.534 62.3436 567.331 62.637C567.259 62.7381 567.199 62.848 567.154 62.964C567.442 62.5924 567.772 62.2551 568.137 61.959C569.169 61.1963 570.46 60.8692 571.731 61.048C572.656 61.2199 573.525 61.613 574.264 62.1937C575.004 62.7745 575.592 63.5256 575.978 64.383C576.905 66.5261 576.957 68.9465 576.125 71.128L576.102 71.198L575.763 72.234L576.411 71.36C576.773 70.9048 577.234 70.5388 577.76 70.2903C578.285 70.0418 578.861 69.9175 579.442 69.927C579.986 69.9176 580.527 70.0163 581.033 70.2173C581.539 70.4183 582 70.7176 582.39 71.098C583.102 71.7986 583.6 72.6866 583.828 73.659C584.034 74.5074 584.05 75.3907 583.875 76.246C583.598 77.4934 583.027 78.6564 582.209 79.638C581.64 80.338 581.249 80.663 581.272 80.688Z" fill="#263238"/>
<path d="M485.432 142.081L491.914 166.568C492.088 167.227 492.479 167.808 493.023 168.219C493.567 168.63 494.232 168.846 494.914 168.834L528.48 168.174C528.928 168.165 529.369 168.058 529.77 167.859C530.172 167.66 530.525 167.375 530.804 167.024C531.083 166.674 531.281 166.266 531.384 165.829C531.487 165.393 531.492 164.94 531.4 164.501L526.457 141.049C526.313 140.365 525.938 139.752 525.395 139.312C524.853 138.872 524.175 138.632 523.477 138.632H488.087C487.666 138.632 487.251 138.728 486.874 138.914C486.497 139.1 486.167 139.37 485.91 139.703C485.654 140.036 485.477 140.424 485.394 140.836C485.311 141.249 485.324 141.674 485.432 142.081Z" fill="#263238"/>
<path d="M482.609 147.612C482.268 147.18 482.081 146.646 482.078 146.095C482.076 145.544 482.257 145.009 482.594 144.573C482.945 144.149 483.385 143.807 483.883 143.571C484.381 143.336 484.924 143.213 485.475 143.211C486.576 143.216 487.664 143.443 488.675 143.877C489.942 144.361 491.159 144.968 492.308 145.689C492.74 145.897 493.124 146.193 493.435 146.558C493.747 146.922 493.979 147.347 494.118 147.806C494.277 148.75 493.25 149.828 492.418 149.354C493.002 149.601 493.519 149.983 493.927 150.469C494.335 150.954 494.622 151.53 494.764 152.148C494.937 153.343 494.299 153.986 493.141 154.33C493.581 154.5 493.937 154.837 494.132 155.267C494.326 155.697 494.344 156.187 494.181 156.63C493.916 157.051 493.509 157.363 493.033 157.508C492.558 157.653 492.046 157.622 491.591 157.42C490.693 156.985 489.918 156.334 489.333 155.526C489.996 156.672 490.224 158.019 489.977 159.32C488.701 158.864 487.575 158.068 486.719 157.018C485.864 155.967 485.312 154.703 485.124 153.361C484.509 152.871 484.08 152.185 483.911 151.417C483.741 150.649 483.84 149.846 484.192 149.143C483.604 148.885 483.096 148.473 482.723 147.95C482.35 147.427 482.126 146.813 482.074 146.173" fill="#FFBE9D"/>
<path d="M493.121 154.341C492.733 154.086 492.364 153.804 492.016 153.496C491.167 152.79 490.172 152.281 489.103 152.006C488.52 151.873 487.914 151.873 487.331 152.006C486.858 152.123 486.416 152.344 486.038 152.652C485.701 152.957 485.416 153.316 485.196 153.714C485.197 153.585 485.232 153.458 485.296 153.346C485.441 153.026 485.649 152.739 485.908 152.503C486.295 152.15 486.761 151.894 487.267 151.757C487.889 151.597 488.541 151.587 489.167 151.73C490.279 152.009 491.304 152.563 492.146 153.341C492.514 153.63 492.841 153.966 493.121 154.341Z" fill="#65463C"/>
<path d="M492.84 149.47C492.371 149.339 491.921 149.151 491.498 148.91C491.032 148.678 490.556 148.47 490.069 148.286C489.47 148.079 488.855 147.92 488.231 147.81C487.615 147.693 486.983 147.687 486.365 147.792C485.865 147.886 485.393 148.091 484.982 148.392C484.613 148.688 484.307 149.054 484.082 149.47C484.085 149.336 484.123 149.204 484.19 149.088C484.348 148.758 484.578 148.467 484.863 148.237C485.284 147.891 485.782 147.651 486.315 147.537C486.964 147.41 487.631 147.408 488.281 147.532C488.923 147.645 489.552 147.815 490.163 148.042C490.654 148.24 491.131 148.471 491.591 148.732C492.024 148.948 492.442 149.195 492.84 149.47Z" fill="#65463C"/>
<path d="M507.507 150.473L507.694 150.444C508.121 150.403 508.547 150.529 508.882 150.797C509.217 151.065 509.434 151.453 509.488 151.879C509.541 152.304 509.427 152.734 509.169 153.076C508.91 153.419 508.529 153.647 508.105 153.713C507.681 153.779 507.249 153.677 506.899 153.428C506.549 153.18 506.31 152.805 506.232 152.384C506.154 151.962 506.244 151.526 506.482 151.17C506.72 150.813 507.088 150.563 507.507 150.473Z" fill="white"/>
<path d="M540.121 142.054C540.121 142.054 536.561 135.107 535.508 135.514C534.455 135.921 533.076 135.946 533.75 138.573C534.424 141.2 536.171 143.007 536.07 145.073C535.969 147.139 534.351 151.76 536.145 153.915C537.939 156.07 540.97 162.553 540.97 162.553L548.858 154.517L547.094 151.929C547.094 151.929 550.051 147.829 550.628 145.446C550.915 143.528 550.816 141.573 550.337 139.694C550.436 138.462 550.134 137.231 549.477 136.185C549.596 135.128 549.649 134.065 549.634 133.002C549.599 131.393 545.449 124.761 545.449 124.761C544.867 124.985 544.395 125.426 544.132 125.991C543.869 126.556 543.835 127.201 544.037 127.791C544.485 129.194 545.031 130.565 545.672 131.891L540.827 130.046C540.653 130.375 540.549 130.735 540.522 131.106C540.494 131.477 540.543 131.849 540.666 132.2C540.788 132.551 540.982 132.872 541.235 133.145C541.488 133.417 541.794 133.634 542.135 133.783C544.707 135.172 545.108 136.34 545.108 136.34L541.422 136.617C541.422 136.617 541.08 138.666 542.557 139.084L544.034 139.501L540.121 142.054Z" fill="#FFBE9D"/>
<path d="M542.272 138.964L545.594 139.68L545.646 139.691L545.669 139.74C546.138 140.651 546.362 141.669 546.319 142.693C546.198 143.93 545.657 145.088 544.786 145.974C543.801 146.843 542.688 147.556 541.486 148.087C540.537 148.527 539.679 149.141 538.957 149.899C538.489 150.423 538.169 151.063 538.033 151.752C537.945 152.243 538.003 152.524 537.972 152.526C537.962 152.526 537.945 152.46 537.923 152.326C537.899 152.13 537.899 151.931 537.923 151.735C538.021 151.008 538.326 150.325 538.801 149.766C539.52 148.965 540.391 148.313 541.362 147.849C542.529 147.316 543.612 146.615 544.576 145.768C545.4 144.929 545.917 143.837 546.046 142.668C546.096 141.688 545.898 140.711 545.47 139.828L545.545 139.889C544.428 139.682 543.332 139.372 542.272 138.964Z" fill="#65463C"/>
<path d="M549.55 139.405C549.418 139.154 549.303 138.894 549.206 138.627C548.906 138.03 548.432 137.537 547.848 137.212C547.252 136.894 546.611 136.667 545.948 136.538C545.662 136.507 545.38 136.437 545.112 136.332C545.399 136.273 545.695 136.273 545.982 136.332C546.688 136.405 547.373 136.617 547.997 136.956C548.342 137.153 548.651 137.408 548.909 137.709C549.116 137.958 549.281 138.238 549.398 138.54C549.526 138.809 549.579 139.108 549.55 139.405Z" fill="#65463C"/>
<path d="M549.121 135.312C549.045 135.356 548.491 134.426 547.549 133.512C546.607 132.598 545.675 132.049 545.718 131.972C546.478 132.277 547.169 132.73 547.753 133.304C548.336 133.878 548.8 134.562 549.118 135.316L549.121 135.312Z" fill="#65463C"/>
<path d="M620.478 36.67C620.663 36.7071 620.852 36.7282 621.041 36.733L622.693 36.854C623.588 36.9075 624.478 37.0264 625.356 37.21C625.877 37.31 626.456 37.357 627.04 37.53L628.921 38.052C632.125 39.0383 635.148 40.5377 637.872 42.492C641.461 45.1062 644.462 48.4449 646.68 52.292C647.977 54.5154 649.012 56.8811 649.767 59.342C650.943 63.4409 651.372 67.7181 651.033 71.969C650.993 72.713 650.833 73.452 650.738 74.204C650.65 74.9623 650.508 75.7133 650.312 76.451C649.222 81.3185 647.011 85.8643 643.854 89.7262C640.697 93.5882 636.682 96.6597 632.129 98.696C628.83 100.12 625.294 100.914 621.703 101.037C618.008 101.235 614.31 100.702 610.821 99.47L609.754 99.079L609.613 99.027L609.486 99.091L594.176 106.863L594.631 107.251C596.266 102.178 597.851 97.259 599.371 92.538L599.429 92.357L599.294 92.221C595.576 88.4804 592.818 83.8956 591.256 78.858C589.852 74.254 589.455 69.402 590.091 64.631C591.102 56.6836 594.992 49.3829 601.025 44.111C603.308 42.189 605.838 40.5795 608.546 39.325C610.59 38.4459 612.719 37.7759 614.898 37.325L617.28 36.92L619.036 36.797L620.113 36.714C620.236 36.7108 620.358 36.695 620.478 36.667C620.356 36.6534 620.233 36.6511 620.111 36.66L619.031 36.69L617.262 36.762L614.862 37.12C612.655 37.5377 610.498 38.1842 608.426 39.049C605.673 40.287 603.099 41.8905 600.774 43.816C597.956 46.2403 595.567 49.1236 593.71 52.344C591.546 56.1088 590.139 60.2598 589.566 64.564C588.9 69.4125 589.287 74.3475 590.7 79.033C592.276 84.1705 595.074 88.849 598.856 92.667L598.78 92.349C597.252 97.067 595.66 101.983 594.018 107.055L593.778 107.797L594.478 107.444L609.792 99.682L609.518 99.691L610.608 100.091C614.176 101.35 617.956 101.893 621.734 101.691C625.403 101.562 629.017 100.748 632.387 99.291C637.028 97.2122 641.119 94.0754 644.33 90.1318C647.541 86.1882 649.784 81.5473 650.88 76.581C651.076 75.8295 651.218 75.0649 651.305 74.293C651.4 73.53 651.56 72.778 651.596 72.021C651.927 67.7008 651.473 63.3564 650.256 59.198C649.479 56.7036 648.414 54.3078 647.084 52.059C644.816 48.1725 641.751 44.8101 638.09 42.193C635.321 40.2406 632.249 38.7583 628.998 37.806L627.098 37.306C626.504 37.141 625.923 37.106 625.398 37.012C624.512 36.8438 623.614 36.7451 622.713 36.717L621.051 36.661C620.86 36.6491 620.668 36.6521 620.478 36.67Z" fill="#E8505B"/>
<path d="M613.556 65.011H615.799L620.699 58.188V53.71C620.699 53.71 624.167 53.498 623.759 59.36C623.351 65.222 623.792 63.731 623.792 63.731C623.792 63.731 631.155 63.759 631.767 64.399C632.211 64.864 632.413 72.177 632.489 76.143C632.536 77.1 632.262 78.0455 631.711 78.8292C631.16 79.6129 630.363 80.1901 629.446 80.469C629.188 80.5371 628.922 80.5731 628.655 80.576C626.818 80.576 617.436 79.083 617.436 79.083H613.561L613.556 65.011Z" fill="#E8505B"/>
<path d="M607.134 63.781L608.514 79.124H612.356V64.09L607.134 63.781Z" fill="#E8505B"/>
</g>
<defs>
<clipPath id="clip0">
<rect width="657.001" height="430.027" fill="white"/>
</clipPath>
</defs>
</svg>
