<svg id="Capa_1" enable-background="new 0 0 479.058 479.058" height="512" viewBox="0 0 479.058 479.058" width="512" xmlns="http://www.w3.org/2000/svg"><path d="m254.499 449.114c-3.377 0-6.725-1.14-9.444-3.348l-239.529-194.617c-3.494-2.85-5.526-7.119-5.526-11.622s2.032-8.772 5.526-11.623l239.529-194.617c4.474-3.626 10.687-4.371 15.877-1.901 5.219 2.485 8.538 7.748 8.538 13.523v105.291c116.87 7.734 209.588 105.276 209.588 224.061v29.941c0 5.848-3.406 11.155-8.713 13.596-5.307 2.456-11.55 1.579-15.994-2.222l-25.234-21.622c-44.809-38.406-101.008-60.906-159.647-64.18v104.37c0 5.775-3.319 11.038-8.538 13.523-2.047.965-4.24 1.448-6.433 1.447zm-215.786-209.587 200.816 163.17v-88.318c0-8.275 6.696-14.971 14.971-14.971 71.139 0 140.071 25.497 194.091 71.797l.512.439c-1.404-106.11-88.157-192-194.602-192-8.275 0-14.971-6.696-14.971-14.971v-88.317c-.001 0-200.817 163.171-200.817 163.171z"/></svg>