<?xml version="1.0" encoding="utf-8"?>
<!-- Generator: Adobe Illustrator 24.2.0, SVG Export Plug-In . SVG Version: 6.00 Build 0)  -->
<svg version="1.1" id="Layer_1" xmlns="http://www.w3.org/2000/svg" xmlns:xlink="http://www.w3.org/1999/xlink" x="0px" y="0px"
	 viewBox="0 0 100 100" style="enable-background:new 0 0 100 100;" xml:space="preserve">
<style type="text/css">
	.st0{fill:#6C89DD;}
	.st1{fill:#1F2CE0;}
	.st2{fill:#FFFFFF;}
</style>
<g>
	<g>
		<path class="st0" d="M90.5,77.2h-4.6c-5.1,0-9.3-4-9.3-8.9V36.7c0-13.5-11.9-24.6-26.6-24.6s-26.6,11-26.6,24.6v31.5
			c0,4.9-4.2,8.9-9.3,8.9H9.4c-1.9,0-3.4-1.5-3.4-3.4s1.5-3.4,3.4-3.4h4.6c1.4,0,2.5-0.9,2.5-2.1V36.7c0-17.3,15-31.4,33.4-31.4
			s33.4,14.1,33.4,31.4v31.5c0,1.2,1.1,2.1,2.5,2.1h4.6c1.9,0,3.4,1.5,3.4,3.4S92.4,77.2,90.5,77.2z"/>
	</g>
	<g>
		<path class="st0" d="M85.9,77.2H14.1c-1.9,0-3.4-1.5-3.4-3.4s1.5-3.4,3.4-3.4h71.8c1.9,0,3.4,1.5,3.4,3.4S87.8,77.2,85.9,77.2z"/>
	</g>
	<g>
		<path class="st0" d="M50,94.7c-6.8,0-12.3-5.3-12.3-11.7c0-1.9,1.5-3.4,3.4-3.4s3.4,1.5,3.4,3.4c0,2.7,2.5,4.9,5.5,4.9
			c3,0,5.5-2.2,5.5-4.9c0-1.9,1.5-3.4,3.4-3.4s3.4,1.5,3.4,3.4C62.3,89.4,56.8,94.7,50,94.7z"/>
	</g>
	<g>
		<g>
			<circle class="st1" cx="76.3" cy="33.2" r="16.4"/>
			<path class="st2" d="M76.3,50.9c-9.8,0-17.7-8-17.7-17.7c0-9.8,8-17.7,17.7-17.7S94,23.4,94,33.2C94,42.9,86.1,50.9,76.3,50.9z
				 M76.3,18.2c-8.3,0-15,6.7-15,15c0,8.3,6.7,15,15,15s15-6.7,15-15C91.3,24.9,84.5,18.2,76.3,18.2z"/>
		</g>
		<g>
			<g>
				<path class="st2" d="M76.3,40.2c-0.8,0-1.4-0.6-1.4-1.4V27.5c0-0.8,0.6-1.4,1.4-1.4c0.8,0,1.4,0.6,1.4,1.4v11.3
					C77.6,39.5,77,40.2,76.3,40.2z"/>
			</g>
			<g>
				<path class="st2" d="M81.9,34.5H70.6c-0.8,0-1.4-0.6-1.4-1.4c0-0.8,0.6-1.4,1.4-1.4h11.3c0.8,0,1.4,0.6,1.4,1.4
					C83.3,33.9,82.7,34.5,81.9,34.5z"/>
			</g>
		</g>
	</g>
</g>
</svg>
