<svg width="24" height="26" viewBox="0 0 24 26" fill="none" xmlns="http://www.w3.org/2000/svg">
<path d="M6.904 18.7172H5.44524V0.910284C5.44524 0.407352 5.02238 0 4.5003 0C3.97821 0 3.55535 0.407352 3.55535 0.910284V18.7172H2.096C1.51723 18.7172 0.993372 18.943 0.614214 19.3083C0.234464 19.6741 0 20.1787 0 20.7363C0 21.8514 0.938447 22.7554 2.096 22.7554H3.55535V25.0897C3.55535 25.5926 3.97821 26 4.5003 26C5.02238 26 5.44524 25.5926 5.44524 25.0897V22.7554H6.904C7.48277 22.7554 8.00663 22.5295 8.38638 22.1643C8.76554 21.7985 9 21.2938 9 20.7363C9 19.6212 8.06155 18.7172 6.904 18.7172Z" fill="#4A4A4A"/>
<path d="M17 6.87834C17 5.76324 16.0616 4.85921 14.9041 4.85921H13.4449V0.910284C13.4449 0.407352 13.022 0 12.5 0C11.978 0 11.5551 0.407352 11.5551 0.910284V4.85921H10.0959C9.51713 4.85921 8.99331 5.08508 8.61417 5.45033C8.23445 5.81615 8 6.32079 8 6.87834C8 7.99344 8.93839 8.89746 10.0959 8.89746H11.5551V25.0897C11.5551 25.5926 11.978 26 12.5 26C13.022 26 13.4449 25.5926 13.4449 25.0897V8.89746H14.9041C15.4829 8.89746 16.0067 8.6716 16.3858 8.30635C16.7656 7.94053 17 7.43589 17 6.87834Z" fill="#4A4A4A"/>
<path d="M21.904 18.7172H20.4446V0.910284C20.4446 0.407352 20.0218 0 19.4997 0C18.9776 0 18.5548 0.407352 18.5548 0.910284V18.7172H17.096C16.5172 18.7172 15.9934 18.943 15.6136 19.3083C15.2345 19.6741 15 20.1787 15 20.7363C15 21.8514 15.9384 22.7554 17.096 22.7554H18.5548V25.0897C18.5548 25.5926 18.9776 26 19.4997 26C20.0218 26 20.4446 25.5926 20.4446 25.0897V22.7554H21.904C22.4828 22.7554 23.0066 22.5295 23.3858 22.1643C23.7655 21.7985 24 21.2938 24 20.7363C24 19.6212 23.0616 18.7172 21.904 18.7172Z" fill="#4A4A4A"/>
</svg>
