<svg width="22" height="16" viewBox="0 0 22 16" fill="none" xmlns="http://www.w3.org/2000/svg">
<path d="M7.15686 6.82999C8.98749 6.82999 10.4715 5.34598 10.4715 3.51535C10.4715 1.68473 8.98749 0.200714 7.15686 0.200714C5.32624 0.200714 3.84222 1.68473 3.84222 3.51535C3.84222 5.34598 5.32624 6.82999 7.15686 6.82999Z" fill="#959596"/>
<path d="M10.2699 3.51538C10.2628 4.80282 9.44959 5.9978 8.2309 6.4388C6.9885 6.88929 5.58725 6.50282 4.74555 5.48804C3.91571 4.48748 3.82087 3.01984 4.48948 1.91022C5.16047 0.798225 6.49534 0.203108 7.77093 0.463916C9.04178 0.724725 10.0329 1.76322 10.2344 3.04592C10.2605 3.20003 10.2699 3.35889 10.2699 3.51538C10.2723 3.77381 10.6754 3.77618 10.673 3.51538C10.6659 2.04536 9.73411 0.717612 8.35419 0.20785C6.98376 -0.29717 5.3786 0.141462 4.45155 1.27005C3.51501 2.4105 3.37749 4.05596 4.14095 5.32681C4.90678 6.59529 6.41235 7.24968 7.86103 6.96042C9.26939 6.68064 10.4075 5.49752 10.6256 4.0773C10.654 3.88999 10.6706 3.70268 10.6706 3.51538C10.6754 3.25694 10.2723 3.25694 10.2699 3.51538Z" fill="#959596"/>
<path d="M13.2432 14.9222H1.08475C0.586845 14.9222 0.183777 14.5191 0.183777 14.0212V13.419C0.183777 10.3793 2.64723 7.91589 5.68684 7.91589H8.64108C11.6807 7.91589 14.1441 10.3793 14.1441 13.419V14.0212C14.1441 14.5191 13.7411 14.9222 13.2432 14.9222Z" fill="#959596"/>
<path d="M13.2431 14.7373C12.7855 14.7373 12.3279 14.7373 11.8703 14.7373C10.7987 14.7373 9.72697 14.7373 8.65292 14.7373C7.40578 14.7373 6.16101 14.7373 4.91387 14.7373C3.93465 14.7373 2.95306 14.7373 1.97385 14.7373C1.72015 14.7373 1.46646 14.7373 1.21513 14.7373C1.17245 14.7373 1.12978 14.7373 1.0871 14.7373C0.75753 14.7325 0.470641 14.5167 0.387656 14.1943C0.359204 14.0805 0.366317 13.9596 0.366317 13.841C0.366317 13.7082 0.366317 13.5755 0.366317 13.4427C0.366317 13.0491 0.404253 12.6603 0.487238 12.2762C0.667433 11.4605 1.03731 10.6876 1.56841 10.0451C2.58793 8.80978 4.1101 8.09849 5.71052 8.09612C6.66603 8.09612 7.62391 8.09612 8.57941 8.09612C10.13 8.09612 11.6072 8.73628 12.6362 9.90281C13.191 10.5311 13.5917 11.2922 13.798 12.1055C13.9568 12.7338 13.971 13.3739 13.9616 14.0188C13.9544 14.4172 13.6391 14.7301 13.2431 14.7373C13.0084 14.742 13.006 15.1071 13.2431 15.1024C13.7197 15.0929 14.1489 14.7847 14.284 14.3223C14.3623 14.0544 14.3267 13.7438 14.3267 13.4664C14.3267 12.62 14.1536 11.7901 13.8003 11.0219C13.0653 9.42861 11.5763 8.23126 9.86212 7.86139C9.31205 7.74284 8.75961 7.72862 8.20243 7.72862C7.59546 7.72862 6.99085 7.72862 6.38388 7.72862C5.88123 7.72862 5.38095 7.71676 4.88068 7.78789C4.01764 7.90881 3.18305 8.23363 2.46701 8.72917C0.999371 9.74632 0.0746861 11.4155 0.00592748 13.2009C-0.00355647 13.4688 0.00118548 13.7367 0.00118548 14.0022C0.00355647 14.4219 0.233542 14.8202 0.620013 14.9981C0.861853 15.1095 1.10369 15.1024 1.35976 15.1024C2.16353 15.1024 2.96729 15.1024 3.77105 15.1024C5.01345 15.1024 6.25348 15.1024 7.49587 15.1024C8.70271 15.1024 9.90954 15.1024 11.1164 15.1024C11.7945 15.1024 12.4702 15.1024 13.1483 15.1024C13.1791 15.1024 13.2123 15.1024 13.2431 15.1024C13.4802 15.1048 13.4802 14.7373 13.2431 14.7373Z" fill="#959596"/>
<path d="M16.3207 7.15481C17.6904 7.15481 18.8007 6.04445 18.8007 4.67475C18.8007 3.30506 17.6904 2.1947 16.3207 2.1947C14.951 2.1947 13.8406 3.30506 13.8406 4.67475C13.8406 6.04445 14.951 7.15481 16.3207 7.15481Z" fill="#959596"/>
<path d="M18.649 4.6748C18.6419 5.64453 18.0278 6.54314 17.1055 6.86796C16.1808 7.19279 15.1423 6.90353 14.5164 6.14955C13.8952 5.40032 13.8241 4.30255 14.3243 3.47271C14.8246 2.64523 15.8181 2.19949 16.7664 2.38917C17.8547 2.60256 18.6419 3.56992 18.649 4.6748C18.6514 4.86922 18.9525 4.86922 18.9501 4.6748C18.943 3.5794 18.2554 2.5907 17.2288 2.2066C16.1998 1.82013 14.9882 2.14733 14.2911 2.99851C13.5917 3.85207 13.4897 5.08024 14.0611 6.031C14.6302 6.97466 15.7493 7.46545 16.8305 7.2568C17.8927 7.0529 18.7533 6.16141 18.9146 5.09209C18.9359 4.95458 18.9478 4.81469 18.9478 4.6748C18.9525 4.48038 18.6514 4.48038 18.649 4.6748Z" fill="#959596"/>
<path d="M21.7882 13.4071V13.9785C21.7882 14.4504 21.4396 14.8321 21.02 14.8321H15.4339V12.5536C15.4339 10.7303 14.4286 9.16543 13.0037 8.51578C13.5063 8.30714 14.0493 8.19333 14.6159 8.19333H17.1197C19.6946 8.19333 21.7882 10.5311 21.7882 13.4071Z" fill="#959596"/>
<path d="M21.6174 13.4071C21.6174 13.5209 21.6174 13.6347 21.6174 13.7509C21.6174 13.8766 21.6293 14.0117 21.6032 14.135C21.5392 14.429 21.314 14.6638 21.0034 14.6685C20.6833 14.6732 20.3656 14.6685 20.0455 14.6685C18.8268 14.6685 17.6105 14.6685 16.3918 14.6685C16.0693 14.6685 15.7493 14.6685 15.4268 14.6685C15.4813 14.723 15.5359 14.7776 15.5904 14.8321C15.5904 14.154 15.5904 13.4759 15.5904 12.8002C15.5904 12.3758 15.5714 11.9561 15.4861 11.5364C15.3533 10.8868 15.0854 10.2585 14.6942 9.72262C14.2769 9.14884 13.7292 8.67464 13.0819 8.37827C13.0677 8.47785 13.0558 8.57743 13.0416 8.67701C13.5442 8.47074 14.0753 8.36167 14.6207 8.36167C14.7937 8.36167 14.9668 8.36167 15.1399 8.36167C15.735 8.36167 16.3301 8.36167 16.9253 8.36167C17.5797 8.36167 18.2151 8.45414 18.8149 8.73392C19.5997 9.09668 20.2636 9.69179 20.7378 10.4149C21.3234 11.3017 21.6151 12.3497 21.6174 13.4071C21.6174 13.6181 21.947 13.6181 21.9446 13.4071C21.9399 11.5056 21.0105 9.59458 19.3318 8.62959C18.6442 8.23364 17.8689 8.03448 17.0746 8.0321C16.5151 8.0321 15.9532 8.0321 15.3936 8.0321C15.1446 8.0321 14.8933 8.0321 14.6444 8.0321C14.0658 8.0321 13.4944 8.14117 12.9562 8.3593C12.8424 8.40672 12.7737 8.59403 12.9159 8.65804C14.0564 9.1844 14.8459 10.2561 15.1352 11.4653C15.3248 12.2548 15.2608 13.0965 15.2608 13.9027C15.2608 14.2109 15.2608 14.5215 15.2608 14.8297C15.2608 14.9174 15.3367 14.9933 15.4244 14.9933C16.3088 14.9933 17.1932 14.9933 18.0776 14.9933C19.0497 14.9933 20.0241 15.0004 20.9962 14.9933C21.4064 14.9909 21.7407 14.723 21.8782 14.3437C21.9826 14.0544 21.9423 13.7082 21.9423 13.4048C21.947 13.1961 21.6174 13.1961 21.6174 13.4071Z" fill="#959596"/>
</svg>
