<?xml version="1.0" encoding="utf-8"?>
<!-- Generator: Adobe Illustrator 24.2.0, SVG Export Plug-In . SVG Version: 6.00 Build 0)  -->
<svg version="1.1" id="Layer_1" xmlns="http://www.w3.org/2000/svg" xmlns:xlink="http://www.w3.org/1999/xlink" x="0px" y="0px"
	 viewBox="0 0 21 29" style="enable-background:new 0 0 21 29;" xml:space="preserve">
<style type="text/css">
	.st0{fill:#FFFFFF;}
</style>
<path class="st0" d="M20,8h0.5V7.8l-0.1-0.1L20,8z M14,1l0.4-0.3l-0.1-0.2H14V1z M13,2h0.5V1.5H13V2z M19,9h0.5V8.5H19V9z M14,2.5
	l0.4-0.3l-0.9-1v1.4H14z M18.7,8v0.5h1.1l-0.7-0.8L18.7,8z M3,1.5h10.5v-1H3V1.5z M1.5,3c0-0.8,0.7-1.5,1.5-1.5v-1
	C1.6,0.5,0.5,1.6,0.5,3H1.5z M1.5,26V3h-1v23H1.5z M3,27.5c-0.8,0-1.5-0.7-1.5-1.5h-1c0,1.4,1.1,2.5,2.5,2.5V27.5z M18,27.5H3v1h15
	V27.5z M19.5,26c0,0.8-0.7,1.5-1.5,1.5v1c1.4,0,2.5-1.1,2.5-2.5H19.5z M19.5,8.5V26h1V8.5H19.5z M19.5,8v0.5h1V8H19.5z M13.6,1.3
	l6,7l0.8-0.7l-6-7L13.6,1.3z M13.5,1.5H14v-1h-0.5V1.5z M3,2.5h10v-1H3V2.5z M2.5,3c0-0.3,0.2-0.5,0.5-0.5v-1C2.2,1.5,1.5,2.2,1.5,3
	H2.5z M2.5,26V3h-1v23H2.5z M3,26.5c-0.3,0-0.5-0.2-0.5-0.5h-1c0,0.8,0.7,1.5,1.5,1.5V26.5z M18,26.5H3v1h15V26.5z M18.5,26
	c0,0.3-0.2,0.5-0.5,0.5v1c0.8,0,1.5-0.7,1.5-1.5H18.5z M18.5,9v17h1V9H18.5z M15,9.5h4v-1h-4V9.5z M12.5,7c0,1.4,1.1,2.5,2.5,2.5v-1
	c-0.8,0-1.5-0.7-1.5-1.5H12.5z M12.5,2v5h1V2H12.5z M13.5,2.5V7h1V2.5H13.5z M19.1,7.7l-4.7-5.5l-0.8,0.6l4.7,5.5L19.1,7.7z M15,8.5
	h3.7v-1H15V8.5z M13.5,7c0,0.8,0.7,1.5,1.5,1.5v-1c-0.3,0-0.5-0.2-0.5-0.5H13.5z"/>
</svg>
