<svg width="21" height="29" viewBox="0 0 21 29" fill="none" xmlns="http://www.w3.org/2000/svg">
<path d="M20 8H20.5V7.81504L20.3796 7.6746L20 8ZM14 1L14.3796 0.674604L14.23 0.5H14V1ZM13 2H13.5V1.5H13V2ZM19 9H19.5V8.5H19V9ZM14 2.5L14.3801 2.17518L13.5 1.14524V2.5H14ZM18.7 8V8.5H19.7849L19.0801 7.67518L18.7 8ZM3.00276 1.5H13.5V0.5H3.00276V1.5ZM1.5 3.00733C1.5 2.17347 2.17382 1.5 3.00276 1.5V0.5C1.61951 0.5 0.5 1.62321 0.5 3.00733H1.5ZM1.5 25.9927V3.00733H0.5V25.9927H1.5ZM2.99742 27.5C2.16994 27.5 1.5 26.828 1.5 25.9927H0.5C0.5 27.3745 1.61191 28.5 2.99742 28.5V27.5ZM18.0026 27.5H2.99742V28.5H18.0026V27.5ZM19.5 26.0092C19.5 26.8252 18.83 27.5 18.0026 27.5V28.5C19.3814 28.5 20.5 27.3784 20.5 26.0092H19.5ZM19.5 8.5V26.0092H20.5V8.5H19.5ZM19.5 8V8.5H20.5V8H19.5ZM13.6204 1.3254L19.6204 8.3254L20.3796 7.6746L14.3796 0.674604L13.6204 1.3254ZM13.5 1.5H14V0.5H13.5V1.5ZM2.99558 2.5H13V1.5H2.99558V2.5ZM2.5 2.99546C2.5 2.72833 2.72494 2.5 2.99558 2.5V1.5C2.16653 1.5 1.5 2.18219 1.5 2.99546H2.5ZM2.5 26.0045V2.99546H1.5V26.0045H2.5ZM2.99996 26.5C2.72644 26.5 2.5 26.2738 2.5 26.0045H1.5C1.5 26.8349 2.18298 27.5 2.99996 27.5V26.5ZM18 26.5H2.99996V27.5H18V26.5ZM18.5 26.0066C18.5 26.2759 18.2792 26.5 18 26.5V27.5C18.8254 27.5 19.5 26.8342 19.5 26.0066H18.5ZM18.5 9V26.0066H19.5V9H18.5ZM14.9979 9.5H19V8.5H14.9979V9.5ZM12.5 6.99408C12.5 8.38958 13.6183 9.5 14.9979 9.5V8.5C14.1706 8.5 13.5 7.83731 13.5 6.99408H12.5ZM12.5 2V6.99408H13.5V2H12.5ZM13.5 2.5V6.99122H14.5V2.5H13.5ZM19.0801 7.67518L14.3801 2.17518L13.6199 2.82482L18.3198 8.32482L19.0801 7.67518ZM14.9967 8.5H18.7V7.5H14.9967V8.5ZM13.5 6.99122C13.5 7.82026 14.1703 8.5 14.9967 8.5V7.5C14.731 7.5 14.5 7.27645 14.5 6.99122H13.5Z" fill="black"/>
</svg>
