<svg width="31" height="26" viewBox="0 0 31 26" fill="none" xmlns="http://www.w3.org/2000/svg">
<path fill-rule="evenodd" clip-rule="evenodd" d="M1.25118 25.6694C1.44223 25.8814 1.71479 26.0017 2.00022 26L2.12022 25.99L9.12022 25.22C9.34395 25.1926 9.55185 25.0904 9.71022 24.93L26.0602 8.58001C26.6617 7.97971 26.9997 7.16481 26.9997 6.31501C26.9997 5.46521 26.6617 4.65031 26.0602 4.05001L22.9502 0.940007C22.3499 0.338508 21.535 0.000488281 20.6852 0.000488281C19.8354 0.000488281 19.0205 0.338508 18.4202 0.940007L2.06022 17.3C1.89982 17.4584 1.79763 17.6663 1.77022 17.89L1.00022 24.89C0.968814 25.1737 1.06014 25.4573 1.25118 25.6694ZM3.13022 23.87L3.73022 18.45L19.8302 2.35001C20.0554 2.12406 20.3612 1.99706 20.6802 1.99706C20.9992 1.99706 21.3051 2.12406 21.5302 2.35001L24.6502 5.47001C24.8762 5.69517 25.0032 6.00103 25.0032 6.32001C25.0032 6.63899 24.8762 6.94485 24.6502 7.17001L8.55022 23.27L3.13022 23.87Z" fill="#4A4A4A"/>
<path d="M22.9993 11.21C22.7335 11.2115 22.478 11.1072 22.2893 10.92L16.0793 4.69001C15.8256 4.43635 15.7265 4.06663 15.8194 3.72013C15.9122 3.37362 16.1829 3.10297 16.5294 3.01013C16.8759 2.91728 17.2456 3.01635 17.4993 3.27001L23.7293 9.50001C23.9186 9.68777 24.0251 9.94337 24.0251 10.21C24.0251 10.4766 23.9186 10.7322 23.7293 10.92C23.5357 11.1122 23.272 11.217 22.9993 11.21Z" fill="#4A4A4A"/>
<rect x="8.30078" y="17.2889" width="11.01" height="2" transform="rotate(-45 8.30078 17.2889)" fill="#4A4A4A"/>
<path d="M30 26H14C13.4477 26 13 25.5523 13 25C13 24.4477 13.4477 24 14 24H30C30.5523 24 31 24.4477 31 25C31 25.5523 30.5523 26 30 26Z" fill="#4A4A4A"/>
</svg>
