<svg width="24" height="22" viewBox="0 0 24 22" fill="none" xmlns="http://www.w3.org/2000/svg">
<path d="M24 11C24 12.104 23.1936 13 22.2 13H7.8C6.8064 13 6 12.104 6 11C6 9.896 6.8064 9 7.8 9H22.2C23.1936 9 24 9.896 24 11Z" fill="#4A4A4A"/>
<path d="M24 2C24 3.104 23.1936 4 22.2 4H7.8C6.8064 4 6 3.104 6 2C6 0.896 6.8064 0 7.8 0H22.2C23.1936 0 24 0.896 24 2Z" fill="#4A4A4A"/>
<path d="M24 20C24 21.104 23.1936 22 22.2 22H7.8C6.8064 22 6 21.104 6 20C6 18.896 6.8064 18 7.8 18H22.2C23.1936 18 24 18.896 24 20Z" fill="#4A4A4A"/>
<path d="M0 2C0 3.103 0.897 4 2 4C3.103 4 4 3.103 4 2C4 0.897 3.103 0 2 0C0.897 0 0 0.897 0 2Z" fill="#4A4A4A"/>
<path d="M0 11C0 12.103 0.897 13 2 13C3.103 13 4 12.103 4 11C4 9.897 3.103 9 2 9C0.897 9 0 9.897 0 11Z" fill="#4A4A4A"/>
<path d="M0 20C0 21.103 0.897 22 2 22C3.103 22 4 21.103 4 20C4 18.897 3.103 18 2 18C0.897 18 0 18.897 0 20Z" fill="#4A4A4A"/>
</svg>
