<svg width="28" height="24" viewBox="0 0 28 24" fill="none" xmlns="http://www.w3.org/2000/svg">
<path fill-rule="evenodd" clip-rule="evenodd" d="M28 21.2727V2.72727C28 1.97727 27.7364 1.33523 27.2091 0.801136C26.6819 0.267045 26.0481 0 25.3077 0H2.69231C1.95192 0 1.31811 0.267045 0.790865 0.801136C0.263622 1.33523 0 1.97727 0 2.72727V21.2727C0 22.0227 0.263622 22.6648 0.790865 23.1989C1.31811 23.733 1.95192 24 2.69231 24H25.3077C26.0481 24 26.6819 23.733 27.2091 23.1989C27.7364 22.6648 28 22.0227 28 21.2727ZM8.61539 4.90909V8.18182C8.61539 8.34091 8.5649 8.47159 8.46394 8.57386C8.36298 8.67614 8.23397 8.72727 8.07692 8.72727H2.69231C2.53526 8.72727 2.40625 8.67614 2.30529 8.57386C2.20433 8.47159 2.15385 8.34091 2.15385 8.18182V4.90909C2.15385 4.75 2.20433 4.61932 2.30529 4.51705C2.40625 4.41477 2.53526 4.36364 2.69231 4.36364H8.07692C8.23397 4.36364 8.36298 4.41477 8.46394 4.51705C8.5649 4.61932 8.61539 4.75 8.61539 4.90909ZM8.61539 11.4545V14.7273C8.61539 14.8864 8.5649 15.017 8.46394 15.1193C8.36298 15.2216 8.23397 15.2727 8.07692 15.2727H2.69231C2.53526 15.2727 2.40625 15.2216 2.30529 15.1193C2.20433 15.017 2.15385 14.8864 2.15385 14.7273V11.4545C2.15385 11.2955 2.20433 11.1648 2.30529 11.0625C2.40625 10.9602 2.53526 10.9091 2.69231 10.9091H8.07692C8.23397 10.9091 8.36298 10.9602 8.46394 11.0625C8.5649 11.1648 8.61539 11.2955 8.61539 11.4545ZM8.61539 18V21.2727C8.61539 21.4318 8.5649 21.5625 8.46394 21.6648C8.36298 21.767 8.23397 21.8182 8.07692 21.8182H2.69231C2.53526 21.8182 2.40625 21.767 2.30529 21.6648C2.20433 21.5625 2.15385 21.4318 2.15385 21.2727V18C2.15385 17.8409 2.20433 17.7102 2.30529 17.608C2.40625 17.5057 2.53526 17.4545 2.69231 17.4545H8.07692C8.23397 17.4545 8.36298 17.5057 8.46394 17.608C8.5649 17.7102 8.61539 17.8409 8.61539 18ZM17.2308 21.2727V18C17.2308 17.8409 17.1803 17.7102 17.0793 17.608C16.9784 17.5057 16.8494 17.4545 16.6923 17.4545H11.3077C11.1506 17.4545 11.0216 17.5057 10.9207 17.608C10.8197 17.7102 10.7692 17.8409 10.7692 18V21.2727C10.7692 21.4318 10.8197 21.5625 10.9207 21.6648C11.0216 21.767 11.1506 21.8182 11.3077 21.8182H16.6923C16.8494 21.8182 16.9784 21.767 17.0793 21.6648C17.1803 21.5625 17.2308 21.4318 17.2308 21.2727ZM17.2308 14.7273V11.4545C17.2308 11.2955 17.1803 11.1648 17.0793 11.0625C16.9784 10.9602 16.8494 10.9091 16.6923 10.9091H11.3077C11.1506 10.9091 11.0216 10.9602 10.9207 11.0625C10.8197 11.1648 10.7692 11.2955 10.7692 11.4545V14.7273C10.7692 14.8864 10.8197 15.017 10.9207 15.1193C11.0216 15.2216 11.1506 15.2727 11.3077 15.2727H16.6923C16.8494 15.2727 16.9784 15.2216 17.0793 15.1193C17.1803 15.017 17.2308 14.8864 17.2308 14.7273ZM25.8462 18V21.2727C25.8462 21.4318 25.7957 21.5625 25.6947 21.6648C25.5938 21.767 25.4647 21.8182 25.3077 21.8182H19.9231C19.766 21.8182 19.637 21.767 19.5361 21.6648C19.4351 21.5625 19.3846 21.4318 19.3846 21.2727V18C19.3846 17.8409 19.4351 17.7102 19.5361 17.608C19.637 17.5057 19.766 17.4545 19.9231 17.4545H25.3077C25.4647 17.4545 25.5938 17.5057 25.6947 17.608C25.7957 17.7102 25.8462 17.8409 25.8462 18ZM17.2308 8.18182V4.90909C17.2308 4.75 17.1803 4.61932 17.0793 4.51705C16.9784 4.41477 16.8494 4.36364 16.6923 4.36364H11.3077C11.1506 4.36364 11.0216 4.41477 10.9207 4.51705C10.8197 4.61932 10.7692 4.75 10.7692 4.90909V8.18182C10.7692 8.34091 10.8197 8.47159 10.9207 8.57386C11.0216 8.67614 11.1506 8.72727 11.3077 8.72727H16.6923C16.8494 8.72727 16.9784 8.67614 17.0793 8.57386C17.1803 8.47159 17.2308 8.34091 17.2308 8.18182ZM25.8462 11.4545V14.7273C25.8462 14.8864 25.7957 15.017 25.6947 15.1193C25.5938 15.2216 25.4647 15.2727 25.3077 15.2727H19.9231C19.766 15.2727 19.637 15.2216 19.5361 15.1193C19.4351 15.017 19.3846 14.8864 19.3846 14.7273V11.4545C19.3846 11.2955 19.4351 11.1648 19.5361 11.0625C19.637 10.9602 19.766 10.9091 19.9231 10.9091H25.3077C25.4647 10.9091 25.5938 10.9602 25.6947 11.0625C25.7957 11.1648 25.8462 11.2955 25.8462 11.4545ZM25.8462 8.18182V4.90909C25.8462 4.75 25.7957 4.61932 25.6947 4.51705C25.5938 4.41477 25.4647 4.36364 25.3077 4.36364H19.9231C19.766 4.36364 19.637 4.41477 19.5361 4.51705C19.4351 4.61932 19.3846 4.75 19.3846 4.90909V8.18182C19.3846 8.34091 19.4351 8.47159 19.5361 8.57386C19.637 8.67614 19.766 8.72727 19.9231 8.72727H25.3077C25.4647 8.72727 25.5938 8.67614 25.6947 8.57386C25.7957 8.47159 25.8462 8.34091 25.8462 8.18182Z" fill="#4A4A4A"/>
</svg>
