<?xml version="1.0" encoding="utf-8"?>
<!-- Generator: Adobe Illustrator 24.2.0, SVG Export Plug-In . SVG Version: 6.00 Build 0)  -->
<svg version="1.1" id="Layer_1" xmlns="http://www.w3.org/2000/svg" xmlns:xlink="http://www.w3.org/1999/xlink" x="0px" y="0px"
	 viewBox="0 0 100 100" style="enable-background:new 0 0 100 100;" xml:space="preserve">
<style type="text/css">
	.st0{fill:#FFFFFF;}
	.st1{fill:#6FCD85;}
	.st2{fill:#00B117;}
</style>
<rect x="-15.5" y="3.1" class="st0" width="6.1" height="6.1"/>
<g>
	<g>
		<circle class="st1" cx="36.1" cy="26.1" r="14.9"/>
		<path class="st1" d="M73.1,88.8h-71V64.4c0-7.1,5.8-12.8,12.8-12.8h45.3c7.1,0,12.8,5.8,12.8,12.8V88.8z"/>
	</g>
	<g>
		<path class="st2" d="M82,11.4l15.7,15.7c0.4,0.4,0.4,1.1-0.1,1.5l-18,18c-0.4,0.4-1.1,0.5-1.5,0.1L62.5,31
			c-0.2-0.2-0.3-0.4-0.3-0.7l0-0.6l0.3-8.4l0.3-8.3c0-0.6,0.5-1.1,1.1-1.1l8.3-0.3l8.4-0.3l0.6,0C81.5,11.1,81.8,11.2,82,11.4z"/>
		<circle class="st0" cx="70.5" cy="19.5" r="2.9"/>
	</g>
</g>
</svg>
