<svg width="16" height="17" viewBox="0 0 16 17" fill="none" xmlns="http://www.w3.org/2000/svg">
<path d="M4.50852 2.50391C3.41343 2.50391 2.53735 3.39682 2.53735 4.47507C2.53735 5.57016 3.43028 6.44624 4.50852 6.44624C5.60362 6.44624 6.4797 5.55331 6.4797 4.47507C6.4797 3.39682 5.58677 2.50391 4.50852 2.50391ZM4.50852 5.48592C3.95255 5.48592 3.49767 5.03104 3.49767 4.47507C3.49767 3.9191 3.95255 3.46421 4.50852 3.46421C5.0645 3.46421 5.51938 3.9191 5.51938 4.47507C5.50253 5.04789 5.0645 5.48592 4.50852 5.48592Z" fill="#2A2A2A"/>
<path d="M15.6279 8.24918L8.09706 0.718302C7.59163 0.196026 6.86719 -0.0566902 6.14274 0.0107002L1.61073 0.398203C0.953678 0.448746 0.448248 0.971014 0.397705 1.61122L0.0102119 6.14323C-0.0571785 6.86768 0.212385 7.57527 0.717813 8.09755L8.24869 15.6284C8.50141 15.8812 8.8552 16.0159 9.19215 16.0159C9.52911 16.0159 9.86605 15.8812 10.1356 15.6284L15.6111 10.153C15.8638 9.90024 15.9986 9.5633 15.9986 9.2095C16.0154 8.83885 15.8807 8.50189 15.6279 8.24918ZM14.9372 9.44536L9.46171 14.9208C9.32693 15.0556 9.09106 15.0556 8.95628 14.9208L1.42541 7.38996C1.12216 7.0867 0.953676 6.64866 0.987371 6.21063L1.37486 1.67862C1.39171 1.51014 1.5265 1.35851 1.69497 1.35851L6.22698 0.971016C6.27752 0.971016 6.31122 0.971016 6.36176 0.971016C6.74925 0.971016 7.13675 1.12265 7.40631 1.40906L14.9372 8.93993C15.072 9.07471 15.072 9.31058 14.9372 9.44536Z" fill="#2A2A2A"/>
</svg>
