<svg width="16" height="17" viewBox="0 0 16 17" fill="none" xmlns="http://www.w3.org/2000/svg">
<path d="M7.92118 0C10.4236 0 12.4729 2.04926 12.4729 4.55172C12.4729 7.07389 10.4236 9.10345 7.92118 9.10345C5.39901 9.10345 3.34975 7.07389 3.34975 4.55172C3.34975 2.04926 5.39901 0 7.92118 0ZM4.98522 9.87192H11.0345C13.7734 9.87192 16 12.0985 16 14.8374V16.0591H14.9951V14.8374C14.9951 12.67 13.2217 10.8768 11.0345 10.8768H4.98522C2.79803 10.8768 1.02463 12.67 1.02463 14.8374V16.0591H0V14.8374C0 12.0985 2.24631 9.87192 4.98522 9.87192ZM7.92118 1.00493C5.95074 1.00493 4.37438 2.60099 4.37438 4.55172C4.37438 6.52217 5.95074 8.09852 7.92118 8.09852C9.87192 8.09852 11.4483 6.52217 11.4483 4.55172C11.4483 2.60099 9.87192 1.00493 7.92118 1.00493Z" fill="#959596"/>
</svg>
