<svg width="21" height="27" viewBox="0 0 21 27" fill="none" xmlns="http://www.w3.org/2000/svg">
<path d="M10.2717 0C9.07855 0 8.07858 0.732161 7.62128 1.76087H5.28261C4.97528 1.7609 4.69568 2.0405 4.69565 2.34783V2.93478H0.586957C0.258261 2.93566 0.000205435 3.24191 0 3.52174V26.413C2.93478e-05 26.7204 0.279626 27 0.586957 27H19.9565C20.2639 27 20.5434 26.7204 20.5435 26.413V3.52174C20.5434 3.21442 20.2639 2.93481 19.9565 2.93478H15.8478V2.34783C15.8478 2.0405 15.5682 1.7609 15.2609 1.76087H12.9222C12.4649 0.732161 11.465 0 10.2717 0ZM10.2717 1.17391C11.103 1.17391 11.783 1.72578 11.9776 2.48539C12.0386 2.73851 12.2858 2.93388 12.5462 2.93478H14.6739V4.69565H6.16304V2.93478H7.99728C8.25766 2.9339 8.50485 2.73851 8.5659 2.48539C8.76044 1.72578 9.44049 1.17391 10.2717 1.17391ZM1.17391 4.1087H4.69565V5.28261C4.69568 5.58993 4.97528 5.86954 5.28261 5.86957H15.2609C15.5682 5.86954 15.8478 5.58993 15.8478 5.28261V4.1087H19.3696V25.8261H1.17391V4.1087ZM4.1087 8.21739C3.78452 8.21739 3.52174 8.48017 3.52174 8.80435C3.52174 9.12852 3.78452 9.3913 4.1087 9.3913H16.4348C16.759 9.3913 17.0217 9.12852 17.0217 8.80435C17.0217 8.48017 16.759 8.21739 16.4348 8.21739H4.1087ZM4.1087 12.913C3.78452 12.913 3.52174 13.1758 3.52174 13.5C3.52174 13.8242 3.78452 14.087 4.1087 14.087H16.4348C16.759 14.087 17.0217 13.8242 17.0217 13.5C17.0217 13.1758 16.759 12.913 16.4348 12.913H4.1087ZM4.1087 17.6087C3.78452 17.6087 3.52174 17.8715 3.52174 18.1957C3.52174 18.5198 3.78452 18.7826 4.1087 18.7826H16.4348C16.759 18.7826 17.0217 18.5198 17.0217 18.1957C17.0217 17.8715 16.759 17.6087 16.4348 17.6087H4.1087ZM4.1087 22.3043C3.78452 22.3043 3.52174 22.5671 3.52174 22.8913C3.52174 23.2155 3.78452 23.4783 4.1087 23.4783H16.4348C16.759 23.4783 17.0217 23.2155 17.0217 22.8913C17.0217 22.5671 16.759 22.3043 16.4348 22.3043H4.1087Z" fill="#2A2A2A"/>
</svg>
