<svg width="23" height="30" viewBox="0 0 23 30" fill="none" xmlns="http://www.w3.org/2000/svg">
<path d="M11.413 0C10.0873 0 8.9762 0.813512 8.46809 1.95652H5.86957C5.52809 1.95655 5.21742 2.26723 5.21739 2.6087V3.26087H0.652174C0.286957 3.26185 0.000228261 3.60212 0 3.91304V29.3478C3.26087e-05 29.6893 0.310696 30 0.652174 30H22.1739C22.5154 30 22.8261 29.6893 22.8261 29.3478V3.91304C22.8261 3.57158 22.5154 3.2609 22.1739 3.26087H17.6087V2.6087C17.6087 2.26723 17.298 1.95655 16.9565 1.95652H14.358C13.8499 0.813512 12.7388 0 11.413 0ZM11.413 1.30435C12.3367 1.30435 13.0923 1.91754 13.3084 2.76155C13.3763 3.04279 13.6509 3.25987 13.9402 3.26087H16.3043V5.21739H6.84783V3.26087H8.88587C9.17517 3.25989 9.44984 3.04279 9.51766 2.76155C9.73383 1.91754 10.4894 1.30435 11.413 1.30435ZM1.30435 4.56522H5.21739V5.86957C5.21742 6.21103 5.52809 6.52171 5.86957 6.52174H16.9565C17.298 6.52171 17.6087 6.21103 17.6087 5.86957V4.56522H21.5217V28.6957H1.30435V4.56522ZM4.56522 9.13043C4.20502 9.13043 3.91304 9.42241 3.91304 9.78261C3.91304 10.1428 4.20502 10.4348 4.56522 10.4348H18.2609C18.6211 10.4348 18.913 10.1428 18.913 9.78261C18.913 9.42241 18.6211 9.13043 18.2609 9.13043H4.56522ZM4.56522 14.3478C4.20502 14.3478 3.91304 14.6398 3.91304 15C3.91304 15.3602 4.20502 15.6522 4.56522 15.6522H18.2609C18.6211 15.6522 18.913 15.3602 18.913 15C18.913 14.6398 18.6211 14.3478 18.2609 14.3478H4.56522ZM4.56522 19.5652C4.20502 19.5652 3.91304 19.8572 3.91304 20.2174C3.91304 20.5776 4.20502 20.8696 4.56522 20.8696H18.2609C18.6211 20.8696 18.913 20.5776 18.913 20.2174C18.913 19.8572 18.6211 19.5652 18.2609 19.5652H4.56522ZM4.56522 24.7826C4.20502 24.7826 3.91304 25.0746 3.91304 25.4348C3.91304 25.795 4.20502 26.087 4.56522 26.087H18.2609C18.6211 26.087 18.913 25.795 18.913 25.4348C18.913 25.0746 18.6211 24.7826 18.2609 24.7826H4.56522Z" fill="#2A2A2A"/>
</svg>
