<svg width="29" height="34" viewBox="0 0 29 34" fill="none" xmlns="http://www.w3.org/2000/svg">
<path fill-rule="evenodd" clip-rule="evenodd" d="M23.6673 7.22667V2.88C23.6673 1.84667 22.8273 1 21.7873 1H2.90734C1.86734 1 1.02734 1.84 1.02734 2.88V7.23333C1.02734 8.26667 1.86734 9.11333 2.90734 9.11333H21.7873C22.8273 9.10667 23.6673 8.26667 23.6673 7.22667Z" fill="#4A4A4A" stroke="#4A4A4A" stroke-width="1.75" stroke-linecap="round" stroke-linejoin="round"/>
<path fill-rule="evenodd" clip-rule="evenodd" d="M25.094 4.10001H23.654V5.80667H25.094C25.4807 5.80667 25.8007 6.12001 25.8007 6.51334V11.18C25.8007 11.5667 25.4873 11.8867 25.094 11.8867H13.934C12.6073 11.8867 11.5273 12.9667 11.5273 14.2933V18.34C11.5273 18.34 13.214 18.34 13.234 18.34V14.2933C13.234 13.9067 13.5473 13.5867 13.9407 13.5867H25.1007C26.4273 13.5867 27.5073 12.5067 27.5073 11.18V6.51334C27.5073 5.18667 26.4207 4.10001 25.094 4.10001Z" stroke="#4A4A4A" stroke-width="1.75" stroke-linecap="round" stroke-linejoin="round"/>
<path fill-rule="evenodd" clip-rule="evenodd" d="M13.167 18.3267H11.527C10.7536 18.3267 10.127 18.9533 10.127 19.7267V31.6C10.127 32.3733 10.7536 33 11.527 33H13.167C13.9403 33 14.567 32.3733 14.567 31.6V19.7267C14.567 18.9533 13.9403 18.3267 13.167 18.3267Z" stroke="#4A4A4A" stroke-width="1.75" stroke-linecap="round" stroke-linejoin="round"/>
</svg>
