<svg width="5" height="17" viewBox="0 0 5 17" fill="none" xmlns="http://www.w3.org/2000/svg">
<path d="M3.55911 0.610646C4.37331 1.42484 4.37331 2.74492 3.55911 3.55911C2.74492 4.37331 1.42484 4.37331 0.610646 3.55911C-0.203549 2.74492 -0.203549 1.42484 0.610646 0.610646C1.42481 -0.203549 2.74489 -0.203549 3.55911 0.610646Z" fill="#2F2E41"/>
<path d="M3.55911 6.86539C4.37331 7.67959 4.37331 8.99966 3.55911 9.81386C2.74492 10.6281 1.42484 10.6281 0.610646 9.81386C-0.203549 8.99966 -0.203549 7.67959 0.610646 6.86539C1.42481 6.0512 2.74489 6.0512 3.55911 6.86539Z" fill="#2F2E41"/>
<path d="M3.55911 13.4409C4.37331 14.2551 4.37331 15.5751 3.55911 16.3893C2.74492 17.2035 1.42484 17.2035 0.610646 16.3893C-0.203549 15.5751 -0.203549 14.2551 0.610646 13.4409C1.42481 12.6267 2.74489 12.6267 3.55911 13.4409Z" fill="#2F2E41"/>
</svg>
