<svg width="16" height="16" viewBox="0 0 16 16" fill="none" xmlns="http://www.w3.org/2000/svg">
<path d="M8 0C3.58645 0 -1.464e-05 3.58648 0 8C-1.464e-05 12.4136 3.58645 16 8 16C12.4136 16 16 12.4136 16 8C16 3.58648 12.4136 0 8 0ZM8 0.8C11.9812 0.8 15.2 4.01888 15.2 8C15.2 11.9812 11.9812 15.2 8 15.2C4.01883 15.2 0.799987 11.9812 0.8 8C0.799987 4.01888 4.01883 0.8 8 0.8Z" fill="#2A2A2A"/>
<path d="M11.3219 5.27344L7.23281 9.59688L5.15156 7.62812L4.60156 8.20938L7.26406 10.7281L11.9031 5.82344L11.3219 5.27344Z" fill="#2A2A2A"/>
</svg>
