<svg xmlns="http://www.w3.org/2000/svg" width="28" height="28" viewBox="0 0 28 28"><defs><style>.a{fill:#0040db;}.b{fill:#fff;}</style></defs><g transform="translate(-424 -578)"><circle class="a" cx="14" cy="14" r="14" transform="translate(424 578)"/><g transform="translate(426.48 581.5)"><g transform="translate(2.52 1.5)"><g transform="translate(6.315 5.774)"><path class="b" d="M28.233,25.667a2.445,2.445,0,0,1,.8.53,2.4,2.4,0,0,1,.7,1.7V29.05h-4.8V27.893a2.4,2.4,0,0,1,1.5-2.225.153.153,0,0,0,0-.284,2.4,2.4,0,0,1-1.5-2.225V22h4.8v1.158a2.394,2.394,0,0,1-1.5,2.225A.153.153,0,0,0,28.233,25.667Z" transform="translate(-24.94 -22)"/></g><path class="b" d="M19.972,10.8A8.726,8.726,0,1,1,8.232,2.6l-.127-.777a.274.274,0,0,1,.1-.262.286.286,0,0,1,.279-.048L11.344,2.6a.279.279,0,0,1,.18.217.29.29,0,0,1-.1.265L9.055,5.021a.286.286,0,0,1-.279.048.289.289,0,0,1-.177-.22l-.1-.639A7.141,7.141,0,1,0,18.386,10.8a.282.282,0,0,1,.282-.282H19.69A.282.282,0,0,1,19.972,10.8Z" transform="translate(-2.52 -1.5)"/><g transform="translate(11.956 1.338)"><path class="b" d="M48.847,10.2a.281.281,0,0,1,.107-.383h0a.279.279,0,0,1,.383.1h0a.281.281,0,0,1-.107.383h0A.282.282,0,0,1,48.847,10.2Zm-.718-1.062a.281.281,0,0,1,.045-.394h0a.282.282,0,0,1,.4.042h0a.284.284,0,0,1-.045.4h0A.281.281,0,0,1,48.129,9.142ZM47.256,8.2a.281.281,0,0,1-.017-.4h0a.278.278,0,0,1,.4-.017h0a.279.279,0,0,1,.017.4h0A.283.283,0,0,1,47.256,8.2Zm-1.008-.792a.281.281,0,0,1-.076-.392h0a.284.284,0,0,1,.391-.079h0a.282.282,0,0,1,.076.392h0A.287.287,0,0,1,46.247,7.412Zm-1.115-.628a.28.28,0,0,1-.138-.372h0a.28.28,0,0,1,.372-.138h0a.279.279,0,0,1,.135.372h0A.276.276,0,0,1,45.132,6.784Z" transform="translate(-44.968 -6.249)"/></g><g transform="translate(11.238 2.142)"><path class="b" d="M46.329,13.145h0a.285.285,0,0,1,.13-.377h0a.282.282,0,0,1,.377.13h0a.279.279,0,0,1-.13.377h0A.283.283,0,0,1,46.329,13.145Zm-.679-1.115h0a.283.283,0,0,1,.056-.394h0a.283.283,0,0,1,.394.059h0a.28.28,0,0,1-.059.394h0A.287.287,0,0,1,45.65,12.029Zm-.868-.977a.278.278,0,0,1-.014-.4h0a.284.284,0,0,1,.4-.011h0a.28.28,0,0,1,.011.4h0A.283.283,0,0,1,44.783,11.052Zm-1.031-.8h0a.28.28,0,0,1-.085-.389h0a.283.283,0,0,1,.392-.085h0a.28.28,0,0,1,.085.389h0A.28.28,0,0,1,43.752,10.249Zm-1.158-.6a.287.287,0,0,1-.155-.369h0a.283.283,0,0,1,.369-.152h0a.281.281,0,0,1,.155.366h0A.286.286,0,0,1,42.594,9.646Z" transform="translate(-42.42 -9.104)"/></g><g transform="translate(5.8 13.388)"><rect class="b" width="5.825" height="0.924"/></g><g transform="translate(5.8 4.287)"><rect class="b" width="5.825" height="0.924"/></g></g></g></g></svg>