<?xml version="1.0" encoding="utf-8"?>
<!-- Generator: Adobe Illustrator 24.2.0, SVG Export Plug-In . SVG Version: 6.00 Build 0)  -->
<svg version="1.1" id="Layer_1" xmlns="http://www.w3.org/2000/svg" xmlns:xlink="http://www.w3.org/1999/xlink" x="0px" y="0px"
	 viewBox="0 0 121 104" style="enable-background:new 0 0 121 104;" xml:space="preserve">
<style type="text/css">
	.st0{display:none;}
	.st1{display:inline;}
	.st2{fill-rule:evenodd;clip-rule:evenodd;fill:#9B9B9B;}
	.st3{display:inline;fill-rule:evenodd;clip-rule:evenodd;fill:#FFFFFF;}
	.st4{display:inline;fill:none;stroke:#FFFFFF;stroke-width:3;stroke-linecap:square;}
	.st5{fill:none;stroke:#000000;stroke-width:0.641;stroke-miterlimit:10;}
	.st6{fill:#9B9B9B;}
	.st7{fill:#FFFFFF;}
</style>
<g id="Layer_1_1_" class="st0">
	<g class="st1">
		<path class="st2" d="M60.5,86C76.2,86,89,73.2,89,57.5S76.2,29,60.5,29S32,41.8,32,57.5S44.8,86,60.5,86z"/>
	</g>
	<path class="st3" d="M66,57c0,2.8-2.2,5-5,5s-5-2.2-5-5V47c0-2.8,2.2-5,5-5s5,2.2,5,5V57z M61,65.5c4.6,0,8.8-3.5,8.8-8.5h2.8
		c0,5.7-4.5,10.4-10,11.2v5.5h-3.3v-5.5c-5.5-0.8-10-5.5-10-11.2h2.8C52.2,62,56.4,65.5,61,65.5z"/>
	<path class="st4" d="M42.9,78l38.8-37.5"/>
</g>
<g id="Layer_2_1_">
	<g>
		<path class="st5" d="M51.5,51.7c0,5,4.1,9,9,9s9-4.1,9-9"/>
		<g>
			<circle class="st6" cx="60.5" cy="52" r="28.5"/>
			<g>
				<path class="st7" d="M72.8,51.7c-0.3,6.6-5.7,11.8-12.3,11.8s-12.1-5.3-12.3-11.8h3.2c0,5,4.1,9,9,9s9-4.1,9-9
					C69.5,51.7,72.8,51.7,72.8,51.7z"/>
			</g>
			<path class="st7" d="M65.5,41.8v10.4c0,2.7-2.2,5-5,5s-5-2.2-5-5V41.8c0-0.7,0.2-1.4,0.4-2l0,0c0.8-1.7,2.5-2.8,4.5-2.8
				c2,0,3.7,1.2,4.5,2.8l0,0C65.3,40.3,65.5,40.9,65.5,41.8z"/>
			<rect x="58.8" y="63.4" class="st7" width="3.3" height="5.6"/>
		</g>
	</g>
</g>
</svg>
