<svg width="283" height="175" viewBox="0 0 283 175" fill="none" xmlns="http://www.w3.org/2000/svg">
<path d="M13.8625 160.594C13.9809 165.014 14.7215 169.396 16.0623 173.61C16.092 173.708 16.125 173.804 16.1571 173.902H24.3656C24.357 173.814 24.3481 173.716 24.3395 173.61C23.7922 167.318 26.9189 129.479 30.6918 122.931C30.3612 123.462 13.2261 140.602 13.8625 160.594Z" fill="#F1F1F1"/>
<path d="M14.4784 173.61C14.5471 173.708 14.6185 173.806 14.6916 173.902H20.8498C20.8031 173.819 20.749 173.721 20.6863 173.61C19.6691 171.774 16.658 166.285 13.8631 160.594C10.8607 154.479 8.10381 148.131 8.33598 145.834C8.26404 146.352 6.18555 162.147 14.4784 173.61Z" fill="#F1F1F1"/>
<path d="M193.608 35.8437C193.843 36.4248 194.203 36.9473 194.662 37.3745C195.12 37.8016 195.667 38.1229 196.263 38.3159C196.86 38.5088 197.491 38.5687 198.113 38.4912C198.735 38.4137 199.333 38.2008 199.863 37.8675L211.748 47.4008L212.484 39.5177L201.085 31.6733C200.466 30.8187 199.555 30.2209 198.525 29.9932C197.494 29.7655 196.416 29.9236 195.494 30.4377C194.573 30.9517 193.872 31.786 193.524 32.7824C193.177 33.7787 193.207 34.868 193.608 35.8437Z" fill="#9F616A"/>
<path d="M212.014 38.7777L207.578 35.6436L202.546 41.4566L208.399 44.9252L212.014 38.7777Z" fill="#6C63FF"/>
<path d="M211.042 36.6521L225.991 42.404L240.382 32.9812C241.869 32.0073 243.66 31.608 245.42 31.8578C247.18 32.1075 248.789 32.9893 249.946 34.3385C251.104 35.6876 251.73 37.4119 251.71 39.1895C251.689 40.967 251.022 42.6762 249.833 43.998L249.705 44.141L227.572 56.0074L203.396 44.963L211.042 36.6521Z" fill="#3F3D56"/>
<path d="M206.828 173.308H51.0591L56.7072 63.0215H81.0832L103.561 78.7767H212.476L206.828 173.308Z" fill="#E5E5E5"/>
<path d="M168.697 139.675L78.6646 102.598C78.3498 102.468 78.0995 102.218 77.9685 101.904C77.8376 101.589 77.8366 101.236 77.966 100.921L118.761 1.86134C118.891 1.54659 119.141 1.29627 119.455 1.1653C119.77 1.03434 120.123 1.03341 120.438 1.16274L210.471 38.2405C210.785 38.3706 211.036 38.6202 211.167 38.9345C211.298 39.2489 211.298 39.6024 211.169 39.9175L170.374 138.977C170.244 139.292 169.994 139.542 169.68 139.673C169.365 139.804 169.012 139.805 168.697 139.675Z" fill="white"/>
<path d="M168.697 139.675L78.6646 102.598C78.3498 102.468 78.0995 102.218 77.9685 101.904C77.8376 101.589 77.8366 101.236 77.966 100.921L118.761 1.86134C118.891 1.54659 119.141 1.29627 119.455 1.1653C119.77 1.03434 120.123 1.03341 120.438 1.16274L210.471 38.2405C210.785 38.3706 211.036 38.6202 211.167 38.9345C211.298 39.2489 211.298 39.6024 211.169 39.9175L170.374 138.977C170.244 139.292 169.994 139.542 169.68 139.673C169.365 139.804 169.012 139.805 168.697 139.675ZM120.243 1.63784C120.054 1.56024 119.841 1.56078 119.653 1.63937C119.464 1.71795 119.314 1.86815 119.236 2.05701L78.4411 101.116C78.3635 101.305 78.364 101.517 78.4426 101.706C78.5212 101.895 78.6714 102.044 78.8602 102.122L168.893 139.2C169.082 139.278 169.294 139.277 169.482 139.199C169.671 139.12 169.821 138.97 169.899 138.781L210.694 39.7218C210.772 39.5328 210.771 39.3207 210.693 39.132C210.614 38.9434 210.464 38.7937 210.275 38.7156L120.243 1.63784Z" fill="#3F3D56"/>
<path d="M145.671 50.199L123.341 41.0029C123.027 40.8729 122.776 40.6233 122.645 40.3089C122.514 39.9946 122.513 39.6411 122.643 39.326L131.839 16.9961C131.969 16.6814 132.218 16.431 132.533 16.3001C132.847 16.1691 133.201 16.1682 133.516 16.2975L155.846 25.4936C156.16 25.6236 156.411 25.8732 156.542 26.1876C156.673 26.502 156.674 26.8554 156.544 27.1705L147.348 49.5004C147.218 49.8152 146.969 50.0655 146.654 50.1965C146.34 50.3274 145.986 50.3284 145.671 50.199ZM133.32 16.7726C133.131 16.695 132.919 16.6956 132.73 16.7741C132.542 16.8527 132.392 17.0029 132.314 17.1918L123.118 39.5217C123.04 39.7107 123.041 39.9228 123.119 40.1114C123.198 40.3001 123.348 40.4498 123.537 40.5278L145.867 49.7239C146.056 49.8015 146.268 49.801 146.457 49.7224C146.645 49.6438 146.795 49.4936 146.873 49.3047L156.069 26.9748C156.147 26.7858 156.146 26.5737 156.068 26.3851C155.989 26.1965 155.839 26.0467 155.65 25.9687L133.32 16.7726Z" fill="#F2F2F2"/>
<path d="M138.132 50.2888L115.802 41.0927C115.519 40.9757 115.293 40.751 115.175 40.4681C115.058 40.1851 115.057 39.867 115.173 39.5835L124.369 17.2535C124.486 16.9703 124.711 16.745 124.994 16.6271C125.277 16.5092 125.595 16.5084 125.878 16.6248L148.208 25.8209C148.492 25.9379 148.717 26.1625 148.835 26.4455C148.953 26.7284 148.954 27.0466 148.837 27.3301L139.641 49.66C139.524 49.9433 139.299 50.1686 139.016 50.2865C138.733 50.4043 138.415 50.4052 138.132 50.2888Z" fill="#4776E6"/>
<path d="M181.143 80.7822L111.302 52.02C111.162 51.9622 111.034 51.8773 110.927 51.7701C110.819 51.663 110.734 51.5357 110.675 51.3956C110.617 51.2554 110.587 51.1052 110.586 50.9534C110.586 50.8015 110.616 50.6511 110.674 50.5108C110.731 50.3704 110.816 50.2428 110.923 50.1352C111.031 50.0276 111.158 49.9422 111.298 49.8838C111.438 49.8254 111.588 49.7952 111.74 49.7949C111.892 49.7946 112.042 49.8242 112.183 49.882L182.023 78.6442C182.307 78.761 182.532 78.9856 182.65 79.2686C182.768 79.5516 182.769 79.8699 182.652 80.1534C182.535 80.4369 182.311 80.6625 182.027 80.7804C181.744 80.8983 181.426 80.8989 181.143 80.7822V80.7822Z" fill="#CCCCCC"/>
<path d="M161.243 81.2005L108.269 59.3842C108.129 59.3264 108.001 59.2415 107.893 59.1344C107.786 59.0273 107.701 58.9 107.642 58.7599C107.584 58.6197 107.554 58.4694 107.553 58.3176C107.553 58.1658 107.583 58.0154 107.64 57.875C107.698 57.7346 107.783 57.607 107.89 57.4995C107.997 57.3919 108.125 57.3065 108.265 57.2481C108.405 57.1897 108.555 57.1595 108.707 57.1592C108.859 57.1589 109.009 57.1885 109.15 57.2463L162.124 79.0625C162.407 79.1793 162.633 79.4039 162.751 79.6869C162.869 79.9699 162.869 80.2882 162.752 80.5717C162.636 80.8552 162.411 81.0808 162.128 81.1987C161.845 81.3166 161.527 81.3172 161.243 81.2005Z" fill="#CCCCCC"/>
<path d="M192.058 53.6042L161.176 40.8862C161.035 40.8284 160.908 40.7435 160.8 40.6363C160.693 40.5292 160.607 40.4019 160.549 40.2618C160.49 40.1217 160.46 39.9714 160.46 39.8196C160.46 39.6677 160.489 39.5174 160.547 39.377C160.605 39.2366 160.69 39.109 160.797 39.0014C160.904 38.8938 161.031 38.8084 161.171 38.75C161.312 38.6916 161.462 38.6614 161.614 38.6611C161.766 38.6608 161.916 38.6904 162.056 38.7482L192.938 51.4662C193.222 51.583 193.447 51.8076 193.565 52.0906C193.683 52.3736 193.684 52.6919 193.567 52.9754C193.45 53.2589 193.225 53.4845 192.942 53.6024C192.659 53.7203 192.341 53.7209 192.058 53.6042Z" fill="#CCCCCC"/>
<path d="M181.318 57.7945L158.143 48.2505C157.86 48.1337 157.634 47.9091 157.516 47.6261C157.398 47.343 157.398 47.0247 157.514 46.7412C157.631 46.4577 157.856 46.2322 158.139 46.1143C158.422 45.9964 158.74 45.9957 159.024 46.1125L182.198 55.6565C182.482 55.7733 182.707 55.9979 182.825 56.2809C182.943 56.5639 182.944 56.8822 182.827 57.1657C182.71 57.4492 182.486 57.6747 182.203 57.7927C181.92 57.9106 181.601 57.9112 181.318 57.7945V57.7945Z" fill="#CCCCCC"/>
<path d="M175.077 95.5107L105.236 66.7485C105.096 66.6907 104.968 66.6058 104.861 66.4987C104.753 66.3915 104.668 66.2643 104.609 66.1241C104.551 65.984 104.521 65.8337 104.521 65.6819C104.52 65.5301 104.55 65.3797 104.608 65.2393C104.665 65.0989 104.75 64.9713 104.857 64.8637C104.965 64.7561 105.092 64.6707 105.232 64.6123C105.372 64.554 105.522 64.5237 105.674 64.5234C105.826 64.5231 105.976 64.5527 106.117 64.6105L175.957 93.3727C176.241 93.4895 176.466 93.7141 176.584 93.9971C176.702 94.2802 176.703 94.5984 176.586 94.882C176.469 95.1655 176.245 95.391 175.962 95.5089C175.679 95.6268 175.36 95.6275 175.077 95.5107V95.5107Z" fill="#CCCCCC"/>
<path d="M155.178 95.929L102.204 74.1128C102.063 74.0549 101.936 73.97 101.828 73.8629C101.72 73.7558 101.635 73.6285 101.577 73.4884C101.518 73.3482 101.488 73.1979 101.488 73.0461C101.487 72.8943 101.517 72.7439 101.575 72.6035C101.633 72.4632 101.718 72.3355 101.825 72.228C101.932 72.1204 102.059 72.035 102.199 71.9766C102.339 71.9182 102.49 71.888 102.642 71.8877C102.793 71.8874 102.944 71.917 103.084 71.9748L156.058 93.791C156.199 93.8488 156.326 93.9337 156.434 94.0409C156.541 94.148 156.627 94.2753 156.685 94.4154C156.744 94.5556 156.774 94.7058 156.774 94.8577C156.774 95.0095 156.745 95.1599 156.687 95.3002C156.629 95.4406 156.544 95.5682 156.437 95.6758C156.33 95.7834 156.203 95.8688 156.063 95.9272C155.922 95.9856 155.772 96.0158 155.62 96.0161C155.469 96.0164 155.318 95.9868 155.178 95.929Z" fill="#CCCCCC"/>
<path d="M169.011 110.239L99.1704 81.477C98.8869 81.3603 98.6614 81.1357 98.5435 80.8526C98.4256 80.5696 98.4249 80.2513 98.5417 79.9678C98.6585 79.6843 98.883 79.4588 99.1661 79.3409C99.4491 79.2229 99.7674 79.2223 100.051 79.3391L169.891 108.101C170.175 108.218 170.4 108.443 170.518 108.726C170.636 109.009 170.637 109.327 170.52 109.61C170.403 109.894 170.179 110.119 169.896 110.237C169.613 110.355 169.294 110.356 169.011 110.239Z" fill="#CCCCCC"/>
<path d="M165.979 117.603L96.1382 88.8413C95.8547 88.7245 95.6292 88.4999 95.5113 88.2169C95.3934 87.9338 95.3927 87.6156 95.5095 87.3321C95.6262 87.0485 95.8508 86.823 96.1339 86.7051C96.4169 86.5872 96.7352 86.5866 97.0187 86.7033L166.859 115.466C166.999 115.523 167.127 115.608 167.235 115.715C167.342 115.823 167.428 115.95 167.486 116.09C167.544 116.23 167.575 116.38 167.575 116.532C167.575 116.684 167.546 116.834 167.488 116.975C167.43 117.115 167.345 117.243 167.238 117.35C167.131 117.458 167.004 117.543 166.863 117.602C166.723 117.66 166.573 117.69 166.421 117.691C166.269 117.691 166.119 117.661 165.979 117.603Z" fill="#CCCCCC"/>
<path d="M131.907 117.056C133.305 117.13 134.707 117.087 136.097 116.928C137.349 116.782 138.654 116.58 139.752 115.922C140.226 115.651 140.63 115.272 140.931 114.816C141.232 114.36 141.421 113.839 141.482 113.296C141.53 112.779 141.413 112.26 141.147 111.815C140.882 111.369 140.481 111.02 140.003 110.817C139.518 110.613 138.988 110.544 138.467 110.617C137.946 110.69 137.455 110.902 137.045 111.232C136.607 111.612 136.261 112.086 136.032 112.619C135.803 113.152 135.697 113.73 135.722 114.309C135.78 116.689 137.662 119.038 139.753 120.028C142.108 121.143 145.323 120.196 145.926 117.45C146.051 116.879 145.274 116.681 144.949 117.048C144.505 117.537 144.264 118.178 144.277 118.838C144.289 119.499 144.553 120.13 145.015 120.602C145.477 121.074 146.102 121.353 146.762 121.38C147.422 121.407 148.068 121.181 148.567 120.748L147.692 120.388C147.946 121.454 148.477 122.434 149.23 123.23C149.984 124.025 150.933 124.609 151.984 124.921C152.502 125.076 153.039 125.158 153.58 125.164C154.238 125.166 154.913 125.496 155.542 125.701L160.074 127.177C160.741 127.394 161.163 126.383 160.491 126.164L156.387 124.827C155.703 124.604 155.021 124.375 154.335 124.158C153.845 124.003 153.308 124.087 152.797 123.996C151.839 123.815 150.953 123.365 150.242 122.699C149.53 122.034 149.022 121.18 148.778 120.237C148.763 120.143 148.724 120.054 148.665 119.98C148.606 119.905 148.529 119.847 148.441 119.811C148.353 119.775 148.258 119.762 148.163 119.773C148.069 119.785 147.979 119.82 147.903 119.876C147.616 120.149 147.233 120.298 146.837 120.29C146.441 120.281 146.065 120.117 145.79 119.833C145.514 119.549 145.363 119.167 145.367 118.771C145.372 118.375 145.533 117.998 145.815 117.72L144.838 117.317C144.449 119.088 142.288 119.753 140.731 119.241C138.99 118.668 137.493 117.002 136.974 115.256C136.835 114.837 136.784 114.393 136.825 113.953C136.865 113.513 136.995 113.086 137.208 112.699C137.398 112.346 137.693 112.061 138.053 111.884C138.413 111.708 138.819 111.649 139.215 111.716C139.568 111.766 139.888 111.951 140.107 112.232C140.326 112.513 140.427 112.869 140.389 113.223C140.331 113.622 140.176 114 139.937 114.325C139.698 114.65 139.383 114.911 139.02 115.085C138.04 115.611 136.867 115.742 135.778 115.862C134.537 115.997 133.287 116.032 132.04 115.968C131.341 115.933 131.2 117.021 131.907 117.056L131.907 117.056Z" fill="#6C63FF"/>
<path d="M206.828 86.2084V173.308H51.0591V70.4531H75.4351L97.9116 86.2084H206.828Z" fill="white"/>
<path d="M124.187 156.958H60.5718V162.012H124.187V156.958Z" fill="#4776E6"/>
<path d="M92.3795 147.148H60.5718V152.202H92.3795V147.148Z" fill="#4776E6"/>
<path d="M207.125 173.605H50.7612V70.1553H75.5284L98.0061 85.9105H207.125V173.605ZM51.3558 173.01H206.53V86.5051H97.8185L75.3407 70.7498H51.3558V173.01Z" fill="#3F3D56"/>
<path d="M270.26 163.093L264.99 164.976L255.216 145.543L262.995 142.763L270.26 163.093Z" fill="#9F616A"/>
<path d="M256.436 173.794L256.359 173.58C255.734 171.825 255.831 169.894 256.628 168.211C257.425 166.528 258.857 165.229 260.61 164.6L270.99 160.891L273.431 167.721L256.436 173.794Z" fill="#2F2E41"/>
<path d="M235.986 168.305H230.389L227.726 146.716L235.987 146.716L235.986 168.305Z" fill="#9F616A"/>
<path d="M237.414 173.73L219.366 173.729V173.501C219.366 172.579 219.547 171.665 219.9 170.813C220.254 169.961 220.771 169.186 221.423 168.534C222.076 167.882 222.85 167.364 223.702 167.011C224.555 166.658 225.468 166.477 226.391 166.477H226.391L237.414 166.477L237.414 173.73Z" fill="#2F2E41"/>
<path d="M248.742 30.3764L246.308 25.5664C246.308 25.5664 237.24 27.8384 236.416 33.0941L248.742 30.3764Z" fill="#6C63FF"/>
<path d="M258.786 85.3748L252.167 122.316L269.744 153.401L259.243 157.51L241.437 127.378L239.155 119.16L237.785 162.076L228.315 161.788L223.973 121.715L230.937 84.4619L258.786 85.3748Z" fill="#2F2E41"/>
<path d="M257.417 68.6859L257.188 47.0235C257.188 37.8427 251.145 31.0759 250.308 30.45C249.914 29.1922 249.207 28.3228 248.207 27.8679C246.193 26.955 243.729 28.0504 243.625 28.0997L236.235 30.8702L236.201 30.9716C236.122 31.2034 228.666 55.6711 226.794 61.8119C226.527 62.6929 226.374 63.1972 226.374 63.1972C226.374 63.1972 226.403 64.6172 226.455 66.8254C226.62 74.4181 227.011 91.3308 227.168 92.0408C227.168 92.0408 240.817 94.1099 246.222 94.1099C255.945 94.1099 262.12 92.2494 262.259 92.2176L262.482 92.1712L257.417 68.6859Z" fill="#3F3D56"/>
<path d="M243.54 22.8285C248.381 20.1819 250.16 14.1116 247.514 9.27007C244.867 4.42854 238.797 2.6492 233.955 5.2958C229.114 7.9424 227.334 14.0127 229.981 18.8543C232.628 23.6958 238.698 25.4751 243.54 22.8285Z" fill="#9F616A"/>
<path opacity="0.2" d="M239.855 64.1009L226.455 66.825C226.403 64.6168 226.374 63.1968 226.374 63.1968C226.374 63.1968 226.527 62.6925 226.794 61.8115L239.855 64.1009Z" fill="black"/>
<path d="M200.172 61.2456C200.647 61.6536 201.207 61.9523 201.811 62.1207C202.414 62.289 203.048 62.3229 203.666 62.2201C204.284 62.1172 204.872 61.88 205.389 61.5252C205.906 61.1704 206.338 60.7066 206.657 60.1665L221.594 63.1672L218.622 55.8287L204.893 54.1043C203.95 53.6301 202.866 53.5182 201.847 53.7897C200.827 54.0613 199.942 54.6975 199.36 55.5778C198.778 56.458 198.539 57.5212 198.689 58.5658C198.839 59.6105 199.366 60.5639 200.172 61.2456Z" fill="#9F616A"/>
<path d="M217.864 55.388L212.484 54.6445L210.689 62.1202L217.481 62.5091L217.864 55.388Z" fill="#6C63FF"/>
<path d="M216.025 53.9471L231.944 52.1809L240.39 37.1962C241.263 35.6476 242.669 34.4695 244.347 33.882C246.025 33.2945 247.859 33.3376 249.507 34.0035C251.156 34.6693 252.505 35.9122 253.304 37.5002C254.103 39.0882 254.297 40.9127 253.849 42.633L253.801 42.8191L239.603 63.534L213.056 64.8432L216.025 53.9471Z" fill="#3F3D56"/>
<path d="M247.257 22.7359L238.965 23.0336C238.46 23.0517 237.088 17.5967 236.908 16.4651C236.766 15.7283 236.361 15.0685 235.768 14.6087C235.175 14.1489 234.435 13.9207 233.686 13.9666C233.066 14.0252 231.5 12.8655 229.885 11.4923C226.819 8.88533 226.978 3.98898 230.347 1.78604C230.439 1.72583 230.529 1.67086 230.618 1.62112C232.743 0.431707 235.229 0.0322894 237.664 0.00183125C239.871 -0.0257791 242.141 0.252061 244.086 1.29689C247.573 3.17005 249.428 7.26342 249.591 11.2179C249.754 15.1723 248.486 19.039 247.048 22.7262" fill="#2F2E41"/>
<path d="M282.703 174.2H0.297269C0.218428 174.2 0.142817 174.169 0.0870678 174.113C0.0313191 174.057 0 173.982 0 173.903C0 173.824 0.0313191 173.748 0.0870678 173.693C0.142817 173.637 0.218428 173.605 0.297269 173.605H282.703C282.782 173.605 282.857 173.637 282.913 173.693C282.969 173.748 283 173.824 283 173.903C283 173.982 282.969 174.057 282.913 174.113C282.857 174.169 282.782 174.2 282.703 174.2Z" fill="#CBCBCB"/>
</svg>
