<svg width="43" height="43" viewBox="0 0 43 43" fill="none" xmlns="http://www.w3.org/2000/svg">
<circle cx="21.5" cy="21.5" r="21.5" fill="#F8F8F8"/>
<path d="M32.8652 20.1545L21.3281 31.2991C20.1455 32.4415 18.595 33 17.0445 33C15.4939 33 13.9434 32.4415 12.7608 31.2991C11.6307 30.2075 11 28.7351 11 27.1611C11 25.5872 11.6307 24.1402 12.7608 23.0232L25.0599 11.1932C25.8483 10.4316 26.8995 10 28.0296 10C29.1596 10 30.2108 10.4316 30.9993 11.1932C31.7877 11.9547 32.2344 12.9702 32.2344 14.0618C32.2344 15.1534 31.7877 16.1689 30.9993 16.9305L18.7264 28.7859C18.2796 29.2174 17.6752 29.4459 17.0445 29.4459C16.4137 29.4459 15.8093 29.2174 15.3625 28.7859C14.4427 27.8974 14.4427 26.4503 15.3625 25.5618L25.4278 15.8642C25.6381 15.6611 25.9535 15.6611 26.1637 15.8642C26.3739 16.0673 26.3739 16.372 26.1637 16.5751L16.1246 26.2726C15.6253 26.7804 15.6253 27.5673 16.1246 28.0751C16.3612 28.3035 16.7028 28.4559 17.0445 28.4559C17.3861 28.4559 17.7277 28.3289 17.9643 28.0751L30.2371 16.2196C30.8416 15.6358 31.1569 14.8742 31.1569 14.0618C31.1569 13.2494 30.8416 12.4879 30.2371 11.904C29.6327 11.3201 28.8443 11.0155 28.0033 11.0155C27.1623 11.0155 26.3739 11.3201 25.7695 11.904L13.5229 23.7594C12.5768 24.6733 12.0512 25.8918 12.0512 27.1611C12.0512 28.4305 12.5768 29.649 13.5229 30.5629C15.4676 32.4415 18.6475 32.4415 20.5923 30.5629L32.103 19.4437C32.3133 19.2406 32.6286 19.2406 32.8389 19.4437C33.0491 19.6468 33.0491 19.9768 32.8652 20.1545Z" fill="#2A2A2A"/>
</svg>
