<svg xmlns="http://www.w3.org/2000/svg" viewBox="0 0 120 100" id="upload-color"><g fill="none" fill-rule="evenodd"><path d="M61.6 80.28c.28-.56.96-.8 1.53-.52.47.23.71.75.62 1.24-.06.3-.08.61-.06.91.01.45.1.88.2 1.25.09.36.24.69.25.76-.01.01 0 .01-.02.04-.04.07-.04.04-.06.08-.01.01-.01.01-.01.02s.01.03.03.07c.03.03.09.05.15.08h.08c.07-.34.12-.67.31-1.02.23-.41.63-.86 1.28-1.09.36-.13.79-.19 1.15-.12.38.06.68.25.9.43.18.13.35.27.49.42.05.06.08.08.14.13l.14.14c.02.02.04.02.05.03l.05.05c.03.03.07.04.1.06.13.08.23.16.34.24.12.08.17.19.26.28.05.04.08.09.11.14.04.06.06.08.09.12.03.03.04.08.05.1.04.05.07.07.07.07-.01.02-.08.12-.12.18.01.02.02.04.04.03 0 .01.03.06.05.08.02.01.03.02.03.01.15.07.32.2.51.27.12.04.26.1.31.21.03.07.01.16.02.24.01.09.03.18.06.26.02.07.05.14-.03.26-.05.14-.2.29-.37.41-.11.09-.29.19-.51.24-.13.05-.33.01-.5 0-.26-.04-.55-.13-.75-.28-.4-.28-.59-.62-.7-.85-.09-.2-.15-.36-.24-.51-.09-.14-.2-.27-.31-.35a.37.37 0 0 0-.11-.05c-.05-.02-.11-.01-.16-.01-.2-.02-.29-.2-.37-.32-.12-.13-.17.06-.21.13-.07.11-.37.23-.52.55-.08.16-.06.39-.02.51.04.13-.01.26-.11.34l-.46.35c-.12.09-.25.17-.41.24-.59.26-1.61.12-2.25-.44-.32-.26-.55-.52-.71-.79-.21.25-.49.47-.83.77-.36.3-.67.58-1.06.76-.4.16-.74.28-1.24.3-.24 0-.49-.03-.74-.04-.19-.01-.35.01-.54 0-.44-.01-.91-.36-1.18-.74-.13-.18-.2-.33-.27-.45-.04-.06-.07-.13-.11-.16.02 0 .03.01.05 0 .04-.01.07-.04.08-.08v-.06c-.04-.09-.3-.08-.52-.18-.17-.1-.34-.2-.45-.36-.12-.17-.19-.39-.19-.63.01-.23.09-.51.46-.75.31-.22.97-.3 1.49-.05.45.21.72.47.91.65.06.06.08.11.12.16.06.07.13.1.17.13.07.05.13.1.22.14.05.03.13.07.2.01.05-.04.08-.13.13-.16.1-.05.19-.04.37-.08.08-.02.16-.03.21-.08.07-.07.1-.12.19-.11.11.01.35.04.21-.13.23-.04.35-.37.55-.63.19-.24.58-.43.6-.81.01-.22-.07-.41-.02-.64.06-.25.23-.46.38-.66.1-.13.18-.29.25-.42zm-7.79-8.31c.89.5 1.39 1.12 1.66 1.49.24.36.22.65.41.57.11-.07.21-.22.22-.27 0-.03.11.02.34-.13.21-.12.45-.39.8-.72.34-.32.88-.69 1.46-.81.54-.11 1.06-.11 1.63.07.56.19.99.56 1.28.85.21.24.42.46.63.69.15.15.2.19.27.24.06.05.22.1.32.13.11.03.24.06.43-.01.22-.08.44-.23.64-.56.22-.37.5-.87 1.13-1.19.71-.33 1.49-.32 2.26.04.42.21.73.49.96.73.24.26.36.5.47.68.08.12.17.21.22.27.02.03.04.04.07.04.02 0 .04.03.07.03l.03-.01h.03l.05-.02c.07-.05.13-.06.18-.12.06-.04.09-.04.13-.07.01-.03.03-.02.05-.03.02-.02.04-.02.06-.05.03-.03.06-.02.1-.05.12-.08.25-.32.48-.49.12-.09.26-.14.4-.24.09-.06.25-.14.35-.22-.03.02.08-.01.15-.04.05-.02.08-.03.1-.05.4-.14.77-.06 1.05.04.18.07.34.17.33.29 0 .08-.07.16-.1.24-.03.09-.03.18-.03.27 0 .07.01.15-.03.22-.06.12-.14.22-.18.32-.03.08-.05.17-.1.25-.03.06-.09.11-.15.17-.08.1-.17.22-.29.36-.22.25-.54.57-.97.79-.33.19-.73.28-1.11.32-.38.04-.79 0-1.18-.09-.09-.03-.22-.06-.35-.1-.15-.06-.27-.08-.41-.14-.55-.27-.77-.8-.91-1.08-.18-.37-.48-.39-.61-.36-.15 0-.24-.01-.37-.01-.11 0-.21.02-.35.15-.24.24-.23.66-.7 1.16a2.5 2.5 0 0 1-1.15.65c-.47.11-.89.1-1.34.06-.48-.05-.96-.23-1.32-.49-.36-.25-.6-.54-.76-.8-.34-.55-.43-.78-.71-.86-.44-.08-.64.08-.93.72-.08.18-.17.41-.37.64-.18.21-.46.39-.75.52-.41.18-.88.26-1.29.23-.4-.03-.83-.1-1.24-.31-.39-.19-.69-.44-.95-.63-.18-.14-.36-.26-.49-.39-.38-.38-.38-.6-.6-.66-.1-.01-.2.02-.28.06-.07.06-.1.1-.15.16-.1.09-.27.33-.56.68-.15.18-.36.39-.59.63-.18.19-.33.36-.54.53-.54.41-1.32.43-1.89.25-.31-.1-.61-.25-.89-.43-.18-.11-.4-.32-.55-.42-.1-.07-.18-.1-.27-.19-.11-.1-.22-.23-.3-.33a1.19 1.19 0 0 1-.17-.27.784.784 0 0 1-.09-.24l-.01-.08-.03-.05c-.11-.21-.16-.34-.25-.57-.04-.19-.13-.37-.11-.56.01-.21.12-.44.36-.59.23-.15.68-.21 1.16.05.42.22.71.57.92.8.19.21.36.33.47.37.03.01.04.05.07.05.03.02.09-.01.12 0 .11.01.26 0 .32-.03.05-.01.12-.04.15-.15.02-.08-.02-.17.02-.26.1-.2.34-.5.68-.84.16-.17.38-.34.61-.52.31-.25.55-.38.99-.43.54-.09 1.39.19 1.79.15zm-.02-6.5c.89.5 1.39 1.12 1.66 1.49.24.36.22.65.41.57.11-.07.21-.22.22-.27 0-.03.11.02.34-.13.21-.12.45-.39.8-.72.34-.32.88-.69 1.46-.81.54-.11 1.06-.11 1.63.07.56.19.99.56 1.28.85.21.24.42.46.63.69.15.15.2.19.27.24.06.05.22.1.32.13.11.03.24.06.43-.01.22-.08.44-.23.64-.56.22-.37.5-.87 1.13-1.19.71-.33 1.49-.32 2.26.04.42.21.73.49.96.73.24.26.36.5.47.68.08.12.17.21.22.27.02.03.04.04.07.04.02 0 .04.03.07.03l.03-.01h.03l.05-.02c.07-.05.13-.06.18-.12.06-.04.09-.04.13-.07.01-.03.03-.02.05-.03.02-.02.04-.02.06-.05.03-.03.06-.02.1-.05.12-.08.25-.32.48-.49.12-.09.26-.14.4-.24.09-.06.25-.14.35-.22-.03.02.08-.01.16-.04.05-.02.08-.03.1-.05.4-.14.77-.06 1.05.04.18.07.34.17.33.29 0 .08-.07.16-.1.24-.03.09-.03.18-.03.27 0 .07.01.15-.03.22-.06.12-.14.22-.18.32-.03.08-.05.17-.1.25-.03.06-.09.11-.15.17-.08.1-.17.22-.29.36-.22.25-.54.57-.97.79-.33.19-.73.28-1.11.32-.38.04-.79 0-1.18-.09-.09-.03-.22-.06-.35-.1-.15-.06-.27-.08-.41-.14-.55-.27-.77-.8-.91-1.08-.18-.37-.48-.39-.61-.36-.15 0-.24-.01-.37-.01-.11 0-.21.02-.35.15-.24.24-.23.66-.7 1.16-.28.28-.69.54-1.16.65-.47.11-.89.1-1.34.06-.48-.05-.96-.23-1.32-.49-.36-.25-.6-.54-.76-.8-.34-.55-.43-.78-.71-.86-.44-.08-.64.08-.93.72-.08.18-.17.41-.37.64-.18.21-.46.39-.75.52-.41.18-.88.26-1.29.23-.4-.03-.83-.1-1.24-.31-.39-.19-.69-.44-.95-.63-.18-.14-.36-.26-.49-.39-.38-.38-.38-.6-.6-.66-.1-.01-.2.02-.28.06-.07.06-.1.1-.15.16-.1.09-.27.33-.56.68-.15.18-.36.39-.59.63-.18.19-.33.36-.54.53-.54.41-1.32.43-1.89.25-.31-.1-.61-.25-.89-.43-.18-.11-.4-.32-.55-.42-.1-.07-.18-.1-.27-.19-.11-.1-.22-.23-.3-.33a1.19 1.19 0 0 1-.17-.27.784.784 0 0 1-.09-.24l-.01-.08-.03-.05c-.11-.21-.16-.34-.25-.57-.04-.19-.13-.37-.11-.56.01-.21.12-.44.36-.59.23-.15.68-.21 1.16.05.42.22.71.57.92.8.19.21.36.33.47.37.03.01.04.05.07.05.03.02.09-.01.12 0 .11.01.26 0 .32-.03.05-.01.12-.04.15-.15.02-.08-.02-.17.02-.26.1-.2.34-.5.68-.84.16-.17.38-.34.61-.52.31-.25.55-.38.99-.43.54-.09 1.39.19 1.79.15zm-.05-6.5c.89.5 1.39 1.12 1.66 1.49.24.36.22.65.41.57.11-.07.21-.22.22-.27 0-.03.11.02.34-.13.21-.12.45-.39.8-.72.34-.32.88-.69 1.46-.81.54-.11 1.06-.11 1.63.07.56.19.99.56 1.28.85.21.24.42.46.63.69.15.15.2.19.27.24.06.05.22.1.32.13.11.03.24.06.43-.01.22-.08.44-.23.64-.56.22-.37.5-.87 1.13-1.19.71-.33 1.49-.32 2.26.04.42.21.73.49.96.73.24.26.36.5.47.68.08.12.17.21.22.27.02.03.04.04.07.04.02 0 .04.03.07.03l.03-.01h.03l.05-.02c.07-.05.13-.06.18-.12.06-.04.09-.04.13-.07.01-.03.03-.02.05-.03.02-.02.04-.02.06-.05.03-.03.06-.02.1-.05.12-.08.25-.32.48-.49.12-.09.26-.14.4-.24.09-.06.25-.14.35-.22-.01.02.1-.01.17-.04.05-.02.08-.03.1-.05.4-.14.77-.06 1.05.04.18.07.34.17.33.29 0 .08-.07.16-.1.24-.03.09-.03.18-.03.27 0 .07.01.15-.03.22-.07.12-.16.22-.19.32-.03.08-.05.17-.1.25-.03.06-.09.11-.15.17-.08.1-.17.22-.29.36-.22.25-.54.57-.97.79-.33.19-.73.28-1.11.32-.38.04-.79 0-1.18-.09-.09-.03-.22-.06-.35-.1-.15-.06-.27-.08-.41-.14-.55-.27-.77-.8-.91-1.08-.18-.37-.48-.39-.61-.36-.15 0-.24-.01-.37-.01-.11 0-.21.02-.35.15-.24.24-.23.66-.7 1.16-.28.28-.69.54-1.16.65-.47.11-.89.1-1.34.06-.48-.05-.96-.23-1.32-.49-.36-.25-.6-.54-.76-.8-.34-.55-.43-.78-.71-.86-.44-.08-.64.08-.93.72-.08.18-.17.41-.37.64-.18.21-.46.39-.75.52-.41.18-.88.26-1.29.23-.4-.03-.83-.1-1.24-.31-.39-.19-.69-.44-.95-.63-.18-.14-.36-.26-.49-.39-.38-.38-.38-.6-.6-.66-.1-.01-.2.02-.28.06-.07.06-.1.1-.15.16-.1.09-.27.33-.56.68-.15.18-.36.39-.59.63-.18.19-.33.36-.54.53-.54.41-1.32.43-1.89.25-.31-.1-.61-.25-.89-.43-.18-.11-.4-.32-.55-.42-.1-.07-.18-.1-.27-.19-.11-.1-.22-.23-.3-.33a1.19 1.19 0 0 1-.17-.27c-.04-.08-.08-.16-.09-.24l-.01-.08-.03-.05c-.11-.21-.16-.34-.25-.57-.04-.19-.13-.37-.11-.56.01-.21.12-.44.36-.59.23-.15.68-.21 1.16.05.42.22.71.57.92.8.19.21.36.33.47.37.03.01.04.05.07.05.03.02.09-.01.12 0 .11.01.26 0 .32-.03.05-.01.12-.04.15-.15.02-.08-.02-.17.02-.26.1-.2.34-.5.68-.84.16-.17.38-.34.61-.52.31-.25.55-.38.99-.43.54-.09 1.39.19 1.79.15zm-4.47-11.03c.78-.35 1.78-.07 2.45.33.34.19.63.36.95.59.33.24.62.56.82.91.13.21.21.45.26.66.14.72-.1 1.23-.36 1.41a.58.58 0 0 1-.47.1v.03c.02 0 .03-.01.04-.01.07 0 .14.05.2.11.06.01.11.07.17.13a1.538 1.538 0 0 1 .22.27c.02.02.04.03.05.06 0 .01.02.02.02.04v.08c.01.04.03.05.01.1 0 .04-.02.13-.03.17l.01.02c-.02.05-.01.08-.02.12-.01.05-.04.11-.04.15l.01.04c0 .03-.01.09-.02.12-.03.14-.1.29-.15.43-.06.18-.16.36-.25.53-.15.29-.33.58-.62.81-.25.21-.56.34-.85.43-.82.23-1.65.21-2.47-.02-.4-.11-.77-.25-1.13-.42-.26-.13-.51-.25-.74-.47-.64-.6-.83-1.51-.91-2.31-.05-.65-.08-1.27.14-1.91.23-.61.62-1.2 1.16-1.6.27-.22.6-.38.9-.55.25-.13.42-.24.65-.35z" fill="#36A635"></path><path d="M71.53 51.09c.09.06.16.12.22.19.05.06.09.13.09.19.01.1 0 .2.01.31.01.07.04.13.04.2s-.04.14-.08.2c-.01.06-.05.12-.09.18-.03.04-.06.08-.09.13-.02.04-.05.08-.08.12l-.03.06c-.01.01-.01.02-.02.03-.02.01-.04.01-.05.02-.03.01-.03.04-.06.05-.02.01-.08.01-.11.01l-.01.01c-.03 0-.05.01-.08.02s-.07 0-.1.01c-.01.01-.01.02-.02.03-.02.01-.05.02-.07.02-.09.03-.19.02-.28.05l-.36.09c-.19.06-.39.13-.6.14-.19.01-.38-.02-.56-.06-.5-.1-.99-.19-1.52-.19-.25 0-.5.02-.74.07-.18.04-.34.1-.52.12-.51.05-1.01-.13-1.52-.14-.4 0-.77.12-1.16.16-.39.04-.78.07-1.17.07-.2 0-.42-.02-.62.02-.16.03-.28.09-.41.14-.46.17-.97-.01-1.42-.1a2.29 2.29 0 0 0-.64-.02c-.24.02-.47.03-.71 0-.14-.02-.28-.05-.41-.09-.42-.14-.71-.4-.84-.66-.14-.28-.09-.58.06-.85.12-.22.32-.46.64-.6.29-.13.66-.13 1-.1.1.01.2 0 .29-.01.19-.02.35-.02.53-.02.16 0 .3-.04.47-.04.3-.01.6-.01.9 0 .19 0 .39.02.56-.05.13-.05.18-.14.32-.17.3-.06.65-.04.96-.05.15 0 .31.01.46-.02.21-.04.32-.07.54-.03.27.05.77.23.93.01.48.14.96.04 1.47.1.46.05.93.31 1.41.18.28-.08.48-.23.8-.27.35-.04.69.05 1.02.12.1.02.21.05.31.06.09.02.19.03.29.03.07 0 .13-.01.19-.01.16 0 .36.04.47.11.11.06.21.13.32.18.02.02.04.03.07.05zM47.92 27.39c.47-.29 1.09-.16 1.4.29.12.16.26.31.41.28.23.42.62.66.92 1.03.28.34.41.83.82 1.05.24.13.48.15.72.33.27.2.43.49.6.75.06.09.12.17.17.25.05.07.11.14.17.21.04.05.09.08.14.12.1.11.2.27.24.39.02.11.05.23.08.34l.02.09c.02.1.03.18-.02.22-.01.08-.03.15-.07.2-.07.08-.15.15-.21.23-.04.06-.06.12-.11.17-.05.05-.13.07-.2.09-.05.04-.12.05-.19.07l-.15.04c-.05.02-.09.02-.14.03l-.06.02c-.01.01-.02.01-.03.01-.02 0-.03-.01-.05-.02-.02 0-.04.01-.07 0a.284.284 0 0 1-.09-.06h-.02c-.02-.02-.04-.03-.06-.04-.02-.02-.04-.05-.07-.06l-.03.01c-.01 0-.04-.02-.06-.03-.08-.04-.14-.11-.22-.15l-.3-.17c-.17-.09-.35-.16-.5-.29-.14-.12-.24-.27-.34-.41-.26-.39-.53-.78-.88-1.13-.08-.08-.18-.13-.26-.2-.07.32-.13.65-.13 1 0 .21.02.42.08.61.04.15.1.28.12.43.05.42-.13.83-.13 1.25 0 .33.13.63.17.95.04.32.07.64.07.96 0 .16-.01.34.02.5.03.13.1.22.15.33.17.37-.01.79-.09 1.16-.04.18-.03.35-.01.53.03.19.03.39.01.58-.02.12-.05.24-.09.34-.14.34-.39.58-.66.69-.28.12-.58.08-.85-.04-.22-.1-.46-.26-.61-.52-.13-.24-.13-.54-.11-.82.01-.08 0-.16-.01-.24-.02-.15-.02-.28-.02-.43 0-.13-.05-.25-.05-.38-.01-.25-.01-.5-.01-.74 0-.15.02-.32-.05-.45-.05-.1-.14-.14-.17-.26-.06-.25-.05-.54-.05-.79 0-.13.01-.26-.02-.38-.04-.17-.07-.26-.03-.44.06-.21.23-.63.01-.76.14-.4.04-.79.09-1.2.04-.38.31-.76.17-1.15l-.01-.03c-.19.37-.62.58-.95.81-.17.12-.3.26-.43.42-.14.18-.29.34-.46.48-.1.08-.22.16-.33.21-.38.18-.75.2-1.03.1-.29-.1-.47-.34-.57-.63-.07-.24-.12-.53-.01-.85.1-.28.34-.52.58-.74.08-.06.13-.13.19-.2.1-.14.21-.25.33-.37l.27-.34.59-.61c.12-.12.27-.24.33-.4.05-.12.02-.21.09-.33.15-.25.4-.47.6-.68.1-.1.21-.2.29-.32.1-.17.15-.26.33-.38l.33-.21zm20.07-1c.47-.29 1.09-.16 1.4.29.12.16.26.31.41.28.23.42.62.66.92 1.03.28.34.41.83.82 1.05.24.13.48.15.72.33.27.2.43.49.6.75.06.09.12.17.17.25.05.07.11.14.17.21.04.05.09.08.14.12.1.11.2.27.24.39.02.11.05.23.08.34l.02.09c.02.1.03.18-.02.22-.01.08-.03.15-.07.2-.07.08-.15.15-.21.23-.04.06-.06.12-.11.17-.05.05-.13.07-.2.09-.05.04-.12.05-.19.07l-.15.04c-.05.02-.09.02-.14.03l-.06.02c-.01.01-.02.01-.03.01-.02 0-.03-.01-.05-.02-.02 0-.04.01-.07 0a.284.284 0 0 1-.09-.06h-.02c-.02-.02-.04-.03-.06-.04-.02-.02-.04-.05-.07-.06l-.03.01c-.01 0-.04-.02-.06-.03-.08-.04-.14-.11-.22-.15l-.3-.17c-.17-.09-.35-.16-.5-.29-.14-.12-.24-.27-.34-.41-.26-.39-.53-.78-.88-1.13l-.22-.17c-.09.42-.17.83-.17 1.27 0 .23.02.45.08.66.04.15.1.3.12.46.05.45-.13.9-.13 1.35 0 .36.13.68.17 1.03.04.35.07.69.07 1.04 0 .18-.01.37.02.54.03.14.1.24.15.36.17.4-.01.86-.09 1.26-.04.2-.03.37-.01.57.03.21.03.42.01.63-.02.13-.05.26-.09.37-.14.37-.39.63-.66.75-.28.12-.58.08-.85-.05-.22-.1-.46-.27-.61-.56-.13-.26-.13-.58-.11-.89.01-.09 0-.17-.01-.26-.02-.16-.02-.31-.02-.47 0-.14-.05-.27-.05-.41-.01-.26-.01-.54-.01-.8 0-.16.02-.34-.05-.49-.05-.11-.14-.16-.17-.28-.06-.26-.05-.57-.05-.85 0-.14.01-.28-.02-.41-.04-.19-.07-.28-.03-.48.06-.24.23-.68.01-.83.14-.43.04-.85.09-1.3.04-.41.31-.83.17-1.25-.02-.07-.05-.12-.08-.18-.21.3-.58.5-.88.7-.17.12-.3.26-.43.42-.14.18-.29.34-.46.48-.1.08-.22.16-.33.21-.38.18-.75.2-1.03.1-.29-.1-.47-.34-.57-.63-.07-.24-.12-.53-.01-.85.1-.28.34-.52.58-.74.08-.06.13-.13.19-.2.1-.14.21-.25.33-.37l.27-.34.59-.61c.12-.12.27-.24.33-.4.05-.12.02-.21.09-.33.15-.25.4-.47.6-.68.1-.1.21-.2.29-.32.1-.17.15-.26.33-.38l.33-.21zm-10-6c.47-.29 1.09-.16 1.4.29.12.16.26.31.41.28.23.42.62.66.92 1.03.28.34.41.83.82 1.05.24.13.48.15.72.33.27.2.43.49.6.75.06.09.12.17.17.25.05.07.11.14.17.21.04.05.09.08.14.12.1.11.2.27.24.39.02.11.05.23.08.34l.02.09c.02.1.03.18-.02.19-.01.08-.03.15-.07.2-.07.08-.15.15-.21.23-.04.06-.06.12-.11.17-.05.05-.13.07-.2.09-.05.04-.12.05-.19.07l-.15.04c-.05.02-.09.02-.14.03l-.06.02c-.01.01-.02.01-.03.01-.02 0-.03-.01-.05-.02-.02 0-.04.01-.07 0a.284.284 0 0 1-.09-.06h-.02c-.02-.02-.04-.03-.06-.04-.02-.02-.04-.05-.07-.06l-.03.01c-.01 0-.04-.02-.06-.03-.08-.04-.14-.11-.22-.15l-.3-.17c-.17-.09-.35-.16-.5-.29-.14-.12-.24-.27-.34-.41-.26-.39-.53-.78-.88-1.13-.05-.06-.13-.1-.19-.15.02.09.03.19.04.29.02.25-.02.5-.05.73-.09.65-.18 1.29-.18 1.98 0 .34.02.66.08.97.04.23.1.44.12.68.05.66-.13 1.32-.13 1.98 0 .53.13 1 .17 1.51.04.5.07 1.01.07 1.52 0 .27-.01.54.02.8.03.2.1.35.15.53.17.59-.01 1.26-.09 1.85-.04.29-.03.55-.01.84.03.3.03.61.01.92-.02.19-.05.37-.09.54-.14.55-.39.93-.66 1.1-.28.18-.58.12-.85-.08-.22-.16-.46-.41-.61-.83-.13-.37-.13-.85-.11-1.3.01-.13 0-.25-.01-.38-.02-.24-.02-.45-.02-.69 0-.22-.05-.4-.05-.61-.01-.38-.01-.78-.01-1.17 0-.24.02-.51-.05-.72-.05-.16-.14-.23-.17-.41-.06-.39-.05-.85-.05-1.25 0-.2.01-.41-.02-.6-.04-.27-.07-.41-.03-.7.06-.34.23-.99.01-1.21.14-.63.04-1.25.09-1.91.04-.6.31-1.21.17-1.83-.09-.37-.24-.63-.28-1.04-.02-.18 0-.35.01-.52-.21.2-.47.35-.7.5-.17.12-.3.26-.43.42-.14.18-.29.34-.46.48-.1.08-.22.16-.33.21-.38.18-.75.2-1.03.1-.29-.1-.47-.34-.57-.63-.07-.24-.12-.53-.01-.85.1-.28.34-.52.58-.74.08-.06.13-.13.19-.2.1-.14.21-.25.33-.37l.27-.34.59-.61c.12-.12.27-.24.33-.4.05-.12.02-.21.09-.33.15-.25.4-.47.6-.68.1-.1.21-.2.29-.32.1-.17.15-.26.33-.38l.33-.21z" fill="#085440"></path><path d="M102.22 43.69c.02-.32.01-.65 0-.97-.02-.26-.05-.52-.05-.78-.02-.58-.11-1.15-.18-1.73-.14-.69-.5-1.29-.81-1.87-.37-.63-.69-1.18-.96-1.86-.09-.26-.17-.53-.31-.78-.15-.23-.33-.45-.49-.67-.28-.4-.56-.79-.93-1.09-.32-.27-.62-.49-.96-.73-.29-.2-.42-.45-.58-.73-.25-.51-.63-.93-1.05-1.38-.46-.48-1.04-.81-1.59-1.17-.59-.3-1.17-.6-1.77-.87-.63-.26-1.26-.6-1.84-.91-.3-.18-.62-.38-.99-.46-.34-.05-.58.05-.89.06-.52.01-.94-.37-1.43-.47-.53-.11-1.04-.14-1.54-.28-.06.07-.17.08-.28.08.13-.23.25-.48.37-.73.02-.06.04-.11.06-.16.03-.07.06-.11.1-.17.08-.14.17-.34.23-.51.07-.17.14-.37.18-.57.05-.22.11-.45.14-.66.02-.16.01-.28.02-.43.01-.21.1-.56.14-.77.06-.3.14-.66.21-.98.12-.64.22-1.37.07-2-.06-.27-.14-.49-.18-.8-.06-.38-.04-.8-.1-1.2-.13-.75-.21-1.52-.45-2.24-.24-.73-.48-1.39-.77-2.12-.17-.46-.27-.95-.44-1.41-.17-.46-.36-.92-.6-1.36-.16-.32-.4-.56-.6-.83-.29-.36-.54-.78-.82-1.18-.3-.41-.58-.82-.84-1.23-.26-.41-.57-.78-.86-1.18-.21-.28-.42-.59-.72-.83-.32-.27-.65-.47-.96-.68-1.07-.68-2.18-1.44-3.33-2.14-1-.56-1.87-1.14-2.9-1.58-.99-.49-1.95-.59-3-.82C69.5.36 68.59 0 67.55.01c-.9-.05-1.57.19-2.45.26-1.09.09-2.14.14-3.22.45-.76.24-1.42.61-2.2.78-.62.15-1.44.34-2.01.76-.15.1-.24.2-.4.31-.11.08-.22.16-.34.24-.42.26-.83.51-1.23.75-.36.22-.75.46-1.16.7-.48.31-.97.65-1.41 1.04-.24.2-.45.42-.67.64-.14.15-.3.3-.43.45-.18.25-.33.5-.46.73-.09.14-.17.3-.24.46a4.1 4.1 0 0 0-.53-.15c-.35-.08-.72-.1-1.08-.15-.64-.07-1.27-.11-1.89-.05-.55.03-1.03.22-1.55.31-.45.07-.81.04-1.23.02-.36-.02-.73-.05-1.11-.03-.38.04-.76.09-1.16.16-1.73.37-3.28 1.24-4.72 2.22-.73.54-1.5 1.08-2.22 1.59-.4.24-.79.54-1.1.94-.28.36-.36.66-.53 1.03-.3.61-.92.98-1.28 1.53-.44.58-.65 1.23-1.08 1.8.07.29-.34.89-.51 1.23-.15.28-.18.44-.24.74-.03.21-.09.43-.15.65-.1.43-.28.91-.27 1.35 0 .2.08.29.1.48.03.24-.03.52-.07.78-.05.42-.06.85-.08 1.27-.01.18.02.36.01.54 0 .12-.02.22-.01.34.02.4.08.79.13 1.19.05.45.12.91.27 1.3.03.08.07.15.1.22-.27.04-.54.09-.81.1-.16.01-.31-.01-.47.04-.15.04-.32.06-.45.14-.23.14-.46.19-.72.25-.3.07-.56.16-.81.32-.2.13-.38.2-.61.26-.83.21-1.48.88-2.14 1.35-.7.57-1.5 1.14-2.24 1.65-.27.18-.58.29-.84.49-.23.16-.45.36-.69.52-.23.16-.48.28-.65.52-.18.24-.27.5-.45.73-.17.22-.4.39-.54.64-.13.21-.22.46-.39.65-.15.17-.33.27-.44.5-.12.27-.16.55-.28.81-.11.26-.3.49-.4.76-.09.22-.15.44-.25.65-.23.46-.44.92-.58 1.42-.1.3-.14.6-.16.9-.01.3.02.61.02.9 0 .32.01.63 0 .93.01.3 0 .61-.07.93-.08.22-.15.46-.16.72.02.22.04.49.06.72.02.42.06.83.18 1.23.1.35.24.66.37.99.11.29.07.54.02.82-.08.5-.07 1-.01 1.54.22 1.16.74 2.24 1.36 3.26.28.55.66 1.08.88 1.65.14.29.29.6.53.84.22.22.48.25.73.38.42.22.54.75.88 1.05.35.35.76.58 1.08.93.26-.09.56.31.75.5.16.16.28.17.47.22.14.04.27.12.4.19.27.13.55.32.85.36.14.02.22-.04.34-.05.15 0 .33.07.47.15.07.04.15.06.23.09.11.06.21.1.3.14.17.07.33.14.49.22.37.18.73.31 1.14.35.49.02.99-.07 1.35-.24.14-.06.27-.15.34-.25s.08-.21.08-.33c0-.1-.01-.2-.03-.3l-.08-.54c-.01-.06.01-.13-.03-.19-.02-.04-.06-.08-.09-.12-.01-.01-.07-.12-.09-.12-.05-.01-.09-.07-.12-.09-.03-.02-.07-.05-.11-.07-.04-.02-.1-.05-.13-.07-.03-.02-.07-.02-.11-.03-.05-.02-.09-.04-.14-.06-.05-.02-.11-.03-.16-.05-.07-.02-.14-.05-.21-.05-.06-.01-.12 0-.17-.03-.01.01-.02.01-.03.01-.01.01-.06.01-.08.01-.16.01-.29-.05-.43-.13-.33-.18-.66-.49-1.06-.48-.12.01-.23.03-.36.01-.16-.03-.32-.1-.47-.17-.28-.15-.57-.27-.87-.37-.31-.09-.61-.17-.89-.35-.17-.11-.32-.26-.47-.41-.14-.16-.27-.31-.44-.42-.13-.08-.27-.12-.4-.17-.2-.07-.34-.21-.49-.36-.3-.3-.52-.65-.68-1.02-.06-.13-.13-.27-.24-.38-.13-.12-.26-.21-.39-.31-.22-.16-.41-.36-.59-.58-.15-.24-.28-.49-.4-.75-.21-.44-.24-.91-.35-1.36-.05-.46-.27-.8-.41-1.24-.12-.42-.06-.84-.13-1.26-.07-.37-.35-.61-.4-.99-.05-.48.01-.92-.05-1.4-.05-.34-.24-.67-.13-1.01.14-.38.28-.68.09-1.07-.09-.18-.22-.34-.25-.54-.05-.28.05-.58.15-.84.11-.34.3-.65.46-.97.17-.31.27-.65.42-.99.16-.4.23-.85.49-1.2.27-.33.66-.53.86-.9.19-.31.1-.69.34-.97.23-.27.57-.3.69-.67.09-.31.08-.54.4-.74.09-.06.19-.11.27-.2.1-.11.17-.24.27-.35.29-.32.66-.53 1.02-.74.3-.19.59-.41.87-.63.35-.25.68-.48 1.04-.7.57-.29.89-.73 1.34-1.16.54-.45 1.16-.81 1.88-.73.16.01.32.05.48 0 .16-.04.3-.17.44-.26.33-.2.68-.38 1.08-.48.37-.11.76-.1 1.14-.13.33-.02.67-.08 1-.08.34 0 .65.01.92.17.25.16.46.23.79.28.35.04.74.14 1.1.13.29-.01.51-.22.8-.19.14.01.26.08.4.11.05.01.09.01.13.02.07.01.14.04.2.06.3.1.61.19.93.25.18.04.36.07.54.09.36.03.76.05 1.1.02.08-.01.14-.03.2-.05.11-.05.19-.12.27-.2.12-.13.24-.27.34-.41.1-.16.14-.34.17-.52-.02-.01-.03-.1-.03-.12-.01-.05.01-.1-.01-.15-.03-.06-.07-.12-.11-.18-.06-.05-.03-.11-.05-.16-.01-.03-.02-.04-.05-.06-.02-.02-.04-.03-.05-.05-.05-.02-.1-.08-.14-.12-.05-.04-.11-.09-.18-.12-.03-.01-.05-.01-.08-.02-.04-.01-.07-.04-.1-.06a4.8 4.8 0 0 0-.93-.39c-.08-.02-.15-.05-.22-.08-.03-.02-.08-.05-.12-.07a.3.3 0 0 0-.1-.04c-.04-.01-.08-.04-.11-.04-.05-.01-.09 0-.13 0-.09 0-.19-.02-.27-.06-.05-.03-.11-.07-.16-.11-.08-.05-.18-.06-.28-.07-.15-.01-.28.04-.41.08-.12.04-.26.11-.41.09-.16-.02-.23-.13-.33-.21-.25-.19-.44.04-.72.04-.13 0-.24-.03-.36.01-.14.03-.26.11-.39.16-.36.13-.58-.06-.92-.12-.4-.08-.72.04-1.1.12-.23.04-.46.06-.68.07.02-.19.02-.39.03-.6v-.11c0-.05.02-.08.03-.12.02-.1.03-.24.04-.35.01-.11.02-.25.01-.37-.01-.14-.01-.28-.04-.42-.02-.1-.05-.17-.07-.26-.03-.13 0-.35.01-.48.02-.21.09-.41.13-.61.11-.39.15-.83.1-1.22-.03-.17-.07-.31-.06-.51.01-.24.05-.5.1-.74.12-.46.21-.92.29-1.39.13-.46.17-.92.34-1.38.3-.55.67-1.05.98-1.59.1-.2.16-.4.23-.61.09-.29.27-.54.46-.79.38-.53.86-.92 1.34-1.3.17-.14.35-.28.52-.44.18-.19.31-.4.45-.6.48-.65 1.18-1.21 1.95-1.61.63-.39 1.3-.52 1.96-.75.68-.13 1.18-.48 1.84-.64.31-.09.62-.14.93-.16.31-.01.62-.01.93-.07.54-.12.95-.31 1.52-.37.7-.06 1.35.12 2.06.13.5.01 1.01-.07 1.48.13.38.17.84.43 1.29.45.11 0 .21-.01.33.01.09.01.18.03.27.05.29.07.6.2.87.33.27.14.51.29.74.45.34.23.65.44.92.62.16.11.33.2.5.3.11.07.22.15.33.21.18.08.36.15.52.2.21.07.46.17.63.18.11 0 .16-.05.21-.1.07-.06.14-.12.23-.15s.2-.03.26-.09c.08-.09.01-.29-.06-.46-.11-.29-.23-.59-.45-.89-.02 0-.05-.03-.07-.07-.03-.05-.09-.15-.11-.18-.1-.06-.21-.21-.28-.29-.13-.14-.2-.26-.34-.39-.25-.24-.62-.4-.92-.59-.11-.09-.18-.15-.28-.2l-.29-.15c-.1-.06-.2-.1-.31-.14-.19-.06-.38-.17-.57-.2-.19-.03-.37-.06-.57-.1-.05-.01-.1-.01-.15-.02-.03-.01-.05-.02-.09-.03-.02 0-.06 0-.07-.01-.09-.02-.17-.06-.25-.09h-.01c.08-.05.16-.09.24-.15.01-.03.05-.06.09-.09.08-.05.19-.11.23-.13.1-.11.3-.22.41-.3.19-.13.35-.2.54-.33.37-.22.68-.59 1.05-.85.11-.08.21-.13.32-.22.11-.08.2-.17.32-.25.12-.08.23-.15.33-.25.19-.16.41-.3.58-.45l.53-.47c.04-.04.09-.09.15-.13.04-.02.06-.04.1-.06.02-.02.05-.04.07-.06.09-.06.2-.1.29-.15.11-.06.16-.1.28-.15.34-.13.6-.24.93-.37.43-.14.86-.26 1.3-.42.41-.12.83-.29 1.26-.41.76-.23 1.53-.39 2.28-.57.67-.15 1.28-.34 1.95-.42.59-.1 1.05.04 1.57.15.9.17 1.78.48 2.74.7 2.07.56 4.09 1.26 5.92 2.42.94.59 1.86 1.34 2.52 2.17.38.41.68.93 1.11 1.34.41.37.71.56 1.07.9.63.57.8 1.43 1.17 2.12.2.42.37.77.55 1.15.19.37.34.75.4 1.17.29.2.46 1.05.49 1.51.05.38.12.55.26.88.1.24.14.51.17.77.06.53.18 1.11.26 1.62.04.24.14.32.2.54.08.28.08.64.09.96 0 .52-.03 1.05-.06 1.56-.02.23 0 .44-.03.67-.02.14-.05.27-.07.42-.05.49-.1.97-.2 1.46-.11.55-.26 1.1-.34 1.62-.06.37-.07.66-.05.92h-.05c-.33.01-.71.01-1.02.1-.15.04-.19.14-.32.2-.14.07-.37.1-.54.1-.09 0-.18.02-.27.04-.11.02-.23.04-.34.05-.2.02-.4.03-.6.04-.46.02-.9.1-1.32.3-.51.23-.95.58-1.22.93-.11.14-.18.28-.19.41-.01.12.04.23.11.32.06.08.12.16.19.24l.37.41c.04.05.06.11.13.14.04.02.1.04.15.05.02.01.13.06.15.05.05-.02.12.01.17.01.05 0 .09.01.14.01.05 0 .12-.01.17-.01.04 0 .08-.02.12-.03.05-.01.12-.01.17-.02.06-.01.13-.03.18-.04.08-.02.16-.04.23-.07.06-.02.12-.06.19-.07 0-.01.01-.02.03-.02 0-.02.05-.04.07-.05.16-.09.31-.11.49-.1.42 0 .91.11 1.3-.11.12-.07.22-.14.36-.18.18-.05.38-.05.57-.07.36-.02.72-.06 1.08-.1.36-.04.71-.13 1.09-.11.48.01.92.26 1.4.28.17.01.33-.03.5-.05.23-.03.46.01.7.07.48.13.92.29 1.32.55.15.09.3.17.47.22.19.05.39.04.58.04.61.06 1.26.29 1.81.64.47.31.87.61 1.25 1.01.37.37.81.52 1.21.85.4.3.63.7.97 1.05.29.3.71.34.98.67.33.41.59.84.91 1.26.24.29.6.49.7.88.1.45.15.8.54 1.09.17.14.34.23.5.42.2.25.3.59.34.9.03.39.07.83.1 1.2.03.4.02.8.11 1.2.12.47.16.97.12 1.45-.03.47-.37.86-.38 1.33-.01.41.21.74.1 1.14-.11.38-.4.59-.37 1.01.03.36.12.58-.09.93-.07.11-.15.19-.2.32-.06.15-.07.31-.13.47-.14.46-.48.82-.74 1.2-.21.34-.45.66-.67.99-.13.2-.26.39-.38.59-.15.18-.3.35-.46.53-.46.55-.72 1.06-1.05 1.68-.44.65-1.02 1.22-1.8 1.38-.17.04-.35.06-.51.16-.16.11-.29.26-.42.38-.31.29-.63.61-1.04.82-.39.18-.81.31-1.2.46-.37.11-.72.21-1.09.32-.36.12-.71.17-1.04.06-.31-.1-.56-.14-.93-.09-.4.02-.85 0-1.24.09-.32.09-.52.31-.85.34-.16.01-.31-.03-.46-.03-.05 0-.1.01-.15.01-.08 0-.16 0-.24-.01-.36-.03-.77-.07-1.16-.06-.22 0-.44.02-.66.05-.44.06-.9.15-1.28.3-.08.03-.15.07-.21.11a.72.72 0 0 0-.22.28c-.08.16-.16.33-.21.5-.05.18-.01.37.02.55.02 0 .07.08.08.1.03.05.02.1.07.14.05.05.12.09.18.14.08.02.07.09.11.13.02.02.04.03.07.05.02.01.05.02.07.04.06 0 .13.05.18.07.07.02.14.06.22.06h.08c.04 0 .08.02.12.02.33.07.7.11 1.06.13.08 0 .17.01.25.03.05.01.09.03.14.04.03.01.07.01.11.02.04 0 .09.02.13.02.05 0 .09-.01.14-.02.1-.02.2-.02.29.01l.18.07c.09.03.21.03.31.01.17-.03.31-.1.44-.16.12-.06.27-.16.44-.16.18-.01.29.09.41.15.32.16.48-.12.79-.19.14-.03.27-.03.4-.08.15-.07.26-.16.4-.23.38-.18.66-.08 1.04-.09.46-.02.8-.19 1.19-.36.37-.18.74-.26 1.14-.38.14-.05.28-.1.42-.16.27-.12.55-.21.82-.3.4-.13.8-.3 1.19-.46.17-.06.34-.09.5-.19.15-.09.34-.16.46-.27.22-.21.44-.34.71-.49.3-.17.56-.35.79-.6.19-.2.35-.33.58-.48.41-.25.76-.6 1.04-1 .3-.39.58-.77.83-1.17.65-.94 1.1-1.61 1.79-2.61.21-.31.45-.57.67-.87.18-.27.31-.58.48-.86.15-.27.37-.51.44-.84.08-.33.07-.65.15-.97.09-.31.22-.6.25-.92.04-.28.02-.58.1-.85.09-.25.17-.44.17-.73-.03-.4-.1-.7-.1-1.03z" fill="#36A635"></path><path d="M79.37 90.26c-.03-.22-.02-.45-.02-.68 0-.46.02-.98-.05-1.42-.03-.21-.12-.28-.17-.47-.07-.24-.05-.55-.05-.82 0-.33.03-.73-.01-1.05-.04-.31-.04-.63-.07-.94-.02-.17-.05-.37-.07-.56.08-.13.12-.3.14-.57.01-.1-.01-.19.02-.27-.02-.06 0-.15.01-.2.01-.06.01-.11.02-.17.01-.1.04-.19.05-.29v-.18c.01-.12.02-.26.02-.38 0-.06-.01-.16 0-.21.01-.05.03-.13.04-.19.01-.04.02-.16.05-.18-.01-.11.02-.14.03-.23.01-.12-.01-.23.01-.35.01-.14.04-.24.03-.38-.01-.27-.09-.49-.15-.7-.06-.17-.15-.39-.14-.62 0-.25.1-.39.16-.56.16-.42-.08-.68-.1-1.12-.01-.2.01-.38-.03-.57-.04-.22-.12-.4-.18-.61-.14-.57.04-.93.11-1.46.09-.63-.01-1.14-.07-1.75-.06-.57-.02-1.1 0-1.68.01-.21-.01-.42-.01-.63 0-.41.03-.82.05-1.22.04-.59.04-1.19.1-1.77.03-.25.08-.47.07-.73-.01-.24.02-.52-.01-.74-.06-.41-.04-.77-.01-1.19.03-.48.01-.9-.03-1.37-.04-.37-.03-.67 0-1.04.11-1.32-.14-2.69-.23-3.97-.1-1.42-1.01-1.62-.9-3.05.04-.51.54-2.36.59-2.86.04-.48.08-.85.12-1.33.05-.42.14-.82.12-1.27-.02-.45-.11-.86-.12-1.32-.01-.44.06-.86.05-1.29-.01-.39-.08-.78-.04-1.16.04-.36.11-.62.1-1.01-.02-.45-.45-.86-.47-1.31-.01-.14.02-.33.05-.54a.484.484 0 0 0-.4-.55l-.18-.03c-.43-.07-.93-.18-1.23-.18-.36 0-.71.03-1.07.01-.78-.03-1.78-.11-2.57-.12-.95-.02-1.19-.38-2.1-.28-.99.11-1.88.24-2.89.14-.38-.04-.76-.09-1.16-.09-.37.01-.77.03-1.15.05-.67.02-1.34.04-1.99.11-.57.07-1.09.19-1.66.27-.49.06-.88-.01-1.32-.1-.76-.16-1.54-.28-2.39-.34-1.84-.12-3.65.03-5.49.06-.95.01-1.95-.01-2.85-.14-.48-.07-.98-.16-1.5-.12-.47.04-.76.19-1.18.27-.71.13-1.39-.13-2.08-.18-.75-.05-1.45.05-2.17-.1-.25.22-.99.04-1.38-.01-.33-.04-.49-.01-.8.03-.09.01-.18.02-.28.02h-.03c-.76.02-1.36.64-1.36 1.4v.4c0 .46-.02.98.05 1.42.03.21.12.28.17.47.07.24.05.55.05.82v1c-.11.02-.22.03-.32.05l-1.27.21c-.22.04-.42.11-.64.15-.26.04.38.19.13.26-.43.11-1.6.66-2.01.65-.25-.01-.51.01-.77.02-.23.01-.48.13-.71.16l-.83-.01-.6.84V50.47c0 .04 0 .1-.01.16 0 .14-.01.33-.02.52-.01.4-.01.84.01 1.03.06.44.2 1.39.26 1.85.07.65-.25.31-.11.94.07.3-.02.33-.03.6-.01.42.13.7.29 1 .08.16.2.35.24.57.04.24-.04.39-.08.56-.09.43.19.63.28 1.05.04.19.05.36.12.54.08.2.18.36.27.55.23.52.11.9.12 1.41.01.61.19 1.09.34 1.65.15.54.19 1.05.27 1.6.03.2.07.4.11.6.07.39.1.79.14 1.18.05.57.15 1.14.17 1.7.01.25 0 .46.04.71.04.23.06.5.13.71.13.38.16.73.2 1.14.04.46.13.86.25 1.3.1.35.13.63.16.99.09 1.27.56 2.54.85 3.75.32 1.34.07 2.92.18 4.29.04.5.28.93.3 1.41.03.46.06.82.09 1.29.02.41-.01.8.08 1.23.09.43.25.8.32 1.24.07.41.08.83.16 1.24.07.37.2.73.22 1.1.02.35-.02.61.06.98.09.42.25.8.33 1.23.08.42.12.84.19 1.26.06.34.1.68.14 1.02.09.75.49 1.46.6 2.21.13.91.81 1.69 1.05 2.53.12.42.28.82.43 1.22l.08.21c.09.24.35.36.59.27.48-.18.96-.33 1.5-.36.37-.02.75-.03 1.14-.1.36-.07.74-.15 1.1-.23.64-.12 1.28-.25 1.89-.42.54-.15 1-.36 1.52-.52.45-.14.84-.12 1.29-.11.78.03 1.58.02 2.42-.06 1.82-.18 3.64-.37 5.42-.69.92-.17 2.05-.06 3-.1.5-.02 1.05-.03 1.53-.16.44-.11.64-.29 1-.42.61-.23 1.44-.13 2.14-.21.77-.09 1.39-.29 2.18-.3.1-.21.93-.2 1.35-.23.35-.02.49-.08.76-.16.19-.06.43-.09.65-.14.45-.08.97-.16 1.35-.28.18-.06.19-.13.33-.2.19-.09.5-.13.77-.17.13-.02.27-.04.42-.07h.07c.47-.04.76-.19 1.18-.27.71-.13 1.39.13 2.08.18.56.04 1.1-.01 1.64.03.7.05 1.3-.48 1.34-1.18l.01-.19c.01-.18.03-.35.07-.53-.22-.25-.04-.99.01-1.38.07-.31.04-.48-.01-.78zm-2.48-28.54c.21 1.21.25 2.43-.02 3.59-.06.25-.15.52-.15.82-.01.31.06.61.11.89.12.66.22 1.34.23 2.06.01.68-.04 1.35-.06 2.02-.01.6-.03 1.18-.04 1.77-.02.59-.04 1.15-.21 1.61-.17.44-.26.82-.3 1.42-.04.64-.12 1.37-.08 2.01.04.53.27.88.27 1.41.01.52-.15.97-.05 1.49.08.44.17.84.08 1.31-.07.36-.12.75-.11 1.15 0 .33.07.55.14.81.01.05.03.1.05.15-.01.04-.01.09-.01.12v.08c0 .04.01.11.01.15 0 .09-.04.14-.03.23-.02.03-.02.09-.03.14-.09.66-.27 1.43-.09 2.1.05.2.12.37.14.61.03.29.02.61.02.91 0 .58.03 1.16.07 1.72.04.52.13 1.02.15 1.55-.1 0-.19-.01-.29 0-.27.02-.52.08-.77.12-.35.06-.72.08-1.1.08-.78 0-1.51-.1-2.24-.19-.27-.03-.54-.07-.83-.06-.32.01-.6.09-.89.15-.95.19-2-.09-3.02-.12-.88-.03-1.67-.41-2.52-.49-.83-.09-1.54.01-2.37.04-.79.03-1.5-.15-2.28-.13-.68.02-1.19.24-1.86.26-.84.02-1.63-.11-2.48-.04-.6.05-1.17.22-1.78.11-.69-.12-1.25-.24-1.93-.02-.31.1-.56.44-.91.52-.48.1-1.02.05-1.51 0-1.26-.14-2.45.32-3.79.35-.78.01-1.56.06-2.34-.02-.74-.08-1.4-.33-2.19-.34-.11 0-.21.02-.32.04.09-.46.23-.85.1-1.39-.13-.55-.28-.84-.17-1.5.03-.2.07-.38.07-.6-.01-.26-.05-.52-.06-.78-.02-.77-.15-1.52-.1-2.27.04-.64.34-1.3.33-1.95-.01-.77.23-1.51.26-2.29.04-1.17-.2-2.07-.38-3.12-.21-1.21-.25-2.43.02-3.59.06-.25.15-.52.15-.82.01-.31-.06-.61-.11-.89-.12-.66-.22-1.34-.23-2.06-.01-.68.03-1.35.06-2.02.01-.6.03-1.18.04-1.77.02-.59.03-1.15.21-1.61.15-.46.25-.83.28-1.44.04-.64.12-1.37.07-2.01-.04-.53-.27-.88-.27-1.41-.01-.52.15-.97.05-1.49-.09-.44-.17-.84-.08-1.31.07-.41.11-.71.11-1.17l-.01-2.65v-.41s.03-1.09.03-1.19c.04-.61.05-1.24.02-1.86-.01-.27-.07-.46-.11-.69-.05-.28-.04-.53 0-.81.09-.66.11-1.43-.07-2.1-.05-.2-.12-.37-.14-.61-.03-.29-.31-.61-.31-.91 0-.26-.02-.52-.03-.79.42-.05.84-.11 1.29-.11.75 0 1.49.19 2.25.14.27-.02.52-.08.77-.12.35-.06.72-.08 1.1-.08.78 0 1.51.1 2.24.19.27.03.54.07.83.06.32-.01.6-.09.89-.15.95-.19 2 .24 3.03.27.88.03 1.67.13 2.52.22.83.09 1.54-.01 2.37-.04.79-.03 1.5.15 2.28.13.68-.02 1.19-.24 1.86-.26.84-.02 1.63.11 2.48.04.6-.05 1.17-.22 1.78-.11.69.12 1.25.24 1.93.02.31-.1.56-.23.91-.31.48-.1 1.02-.05 1.51 0 1.26.14 2.35.7 3.69.68.34-.01.71-.03 1.07-.04-.03.17-.05.34-.06.51 0 .67.3 1.16.25 1.83-.05.63-.31 1.07-.15 1.74.13.55.28.84.16 1.5-.03.2-.07.38-.07.6.01.26.05.52.06.78.02.77.36 1.52.31 2.27-.04.64-.06 1.3-.06 1.95.01.77.64 2.08.61 2.85-.05 1.18-.44 1.52-.25 2.57z" fill="#085440"></path></g></svg>