<svg width="24" height="29" viewBox="0 0 24 29" fill="none" xmlns="http://www.w3.org/2000/svg">
<path d="M12 0.831116C8.02997 0.831116 4.80005 4.06104 4.80005 8.03112C4.80005 12.0012 8.02997 15.2311 12 15.2311C15.9701 15.2311 19.2 12.0012 19.2 8.03112C19.2 4.06104 15.9701 0.831116 12 0.831116ZM12 13.6311C8.91221 13.6311 6.40005 11.119 6.40005 8.03112C6.40005 4.94328 8.91221 2.43112 12 2.43112C15.0879 2.43112 17.6 4.94328 17.6 8.03112C17.6 11.119 15.0879 13.6311 12 13.6311Z" fill="#2A2A2A"/>
<path d="M20.9582 19.9348C18.987 17.9334 16.3738 16.8311 13.6 16.8311H10.4C7.62624 16.8311 5.01301 17.9334 3.04181 19.9348C1.08027 21.9265 0 24.5555 0 27.3378C0 27.7796 0.358187 28.1378 0.8 28.1378H23.2C23.6418 28.1378 24 27.7796 24 27.3378C24 24.5555 22.9197 21.9265 20.9582 19.9348ZM1.6352 26.5378C2.036 21.9999 5.81392 18.4311 10.4 18.4311H13.6C18.1861 18.4311 21.964 21.9999 22.3648 26.5378H1.6352Z" fill="#2A2A2A"/>
</svg>
