<svg width="20" height="22" viewBox="0 0 20 22" fill="none" xmlns="http://www.w3.org/2000/svg">
<path d="M6.52912 2.46484L7.24268 3.16543V3.16543L6.52912 2.46484ZM6.52912 9.53516L7.24268 8.83457L6.52912 9.53516ZM17.0952 11.1237L16.3971 11.8397L16.3971 11.8397L17.0952 11.1237ZM16.0021 10.4271L15.628 11.3545H15.628L16.0021 10.4271ZM14.0398 10.4466L14.5927 11.2799L14.5927 11.2799L14.0398 10.4466ZM11.7067 11.6966L12.0194 12.6464L12.0195 12.6464L11.7067 11.6966ZM8.29332 11.6966L7.98055 12.6464L7.98055 12.6464L8.29332 11.6966ZM5.96023 10.4466L5.40731 11.2799L5.40731 11.2799L5.96023 10.4466ZM3.99787 10.4271L4.37195 11.3545H4.37196L3.99787 10.4271ZM1.04474 16.2799L2.04244 16.3478L1.04474 16.2799ZM1.93324 20.0951L1.2371 20.813H1.2371L1.93324 20.0951ZM13.9091 6C13.9091 7.12067 13.5308 8.04676 12.7573 8.83457L14.1844 10.2357C15.3286 9.07043 15.9091 7.63975 15.9091 6H13.9091ZM12.7573 3.16543C13.5308 3.95324 13.9091 4.87933 13.9091 6H15.9091C15.9091 4.36025 15.3286 2.92957 14.1844 1.76425L12.7573 3.16543ZM10 2C11.0837 2 11.9844 2.37825 12.7573 3.16543L14.1844 1.76425C13.0397 0.598317 11.6265 0 10 0V2ZM7.24268 3.16543C8.01556 2.37825 8.91627 2 10 2V0C8.3735 0 6.96029 0.598317 5.81556 1.76425L7.24268 3.16543ZM6.09091 6C6.09091 4.87933 6.4692 3.95324 7.24268 3.16543L5.81556 1.76425C4.67142 2.92957 4.09091 4.36025 4.09091 6H6.09091ZM7.24268 8.83457C6.4692 8.04676 6.09091 7.12067 6.09091 6H4.09091C4.09091 7.63975 4.67142 9.07043 5.81556 10.2357L7.24268 8.83457ZM10 10C8.91627 10 8.01556 9.62175 7.24268 8.83457L5.81556 10.2357C6.96029 11.4017 8.3735 12 10 12V10ZM12.7573 8.83457C11.9844 9.62175 11.0837 10 10 10V12C11.6265 12 13.0397 11.4017 14.1844 10.2357L12.7573 8.83457ZM18 17.6276C18 18.4575 17.7601 18.9995 17.3706 19.3771L18.7629 20.813C19.6178 19.984 20 18.8811 20 17.6276H18ZM17.9576 16.3478C17.9858 16.7626 18 17.1891 18 17.6276H20C20 17.1459 19.9844 16.6741 19.9529 16.2121L17.9576 16.3478ZM17.7915 15.0342C17.8758 15.5129 17.9305 15.9503 17.9576 16.3478L19.9529 16.2121C19.9203 15.7328 19.8557 15.2241 19.7611 14.6871L17.7915 15.0342ZM17.4835 13.7477C17.6053 14.1353 17.7085 14.5636 17.7915 15.0342L19.7611 14.6871C19.6651 14.1422 19.5425 13.6286 19.3915 13.1482L17.4835 13.7477ZM17.0146 12.6657C17.2127 13.0207 17.3683 13.3812 17.4835 13.7477L19.3915 13.1482C19.2339 12.6466 19.0231 12.1607 18.761 11.6911L17.0146 12.6657ZM16.3971 11.8397C16.6178 12.0549 16.8253 12.3266 17.0146 12.6657L18.761 11.6911C18.49 11.2055 18.1692 10.7741 17.7932 10.4076L16.3971 11.8397ZM15.628 11.3545C15.9515 11.4849 16.2021 11.6496 16.3971 11.8397L17.7932 10.4077C17.3917 10.0162 16.9136 9.71644 16.3762 9.49969L15.628 11.3545ZM14.5767 11.1667C14.9838 11.1667 15.33 11.2343 15.628 11.3545L16.3762 9.49969C15.8135 9.27269 15.2094 9.16667 14.5767 9.16667V11.1667ZM14.5927 11.2799C14.6547 11.2387 14.7073 11.2052 14.7512 11.1785C14.7958 11.1514 14.8272 11.1338 14.8473 11.1234C14.857 11.1183 14.8618 11.1161 14.8623 11.1158C14.8632 11.1154 14.8563 11.1187 14.8428 11.1236C14.8303 11.1281 14.8035 11.1373 14.7655 11.146C14.746 11.1505 14.7206 11.1554 14.6904 11.1594C14.6604 11.1633 14.6219 11.1667 14.5767 11.1667V9.16667C14.3832 9.16667 14.2276 9.21908 14.1572 9.24477C14.0698 9.27664 13.9895 9.3151 13.9226 9.34994C13.7883 9.41997 13.6401 9.51167 13.4869 9.61338L14.5927 11.2799ZM13.6326 11.9099C13.9882 11.6786 14.3083 11.4685 14.5927 11.2799L13.4869 9.61338C13.2087 9.79795 12.8939 10.0046 12.5421 10.2333L13.6326 11.9099ZM12.0195 12.6464C12.6373 12.443 13.1836 12.2019 13.6326 11.9099L12.5421 10.2333C12.2838 10.4014 11.9096 10.577 11.3939 10.7468L12.0195 12.6464ZM10 12.9766C10.682 12.9766 11.3563 12.8648 12.0194 12.6464L11.3939 10.7468C10.9235 10.9017 10.4601 10.9766 10 10.9766V12.9766ZM7.98055 12.6464C8.64367 12.8648 9.318 12.9766 10 12.9766V10.9766C9.53995 10.9766 9.0765 10.9017 8.6061 10.7468L7.98055 12.6464ZM6.36743 11.9099C6.81644 12.2019 7.36274 12.443 7.98055 12.6464L8.6061 10.7468C8.09038 10.577 7.71623 10.4014 7.45785 10.2333L6.36743 11.9099ZM5.40731 11.2799C5.69166 11.4685 6.01176 11.6786 6.36743 11.9099L7.45785 10.2333C7.10613 10.0046 6.7913 9.79796 6.51314 9.61338L5.40731 11.2799ZM5.4233 11.1667C5.37812 11.1667 5.33963 11.1633 5.30962 11.1594C5.27939 11.1554 5.25403 11.1505 5.23446 11.146C5.19647 11.1373 5.16966 11.1281 5.15715 11.1236C5.14374 11.1187 5.13684 11.1154 5.13768 11.1158C5.13816 11.1161 5.143 11.1183 5.15274 11.1234C5.17282 11.1338 5.20425 11.1514 5.24878 11.1785C5.29271 11.2052 5.34534 11.2387 5.40731 11.2799L6.51315 9.61338C6.35988 9.51167 6.2117 9.41997 6.07738 9.34994C6.01055 9.3151 5.93016 9.27664 5.84285 9.24477C5.77244 9.21908 5.61683 9.16667 5.4233 9.16667V11.1667ZM4.37196 11.3545C4.67 11.2343 5.01624 11.1667 5.4233 11.1667V9.16667C4.79058 9.16667 4.18654 9.27269 3.62378 9.49969L4.37196 11.3545ZM3.60288 11.8397C3.7979 11.6496 4.04851 11.4849 4.37195 11.3545L3.62378 9.49969C3.08643 9.71644 2.60835 10.0162 2.20678 10.4076L3.60288 11.8397ZM2.98543 12.6657C3.17467 12.3266 3.38222 12.0549 3.60288 11.8397L2.20678 10.4076C1.83085 10.7741 1.50999 11.2055 1.239 11.6911L2.98543 12.6657ZM2.51652 13.7477C2.63166 13.3812 2.78733 13.0207 2.98543 12.6657L1.239 11.6911C0.976877 12.1607 0.766063 12.6466 0.608478 13.1482L2.51652 13.7477ZM2.20855 15.0342C2.29149 14.5636 2.39473 14.1353 2.51652 13.7477L0.608478 13.1482C0.457544 13.6286 0.334934 14.1422 0.238896 14.6871L2.20855 15.0342ZM2.04244 16.3478C2.06949 15.9503 2.12419 15.5129 2.20855 15.0342L0.238896 14.6871C0.144271 15.2241 0.0796618 15.7328 0.0470515 16.2121L2.04244 16.3478ZM2 17.6276C2 17.1891 2.01422 16.7626 2.04244 16.3478L0.0470515 16.2121C0.0156143 16.6741 0 17.1459 0 17.6276H2ZM2.62938 19.3771C2.23993 18.9995 2 18.4575 2 17.6276H0C0 18.8811 0.382233 19.984 1.2371 20.813L2.62938 19.3771ZM4.41335 20C3.58926 20 3.03026 19.7659 2.62938 19.3771L1.2371 20.813C2.08054 21.6308 3.17494 22 4.41335 22V20ZM15.5866 20H4.41335V22H15.5866V20ZM17.3706 19.3771C16.9697 19.7659 16.4107 20 15.5866 20V22C16.8251 22 17.9195 21.6308 18.7629 20.813L17.3706 19.3771Z" fill="#4A4A4A"/>
</svg>
