<svg width="29" height="29" viewBox="0 0 29 29" fill="none" xmlns="http://www.w3.org/2000/svg">
<path d="M2.59398 14.3678C2.56612 17.3343 5.18516 19.7738 8.43347 19.8043L11.9557 19.8374L11.9661 18.7298L8.44387 18.6968C5.80608 18.672 3.67941 16.7342 3.70154 14.3782C3.72366 12.0222 5.88246 10.1207 8.52606 10.1514L12.0483 10.1844L12.0743 9.08485L8.55204 9.05178C5.28814 9.01331 2.62183 11.4012 2.59398 14.3678Z" fill="#2A2A2A"/>
<path d="M24.6503 10.7566C23.5214 9.72938 22.0507 9.1589 20.5244 9.15622L17.0021 9.12315L16.9917 10.2307L20.514 10.2638C21.7655 10.2645 22.9721 10.7306 23.899 11.5715C24.3294 11.9451 24.6735 12.4077 24.9076 12.9273C25.1418 13.4469 25.2603 14.0111 25.2552 14.5809C25.25 15.1508 25.1212 15.7128 24.8777 16.228C24.6342 16.7432 24.2818 17.1995 23.8447 17.5653C22.9014 18.3884 21.6855 18.8311 20.4338 18.8072L16.9115 18.7742L16.8855 19.8738L20.4078 19.9068C21.9339 19.9328 23.4151 19.39 24.5631 18.3842L24.7705 18.1806C25.2778 17.7007 25.6797 17.1205 25.9506 16.4769C26.2216 15.8333 26.3557 15.1404 26.3444 14.4422C26.3331 13.744 26.1766 13.0557 25.885 12.4212C25.5934 11.7867 25.1729 11.2199 24.6503 10.7566Z" fill="#2A2A2A"/>
<path d="M8.60707 13.8706L8.59668 14.9775L20.3524 15.0879L20.3628 13.981L8.60707 13.8706Z" fill="#2A2A2A"/>
</svg>
