<?xml version="1.0" encoding="utf-8"?>
<!-- Generator: Adobe Illustrator 24.3.0, SVG Export Plug-In . SVG Version: 6.00 Build 0)  -->
<svg version="1.1" id="Layer_1" xmlns="http://www.w3.org/2000/svg" xmlns:xlink="http://www.w3.org/1999/xlink" x="0px" y="0px"
	 viewBox="0 0 512 512" style="enable-background:new 0 0 512 512;" xml:space="preserve">
<style type="text/css">
	.st0{display:none;}
	.st1{stroke:#000000;stroke-width:4;stroke-miterlimit:10;}
	.st2{stroke:#000000;stroke-miterlimit:10;}
</style>
<g id="Layer_2_1_" class="st0">
	
		<image style="display:inline;overflow:visible;enable-background:new    ;" width="134" height="157" xlink:href="5A1849DE.png"  transform="matrix(2.1277 0 0 2.1277 114.051 120)">
	</image>
	
		<image style="display:inline;overflow:visible;enable-background:new    ;" width="640" height="640" xlink:href="5A1849E2.jpeg"  transform="matrix(0.6634 0 0 0.6634 40.4366 47.5352)">
	</image>
</g>
<g>
	<path class="st1" d="M134.6,134.3c-29.6,0-53.6-24.1-53.6-53.6S105.1,27,134.6,27s53.6,24.1,53.6,53.6S164.2,134.3,134.6,134.3z
		 M134.6,43.9c-20.2,0-36.7,16.5-36.7,36.7s16.5,36.7,36.7,36.7s36.7-16.5,36.7-36.7S154.9,43.9,134.6,43.9z"/>
</g>
<g>
	<path class="st1" d="M398.6,234.2h-96c-4.7,0-8.5-3.8-8.5-8.5c0-4.7,3.8-8.5,8.5-8.5h89.6l25-87c1.3-4.5,6-7.1,10.5-5.8
		c4.5,1.3,7.1,6,5.8,10.5l-26.8,93.2C405.7,231.7,402.4,234.2,398.6,234.2z"/>
</g>
<g>
	<g>
		<path class="st2" d="M358.4,303.5c-4.6,0-8.3-3.6-8.5-8.3c-0.1-4.7,3.6-8.6,8.3-8.7l48-1.3c4.7-0.1,8.6,3.6,8.7,8.3
			s-3.6,8.6-8.3,8.7l-48,1.3C358.5,303.5,358.4,303.5,358.4,303.5z"/>
	</g>
	<g>
		<path class="st2" d="M358.4,347.3c-4.6,0-8.3-3.6-8.5-8.3c-0.1-4.7,3.6-8.6,8.3-8.7l48-1.3c4.7,0,8.6,3.6,8.7,8.3
			s-3.6,8.6-8.3,8.7l-48,1.3C358.5,347.3,358.4,347.3,358.4,347.3z"/>
	</g>
	<g>
		<path class="st2" d="M358.4,392.4c-4.6,0-8.3-3.6-8.5-8.3c-0.1-4.7,3.6-8.6,8.3-8.7l48-1.3c4.7-0.1,8.6,3.6,8.7,8.3
			s-3.6,8.6-8.3,8.7l-48,1.3C358.5,392.4,358.4,392.4,358.4,392.4z"/>
	</g>
	<g>
		<path class="st2" d="M358.4,439c-4.6,0-8.3-3.6-8.5-8.3c-0.1-4.7,3.6-8.6,8.3-8.7l48-1.3c4.7-0.1,8.6,3.6,8.7,8.3
			s-3.6,8.6-8.3,8.7l-48,1.3C358.5,439,358.4,439,358.4,439z"/>
	</g>
	<g>
		<path class="st2" d="M436,480H330.1c-4.7,0-8.5-3.8-8.5-8.5V285.1l-87.6-1.3c-4.6-0.1-8.3-3.8-8.3-8.5v-25.4
			c0-4.7,3.8-8.5,8.5-8.5H436c4.7,0,8.5,3.8,8.5,8.5v221.6C444.5,476.2,440.6,480,436,480z M338.6,463.1h88.9V258.4H242.6v8.6
			l87.6,1.3c4.6,0.1,8.3,3.8,8.3,8.5V463.1z"/>
	</g>
</g>
<g>
	<path class="st1" d="M188.3,373.3c4.7,0,8.5-3.8,8.5-8.5s-3.8-8.5-8.5-8.5H65.5V165.7c0-4.7-3.8-8.5-8.5-8.5s-8.5,3.8-8.5,8.5
		v199.1c0,4.7,3.8,8.5,8.5,8.5H98v44.9c-21.3,4.6-38.4,15.5-39.5,33.6c-1.8,2-2.9,4.6-2.9,7.5c0,6.2,5,11.3,11.3,11.3
		c6.2,0,11.3-5.1,11.3-11.3c0-2.8-1-5.3-2.7-7.3c1.7-10.6,19.5-17.5,38.9-19.1l0.3,13.5c-1.7,2-2.6,4.5-2.6,7.3
		c0,6.2,5,11.3,11.3,11.3s11.3-5,11.3-11.3c0-3-1.1-5.7-3-7.7l-0.3-13.2c10.4,0.8,20.1,3,27.3,6.3c7,3.3,11.2,7.2,12.4,11.7v0
		c-2.4,2.1-3.9,5.1-3.9,8.5c0,6.2,5,11.3,11.3,11.3c6.2,0,11.3-5.1,11.3-11.3c0-2-0.5-3.9-1.4-5.5c0,0,0,0,0,0v-0.2
		c0-20.9-20.5-32.6-45.2-36.6v-43.9H188.3z M114.9,373.3h11.3v42.4c-0.9,0-1.9,0-2.8,0c-2.8,0-5.6,0.1-8.5,0.3V373.3z"/>
</g>
<g>
	<path class="st1" d="M279.2,472.2c-1.1,0.5-2.2,0.7-3.4,0.7h-29.6c-12.7,0-22.1-3.6-28.1-10.8c-6.8-8.1-6.2-17.8-5.8-20.9v-91.1
		h-77.6c-19.5,0-34.1-5.2-43.5-15.3c-10.4-11.3-10.3-24.4-10.1-27.3v-125l0.2-1c4.6-18.7,13.3-30.7,26-35.7c20-7.8,41.1,6.1,42,6.6
		l0.6,0.4l41.8,39.1h61.6c17.2,0,26.2,11.4,26.2,22.6s-9,22.6-26.2,22.6h-77.4l-5.9-3.9v55.5h64.2c10.7,0,19,3.3,24.7,9.7
		c7.6,8.6,7.3,19.6,7.1,22.5v98.4h9.9c1.4,0,2.8,0.3,4,1l0,0c10.3,5.5,24,14.4,23.5,27.5C302.7,462,285,469.7,279.2,472.2
		L279.2,472.2z M229.1,443.5c0,0-0.7,4.7,2.1,8c3.2,3.8,9.9,4.5,14.9,4.5h21.4c5.5,0,10.8-1.7,15.2-4.9c3.3-2.5,3.6-4,3.6-4
		c0,0-0.2-1.5-3-4.1c-4.7-4.4-10.9-6.7-17.3-6.7h-17l0.1-116.8l0,0c0,0,0.6-6.1-2.9-9.9c-2.3-2.6-6.4-3.9-12-3.9H153v-104l28,18.6
		h72.2c6.4,0,9.3-2.8,9.3-5.6s-2.9-5.6-9.3-5.6h-68.3l-45.6-42.7c-2.6-1.6-15.5-8.8-26-4.6c-7,2.8-12.2,10.5-15.4,22.9v123.5l0,0.4
		c0,0.3-0.4,8.4,5.9,15c6.1,6.4,16.4,9.7,30.9,9.7h94.6v109.5L229.1,443.5L229.1,443.5z"/>
</g>
</svg>
