<svg xmlns="http://www.w3.org/2000/svg" viewBox="0 0 24 24" id="settings"><path d="M13 1a2 2 0 0 1 2 2v.512c.301.107.595.229.88.365l.363-.362a2 2 0 0 1 2.828 0l1.414 1.414a2 2 0 0 1 0 2.828l-.362.363c.136.285.258.579.365.88H21a2 2 0 0 1 2 2v2a2 2 0 0 1-2 2h-.512a8.943 8.943 0 0 1-.365.88l.362.363a2 2 0 0 1 0 2.828l-1.414 1.414a2 2 0 0 1-2.828 0l-.363-.362a8.943 8.943 0 0 1-.88.365V21a2 2 0 0 1-2 2h-2a2 2 0 0 1-2-2v-.512a8.948 8.948 0 0 1-.88-.365l-.363.362a2 2 0 0 1-2.828 0l-1.414-1.414a2 2 0 0 1 0-2.828l.362-.363a8.943 8.943 0 0 1-.365-.88H3a2 2 0 0 1-2-2v-2a2 2 0 0 1 2-2h.512c.107-.301.229-.595.365-.88l-.362-.363a2 2 0 0 1 0-2.828l1.414-1.414a2 2 0 0 1 2.828 0l.363.362c.285-.136.579-.258.88-.365V3a2 2 0 0 1 2-2zm0 2h-2v1.252a1 1 0 0 1-.75.968 6.952 6.952 0 0 0-1.805.749 1 1 0 0 1-1.216-.154l-.886-.886L4.93 6.343l.886.886a1 1 0 0 1 .154 1.216 6.952 6.952 0 0 0-.749 1.804 1 1 0 0 1-.968.751H3v2h1.252a1 1 0 0 1 .968.75c.166.642.42 1.248.749 1.805a1 1 0 0 1-.154 1.216l-.886.886 1.414 1.414.886-.886a1 1 0 0 1 1.216-.154c.557.33 1.163.583 1.804.749a1 1 0 0 1 .751.968V21h2v-1.252a1 1 0 0 1 .75-.969 6.951 6.951 0 0 0 1.805-.748 1 1 0 0 1 1.216.154l.886.886 1.414-1.414-.886-.886a1 1 0 0 1-.154-1.216c.33-.557.583-1.163.749-1.804a1 1 0 0 1 .968-.751H21v-2h-1.252a1 1 0 0 1-.969-.75 6.952 6.952 0 0 0-.748-1.805 1 1 0 0 1 .154-1.216l.886-.886-1.414-1.414-.886.886a1 1 0 0 1-1.216.154 6.951 6.951 0 0 0-1.804-.749A1 1 0 0 1 13 4.252zm-1 6a3 3 0 1 1 0 6 3 3 0 0 1 0-6zm0 2a1 1 0 1 0 0 2 1 1 0 0 0 0-2z" fill-rule="evenodd"></path></svg>