<svg xmlns="http://www.w3.org/2000/svg" width="143.118" height="113.418" viewBox="0 0 143.118 113.418"><defs><style>.a{fill:#7498ee;}.b{fill:#3f3d56;}.c{fill:#e6e6e6;}.d{fill:#a0616a;}.e{fill:#2f2e41;}.f{fill:#6c63ff;}</style></defs><g transform="translate(0)"><path class="a" d="M208.927,237.975c0-14.582,11.821-49.184,26.4-49.184s26.4,34.6,26.4,49.184a26.4,26.4,0,1,1-52.805,0Z" transform="translate(-208.927 -188.791)"/><path class="b" d="M329.758,381.387a.217.217,0,0,1-.217-.217V290.142a.217.217,0,0,1,.434,0v91.027A.217.217,0,0,1,329.758,381.387Z" transform="translate(-303.356 -267.969)"/><path class="b" d="M292.074,332.621a.216.216,0,0,1-.154-.064l-10.45-10.45a.217.217,0,1,1,.307-.307l10.45,10.45a.217.217,0,0,1-.154.371Z" transform="translate(-265.671 -292.874)"/><path class="b" d="M329.758,390.526a.217.217,0,0,1-.154-.371l17.5-17.5a.217.217,0,0,1,.307.307l-17.5,17.5A.217.217,0,0,1,329.758,390.526Z" transform="translate(-303.356 -332.687)"/><path class="c" d="M440.656,369.633c0-10.478,8.5-35.342,18.985-35.342s18.985,24.864,18.985,35.342a18.985,18.985,0,1,1-37.97,0Z" transform="translate(-390.348 -302.703)"/><path class="b" d="M527.541,472.686a.156.156,0,0,1-.156-.156v-65.41a.156.156,0,1,1,.312,0v65.41a.156.156,0,0,1-.156.156Z" transform="translate(-458.247 -359.597)"/><path class="b" d="M500.444,437.644a.156.156,0,0,1-.11-.046l-7.514-7.509a.156.156,0,1,1,.221-.221l7.514,7.509a.156.156,0,0,1-.11.266Z" transform="translate(-431.15 -377.494)"/><path class="b" d="M527.541,479.252a.156.156,0,0,1-.11-.266l12.584-12.576a.156.156,0,1,1,.221.221l-12.584,12.576A.156.156,0,0,1,527.541,479.252Z" transform="translate(-458.248 -406.103)"/><circle class="d" cx="3.213" cy="3.213" r="3.213" transform="translate(128.018 63.802)"/><path class="d" d="M812.194,535.845a1.439,1.439,0,0,1,1.089-1.851,1.367,1.367,0,0,1,.191-.024l3.385-5.432-3.092-2.939a1.234,1.234,0,1,1,1.716-1.773l4.269,4.209.009.01a1.118,1.118,0,0,1-.078,1.332l-4.742,5.609a1.372,1.372,0,0,1,.035.137,1.439,1.439,0,0,1-1.292,1.716q-.061.005-.122.005a1.444,1.444,0,0,1-1.368-1Z" transform="translate(-681.17 -450.817)"/><path class="d" d="M571.561,492.348h-1.6l-.763-6.186h2.367Z" transform="translate(-445.621 -380.615)"/><path class="e" d="M772.088,702.944h-5.3v-.131a2.078,2.078,0,0,1,2.078-2.078h3.224Z" transform="translate(-645.674 -589.591)"/><path class="d" d="M634.776,485.275l-1.378.821-3.821-4.925,2.034-1.211Z" transform="translate(-492.895 -375.76)"/><path class="e" d="M845.863,694.4l-.067-.112a2.078,2.078,0,0,1,.722-2.849l2.77-1.649,1.13,1.9Z" transform="translate(-707.302 -581.018)"/><path class="e" d="M774.242,585.473c-1.074-12.651-1.714-24.4,2.214-29.2l.03-.037,6.61,2.644.011.024c.022.049,2.221,4.884,1.708,8.136l1.63,7.5,5.316,8.9a.589.589,0,0,1-.268.841l-2.31,1.016a.592.592,0,0,1-.739-.231l-5.783-9.43-3.266-7.233a.2.2,0,0,0-.374.06l-1.811,17.019a.588.588,0,0,1-.585.526h-1.8A.593.593,0,0,1,774.242,585.473Z" transform="translate(-650.872 -476.464)"/><path class="f" d="M787.052,525.872l-.031-.015,0-.035a11.163,11.163,0,0,1,.869-5.707,4.531,4.531,0,0,1,5.259-2.714h0a4.525,4.525,0,0,1,2.886,2.219,4.477,4.477,0,0,1,.31,3.588c-1.038,3.035-2.384,5.875-2.4,5.9l-.028.059Z" transform="translate(-661.446 -445.962)"/><path class="d" d="M765.538,539.284a1.469,1.469,0,0,1,1.054-1.6l6.181-11.866a1.184,1.184,0,0,1,2.015,1.244l-6.327,11.784a1.433,1.433,0,0,1,.023.217,1.479,1.479,0,0,1-1.5,1.519h0a1.48,1.48,0,0,1-1.135-.556,1.463,1.463,0,0,1-.312-.739Z" transform="translate(-644.688 -452.206)"/><path class="e" d="M795.454,479.34h5.1v-2.224c-1.12-.445-2.216-.823-2.878,0a2.224,2.224,0,0,0-2.224,2.224Z" transform="translate(-668.118 -414.14)"/><path class="e" d="M806.178,477.059c3.05,0,3.9,3.823,3.9,5.98,0,1.2-.544,1.633-1.4,1.779l-.3-1.61-.707,1.679c-.24,0-.492,0-.754-.008l-.24-.494-.535.485c-2.141,0-3.872.315-3.872-1.831S803.023,477.059,806.178,477.059Z" transform="translate(-673.458 -414.475)"/></g></svg>