<svg xmlns="http://www.w3.org/2000/svg" xmlns:xlink="http://www.w3.org/1999/xlink" width="898" height="114" viewBox="0 0 898 114"><defs><style>.a{fill:#e4ebfb;opacity:0.25;}.b{clip-path:url(#a);}.c{opacity:0.13;}.d{fill:#0040db;}.e{opacity:0.2;}.f{fill:#7498ee;}.g{opacity:0.41;}</style><clipPath id="a"><path class="a" d="M10,0H888a10,10,0,0,1,10,10V114a0,0,0,0,1,0,0H0a0,0,0,0,1,0,0V10A10,10,0,0,1,10,0Z" transform="translate(28 24)"/></clipPath></defs><g class="b" transform="translate(-28 -24)"><g class="c" transform="translate(903.436 28.021) rotate(21)"><path class="d" d="M22.333,44.915a.443.443,0,0,0,.443.443H46.424a.443.443,0,0,0,.443-.443V15.355a.446.446,0,0,0-.13-.313h0L40.826,9.13h0A.446.446,0,0,0,40.512,9H22.776a.443.443,0,0,0-.443.443Zm18.623-34.4,4.4,4.4h-4.4ZM23.22,9.887H40.069v5.469a.443.443,0,0,0,.443.443h5.469V44.472H23.22Z" transform="translate(0)"/><path class="d" d="M32.941,59.067a.443.443,0,0,0,.887,0,2.333,2.333,0,0,0-1.971-2.379V56.11a.443.443,0,0,0-.887,0v.585A2.267,2.267,0,0,0,29,59.066c0,1.161,1,1.752,1.971,2.244v3.174a1.5,1.5,0,0,1-1.084-1.479.443.443,0,0,0-.887,0,2.333,2.333,0,0,0,1.971,2.379v.577a.443.443,0,1,0,.887,0v-.585a2.267,2.267,0,0,0,1.971-2.371,1.829,1.829,0,0,0-.042-.386c0-.011,0-.024-.006-.035a1.7,1.7,0,0,0-.113-.323c-.007-.015-.013-.031-.021-.045a1.874,1.874,0,0,0-.171-.278l-.033-.044a2.365,2.365,0,0,0-.22-.245l-.041-.038a3.255,3.255,0,0,0-.263-.22l-.038-.027q-.146-.107-.3-.2l-.017-.01c-.107-.066-.217-.129-.328-.19l-.019-.011c-.113-.061-.227-.121-.342-.179l-.015-.008V57.589A1.5,1.5,0,0,1,32.941,59.067Zm-3.054,0A1.384,1.384,0,0,1,30.971,57.6v2.7C30.3,59.93,29.887,59.58,29.887,59.066Zm1.971,5.4v-2.7c.672.375,1.084.726,1.084,1.24A1.384,1.384,0,0,1,31.857,64.47Z" transform="translate(-3.711 -25.975)"/><path class="d" d="M29.443,18.775H41.267a.443.443,0,1,0,0-.887H29.443a.443.443,0,1,0,0,.887Z" transform="translate(-3.711 -4.947)"/><path class="d" d="M29.443,27.665H41.267a.443.443,0,1,0,0-.887H29.443a.443.443,0,1,0,0,.887Z" transform="translate(-3.711 -9.895)"/><path class="d" d="M47.179,35.667H29.443a.443.443,0,1,0,0,.887H47.179a.443.443,0,0,0,0-.887Z" transform="translate(-3.711 -14.843)"/><path class="d" d="M47.179,44.556H29.443a.443.443,0,1,0,0,.887H47.179a.443.443,0,0,0,0-.887Z" transform="translate(-3.711 -19.79)"/><path class="d" d="M55.838,53.444H45a.443.443,0,0,0,0,.887H55.838a.443.443,0,0,0,0-.887Z" transform="translate(-12.369 -24.738)"/><path class="d" d="M55.838,62.333H45a.443.443,0,0,0,0,.887H55.838a.443.443,0,1,0,0-.887Z" transform="translate(-12.369 -29.686)"/><path class="d" d="M55.838,71.222H45a.443.443,0,1,0,0,.887H55.838a.443.443,0,1,0,0-.887Z" transform="translate(-12.369 -34.633)"/><path class="d" d="M55.838,80.111H45A.443.443,0,1,0,45,81H55.838a.443.443,0,1,0,0-.887Z" transform="translate(-12.369 -39.581)"/></g><g class="c" transform="translate(280.436 56.021) rotate(21)"><path class="d" d="M22.333,44.915a.443.443,0,0,0,.443.443H46.424a.443.443,0,0,0,.443-.443V15.355a.446.446,0,0,0-.13-.313h0L40.826,9.13h0A.446.446,0,0,0,40.512,9H22.776a.443.443,0,0,0-.443.443Zm18.623-34.4,4.4,4.4h-4.4ZM23.22,9.887H40.069v5.469a.443.443,0,0,0,.443.443h5.469V44.472H23.22Z" transform="translate(0)"/><path class="d" d="M32.941,59.067a.443.443,0,0,0,.887,0,2.333,2.333,0,0,0-1.971-2.379V56.11a.443.443,0,0,0-.887,0v.585A2.267,2.267,0,0,0,29,59.066c0,1.161,1,1.752,1.971,2.244v3.174a1.5,1.5,0,0,1-1.084-1.479.443.443,0,0,0-.887,0,2.333,2.333,0,0,0,1.971,2.379v.577a.443.443,0,1,0,.887,0v-.585a2.267,2.267,0,0,0,1.971-2.371,1.829,1.829,0,0,0-.042-.386c0-.011,0-.024-.006-.035a1.7,1.7,0,0,0-.113-.323c-.007-.015-.013-.031-.021-.045a1.874,1.874,0,0,0-.171-.278l-.033-.044a2.365,2.365,0,0,0-.22-.245l-.041-.038a3.255,3.255,0,0,0-.263-.22l-.038-.027q-.146-.107-.3-.2l-.017-.01c-.107-.066-.217-.129-.328-.19l-.019-.011c-.113-.061-.227-.121-.342-.179l-.015-.008V57.589A1.5,1.5,0,0,1,32.941,59.067Zm-3.054,0A1.384,1.384,0,0,1,30.971,57.6v2.7C30.3,59.93,29.887,59.58,29.887,59.066Zm1.971,5.4v-2.7c.672.375,1.084.726,1.084,1.24A1.384,1.384,0,0,1,31.857,64.47Z" transform="translate(-3.711 -25.975)"/><path class="d" d="M29.443,18.775H41.267a.443.443,0,1,0,0-.887H29.443a.443.443,0,1,0,0,.887Z" transform="translate(-3.711 -4.947)"/><path class="d" d="M29.443,27.665H41.267a.443.443,0,1,0,0-.887H29.443a.443.443,0,1,0,0,.887Z" transform="translate(-3.711 -9.895)"/><path class="d" d="M47.179,35.667H29.443a.443.443,0,1,0,0,.887H47.179a.443.443,0,0,0,0-.887Z" transform="translate(-3.711 -14.843)"/><path class="d" d="M47.179,44.556H29.443a.443.443,0,1,0,0,.887H47.179a.443.443,0,0,0,0-.887Z" transform="translate(-3.711 -19.79)"/><path class="d" d="M55.838,53.444H45a.443.443,0,0,0,0,.887H55.838a.443.443,0,0,0,0-.887Z" transform="translate(-12.369 -24.738)"/><path class="d" d="M55.838,62.333H45a.443.443,0,0,0,0,.887H55.838a.443.443,0,1,0,0-.887Z" transform="translate(-12.369 -29.686)"/><path class="d" d="M55.838,71.222H45a.443.443,0,1,0,0,.887H55.838a.443.443,0,1,0,0-.887Z" transform="translate(-12.369 -34.633)"/><path class="d" d="M55.838,80.111H45A.443.443,0,1,0,45,81H55.838a.443.443,0,1,0,0-.887Z" transform="translate(-12.369 -39.581)"/></g><g class="e" transform="translate(361 345.06)"><g transform="translate(-261.474 -328.06)"><path class="f" d="M26.653,287.373,9.5,304.525a4.221,4.221,0,1,0,5.969,5.969l14.47-14.47a.913.913,0,1,0-1.292-1.292L14.234,309.147a2.394,2.394,0,0,1-3.386-3.386L27.939,288.67a5.116,5.116,0,0,1,7.235,7.235L15.153,315.926A7.457,7.457,0,1,1,4.607,305.379l15.971-15.971a.913.913,0,0,0-1.292-1.292L3.245,304.158a9.284,9.284,0,0,0,13.129,13.129l20.1-20.1a6.942,6.942,0,0,0-9.818-9.818Z" transform="translate(-0.526 -285.34)"/></g></g><g class="e" transform="translate(1103 449.06)"><g transform="translate(-261.474 -328.06)"><path class="f" d="M26.653,287.373,9.5,304.525a4.221,4.221,0,1,0,5.969,5.969l14.47-14.47a.913.913,0,1,0-1.292-1.292L14.234,309.147a2.394,2.394,0,0,1-3.386-3.386L27.939,288.67a5.116,5.116,0,0,1,7.235,7.235L15.153,315.926A7.457,7.457,0,1,1,4.607,305.379l15.971-15.971a.913.913,0,0,0-1.292-1.292L3.245,304.158a9.284,9.284,0,0,0,13.129,13.129l20.1-20.1a6.942,6.942,0,0,0-9.818-9.818Z" transform="translate(-0.526 -285.34)"/></g></g><g class="e" transform="matrix(0.921, -0.391, 0.391, 0.921, 227.798, 103.516)"><path class="f" d="M40.49,21.086H38.2v-1.46a.626.626,0,1,0-1.252,0v1.46H24.01v-1.46a.626.626,0,0,0-1.252,0v1.46H20.464A3.989,3.989,0,0,0,16.5,25.05V40.9a3.989,3.989,0,0,0,3.964,3.964H40.49A3.989,3.989,0,0,0,44.454,40.9V25.05A3.962,3.962,0,0,0,40.49,21.086ZM20.464,22.338h2.295v3.129a.626.626,0,0,0,1.252,0V22.338H36.944v3.129a.626.626,0,1,0,1.252,0V22.338H40.49A2.707,2.707,0,0,1,43.2,25.05v4.339H17.752V25.05A2.707,2.707,0,0,1,20.464,22.338ZM40.49,43.616H20.464A2.707,2.707,0,0,1,17.752,40.9V30.64H43.2V40.9A2.707,2.707,0,0,1,40.49,43.616Z" transform="translate(-25 -73)"/></g><g class="e" transform="matrix(0.921, -0.391, 0.391, 0.921, 775.089, 148.201)"><path class="f" d="M39.8,21.026H37.571V19.608a.608.608,0,1,0-1.216,0v1.418H23.794V19.608a.608.608,0,1,0-1.216,0v1.418H20.35a3.874,3.874,0,0,0-3.85,3.85v15.4a3.874,3.874,0,0,0,3.85,3.85H39.8a3.874,3.874,0,0,0,3.85-3.85v-15.4A3.848,3.848,0,0,0,39.8,21.026ZM20.35,22.242h2.229v3.039a.608.608,0,1,0,1.216,0V22.242H36.356v3.039a.608.608,0,1,0,1.216,0V22.242H39.8a2.629,2.629,0,0,1,2.634,2.634V29.09H17.716V24.876A2.629,2.629,0,0,1,20.35,22.242ZM39.8,42.908H20.35a2.629,2.629,0,0,1-2.634-2.634V30.306H42.434v9.968A2.629,2.629,0,0,1,39.8,42.908Z" transform="translate(-25 -73)"/></g><g class="e" transform="matrix(0.966, 0.259, -0.259, 0.966, 26.025, -33.71)"><g transform="translate(18.784 103.048)"><g transform="translate(4.821 0)"><path class="f" d="M157.774,110.979a6.5,6.5,0,0,1-.062.907c.015-.1.027-.2.042-.307a7.077,7.077,0,0,1-.477,1.745l.115-.277a6.943,6.943,0,0,1-.6,1.115c-.062.092-.127.181-.188.269-.142.2.169-.208.042-.054l-.1.119c-.135.161-.277.315-.423.465s-.3.288-.465.423c-.038.031-.077.065-.119.1-.154.127.227-.169.073-.058-.088.065-.177.127-.269.188a6.736,6.736,0,0,1-1.134.615l.277-.115a6.827,6.827,0,0,1-1.745.477c.1-.015.2-.027.307-.042a7.164,7.164,0,0,1-1.814,0c.1.015.2.027.307.042a7.077,7.077,0,0,1-1.745-.477l.277.115a6.94,6.94,0,0,1-1.115-.6c-.092-.061-.181-.127-.269-.188-.2-.142.208.169.054.042l-.119-.1c-.161-.135-.315-.277-.465-.423s-.288-.3-.423-.465c-.031-.038-.065-.077-.1-.119-.127-.154.169.227.058.073-.065-.088-.127-.177-.188-.269a6.738,6.738,0,0,1-.615-1.134l.115.277a6.827,6.827,0,0,1-.477-1.745c.015.1.027.2.042.307a7.164,7.164,0,0,1,0-1.814c-.015.1-.027.2-.042.307a7.077,7.077,0,0,1,.477-1.745l-.115.277a6.941,6.941,0,0,1,.6-1.115c.061-.092.127-.181.188-.269.142-.2-.169.208-.042.054l.1-.119c.135-.161.277-.315.423-.465a6.065,6.065,0,0,1,.465-.423c.038-.031.077-.065.119-.1.154-.127-.227.169-.073.058.088-.065.177-.127.269-.188a6.735,6.735,0,0,1,1.134-.615l-.277.115a6.827,6.827,0,0,1,1.745-.477c-.1.015-.2.027-.307.042a7.164,7.164,0,0,1,1.814,0c-.1-.015-.2-.027-.307-.042a7.078,7.078,0,0,1,1.745.477l-.277-.115a6.941,6.941,0,0,1,1.115.6c.092.061.181.127.269.188.2.142-.208-.169-.054-.042l.119.1c.161.135.315.277.465.423s.288.3.423.465c.031.038.065.077.1.119.127.154-.169-.227-.058-.073.065.088.127.177.188.269a6.739,6.739,0,0,1,.615,1.134l-.115-.277a6.827,6.827,0,0,1,.477,1.745c-.015-.1-.027-.2-.042-.307a6.5,6.5,0,0,1,.062.907,1.153,1.153,0,1,0,2.306,0,7.881,7.881,0,0,0-1.426-4.531A8.208,8.208,0,0,0,154.8,103.5a7.953,7.953,0,0,0-8.713,2.371,8.166,8.166,0,0,0-1.849,4.57,7.915,7.915,0,0,0,4.539,7.714,8.2,8.2,0,0,0,5,.588,7.948,7.948,0,0,0,6.184-6.418,8.75,8.75,0,0,0,.119-1.345,1.151,1.151,0,1,0-2.3,0Z" transform="translate(-144.211 -103.048)"/></g><g transform="translate(21.881 3.849)"><path class="f" d="M598.222,209.4a5.248,5.248,0,0,1-.046.692c.015-.1.027-.2.042-.307a5.04,5.04,0,0,1-.357,1.291l.115-.277a4.862,4.862,0,0,1-.446.822c-.046.069-.1.138-.146.208-.027.035-.108.142.015-.015s.027-.038,0,0c-.1.123-.208.238-.319.354s-.219.208-.334.3c-.011.012-.081.085-.1.081,0,0,.242-.181.115-.088-.069.05-.135.1-.2.146a5.1,5.1,0,0,1-.842.457l.277-.115a5.367,5.367,0,0,1-1.292.357c.1-.015.2-.027.307-.042a5.209,5.209,0,0,1-1.384,0c.1.015.2.027.307.042a5.04,5.04,0,0,1-1.291-.357l.277.115a4.868,4.868,0,0,1-.823-.446c-.069-.046-.138-.1-.208-.146-.035-.027-.142-.108.015.015s.038.027,0,0c-.123-.1-.238-.208-.354-.319s-.208-.219-.3-.334c-.012-.012-.085-.081-.081-.1,0,0,.181.242.088.115-.05-.069-.1-.135-.146-.2a5.1,5.1,0,0,1-.457-.842l.115.277a5.366,5.366,0,0,1-.357-1.291c.015.1.027.2.042.307a5.209,5.209,0,0,1,0-1.384c-.015.1-.027.2-.042.307a5.04,5.04,0,0,1,.357-1.291l-.115.277a4.863,4.863,0,0,1,.446-.822c.046-.069.1-.138.146-.208.027-.035.108-.142-.015.015s-.027.038,0,0c.1-.123.208-.238.319-.354s.219-.208.334-.3c.012-.012.081-.085.1-.081,0,0-.242.181-.115.088.069-.05.135-.1.2-.146a5.1,5.1,0,0,1,.842-.457l-.277.115a5.368,5.368,0,0,1,1.292-.357c-.1.015-.2.027-.307.042a5.212,5.212,0,0,1,1.384,0c-.1-.015-.2-.027-.307-.042a5.039,5.039,0,0,1,1.291.357l-.277-.115a4.871,4.871,0,0,1,.823.446c.069.046.138.1.208.146.035.027.142.108-.015-.015s-.038-.027,0,0c.123.1.238.208.354.319s.208.219.3.334c.011.012.085.081.081.1,0,0-.181-.242-.088-.115.05.069.1.135.146.2a5.1,5.1,0,0,1,.457.842l-.115-.277a5.377,5.377,0,0,1,.357,1.291c-.015-.1-.027-.2-.042-.307a5.247,5.247,0,0,1,.046.692,1.153,1.153,0,1,0,2.306,0,6.2,6.2,0,0,0-1.1-3.532,6.44,6.44,0,0,0-3.059-2.333,6.222,6.222,0,0,0-6.78,1.841,6.412,6.412,0,0,0-1.464,3.594,6.185,6.185,0,0,0,3.54,6.042,6.421,6.421,0,0,0,3.963.461,6.219,6.219,0,0,0,4.808-5,7.786,7.786,0,0,0,.1-1.076,1.155,1.155,0,0,0-2.31,0Z" transform="translate(-588.103 -203.188)"/></g><g transform="translate(0 17.032)"><path class="f" d="M41.987,555.09v1.46a13.407,13.407,0,0,1-.015,1.522c.015-.1.027-.2.042-.307a1.547,1.547,0,0,1-.108.4l.115-.277a2.908,2.908,0,0,1-.142.265c-.088.154.169-.185.077-.092-.035.035-.065.077-.1.112s-.061.058-.092.084c-.138.131.242-.154.073-.061-.088.05-.173.1-.265.142l.277-.115a2.005,2.005,0,0,1-.4.108c.1-.015.2-.027.307-.042a6.144,6.144,0,0,1-.7.015H23.946c-.8,0-1.587.008-2.383,0a1.6,1.6,0,0,1-.234-.015c.1.015.2.027.307.042a1.542,1.542,0,0,1-.4-.108l.277.115a2.9,2.9,0,0,1-.265-.142c-.154-.088.184.169.092.077-.035-.035-.077-.065-.111-.1s-.058-.062-.085-.092c-.131-.138.154.242.061.073-.05-.088-.1-.173-.142-.265l.115.277a2.085,2.085,0,0,1-.108-.4c.015.1.027.2.042.307a10.3,10.3,0,0,1-.019-1.334v-1.58a8.562,8.562,0,0,1,.065-1.088c-.015.1-.027.2-.042.307a7.788,7.788,0,0,1,.542-1.995l-.115.277a7.907,7.907,0,0,1,.7-1.291c.065-.1.135-.192.2-.288.169-.227-.146.181-.027.035.042-.054.085-.1.127-.158a6.742,6.742,0,0,1,.477-.519c.165-.165.338-.323.519-.477.05-.042.1-.085.158-.127.158-.127-.25.184-.054.042.1-.073.2-.15.307-.219a7.755,7.755,0,0,1,1.291-.7l-.277.115a7.783,7.783,0,0,1,1.995-.542c-.1.015-.2.027-.307.042a11.8,11.8,0,0,1,1.518-.065h6.484a14.069,14.069,0,0,1,1.8.069c-.1-.015-.2-.027-.307-.042a8.088,8.088,0,0,1,1.964.538l-.277-.115a7.584,7.584,0,0,1,1.364.749c.1.069.2.146.3.219-.323-.234,0,0,.081.069a6.975,6.975,0,0,1,.523.488c.165.169.327.35.477.534.035.042.073.088.108.134-.038-.046-.073-.1-.111-.142l.069.092c.069.092.135.188.2.281a7.912,7.912,0,0,1,.684,1.268l-.115-.277a7.86,7.86,0,0,1,.542,1.983c-.015-.1-.027-.2-.042-.307a7.246,7.246,0,0,1,.073,1.038,1.153,1.153,0,0,0,2.306,0,8.731,8.731,0,0,0-.5-2.944,9.507,9.507,0,0,0-1.5-2.667,8.756,8.756,0,0,0-5.016-3.078,13.813,13.813,0,0,0-2.813-.2H28.351a11.8,11.8,0,0,0-2.821.261,8.927,8.927,0,0,0-6.6,7.1,21.159,21.159,0,0,0-.138,3.348c0,.369-.023.746.008,1.115a2.763,2.763,0,0,0,2.118,2.514,6.348,6.348,0,0,0,1.264.073h19.34a2.765,2.765,0,0,0,2.018-.857,2.872,2.872,0,0,0,.746-1.73c.012-.131.008-.261.008-.4V555.09a1.153,1.153,0,1,0-2.306,0Z" transform="translate(-18.784 -546.2)"/></g><g transform="translate(20.161 17.247)"><path class="f" d="M558.776,558.453v1.337c0,.45.031.915-.008,1.364.015-.1.027-.2.042-.307a1.106,1.106,0,0,1-.061.246l.115-.277c-.019.046-.046.088-.065.135-.085.173.208-.227.042-.058s.181-.1.081-.058c-.054.019-.1.058-.154.081l.277-.115a1.1,1.1,0,0,1-.246.062c.1-.015.2-.027.308-.042-.4.035-.811.008-1.211.008H547.534l1.153,1.153a23,23,0,0,0-.039-2.3,8.831,8.831,0,0,0-1.61-4.355,9.737,9.737,0,0,0-1.972-2c.077.6.154,1.207.234,1.81.061-.054.123-.1.184-.154.173-.146-.227.161-.042.035.115-.081.231-.161.35-.238a5.671,5.671,0,0,1,.757-.392l-.277.115a5.714,5.714,0,0,1,1.376-.38c-.1.015-.2.027-.307.042a9.421,9.421,0,0,1,1.234-.054h5.277a10.155,10.155,0,0,1,1.322.05c-.1-.015-.2-.027-.307-.042a5.86,5.86,0,0,1,1.4.381l-.277-.115a5.824,5.824,0,0,1,.915.492c.069.046.138.1.208.146.165.119-.073-.073-.092-.073.019,0,.081.065.1.081.135.111.265.231.392.354s.231.242.338.373c.027.031.054.065.081.1.085.1-.177-.238-.073-.092.05.069.1.135.146.2a5.488,5.488,0,0,1,.507.934l-.115-.277a5.48,5.48,0,0,1,.38,1.4c-.015-.1-.027-.2-.042-.307a5.45,5.45,0,0,1,.05.749,1.153,1.153,0,0,0,2.306,0,6.66,6.66,0,0,0-2.283-5.012,6.816,6.816,0,0,0-4.458-1.641h-5.784a10.034,10.034,0,0,0-1.518.1,6.652,6.652,0,0,0-3.371,1.61,1.107,1.107,0,0,0-.319.969,1.216,1.216,0,0,0,.55.842c-.019-.015-.215-.173-.1-.073.031.023.058.046.088.073.065.054.131.112.2.165.123.108.238.219.354.331s.227.231.334.354a3.256,3.256,0,0,0,.311.373c-.019-.015-.165-.223-.077-.1l.069.092c.046.062.088.123.131.188.092.135.177.273.261.411a7.352,7.352,0,0,1,.454.9l-.115-.277a7.863,7.863,0,0,1,.542,1.983c-.015-.1-.027-.2-.042-.307a20,20,0,0,1,.069,2.541,1.169,1.169,0,0,0,1.153,1.153h11.088a2.825,2.825,0,0,0,1.168-.169,2.1,2.1,0,0,0,1.287-1.918c0-.188,0-.38,0-.573v-2.025a1.167,1.167,0,0,0-1.153-1.153A1.185,1.185,0,0,0,558.776,558.453Z" transform="translate(-543.339 -551.8)"/></g></g></g><g class="e" transform="matrix(0.966, 0.259, -0.259, 0.966, 807.025, -94.71)"><g transform="translate(18.784 103.048)"><g transform="translate(4.821 0)"><path class="f" d="M157.774,110.979a6.5,6.5,0,0,1-.062.907c.015-.1.027-.2.042-.307a7.077,7.077,0,0,1-.477,1.745l.115-.277a6.943,6.943,0,0,1-.6,1.115c-.062.092-.127.181-.188.269-.142.2.169-.208.042-.054l-.1.119c-.135.161-.277.315-.423.465s-.3.288-.465.423c-.038.031-.077.065-.119.1-.154.127.227-.169.073-.058-.088.065-.177.127-.269.188a6.736,6.736,0,0,1-1.134.615l.277-.115a6.827,6.827,0,0,1-1.745.477c.1-.015.2-.027.307-.042a7.164,7.164,0,0,1-1.814,0c.1.015.2.027.307.042a7.077,7.077,0,0,1-1.745-.477l.277.115a6.94,6.94,0,0,1-1.115-.6c-.092-.061-.181-.127-.269-.188-.2-.142.208.169.054.042l-.119-.1c-.161-.135-.315-.277-.465-.423s-.288-.3-.423-.465c-.031-.038-.065-.077-.1-.119-.127-.154.169.227.058.073-.065-.088-.127-.177-.188-.269a6.738,6.738,0,0,1-.615-1.134l.115.277a6.827,6.827,0,0,1-.477-1.745c.015.1.027.2.042.307a7.164,7.164,0,0,1,0-1.814c-.015.1-.027.2-.042.307a7.077,7.077,0,0,1,.477-1.745l-.115.277a6.941,6.941,0,0,1,.6-1.115c.061-.092.127-.181.188-.269.142-.2-.169.208-.042.054l.1-.119c.135-.161.277-.315.423-.465a6.065,6.065,0,0,1,.465-.423c.038-.031.077-.065.119-.1.154-.127-.227.169-.073.058.088-.065.177-.127.269-.188a6.735,6.735,0,0,1,1.134-.615l-.277.115a6.827,6.827,0,0,1,1.745-.477c-.1.015-.2.027-.307.042a7.164,7.164,0,0,1,1.814,0c-.1-.015-.2-.027-.307-.042a7.078,7.078,0,0,1,1.745.477l-.277-.115a6.941,6.941,0,0,1,1.115.6c.092.061.181.127.269.188.2.142-.208-.169-.054-.042l.119.1c.161.135.315.277.465.423s.288.3.423.465c.031.038.065.077.1.119.127.154-.169-.227-.058-.073.065.088.127.177.188.269a6.739,6.739,0,0,1,.615,1.134l-.115-.277a6.827,6.827,0,0,1,.477,1.745c-.015-.1-.027-.2-.042-.307a6.5,6.5,0,0,1,.062.907,1.153,1.153,0,1,0,2.306,0,7.881,7.881,0,0,0-1.426-4.531A8.208,8.208,0,0,0,154.8,103.5a7.953,7.953,0,0,0-8.713,2.371,8.166,8.166,0,0,0-1.849,4.57,7.915,7.915,0,0,0,4.539,7.714,8.2,8.2,0,0,0,5,.588,7.948,7.948,0,0,0,6.184-6.418,8.75,8.75,0,0,0,.119-1.345,1.151,1.151,0,1,0-2.3,0Z" transform="translate(-144.211 -103.048)"/></g><g transform="translate(21.881 3.849)"><path class="f" d="M598.222,209.4a5.248,5.248,0,0,1-.046.692c.015-.1.027-.2.042-.307a5.04,5.04,0,0,1-.357,1.291l.115-.277a4.862,4.862,0,0,1-.446.822c-.046.069-.1.138-.146.208-.027.035-.108.142.015-.015s.027-.038,0,0c-.1.123-.208.238-.319.354s-.219.208-.334.3c-.011.012-.081.085-.1.081,0,0,.242-.181.115-.088-.069.05-.135.1-.2.146a5.1,5.1,0,0,1-.842.457l.277-.115a5.367,5.367,0,0,1-1.292.357c.1-.015.2-.027.307-.042a5.209,5.209,0,0,1-1.384,0c.1.015.2.027.307.042a5.04,5.04,0,0,1-1.291-.357l.277.115a4.868,4.868,0,0,1-.823-.446c-.069-.046-.138-.1-.208-.146-.035-.027-.142-.108.015.015s.038.027,0,0c-.123-.1-.238-.208-.354-.319s-.208-.219-.3-.334c-.012-.012-.085-.081-.081-.1,0,0,.181.242.088.115-.05-.069-.1-.135-.146-.2a5.1,5.1,0,0,1-.457-.842l.115.277a5.366,5.366,0,0,1-.357-1.291c.015.1.027.2.042.307a5.209,5.209,0,0,1,0-1.384c-.015.1-.027.2-.042.307a5.04,5.04,0,0,1,.357-1.291l-.115.277a4.863,4.863,0,0,1,.446-.822c.046-.069.1-.138.146-.208.027-.035.108-.142-.015.015s-.027.038,0,0c.1-.123.208-.238.319-.354s.219-.208.334-.3c.012-.012.081-.085.1-.081,0,0-.242.181-.115.088.069-.05.135-.1.2-.146a5.1,5.1,0,0,1,.842-.457l-.277.115a5.368,5.368,0,0,1,1.292-.357c-.1.015-.2.027-.307.042a5.212,5.212,0,0,1,1.384,0c-.1-.015-.2-.027-.307-.042a5.039,5.039,0,0,1,1.291.357l-.277-.115a4.871,4.871,0,0,1,.823.446c.069.046.138.1.208.146.035.027.142.108-.015-.015s-.038-.027,0,0c.123.1.238.208.354.319s.208.219.3.334c.011.012.085.081.081.1,0,0-.181-.242-.088-.115.05.069.1.135.146.2a5.1,5.1,0,0,1,.457.842l-.115-.277a5.377,5.377,0,0,1,.357,1.291c-.015-.1-.027-.2-.042-.307a5.247,5.247,0,0,1,.046.692,1.153,1.153,0,1,0,2.306,0,6.2,6.2,0,0,0-1.1-3.532,6.44,6.44,0,0,0-3.059-2.333,6.222,6.222,0,0,0-6.78,1.841,6.412,6.412,0,0,0-1.464,3.594,6.185,6.185,0,0,0,3.54,6.042,6.421,6.421,0,0,0,3.963.461,6.219,6.219,0,0,0,4.808-5,7.786,7.786,0,0,0,.1-1.076,1.155,1.155,0,0,0-2.31,0Z" transform="translate(-588.103 -203.188)"/></g><g transform="translate(0 17.032)"><path class="f" d="M41.987,555.09v1.46a13.407,13.407,0,0,1-.015,1.522c.015-.1.027-.2.042-.307a1.547,1.547,0,0,1-.108.4l.115-.277a2.908,2.908,0,0,1-.142.265c-.088.154.169-.185.077-.092-.035.035-.065.077-.1.112s-.061.058-.092.084c-.138.131.242-.154.073-.061-.088.05-.173.1-.265.142l.277-.115a2.005,2.005,0,0,1-.4.108c.1-.015.2-.027.307-.042a6.144,6.144,0,0,1-.7.015H23.946c-.8,0-1.587.008-2.383,0a1.6,1.6,0,0,1-.234-.015c.1.015.2.027.307.042a1.542,1.542,0,0,1-.4-.108l.277.115a2.9,2.9,0,0,1-.265-.142c-.154-.088.184.169.092.077-.035-.035-.077-.065-.111-.1s-.058-.062-.085-.092c-.131-.138.154.242.061.073-.05-.088-.1-.173-.142-.265l.115.277a2.085,2.085,0,0,1-.108-.4c.015.1.027.2.042.307a10.3,10.3,0,0,1-.019-1.334v-1.58a8.562,8.562,0,0,1,.065-1.088c-.015.1-.027.2-.042.307a7.788,7.788,0,0,1,.542-1.995l-.115.277a7.907,7.907,0,0,1,.7-1.291c.065-.1.135-.192.2-.288.169-.227-.146.181-.027.035.042-.054.085-.1.127-.158a6.742,6.742,0,0,1,.477-.519c.165-.165.338-.323.519-.477.05-.042.1-.085.158-.127.158-.127-.25.184-.054.042.1-.073.2-.15.307-.219a7.755,7.755,0,0,1,1.291-.7l-.277.115a7.783,7.783,0,0,1,1.995-.542c-.1.015-.2.027-.307.042a11.8,11.8,0,0,1,1.518-.065h6.484a14.069,14.069,0,0,1,1.8.069c-.1-.015-.2-.027-.307-.042a8.088,8.088,0,0,1,1.964.538l-.277-.115a7.584,7.584,0,0,1,1.364.749c.1.069.2.146.3.219-.323-.234,0,0,.081.069a6.975,6.975,0,0,1,.523.488c.165.169.327.35.477.534.035.042.073.088.108.134-.038-.046-.073-.1-.111-.142l.069.092c.069.092.135.188.2.281a7.912,7.912,0,0,1,.684,1.268l-.115-.277a7.86,7.86,0,0,1,.542,1.983c-.015-.1-.027-.2-.042-.307a7.246,7.246,0,0,1,.073,1.038,1.153,1.153,0,0,0,2.306,0,8.731,8.731,0,0,0-.5-2.944,9.507,9.507,0,0,0-1.5-2.667,8.756,8.756,0,0,0-5.016-3.078,13.813,13.813,0,0,0-2.813-.2H28.351a11.8,11.8,0,0,0-2.821.261,8.927,8.927,0,0,0-6.6,7.1,21.159,21.159,0,0,0-.138,3.348c0,.369-.023.746.008,1.115a2.763,2.763,0,0,0,2.118,2.514,6.348,6.348,0,0,0,1.264.073h19.34a2.765,2.765,0,0,0,2.018-.857,2.872,2.872,0,0,0,.746-1.73c.012-.131.008-.261.008-.4V555.09a1.153,1.153,0,1,0-2.306,0Z" transform="translate(-18.784 -546.2)"/></g><g transform="translate(20.161 17.247)"><path class="f" d="M558.776,558.453v1.337c0,.45.031.915-.008,1.364.015-.1.027-.2.042-.307a1.106,1.106,0,0,1-.061.246l.115-.277c-.019.046-.046.088-.065.135-.085.173.208-.227.042-.058s.181-.1.081-.058c-.054.019-.1.058-.154.081l.277-.115a1.1,1.1,0,0,1-.246.062c.1-.015.2-.027.308-.042-.4.035-.811.008-1.211.008H547.534l1.153,1.153a23,23,0,0,0-.039-2.3,8.831,8.831,0,0,0-1.61-4.355,9.737,9.737,0,0,0-1.972-2c.077.6.154,1.207.234,1.81.061-.054.123-.1.184-.154.173-.146-.227.161-.042.035.115-.081.231-.161.35-.238a5.671,5.671,0,0,1,.757-.392l-.277.115a5.714,5.714,0,0,1,1.376-.38c-.1.015-.2.027-.307.042a9.421,9.421,0,0,1,1.234-.054h5.277a10.155,10.155,0,0,1,1.322.05c-.1-.015-.2-.027-.307-.042a5.86,5.86,0,0,1,1.4.381l-.277-.115a5.824,5.824,0,0,1,.915.492c.069.046.138.1.208.146.165.119-.073-.073-.092-.073.019,0,.081.065.1.081.135.111.265.231.392.354s.231.242.338.373c.027.031.054.065.081.1.085.1-.177-.238-.073-.092.05.069.1.135.146.2a5.488,5.488,0,0,1,.507.934l-.115-.277a5.48,5.48,0,0,1,.38,1.4c-.015-.1-.027-.2-.042-.307a5.45,5.45,0,0,1,.05.749,1.153,1.153,0,0,0,2.306,0,6.66,6.66,0,0,0-2.283-5.012,6.816,6.816,0,0,0-4.458-1.641h-5.784a10.034,10.034,0,0,0-1.518.1,6.652,6.652,0,0,0-3.371,1.61,1.107,1.107,0,0,0-.319.969,1.216,1.216,0,0,0,.55.842c-.019-.015-.215-.173-.1-.073.031.023.058.046.088.073.065.054.131.112.2.165.123.108.238.219.354.331s.227.231.334.354a3.256,3.256,0,0,0,.311.373c-.019-.015-.165-.223-.077-.1l.069.092c.046.062.088.123.131.188.092.135.177.273.261.411a7.352,7.352,0,0,1,.454.9l-.115-.277a7.863,7.863,0,0,1,.542,1.983c-.015-.1-.027-.2-.042-.307a20,20,0,0,1,.069,2.541,1.169,1.169,0,0,0,1.153,1.153h11.088a2.825,2.825,0,0,0,1.168-.169,2.1,2.1,0,0,0,1.287-1.918c0-.188,0-.38,0-.573v-2.025a1.167,1.167,0,0,0-1.153-1.153A1.185,1.185,0,0,0,558.776,558.453Z" transform="translate(-543.339 -551.8)"/></g></g></g><g class="g" transform="translate(642.864 30.974) rotate(-34)"><g transform="translate(4.066 0.662)"><path class="f" d="M-125.538,197.37a1.43,1.43,0,0,0-1.426,1.426v27.988a1.43,1.43,0,0,0,1.426,1.426H-105.9a1.429,1.429,0,0,0,1.425-1.426V201.922h0a.321.321,0,0,0-.013-.095h0l-.006-.02,0-.006-.006-.02,0-.006-.013-.02,0,0-.013-.02-.006-.006-.013-.02-4.23-4.231a.321.321,0,0,0-.169-.089l-.033,0h-.027Zm0,.643h16.188v2.805a1.43,1.43,0,0,0,1.426,1.426h2.805v24.541a.775.775,0,0,1-.783.783h-19.636a.775.775,0,0,1-.783-.783V198.8a.775.775,0,0,1,.783-.783Zm16.831.455,2.5,2.5.631.631h-2.351a.775.775,0,0,1-.783-.783Zm-11.726,3.362a.321.321,0,0,0-.289.205l-.158.394h-2.688a.965.965,0,0,0-.96.96v3.22a.965.965,0,0,0,.96.96h3.22a.965.965,0,0,0,.96-.96v-3.22a.965.965,0,0,0-.805-.946l.068-.169a.321.321,0,0,0-.032-.306.321.321,0,0,0-.275-.138Zm10.018.93h-7.017a.321.321,0,0,0-.29.156.321.321,0,0,0,0,.329.321.321,0,0,0,.29.156h7.011a.321.321,0,0,0,.291-.154.321.321,0,0,0,0-.329.321.321,0,0,0-.288-.159Zm-13.153.312h2.43l-.917,2.286-.547-1.062a.321.321,0,0,0-.433-.138.321.321,0,0,0-.138.433l.87,1.686a.321.321,0,0,0,.3.174.321.321,0,0,0,.283-.2l1.275-3.177h.1a.31.31,0,0,1,.318.318v3.22a.31.31,0,0,1-.318.318h-3.22a.31.31,0,0,1-.318-.318v-3.22a.31.31,0,0,1,.318-.318Zm15.771.98h-9.634a.321.321,0,0,0-.29.156.321.321,0,0,0,0,.33.321.321,0,0,0,.29.156h9.628a.321.321,0,0,0,.291-.154.321.321,0,0,0,0-.329.321.321,0,0,0-.288-.159Zm-9.637,1.267a.321.321,0,0,0-.321.321.321.321,0,0,0,.321.321h9.628a.321.321,0,0,0,.321-.321.321.321,0,0,0-.321-.321Zm9.637,1.278h-9.634a.321.321,0,0,0-.29.156.321.321,0,0,0,0,.33.321.321,0,0,0,.29.156h9.628a.321.321,0,0,0,.291-.154.321.321,0,0,0,0-.329.321.321,0,0,0-.288-.159Zm-15.771,4.827a.965.965,0,0,0-.96.96v3.22a.965.965,0,0,0,.96.96h3.22a.965.965,0,0,0,.96-.96v-3.22a.965.965,0,0,0-.96-.96Zm6.135.33a.321.321,0,0,0-.321.321.321.321,0,0,0,.321.321h7.011a.321.321,0,0,0,.321-.321.321.321,0,0,0-.321-.321Zm-6.135.312h3.22a.31.31,0,0,1,.318.318v3.22a.31.31,0,0,1-.318.318h-3.22a.31.31,0,0,1-.318-.318v-3.22A.31.31,0,0,1-123.569,212.067Zm6.135.98a.321.321,0,0,0-.321.321.321.321,0,0,0,.321.321h9.628a.321.321,0,0,0,.321-.321.321.321,0,0,0-.321-.321Zm0,1.267a.321.321,0,0,0-.321.321.321.321,0,0,0,.321.321h9.628a.321.321,0,0,0,.321-.321.321.321,0,0,0-.321-.321Zm0,1.278a.321.321,0,0,0-.321.321.321.321,0,0,0,.321.321h9.628a.321.321,0,0,0,.321-.321.321.321,0,0,0-.321-.321Zm-6.135,4.827a.965.965,0,0,0-.96.96v3.22a.965.965,0,0,0,.96.96h3.22a.965.965,0,0,0,.96-.96v-3.22a.965.965,0,0,0-.96-.96Zm6.135.329a.321.321,0,0,0-.321.321.321.321,0,0,0,.321.321h7.011a.321.321,0,0,0,.321-.321.321.321,0,0,0-.321-.321Zm-6.135.313h3.22a.31.31,0,0,1,.318.318v3.22a.31.31,0,0,1-.318.318h-3.22a.31.31,0,0,1-.318-.318v-3.22A.31.31,0,0,1-123.569,221.062Zm6.135.979a.321.321,0,0,0-.321.321.321.321,0,0,0,.321.321h9.628a.321.321,0,0,0,.321-.321.321.321,0,0,0-.321-.321Zm0,1.268a.321.321,0,0,0-.321.321.321.321,0,0,0,.321.321h9.628a.321.321,0,0,0,.321-.321.321.321,0,0,0-.321-.321Zm0,1.278a.321.321,0,0,0-.321.321.321.321,0,0,0,.321.321h9.628a.321.321,0,0,0,.321-.321.321.321,0,0,0-.321-.321Z" transform="translate(126.964 -197.37)"/></g></g><g class="g" transform="translate(125.864 114.974) rotate(-34)"><g transform="translate(131.03 -196.708)"><path class="f" d="M-125.8,197.37a1.165,1.165,0,0,0-1.162,1.162v22.812a1.165,1.165,0,0,0,1.162,1.162h16a1.165,1.165,0,0,0,1.162-1.162V201.08h0a.262.262,0,0,0-.011-.077h0l0-.016,0-.005-.005-.016,0-.005-.011-.016,0,0-.011-.016,0,0-.011-.016-3.448-3.448a.262.262,0,0,0-.137-.072l-.027,0h-.022Zm0,.524h13.194v2.286a1.165,1.165,0,0,0,1.162,1.162h2.286v20a.631.631,0,0,1-.638.638h-16a.632.632,0,0,1-.638-.638V198.532a.631.631,0,0,1,.638-.638Zm13.718.371,2.04,2.04.514.514h-1.916a.632.632,0,0,1-.638-.638Zm-9.557,2.74a.262.262,0,0,0-.235.167l-.129.322H-124.2a.787.787,0,0,0-.783.783V204.9a.787.787,0,0,0,.783.783h2.625a.786.786,0,0,0,.782-.783v-2.624a.787.787,0,0,0-.656-.771l.055-.138a.262.262,0,0,0-.026-.249.262.262,0,0,0-.224-.113Zm8.165.758H-119.2a.262.262,0,0,0-.236.127.262.262,0,0,0,0,.268.262.262,0,0,0,.236.127h5.714a.262.262,0,0,0,.237-.125.262.262,0,0,0,0-.268.262.262,0,0,0-.235-.13Zm-10.72.255h1.981l-.747,1.863-.446-.866a.262.262,0,0,0-.353-.113.262.262,0,0,0-.113.353l.709,1.374a.262.262,0,0,0,.245.142.262.262,0,0,0,.231-.163l1.039-2.589h.08a.253.253,0,0,1,.259.259V204.9a.253.253,0,0,1-.259.259H-124.2a.253.253,0,0,1-.259-.259v-2.624a.253.253,0,0,1,.259-.259Zm12.854.8H-119.2a.262.262,0,0,0-.237.127.262.262,0,0,0,0,.269.262.262,0,0,0,.237.127h7.847a.262.262,0,0,0,.238-.125.262.262,0,0,0,0-.268.262.262,0,0,0-.235-.13Zm-7.854,1.033a.262.262,0,0,0-.262.262.262.262,0,0,0,.262.262h7.847a.262.262,0,0,0,.262-.262.262.262,0,0,0-.262-.262Zm7.854,1.042H-119.2a.262.262,0,0,0-.237.127.262.262,0,0,0,0,.269.262.262,0,0,0,.237.127h7.847a.262.262,0,0,0,.238-.125.262.262,0,0,0,0-.268.262.262,0,0,0-.235-.13Zm-12.854,3.934a.787.787,0,0,0-.783.783v2.625a.787.787,0,0,0,.783.783h2.624a.786.786,0,0,0,.782-.783v-2.625a.786.786,0,0,0-.782-.783Zm5,.269a.262.262,0,0,0-.262.262.262.262,0,0,0,.262.262h5.714a.262.262,0,0,0,.262-.262.262.262,0,0,0-.262-.262Zm-5,.255h2.624a.253.253,0,0,1,.259.259v2.625a.253.253,0,0,1-.259.259H-124.2a.253.253,0,0,1-.259-.259v-2.625A.253.253,0,0,1-124.2,209.348Zm5,.8a.262.262,0,0,0-.262.262.262.262,0,0,0,.262.262h7.847a.262.262,0,0,0,.262-.262.262.262,0,0,0-.262-.262Zm0,1.033a.262.262,0,0,0-.262.262.262.262,0,0,0,.262.262h7.847a.262.262,0,0,0,.262-.262.262.262,0,0,0-.262-.262Zm0,1.041a.262.262,0,0,0-.262.262.262.262,0,0,0,.262.262h7.847a.262.262,0,0,0,.262-.262.262.262,0,0,0-.262-.262Zm-5,3.934a.787.787,0,0,0-.783.783v2.624a.787.787,0,0,0,.783.783h2.624a.786.786,0,0,0,.782-.783v-2.624a.786.786,0,0,0-.782-.783Zm5,.269a.262.262,0,0,0-.262.262.262.262,0,0,0,.262.262h5.714a.262.262,0,0,0,.262-.262.262.262,0,0,0-.262-.262Zm-5,.255h2.624a.253.253,0,0,1,.259.259v2.624a.253.253,0,0,1-.259.259H-124.2a.253.253,0,0,1-.259-.259v-2.624A.253.253,0,0,1-124.2,216.68Zm5,.8a.262.262,0,0,0-.262.262.262.262,0,0,0,.262.262h7.847a.262.262,0,0,0,.262-.262.262.262,0,0,0-.262-.262Zm0,1.033a.262.262,0,0,0-.262.262.262.262,0,0,0,.262.262h7.847a.262.262,0,0,0,.262-.262.262.262,0,0,0-.262-.262Zm0,1.041a.262.262,0,0,0-.262.262.262.262,0,0,0,.262.262h7.847a.262.262,0,0,0,.262-.262.262.262,0,0,0-.262-.262Z"/></g></g><g class="e" transform="matrix(0.966, 0.259, -0.259, 0.966, 654.687, 86.404)"><path class="f" d="M31,32H1a1,1,0,0,1-1-1c0-8.07,7.178-14.637,16-14.637S32,22.93,32,31A1,1,0,0,1,31,32ZM2.043,30H29.957C29.391,23.5,23.347,18.363,16,18.363S2.61,23.5,2.043,30Z"/><path class="f" d="M16,18.363a9.182,9.182,0,1,1,9.182-9.181A9.192,9.192,0,0,1,16,18.363ZM16,2a7.182,7.182,0,1,0,7.182,7.181A7.19,7.19,0,0,0,16,2Z"/></g></g></svg>