<svg xmlns="http://www.w3.org/2000/svg" xmlns:xlink="http://www.w3.org/1999/xlink" width="189.445" height="51" viewBox="0 0 189.445 51"><defs><style>.a{fill:url(#a);}.b{fill:url(#b);}.c{fill:url(#c);}.d{fill:url(#d);}.e{fill:url(#e);}.f{fill:url(#f);}.g{fill:url(#g);}.h{fill:url(#h);}.i{clip-path:url(#i);}.j{fill:#592c7f;}.k{fill:#592d80;}.l{fill:#582e80;}.m{fill:#582f81;}.n{fill:#573081;}.o{fill:#573182;}.p{fill:#573283;}.q{fill:#563383;}.r{fill:#563484;}.s{fill:#553584;}.t{fill:#553685;}.u{fill:#553786;}.v{fill:#543886;}.w{fill:#543987;}.x{fill:#533a87;}.y{fill:#533b88;}.z{fill:#533c88;}.aa{fill:#523d89;}.ab{fill:#523e8a;}.ac{fill:#523f8a;}.ad{fill:#51408b;}.ae{fill:#51418b;}.af{fill:#50428c;}.ag{fill:#50438d;}.ah{fill:#50448d;}.ai{fill:#4f458e;}.aj{fill:#4f468e;}.ak{fill:#4e478f;}.al{fill:#4e4890;}.am{fill:#4e4990;}.an{fill:#4d4a91;}.ao{fill:#4d4b91;}.ap{fill:#4c4c92;}.aq{fill:#4c4d93;}.ar{fill:#4c4e93;}.as{fill:#4b4f94;}.at{fill:#4b5094;}.au{fill:#4a5195;}.av{fill:#4a5295;}.aw{fill:#4a5496;}.ax{fill:#495597;}.ay{fill:#495697;}.az{fill:#485798;}.ba{fill:#485898;}.bb{fill:#485999;}.bc{fill:#475a9a;}.bd{fill:#475b9a;}.be{fill:#465c9b;}.bf{fill:#465d9b;}.bg{fill:#465e9c;}.bh{fill:#455f9d;}.bi{fill:#45609d;}.bj{fill:#44619e;}.bk{fill:#44629e;}.bl{fill:#44639f;}.bm{fill:#4364a0;}.bn{fill:#4365a0;}.bo{fill:#4366a1;}.bp{fill:#4267a1;}.bq{fill:#4268a2;}.br{fill:#4169a3;}.bs{fill:#416aa3;}.bt{fill:#416ba4;}.bu{fill:#406ca4;}.bv{fill:#406da5;}.bw{fill:#3f6ea5;}.bx{fill:#3f6fa6;}.by{fill:#3f70a7;}.bz{fill:#3e71a7;}.ca{fill:#3e72a8;}.cb{fill:#3d73a8;}.cc{fill:#3d74a9;}.cd{fill:#3d75aa;}.ce{fill:#3c76aa;}.cf{fill:#3c77ab;}.cg{fill:#3b78ab;}.ch{fill:#3b79ac;}.ci{fill:#3b7aad;}.cj{fill:#3a7bad;}.ck{fill:#3a7cae;}.cl{fill:#397dae;}.cm{fill:#397eaf;}.cn{fill:#397fb0;}.co{fill:#3880b0;}.cp{fill:#3881b1;}.cq{fill:#3882b1;}.cr{fill:#3783b2;}.cs{fill:#3784b3;}.ct{fill:#3685b3;}.cu{fill:#3686b4;}.cv{fill:#3687b4;}.cw{fill:#3588b5;}.cx{fill:#3589b6;}.cy{fill:#348ab6;}.cz{fill:#348bb7;}.da{fill:#348cb7;}.db{fill:#338db8;}.dc{fill:#338eb9;}.dd{fill:#338fb9;}.de{fill:#3290ba;}.df{fill:#3291ba;}.dg{fill:#3192bb;}.dh{fill:#3193bc;}.di{fill:#3194bc;}.dj{fill:#3095bd;}.dk{fill:#3096bd;}.dl{fill:#2f97be;}.dm{fill:#2f98bf;}.dn{fill:#2f99bf;}.do{fill:#2e9ac0;}.dp{fill:#2e9bc0;}.dq{fill:#2e9cc1;}.dr{fill:#2d9dc2;}.ds{fill:#2d9fc2;}.dt{fill:#2ca0c3;}.du{fill:#2ca1c4;}.dv{fill:#2ca2c4;}.dw{fill:#2ba3c5;}.dx{fill:#2ba4c5;}.dy{fill:#2ba5c6;}.dz{fill:#2aa6c7;}.ea{fill:#2aa7c7;}.eb{fill:#29a8c8;}.ec{fill:#29a9c8;}.ed{fill:#29aac9;}.ee{fill:#28abca;}.ef{fill:#28acca;}.eg{fill:#27adcb;}.eh{fill:#27aecb;}.ei{fill:#27afcc;}.ej{fill:#26b0cd;}.ek{fill:#26b1cd;}.el{fill:#26b2ce;}.em{fill:#25b3ce;}.en{fill:#25b4cf;}.eo{fill:#24b5d0;}.ep{fill:#24b6d0;}.eq{fill:#24b7d1;}.er{fill:#23b8d1;}.es{fill:#23b9d2;}.et{fill:#22bad3;}.eu{fill:#22bbd3;}.ev{fill:#22bcd4;}.ew{fill:#21bdd4;}.ex{fill:#21bed5;}.ey{fill:#21bfd6;}.ez{fill:#20c0d6;}.fa{fill:#20c1d7;}.fb{fill:#1fc2d7;}.fc{fill:#1fc3d8;}.fd{clip-path:url(#ff);}</style><linearGradient id="a" x1="0.5" y1="1.001" x2="0.5" gradientUnits="objectBoundingBox"><stop offset="0" stop-color="#592c7f"/><stop offset="1" stop-color="#1fc3d8"/></linearGradient><linearGradient id="b" x1="0.5" y1="1" x2="0.5" y2="0" xlink:href="#a"/><linearGradient id="c" x1="0.499" y1="1" x2="0.499" y2="0" xlink:href="#a"/><linearGradient id="d" x1="0.501" y1="1.001" x2="0.501" y2="0" xlink:href="#a"/><linearGradient id="e" x1="0.5" y1="1" x2="0.5" y2="0" xlink:href="#a"/><linearGradient id="f" x1="0.5" y1="1" x2="0.5" y2="0" xlink:href="#a"/><linearGradient id="g" x1="0.5" y1="0.999" x2="0.5" y2="0" xlink:href="#a"/><linearGradient id="h" x1="0.195" y1="1.024" x2="0.805" y2="-0.024" gradientUnits="objectBoundingBox"><stop offset="0" stop-color="#592c7f"/><stop offset="0.511" stop-color="#3b79ac"/><stop offset="1" stop-color="#1fc3d8"/></linearGradient><clipPath id="i"><path d="M129.182,437.966l-1.309,1.405-2.041,2.214v-2.214h-22.66a2.317,2.317,0,0,0-2.31,2.31v10.377a2.317,2.317,0,0,0,2.31,2.31h13l2.638,3.08H103.171a5.374,5.374,0,0,1-5.371-5.371V441.7a5.374,5.374,0,0,1,5.371-5.371h22.641V434l1.964,2.33Z" transform="translate(-97.8 -434)"/></clipPath><clipPath id="ff"><path d="M99.9,525.6l1.309-1.405,2.041-2.214v2.195h22.66a2.317,2.317,0,0,0,2.31-2.31V511.491a2.317,2.317,0,0,0-2.31-2.31H109.2l2.849-3.08H125.91a5.374,5.374,0,0,1,5.371,5.372v10.4a5.374,5.374,0,0,1-5.371,5.372H103.269v2.33l-1.964-2.31Z" transform="translate(-99.9 -506.1)"/></clipPath></defs><g transform="translate(-48 -399.4)"><g transform="translate(112.669 405.753)"><path class="a" d="M406.137,478.521l-2.233,1.386a9.326,9.326,0,0,0-7.894-3.87,9.1,9.1,0,0,0-6.642,2.561,8.421,8.421,0,0,0-2.638,6.257,8.888,8.888,0,0,0,1.213,4.505,8.5,8.5,0,0,0,3.331,3.273,10.127,10.127,0,0,0,12.63-2.676l2.233,1.463a10.627,10.627,0,0,1-4.216,3.639,13.722,13.722,0,0,1-6.026,1.29,11.9,11.9,0,0,1-8.587-3.292,10.686,10.686,0,0,1-3.408-7.99,11.54,11.54,0,0,1,1.6-5.91,11.188,11.188,0,0,1,4.39-4.236,12.683,12.683,0,0,1,6.238-1.521,13.262,13.262,0,0,1,4.178.655,11.8,11.8,0,0,1,3.446,1.733A8.908,8.908,0,0,1,406.137,478.521Z" transform="translate(-383.9 -465.507)"/><path class="b" d="M525.1,435.2h2.83v30.3H525.1Z" transform="translate(-497.915 -434.661)"/><path class="c" d="M565.41,432.4a2.253,2.253,0,0,1,1.636.674,2.279,2.279,0,0,1,0,3.273,2.279,2.279,0,0,1-3.273,0,2.324,2.324,0,0,1,0-3.273A2.18,2.18,0,0,1,565.41,432.4ZM564,441.372h2.811v21.852H564Z" transform="translate(-528.599 -432.4)"/><path class="d" d="M614.953,476.365l-1.79,1.868a6.544,6.544,0,0,0-4.409-2.195,3.352,3.352,0,0,0-2.349.9,2.8,2.8,0,0,0-.982,2.137,3.024,3.024,0,0,0,.809,1.983,10.653,10.653,0,0,0,3.369,2.33,12.251,12.251,0,0,1,4.255,3.119,5.785,5.785,0,0,1,1.1,3.446,6.134,6.134,0,0,1-1.887,4.524,6.4,6.4,0,0,1-4.717,1.868,8.42,8.42,0,0,1-3.619-.809,7.438,7.438,0,0,1-2.83-2.253l1.771-2.022a6.17,6.17,0,0,0,4.563,2.426,4.184,4.184,0,0,0,2.869-1.078,3.383,3.383,0,0,0,1.194-2.541,3.293,3.293,0,0,0-.77-2.156A12.6,12.6,0,0,0,608,485.568a10.951,10.951,0,0,1-4.024-3,5.642,5.642,0,0,1-1.078-3.388,5.516,5.516,0,0,1,1.694-4.139,5.9,5.9,0,0,1,4.274-1.636C610.872,473.419,612.893,474.4,614.953,476.365Z" transform="translate(-559.929 -465.506)"/><path class="e" d="M683.2,476.4h2.965l7.508,16.827,7.3-16.827h3L690.92,506.222h-2.946l4.2-9.626Z" transform="translate(-625.577 -467.929)"/><path class="f" d="M809.579,490.219l-.039-2.33a14.849,14.849,0,0,1,.135-2.907,10.491,10.491,0,0,1,1.906-5.525,12.359,12.359,0,0,1,2.926-2.368,13.473,13.473,0,0,1,5.641-1,8.861,8.861,0,0,1,4.582,1.251,7.015,7.015,0,0,1,3,3.35,17.913,17.913,0,0,1,.9,6.584v11.243h-2.792V488.1a25.322,25.322,0,0,0-.327-5.063,4.628,4.628,0,0,0-1.964-3.08,8.554,8.554,0,0,0-4.37-.9,7.469,7.469,0,0,0-4.544,1.482,4.4,4.4,0,0,0-1.848,4.024,31.026,31.026,0,0,0-.385,5.949v8.009h-2.83Z" transform="translate(-727.582 -467.674)"/><path class="g" d="M939.7,435.2h2.83v17.25l10.108-8.8h4.139l-9.145,8.317,9.838,13.554h-3.985l-8.606-11.763-2.349,1.925V465.5H939.7Z" transform="translate(-832.694 -434.661)"/></g><g transform="translate(48 399.4)"><g transform="translate(0 0)"><path class="h" d="M87.949,450.4H58.57A10.575,10.575,0,0,1,48,439.83V409.97A10.575,10.575,0,0,1,58.57,399.4H87.93A10.575,10.575,0,0,1,98.5,409.97V439.83A10.583,10.583,0,0,1,87.949,450.4ZM58.57,400.632a9.359,9.359,0,0,0-9.337,9.337V439.83a9.359,9.359,0,0,0,9.337,9.338H87.93a9.359,9.359,0,0,0,9.337-9.338V409.97a9.359,9.359,0,0,0-9.337-9.337Z" transform="translate(-48 -399.4)"/></g><g transform="translate(9.588 6.661)"><g class="i" transform="translate(0)"><path class="j" d="M97.8,433.8v0Z" transform="translate(-97.8 -433.838)"/></g><g class="i" transform="translate(0)"><rect class="j" width="0.212" height="23.469" transform="translate(0 -0.039)"/></g><g class="i" transform="translate(0)"><rect class="k" width="0.212" height="23.469" transform="translate(0.212 -0.039)"/></g><g class="i" transform="translate(0)"><rect class="l" width="0.212" height="23.469" transform="translate(0.424 -0.039)"/></g><g class="i" transform="translate(0)"><rect class="m" width="0.212" height="23.469" transform="translate(0.616 -0.039)"/></g><g class="i" transform="translate(0)"><rect class="n" width="0.212" height="23.469" transform="translate(0.828 -0.039)"/></g><g class="i" transform="translate(0)"><rect class="o" width="0.212" height="23.469" transform="translate(1.04 -0.039)"/></g><g class="i" transform="translate(0)"><rect class="p" width="0.212" height="23.469" transform="translate(1.251 -0.039)"/></g><g class="i" transform="translate(0)"><rect class="q" width="0.212" height="23.469" transform="translate(1.463 -0.039)"/></g><g class="i" transform="translate(0)"><rect class="r" width="0.212" height="23.469" transform="translate(1.656 -0.039)"/></g><g class="i" transform="translate(0)"><rect class="s" width="0.212" height="23.469" transform="translate(1.867 -0.039)"/></g><g class="i" transform="translate(0)"><rect class="t" width="0.212" height="23.469" transform="translate(2.079 -0.039)"/></g><g class="i" transform="translate(0)"><rect class="u" width="0.212" height="23.469" transform="translate(2.291 -0.039)"/></g><g class="i" transform="translate(0)"><rect class="v" width="0.212" height="23.469" transform="translate(2.503 -0.039)"/></g><g class="i" transform="translate(0)"><rect class="w" width="0.212" height="23.469" transform="translate(2.715 -0.039)"/></g><g class="i" transform="translate(0)"><rect class="x" width="0.212" height="23.469" transform="translate(2.907 -0.039)"/></g><g class="i" transform="translate(0)"><rect class="y" width="0.212" height="23.469" transform="translate(3.119 -0.039)"/></g><g class="i" transform="translate(0)"><rect class="z" width="0.212" height="23.469" transform="translate(3.331 -0.039)"/></g><g class="i" transform="translate(0)"><rect class="aa" width="0.212" height="23.469" transform="translate(3.542 -0.039)"/></g><g class="i" transform="translate(0)"><rect class="ab" width="0.212" height="23.469" transform="translate(3.754 -0.039)"/></g><g class="i" transform="translate(0)"><rect class="ac" width="0.212" height="23.469" transform="translate(3.947 -0.039)"/></g><g class="i" transform="translate(0)"><rect class="ad" width="0.212" height="23.469" transform="translate(4.159 -0.039)"/></g><g class="i" transform="translate(0)"><rect class="ae" width="0.212" height="23.469" transform="translate(4.37 -0.039)"/></g><g class="i" transform="translate(0)"><rect class="af" width="0.212" height="23.469" transform="translate(4.582 -0.039)"/></g><g class="i" transform="translate(0)"><rect class="ag" width="0.212" height="23.469" transform="translate(4.794 -0.039)"/></g><g class="i" transform="translate(0)"><rect class="ah" width="0.212" height="23.469" transform="translate(4.986 -0.039)"/></g><g class="i" transform="translate(0)"><rect class="ai" width="0.212" height="23.469" transform="translate(5.198 -0.039)"/></g><g class="i" transform="translate(0)"><rect class="aj" width="0.212" height="23.469" transform="translate(5.41 -0.039)"/></g><g class="i" transform="translate(0)"><rect class="ak" width="0.212" height="23.469" transform="translate(5.622 -0.039)"/></g><g class="i" transform="translate(0)"><rect class="al" width="0.212" height="23.469" transform="translate(5.834 -0.039)"/></g><g class="i" transform="translate(0)"><rect class="am" width="0.212" height="23.469" transform="translate(6.026 -0.039)"/></g><g class="i" transform="translate(0)"><rect class="an" width="0.212" height="23.469" transform="translate(6.238 -0.039)"/></g><g class="i" transform="translate(0)"><rect class="ao" width="0.212" height="23.469" transform="translate(6.45 -0.039)"/></g><g class="i" transform="translate(0)"><rect class="ap" width="0.212" height="23.469" transform="translate(6.661 -0.039)"/></g><g class="i" transform="translate(0)"><rect class="aq" width="0.212" height="23.469" transform="translate(6.873 -0.039)"/></g><g class="i" transform="translate(0)"><rect class="ar" width="0.212" height="23.469" transform="translate(7.085 -0.039)"/></g><g class="i" transform="translate(0)"><rect class="as" width="0.212" height="23.469" transform="translate(7.277 -0.039)"/></g><g class="i" transform="translate(0)"><rect class="at" width="0.212" height="23.469" transform="translate(7.489 -0.039)"/></g><g class="i" transform="translate(0)"><rect class="au" width="0.212" height="23.469" transform="translate(7.701 -0.039)"/></g><g class="i" transform="translate(0)"><rect class="av" width="0.212" height="23.469" transform="translate(7.913 -0.039)"/></g><g class="i" transform="translate(0)"><rect class="aw" width="0.212" height="23.469" transform="translate(8.125 -0.039)"/></g><g class="i" transform="translate(0)"><rect class="ax" width="0.212" height="23.469" transform="translate(8.317 -0.039)"/></g><g class="i" transform="translate(0)"><rect class="ay" width="0.212" height="23.469" transform="translate(8.529 -0.039)"/></g><g class="i" transform="translate(0)"><rect class="az" width="0.212" height="23.469" transform="translate(8.741 -0.039)"/></g><g class="i" transform="translate(0)"><rect class="ba" width="0.212" height="23.469" transform="translate(8.952 -0.039)"/></g><g class="i" transform="translate(0)"><rect class="bb" width="0.212" height="23.469" transform="translate(9.164 -0.039)"/></g><g class="i" transform="translate(0)"><rect class="bc" width="0.212" height="23.469" transform="translate(9.357 -0.039)"/></g><g class="i" transform="translate(0)"><rect class="bd" width="0.212" height="23.469" transform="translate(9.569 -0.039)"/></g><g class="i" transform="translate(0)"><rect class="be" width="0.212" height="23.469" transform="translate(9.78 -0.039)"/></g><g class="i" transform="translate(0)"><rect class="bf" width="0.212" height="23.469" transform="translate(9.992 -0.039)"/></g><g class="i" transform="translate(0)"><rect class="bg" width="0.212" height="23.469" transform="translate(10.204 -0.039)"/></g><g class="i" transform="translate(0)"><rect class="bh" width="0.212" height="23.469" transform="translate(10.416 -0.039)"/></g><g class="i" transform="translate(0)"><rect class="bi" width="0.212" height="23.469" transform="translate(10.608 -0.039)"/></g><g class="i" transform="translate(0)"><rect class="bj" width="0.212" height="23.469" transform="translate(10.82 -0.039)"/></g><g class="i" transform="translate(0)"><rect class="bk" width="0.212" height="23.469" transform="translate(11.032 -0.039)"/></g><g class="i" transform="translate(0)"><rect class="bl" width="0.212" height="23.469" transform="translate(11.243 -0.039)"/></g><g class="i" transform="translate(0)"><rect class="bm" width="0.212" height="23.469" transform="translate(11.455 -0.039)"/></g><g class="i" transform="translate(0)"><rect class="bn" width="0.212" height="23.469" transform="translate(11.648 -0.039)"/></g><g class="i" transform="translate(0)"><rect class="bo" width="0.212" height="23.469" transform="translate(11.86 -0.039)"/></g><g class="i" transform="translate(0)"><rect class="bp" width="0.212" height="23.469" transform="translate(12.071 -0.039)"/></g><g class="i" transform="translate(0)"><rect class="bq" width="0.212" height="23.469" transform="translate(12.283 -0.039)"/></g><g class="i" transform="translate(0)"><rect class="br" width="0.212" height="23.469" transform="translate(12.495 -0.039)"/></g><g class="i" transform="translate(0)"><rect class="bs" width="0.212" height="23.469" transform="translate(12.687 -0.039)"/></g><g class="i" transform="translate(0)"><rect class="bt" width="0.212" height="23.469" transform="translate(12.899 -0.039)"/></g><g class="i" transform="translate(0)"><rect class="bu" width="0.212" height="23.469" transform="translate(13.111 -0.039)"/></g><g class="i" transform="translate(0)"><rect class="bv" width="0.212" height="23.469" transform="translate(13.323 -0.039)"/></g><g class="i" transform="translate(0)"><rect class="bw" width="0.212" height="23.469" transform="translate(13.535 -0.039)"/></g><g class="i" transform="translate(0)"><rect class="bx" width="0.212" height="23.469" transform="translate(13.727 -0.039)"/></g><g class="i" transform="translate(0)"><rect class="by" width="0.212" height="23.469" transform="translate(13.939 -0.039)"/></g><g class="i" transform="translate(0)"><rect class="bz" width="0.212" height="23.469" transform="translate(14.151 -0.039)"/></g><g class="i" transform="translate(0)"><rect class="ca" width="0.212" height="23.469" transform="translate(14.362 -0.039)"/></g><g class="i" transform="translate(0)"><rect class="cb" width="0.212" height="23.469" transform="translate(14.574 -0.039)"/></g><g class="i" transform="translate(0)"><rect class="cc" width="0.212" height="23.469" transform="translate(14.786 -0.039)"/></g><g class="i" transform="translate(0)"><rect class="cd" width="0.212" height="23.469" transform="translate(14.978 -0.039)"/></g><g class="i" transform="translate(0)"><rect class="ce" width="0.212" height="23.469" transform="translate(15.19 -0.039)"/></g><g class="i" transform="translate(0)"><rect class="cf" width="0.212" height="23.469" transform="translate(15.402 -0.039)"/></g><g class="i" transform="translate(0)"><rect class="cg" width="0.212" height="23.469" transform="translate(15.614 -0.039)"/></g><g class="i" transform="translate(0)"><rect class="ch" width="0.212" height="23.469" transform="translate(15.826 -0.039)"/></g><g class="i" transform="translate(0)"><rect class="ch" width="0.212" height="23.469" transform="translate(16.018 -0.039)"/></g><g class="i" transform="translate(0)"><rect class="ci" width="0.212" height="23.469" transform="translate(16.23 -0.039)"/></g><g class="i" transform="translate(0)"><rect class="cj" width="0.212" height="23.469" transform="translate(16.442 -0.039)"/></g><g class="i" transform="translate(0)"><rect class="ck" width="0.212" height="23.469" transform="translate(16.653 -0.039)"/></g><g class="i" transform="translate(0)"><rect class="cl" width="0.212" height="23.469" transform="translate(16.846 -0.039)"/></g><g class="i" transform="translate(0)"><rect class="cm" width="0.212" height="23.469" transform="translate(17.058 -0.039)"/></g><g class="i" transform="translate(0)"><rect class="cn" width="0.212" height="23.469" transform="translate(17.27 -0.039)"/></g><g class="i" transform="translate(0)"><rect class="co" width="0.212" height="23.469" transform="translate(17.481 -0.039)"/></g><g class="i" transform="translate(0)"><rect class="cp" width="0.212" height="23.469" transform="translate(17.693 -0.039)"/></g><g class="i" transform="translate(0)"><rect class="cq" width="0.212" height="23.469" transform="translate(17.886 -0.039)"/></g><g class="i" transform="translate(0)"><rect class="cr" width="0.212" height="23.469" transform="translate(18.097 -0.039)"/></g><g class="i" transform="translate(0)"><rect class="cs" width="0.212" height="23.469" transform="translate(18.309 -0.039)"/></g><g class="i" transform="translate(0)"><rect class="ct" width="0.212" height="23.469" transform="translate(18.521 -0.039)"/></g><g class="i" transform="translate(0)"><rect class="cu" width="0.212" height="23.469" transform="translate(18.713 -0.039)"/></g><g class="i" transform="translate(0)"><rect class="cv" width="0.212" height="23.469" transform="translate(18.925 -0.039)"/></g><g class="i" transform="translate(0)"><rect class="cw" width="0.212" height="23.469" transform="translate(19.137 -0.039)"/></g><g class="i" transform="translate(0)"><rect class="cx" width="0.212" height="23.469" transform="translate(19.349 -0.039)"/></g><g class="i" transform="translate(0)"><rect class="cy" width="0.212" height="23.469" transform="translate(19.561 -0.039)"/></g><g class="i" transform="translate(0)"><rect class="cz" width="0.212" height="23.469" transform="translate(19.753 -0.039)"/></g><g class="i" transform="translate(0)"><rect class="da" width="0.212" height="23.469" transform="translate(19.965 -0.039)"/></g><g class="i" transform="translate(0)"><rect class="db" width="0.212" height="23.469" transform="translate(20.177 -0.039)"/></g><g class="i" transform="translate(0)"><rect class="dc" width="0.212" height="23.469" transform="translate(20.388 -0.039)"/></g><g class="i" transform="translate(0)"><rect class="dd" width="0.212" height="23.469" transform="translate(20.581 -0.039)"/></g><g class="i" transform="translate(0)"><rect class="de" width="0.212" height="23.469" transform="translate(20.793 -0.039)"/></g><g class="i" transform="translate(0)"><rect class="df" width="0.212" height="23.469" transform="translate(21.005 -0.039)"/></g><g class="i" transform="translate(0)"><rect class="dg" width="0.212" height="23.469" transform="translate(21.216 -0.039)"/></g><g class="i" transform="translate(0)"><rect class="dh" width="0.212" height="23.469" transform="translate(21.428 -0.039)"/></g><g class="i" transform="translate(0)"><rect class="di" width="0.212" height="23.469" transform="translate(21.621 -0.039)"/></g><g class="i" transform="translate(0)"><rect class="dj" width="0.212" height="23.469" transform="translate(21.832 -0.039)"/></g><g class="i" transform="translate(0)"><rect class="dk" width="0.212" height="23.469" transform="translate(22.044 -0.039)"/></g><g class="i" transform="translate(0)"><rect class="dl" width="0.212" height="23.469" transform="translate(22.256 -0.039)"/></g><g class="i" transform="translate(0)"><rect class="dm" width="0.212" height="23.469" transform="translate(22.448 -0.039)"/></g><g class="i" transform="translate(0)"><rect class="dn" width="0.212" height="23.469" transform="translate(22.66 -0.039)"/></g><g class="i" transform="translate(0)"><rect class="do" width="0.212" height="23.469" transform="translate(22.872 -0.039)"/></g><g class="i" transform="translate(0)"><rect class="dp" width="0.212" height="23.469" transform="translate(23.084 -0.039)"/></g><g class="i" transform="translate(0)"><rect class="dq" width="0.212" height="23.469" transform="translate(23.276 -0.039)"/></g><g class="i" transform="translate(0)"><rect class="dr" width="0.212" height="23.469" transform="translate(23.488 -0.039)"/></g><g class="i" transform="translate(0)"><rect class="ds" width="0.212" height="23.469" transform="translate(23.7 -0.039)"/></g><g class="i" transform="translate(0)"><rect class="dt" width="0.212" height="23.469" transform="translate(23.912 -0.039)"/></g><g class="i" transform="translate(0)"><rect class="du" width="0.212" height="23.469" transform="translate(24.123 -0.039)"/></g><g class="i" transform="translate(0)"><rect class="dv" width="0.212" height="23.469" transform="translate(24.316 -0.039)"/></g><g class="i" transform="translate(0)"><rect class="dw" width="0.212" height="23.469" transform="translate(24.528 -0.039)"/></g><g class="i" transform="translate(0)"><rect class="dx" width="0.212" height="23.469" transform="translate(24.74 -0.039)"/></g><g class="i"><rect class="dy" width="0.212" height="23.469" transform="translate(24.951 -0.039)"/></g><g class="i"><rect class="dz" width="0.212" height="23.469" transform="translate(25.144 -0.039)"/></g><g class="i"><rect class="ea" width="0.212" height="23.469" transform="translate(25.356 -0.039)"/></g><g class="i"><rect class="eb" width="0.212" height="23.469" transform="translate(25.567 -0.039)"/></g><g class="i" transform="translate(0)"><rect class="ec" width="0.212" height="23.469" transform="translate(25.779 -0.039)"/></g><g class="i" transform="translate(0)"><rect class="ed" width="0.212" height="23.469" transform="translate(25.991 -0.039)"/></g><g class="i" transform="translate(0)"><rect class="ee" width="0.212" height="23.469" transform="translate(26.183 -0.039)"/></g><g class="i"><rect class="ef" width="0.212" height="23.469" transform="translate(26.395 -0.039)"/></g><g class="i"><rect class="eg" width="0.212" height="23.469" transform="translate(26.607 -0.039)"/></g><g class="i"><rect class="eh" width="0.212" height="23.469" transform="translate(26.819 -0.039)"/></g><g class="i"><rect class="ei" width="0.212" height="23.469" transform="translate(27.011 -0.039)"/></g><g class="i" transform="translate(0)"><rect class="ej" width="0.212" height="23.469" transform="translate(27.223 -0.039)"/></g><g class="i" transform="translate(0)"><rect class="ek" width="0.212" height="23.469" transform="translate(27.435 -0.039)"/></g><g class="i"><rect class="el" width="0.212" height="23.469" transform="translate(27.647 -0.039)"/></g><g class="i"><rect class="em" width="0.212" height="23.469" transform="translate(27.858 -0.039)"/></g><g class="i"><rect class="en" width="0.212" height="23.469" transform="translate(28.051 -0.039)"/></g><g class="i"><rect class="eo" width="0.212" height="23.469" transform="translate(28.263 -0.039)"/></g><g class="i" transform="translate(0)"><rect class="ep" width="0.212" height="23.469" transform="translate(28.475 -0.039)"/></g><g class="i" transform="translate(0)"><rect class="eq" width="0.212" height="23.469" transform="translate(28.686 -0.039)"/></g><g class="i" transform="translate(0)"><rect class="er" width="0.212" height="23.469" transform="translate(28.879 -0.039)"/></g><g class="i"><rect class="es" width="0.212" height="23.469" transform="translate(29.091 -0.039)"/></g><g class="i"><rect class="et" width="0.212" height="23.469" transform="translate(29.302 -0.039)"/></g><g class="i"><rect class="eu" width="0.212" height="23.469" transform="translate(29.514 -0.039)"/></g><g class="i" transform="translate(0)"><rect class="ev" width="0.212" height="23.469" transform="translate(29.726 -0.039)"/></g><g class="i" transform="translate(0)"><rect class="ew" width="0.212" height="23.469" transform="translate(29.918 -0.039)"/></g><g class="i" transform="translate(0)"><rect class="ex" width="0.212" height="23.469" transform="translate(30.13 -0.039)"/></g><g class="i"><rect class="ey" width="0.212" height="23.469" transform="translate(30.342 -0.039)"/></g><g class="i"><rect class="ez" width="0.212" height="23.469" transform="translate(30.554 -0.039)"/></g><g class="i"><rect class="fa" width="0.212" height="23.469" transform="translate(30.746 -0.039)"/></g><g class="i"><rect class="fb" width="0.212" height="23.469" transform="translate(30.958 -0.039)"/></g><g class="i"><rect class="fc" width="0.212" height="23.469" transform="translate(31.17 -0.039)"/></g><g class="i" transform="translate(0)"><path class="fc" d="M260.8,457.288v0Z" transform="translate(-229.418 -433.838)"/></g></g><g transform="translate(9.992 20.542)"><g class="fd" transform="translate(0)"><path class="j" d="M99.9,506.2v0Z" transform="translate(-99.9 -506.181)"/></g><g class="fd" transform="translate(0)"><rect class="j" width="0.212" height="23.469" transform="translate(0 0.019)"/></g><g class="fd" transform="translate(0)"><rect class="k" width="0.212" height="23.469" transform="translate(0.212 0.019)"/></g><g class="fd" transform="translate(0)"><rect class="l" width="0.212" height="23.469" transform="translate(0.424 0.019)"/></g><g class="fd" transform="translate(0)"><rect class="m" width="0.212" height="23.469" transform="translate(0.635 0.019)"/></g><g class="fd" transform="translate(0)"><rect class="n" width="0.212" height="23.469" transform="translate(0.847 0.019)"/></g><g class="fd" transform="translate(0)"><rect class="o" width="0.212" height="23.469" transform="translate(1.04 0.019)"/></g><g class="fd" transform="translate(0)"><rect class="p" width="0.212" height="23.469" transform="translate(1.251 0.019)"/></g><g class="fd" transform="translate(0)"><rect class="q" width="0.212" height="23.469" transform="translate(1.463 0.019)"/></g><g class="fd" transform="translate(0)"><rect class="r" width="0.212" height="23.469" transform="translate(1.675 0.019)"/></g><g class="fd" transform="translate(0)"><rect class="s" width="0.212" height="23.469" transform="translate(1.887 0.019)"/></g><g class="fd" transform="translate(0)"><rect class="t" width="0.212" height="23.469" transform="translate(2.079 0.019)"/></g><g class="fd" transform="translate(0)"><rect class="u" width="0.212" height="23.469" transform="translate(2.291 0.019)"/></g><g class="fd" transform="translate(0)"><rect class="v" width="0.212" height="23.469" transform="translate(2.503 0.019)"/></g><g class="fd" transform="translate(0)"><rect class="w" width="0.212" height="23.469" transform="translate(2.715 0.019)"/></g><g class="fd" transform="translate(0)"><rect class="x" width="0.212" height="23.469" transform="translate(2.926 0.019)"/></g><g class="fd" transform="translate(0)"><rect class="y" width="0.212" height="23.469" transform="translate(3.119 0.019)"/></g><g class="fd" transform="translate(0)"><rect class="z" width="0.212" height="23.469" transform="translate(3.331 0.019)"/></g><g class="fd" transform="translate(0)"><rect class="aa" width="0.212" height="23.469" transform="translate(3.542 0.019)"/></g><g class="fd" transform="translate(0)"><rect class="ab" width="0.212" height="23.469" transform="translate(3.754 0.019)"/></g><g class="fd" transform="translate(0)"><rect class="ac" width="0.212" height="23.469" transform="translate(3.966 0.019)"/></g><g class="fd" transform="translate(0)"><rect class="ad" width="0.212" height="23.469" transform="translate(4.159 0.019)"/></g><g class="fd" transform="translate(0)"><rect class="ae" width="0.212" height="23.469" transform="translate(4.37 0.019)"/></g><g class="fd" transform="translate(0)"><rect class="af" width="0.212" height="23.469" transform="translate(4.582 0.019)"/></g><g class="fd" transform="translate(0)"><rect class="ag" width="0.212" height="23.469" transform="translate(4.794 0.019)"/></g><g class="fd" transform="translate(0)"><rect class="ah" width="0.212" height="23.469" transform="translate(5.006 0.019)"/></g><g class="fd" transform="translate(0)"><rect class="ai" width="0.212" height="23.469" transform="translate(5.217 0.019)"/></g><g class="fd" transform="translate(0)"><rect class="aj" width="0.212" height="23.469" transform="translate(5.41 0.019)"/></g><g class="fd" transform="translate(0)"><rect class="ak" width="0.212" height="23.469" transform="translate(5.622 0.019)"/></g><g class="fd" transform="translate(0)"><rect class="al" width="0.212" height="23.469" transform="translate(5.834 0.019)"/></g><g class="fd" transform="translate(0)"><rect class="am" width="0.212" height="23.469" transform="translate(6.045 0.019)"/></g><g class="fd" transform="translate(0)"><rect class="an" width="0.212" height="23.469" transform="translate(6.257 0.019)"/></g><g class="fd" transform="translate(0)"><rect class="ao" width="0.212" height="23.469" transform="translate(6.45 0.019)"/></g><g class="fd" transform="translate(0)"><rect class="ap" width="0.212" height="23.469" transform="translate(6.661 0.019)"/></g><g class="fd" transform="translate(0)"><rect class="aq" width="0.212" height="23.469" transform="translate(6.873 0.019)"/></g><g class="fd" transform="translate(0)"><rect class="ar" width="0.212" height="23.469" transform="translate(7.085 0.019)"/></g><g class="fd" transform="translate(0)"><rect class="as" width="0.212" height="23.469" transform="translate(7.297 0.019)"/></g><g class="fd" transform="translate(0)"><rect class="at" width="0.212" height="23.469" transform="translate(7.489 0.019)"/></g><g class="fd" transform="translate(0)"><rect class="au" width="0.212" height="23.469" transform="translate(7.701 0.019)"/></g><g class="fd" transform="translate(0)"><rect class="av" width="0.212" height="23.469" transform="translate(7.913 0.019)"/></g><g class="fd" transform="translate(0)"><rect class="aw" width="0.212" height="23.469" transform="translate(8.125 0.019)"/></g><g class="fd" transform="translate(0)"><rect class="ax" width="0.212" height="23.469" transform="translate(8.336 0.019)"/></g><g class="fd" transform="translate(0)"><rect class="ay" width="0.212" height="23.469" transform="translate(8.529 0.019)"/></g><g class="fd" transform="translate(0)"><rect class="az" width="0.212" height="23.469" transform="translate(8.741 0.019)"/></g><g class="fd" transform="translate(0)"><rect class="ba" width="0.212" height="23.469" transform="translate(8.952 0.019)"/></g><g class="fd" transform="translate(0)"><rect class="bb" width="0.212" height="23.469" transform="translate(9.164 0.019)"/></g><g class="fd" transform="translate(0)"><rect class="bc" width="0.212" height="23.469" transform="translate(9.376 0.019)"/></g><g class="fd" transform="translate(0)"><rect class="bd" width="0.212" height="23.469" transform="translate(9.588 0.019)"/></g><g class="fd" transform="translate(0)"><rect class="be" width="0.212" height="23.469" transform="translate(9.78 0.019)"/></g><g class="fd" transform="translate(0)"><rect class="bf" width="0.212" height="23.469" transform="translate(9.992 0.019)"/></g><g class="fd" transform="translate(0)"><rect class="bg" width="0.212" height="23.469" transform="translate(10.204 0.019)"/></g><g class="fd" transform="translate(0)"><rect class="bh" width="0.212" height="23.469" transform="translate(10.416 0.019)"/></g><g class="fd" transform="translate(0)"><rect class="bi" width="0.212" height="23.469" transform="translate(10.627 0.019)"/></g><g class="fd" transform="translate(0)"><rect class="bj" width="0.212" height="23.469" transform="translate(10.82 0.019)"/></g><g class="fd" transform="translate(0)"><rect class="bk" width="0.212" height="23.469" transform="translate(11.032 0.019)"/></g><g class="fd" transform="translate(0)"><rect class="bl" width="0.212" height="23.469" transform="translate(11.243 0.019)"/></g><g class="fd" transform="translate(0)"><rect class="bm" width="0.212" height="23.469" transform="translate(11.455 0.019)"/></g><g class="fd" transform="translate(0)"><rect class="bn" width="0.212" height="23.469" transform="translate(11.667 0.019)"/></g><g class="fd" transform="translate(0)"><rect class="bo" width="0.212" height="23.469" transform="translate(11.86 0.019)"/></g><g class="fd" transform="translate(0)"><rect class="bp" width="0.212" height="23.469" transform="translate(12.071 0.019)"/></g><g class="fd" transform="translate(0)"><rect class="bq" width="0.212" height="23.469" transform="translate(12.283 0.019)"/></g><g class="fd" transform="translate(0)"><rect class="br" width="0.212" height="23.469" transform="translate(12.495 0.019)"/></g><g class="fd" transform="translate(0)"><rect class="bs" width="0.212" height="23.469" transform="translate(12.707 0.019)"/></g><g class="fd" transform="translate(0)"><rect class="bt" width="0.212" height="23.469" transform="translate(12.918 0.019)"/></g><g class="fd" transform="translate(0)"><rect class="bu" width="0.212" height="23.469" transform="translate(13.111 0.019)"/></g><g class="fd" transform="translate(0)"><rect class="bv" width="0.212" height="23.469" transform="translate(13.323 0.019)"/></g><g class="fd" transform="translate(0)"><rect class="bw" width="0.212" height="23.469" transform="translate(13.535 0.019)"/></g><g class="fd" transform="translate(0)"><rect class="bx" width="0.212" height="23.469" transform="translate(13.746 0.019)"/></g><g class="fd" transform="translate(0)"><rect class="by" width="0.212" height="23.469" transform="translate(13.958 0.019)"/></g><g class="fd" transform="translate(0)"><rect class="bz" width="0.212" height="23.469" transform="translate(14.151 0.019)"/></g><g class="fd" transform="translate(0)"><rect class="ca" width="0.212" height="23.469" transform="translate(14.362 0.019)"/></g><g class="fd" transform="translate(0)"><rect class="cb" width="0.212" height="23.469" transform="translate(14.574 0.019)"/></g><g class="fd" transform="translate(0)"><rect class="cc" width="0.212" height="23.469" transform="translate(14.786 0.019)"/></g><g class="fd" transform="translate(0)"><rect class="cd" width="0.212" height="23.469" transform="translate(14.998 0.019)"/></g><g class="fd" transform="translate(0)"><rect class="ce" width="0.212" height="23.469" transform="translate(15.19 0.019)"/></g><g class="fd" transform="translate(0)"><rect class="cf" width="0.212" height="23.469" transform="translate(15.402 0.019)"/></g><g class="fd" transform="translate(0)"><rect class="cg" width="0.212" height="23.469" transform="translate(15.614 0.019)"/></g><g class="fd" transform="translate(0)"><rect class="ch" width="0.212" height="23.469" transform="translate(15.826 0.019)"/></g><g class="fd" transform="translate(0)"><rect class="ch" width="0.212" height="23.469" transform="translate(16.037 0.019)"/></g><g class="fd" transform="translate(0)"><rect class="ci" width="0.212" height="23.469" transform="translate(16.23 0.019)"/></g><g class="fd" transform="translate(0)"><rect class="cj" width="0.212" height="23.469" transform="translate(16.442 0.019)"/></g><g class="fd" transform="translate(0)"><rect class="ck" width="0.212" height="23.469" transform="translate(16.653 0.019)"/></g><g class="fd" transform="translate(0)"><rect class="cl" width="0.212" height="23.469" transform="translate(16.865 0.019)"/></g><g class="fd" transform="translate(0)"><rect class="cm" width="0.212" height="23.469" transform="translate(17.077 0.019)"/></g><g class="fd" transform="translate(0)"><rect class="cn" width="0.212" height="23.469" transform="translate(17.27 0.019)"/></g><g class="fd" transform="translate(0)"><rect class="co" width="0.212" height="23.469" transform="translate(17.481 0.019)"/></g><g class="fd" transform="translate(0)"><rect class="cp" width="0.212" height="23.469" transform="translate(17.693 0.019)"/></g><g class="fd" transform="translate(0)"><rect class="cq" width="0.212" height="23.469" transform="translate(17.905 0.019)"/></g><g class="fd" transform="translate(0)"><rect class="cr" width="0.212" height="23.469" transform="translate(18.097 0.019)"/></g><g class="fd" transform="translate(0)"><rect class="cs" width="0.212" height="23.469" transform="translate(18.309 0.019)"/></g><g class="fd" transform="translate(0)"><rect class="ct" width="0.212" height="23.469" transform="translate(18.521 0.019)"/></g><g class="fd" transform="translate(0)"><rect class="cu" width="0.212" height="23.469" transform="translate(18.733 0.019)"/></g><g class="fd" transform="translate(0)"><rect class="cv" width="0.212" height="23.469" transform="translate(18.945 0.019)"/></g><g class="fd" transform="translate(0)"><rect class="cw" width="0.212" height="23.469" transform="translate(19.137 0.019)"/></g><g class="fd" transform="translate(0)"><rect class="cx" width="0.212" height="23.469" transform="translate(19.349 0.019)"/></g><g class="fd" transform="translate(0)"><rect class="cy" width="0.212" height="23.469" transform="translate(19.561 0.019)"/></g><g class="fd" transform="translate(0)"><rect class="cz" width="0.212" height="23.469" transform="translate(19.772 0.019)"/></g><g class="fd" transform="translate(0)"><rect class="da" width="0.212" height="23.469" transform="translate(19.965 0.019)"/></g><g class="fd" transform="translate(0)"><rect class="db" width="0.212" height="23.469" transform="translate(20.177 0.019)"/></g><g class="fd" transform="translate(0)"><rect class="dc" width="0.212" height="23.469" transform="translate(20.388 0.019)"/></g><g class="fd" transform="translate(0)"><rect class="dd" width="0.212" height="23.469" transform="translate(20.6 0.019)"/></g><g class="fd" transform="translate(0)"><rect class="de" width="0.212" height="23.469" transform="translate(20.793 0.019)"/></g><g class="fd" transform="translate(0)"><rect class="df" width="0.212" height="23.469" transform="translate(21.005 0.019)"/></g><g class="fd" transform="translate(0)"><rect class="dg" width="0.212" height="23.469" transform="translate(21.216 0.019)"/></g><g class="fd" transform="translate(0)"><rect class="dh" width="0.212" height="23.469" transform="translate(21.428 0.019)"/></g><g class="fd" transform="translate(0)"><rect class="di" width="0.212" height="23.469" transform="translate(21.64 0.019)"/></g><g class="fd" transform="translate(0)"><rect class="dj" width="0.212" height="23.469" transform="translate(21.832 0.019)"/></g><g class="fd" transform="translate(0)"><rect class="dk" width="0.212" height="23.469" transform="translate(22.044 0.019)"/></g><g class="fd" transform="translate(0)"><rect class="dl" width="0.212" height="23.469" transform="translate(22.256 0.019)"/></g><g class="fd" transform="translate(0)"><rect class="dm" width="0.212" height="23.469" transform="translate(22.468 0.019)"/></g><g class="fd" transform="translate(0)"><rect class="dn" width="0.212" height="23.469" transform="translate(22.66 0.019)"/></g><g class="fd" transform="translate(0)"><rect class="do" width="0.212" height="23.469" transform="translate(22.872 0.019)"/></g><g class="fd" transform="translate(0)"><rect class="dp" width="0.212" height="23.469" transform="translate(23.084 0.019)"/></g><g class="fd" transform="translate(0)"><rect class="dq" width="0.212" height="23.469" transform="translate(23.296 0.019)"/></g><g class="fd" transform="translate(0)"><rect class="dr" width="0.212" height="23.469" transform="translate(23.507 0.019)"/></g><g class="fd" transform="translate(0)"><rect class="ds" width="0.212" height="23.469" transform="translate(23.7 0.019)"/></g><g class="fd" transform="translate(0)"><rect class="dt" width="0.212" height="23.469" transform="translate(23.912 0.019)"/></g><g class="fd" transform="translate(0)"><rect class="du" width="0.212" height="23.469" transform="translate(24.123 0.019)"/></g><g class="fd" transform="translate(0)"><rect class="dv" width="0.212" height="23.469" transform="translate(24.335 0.019)"/></g><g class="fd" transform="translate(0)"><rect class="dw" width="0.212" height="23.469" transform="translate(24.528 0.019)"/></g><g class="fd"><rect class="dx" width="0.212" height="23.469" transform="translate(24.74 0.019)"/></g><g class="fd"><rect class="dy" width="0.212" height="23.469" transform="translate(24.951 0.019)"/></g><g class="fd"><rect class="dz" width="0.212" height="23.469" transform="translate(25.163 0.019)"/></g><g class="fd" transform="translate(0)"><rect class="ea" width="0.212" height="23.469" transform="translate(25.375 0.019)"/></g><g class="fd" transform="translate(0)"><rect class="eb" width="0.212" height="23.469" transform="translate(25.567 0.019)"/></g><g class="fd" transform="translate(0)"><rect class="ec" width="0.212" height="23.469" transform="translate(25.779 0.019)"/></g><g class="fd"><rect class="ed" width="0.212" height="23.469" transform="translate(25.991 0.019)"/></g><g class="fd"><rect class="ee" width="0.212" height="23.469" transform="translate(26.203 0.019)"/></g><g class="fd"><rect class="ef" width="0.212" height="23.469" transform="translate(26.395 0.019)"/></g><g class="fd"><rect class="eg" width="0.212" height="23.469" transform="translate(26.607 0.019)"/></g><g class="fd" transform="translate(0)"><rect class="eh" width="0.212" height="23.469" transform="translate(26.819 0.019)"/></g><g class="fd" transform="translate(0)"><rect class="ei" width="0.212" height="23.469" transform="translate(27.031 0.019)"/></g><g class="fd" transform="translate(0)"><rect class="ej" width="0.212" height="23.469" transform="translate(27.223 0.019)"/></g><g class="fd"><rect class="ek" width="0.212" height="23.469" transform="translate(27.435 0.019)"/></g><g class="fd"><rect class="el" width="0.212" height="23.469" transform="translate(27.647 0.019)"/></g><g class="fd"><rect class="em" width="0.212" height="23.469" transform="translate(27.858 0.019)"/></g><g class="fd" transform="translate(0)"><rect class="en" width="0.212" height="23.469" transform="translate(28.07 0.019)"/></g><g class="fd" transform="translate(0)"><rect class="eo" width="0.212" height="23.469" transform="translate(28.263 0.019)"/></g><g class="fd" transform="translate(0)"><rect class="ep" width="0.212" height="23.469" transform="translate(28.475 0.019)"/></g><g class="fd"><rect class="eq" width="0.212" height="23.469" transform="translate(28.686 0.019)"/></g><g class="fd"><rect class="er" width="0.212" height="23.469" transform="translate(28.898 0.019)"/></g><g class="fd"><rect class="es" width="0.212" height="23.469" transform="translate(29.091 0.019)"/></g><g class="fd"><rect class="et" width="0.212" height="23.469" transform="translate(29.302 0.019)"/></g><g class="fd" transform="translate(0)"><rect class="eu" width="0.212" height="23.469" transform="translate(29.514 0.019)"/></g><g class="fd" transform="translate(0)"><rect class="ev" width="0.212" height="23.469" transform="translate(29.726 0.019)"/></g><g class="fd"><rect class="ew" width="0.212" height="23.469" transform="translate(29.938 0.019)"/></g><g class="fd"><rect class="ex" width="0.212" height="23.469" transform="translate(30.13 0.019)"/></g><g class="fd"><rect class="ey" width="0.212" height="23.469" transform="translate(30.342 0.019)"/></g><g class="fd"><rect class="ez" width="0.212" height="23.469" transform="translate(30.554 0.019)"/></g><g class="fd"><rect class="fa" width="0.212" height="23.469" transform="translate(30.766 0.019)"/></g><g class="fd"><rect class="fb" width="0.212" height="23.469" transform="translate(30.958 0.019)"/></g><g class="fd"><rect class="fc" width="0.212" height="23.469" transform="translate(31.17 0.019)"/></g><g class="fd"><rect class="fc" height="23.469" transform="translate(31.382 0.019)"/></g></g></g></g></svg>