<svg xmlns="http://www.w3.org/2000/svg" width="293.386" height="194.303" viewBox="0 0 293.386 194.303"><defs><style>.a{fill:#f2f2f2;}.b{fill:#fff;}.c{fill:#7498ee;}.d{fill:#3f3d56;}.e{fill:#a0616a;}.f{fill:#2f2e41;}.g{fill:none;}</style></defs><g transform="translate(0)"><path class="a" d="M895.6,499.28a23.884,23.884,0,0,1-7.6,5.375h0c-.268.127-.537.251-.808.368h0l0,0,0,0h0a0,0,0,0,1,0,0h-.006l0,0s0,0-.007,0l0,0,0,0h0s0,0-.007,0h0a48.056,48.056,0,0,1-5.867,2.1,81.385,81.385,0,0,1-36.147,1.888l-.688-.124V480.992c.227-.1.457-.193.688-.285q2.254-.934,4.564-1.716,3.322-1.135,6.737-1.946a72.965,72.965,0,0,1,22.711-1.836q2.079.155,4.148.447a31.276,31.276,0,0,1,8.573,2.321h0c.389.182.77.371,1.149.574a12.893,12.893,0,0,1,5.578,5.465,10.513,10.513,0,0,1,.935,2.748v.007c.069.33.117.664.155.994A15.281,15.281,0,0,1,895.6,499.28Z" transform="translate(-613.685 -369.249)"/><path class="b" d="M899.681,510.21a.469.469,0,0,1-.1.014q-8.836.387-17.649,1.149h-.01c-.024,0-.045,0-.069.007q-9.048.784-18.058,1.964c-.254.034-.506.069-.757.1q-6.231.831-12.439,1.843-2.739.449-5.468.935c-.23.041-.457.079-.688.124V515.3c.23-.045.461-.083.688-.124q9.089-1.609,18.24-2.81,2.3-.31,4.608-.585,6.665-.8,13.35-1.389l.977-.083q8.558-.727,17.14-1.1a.327.327,0,0,1,.083.007C900.077,509.264,900.194,510.09,899.681,510.21Z" transform="translate(-613.685 -391.696)"/><path class="b" d="M922.733,534.049a28.16,28.16,0,0,1-19.76-8.209A26.766,26.766,0,0,1,899.128,521c-.35-.561-1.168.058-.822.614a29.184,29.184,0,0,0,18.15,12.765,27.793,27.793,0,0,0,6.409.686C923.523,535.061,923.387,534.044,922.733,534.049Z" transform="translate(-648.971 -399.288)"/><path class="b" d="M856.43,480.95a.582.582,0,0,1-.43.389,22.43,22.43,0,0,0-4.842,1.891,23.525,23.525,0,0,0-6.029,4.557c-.093.093-.182.186-.268.282-.145.151-.282.306-.42.464v-1.5c.22-.234.451-.464.688-.684a24.733,24.733,0,0,1,4.564-3.453Q853.014,481.762,856.43,480.95Z" transform="translate(-613.685 -373.155)"/><path class="b" d="M962.752,482.787a23.868,23.868,0,0,0-11.15,9.831.516.516,0,0,0,.273.672.525.525,0,0,0,.672-.273,22.714,22.714,0,0,1,10.591-9.28.513.513,0,0,0-.385-.95Z" transform="translate(-683.968 -374.331)"/><path class="a" d="M906.541,365.206a23.839,23.839,0,0,1-4.23,8.288l0,0c-.176.234-.358.471-.547.7v0a47.9,47.9,0,0,1-4.268,4.6,80.28,80.28,0,0,1-18.354,13.113,76.873,76.873,0,0,1-34.012,8.952c-.089,0-.179,0-.268,0-.141,0-.282,0-.42,0v-15.63c.224-.426.454-.853.688-1.276a75.5,75.5,0,0,1,11.015-15.07c.1-.113.21-.227.316-.337q2.414-2.548,5.062-4.852a72.5,72.5,0,0,1,23.141-13.7,31.14,31.14,0,0,1,8.67-1.926c.43-.024.856-.034,1.286-.031a12.912,12.912,0,0,1,7.48,2.249,10.66,10.66,0,0,1,2.1,2c.213.265.409.536.6.815v0A15.266,15.266,0,0,1,906.541,365.206Z" transform="translate(-613.685 -285.958)"/><path class="b" d="M904.8,361.142v0a.5.5,0,0,1-.082.058q-7.635,4.441-15.077,9.206l-.017.01a.594.594,0,0,1-.062.038q-7.65,4.9-15.083,10.131l-.626.44q-5.133,3.626-10.159,7.408-9.492,7.15-18.567,14.829c-.23.193-.457.389-.688.585v-1.338c.227-.2.457-.392.688-.585q3.477-2.935,7.016-5.788c.705-.567,1.413-1.135,2.122-1.7q9.44-7.516,19.3-14.471h0q1.94-1.367,3.886-2.71,5.53-3.807,11.184-7.432c.272-.175.547-.351.822-.526q7.238-4.622,14.664-8.941a.516.516,0,0,1,.076-.038C904.719,360.121,905.2,360.8,904.8,361.142Z" transform="translate(-613.685 -293.989)"/><path class="b" d="M957.618,419.873a28.16,28.16,0,0,1-21.312,1.91,26.761,26.761,0,0,1-5.654-2.5c-.571-.334-1.008.594-.442.925a29.183,29.183,0,0,0,22,2.873,27.787,27.787,0,0,0,5.994-2.37c.581-.31-.013-1.147-.589-.839Z" transform="translate(-669.786 -332.649)"/><path class="b" d="M868.867,415.645a23.573,23.573,0,0,1-.328-5.457,24.872,24.872,0,0,1,3.707-11.744q2.417-2.547,5.063-4.853a.586.586,0,0,1-.2.545,22.509,22.509,0,0,0-3.409,3.923,23.771,23.771,0,0,0-3.811,17.5.417.417,0,0,1-.108.393.559.559,0,0,1-.914-.308Z" transform="translate(-629.472 -315.838)"/><path class="b" d="M977.684,346.259a23.868,23.868,0,0,0-5.307,13.885.516.516,0,0,0,.553.468.525.525,0,0,0,.468-.553,22.713,22.713,0,0,1,5.068-13.137C978.884,346.41,978.1,345.747,977.684,346.259Z" transform="translate(-697.624 -284.663)"/><path class="a" d="M858.132,342.372v0c-.024.3-.052.588-.083.88v.007a48.59,48.59,0,0,1-1.118,6.176c-.241,1-.5,1.988-.787,2.978-.034.127-.072.254-.11.378v0a78.9,78.9,0,0,1-3.006,8.477,82.16,82.16,0,0,1-7.9,14.519c-.223.334-.454.667-.688,1V322.938c.23-.014.457-.014.688-.007q.165,0,.33.01a10.429,10.429,0,0,1,2.848.554c.323.107.636.227.946.361a15.265,15.265,0,0,1,7.978,9.254A23.894,23.894,0,0,1,858.132,342.372Z" transform="translate(-613.685 -269.476)"/><path class="b" d="M849.253,324.52a.375.375,0,0,1-.038.1q-2.089,4.06-4.086,8.161c-.23.471-.461.946-.688,1.417v-2.339q.34-.7.688-1.4,1.542-3.126,3.136-6.225a.455.455,0,0,1,.041-.069C848.623,323.705,849.407,324.015,849.253,324.52Z" transform="translate(-613.686 -270.14)"/><path class="b" d="M858.242,379.8c-.062.11-.124.22-.193.33a27.451,27.451,0,0,1-3.583,4.9,29.547,29.547,0,0,1-9.337,6.8c-.227.11-.457.213-.688.31v-1.118c.23-.1.461-.21.688-.32a27.81,27.81,0,0,0,12.164-11.287.566.566,0,0,1,.839-.162.4.4,0,0,1,.11.55Z" transform="translate(-613.685 -306.35)"/><path class="c" d="M404.885,178.849v26.136H404.2v-.279H174.129v.279h-.688V178.849A11.36,11.36,0,0,1,184.79,167.5H393.536A11.36,11.36,0,0,1,404.885,178.849Z" transform="translate(-173.441 -167.5)"/><path class="d" d="M393.536,167.5H184.79a11.36,11.36,0,0,0-11.349,11.349V328.1a11.36,11.36,0,0,0,11.349,11.349H393.536A11.36,11.36,0,0,0,404.885,328.1V178.849A11.36,11.36,0,0,0,393.536,167.5ZM404.2,328.1a10.674,10.674,0,0,1-10.661,10.661H184.79A10.674,10.674,0,0,1,174.129,328.1V178.849a10.675,10.675,0,0,1,10.661-10.661H393.536A10.674,10.674,0,0,1,404.2,178.849Z" transform="translate(-173.441 -167.5)"/><circle class="b" cx="6.878" cy="6.878" r="6.878" transform="translate(39.892 11.865)"/><circle class="b" cx="6.878" cy="6.878" r="6.878" transform="translate(177.795 11.865)"/><path class="c" d="M276.692,383.161H235.777a6.545,6.545,0,0,1-6.538-6.538V357.285a6.545,6.545,0,0,1,6.538-6.538h40.916a6.545,6.545,0,0,1,6.538,6.538v19.338a6.545,6.545,0,0,1-6.538,6.538Z" transform="translate(-210.05 -287.728)"/><path class="c" d="M479.09,383.161H438.175a6.545,6.545,0,0,1-6.538-6.538V357.285a6.545,6.545,0,0,1,6.538-6.538H479.09a6.545,6.545,0,0,1,6.538,6.538v19.338a6.545,6.545,0,0,1-6.538,6.538Z" transform="translate(-342.844 -287.728)"/><path class="a" d="M478.712,527.7H437.8a6.744,6.744,0,0,1-6.736-6.736V501.621a6.744,6.744,0,0,1,6.736-6.736h40.916a6.744,6.744,0,0,1,6.736,6.736V520.96A6.744,6.744,0,0,1,478.712,527.7Z" transform="translate(-342.466 -382.298)"/><path class="a" d="M275.924,527.7H235.008a6.744,6.744,0,0,1-6.736-6.736V501.621a6.744,6.744,0,0,1,6.736-6.736h40.916a6.744,6.744,0,0,1,6.736,6.736V520.96A6.744,6.744,0,0,1,275.924,527.7Z" transform="translate(-209.416 -382.298)"/><path class="a" d="M681.111,527.7H640.2a6.744,6.744,0,0,1-6.736-6.736V501.621a6.744,6.744,0,0,1,6.736-6.736h40.916a6.744,6.744,0,0,1,6.736,6.736V520.96A6.743,6.743,0,0,1,681.111,527.7Z" transform="translate(-475.26 -382.298)"/><path class="a" d="M681.111,382.517H640.2a6.744,6.744,0,0,1-6.736-6.736V356.443a6.744,6.744,0,0,1,6.736-6.736h40.916a6.744,6.744,0,0,1,6.736,6.736v19.338A6.744,6.744,0,0,1,681.111,382.517Z" transform="translate(-475.26 -287.046)"/><circle class="b" cx="11.095" cy="11.095" r="11.095" transform="translate(35 68)"/><circle class="b" cx="11.095" cy="11.095" r="11.095" transform="translate(104.892 67.971)"/><path class="e" d="M701.133,475.839a3.694,3.694,0,0,0-.751-5.615l-6.194-33.074-7.533,2.793,8.457,31.632a3.714,3.714,0,0,0,6.02,4.263Z" transform="translate(-510.162 -344.418)"/><path class="e" d="M539.077,396.164a3.923,3.923,0,0,1,.008.618l14.647,11.273,4.154-1.706,3.393,5.932-7.06,3.734a2.981,2.981,0,0,1-3.534-.56l-14.64-15.093a3.912,3.912,0,1,1,3.033-4.2Z" transform="translate(-408.215 -315.21)"/><path class="e" d="M468.158,528.384h-4.216l-2.006-12.823h6.223Z" transform="translate(-303.077 -338.26)"/><path class="f" d="M630.66,721.809H617.065v-.172a5.291,5.291,0,0,1,5.291-5.291h8.3Z" transform="translate(-464.504 -527.598)"/><path class="e" d="M514.158,528.384h-4.216l-2.006-12.823h6.223Z" transform="translate(-333.258 -338.26)"/><path class="f" d="M676.66,721.809H663.065v-.172a5.291,5.291,0,0,1,5.291-5.291h8.3Z" transform="translate(-494.685 -527.598)"/><path class="f" d="M628.719,612.041a1.544,1.544,0,0,1-1.539-1.4l-3.674-49.414.174-.014,25.284-2.078.007.18,2.01,51.19a1.547,1.547,0,0,1-1.547,1.605h-4.958a1.539,1.539,0,0,1-1.529-1.312l-6.732-41.352a.172.172,0,0,0-.342.025l-.305,40.829a1.549,1.549,0,0,1-1.466,1.535l-5.3.206Z" transform="translate(-468.73 -424.452)"/><circle class="e" cx="8.446" cy="8.446" r="8.446" transform="translate(155.858 57.432)"/><path class="d" d="M630.107,456.574a41.624,41.624,0,0,1-10.925-1.493,1.551,1.551,0,0,1-1.113-1.612c1.137-17.09,1.4-30.351-.987-39.527a15.409,15.409,0,0,1,1.269-11.3,14.873,14.873,0,0,1,13.185-7.815h0q.386.007.78.027c8.175.421,14.546,7.817,14.2,16.487l-1.644,41.326a1.527,1.527,0,0,1-.968,1.391A39.288,39.288,0,0,1,630.107,456.574Z" transform="translate(-464.167 -316.647)"/><path class="d" d="M609.214,427.124l-6.327-7.753a1.981,1.981,0,0,1,.521-2.955l8.57-5.107a5.5,5.5,0,1,1,6.933,8.547l-6.7,7.35a1.981,1.981,0,0,1-3-.082Z" transform="translate(-454.909 -326.657)"/><path class="d" d="M671.5,421.289a1.979,1.979,0,0,1-1.088-1.24l-2.848-9.528a5.5,5.5,0,0,1,9.954-4.695l5.508,8.318a1.981,1.981,0,0,1-.812,2.888l-9.063,4.242a1.979,1.979,0,0,1-1.65.014Z" transform="translate(-497.287 -321.795)"/><path class="f" d="M632.917,346.888l-6.261-1.433c-.646-.148-1.422-.43-1.511-1.086-.12-.882,1.149-1.5,1.032-2.379-.113-.855-1.27-.965-2.094-1.217a3.133,3.133,0,0,1-1.951-3.9,2.879,2.879,0,0,1-4.088.346,3.619,3.619,0,0,1-.684-4.243,4.913,4.913,0,0,1,3.688-2.49,7.778,7.778,0,0,1,4.479.835c.092-.974,1.308-1.369,2.287-1.378a9.777,9.777,0,0,1,9.163,6.688c1.2,3.87.4,8.111-2.962,10.375Z" transform="translate(-464.439 -274.078)"/><path class="c" d="M596.1,731.188H465.073a.344.344,0,1,1,0-.688H596.1a.344.344,0,1,1,0,.688Z" transform="translate(-364.556 -536.885)"/><g transform="translate(40.018 6.002)"><g transform="translate(2 69)"><g transform="translate(-0.018 -0.002)"><path class="c" d="M8.264,9a.734.734,0,0,1-.524-.216L.214,1.258A.738.738,0,1,1,1.258.214L8.784,7.74A.737.737,0,0,1,8.264,9Z" transform="translate(0.004 0.002)"/><path class="c" d="M.72,9A.737.737,0,0,1,.2,7.74L7.726.214A.738.738,0,1,1,8.77,1.258L1.244,8.784A.734.734,0,0,1,.72,9Z" transform="translate(0.018 0.002)"/><rect class="g" width="9.002" height="9.002" transform="translate(0.002 0)"/></g></g></g><g transform="translate(109.018 6.002)"><g transform="translate(2 69)"><g transform="translate(-0.018 -0.002)"><path class="c" d="M8.264,9a.734.734,0,0,1-.524-.216L.214,1.258A.738.738,0,1,1,1.258.214L8.784,7.74A.737.737,0,0,1,8.264,9Z" transform="translate(0.004 0.002)"/><path class="c" d="M.72,9A.737.737,0,0,1,.2,7.74L7.726.214A.738.738,0,1,1,8.77,1.258L1.244,8.784A.734.734,0,0,1,.72,9Z" transform="translate(0.018 0.002)"/><rect class="g" width="9.002" height="9.002" transform="translate(0.002 0)"/></g></g></g></g></svg>