<svg xmlns="http://www.w3.org/2000/svg" width="126.612" height="113.979" viewBox="0 0 126.612 113.979"><defs><style>.a{fill:#7498ee;}.b{fill:#3f3d56;}.c{fill:#e6e6e6;}.d{fill:#ffb8b8;}.e{fill:#6c63ff;}.f{fill:#2f2e41;}.g{opacity:0.2;}</style></defs><g transform="translate(-786.209 -853.315)"><g transform="translate(824.334 853.315)"><path class="a" d="M208.927,238.09c0-14.616,11.849-49.3,26.465-49.3s26.465,34.683,26.465,49.3a26.465,26.465,0,1,1-52.93,0Z" transform="translate(-208.927 -188.791)"/><path class="b" d="M329.759,381.6a.218.218,0,0,1-.218-.218V290.143a.218.218,0,0,1,.435,0v91.242A.218.218,0,0,1,329.759,381.6Z" transform="translate(-303.294 -267.917)"/><path class="b" d="M292.1,332.647a.217.217,0,0,1-.154-.064L281.47,322.108a.218.218,0,0,1,.308-.308l10.475,10.475a.218.218,0,0,1-.154.371Z" transform="translate(-265.634 -292.806)"/><path class="b" d="M329.759,390.568a.218.218,0,0,1-.154-.371l17.542-17.542a.218.218,0,0,1,.308.308L329.913,390.5A.217.217,0,0,1,329.759,390.568Z" transform="translate(-303.294 -332.593)"/><path class="c" d="M440.656,369.717c0-10.5,8.52-35.426,19.03-35.426s19.03,24.923,19.03,35.426a19.03,19.03,0,1,1-38.06,0Z" transform="translate(-390.229 -302.628)"/><path class="b" d="M527.541,472.84a.157.157,0,0,1-.156-.156V407.119a.156.156,0,1,1,.313,0v65.565A.156.156,0,0,1,527.541,472.84Z" transform="translate(-458.085 -359.486)"/><path class="b" d="M500.462,437.662a.156.156,0,0,1-.111-.046l-7.532-7.527a.156.156,0,1,1,.221-.221l7.532,7.527a.156.156,0,0,1-.111.267Z" transform="translate(-431.005 -377.371)"/><path class="b" d="M527.542,479.283a.156.156,0,0,1-.111-.267l12.614-12.605a.156.156,0,1,1,.221.221l-12.614,12.605A.156.156,0,0,1,527.542,479.283Z" transform="translate(-458.085 -405.961)"/></g><g transform="translate(705.664 545.068)"><path class="d" d="M420.833,590.862a1.592,1.592,0,0,0-2.426-.276l-5.028-2.6.313,2.924,4.727,2.016a1.6,1.6,0,0,0,2.415-2.069Z" transform="translate(-317.104 -201.554)"/><path class="e" d="M368.1,535.619a.713.713,0,0,1-.581.006l-4.776-2.072a7.343,7.343,0,0,1-3.715-3.594l-2.511-5.3a2.3,2.3,0,0,1,3.626-2.816l4.414,8.189,4.075,3.079a.715.715,0,0,1,.251.779l-.4,1.292a.714.714,0,0,1-.241.35A.706.706,0,0,1,368.1,535.619Z" transform="translate(-268.842 -145.134)"/><circle class="d" cx="3.889" cy="3.889" r="3.889" transform="translate(83.677 365.513)"/><path class="d" d="M134.831,677.107h1.941l.923-7.488h-2.865Z" transform="translate(-45.69 -256.685)"/><path class="f" d="M0,0H6.1V2.357H2.357A2.357,2.357,0,0,1,0,0H0Z" transform="translate(94.827 422.225) rotate(179.997)"/><path class="d" d="M94.831,677.107h1.941l.923-7.488H94.831Z" transform="translate(-12.024 -256.685)"/><path class="f" d="M0,0H6.1V2.357H2.357A2.357,2.357,0,0,1,0,0H0Z" transform="translate(88.493 422.225) rotate(179.997)"/><path class="f" d="M323.114,650.591a.713.713,0,0,1-.17-.564l3.4-25.492,8.445,1.434.9-.541-2.33,24.187a.715.715,0,0,1-.649.628l-2.557.213a.712.712,0,0,1-.771-.751l.662-11.519a.079.079,0,0,0-.156-.025l-3.275,12.146a.714.714,0,0,1-.688.527H323.65a.712.712,0,0,1-.536-.243Z" transform="translate(-240.984 -232.312)"/><path class="e" d="M329.944,532.841a.559.559,0,0,0-.715-.03l-1.688,1.313a.712.712,0,0,1-1.122-.365c-.828-2.9-2.7-10.2-2.242-15.339a5.381,5.381,0,0,1,5.606-4.94,4.017,4.017,0,0,1,3.782,3.317c1.413,5.087,2.966,14.417,3.263,16.236a.71.71,0,0,1-.338.727,5.216,5.216,0,0,1-2.643.744A5.8,5.8,0,0,1,329.944,532.841Z" transform="translate(-241.966 -138.833)"/><path class="d" d="M334.968,610.77a1.592,1.592,0,0,0-1.739-1.714l-2.355-5.145-1.558,2.494,2.475,4.5a1.6,1.6,0,0,0,3.177-.138Z" transform="translate(-246.353 -214.952)"/><path class="e" d="M317.872,539.69a.713.713,0,0,1-.461-.354l-2.48-4.578a7.343,7.343,0,0,1-.705-5.121l1.3-5.72a2.3,2.3,0,0,1,4.591.022l-1.581,9.167,1.307,4.938a.715.715,0,0,1-.283.768l-1.112.77a.713.713,0,0,1-.571.107Z" transform="translate(-233.5 -145.704)"/><path class="g" d="M109.294,474.908l-1.425,6.017,2.059,5.067-1.425-4.909Z" transform="translate(-22.997 -92.806)"/><path class="f" d="M334.979,459a3.873,3.873,0,0,1-3.479-2.19,4.246,4.246,0,0,1,.383-4.235,3.8,3.8,0,0,1,3.81-1.466,4.226,4.226,0,0,1,2.611-.75,2.563,2.563,0,0,1,2.16,1.547,1.956,1.956,0,0,1-.875,2.433,3.155,3.155,0,0,1-1.742.026,2.487,2.487,0,0,0-1.722.159,1.043,1.043,0,0,0-.28,1.551,1.687,1.687,0,0,1,.448,1.8A1.724,1.724,0,0,1,334.979,459Z" transform="translate(-247.859 -85.707)"/></g></g></svg>