<svg width="27" height="25" viewBox="0 0 27 25" fill="none" xmlns="http://www.w3.org/2000/svg">
<path d="M16.9241 9.56956H16.8338L16.7915 9.64929L14.2243 14.4902L11.3552 6.02764L11.2613 5.75064L11.0912 5.98854L7.15 11.4989C6.82768 11.4972 5.84544 11.4939 4.90427 11.491L3.50068 11.4868L3.04692 11.4855L2.96221 11.4853C2.45297 10.5922 2.18109 9.57833 2.18109 8.52175C2.18109 6.91922 2.80476 5.41347 3.93795 4.28029L4.28372 3.93451C5.45296 2.76528 6.98868 2.18059 8.52508 2.18059C10.0615 2.18059 11.5973 2.76528 12.7665 3.93451L12.8726 3.82845L12.7665 3.93452L13.394 4.56199L13.5001 4.66805L13.6062 4.56197L14.2335 3.93451C14.2335 3.93451 14.2335 3.93451 14.2335 3.9345C16.5721 1.59592 20.3776 1.59592 22.7162 3.93451L23.0621 4.28034C24.1952 5.41347 24.8189 6.91921 24.8189 8.52175C24.8189 8.8768 24.7882 9.22709 24.7282 9.56956H16.9241ZM7.75393 12.6848L7.7529 12.8348L7.83068 12.8353L7.87594 12.772L10.8341 8.63616L13.8428 17.5107L13.9544 17.8401L14.1174 17.5328L17.6346 10.9007H24.3304C24.0339 11.5869 23.6071 12.2181 23.0621 12.7631L13.5 22.3251L3.99144 12.8166C4.50475 12.8167 5.29435 12.8202 6.01839 12.8242C6.47889 12.8266 6.91253 12.8293 7.23104 12.8313L7.61141 12.8338L7.71615 12.8345L7.74354 12.8347L7.75054 12.8347L7.7523 12.8348L7.75275 12.8348H7.75286L7.75393 12.6848ZM2.99668 13.7043L3.10275 13.5983L2.99668 13.7043L13.394 24.1015L13.5 24.2076L13.6061 24.1015L24.0033 13.7043C25.3874 12.3203 26.15 10.4792 26.15 8.52175C26.15 6.56425 25.3874 4.72324 24.0033 3.33913L23.8973 3.44519L24.0033 3.33913L23.6575 2.9933C20.8679 0.203726 16.3711 0.137273 13.5 2.79347C10.6288 0.137275 6.13203 0.203777 3.34246 2.99335L2.99668 3.33913C1.61257 4.72324 0.85 6.56425 0.85 8.52175C0.85 10.4791 1.61257 12.3202 2.99668 13.7043Z" fill="#979797" stroke="#979797" stroke-width="0.3"/>
</svg>
