<svg width="25" height="25" viewBox="0 0 25 25" fill="none" xmlns="http://www.w3.org/2000/svg">
<path d="M12.5 0C10.0277 0 7.61099 0.733112 5.55538 2.10663C3.49976 3.48015 1.89761 5.43238 0.951511 7.71645C0.00541604 10.0005 -0.242126 12.5139 0.24019 14.9386C0.722505 17.3634 1.91301 19.5907 3.66117 21.3388C5.40933 23.087 7.63661 24.2775 10.0614 24.7598C12.4861 25.2421 14.9995 24.9946 17.2835 24.0485C19.5676 23.1024 21.5199 21.5002 22.8934 19.4446C24.2669 17.389 25 14.9723 25 12.5C24.9961 9.18599 23.6779 6.00882 21.3345 3.66546C18.9912 1.3221 15.814 0.00389197 12.5 0ZM12.5 23.5294C10.3186 23.5294 8.18617 22.8825 6.37239 21.6706C4.55861 20.4587 3.14495 18.7361 2.31016 16.7208C1.47537 14.7054 1.25695 12.4878 1.68252 10.3483C2.10809 8.20877 3.15854 6.24352 4.70103 4.70103C6.24352 3.15854 8.20878 2.10809 10.3483 1.68251C12.4878 1.25694 14.7054 1.47536 16.7208 2.31015C18.7361 3.14494 20.4587 4.55861 21.6706 6.37239C22.8825 8.18616 23.5294 10.3186 23.5294 12.5C23.5263 15.4242 22.3633 18.2278 20.2955 20.2955C18.2278 22.3633 15.4242 23.5263 12.5 23.5294ZM17.6471 12.5C17.6471 12.695 17.5696 12.882 17.4317 13.0199C17.2938 13.1578 17.1068 13.2353 16.9118 13.2353H13.2353V16.9118C13.2353 17.1068 13.1578 17.2938 13.0199 17.4317C12.882 17.5696 12.695 17.6471 12.5 17.6471C12.305 17.6471 12.118 17.5696 11.9801 17.4317C11.8422 17.2938 11.7647 17.1068 11.7647 16.9118V13.2353H8.08824C7.89323 13.2353 7.7062 13.1578 7.56831 13.0199C7.43041 12.882 7.35294 12.695 7.35294 12.5C7.35294 12.305 7.43041 12.118 7.56831 11.9801C7.7062 11.8422 7.89323 11.7647 8.08824 11.7647H11.7647V8.08823C11.7647 7.89322 11.8422 7.7062 11.9801 7.5683C12.118 7.43041 12.305 7.35294 12.5 7.35294C12.695 7.35294 12.882 7.43041 13.0199 7.5683C13.1578 7.7062 13.2353 7.89322 13.2353 8.08823V11.7647H16.9118C17.1068 11.7647 17.2938 11.8422 17.4317 11.9801C17.5696 12.118 17.6471 12.305 17.6471 12.5Z" fill="#2A2A2A"/>
</svg>
