<svg width="30" height="30" viewBox="0 0 30 30" fill="none" xmlns="http://www.w3.org/2000/svg">
<rect width="30" height="30" rx="15" fill="#F8F8F8"/>
<path d="M14.7128 7C12.4919 7 10.6851 8.80683 10.6851 11.0277C10.6851 13.2486 12.4919 15.0554 14.7128 15.0554C16.9337 15.0554 18.7405 13.2486 18.7405 11.0277C18.7405 8.80683 16.9337 7 14.7128 7ZM14.7128 14.1604C12.9854 14.1604 11.5801 12.7551 11.5801 11.0277C11.5801 9.30036 12.9854 7.89505 14.7128 7.89505C16.4401 7.89505 17.8454 9.30036 17.8454 11.0277C17.8454 12.7551 16.4401 14.1604 14.7128 14.1604Z" fill="#2A2A2A"/>
<path d="M19.7241 17.6869C18.6214 16.5673 17.1596 15.9507 15.6079 15.9507H13.8178C12.2662 15.9507 10.8043 16.5673 9.70161 17.6869C8.60431 18.8011 8 20.2718 8 21.8282C8 22.0753 8.20037 22.2757 8.44752 22.2757H20.9782C21.2254 22.2757 21.4257 22.0753 21.4257 21.8282C21.4257 20.2718 20.8214 18.8011 19.7241 17.6869ZM8.91474 21.3806C9.13895 18.8421 11.2523 16.8457 13.8178 16.8457H15.6079C18.1734 16.8457 20.2868 18.8421 20.511 21.3806H8.91474Z" fill="#2A2A2A"/>
</svg>
