<svg width="50" height="50" viewBox="0 0 50 50" fill="none" xmlns="http://www.w3.org/2000/svg">
<path d="M25 50C38.8071 50 50 38.8071 50 25C50 11.1929 38.8071 0 25 0C11.1929 0 0 11.1929 0 25C0 38.8071 11.1929 50 25 50Z" fill="#FFEBB6"/>
<path d="M31.7846 18.1456H17.6056V13.3631C17.6063 12.7366 17.8555 12.1359 18.2985 11.6929C18.7415 11.2499 19.3422 11.0007 19.9687 11H29.4215C30.048 11.0007 30.6487 11.2499 31.0917 11.6929C31.5347 12.1359 31.7839 12.7366 31.7846 13.3631V18.1456ZM19.6311 16.1201H29.7591V13.3639C29.759 13.2743 29.7234 13.1885 29.6601 13.1252C29.5968 13.0619 29.511 13.0263 29.4215 13.0262H19.9687C19.8792 13.0263 19.7934 13.0619 19.7301 13.1252C19.6668 13.1885 19.6312 13.2743 19.6311 13.3639V16.1201Z" fill="#414451"/>
<path d="M10.4716 21.2953H38.9195V37.29C38.9195 37.5922 38.7995 37.8819 38.5858 38.0956C38.3722 38.3092 38.0824 38.4293 37.7803 38.4293H11.6108C11.3087 38.4293 11.0189 38.3092 10.8052 38.0956C10.5916 37.8819 10.4716 37.5922 10.4716 37.29V21.2953Z" fill="#62667C"/>
<path d="M39.2514 16.0497H10.1392C9.51006 16.0497 9 16.5597 9 17.1889V24.5221C9 25.1513 9.51006 25.6613 10.1392 25.6613H39.2514C39.8806 25.6613 40.3906 25.1513 40.3906 24.5221V17.1889C40.3906 16.5597 39.8806 16.0497 39.2514 16.0497Z" fill="#62667C"/>
<path d="M10.4716 25.6617H38.9195V27.0146H10.4716V25.6617Z" fill="#575B6D"/>
<path d="M26.3272 23.8989H23.0638C22.8773 23.8989 22.7261 24.0501 22.7261 24.2365V27.8373C22.7261 28.0237 22.8773 28.1749 23.0638 28.1749H26.3272C26.5137 28.1749 26.6649 28.0237 26.6649 27.8373V24.2365C26.6649 24.0501 26.5137 23.8989 26.3272 23.8989Z" fill="#F6C863"/>
<path d="M25.8587 24.7219V27.3522H23.5316V24.7219H25.8587Z" fill="#EAB54E"/>
</svg>
