<svg width="30" height="30" viewBox="0 0 30 30" fill="none" xmlns="http://www.w3.org/2000/svg">
<rect x="0.000244141" width="30" height="30" rx="15" fill="#F8F8F8"/>
<mask id="path-2-outside-1" maskUnits="userSpaceOnUse" x="5.9705" y="5.98445" width="18.531" height="18.531" fill="black">
<rect fill="white" x="5.9705" y="5.98445" width="18.531" height="18.531"/>
<path d="M20.4776 12.6227C21.5221 11.7159 21.1004 9.99723 19.7517 9.67884C19.3992 9.59564 19.0379 9.62597 18.7099 9.7623L17.5916 7.95264C17.1365 7.21621 16.0629 7.2285 15.6242 7.97297C14.3787 10.0863 12.6895 11.9026 10.6614 13.3033C10.5459 13.3829 10.5069 13.5414 10.5804 13.6673C10.5922 13.6875 12.4446 16.6846 12.4569 16.7045C12.5365 16.8334 12.7056 16.8734 12.8347 16.7937C12.9636 16.714 13.0036 16.5448 12.9239 16.4158L11.1868 13.6048C13.1194 12.2273 14.8137 10.4295 16.0971 8.25173C16.3267 7.86218 16.8872 7.85726 17.1246 8.24126L21.1289 14.7211C21.3665 15.1056 21.1104 15.6044 20.6601 15.6354C18.1334 15.8098 15.6761 16.531 13.4464 17.7571C13.4369 17.7623 10.9141 19.3218 10.7403 19.4291C10.2893 19.7079 9.69573 19.5677 9.41706 19.1167L7.95519 16.751C7.6765 16.3001 7.81665 15.7064 8.2676 15.4277L9.91128 14.4119C10.0402 14.3322 10.0802 14.163 10.0005 14.034C9.92078 13.905 9.75159 13.8651 9.62267 13.9448L7.97899 14.9607C7.27054 15.3985 7.05037 16.3311 7.4882 17.0397L8.9501 19.4053C9.38797 20.1138 10.3206 20.334 11.029 19.8961L11.0912 19.8577L12.8961 22.7784C13.1553 23.1979 13.7047 23.3278 14.1244 23.0684L14.7158 22.7029C15.1354 22.4436 15.2651 21.8941 15.0058 21.4745L13.7266 19.4045C13.6469 19.2756 13.4778 19.2356 13.3488 19.3153C13.2199 19.395 13.1799 19.5642 13.2596 19.6932L14.5388 21.7631C14.6386 21.9246 14.5887 22.136 14.4272 22.2358L13.8358 22.6013C13.6743 22.7011 13.4629 22.6512 13.3631 22.4897L11.5582 19.5691L13.7171 18.2348C15.8339 17.0719 18.2062 16.355 20.6979 16.1831C21.5614 16.1235 22.0504 15.1677 21.5959 14.4325L20.4776 12.6227ZM20.3424 10.7299C20.6273 11.191 20.5475 11.7761 20.1833 12.1464L19.0041 10.2383C19.4912 10.0794 20.0529 10.2613 20.3424 10.7299ZM22.9894 9.42957L22.2918 9.86074C22.1628 9.94048 21.9937 9.90047 21.914 9.77155C21.8343 9.64259 21.8742 9.47342 22.0032 9.39372L22.7008 8.96255C22.8299 8.88282 22.999 8.92282 23.0786 9.05175C23.1583 9.1807 23.1184 9.34987 22.9894 9.42957ZM19.8895 7.95718L20.0433 7.30594C20.0782 7.15838 20.2259 7.06706 20.3736 7.10184C20.5211 7.1367 20.6125 7.28456 20.5776 7.43209L20.4239 8.08332C20.3891 8.2305 20.2416 8.32226 20.0936 8.28742C19.9461 8.25257 19.8547 8.10474 19.8895 7.95718ZM23.6127 12.3434C23.5835 12.467 23.4751 12.5511 23.3539 12.5548C23.3043 12.5563 23.3392 12.5609 22.6312 12.3937C22.4837 12.3589 22.3923 12.211 22.4271 12.0635C22.462 11.9159 22.6099 11.8246 22.7574 11.8594L23.4086 12.0131C23.5561 12.048 23.6475 12.1958 23.6127 12.3434Z"/>
</mask>
<path d="M20.4776 12.6227C21.5221 11.7159 21.1004 9.99723 19.7517 9.67884C19.3992 9.59564 19.0379 9.62597 18.7099 9.7623L17.5916 7.95264C17.1365 7.21621 16.0629 7.2285 15.6242 7.97297C14.3787 10.0863 12.6895 11.9026 10.6614 13.3033C10.5459 13.3829 10.5069 13.5414 10.5804 13.6673C10.5922 13.6875 12.4446 16.6846 12.4569 16.7045C12.5365 16.8334 12.7056 16.8734 12.8347 16.7937C12.9636 16.714 13.0036 16.5448 12.9239 16.4158L11.1868 13.6048C13.1194 12.2273 14.8137 10.4295 16.0971 8.25173C16.3267 7.86218 16.8872 7.85726 17.1246 8.24126L21.1289 14.7211C21.3665 15.1056 21.1104 15.6044 20.6601 15.6354C18.1334 15.8098 15.6761 16.531 13.4464 17.7571C13.4369 17.7623 10.9141 19.3218 10.7403 19.4291C10.2893 19.7079 9.69573 19.5677 9.41706 19.1167L7.95519 16.751C7.6765 16.3001 7.81665 15.7064 8.2676 15.4277L9.91128 14.4119C10.0402 14.3322 10.0802 14.163 10.0005 14.034C9.92078 13.905 9.75159 13.8651 9.62267 13.9448L7.97899 14.9607C7.27054 15.3985 7.05037 16.3311 7.4882 17.0397L8.9501 19.4053C9.38797 20.1138 10.3206 20.334 11.029 19.8961L11.0912 19.8577L12.8961 22.7784C13.1553 23.1979 13.7047 23.3278 14.1244 23.0684L14.7158 22.7029C15.1354 22.4436 15.2651 21.8941 15.0058 21.4745L13.7266 19.4045C13.6469 19.2756 13.4778 19.2356 13.3488 19.3153C13.2199 19.395 13.1799 19.5642 13.2596 19.6932L14.5388 21.7631C14.6386 21.9246 14.5887 22.136 14.4272 22.2358L13.8358 22.6013C13.6743 22.7011 13.4629 22.6512 13.3631 22.4897L11.5582 19.5691L13.7171 18.2348C15.8339 17.0719 18.2062 16.355 20.6979 16.1831C21.5614 16.1235 22.0504 15.1677 21.5959 14.4325L20.4776 12.6227ZM20.3424 10.7299C20.6273 11.191 20.5475 11.7761 20.1833 12.1464L19.0041 10.2383C19.4912 10.0794 20.0529 10.2613 20.3424 10.7299ZM22.9894 9.42957L22.2918 9.86074C22.1628 9.94048 21.9937 9.90047 21.914 9.77155C21.8343 9.64259 21.8742 9.47342 22.0032 9.39372L22.7008 8.96255C22.8299 8.88282 22.999 8.92282 23.0786 9.05175C23.1583 9.1807 23.1184 9.34987 22.9894 9.42957ZM19.8895 7.95718L20.0433 7.30594C20.0782 7.15838 20.2259 7.06706 20.3736 7.10184C20.5211 7.1367 20.6125 7.28456 20.5776 7.43209L20.4239 8.08332C20.3891 8.2305 20.2416 8.32226 20.0936 8.28742C19.9461 8.25257 19.8547 8.10474 19.8895 7.95718ZM23.6127 12.3434C23.5835 12.467 23.4751 12.5511 23.3539 12.5548C23.3043 12.5563 23.3392 12.5609 22.6312 12.3937C22.4837 12.3589 22.3923 12.211 22.4271 12.0635C22.462 11.9159 22.6099 11.8246 22.7574 11.8594L23.4086 12.0131C23.5561 12.048 23.6475 12.1958 23.6127 12.3434Z" fill="#2A2A2A"/>
<path d="M20.4776 12.6227L20.412 12.5471L20.3478 12.6029L20.3925 12.6752L20.4776 12.6227ZM19.7517 9.67884L19.7746 9.58151L19.7746 9.58151L19.7517 9.67884ZM18.7099 9.7623L18.6248 9.81487L18.6696 9.88734L18.7483 9.85464L18.7099 9.7623ZM17.5916 7.95264L17.5065 8.0052L17.5065 8.0052L17.5916 7.95264ZM15.6242 7.97297L15.538 7.92219L15.538 7.92219L15.6242 7.97297ZM10.6614 13.3033L10.7181 13.3856L10.7182 13.3856L10.6614 13.3033ZM10.5804 13.6673L10.4941 13.7178L10.4941 13.7179L10.5804 13.6673ZM12.4569 16.7045L12.3718 16.757L12.3718 16.757L12.4569 16.7045ZM12.8347 16.7937L12.8872 16.8788L12.8873 16.8787L12.8347 16.7937ZM12.9239 16.4158L12.8388 16.4684L12.8388 16.4684L12.9239 16.4158ZM11.1868 13.6048L11.1287 13.5234L11.0525 13.5778L11.1017 13.6574L11.1868 13.6048ZM16.0971 8.25173L16.1833 8.3025L16.1833 8.3025L16.0971 8.25173ZM17.1246 8.24126L17.2096 8.18869L17.2096 8.18869L17.1246 8.24126ZM21.1289 14.7211L21.214 14.6686L21.214 14.6686L21.1289 14.7211ZM20.6601 15.6354L20.6532 15.5357L20.6532 15.5357L20.6601 15.6354ZM13.4464 17.7571L13.4944 17.8448L13.4946 17.8447L13.4464 17.7571ZM10.7403 19.4291L10.6877 19.3441L10.6877 19.3441L10.7403 19.4291ZM9.41706 19.1167L9.50214 19.0641L9.50213 19.0641L9.41706 19.1167ZM7.95519 16.751L8.04026 16.6985L8.04026 16.6985L7.95519 16.751ZM8.2676 15.4277L8.32018 15.5128L8.2676 15.4277ZM9.91128 14.4119L9.96386 14.4969L9.96386 14.4969L9.91128 14.4119ZM10.0005 14.034L9.9154 14.0866L9.91541 14.0866L10.0005 14.034ZM9.62267 13.9448L9.67524 14.0299L9.67525 14.0299L9.62267 13.9448ZM7.97899 14.9607L8.03156 15.0458L8.03156 15.0458L7.97899 14.9607ZM7.4882 17.0397L7.40313 17.0922L7.40313 17.0922L7.4882 17.0397ZM8.9501 19.4053L9.03517 19.3527L9.03517 19.3527L8.9501 19.4053ZM11.029 19.8961L10.9764 19.811L10.9764 19.8111L11.029 19.8961ZM11.0912 19.8577L11.1762 19.8051L11.1237 19.7201L11.0386 19.7726L11.0912 19.8577ZM12.8961 22.7784L12.9811 22.7258L12.9811 22.7258L12.8961 22.7784ZM14.1244 23.0684L14.177 23.1535L14.177 23.1535L14.1244 23.0684ZM14.7158 22.7029L14.6632 22.6178L14.6632 22.6178L14.7158 22.7029ZM15.0058 21.4745L15.0909 21.4219L15.0909 21.4219L15.0058 21.4745ZM13.7266 19.4045L13.8117 19.352L13.8117 19.352L13.7266 19.4045ZM13.2596 19.6932L13.3447 19.6406L13.3447 19.6406L13.2596 19.6932ZM14.5388 21.7631L14.6239 21.7105L14.6239 21.7105L14.5388 21.7631ZM14.4272 22.2358L14.3746 22.1508L14.3746 22.1508L14.4272 22.2358ZM13.8358 22.6013L13.8884 22.6864L13.8884 22.6864L13.8358 22.6013ZM13.3631 22.4897L13.4482 22.4372L13.4482 22.4372L13.3631 22.4897ZM11.5582 19.5691L11.5056 19.484L11.4206 19.5366L11.4731 19.6216L11.5582 19.5691ZM13.7171 18.2348L13.6689 18.147L13.6645 18.1497L13.7171 18.2348ZM20.6979 16.1831L20.7048 16.2829L20.7048 16.2829L20.6979 16.1831ZM21.5959 14.4325L21.5109 14.485L21.5109 14.485L21.5959 14.4325ZM20.3424 10.7299L20.2573 10.7824L20.2573 10.7824L20.3424 10.7299ZM20.1833 12.1464L20.0982 12.199L20.1652 12.3074L20.2546 12.2166L20.1833 12.1464ZM19.0041 10.2383L18.9731 10.1432L18.8522 10.1827L18.919 10.2909L19.0041 10.2383ZM22.9894 9.42957L22.9369 9.3445L22.9369 9.3445L22.9894 9.42957ZM22.2918 9.86074L22.3444 9.94581L22.3444 9.94581L22.2918 9.86074ZM21.914 9.77155L21.9991 9.71898L21.9991 9.71896L21.914 9.77155ZM22.0032 9.39372L22.0558 9.47879L22.0558 9.47879L22.0032 9.39372ZM22.7008 8.96255L22.6483 8.87748L22.6482 8.87749L22.7008 8.96255ZM23.0786 9.05175L22.9935 9.10431L22.9936 9.10432L23.0786 9.05175ZM20.0433 7.30594L19.946 7.28296L19.946 7.28296L20.0433 7.30594ZM20.3736 7.10184L20.3966 7.00452L20.3965 7.00451L20.3736 7.10184ZM20.5776 7.43209L20.4803 7.4091L20.4803 7.40911L20.5776 7.43209ZM20.4239 8.08332L20.5212 8.10631L20.5212 8.1063L20.4239 8.08332ZM20.0936 8.28742L20.0706 8.38474L20.0707 8.38476L20.0936 8.28742ZM23.6127 12.3434L23.71 12.3664L23.71 12.3664L23.6127 12.3434ZM22.6312 12.3937L22.6082 12.491L22.6083 12.491L22.6312 12.3937ZM22.7574 11.8594L22.7804 11.7621L22.7803 11.762L22.7574 11.8594ZM23.4086 12.0131L23.4316 11.9158L23.4316 11.9158L23.4086 12.0131ZM20.5431 12.6982C21.6492 11.738 21.2028 9.91865 19.7746 9.58151L19.7287 9.77616C20.9981 10.0758 21.3951 11.6938 20.412 12.5471L20.5431 12.6982ZM19.7746 9.58151C19.4018 9.49349 19.019 9.52555 18.6715 9.66996L18.7483 9.85464C19.0568 9.72639 19.3967 9.6978 19.7287 9.77616L19.7746 9.58151ZM18.795 9.70973L17.6767 7.90007L17.5065 8.0052L18.6248 9.81487L18.795 9.70973ZM17.6767 7.90007C17.182 7.09956 16.015 7.11295 15.538 7.92219L15.7103 8.02374C16.1109 7.34406 17.091 7.33286 17.5065 8.0052L17.6767 7.90007ZM15.538 7.92219C14.2999 10.023 12.6207 11.8286 10.6045 13.221L10.7182 13.3856C12.7582 11.9767 14.4575 10.1496 15.7103 8.02374L15.538 7.92219ZM10.6046 13.221C10.4469 13.3296 10.3936 13.5457 10.4941 13.7178L10.6668 13.6169C10.6202 13.5372 10.6448 13.4362 10.7181 13.3856L10.6046 13.221ZM10.4941 13.7179C10.5067 13.7394 12.3604 16.7385 12.3718 16.757L12.542 16.6519C12.5358 16.642 12.0696 15.8877 11.6036 15.1334C11.3705 14.7563 11.1375 14.3791 10.962 14.095C10.8742 13.953 10.8008 13.8342 10.749 13.7503C10.7231 13.7083 10.7026 13.6751 10.6884 13.6521C10.6736 13.6279 10.6667 13.6167 10.6667 13.6168L10.4941 13.7179ZM12.3718 16.757C12.4805 16.9329 12.7112 16.9875 12.8872 16.8788L12.7821 16.7086C12.7001 16.7593 12.5926 16.7338 12.542 16.6519L12.3718 16.757ZM12.8873 16.8787C13.0632 16.77 13.1177 16.5392 13.0089 16.3633L12.8388 16.4684C12.8895 16.5504 12.8641 16.6579 12.7821 16.7086L12.8873 16.8787ZM13.0089 16.3633L11.2718 13.5523L11.1017 13.6574L12.8388 16.4684L13.0089 16.3633ZM11.2448 13.6863C13.1884 12.3009 14.8924 10.4928 16.1833 8.3025L16.011 8.20095C14.7349 10.3662 13.0503 12.1537 11.1287 13.5234L11.2448 13.6863ZM16.1833 8.3025C16.3745 7.97798 16.8416 7.97367 17.0395 8.29384L17.2096 8.18869C16.9329 7.74085 16.2789 7.74638 16.011 8.20096L16.1833 8.3025ZM17.0395 8.29383L21.0439 14.7737L21.214 14.6686L17.2096 8.18869L17.0395 8.29383ZM21.0439 14.7737C21.2419 15.0942 21.0284 15.5098 20.6532 15.5357L20.6669 15.7352C21.1924 15.6989 21.4912 15.1171 21.214 14.6686L21.0439 14.7737ZM20.6532 15.5357C18.112 15.711 15.6406 16.4364 13.3983 17.6695L13.4946 17.8447C15.7116 16.6257 18.1548 15.9086 20.667 15.7352L20.6532 15.5357ZM13.3984 17.6694C13.3859 17.6763 10.8585 19.2386 10.6877 19.3441L10.7929 19.5142C10.8797 19.4605 11.554 19.0438 12.2075 18.6399C12.5344 18.4379 12.856 18.2391 13.0966 18.0905C13.3401 17.9401 13.4952 17.8444 13.4944 17.8448L13.3984 17.6694ZM10.6877 19.3441C10.2837 19.5938 9.75176 19.4682 9.50214 19.0641L9.33199 19.1693C9.63969 19.6673 10.2949 19.822 10.7929 19.5142L10.6877 19.3441ZM9.50213 19.0641L8.04026 16.6985L7.87012 16.8036L9.332 19.1693L9.50213 19.0641ZM8.04026 16.6985C7.7906 16.2945 7.9162 15.7625 8.32018 15.5128L8.21503 15.3427C7.7171 15.6504 7.5624 16.3057 7.87013 16.8036L8.04026 16.6985ZM8.32018 15.5128L9.96386 14.4969L9.85871 14.3268L8.21503 15.3427L8.32018 15.5128ZM9.96386 14.4969C10.1398 14.3882 10.1943 14.1574 10.0855 13.9815L9.91541 14.0866C9.96607 14.1686 9.94068 14.2761 9.85871 14.3268L9.96386 14.4969ZM10.0855 13.9815C9.97681 13.8055 9.74598 13.751 9.57009 13.8598L9.67525 14.0299C9.75719 13.9792 9.86475 14.0046 9.9154 14.0866L10.0855 13.9815ZM9.5701 13.8598L7.92642 14.8756L8.03156 15.0458L9.67524 14.0299L9.5701 13.8598ZM7.92642 14.8756C7.17099 15.3425 6.93627 16.3367 7.40313 17.0922L7.57327 16.9871C7.16447 16.3256 7.3701 15.4545 8.03156 15.0458L7.92642 14.8756ZM7.40313 17.0922L8.86504 19.4579L9.03517 19.3527L7.57327 16.9871L7.40313 17.0922ZM8.86504 19.4579C9.33194 20.2134 10.3261 20.4481 11.0816 19.9812L10.9764 19.8111C10.315 20.2199 9.444 20.0143 9.03517 19.3527L8.86504 19.4579ZM11.0816 19.9812L11.1437 19.9428L11.0386 19.7726L10.9764 19.811L11.0816 19.9812ZM11.0061 19.9103L12.811 22.8309L12.9811 22.7258L11.1762 19.8051L11.0061 19.9103ZM12.811 22.8309C13.0993 23.2974 13.7102 23.4419 14.177 23.1535L14.0718 22.9833C13.6991 23.2137 13.2114 23.0983 12.9811 22.7258L12.811 22.8309ZM14.177 23.1535L14.7684 22.7879L14.6632 22.6178L14.0718 22.9833L14.177 23.1535ZM14.7684 22.7879C15.235 22.4996 15.3792 21.8885 15.0909 21.4219L14.9207 21.527C15.151 21.8997 15.0359 22.3875 14.6632 22.6178L14.7684 22.7879ZM15.0909 21.4219L13.8117 19.352L13.6416 19.4571L14.9207 21.527L15.0909 21.4219ZM13.8117 19.352C13.703 19.176 13.4722 19.1215 13.2962 19.2303L13.4014 19.4004C13.4834 19.3497 13.5909 19.3751 13.6416 19.4571L13.8117 19.352ZM13.2962 19.2303C13.1203 19.339 13.0658 19.5698 13.1746 19.7457L13.3447 19.6406C13.294 19.5586 13.3194 19.4511 13.4014 19.4004L13.2962 19.2303ZM13.1746 19.7457L14.4537 21.8157L14.6239 21.7105L13.3447 19.6406L13.1746 19.7457ZM14.4537 21.8157C14.5245 21.9302 14.4891 22.08 14.3746 22.1508L14.4798 22.3209C14.6883 22.1921 14.7527 21.919 14.6239 21.7105L14.4537 21.8157ZM14.3746 22.1508L13.7832 22.5163L13.8884 22.6864L14.4798 22.3209L14.3746 22.1508ZM13.7832 22.5163C13.6687 22.587 13.5189 22.5517 13.4482 22.4372L13.278 22.5423C13.4068 22.7508 13.6799 22.8152 13.8884 22.6864L13.7832 22.5163ZM13.4482 22.4372L11.6433 19.5165L11.4731 19.6216L13.278 22.5423L13.4482 22.4372ZM11.6108 19.6541L13.7697 18.3198L13.6645 18.1497L11.5056 19.484L11.6108 19.6541ZM13.7652 18.3224C15.8696 17.1664 18.2278 16.4538 20.7048 16.2829L20.691 16.0833C18.1845 16.2563 15.7982 16.9774 13.6689 18.1471L13.7652 18.3224ZM20.7048 16.2829C21.6436 16.2181 22.1749 15.179 21.681 14.3799L21.5109 14.485C21.9258 15.1564 21.4793 16.0289 20.691 16.0833L20.7048 16.2829ZM21.681 14.3799L20.5626 12.5701L20.3925 12.6752L21.5109 14.485L21.681 14.3799ZM20.2573 10.7824C20.5174 11.2033 20.4447 11.738 20.112 12.0763L20.2546 12.2166C20.6502 11.8143 20.7372 11.1786 20.4275 10.6773L20.2573 10.7824ZM20.2683 12.0939L19.0892 10.1857L18.919 10.2909L20.0982 12.199L20.2683 12.0939ZM19.0351 10.3334C19.48 10.1882 19.993 10.3546 20.2573 10.7824L20.4275 10.6773C20.1128 10.168 19.5024 9.97057 18.9731 10.1432L19.0351 10.3334ZM22.9369 9.3445L22.2392 9.77568L22.3444 9.94581L23.042 9.51463L22.9369 9.3445ZM22.2392 9.77567C22.1572 9.82637 22.0497 9.80093 21.9991 9.71898L21.8289 9.82411C21.9376 10 22.1683 10.0546 22.3444 9.94581L22.2392 9.77567ZM21.9991 9.71896C21.9484 9.63701 21.9738 9.52946 22.0558 9.47879L21.9506 9.30866C21.7747 9.41738 21.7202 9.64818 21.8289 9.82413L21.9991 9.71896ZM22.0558 9.47879L22.7534 9.04761L22.6482 8.87749L21.9506 9.30866L22.0558 9.47879ZM22.7534 9.04762C22.8354 8.99692 22.9429 9.02236 22.9935 9.10431L23.1637 8.99918C23.055 8.82328 22.8243 8.76871 22.6483 8.87748L22.7534 9.04762ZM22.9936 9.10432C23.0442 9.18629 23.0188 9.29384 22.9369 9.3445L23.042 9.51463C23.2179 9.4059 23.2724 9.17511 23.1637 8.99918L22.9936 9.10432ZM19.9869 7.98016L20.1406 7.32892L19.946 7.28296L19.7922 7.93419L19.9869 7.98016ZM20.1406 7.32893C20.1628 7.23513 20.2567 7.17705 20.3506 7.19918L20.3965 7.00451C20.1952 6.95708 19.9935 7.08163 19.946 7.28296L20.1406 7.32893ZM20.3506 7.19917C20.4444 7.22132 20.5025 7.31532 20.4803 7.4091L20.6749 7.45508C20.7225 7.2538 20.5979 7.05207 20.3966 7.00452L20.3506 7.19917ZM20.4803 7.40911L20.3265 8.06034L20.5212 8.1063L20.6749 7.45507L20.4803 7.40911ZM20.3265 8.06034C20.3044 8.15391 20.2107 8.21225 20.1165 8.19008L20.0707 8.38476C20.2726 8.43227 20.4738 8.3071 20.5212 8.10631L20.3265 8.06034ZM20.1166 8.1901C20.0228 8.16795 19.9647 8.07397 19.9869 7.98014L19.7922 7.93421C19.7447 8.1355 19.8693 8.33719 20.0706 8.38474L20.1166 8.1901ZM23.5154 12.3204C23.4969 12.3988 23.428 12.4525 23.3509 12.4548L23.3569 12.6547C23.5222 12.6498 23.6702 12.5351 23.71 12.3664L23.5154 12.3204ZM23.3509 12.4548C23.3372 12.4552 23.3382 12.4553 23.3328 12.4546C23.3232 12.4533 23.3051 12.4499 23.2616 12.44C23.1761 12.4205 23.0091 12.3802 22.6542 12.2964L22.6083 12.491C22.9613 12.5744 23.1308 12.6153 23.2173 12.635C23.2597 12.6447 23.2864 12.6502 23.3064 12.6529C23.3305 12.6561 23.3458 12.6551 23.3569 12.6547L23.3509 12.4548ZM22.6542 12.2964C22.5604 12.2742 22.5023 12.1803 22.5245 12.0865L22.3298 12.0405C22.2823 12.2418 22.407 12.4435 22.6082 12.491L22.6542 12.2964ZM22.5245 12.0865C22.5466 11.9927 22.6406 11.9346 22.7344 11.9567L22.7803 11.762C22.5791 11.7147 22.3774 11.8391 22.3298 12.0405L22.5245 12.0865ZM22.7344 11.9567L23.3856 12.1105L23.4316 11.9158L22.7804 11.7621L22.7344 11.9567ZM23.3856 12.1104C23.4794 12.1326 23.5375 12.2266 23.5154 12.3204L23.71 12.3664C23.7576 12.1651 23.6328 11.9634 23.4316 11.9158L23.3856 12.1104Z" fill="#2A2A2A" mask="url(#path-2-outside-1)"/>
</svg>
