<svg width="30" height="30" viewBox="0 0 30 30" fill="none" xmlns="http://www.w3.org/2000/svg">
<rect width="30" height="30" rx="15" fill="#F8F8F8"/>
<path d="M20.9023 10.431L17.569 7.09766C17.5065 7.03516 17.4219 7 17.3333 7H10.3333C9.59831 7 9 7.59797 9 8.33334V21.6667C9 22.402 9.59831 23 10.3333 23H19.6667C20.4017 23 21 22.402 21 21.6667V10.6667C21 10.5781 20.9648 10.4935 20.9023 10.431ZM17.6667 8.13803L19.862 10.3333H18.3333C17.9655 10.3333 17.6667 10.0342 17.6667 9.66669V8.13803ZM20.3333 21.6667C20.3333 22.0342 20.0345 22.3333 19.6667 22.3333H10.3333C9.9655 22.3333 9.66669 22.0342 9.66669 21.6667V8.33334C9.66669 7.96584 9.96553 7.66669 10.3333 7.66669H17V9.66669C17 10.402 17.5983 11 18.3333 11H20.3333V21.6667Z" fill="#2A2A2A"/>
<path d="M18.6667 16.3333H11.3333C11.1491 16.3333 11 16.4823 11 16.6666C11 16.8508 11.1491 16.9999 11.3333 16.9999H18.6667C18.8509 16.9999 19 16.8508 19 16.6666C19 16.4823 18.8509 16.3333 18.6667 16.3333Z" fill="#2A2A2A"/>
<path d="M18.6667 14.3333H11.3333C11.1491 14.3333 11 14.4823 11 14.6666C11 14.8508 11.1491 14.9999 11.3333 14.9999H18.6667C18.8509 14.9999 19 14.8508 19 14.6666C19 14.4823 18.8509 14.3333 18.6667 14.3333Z" fill="#2A2A2A"/>
<path d="M18.6667 18.3333H11.3333C11.1491 18.3333 11 18.4823 11 18.6666C11 18.8508 11.1491 18.9999 11.3333 18.9999H18.6667C18.8509 18.9999 19 18.8508 19 18.6666C19 18.4823 18.8509 18.3333 18.6667 18.3333Z" fill="#2A2A2A"/>
<path d="M15.3333 20.3333H11.3333C11.1491 20.3333 11 20.4823 11 20.6666C11 20.8508 11.1491 20.9999 11.3333 20.9999H15.3333C15.5176 20.9999 15.6667 20.8508 15.6667 20.6666C15.6667 20.4823 15.5176 20.3333 15.3333 20.3333Z" fill="#2A2A2A"/>
<path d="M14.3333 12.6666C14.3333 12.8508 14.4823 12.9999 14.6666 12.9999H18.6666C18.8508 12.9999 18.9999 12.8508 18.9999 12.6666C18.9999 12.4823 18.8508 12.3333 18.6666 12.3333H14.6666C14.4823 12.3333 14.3333 12.4824 14.3333 12.6666Z" fill="#2A2A2A"/>
<path d="M12.25 10.6875C11.9112 10.6875 11.625 10.4731 11.625 10.2188C11.625 9.96438 11.9112 9.75 12.25 9.75C12.42 9.75 12.5788 9.8025 12.6963 9.89875C12.83 10.0075 13.0263 9.98687 13.1363 9.85375C13.245 9.72 13.225 9.52312 13.0913 9.41375C12.9406 9.29125 12.7581 9.20875 12.5625 9.16437V8.8125C12.5625 8.64 12.4225 8.5 12.25 8.5C12.0775 8.5 11.9375 8.64 11.9375 8.8125V9.16375C11.4 9.28625 11 9.71062 11 10.2188C11 10.8219 11.5606 11.3125 12.25 11.3125C12.5888 11.3125 12.875 11.5269 12.875 11.7812C12.875 12.0356 12.5888 12.25 12.25 12.25C12.08 12.25 11.9212 12.1975 11.8037 12.1013C11.6694 11.9919 11.4731 12.0125 11.3644 12.1463C11.255 12.28 11.275 12.4769 11.4087 12.5863C11.5594 12.7088 11.7419 12.7912 11.9375 12.8362V13.1875C11.9375 13.36 12.0775 13.5 12.25 13.5C12.4225 13.5 12.5625 13.36 12.5625 13.1875V12.8362C13.1 12.7137 13.5 12.2894 13.5 11.7812C13.5 11.1781 12.9394 10.6875 12.25 10.6875Z" fill="#2A2A2A"/>
</svg>
