<svg width="30" height="30" viewBox="0 0 30 30" fill="none" xmlns="http://www.w3.org/2000/svg">
<rect width="30" height="30" rx="15" fill="#F8F8F8"/>
<path fill-rule="evenodd" clip-rule="evenodd" d="M9 21.407C9 22.1293 9.58608 22.7144 10.3085 22.7144H19.136C19.858 22.7144 20.4445 22.1292 20.4445 21.407V12.2496C20.4445 11.8961 20.2706 11.4789 20.0189 11.2294L17.1834 8.41939C16.9331 8.1713 16.5172 8 16.1646 8H10.3087C9.58709 8 9 8.58524 9 9.30739V21.407ZM10.3087 8.65397C9.94817 8.65397 9.65397 8.94652 9.65397 9.30739V21.407C9.65397 21.7679 9.94702 22.0604 10.3085 22.0604H19.136C19.497 22.0604 19.7905 21.7679 19.7905 21.407V12.2515H17.0089C16.4679 12.2515 16.0295 11.8133 16.0295 11.2721V8.65397H10.3087ZM19.5357 11.5975H17.0089C16.829 11.5975 16.6835 11.452 16.6835 11.2721V8.78574L19.5357 11.5975ZM17.5061 14.4935C17.6867 14.4935 17.8331 14.3471 17.8331 14.1665C17.8331 13.9859 17.6867 13.8395 17.5061 13.8395H11.7839C11.6033 13.8395 11.4569 13.9859 11.4569 14.1665C11.4569 14.3471 11.6033 14.4935 11.7839 14.4935H17.5061ZM14.8902 12.2536C15.0708 12.2536 15.2172 12.1072 15.2172 11.9266C15.2172 11.746 15.0708 11.5996 14.8902 11.5996H11.7839C11.6033 11.5996 11.4569 11.746 11.4569 11.9266C11.4569 12.1072 11.6033 12.2536 11.7839 12.2536H14.8902ZM17.5061 16.7824C17.6867 16.7824 17.8331 16.636 17.8331 16.4554C17.8331 16.2748 17.6867 16.1284 17.5061 16.1284H11.7839C11.6033 16.1284 11.4569 16.2748 11.4569 16.4554C11.4569 16.636 11.6033 16.7824 11.7839 16.7824H17.5061ZM17.5061 19.0713C17.6867 19.0713 17.8331 18.9249 17.8331 18.7443C17.8331 18.5637 17.6867 18.4173 17.5061 18.4173H11.7839C11.6033 18.4173 11.4569 18.5637 11.4569 18.7443C11.4569 18.9249 11.6033 19.0713 11.7839 19.0713H17.5061Z" fill="black"/>
</svg>
