<svg width="30" height="30" viewBox="0 0 30 30" fill="none" xmlns="http://www.w3.org/2000/svg">
<rect width="30" height="30" rx="15" fill="#F8F8F8"/>
<path d="M16.4008 16.8357H13.5465C13.3076 16.8357 13.114 16.6269 13.114 16.3692V10.3285C13.114 10.0708 13.3076 9.862 13.5465 9.862H16.4008C16.6397 9.862 16.8333 10.0708 16.8333 10.3285V16.3692C16.8333 16.6269 16.6397 16.8357 16.4008 16.8357ZM15.9684 10.7949H13.979V15.9028H15.9684V10.7949Z" fill="#2A2A2A"/>
<path d="M21.5465 19H18.8813C18.6599 19 18.4805 18.8206 18.4805 18.5992V10.2628C18.4805 10.0415 18.6599 9.86206 18.8813 9.86206H21.5465C21.7679 9.86206 21.9473 10.0415 21.9473 10.2628V18.5992C21.9473 18.8205 21.7679 19 21.5465 19ZM21.1457 10.6636H19.282V18.1984H21.1457V10.6636Z" fill="#2A2A2A"/>
<path d="M10.8782 18.2305H8.37623C8.16844 18.2305 8 18.0661 8 17.8634L8 10.2291C8 10.0264 8.16844 9.86204 8.37623 9.86204H10.8782C11.086 9.86204 11.2544 10.0264 11.2544 10.2291V17.8634C11.2544 18.0661 11.086 18.2305 10.8782 18.2305ZM10.5019 10.5961H8.75246V17.4964H10.5019V10.5961Z" fill="#2A2A2A"/>
</svg>
