<svg width="30" height="30" viewBox="0 0 30 30" fill="none" xmlns="http://www.w3.org/2000/svg">
<rect width="30" height="30" rx="15" fill="#F8F8F8"/>
<path d="M16.0894 22.918C15.7112 23.0359 15.323 22.8322 15.2051 22.4541C15.2013 22.4419 15.1879 22.3965 15.1855 22.384L13.9497 16.1885L10.6168 17.2276C10.2386 17.3456 9.85042 17.1419 9.73251 16.7637C9.68773 16.6201 9.69091 16.4571 9.74168 16.3163L12.606 6.56494C12.6855 6.33823 12.8562 6.17406 13.0672 6.10827C13.4454 5.99035 13.8336 6.19402 13.9515 6.5722C13.9557 6.58569 13.9716 6.63915 13.9745 6.65306L15.0007 12.1624L19.0037 10.9143C19.3819 10.7964 19.7701 11 19.888 11.3782C19.9324 11.5205 19.9292 11.6835 19.8793 11.8247L16.5489 22.4678C16.4711 22.688 16.3004 22.8522 16.0894 22.918ZM13.2796 6.78244L10.4128 16.5353L14.1144 15.3975C14.2101 15.3676 14.3137 15.3797 14.4 15.4312C14.4864 15.4827 14.5468 15.5674 14.5656 15.6658L15.8778 22.2465L19.2139 11.5884C19.2133 11.5864 19.2131 11.5857 19.2131 11.5857L14.832 12.9547C14.7356 12.9847 14.6311 12.9722 14.5446 12.92C14.4581 12.8679 14.3979 12.7816 14.3795 12.6823L13.2796 6.78244Z" fill="#2A2A2A"/>
</svg>
