<svg width="30" height="30" viewBox="0 0 30 30" fill="none" xmlns="http://www.w3.org/2000/svg">
<rect width="30" height="30" rx="15" fill="#F8F8F8"/>
<path d="M20.3469 9.46365H19.0725V8.41328C19.0725 8.18515 18.8874 8 18.6592 8C18.4311 8 18.2459 8.18515 18.2459 8.41328V9.46365H11.7541V8.41328C11.7541 8.18515 11.5689 8 11.3408 8C11.1126 8 10.9275 8.18515 10.9275 8.41328V9.46365H9.65314C8.74164 9.46365 8 10.2053 8 11.1168V20.3469C8 21.2584 8.74164 22 9.65314 22H20.3469C21.2584 22 22 21.2584 22 20.3469V11.1168C22 10.2053 21.2584 9.46365 20.3469 9.46365ZM21.1734 20.3469C21.1734 20.8027 20.8027 21.1734 20.3469 21.1734H9.65314C9.19728 21.1734 8.82657 20.8027 8.82657 20.3469V13.2177H21.1734V20.3469ZM21.1734 12.3911H8.82657V11.1168C8.82657 10.6609 9.19728 10.2902 9.65314 10.2902H20.3469C20.8027 10.2902 21.1734 10.6609 21.1734 11.1168V12.3911Z" fill="#2A2A2A"/>
<path d="M17.5698 19.3392H19.0163C19.2436 19.3392 19.4296 19.1532 19.4296 18.9259V17.4794C19.4296 17.2521 19.2436 17.0662 19.0163 17.0662H17.5698C17.3425 17.0662 17.1565 17.2521 17.1565 17.4794V18.9259C17.1565 19.1532 17.3425 19.3392 17.5698 19.3392Z" fill="#2A2A2A"/>
</svg>
