<svg width="50" height="50" viewBox="0 0 50 50" fill="none" xmlns="http://www.w3.org/2000/svg">
<path d="M25 50C38.8071 50 50 38.8071 50 25C50 11.1929 38.8071 0 25 0C11.1929 0 0 11.1929 0 25C0 38.8071 11.1929 50 25 50Z" fill="#FFEBD2"/>
<path d="M31.7842 17.6694H28.4501V12.9461C28.4501 11.9818 28.0742 11.0744 27.3918 10.3913C26.7099 9.71008 25.8026 9.33428 24.8382 9.33428C22.8465 9.33428 21.2262 10.9546 21.2262 12.9462V17.6695H17.8922V12.9462C17.8922 9.1162 21.0082 6.00019 24.8382 6.00019C26.6924 6.00019 28.4365 6.72234 29.7494 8.03375C31.062 9.34777 31.7842 11.0919 31.7842 12.9462V17.6694Z" fill="#685E68"/>
<path d="M25.8592 6.07398C22.5083 6.56657 19.9275 9.46083 19.9275 12.946V17.6695H17.8921V12.946C17.8921 9.11615 21.0082 6 24.8381 6C25.1835 6 25.524 6.02511 25.8592 6.07398Z" fill="#554E56"/>
<path d="M33.4511 17.5084V31.5006C33.4511 32.0869 32.9763 32.5616 32.3901 32.5616H17.2868C16.7005 32.5616 16.2251 32.0869 16.2251 31.5006V17.5084C16.2251 16.9221 16.7005 16.4467 17.2868 16.4467H32.3901C32.9763 16.4467 33.4511 16.9221 33.4511 17.5084Z" fill="#FE646F"/>
<path d="M26.5697 28.6002H23.1068C22.9142 28.6002 22.7649 28.4333 22.7859 28.242L23.3082 23.5957C23.3188 23.5016 23.2954 23.4074 23.244 23.3278C23.0346 23.0029 22.9217 22.6095 22.9467 22.1878C23.0029 21.2421 23.7715 20.471 24.7171 20.4123C25.8189 20.3439 26.7332 21.2165 26.7332 22.3035C26.7332 22.6811 26.6226 23.0325 26.4326 23.3274C26.3813 23.4072 26.3577 23.5015 26.3683 23.5957L26.8906 28.242C26.9116 28.4333 26.7623 28.6002 26.5697 28.6002Z" fill="#554E56"/>
<path d="M19.2726 32.5616H17.2868C16.7005 32.5616 16.2251 32.0869 16.2251 31.5006V17.5084C16.2251 16.9221 16.7005 16.4467 17.2868 16.4467H19.2726C18.677 16.4467 18.1936 16.9301 18.1936 17.5258V31.4832C18.1936 32.0788 18.677 32.5616 19.2726 32.5616Z" fill="#FD4755"/>
<path d="M41.6768 28.1059V35.3841C41.6768 36.2762 40.953 37 40.0602 37H9.6159C8.72315 37 8 36.2762 8 35.3841V28.1059C8 27.2131 8.72315 26.4893 9.6159 26.4893H40.0602C40.953 26.4893 41.6768 27.2131 41.6768 28.1059Z" fill="#A2F4C1"/>
<path d="M11.6104 37H9.6159C8.72315 37 8 36.2762 8 35.3841V28.1059C8 27.2131 8.72315 26.4893 9.6159 26.4893H11.6104C10.7036 26.4893 9.96779 27.2245 9.96779 28.1319V35.3581C9.96779 36.2655 10.7036 37 11.6104 37Z" fill="#78D0B1"/>
<path d="M15.5744 32.8326L14.1531 32.0119L15.5744 31.1913C15.814 31.053 15.896 30.7467 15.7577 30.5072C15.6194 30.2677 15.3131 30.1856 15.0736 30.3239L13.6523 31.1446V29.5034C13.6523 29.2269 13.4281 29.0026 13.1515 29.0026C12.875 29.0026 12.6507 29.2269 12.6507 29.5034V31.1446L11.2294 30.324C10.9899 30.1857 10.6836 30.2677 10.5453 30.5073C10.407 30.7468 10.4891 31.0531 10.7286 31.1914L12.1499 32.012L10.7286 32.8326C10.4891 32.9709 10.407 33.2772 10.5453 33.5167C10.6381 33.6774 10.8064 33.7672 10.9795 33.7672C11.0644 33.7672 11.1506 33.7456 11.2294 33.7L12.6507 32.8795V34.5206C12.6507 34.7972 12.875 35.0214 13.1515 35.0214C13.4281 35.0214 13.6523 34.7972 13.6523 34.5206V32.8795L15.0736 33.7C15.1525 33.7456 15.2386 33.7672 15.3236 33.7672C15.4966 33.7672 15.665 33.6774 15.7577 33.5167C15.8961 33.2772 15.814 32.9708 15.5744 32.8326Z" fill="#2A2A2A"/>
<path d="M31.1415 32.8326L29.7202 32.0119L31.1415 31.1913C31.381 31.053 31.4631 30.7467 31.3248 30.5072C31.1865 30.2677 30.8802 30.1856 30.6407 30.3239L29.2194 31.1445V29.5034C29.2194 29.2268 28.9952 29.0026 28.7186 29.0026C28.442 29.0026 28.2178 29.2268 28.2178 29.5034V31.1445L26.7965 30.3239C26.557 30.1856 26.2507 30.2676 26.1124 30.5072C25.9741 30.7467 26.0562 31.053 26.2957 31.1913L27.717 32.0119L26.2957 32.8326C26.0562 32.9709 25.9741 33.2771 26.1124 33.5167C26.2052 33.6773 26.3735 33.7671 26.5466 33.7671C26.6315 33.7671 26.7176 33.7455 26.7965 33.7L28.2178 32.8794V34.5205C28.2178 34.7971 28.442 35.0213 28.7186 35.0213C28.9952 35.0213 29.2194 34.7971 29.2194 34.5205V32.8794L30.6407 33.7C30.7196 33.7455 30.8057 33.7671 30.8907 33.7671C31.0637 33.7671 31.2321 33.6773 31.3248 33.5167C31.4632 33.2771 31.3811 32.9708 31.1415 32.8326Z" fill="#2A2A2A"/>
<path d="M23.358 32.8326L21.9367 32.0119L23.358 31.1913C23.5975 31.053 23.6796 30.7467 23.5413 30.5072C23.403 30.2677 23.0967 30.1856 22.8572 30.3239L21.4359 31.1445V29.5034C21.4359 29.2268 21.2117 29.0026 20.9351 29.0026C20.6585 29.0026 20.4343 29.2268 20.4343 29.5034V31.1445L19.013 30.3239C18.7735 30.1856 18.4672 30.2676 18.3289 30.5072C18.1906 30.7467 18.2727 31.053 18.5122 31.1913L19.9335 32.0119L18.5122 32.8326C18.2727 32.9709 18.1906 33.2771 18.3289 33.5167C18.4216 33.6773 18.59 33.7671 18.763 33.7671C18.848 33.7671 18.9341 33.7455 19.013 33.7L20.4343 32.8794V34.5205C20.4343 34.7971 20.6585 35.0213 20.9351 35.0213C21.2117 35.0213 21.4359 34.7971 21.4359 34.5205V32.8794L22.8572 33.7C22.9361 33.7455 23.0222 33.7671 23.1071 33.7671C23.2802 33.7671 23.4486 33.6773 23.5413 33.5167C23.6796 33.2771 23.5975 32.9708 23.358 32.8326Z" fill="#2A2A2A"/>
<path d="M38.7172 32.665L37.3303 31.8642L38.7172 31.0635C38.9567 30.9252 39.0388 30.6189 38.9005 30.3794C38.7622 30.1398 38.4559 30.0578 38.2164 30.1961L36.8295 30.9969V29.3954C36.8295 29.1188 36.6053 28.8946 36.3287 28.8946C36.0521 28.8946 35.8279 29.1188 35.8279 29.3954V30.9969L34.441 30.1962C34.2014 30.0578 33.8952 30.14 33.7569 30.3795C33.6186 30.619 33.7007 30.9253 33.9402 31.0636L35.3271 31.8643L33.9402 32.665C33.7007 32.8033 33.6186 33.1096 33.7569 33.3491C33.8496 33.5098 34.018 33.5996 34.191 33.5996C34.276 33.5996 34.3621 33.578 34.441 33.5324L35.8279 32.7317V34.3332C35.8279 34.6098 36.0521 34.834 36.3287 34.834C36.6053 34.834 36.8295 34.6098 36.8295 34.3332V32.7317L38.2164 33.5325C38.2953 33.578 38.3814 33.5997 38.4663 33.5997C38.6394 33.5997 38.8078 33.5098 38.9005 33.3492C39.0389 33.1095 38.9568 32.8033 38.7172 32.665Z" fill="#2A2A2A"/>
</svg>
