<svg width="30" height="30" viewBox="0 0 30 30" fill="none" xmlns="http://www.w3.org/2000/svg">
<rect width="30" height="30" rx="15" fill="#F8F8F8"/>
<path d="M9.96106 18.85C10.0133 18.8978 10.0494 18.9607 10.0642 19.03C10.079 19.0992 10.0718 19.1714 10.0437 19.2364C9.95686 19.445 9.88266 19.6564 9.77626 19.8566C9.51866 20.3368 9.13086 20.6966 8.74026 21.0564C8.56106 21.2272 8.37066 21.398 8.20406 21.58C8.03746 21.762 8.07946 21.8432 8.31046 21.902C8.56619 21.9673 8.82912 22.0002 9.09306 22C9.43186 21.9949 9.7694 21.9574 10.1011 21.888C11.2211 21.6682 12.2851 21.2384 13.3211 20.7484C13.408 20.7047 13.5037 20.6813 13.6011 20.6798C13.6348 20.6799 13.6685 20.6827 13.7019 20.6882C14.1337 20.7584 14.5705 20.794 15.0081 20.7946C15.5845 20.7975 16.1592 20.7322 16.7203 20.6C18.5809 20.1534 20.0901 19.1608 21.1289 17.478C21.8814 16.283 22.1619 14.8506 21.9157 13.46C21.6273 11.724 20.7131 10.387 19.3411 9.4C18.1071 8.49312 16.6164 8.00276 15.0851 8C14.7211 8.0238 14.3543 8.0266 13.9931 8.077C12.4279 8.2926 11.0349 8.917 9.88406 10.044C8.80466 11.1052 8.14106 12.3904 8.02066 13.9458C7.90117 15.3601 8.303 16.7692 9.15046 17.9078C9.40418 18.2357 9.67475 18.5502 9.96106 18.85ZM8.85786 14.0116C8.96006 12.7124 9.48786 11.6106 10.4721 10.6432C11.4563 9.6758 12.6435 9.1032 14.1121 8.9086C14.3221 8.8792 14.5475 8.8694 14.7855 8.8568L15.1089 8.84C16.4531 8.84928 17.7604 9.28128 18.8455 10.0748C20.1055 10.989 20.8461 12.1398 21.0855 13.5944C21.2974 14.7858 21.0573 16.0133 20.4121 17.037C19.5287 18.4692 18.2575 19.3666 16.5229 19.781C16.0293 19.8979 15.5237 19.9566 15.0165 19.956C14.6234 19.9549 14.2311 19.9226 13.8433 19.8594C13.5451 19.8108 13.2393 19.8563 12.9683 19.9896C12.1549 20.3746 11.0755 20.8436 9.94706 21.0634H9.93306C10.1619 20.8191 10.3594 20.5473 10.5211 20.2542C10.6096 20.083 10.6881 19.9067 10.7563 19.7264C10.7787 19.6704 10.7997 19.6158 10.8235 19.5612C10.9137 19.3503 10.94 19.1176 10.8992 18.8918C10.8584 18.6661 10.7522 18.4574 10.5939 18.2914C10.5211 18.2102 10.4539 18.1304 10.3741 18.0492C10.1829 17.8492 10.0034 17.6384 9.83646 17.4178C9.10109 16.4421 8.75254 15.2289 8.85786 14.0116Z" fill="#2A2A2A"/>
<path d="M14.9927 15.8051C15.1523 15.8068 15.3087 15.761 15.4422 15.6735C15.5757 15.5861 15.6802 15.461 15.7424 15.314C15.8046 15.1671 15.8218 15.0049 15.7917 14.8482C15.7616 14.6915 15.6856 14.5473 15.5733 14.4339C15.4611 14.3204 15.3177 14.2429 15.1613 14.2112C15.0049 14.1794 14.8426 14.1949 14.695 14.2555C14.5474 14.3162 14.4212 14.4194 14.3323 14.552C14.2435 14.6845 14.1961 14.8405 14.196 15.0001C14.1978 15.2116 14.2821 15.4141 14.4309 15.5644C14.5796 15.7148 14.7812 15.8011 14.9927 15.8051Z" fill="#2A2A2A"/>
<path d="M12.1619 15.8037C12.3214 15.8045 12.4775 15.758 12.6105 15.67C12.7435 15.5819 12.8473 15.4564 12.9088 15.3093C12.9704 15.1622 12.9868 15.0001 12.9561 14.8437C12.9254 14.6872 12.8489 14.5433 12.7364 14.4304C12.6238 14.3174 12.4803 14.2405 12.3239 14.2092C12.1675 14.178 12.0054 14.1939 11.8581 14.2549C11.7107 14.3159 11.5849 14.4193 11.4964 14.552C11.4079 14.6846 11.3608 14.8406 11.3611 15C11.3611 15.2127 11.4454 15.4167 11.5955 15.5673C11.7456 15.718 11.9493 15.8029 12.1619 15.8037Z" fill="#2A2A2A"/>
<path d="M17.8402 15.8052C17.9996 15.806 18.1556 15.7595 18.2886 15.6715C18.4215 15.5836 18.5253 15.4581 18.5869 15.3111C18.6485 15.1641 18.665 15.0021 18.6344 14.8456C18.6039 14.6892 18.5275 14.5454 18.4151 14.4324C18.3027 14.3193 18.1592 14.2423 18.003 14.2108C17.8467 14.1794 17.6846 14.1951 17.5373 14.2559C17.3899 14.3168 17.2639 14.4199 17.1753 14.5524C17.0866 14.6849 17.0393 14.8407 17.0393 15.0001C17.0393 15.2129 17.1235 15.417 17.2736 15.5679C17.4237 15.7187 17.6274 15.804 17.8402 15.8052Z" fill="#2A2A2A"/>
</svg>
