<svg width="13" height="13" viewBox="0 0 13 13" fill="none" xmlns="http://www.w3.org/2000/svg">
<path d="M1.12728 1.12741C1.66094 0.593755 2.52613 0.593771 3.05976 1.12741L6.53822 4.60588L10.0167 1.12741C10.5503 0.593771 11.4155 0.593752 11.9492 1.12741C12.4828 1.66106 12.4828 2.52626 11.9492 3.05989L8.4707 6.53835L11.9492 10.0168C12.4828 10.5504 12.4828 11.4156 11.9492 11.9493C11.4155 12.4829 10.5503 12.4829 10.0167 11.9493L6.53822 8.47082L3.05976 11.9493C2.52613 12.4829 1.66094 12.4829 1.12728 11.9493C0.593633 11.4156 0.593649 10.5504 1.12728 10.0168L4.60575 6.53835L1.12728 3.05989C0.593649 2.52626 0.59363 1.66106 1.12728 1.12741Z" fill="white"/>
</svg>
