<svg width="21" height="25" viewBox="0 0 21 25" fill="none" xmlns="http://www.w3.org/2000/svg">
<path d="M3.5664 4.40297L3.56642 4.40293H3.40427C2.71493 4.40293 2.08866 4.68475 1.63525 5.13818C1.63525 5.13818 1.63525 5.13818 1.63525 5.13818L1.70596 5.20889L3.5664 4.40297ZM15.8688 21.0204V22.0195C15.8688 22.4511 15.6921 22.8441 15.4066 23.1296C15.1211 23.415 14.7282 23.5918 14.2965 23.5918H3.40425C2.97262 23.5918 2.57966 23.415 2.29421 23.1296C2.00873 22.8441 1.83199 22.4511 1.83199 22.0195V6.90725C1.83199 6.4756 2.00873 6.08267 2.29421 5.79719L2.29421 5.79719C2.57967 5.51172 2.97262 5.33497 3.40425 5.33497H5.1995V18.5161C5.1995 19.2055 5.48133 19.8317 5.93475 20.2852C6.38818 20.7386 7.01443 21.0204 7.70379 21.0204H15.8688Z" fill="#959596" stroke="#959596" stroke-width="0.2"/>
<path d="M18.2965 0.9H7.40432C7.40432 0.9 7.40432 0.9 7.40432 0.9C6.71496 0.900001 6.08869 1.18184 5.63527 1.63527C5.18184 2.08869 4.9 2.71496 4.9 3.40432V18.5165C4.9 19.2059 5.18184 19.8321 5.63527 20.2855C6.08869 20.739 6.71496 21.0208 7.40432 21.0208H18.2965C18.9859 21.0208 19.6122 20.739 20.0656 20.2855C20.519 19.8321 20.8009 19.2059 20.8009 18.5165V3.40432C20.8009 2.71496 20.519 2.08869 20.0656 1.63527C19.6122 1.18184 18.9859 0.9 18.2965 0.9ZM7.40432 1.832H18.2965C18.7282 1.832 19.1211 2.00877 19.4066 2.29424C19.6921 2.57972 19.8688 2.97267 19.8688 3.40432V18.5165C19.8688 18.9481 19.6921 19.3411 19.4066 19.6266C19.1212 19.912 18.7282 20.0888 18.2965 20.0888H7.40432C6.97267 20.0888 6.57971 19.912 6.29424 19.6266C6.00876 19.3411 5.832 18.9481 5.832 18.5165V3.40432C5.832 2.97267 6.00876 2.57972 6.29424 2.29424C6.57971 2.00877 6.97267 1.832 7.40432 1.832Z" fill="#959596" stroke="#959596" stroke-width="0.2"/>
</svg>
