<svg width="9" height="9" viewBox="0 0 9 9" fill="none" xmlns="http://www.w3.org/2000/svg">
<path d="M3.67547 4.50007L0.171046 0.995468C-0.0570154 0.767509 -0.0570154 0.398929 0.171046 0.17097C0.399001 -0.0569899 0.767572 -0.0569899 0.995527 0.17097L4.50005 3.67557L8.00447 0.17097C8.23253 -0.0569899 8.601 -0.0569899 8.82895 0.17097C9.05702 0.398929 9.05702 0.767509 8.82895 0.995468L5.32453 4.50007L8.82895 8.00467C9.05702 8.23263 9.05702 8.6012 8.82895 8.82916C8.71535 8.94288 8.56598 9 8.41671 9C8.26745 9 8.11818 8.94288 8.00447 8.82916L4.50005 5.32456L0.995527 8.82916C0.881817 8.94288 0.732553 9 0.583287 9C0.434022 9 0.284757 8.94288 0.171046 8.82916C-0.0570154 8.6012 -0.0570154 8.23263 0.171046 8.00467L3.67547 4.50007Z" fill="#959596"/>
</svg>
