<svg width="19" height="23" viewBox="0 0 19 23" fill="none" xmlns="http://www.w3.org/2000/svg">
<path d="M5.97866 0.9L5.97872 0.9L13.2238 0.9C13.3348 0.9 13.4413 0.944099 13.5198 1.02259L13.5198 1.0226C13.5983 1.10109 13.6424 1.20755 13.6424 1.31857V3.11485H17.8839H17.884V3.21485L5.97866 0.9ZM5.97866 0.9C5.86769 0.900063 5.76128 0.944176 5.6828 1.02265C5.60433 1.10112 5.56022 1.20753 5.56016 1.31851V1.31857M5.97866 0.9L5.56016 1.31857M5.56016 1.31857V3.11485M5.56016 1.31857V3.11485M5.56016 3.11485H1.31857C1.20755 3.11485 1.10109 3.15895 1.0226 3.23744C0.944099 3.31594 0.9 3.4224 0.9 3.53341L0.9 5.83455L0.9 5.83461C0.900063 5.94558 0.944176 6.05199 1.02265 6.13047C1.10112 6.20894 1.20753 6.25305 1.31851 6.25311H1.31857H1.99238L2.85741 22.2754L2.85741 22.2754C2.86322 22.3824 2.9098 22.483 2.98755 22.5567C3.06531 22.6303 3.16833 22.6714 3.27544 22.6714H15.9271C16.0342 22.6715 16.1372 22.6304 16.215 22.5567C16.2927 22.483 16.3392 22.3823 16.3449 22.2754L16.3449 22.2753L5.56016 3.11485ZM6.39729 1.73713H12.8052V3.11485H6.39729V1.73713ZM16.372 6.25311L15.5305 21.8343H3.67203L2.83071 6.25311H16.372ZM17.4654 5.41598H1.73713V3.95198H5.97253H5.97872H5.97873H5.97873H5.97873H5.97874H5.97874H5.97875H5.97875H5.97875H5.97876H5.97876H5.97877H5.97878H5.97878H5.97879H5.9788H5.9788H5.97881H5.97881H5.97881H5.97882H5.97882H5.97883H5.97883H5.97884H5.97884H5.97884H5.97885H5.97885H5.97886H5.97886H5.97887H5.97887H5.97888H5.97888H5.97889H5.97889H5.9789H5.9789H5.97891H5.97891H5.97892H5.97893H5.97893H5.97894H5.97894H5.97895H5.97895H5.97896H5.97897H5.97897H5.97898H5.97899H5.97899H5.979H5.97901H5.97901H5.97902H5.97903H5.97903H5.97904H5.97905H5.97905H5.97906H5.97907H5.97908H5.97908H5.97909H5.9791H5.97911H5.97911H5.97912H5.97913H5.97914H5.97914H5.97915H5.97916H5.97917H5.97918H5.97919H5.97919H5.9792H5.97921H5.97922H5.97923H5.97924H5.97924H5.97925H5.97926H5.97927H5.97928H5.97929H5.9793H5.97931H5.97932H5.97932H5.97933H5.97934H5.97935H5.97936H5.97937H5.97938H5.97939H5.9794H5.97941H5.97942H5.97943H5.97944H5.97945H5.97946H5.97947H5.97948H5.97949H5.9795H5.97951H5.97952H5.97953H5.97954H5.97955H5.97956H5.97957H5.97958H5.9796H5.97961H5.97962H5.97963H5.97964H5.97965H5.97966H5.97967H5.97968H5.97969H5.97971H5.97972H5.97973H5.97974H5.97975H5.97976H5.97977H5.97979H5.9798H5.97981H5.97982H5.97983H5.97984H5.97986H5.97987H5.97988H5.97989H5.9799H5.97992H5.97993H5.97994H5.97995H5.97997H5.97998H5.97999H5.98H5.98002H5.98003H5.98004H5.98005H5.98007H5.98008H5.98009H5.9801H5.98012H5.98013H5.98014H5.98016H5.98017H5.98018H5.98019H5.98021H5.98022H5.98023H5.98025H5.98026H5.98027H5.98029H5.9803H5.98031H5.98033H5.98034H5.98035H5.98037H5.98038H5.9804H5.98041H5.98042H5.98044H5.98045H5.98046H5.98048H5.98049H5.98051H5.98052H5.98053H5.98055H5.98056H5.98058H5.98059H5.9806H5.98062H5.98063H5.98065H5.98066H5.98068H5.98069H5.9807H5.98072H5.98073H5.98075H5.98076H5.98078H5.98079H5.98081H5.98082H5.98083H5.98085H5.98086H5.98088H5.98089H5.98091H5.98092H5.98094H5.98095H5.98097H5.98098H5.981H5.98101H5.98103H5.98104H5.98106H5.98107H5.98109H5.9811H5.98112H5.98113H5.98115H5.98116H5.98118H5.98119H5.98121H5.98122H5.98124H5.98125H5.98127H5.98129H5.9813H5.98132H5.98133H5.98135H5.98136H5.98138H5.98139H5.98141H5.98142H5.98144H5.98146H5.98147H5.98149H5.9815H5.98152H5.98153H5.98155H5.98156H5.98158H5.9816H5.98161H5.98163H5.98164H5.98166H5.98167H5.98169H5.98171H5.98172H5.98174H5.98175H5.98177H5.98179H5.9818H5.98182H5.98183H5.98185H5.98186H5.98188H5.9819H5.98191H5.98193H5.98194H5.98196H5.98198H5.98199H5.98201H5.98202H5.98204H5.98206H5.98207H5.98209H5.9821H5.98212H5.98214H5.98215H5.98217H5.98219H5.9822H5.98222H5.98223H5.98225H5.98227H5.98228H5.9823H5.98231H5.98233H5.98235H5.98236H5.98238H5.98239H5.98241H5.98243H5.98244H5.98246H5.98248H5.98249H5.98251H5.98252H5.98254H5.98256H5.98257H5.98259H5.9826H5.98262H5.98264H5.98265H5.98267H5.98269H5.9827H5.98272H5.98273H5.98275H5.98277H5.98278H5.9828H5.98281H5.98283H5.98285H5.98286H5.98288H5.98289H5.98291H5.98293H5.98294H5.98296H5.98297H5.98299H5.98301H5.98302H5.98304H5.98305H5.98307H5.98309H5.9831H5.98312H5.98313H5.98315H5.98317H5.98318H5.9832H5.98321H5.98323H5.98325H5.98326H5.98328H5.98329H5.98331H5.98332H5.98334H5.98336H5.98337H5.98339H5.9834H5.98342H5.98343H5.98345H5.98347H5.98348H5.9835H5.98351H5.98353H5.98354H5.98356H5.98358H5.98359H5.98361H5.98362H5.98364H5.98365H5.98367H5.98368H5.9837H5.98371H5.98373H5.98375H5.98376H5.98378H5.98379H5.98381H5.98382H5.98384H5.98385H5.98387H5.98388H5.9839H5.98391H5.98393H5.98394H5.98396H5.98397H5.98399H5.984H5.98402H5.98403H5.98405H5.98406H5.98408H5.98409H5.98411H5.98412H5.98414H5.98415H5.98417H5.98418H5.9842H5.98421H5.98422H5.98424H5.98425H5.98427H5.98428H5.9843H5.98431H5.98433H5.98434H5.98435H5.98437H5.98438H5.9844H5.98441H5.98443H5.98444H5.98445H5.98447H5.98448H5.9845H5.98451H5.98452H5.98454H5.98455H5.98456H5.98458H5.98459H5.98461H5.98462H5.98463H5.98465H5.98466H5.98467H5.98469H5.9847H5.98471H5.98473H5.98474H5.98475H5.98477H5.98478H5.98479H5.98481H5.98482H5.98483H5.98485H5.98486H5.98487H5.98489H5.9849H5.98491H13.2178H13.2238H13.2238H13.2238H13.2238H13.2238H13.2238H13.2239H13.2239H13.2239H13.2239H13.2239H13.2239H13.2239H13.2239H13.2239H13.2239H13.2239H13.224H13.224H13.224H13.224H13.224H13.224H13.224H13.224H13.224H13.2241H13.2241H13.2241H13.2241H13.2241H13.2241H13.2241H13.2241H13.2242H13.2242H13.2242H13.2242H13.2242H13.2242H13.2242H13.2242H13.2242H13.2242H13.2242H13.2242H13.2243H13.2243H13.2243H13.2243H13.2243H13.2243H13.2243H13.2243H13.2243H13.2243H13.2243H13.2244H13.2244H13.2244H13.2244H13.2244H13.2244H13.2244H13.2244H13.2244H13.2244H13.2244H13.2245H13.2245H13.2245H13.2245H13.2245H13.2245H13.2245H13.2245H13.2245H13.2245H13.2246H13.2246H13.2246H13.2246H13.2246H13.2246H13.2246H13.2246H13.2246H13.2247H13.2247H13.2247H13.2247H13.2247H13.2247H13.2247H13.2247H13.2247H13.2247H13.2248H13.2248H13.2248H13.2248H13.2248H13.2248H13.2248H13.2248H13.2249H13.2249H13.2249H13.2249H13.2249H13.2249H13.2249H13.2249H13.2249H13.225H13.225H13.225H13.225H13.225H13.225H13.225H13.225H13.2251H13.2251H13.2251H13.2251H13.2251H13.2251H13.2251H13.2251H13.2252H13.2252H13.2252H13.2252H13.2252H13.2252H13.2252H13.2253H13.2253H13.2253H13.2253H13.2253H13.2253H13.2253H13.2253H13.2254H13.2254H13.2254H13.2254H13.2254H13.2254H13.2254H13.2255H13.2255H13.2255H13.2255H13.2255H13.2255H13.2255H13.2256H13.2256H13.2256H13.2256H13.2256H13.2256H13.2256H13.2257H13.2257H13.2257H13.2257H13.2257H13.2257H13.2257H13.2258H13.2258H13.2258H13.2258H13.2258H13.2258H13.2258H13.2259H13.2259H13.2259H13.2259H13.2259H13.2259H13.2259H13.226H13.226H13.226H13.226H13.226H13.226H13.226H13.2261H13.2261H13.2261H13.2261H13.2261H13.2261H13.2262H13.2262H13.2262H13.2262H13.2262H13.2262H13.2262H13.2263H13.2263H13.2263H13.2263H13.2263H13.2263H13.2264H13.2264H13.2264H13.2264H13.2264H13.2264H13.2264H13.2265H13.2265H13.2265H13.2265H13.2265H13.2265H13.2266H13.2266H13.2266H13.2266H13.2266H13.2266H13.2266H13.2267H13.2267H13.2267H13.2267H13.2267H13.2267H13.2268H13.2268H13.2268H13.2268H13.2268H13.2268H13.2269H13.2269H13.2269H13.2269H13.2269H13.2269H13.227H13.227H13.227H13.227H13.227H13.227H13.227H13.2271H13.2271H13.2271H13.2271H13.2271H13.2271H13.2272H13.2272H13.2272H13.2272H13.2272H13.2272H13.2273H13.2273H13.2273H13.2273H13.2273H13.2273H13.2274H13.2274H13.2274H13.2274H13.2274H13.2274H13.2275H13.2275H13.2275H13.2275H13.2275H13.2275H13.2275H13.2276H13.2276H13.2276H13.2276H13.2276H13.2276H13.2277H13.2277H13.2277H13.2277H13.2277H13.2277H13.2278H13.2278H13.2278H13.2278H13.2278H13.2278H13.2279H13.2279H13.2279H13.2279H13.2279H13.2279H13.2279H13.228H13.228H13.228H13.228H13.228H13.228H13.2281H13.2281H13.2281H13.2281H13.2281H13.2281H13.2282H13.2282H13.2282H13.2282H13.2282H13.2282H13.2282H13.2283H13.2283H13.2283H13.2283H13.2283H13.2283H13.2284H13.2284H13.2284H13.2284H13.2284H13.2284H13.2285H13.2285H13.2285H13.2285H13.2285H13.2285H13.2285H13.2286H13.2286H13.2286H13.2286H13.2286H13.2286H13.2287H13.2287H13.2287H13.2287H13.2287H13.2287H13.2287H13.2288H13.2288H13.2288H13.2288H13.2288H13.2288H13.2288H13.2289H13.2289H13.2289H13.2289H13.2289H13.2289H13.229H13.229H13.229H13.229H13.229H13.229H13.229H13.2291H13.2291H13.2291H13.2291H13.2291H13.2291H13.2291H13.2292H13.2292H13.2292H13.2292H13.2292H13.2292H13.2292H13.2293H13.2293H13.2293H13.2293H13.2293H13.2293H13.2293H13.2294H13.2294H13.2294H13.2294H13.2294H13.2294H13.2294H13.2295H13.2295H13.2295H13.2295H13.2295H13.2295H13.2295H13.2295H13.2296H13.2296H13.2296H13.2296H13.2296H13.2296H13.2296H13.2297H13.2297H13.2297H13.2297H13.2297H13.2297H13.2297H13.2297H13.2298H13.2298H13.2298H13.2298H13.2298H13.2298H13.2298H13.2298H13.2299H13.2299H13.2299H13.2299H13.2299H13.2299H13.2299H13.2299H13.23H13.23H13.23H13.23H13.23H17.4654V5.41598Z" fill="#959596" stroke="#959596" stroke-width="0.2"/>
<path d="M6.2207 17.6197L6.22087 17.6195L6.2207 17.6197ZM6.2207 17.6197L6.22052 17.6199L6.2207 17.6197ZM6.44613 17.8128H6.44619C6.55716 17.8128 6.66357 17.7687 6.74205 17.6902C6.82052 17.6117 6.86463 17.5053 6.86469 17.3943V17.3943V9.72286C6.86469 9.61185 6.8206 9.50539 6.7421 9.42689C6.6636 9.3484 6.55714 9.3043 6.44613 9.3043C6.33512 9.3043 6.22865 9.3484 6.15016 9.42689C6.07166 9.50539 6.02756 9.61185 6.02756 9.72286V17.3943C6.02756 17.5053 6.07166 17.6118 6.15016 17.6903L6.15016 17.6903C6.22865 17.7687 6.33512 17.8128 6.44613 17.8128Z" fill="#959596" stroke="#959596" stroke-width="0.2"/>
<path d="M10.0197 17.3943V17.3943V9.72286C10.0197 9.61185 9.97562 9.50539 9.89713 9.42689C9.81863 9.3484 9.71217 9.3043 9.60116 9.3043C9.49015 9.3043 9.38368 9.3484 9.30519 9.42689C9.22669 9.50539 9.18259 9.61185 9.18259 9.72286L9.18259 17.3943L9.18259 17.3943C9.18266 17.5053 9.22677 17.6117 9.30524 17.6902C9.38371 17.7687 9.49013 17.8128 9.6011 17.8128H9.60122C9.71219 17.8128 9.8186 17.7687 9.89708 17.6902C9.97555 17.6117 10.0197 17.5053 10.0197 17.3943Z" fill="#959596" stroke="#959596" stroke-width="0.2"/>
<path d="M12.7566 17.8128C12.8676 17.8128 12.974 17.7687 13.0525 17.6903C13.131 17.6118 13.1751 17.5053 13.1751 17.3943V9.72286C13.1751 9.61185 13.131 9.50539 13.0525 9.42689C12.974 9.3484 12.8676 9.3043 12.7566 9.3043C12.6455 9.3043 12.5391 9.3484 12.4606 9.42689C12.3821 9.50539 12.338 9.61185 12.338 9.72286V17.3943C12.338 17.5053 12.3821 17.6118 12.4606 17.6903L12.4606 17.6903C12.5391 17.7687 12.6455 17.8128 12.7566 17.8128Z" fill="#959596" stroke="#959596" stroke-width="0.2"/>
</svg>
