<svg width="18" height="22" viewBox="0 0 18 22" fill="none" xmlns="http://www.w3.org/2000/svg">
<path d="M16.884 2.21436H12.5424V0.318077C12.5424 0.233588 12.5088 0.15256 12.4491 0.0928174C12.3893 0.0330748 12.3083 -0.000488281 12.2238 -0.000488281H4.97872C4.89425 -0.000440052 4.81325 0.0331384 4.75352 0.0928706C4.69378 0.152603 4.6602 0.233603 4.66016 0.318077V2.21436H0.318565C0.234077 2.21436 0.153048 2.24792 0.0933057 2.30767C0.0335631 2.36741 0 2.44844 0 2.53293V4.83406C4.82295e-05 4.91853 0.0336267 4.99953 0.0933589 5.05927C0.153091 5.119 0.234091 5.15258 0.318565 5.15263H1.08713L1.95727 21.2695C1.96169 21.3509 1.99714 21.4275 2.05633 21.4836C2.11551 21.5397 2.19394 21.5709 2.27547 21.5709H14.9271C15.0086 21.571 15.087 21.5397 15.1462 21.4836C15.2054 21.4275 15.2407 21.3509 15.2451 21.2695L16.1154 5.15263H16.884C16.9685 5.15263 17.0495 5.11906 17.1092 5.05932C17.169 4.99958 17.2025 4.91855 17.2025 4.83406V2.53293C17.2026 2.49108 17.1943 2.44965 17.1783 2.41099C17.1623 2.37233 17.1389 2.3372 17.1093 2.30761C17.0797 2.27803 17.0446 2.25456 17.0059 2.23856C16.9672 2.22256 16.9258 2.21434 16.884 2.21436V2.21436ZM5.29729 0.636643H11.9052V2.21436H5.29729V0.636643ZM14.6252 20.9338H2.57729L1.72517 5.15263H15.4775L14.6252 20.9338ZM16.5654 4.51549H0.637131V2.85149H4.97253H4.97872C4.97872 2.85149 4.98273 2.85149 4.98491 2.85149H12.2178H12.2238C12.2238 2.85149 12.228 2.85149 12.23 2.85149H16.5654V4.51549Z" fill="#959596"/>
<path d="M5.44601 16.7124C5.53048 16.7123 5.61148 16.6787 5.67121 16.619C5.73095 16.5593 5.76452 16.4783 5.76457 16.3938V8.72237C5.76457 8.63789 5.73101 8.55686 5.67127 8.49711C5.61152 8.43737 5.5305 8.40381 5.44601 8.40381C5.36152 8.40381 5.28049 8.43737 5.22075 8.49711C5.161 8.55686 5.12744 8.63789 5.12744 8.72237V16.3938C5.12744 16.4783 5.161 16.5593 5.22075 16.6191C5.28049 16.6788 5.36152 16.7124 5.44601 16.7124V16.7124Z" fill="#959596"/>
<path d="M8.60104 16.7124C8.68551 16.7123 8.76651 16.6787 8.82624 16.619C8.88597 16.5593 8.91955 16.4783 8.9196 16.3938V8.72237C8.9196 8.63789 8.88604 8.55686 8.8263 8.49711C8.76655 8.43737 8.68552 8.40381 8.60104 8.40381C8.51655 8.40381 8.43552 8.43737 8.37578 8.49711C8.31603 8.55686 8.28247 8.63789 8.28247 8.72237V16.3938C8.28252 16.4783 8.3161 16.5593 8.37583 16.619C8.43556 16.6787 8.51656 16.7123 8.60104 16.7124V16.7124Z" fill="#959596"/>
<path d="M11.7566 16.7124C11.841 16.7124 11.9221 16.6788 11.9818 16.6191C12.0416 16.5593 12.0751 16.4783 12.0751 16.3938V8.72237C12.0751 8.63789 12.0416 8.55686 11.9818 8.49711C11.9221 8.43737 11.841 8.40381 11.7566 8.40381C11.6721 8.40381 11.591 8.43737 11.5313 8.49711C11.4716 8.55686 11.438 8.63789 11.438 8.72237V16.3938C11.438 16.4783 11.4716 16.5593 11.5313 16.6191C11.591 16.6788 11.6721 16.7124 11.7566 16.7124V16.7124Z" fill="#959596"/>
</svg>
