<svg width="165" height="215" viewBox="0 0 165 215" fill="none" xmlns="http://www.w3.org/2000/svg">
<path d="M62.3224 57.657C64.3086 58.6241 66.7027 57.7979 67.6698 55.8117C68.6368 53.8254 67.8106 51.4313 65.8244 50.4643C63.8382 49.4972 61.4441 50.3234 60.477 52.3096C59.5099 54.2959 60.3361 56.69 62.3224 57.657Z" fill="white" fill-opacity="0.28"/>
<path d="M86.2701 69.3167C88.2563 70.2837 90.6505 69.4575 91.6175 67.4713C92.5846 65.4851 91.7584 63.091 89.7722 62.1239C87.7859 61.1569 85.3918 61.983 84.4248 63.9693C83.4577 65.9555 84.2839 68.3496 86.2701 69.3167Z" fill="white" fill-opacity="0.28"/>
<path d="M110.217 80.9763C112.204 81.9434 114.598 81.1172 115.565 79.1309C116.532 77.1447 115.706 74.7506 113.719 73.7836C111.733 72.8165 109.339 73.6427 108.372 75.6289C107.405 77.6151 108.231 80.0092 110.217 80.9763Z" fill="white" fill-opacity="0.28"/>
<path d="M85.6417 9.76207C87.6279 10.7291 90.022 9.90294 90.9891 7.91671C91.9562 5.93049 91.13 3.53638 89.1437 2.56932C87.1575 1.60226 84.7634 2.42845 83.7963 4.41468C82.8293 6.4009 83.6555 8.79501 85.6417 9.76207Z" fill="white" fill-opacity="0.28"/>
<path d="M134.165 92.6359C136.151 93.603 138.545 92.7768 139.512 90.7906C140.479 88.8044 139.653 86.4102 137.667 85.4432C135.68 84.4761 133.286 85.3023 132.319 87.2885C131.352 89.2748 132.178 91.6689 134.165 92.6359Z" fill="white" fill-opacity="0.28"/>
<path d="M73.982 33.7096C75.9683 34.6766 78.3624 33.8504 79.3294 31.8642C80.2965 29.878 79.4703 27.4839 77.4841 26.5168C75.4978 25.5497 73.1037 26.3759 72.1367 28.3622C71.1696 30.3484 71.9958 32.7425 73.982 33.7096Z" fill="white" fill-opacity="0.28"/>
<path d="M97.9293 45.3692C99.9155 46.3363 102.31 45.5101 103.277 43.5238C104.244 41.5376 103.418 39.1435 101.431 38.1764C99.4451 37.2094 97.051 38.0356 96.0839 40.0218C95.1169 42.008 95.9431 44.4021 97.9293 45.3692Z" fill="white" fill-opacity="0.28"/>
<path d="M50.6627 81.6045C52.6489 82.5716 55.043 81.7454 56.0101 79.7592C56.9772 77.7729 56.151 75.3788 54.1647 74.4118C52.1785 73.4447 49.7844 74.2709 48.8173 76.2571C47.8503 78.2433 48.6765 80.6374 50.6627 81.6045Z" fill="white" fill-opacity="0.28"/>
<path d="M74.6102 93.2641C76.5964 94.2312 78.9905 93.405 79.9576 91.4188C80.9247 89.4326 80.0985 87.0385 78.1122 86.0714C76.126 85.1043 73.7319 85.9305 72.7649 87.9168C71.7978 89.903 72.624 92.2971 74.6102 93.2641Z" fill="white" fill-opacity="0.28"/>
<path d="M98.5577 104.924C100.544 105.891 102.938 105.065 103.905 103.078C104.872 101.092 104.046 98.6981 102.06 97.731C100.074 96.764 97.6794 97.5902 96.7124 99.5764C95.7453 101.563 96.5715 103.957 98.5577 104.924Z" fill="white" fill-opacity="0.28"/>
<path d="M122.505 116.583C124.491 117.55 126.885 116.724 127.852 114.738C128.819 112.752 127.993 110.358 126.007 109.391C124.021 108.424 121.627 109.25 120.66 111.236C119.693 113.222 120.519 115.616 122.505 116.583Z" fill="white" fill-opacity="0.28"/>
<path d="M39.003 105.552C40.9893 106.519 43.3834 105.693 44.3504 103.707C45.3175 101.72 44.4913 99.3263 42.5051 98.3592C40.5188 97.3922 38.1247 98.2184 37.1577 100.205C36.1906 102.191 37.0168 104.585 39.003 105.552Z" fill="white" fill-opacity="0.28"/>
<path d="M62.9505 117.212C64.9368 118.179 67.3309 117.352 68.2979 115.366C69.265 113.38 68.4388 110.986 66.4526 110.019C64.4664 109.052 62.0722 109.878 61.1052 111.864C60.1381 113.85 60.9643 116.245 62.9505 117.212Z" fill="white" fill-opacity="0.28"/>
<path d="M86.8981 128.871C88.8843 129.838 91.2784 129.012 92.2454 127.026C93.2125 125.04 92.3863 122.646 90.4001 121.679C88.4139 120.711 86.0198 121.538 85.0527 123.524C84.0856 125.51 84.9118 127.904 86.8981 128.871Z" fill="white" fill-opacity="0.28"/>
<path d="M110.846 140.531C112.832 141.498 115.226 140.672 116.193 138.686C117.16 136.699 116.334 134.305 114.348 133.338C112.362 132.371 109.968 133.197 109 135.184C108.033 137.17 108.86 139.564 110.846 140.531Z" fill="white" fill-opacity="0.28"/>
<path d="M27.3434 129.499C29.3296 130.467 31.7237 129.64 32.6908 127.654C33.6578 125.668 32.8316 123.274 30.8454 122.307C28.8592 121.34 26.4651 122.166 25.498 124.152C24.5309 126.138 25.3571 128.532 27.3434 129.499Z" fill="white" fill-opacity="0.28"/>
<path d="M51.2909 141.159C53.2771 142.126 55.6712 141.3 56.6383 139.314C57.6053 137.328 56.7791 134.933 54.7929 133.966C52.8067 132.999 50.4126 133.826 49.4455 135.812C48.4785 137.798 49.3046 140.192 51.2909 141.159Z" fill="white" fill-opacity="0.28"/>
<path d="M75.2384 152.819C77.2246 153.786 79.6187 152.96 80.5858 150.973C81.5528 148.987 80.7266 146.593 78.7404 145.626C76.7542 144.659 74.3601 145.485 73.393 147.471C72.426 149.458 73.2522 151.852 75.2384 152.819Z" fill="white" fill-opacity="0.28"/>
<path d="M63.5787 176.766C65.5649 177.733 67.9591 176.907 68.9261 174.921C69.8932 172.935 69.067 170.541 67.0808 169.573C65.0945 168.606 62.7004 169.433 61.7334 171.419C60.7663 173.405 61.5925 175.799 63.5787 176.766Z" fill="white" fill-opacity="0.28"/>
<path d="M99.1861 164.478C101.172 165.445 103.566 164.619 104.534 162.633C105.501 160.647 104.674 158.253 102.688 157.286C100.702 156.319 98.3078 157.145 97.3408 159.131C96.3737 161.117 97.1999 163.511 99.1861 164.478Z" fill="white" fill-opacity="0.28"/>
<path d="M87.5265 188.426C89.5127 189.393 91.9068 188.567 92.8739 186.581C93.8409 184.594 93.0147 182.2 91.0285 181.233C89.0423 180.266 86.6482 181.092 85.6811 183.078C84.714 185.065 85.5402 187.459 87.5265 188.426Z" fill="white" fill-opacity="0.28"/>
<path d="M75.8666 212.373C77.8528 213.34 80.2469 212.514 81.214 210.528C82.181 208.542 81.3548 206.148 79.3686 205.181C77.3824 204.214 74.9883 205.04 74.0212 207.026C73.0541 209.012 73.8803 211.406 75.8666 212.373Z" fill="white" fill-opacity="0.28"/>
</svg>
