<svg width="23" height="23" viewBox="0 0 23 23" fill="none" xmlns="http://www.w3.org/2000/svg">
<path d="M20.359 0.925845C19.1224 -0.308615 17.12 -0.308615 15.8835 0.925845L14.7632 2.05238L2.83777 13.9726L2.81243 13.9982C2.80629 14.0043 2.80629 14.0108 2.79976 14.0108C2.78708 14.0299 2.76808 14.0487 2.7556 14.0677C2.7556 14.074 2.74907 14.074 2.74907 14.0804C2.7364 14.0994 2.73026 14.112 2.71739 14.131C2.71125 14.1374 2.71125 14.1435 2.70491 14.1501C2.69858 14.1691 2.69224 14.1817 2.68571 14.2008C2.68571 14.2069 2.67957 14.2069 2.67957 14.2134L0.0336717 22.1707C-0.043945 22.3972 0.0150595 22.6481 0.185539 22.8162C0.30533 22.9345 0.4669 23.0006 0.635003 23C0.70371 22.9988 0.771822 22.9881 0.837559 22.9683L8.78793 20.3158C8.79406 20.3158 8.79406 20.3158 8.8006 20.3097C8.8206 20.3037 8.8398 20.2952 8.85742 20.2841C8.86237 20.2836 8.86673 20.2814 8.87029 20.278C8.8891 20.2653 8.91445 20.2525 8.93346 20.2398C8.95227 20.2273 8.97147 20.2083 8.99048 20.1956C8.99682 20.1891 9.00296 20.1891 9.00296 20.183C9.00949 20.1766 9.02216 20.1705 9.0285 20.1576L22.0742 7.11062C23.3086 5.87398 23.3086 3.8714 22.0742 2.63496L20.359 0.925845ZM8.58537 18.8281L4.17983 14.4223L15.2064 3.39477L19.6119 7.80053L8.58537 18.8281ZM3.55929 15.5934L7.40805 19.4424L1.62877 21.3667L3.55929 15.5934ZM21.1818 6.22428L20.5108 6.90171L16.1051 2.49555L16.7826 1.81832C17.5238 1.07773 18.725 1.07773 19.4664 1.81832L21.188 3.54011C21.9236 4.28467 21.9208 5.48329 21.1818 6.22428Z" fill="#959596"/>
</svg>
