<svg width="21" height="14" viewBox="0 0 21 14" fill="none" xmlns="http://www.w3.org/2000/svg">
<path d="M1.19453 13.9001H20.2584C20.3366 13.9001 20.4115 13.8691 20.4667 13.8138C20.5219 13.7586 20.553 13.6837 20.553 13.6056V1.19459C20.553 1.11648 20.5219 1.04156 20.4667 0.986326C20.4115 0.931092 20.3366 0.900061 20.2584 0.900061H1.19453C1.11642 0.900061 1.0415 0.931091 0.986266 0.986327C0.931031 1.04156 0.9 1.11648 0.9 1.19459V13.6056C0.9 13.6837 0.931031 13.7586 0.986265 13.8138C1.0415 13.8691 1.11642 13.9001 1.19453 13.9001ZM19.9639 1.48912V13.3111H1.48906V1.48912H19.9639Z" fill="#2A2A2A" stroke="#2A2A2A" stroke-width="0.2"/>
<path d="M0.932012 1.32808C0.949527 1.36251 0.973646 1.39317 1.00299 1.41829C1.00303 1.41832 1.00306 1.41835 1.0031 1.41838L8.93948 8.23822C8.93954 8.23827 8.93959 8.23832 8.93965 8.23836C9.43598 8.66767 10.0702 8.90413 10.7264 8.90454L10.7266 8.90454C11.3828 8.90377 12.0169 8.66734 12.5134 8.23833C12.5134 8.23831 12.5134 8.23828 12.5135 8.23826L20.4499 1.41838C20.5093 1.3676 20.546 1.29533 20.5521 1.21745C20.5582 1.13957 20.5331 1.06247 20.4823 1.0031C20.4315 0.943734 20.3592 0.906968 20.2814 0.900893C20.2035 0.894817 20.1264 0.919927 20.067 0.970702L20.0668 0.970853L12.13 7.79106L12.1297 7.79138C11.7403 8.12926 11.242 8.31528 10.7265 8.31528C10.2109 8.31528 9.71272 8.12926 9.32333 7.79138L9.32297 7.79106L1.38616 0.970853L1.38616 0.970853L1.38598 0.970701C1.35659 0.945561 1.32253 0.926456 1.28575 0.914478C1.24897 0.902501 1.21019 0.897884 1.17163 0.900893C1.13307 0.903901 1.09548 0.914475 1.061 0.932012C1.02652 0.949549 0.995841 0.973704 0.970701 1.0031C0.94556 1.03249 0.926456 1.06655 0.914478 1.10333C0.9025 1.14011 0.897884 1.17889 0.900892 1.21745C0.903901 1.25601 0.914475 1.2936 0.932012 1.32808Z" fill="#2A2A2A" stroke="#2A2A2A" stroke-width="0.2"/>
<path d="M20.2596 13.9001L20.258 13.9001C20.1895 13.8997 20.1232 13.8762 20.0697 13.8334L20.0676 13.8318L20.0676 13.8317L12.7832 7.68295C12.7517 7.65959 12.7252 7.63016 12.7052 7.5964C12.6845 7.5614 12.6713 7.5225 12.6663 7.48214C12.6614 7.44178 12.6649 7.40084 12.6765 7.36189C12.6882 7.32294 12.7078 7.28683 12.7341 7.25583C12.7604 7.22483 12.7929 7.19961 12.8294 7.18176C12.866 7.16392 12.9058 7.15383 12.9464 7.15213C12.987 7.15044 13.0276 7.15717 13.0655 7.17191M20.2596 13.9001L13.0655 7.17191M20.2596 13.9001C20.3195 13.8995 20.3779 13.8806 20.4268 13.846C20.4758 13.8113 20.513 13.7626 20.5335 13.7062C20.554 13.6499 20.5568 13.5886 20.5415 13.5306C20.5262 13.4726 20.4936 13.4207 20.4481 13.3817L20.4476 13.3813M20.2596 13.9001L20.4476 13.3813M13.0655 7.17191C13.1019 7.1861 13.1352 7.20741 13.1633 7.23458M13.0655 7.17191L13.1633 7.23458M20.4476 13.3813L13.1633 7.23458M20.4476 13.3813L13.1633 7.23458" fill="#2A2A2A" stroke="#2A2A2A" stroke-width="0.2"/>
<path d="M1.19358 13.9001L1.19512 13.9001C1.26362 13.8997 1.32998 13.8762 1.38347 13.8334L1.38349 13.8334L1.38551 13.8317L8.66994 7.68295C8.70143 7.65959 8.72795 7.63016 8.74794 7.5964C8.76864 7.5614 8.78188 7.5225 8.78681 7.48214C8.79175 7.44178 8.78827 7.40084 8.7766 7.36189C8.76493 7.32294 8.74533 7.28683 8.71902 7.25583C8.69271 7.22483 8.66027 7.19961 8.62373 7.18176L8.57984 7.27162L8.62373 7.18176C8.5872 7.16392 8.54736 7.15383 8.50674 7.15213C8.46611 7.15044 8.42558 7.15717 8.38768 7.17191C8.35121 7.1861 8.31794 7.20741 8.28982 7.23458L1.00557 13.3813L1.00557 13.3813L1.00508 13.3817C0.959504 13.4207 0.926909 13.4726 0.91165 13.5306C0.89639 13.5886 0.899194 13.6498 0.919686 13.7062C0.940177 13.7626 0.977381 13.8113 1.02632 13.846C1.07527 13.8806 1.13362 13.8995 1.19358 13.9001Z" fill="#2A2A2A" stroke="#2A2A2A" stroke-width="0.2"/>
</svg>
