<svg width="24" height="28" viewBox="0 0 24 28" fill="none" xmlns="http://www.w3.org/2000/svg">
<mask id="path-1-outside-1" maskUnits="userSpaceOnUse" x="0" y="13.9268" width="24" height="12" fill="black">
<rect fill="white" y="13.9268" width="24" height="12"/>
<path d="M1.42024 14.9268H23.4534C23.6813 14.9268 23.8661 15.1116 23.8661 15.3395C23.8661 15.3762 23.8613 15.4117 23.8524 15.4455L22.0379 25.0498L21.6333 24.974L22.0388 25.0506C22.001 25.251 21.8243 25.3899 21.6271 25.3867H3.2329C3.02111 25.3867 2.8466 25.2272 2.82296 25.0217L1.00826 15.416L1.00725 15.4161C0.96494 15.1922 1.11221 14.9763 1.33617 14.934C1.36443 14.9286 1.39253 14.9263 1.4202 14.9268L1.42024 14.9268ZM22.9565 15.7522H1.90976L3.57394 24.5613H21.2923L22.9565 15.7522H22.9565Z"/>
</mask>
<path d="M1.42024 14.9268H23.4534C23.6813 14.9268 23.8661 15.1116 23.8661 15.3395C23.8661 15.3762 23.8613 15.4117 23.8524 15.4455L22.0379 25.0498L21.6333 24.974L22.0388 25.0506C22.001 25.251 21.8243 25.3899 21.6271 25.3867H3.2329C3.02111 25.3867 2.8466 25.2272 2.82296 25.0217L1.00826 15.416L1.00725 15.4161C0.96494 15.1922 1.11221 14.9763 1.33617 14.934C1.36443 14.9286 1.39253 14.9263 1.4202 14.9268L1.42024 14.9268ZM22.9565 15.7522H1.90976L3.57394 24.5613H21.2923L22.9565 15.7522H22.9565Z" fill="#959596"/>
<path d="M1.42024 14.9268L1.39026 15.0222L1.4049 15.0268H1.42024V14.9268ZM23.8524 15.4455L23.7554 15.4198L23.7541 15.427L23.8524 15.4455ZM22.0379 25.0498L22.0195 25.1481L22.1177 25.1665L22.1362 25.0684L22.0379 25.0498ZM21.6333 24.974L21.6517 24.8757L21.6147 25.0723L21.6333 24.974ZM22.0388 25.0506L22.1371 25.0692L22.1557 24.9709L22.0574 24.9524L22.0388 25.0506ZM21.6271 25.3867L21.6287 25.2867H21.6271V25.3867ZM2.82296 25.0217L2.92256 25.0103L2.92122 25.0032L2.82296 25.0217ZM1.00826 15.416L1.10652 15.3974L1.08811 15.2999L0.990499 15.3175L1.00826 15.416ZM1.00725 15.4161L0.908984 15.4347L0.927395 15.5322L1.02501 15.5145L1.00725 15.4161ZM1.33617 14.934L1.35474 15.0322L1.35475 15.0322L1.33617 14.934ZM1.4202 14.9268L1.45018 14.8314L1.43637 14.8271L1.42189 14.8268L1.4202 14.9268ZM1.90976 15.7522V15.6522H1.7891L1.8115 15.7708L1.90976 15.7522ZM3.57394 24.5613L3.47568 24.5799L3.49106 24.6613H3.57394V24.5613ZM21.2923 24.5613V24.6613H21.3752L21.3906 24.5799L21.2923 24.5613ZM22.9565 15.7522V15.6522H22.8736L22.8582 15.7337L22.9565 15.7522ZM1.42024 15.0268H23.4534V14.8268H1.42024V15.0268ZM23.4534 15.0268C23.6261 15.0268 23.7661 15.1668 23.7661 15.3395H23.9661C23.9661 15.0564 23.7366 14.8268 23.4534 14.8268V15.0268ZM23.7661 15.3395C23.7661 15.3674 23.7625 15.3943 23.7557 15.4199L23.949 15.4712C23.9602 15.4291 23.9661 15.385 23.9661 15.3395H23.7661ZM23.7541 15.427L21.9397 25.0313L22.1362 25.0684L23.9506 15.4641L23.7541 15.427ZM22.0563 24.9515L21.6517 24.8757L21.6149 25.0723L22.0195 25.1481L22.0563 24.9515ZM21.6147 25.0723L22.0203 25.1489L22.0574 24.9524L21.6519 24.8758L21.6147 25.0723ZM21.9406 25.0321C21.9119 25.1838 21.778 25.2892 21.6287 25.2868L21.6255 25.4867C21.8705 25.4907 22.0901 25.3182 22.1371 25.0692L21.9406 25.0321ZM21.6271 25.2867H3.2329V25.4867H21.6271V25.2867ZM3.2329 25.2867C3.07251 25.2867 2.94021 25.1659 2.9223 25.0103L2.72361 25.0332C2.75299 25.2885 2.96971 25.4867 3.2329 25.4867V25.2867ZM2.92122 25.0032L1.10652 15.3974L0.91 15.4345L2.7247 25.0403L2.92122 25.0032ZM0.990499 15.3175L0.989483 15.3177L1.02501 15.5145L1.02602 15.5144L0.990499 15.3175ZM1.10551 15.3976C1.07345 15.2279 1.18504 15.0643 1.35473 15.0322L1.31761 14.8357C1.03938 14.8883 0.856427 15.1565 0.908984 15.4347L1.10551 15.3976ZM1.35475 15.0322C1.37622 15.0282 1.39754 15.0264 1.41851 15.0268L1.42189 14.8268C1.38753 14.8263 1.35263 14.8291 1.3176 14.8357L1.35475 15.0322ZM1.39021 15.0222L1.39026 15.0222L1.45022 14.8314L1.45018 14.8314L1.39021 15.0222ZM22.9565 15.6522H1.90976V15.8522H22.9565V15.6522ZM1.8115 15.7708L3.47568 24.5799L3.6722 24.5428L2.00803 15.7337L1.8115 15.7708ZM3.57394 24.6613H21.2923V24.4613H3.57394V24.6613ZM21.3906 24.5799L23.0548 15.7708L22.8582 15.7337L21.194 24.5428L21.3906 24.5799ZM22.9565 15.8522H22.9565V15.6522H22.9565V15.8522Z" fill="#959596" mask="url(#path-1-outside-1)"/>
<path d="M3.29332 26.2278C3.03779 26.2278 2.83062 26.435 2.83062 26.6905C2.83062 26.9461 3.03779 27.1532 3.29332 27.1532H21.5725C21.828 27.1532 22.0352 26.9461 22.0352 26.6905C22.0352 26.435 21.828 26.2278 21.5725 26.2278H3.29332Z" fill="#959596" stroke="#959596" stroke-width="0.1"/>
<mask id="path-4-outside-2" maskUnits="userSpaceOnUse" x="6.88818" y="-0.310547" width="11" height="13" fill="black">
<rect fill="white" x="6.88818" y="-0.310547" width="11" height="13"/>
<path d="M11.5935 2.381C10.6369 2.29083 10.1069 2.66525 9.82068 3.23372C9.49456 3.88156 9.43712 4.78612 9.44695 5.60126L9.44854 5.60124C9.45128 5.82914 9.26873 6.01616 9.04082 6.0189H9.0328C8.89914 6.03146 8.81396 6.09765 8.7697 6.19099C8.7262 6.2828 8.70761 6.40043 8.71109 6.52971C8.71496 6.67383 8.74728 6.82917 8.80433 6.98013C8.93286 7.32025 9.17952 7.6163 9.49239 7.65872L9.43757 8.0666L9.49304 7.65763C9.69143 7.68454 9.83764 7.84826 9.84953 8.04074C10.0139 9.20185 10.6101 10.0037 11.366 10.4319C11.7876 10.6706 12.2589 10.7949 12.7321 10.8017C13.2069 10.8085 13.6838 10.6979 14.1148 10.467C14.8993 10.0466 15.5365 9.22035 15.7431 7.96707L16.1494 8.03316L15.7421 7.96604C15.7776 7.75091 15.9735 7.60226 16.1873 7.62222C16.4603 7.61666 16.67 7.33958 16.7822 7.01129C16.8337 6.86058 16.8639 6.70289 16.8708 6.55317C16.8776 6.40886 16.8643 6.27495 16.8295 6.16595C16.7913 6.04644 16.7206 5.96353 16.616 5.96717L16.616 5.96851C16.3882 5.97663 16.197 5.79857 16.1888 5.57079C16.1878 5.54264 16.1897 5.51508 16.1941 5.48831C16.2206 5.22854 16.4223 2.61185 13.8916 1.72794L13.8915 1.72833L13.8882 1.72719L13.8879 1.72792C13.8814 1.72566 13.875 1.72327 13.8687 1.72071C13.6581 1.65127 12.0485 1.14684 12.0748 1.96019L12.0761 1.96015C12.0839 2.18793 11.9055 2.37893 11.6777 2.38669C11.649 2.38766 11.6208 2.38567 11.5935 2.381L11.5935 2.381ZM9.08553 2.86293C9.47788 2.08347 10.1512 1.54274 11.2922 1.54281C11.623 0.158797 13.8692 0.853678 14.1306 0.939594C14.1403 0.942173 14.1498 0.945118 14.1594 0.948449L14.0237 1.33819L14.1591 0.949668C16.7893 1.86581 17.0381 4.27844 17.0309 5.2193C17.3184 5.3392 17.5094 5.5936 17.613 5.91768C17.6783 6.122 17.704 6.35332 17.693 6.58863C17.6823 6.81846 17.6379 7.05502 17.5625 7.27569C17.3798 7.8101 17.016 8.2723 16.4962 8.40613C16.1919 9.77125 15.4298 10.6952 14.5017 11.1924C13.9462 11.49 13.3325 11.6326 12.7224 11.6239C12.1107 11.6151 11.5026 11.4551 10.9598 11.1476C10.0506 10.6327 9.32466 9.70896 9.07434 8.39626C8.58328 8.21086 8.22071 7.76517 8.03371 7.27033C7.94548 7.0369 7.8953 6.78822 7.88888 6.54904C7.88206 6.29498 7.92524 6.04979 8.02488 5.83954C8.14794 5.57987 8.34499 5.37711 8.62483 5.27223C8.63586 4.44468 8.73365 3.56193 9.08553 2.86292V2.86293Z"/>
</mask>
<path d="M11.5935 2.381C10.6369 2.29083 10.1069 2.66525 9.82068 3.23372C9.49456 3.88156 9.43712 4.78612 9.44695 5.60126L9.44854 5.60124C9.45128 5.82914 9.26873 6.01616 9.04082 6.0189H9.0328C8.89914 6.03146 8.81396 6.09765 8.7697 6.19099C8.7262 6.2828 8.70761 6.40043 8.71109 6.52971C8.71496 6.67383 8.74728 6.82917 8.80433 6.98013C8.93286 7.32025 9.17952 7.6163 9.49239 7.65872L9.43757 8.0666L9.49304 7.65763C9.69143 7.68454 9.83764 7.84826 9.84953 8.04074C10.0139 9.20185 10.6101 10.0037 11.366 10.4319C11.7876 10.6706 12.2589 10.7949 12.7321 10.8017C13.2069 10.8085 13.6838 10.6979 14.1148 10.467C14.8993 10.0466 15.5365 9.22035 15.7431 7.96707L16.1494 8.03316L15.7421 7.96604C15.7776 7.75091 15.9735 7.60226 16.1873 7.62222C16.4603 7.61666 16.67 7.33958 16.7822 7.01129C16.8337 6.86058 16.8639 6.70289 16.8708 6.55317C16.8776 6.40886 16.8643 6.27495 16.8295 6.16595C16.7913 6.04644 16.7206 5.96353 16.616 5.96717L16.616 5.96851C16.3882 5.97663 16.197 5.79857 16.1888 5.57079C16.1878 5.54264 16.1897 5.51508 16.1941 5.48831C16.2206 5.22854 16.4223 2.61185 13.8916 1.72794L13.8915 1.72833L13.8882 1.72719L13.8879 1.72792C13.8814 1.72566 13.875 1.72327 13.8687 1.72071C13.6581 1.65127 12.0485 1.14684 12.0748 1.96019L12.0761 1.96015C12.0839 2.18793 11.9055 2.37893 11.6777 2.38669C11.649 2.38766 11.6208 2.38567 11.5935 2.381L11.5935 2.381ZM9.08553 2.86293C9.47788 2.08347 10.1512 1.54274 11.2922 1.54281C11.623 0.158797 13.8692 0.853678 14.1306 0.939594C14.1403 0.942173 14.1498 0.945118 14.1594 0.948449L14.0237 1.33819L14.1591 0.949668C16.7893 1.86581 17.0381 4.27844 17.0309 5.2193C17.3184 5.3392 17.5094 5.5936 17.613 5.91768C17.6783 6.122 17.704 6.35332 17.693 6.58863C17.6823 6.81846 17.6379 7.05502 17.5625 7.27569C17.3798 7.8101 17.016 8.2723 16.4962 8.40613C16.1919 9.77125 15.4298 10.6952 14.5017 11.1924C13.9462 11.49 13.3325 11.6326 12.7224 11.6239C12.1107 11.6151 11.5026 11.4551 10.9598 11.1476C10.0506 10.6327 9.32466 9.70896 9.07434 8.39626C8.58328 8.21086 8.22071 7.76517 8.03371 7.27033C7.94548 7.0369 7.8953 6.78822 7.88888 6.54904C7.88206 6.29498 7.92524 6.04979 8.02488 5.83954C8.14794 5.57987 8.34499 5.37711 8.62483 5.27223C8.63586 4.44468 8.73365 3.56193 9.08553 2.86292V2.86293Z" fill="#959596"/>
<path d="M11.5935 2.381L11.5841 2.48056L11.6633 2.48802L11.6884 2.41263L11.5935 2.381ZM9.82068 3.23372L9.73136 3.18875L9.73136 3.18875L9.82068 3.23372ZM9.44695 5.60126L9.34696 5.60247L9.34817 5.70253L9.44823 5.70125L9.44695 5.60126ZM9.44854 5.60124L9.54853 5.60004L9.54732 5.49997L9.44725 5.50125L9.44854 5.60124ZM9.04082 6.0189V6.11891L9.04203 6.1189L9.04082 6.0189ZM9.0328 6.0189V5.91846L9.02345 5.91934L9.0328 6.0189ZM8.7697 6.19099L8.67934 6.14815L8.67933 6.14817L8.7697 6.19099ZM8.71109 6.52971L8.61112 6.5324L8.61112 6.5324L8.71109 6.52971ZM8.80433 6.98013L8.89787 6.94479L8.89787 6.94478L8.80433 6.98013ZM9.49239 7.65872L9.5915 7.67204L9.6048 7.57305L9.50582 7.55963L9.49239 7.65872ZM9.43757 8.0666L9.33846 8.05328L9.53666 8.08004L9.43757 8.0666ZM9.49304 7.65763L9.50648 7.55853L9.40738 7.54509L9.39394 7.64419L9.49304 7.65763ZM9.84953 8.04074L9.7494 8.04692L9.75051 8.05476L9.84953 8.04074ZM11.366 10.4319L11.4153 10.3449L11.4153 10.3449L11.366 10.4319ZM12.7321 10.8017L12.7307 10.9016H12.7307L12.7321 10.8017ZM14.1148 10.467L14.162 10.5551H14.162L14.1148 10.467ZM15.7431 7.96707L15.7591 7.86837L15.6606 7.85235L15.6444 7.95081L15.7431 7.96707ZM16.1494 8.03316L16.1333 8.13187L16.1656 7.9345L16.1494 8.03316ZM15.7421 7.96604L15.6435 7.94977L15.6272 8.04844L15.7259 8.06471L15.7421 7.96604ZM16.1873 7.62222L16.1779 7.72243L16.1893 7.7222L16.1873 7.62222ZM16.7822 7.01129L16.6876 6.97894L16.6876 6.97894L16.7822 7.01129ZM16.8708 6.55317L16.7709 6.5485V6.5485L16.8708 6.55317ZM16.8295 6.16595L16.7342 6.19638L16.7342 6.19639L16.8295 6.16595ZM16.616 5.96717L16.6125 5.86723L16.5129 5.87069L16.516 5.97029L16.616 5.96717ZM16.616 5.96851L16.6196 6.06845L16.7191 6.0649L16.716 5.96539L16.616 5.96851ZM16.1888 5.57079L16.0889 5.57432L16.0889 5.57436L16.1888 5.57079ZM16.1941 5.48831L16.293 5.50466L16.2936 5.49844L16.1941 5.48831ZM13.8916 1.72794L13.9246 1.63353L13.8316 1.60105L13.7977 1.69355L13.8916 1.72794ZM13.8915 1.72833L13.859 1.8229L13.9517 1.85475L13.9854 1.76272L13.8915 1.72833ZM13.8882 1.72719L13.9206 1.63262L13.8252 1.59981L13.7933 1.69559L13.8882 1.72719ZM13.8879 1.72792L13.855 1.82237L13.9508 1.85567L13.9828 1.75952L13.8879 1.72792ZM13.8687 1.72071L13.9065 1.62786L13.9 1.62574L13.8687 1.72071ZM12.0748 1.96019L11.9748 1.96341L11.978 2.06312L12.0777 2.06015L12.0748 1.96019ZM12.0761 1.96015L12.1761 1.95674L12.1727 1.85722L12.0731 1.86019L12.0761 1.96015ZM11.6777 2.38669L11.6811 2.48663L11.6811 2.48663L11.6777 2.38669ZM11.5935 2.381L11.6104 2.28243L11.5258 2.26796L11.4987 2.34938L11.5935 2.381ZM9.08553 2.86293H8.98553L9.17485 2.90789L9.08553 2.86293ZM11.2922 1.54281L11.2922 1.64281L11.3711 1.64282L11.3895 1.56606L11.2922 1.54281ZM14.1306 0.939594L14.0994 1.03474L14.1048 1.03619L14.1306 0.939594ZM14.1594 0.948449L14.2539 0.981343L14.2867 0.886897L14.1923 0.85401L14.1594 0.948449ZM14.0237 1.33819L13.9292 1.30529L14.1181 1.3711L14.0237 1.33819ZM14.1591 0.949668L14.192 0.855232L14.0976 0.822347L14.0647 0.916752L14.1591 0.949668ZM17.0309 5.2193L16.9309 5.21854L16.9304 5.28573L16.9924 5.3116L17.0309 5.2193ZM17.613 5.91768L17.7082 5.88724L17.7082 5.88724L17.613 5.91768ZM17.693 6.58863L17.7929 6.5933L17.7929 6.5933L17.693 6.58863ZM17.5625 7.27569L17.6571 7.30804V7.30804L17.5625 7.27569ZM16.4962 8.40613L16.4712 8.30929L16.4119 8.32457L16.3986 8.38437L16.4962 8.40613ZM14.5017 11.1924L14.5489 11.2806H14.5489L14.5017 11.1924ZM12.7224 11.6239L12.7239 11.5239L12.7224 11.6239ZM10.9598 11.1476L11.009 11.0606H11.009L10.9598 11.1476ZM9.07434 8.39626L9.17257 8.37752L9.16208 8.32249L9.10966 8.3027L9.07434 8.39626ZM8.03371 7.27033L8.12726 7.23498L8.12725 7.23497L8.03371 7.27033ZM7.88888 6.54904L7.98884 6.54636L7.98884 6.54636L7.88888 6.54904ZM8.02488 5.83954L8.11524 5.88237L8.11524 5.88237L8.02488 5.83954ZM8.62483 5.27223L8.65992 5.36587L8.72391 5.34189L8.72482 5.27356L8.62483 5.27223ZM9.08553 2.86292H9.18553L8.99621 2.81796L9.08553 2.86292ZM11.6029 2.28145C11.11 2.23498 10.7177 2.30745 10.4087 2.47212C10.0992 2.63701 9.88187 2.88977 9.73136 3.18875L9.91 3.27868C10.0457 3.00919 10.2364 2.79051 10.5027 2.64862C10.7694 2.50651 11.1205 2.43685 11.5841 2.48056L11.6029 2.28145ZM9.73136 3.18875C9.39328 3.86035 9.33713 4.78708 9.34696 5.60247L9.54694 5.60005C9.53712 4.78517 9.59584 3.90276 9.91 3.27868L9.73136 3.18875ZM9.44823 5.70125L9.44982 5.70123L9.44725 5.50125L9.44567 5.50127L9.44823 5.70125ZM9.34854 5.60244C9.35062 5.77513 9.21229 5.91683 9.03962 5.91891L9.04203 6.1189C9.32516 6.11549 9.55193 5.88316 9.54853 5.60004L9.34854 5.60244ZM9.04082 5.9189H9.0328V6.1189H9.04082V5.9189ZM9.02345 5.91934C8.85635 5.93503 8.73941 6.02145 8.67934 6.14815L8.86006 6.23383C8.8885 6.17385 8.94193 6.12788 9.04215 6.11846L9.02345 5.91934ZM8.67933 6.14817C8.62693 6.25874 8.60739 6.39339 8.61112 6.5324L8.81105 6.52702C8.80784 6.40748 8.82546 6.30685 8.86007 6.23382L8.67933 6.14817ZM8.61112 6.5324C8.61534 6.68904 8.65029 6.8554 8.71079 7.01548L8.89787 6.94478C8.84427 6.80293 8.81459 6.65863 8.81105 6.52702L8.61112 6.5324ZM8.71079 7.01548C8.84412 7.36833 9.11146 7.70798 9.47895 7.75782L9.50582 7.55963C9.24759 7.52461 9.02159 7.27217 8.89787 6.94479L8.71079 7.01548ZM9.39328 7.6454L9.33846 8.05328L9.53668 8.07992L9.5915 7.67204L9.39328 7.6454ZM9.53666 8.08004L9.59213 7.67107L9.39394 7.64419L9.33848 8.05316L9.53666 8.08004ZM9.47959 7.75672C9.62979 7.77709 9.74071 7.90109 9.74972 8.0469L9.94934 8.03458C9.93457 7.79543 9.75307 7.59198 9.50648 7.55853L9.47959 7.75672ZM9.75051 8.05476C9.91891 9.24458 10.5321 10.0745 11.3167 10.5189L11.4153 10.3449C10.6881 9.933 10.1088 9.15912 9.94854 8.02673L9.75051 8.05476ZM11.3167 10.5189C11.7532 10.7661 12.241 10.8946 12.7307 10.9016L12.7335 10.7017C12.2768 10.6951 11.822 10.5752 11.4153 10.3449L11.3167 10.5189ZM12.7307 10.9016C13.2219 10.9087 13.7156 10.7943 14.162 10.5551L14.0675 10.3788C13.652 10.6015 13.1919 10.7082 12.7335 10.7017L12.7307 10.9016ZM14.162 10.5551C14.9769 10.1185 15.6307 9.26378 15.8418 7.98334L15.6444 7.95081C15.4423 9.17692 14.8218 9.97476 14.0675 10.3788L14.162 10.5551ZM15.727 8.06578L16.1333 8.13187L16.1654 7.93446L15.7591 7.86837L15.727 8.06578ZM16.1656 7.9345L15.7584 7.86737L15.7259 8.06471L16.1331 8.13183L16.1656 7.9345ZM15.8408 7.9823C15.8677 7.81936 16.0161 7.70667 16.178 7.72179L16.1966 7.52266C15.9309 7.49785 15.6875 7.68247 15.6435 7.94977L15.8408 7.9823ZM16.1893 7.7222C16.3617 7.71869 16.5066 7.62913 16.6191 7.50492C16.7314 7.38102 16.8177 7.21649 16.8768 7.04364L16.6876 6.97894C16.6344 7.13439 16.5598 7.27254 16.4709 7.37064C16.3823 7.46843 16.2859 7.52019 16.1853 7.52224L16.1893 7.7222ZM16.8768 7.04364C16.9313 6.88433 16.9633 6.71732 16.9707 6.55783L16.7709 6.5485C16.7644 6.68846 16.7361 6.83684 16.6876 6.97894L16.8768 7.04364ZM16.9707 6.55783C16.9778 6.40555 16.9642 6.25906 16.9247 6.13551L16.7342 6.19639C16.7644 6.29085 16.7773 6.41217 16.7709 6.5485L16.9707 6.55783ZM16.9247 6.13551C16.8824 6.00283 16.7866 5.86118 16.6125 5.86723L16.6194 6.06711C16.6545 6.06589 16.7003 6.09005 16.7342 6.19638L16.9247 6.13551ZM16.516 5.97029L16.5161 5.97163L16.716 5.96539L16.7159 5.96405L16.516 5.97029ZM16.6124 5.86857C16.4398 5.87473 16.2949 5.73981 16.2888 5.56723L16.0889 5.57436C16.099 5.85734 16.3366 6.07854 16.6196 6.06845L16.6124 5.86857ZM16.2888 5.56726C16.288 5.54581 16.2894 5.5249 16.2928 5.50463L16.0955 5.47199C16.09 5.50526 16.0877 5.53948 16.0889 5.57432L16.2888 5.56726ZM16.2936 5.49844C16.3075 5.36237 16.3657 4.62719 16.0968 3.81089C15.8265 2.9906 15.2251 2.08777 13.9246 1.63353L13.8586 1.82235C15.0888 2.25202 15.6518 3.09948 15.9068 3.87346C16.1631 4.65143 16.1072 5.35448 16.0946 5.47818L16.2936 5.49844ZM13.7977 1.69355L13.7976 1.69394L13.9854 1.76272L13.9855 1.76233L13.7977 1.69355ZM13.924 1.63375L13.9206 1.63262L13.8557 1.82176L13.859 1.8229L13.924 1.63375ZM13.7933 1.69559L13.793 1.69632L13.9828 1.75952L13.983 1.75879L13.7933 1.69559ZM13.9208 1.63347C13.9158 1.63173 13.911 1.62993 13.9064 1.62807L13.8311 1.81335C13.8391 1.8166 13.8471 1.8196 13.855 1.82237L13.9208 1.63347ZM13.9 1.62574C13.7936 1.59065 13.3289 1.44382 12.8907 1.4097C12.6735 1.3928 12.4478 1.40214 12.2742 1.47829C12.1855 1.51721 12.1069 1.5751 12.052 1.65869C11.997 1.74268 11.971 1.84488 11.9748 1.96341L12.1747 1.95696C12.172 1.87216 12.1905 1.8122 12.2193 1.76837C12.2483 1.72414 12.2928 1.68854 12.3545 1.66145C12.4819 1.6056 12.6669 1.59289 12.8751 1.6091C13.2878 1.64123 13.7332 1.78133 13.8374 1.81568L13.9 1.62574ZM12.0777 2.06015L12.0791 2.0601L12.0731 1.86019L12.0718 1.86023L12.0777 2.06015ZM11.9762 1.96355C11.9821 2.13615 11.8469 2.28087 11.6743 2.28675L11.6811 2.48663C11.9641 2.47699 12.1857 2.23971 12.1761 1.95674L11.9762 1.96355ZM11.6743 2.28675C11.6524 2.28749 11.6311 2.28597 11.6104 2.28243L11.5767 2.47957C11.6106 2.48537 11.6455 2.48784 11.6811 2.48663L11.6743 2.28675ZM11.4987 2.34938L11.4987 2.34938L11.6884 2.41263L11.6884 2.41262L11.4987 2.34938ZM9.17485 2.90789C9.36484 2.53046 9.62039 2.21551 9.96238 1.99454C10.304 1.77382 10.7381 1.64278 11.2922 1.64281L11.2922 1.44281C10.7053 1.44277 10.2322 1.58206 9.85383 1.82655C9.47584 2.07079 9.19858 2.41594 8.99621 2.81797L9.17485 2.90789ZM11.3895 1.56606C11.4647 1.25129 11.646 1.05842 11.8826 0.942374C12.1236 0.824132 12.4255 0.784371 12.7356 0.789963C13.3557 0.801141 13.9709 0.992365 14.0994 1.0346L14.1619 0.844591C14.0289 0.800907 13.3903 0.601733 12.7392 0.589995C12.4138 0.584129 12.0758 0.624782 11.7945 0.762819C11.5086 0.903048 11.2851 1.14233 11.1949 1.51956L11.3895 1.56606ZM14.1048 1.03619C14.112 1.03814 14.1193 1.04036 14.1265 1.04289L14.1923 0.85401C14.1804 0.849875 14.1685 0.846211 14.1565 0.843001L14.1048 1.03619ZM14.065 0.915555L13.9292 1.30529L14.1181 1.37108L14.2539 0.981343L14.065 0.915555ZM14.1181 1.3711L14.2535 0.982583L14.0647 0.916752L13.9292 1.30527L14.1181 1.3711ZM14.1262 1.0441C16.6921 1.93783 16.938 4.28804 16.9309 5.21854L17.1309 5.22007C17.1382 4.26885 16.8866 1.79379 14.192 0.855232L14.1262 1.0441ZM16.9924 5.3116C17.2451 5.41699 17.4202 5.64293 17.5177 5.94812L17.7082 5.88724C17.5986 5.54428 17.3916 5.26141 17.0694 5.12701L16.9924 5.3116ZM17.5177 5.94811C17.5788 6.1393 17.6037 6.35849 17.5932 6.58397L17.7929 6.5933C17.8044 6.34814 17.7777 6.1047 17.7082 5.88724L17.5177 5.94811ZM17.5932 6.58396C17.5828 6.80448 17.5402 7.03171 17.4678 7.24335L17.6571 7.30804C17.7356 7.07833 17.7818 6.83245 17.7929 6.5933L17.5932 6.58396ZM17.4678 7.24334C17.2911 7.76026 16.946 8.18704 16.4712 8.30929L16.5211 8.50297C17.0859 8.35756 17.4684 7.85995 17.6571 7.30804L17.4678 7.24334ZM16.3986 8.38437C16.1003 9.72256 15.3556 10.6215 14.4544 11.1043L14.5489 11.2806C15.5039 10.7689 16.2835 9.81995 16.5938 8.42789L16.3986 8.38437ZM14.4544 11.1043C13.9143 11.3937 13.3175 11.5324 12.7239 11.5239L12.721 11.7239C13.3476 11.7328 13.978 11.5864 14.5489 11.2806L14.4544 11.1043ZM12.7239 11.5239C12.1286 11.5154 11.5369 11.3596 11.009 11.0606L10.9105 11.2347C11.4682 11.5506 12.0929 11.7149 12.721 11.7239L12.7239 11.5239ZM11.009 11.0606C10.1259 10.5605 9.41751 9.66199 9.17257 8.37752L8.97611 8.41499C9.23182 9.75593 9.97522 10.705 10.9105 11.2347L11.009 11.0606ZM9.10966 8.3027C8.65273 8.13019 8.30722 7.7112 8.12726 7.23498L7.94017 7.30568C8.1342 7.81913 8.51382 8.29153 9.03902 8.48981L9.10966 8.3027ZM8.12725 7.23497C8.04277 7.01145 7.99495 6.77379 7.98884 6.54636L7.78892 6.55172C7.79565 6.80265 7.8482 7.06235 7.94017 7.30568L8.12725 7.23497ZM7.98884 6.54636C7.98236 6.30481 8.02358 6.07578 8.11524 5.88237L7.93451 5.79672C7.82689 6.02381 7.78176 6.28515 7.78892 6.55173L7.98884 6.54636ZM8.11524 5.88237C8.22875 5.64285 8.40765 5.46042 8.65992 5.36587L8.58973 5.17859C8.28233 5.29381 8.06712 5.5169 7.93451 5.79672L8.11524 5.88237ZM8.72482 5.27356C8.7358 4.44984 8.83352 3.58594 9.17485 2.90789L8.99621 2.81796C8.63378 3.53791 8.53592 4.43953 8.52484 5.2709L8.72482 5.27356ZM8.98553 2.86292V2.86293H9.18553V2.86292H8.98553Z" fill="#959596" mask="url(#path-4-outside-2)"/>
<path d="M15.2439 11.9761C15.0811 11.921 14.8936 11.9591 14.765 12.0902L14.7303 12.1256L14.7307 12.126C14.696 12.1598 14.6575 12.1954 14.6154 12.2324L14.6485 12.27L14.6154 12.2324C14.0637 12.7186 13.3719 12.9468 12.6886 12.9262C12.0054 12.9056 11.3305 12.6363 10.8125 12.1277C10.7731 12.089 10.7304 12.0439 10.6844 11.9923C10.5809 11.865 10.4127 11.7967 10.2399 11.8291L10.1911 11.8382L10.1913 11.8394C9.24198 12.0247 8.36345 12.4155 7.60436 12.963C6.82831 13.5227 6.17738 14.2464 5.70348 15.0822C5.65396 15.1559 5.62505 15.2446 5.62505 15.34C5.62505 15.5955 5.83222 15.8027 6.08776 15.8027H18.7721H18.7725V15.7527M15.2439 11.9761L19.1143 15.0951L19.1567 15.071C19.165 15.0855 19.1733 15.1002 19.1815 15.1148L19.139 15.1385L19.1637 15.182L19.1626 15.1827L19.1608 15.1837C19.239 15.3741 19.1644 15.5972 18.9803 15.7002C18.9145 15.737 18.8429 15.7539 18.7725 15.7527M15.2439 11.9761C15.2443 11.9762 15.2447 11.9764 15.2451 11.9765L15.2289 12.0238L15.2439 11.9761ZM18.7725 15.7527H6.08776C5.85983 15.7527 5.67505 15.5679 5.67505 15.34C5.67505 15.2542 5.70123 15.1746 5.74601 15.1086L18.7725 15.7527ZM17.9232 14.8773C17.6364 14.5035 17.304 14.1655 16.9343 13.8719L16.9227 13.8627C16.4159 13.4623 15.8396 13.1462 15.2156 12.936C14.4842 13.5755 13.5681 13.8756 12.663 13.8483L12.6645 13.7984L12.663 13.8483C11.7545 13.821 10.857 13.4637 10.168 12.7886C9.42777 12.9613 8.74208 13.2797 8.14327 13.7115C8.14327 13.7115 8.14327 13.7115 8.14327 13.7115L8.11403 13.671C7.64511 14.0092 7.22879 14.4164 6.8803 14.8773H17.9232ZM17.9232 14.8773H6.94314" fill="#959596" stroke="#959596" stroke-width="0.1"/>
</svg>
