<svg width="569" height="506" viewBox="0 0 569 506" fill="none" xmlns="http://www.w3.org/2000/svg">
<path d="M549.864 269.278C552.713 231.384 543.9 191.806 532.099 156.528C514.573 104.128 480.549 50.3954 423.25 37.9946C390.206 30.8431 356.584 38.5071 328.26 56.4243C301.015 73.6605 279.766 95.9204 246.283 100.235C212.406 104.599 177.643 102.842 143.586 102.842C56.0332 102.842 -15.0242 194.905 2.74106 290.806C20.5063 386.706 104.25 453.194 175.308 453.194C239.166 453.194 291.691 414.845 352.338 404.557C382.409 399.453 412.616 405.493 442.374 397.845C476.973 388.953 509.497 367.733 528.662 337.014C541.722 316.077 548.079 293.008 549.864 269.278Z" fill="#66A8DE"/>
<path opacity="0.7" d="M549.864 269.278C552.713 231.384 543.9 191.806 532.099 156.528C514.573 104.128 480.549 50.3954 423.25 37.9946C390.206 30.8431 356.584 38.5071 328.26 56.4243C301.015 73.6605 279.766 95.9204 246.283 100.235C212.406 104.599 177.643 102.842 143.586 102.842C56.0332 102.842 -15.0242 194.905 2.74106 290.806C20.5063 386.706 104.25 453.194 175.308 453.194C239.166 453.194 291.691 414.845 352.338 404.557C382.409 399.453 412.616 405.493 442.374 397.845C476.973 388.953 509.497 367.733 528.662 337.014C541.722 316.077 548.079 293.008 549.864 269.278Z" fill="white" fill-opacity="0.48"/>
<path d="M539.618 255.976C539.618 255.976 539.618 248.88 529.694 238.946C519.769 229.013 513.389 223.337 513.389 223.337C513.389 223.337 508.427 239.661 517.645 249.589C524.423 256.577 531.774 262.986 539.621 268.747L539.618 255.976Z" fill="#66A8DE"/>
<path d="M525.213 300.287C525.213 300.287 525.213 293.192 515.288 283.258C505.364 273.324 498.984 267.649 498.984 267.649C498.984 267.649 494.023 283.968 503.237 293.9C510.015 300.889 517.366 307.297 525.212 313.059L525.213 300.287Z" fill="#66A8DE"/>
<path d="M538.993 268.061C538.993 268.061 539.741 261.005 550.66 252.178C561.578 243.351 568.52 238.383 568.52 238.383C568.52 238.383 571.733 255.135 561.519 264.038C554.041 270.27 546.055 275.864 537.646 280.763L538.993 268.061Z" fill="#66A8DE"/>
<path d="M521.588 320.392C521.588 320.392 523.073 313.454 534.858 305.821C546.643 298.189 554.069 293.977 554.069 293.977C554.069 293.977 555.504 310.975 544.413 318.755C536.323 324.167 527.795 328.891 518.918 332.879L521.588 320.392Z" fill="#66A8DE"/>
<path d="M524.865 377.447C524.865 377.447 524.865 370.351 534.789 360.418C544.714 350.484 551.093 344.807 551.093 344.807C551.093 344.807 556.056 361.128 546.84 371.059C540.062 378.048 532.711 384.456 524.865 390.217V377.447Z" fill="#66A8DE"/>
<path d="M524.699 391.375C524.699 391.375 525.706 384.352 517.292 373.107C508.878 361.861 503.37 355.337 503.37 355.337C503.37 355.337 496.14 370.785 503.853 381.927C509.57 389.808 515.936 397.197 522.885 404.015L524.699 391.375Z" fill="#66A8DE"/>
<path d="M514.912 432.646C514.912 432.646 514.912 425.558 524.837 415.618C534.761 405.679 541.141 400.009 541.141 400.009C541.141 400.009 546.105 416.328 536.888 426.261C530.11 433.249 522.759 439.658 514.913 445.419L514.912 432.646Z" fill="#66A8DE"/>
<path d="M521.54 470.065C521.54 470.065 519.743 463.2 526.831 451.075C533.918 438.95 538.654 431.84 538.654 431.84C538.654 431.84 547.584 446.366 541.182 458.315C536.394 466.794 530.904 474.857 524.771 482.419L521.54 470.065Z" fill="#66A8DE"/>
<path d="M540.517 254.157C540.014 261.545 539.106 268.899 537.798 276.188C533.876 296.476 524.067 309.563 520.144 327.887C516.221 346.211 527.484 369.819 524.469 393.355C521.454 416.891 512.3 429.979 514.913 445.685C517.527 461.391 531.26 503.93 531.26 503.93" stroke="#263238" stroke-linecap="round" stroke-linejoin="round"/>
<path d="M538.895 272.776L549.591 264.561" stroke="#263238" stroke-linecap="round" stroke-linejoin="round"/>
<path d="M539.393 263.315L534.916 255.349" stroke="#263238" stroke-linecap="round" stroke-linejoin="round"/>
<path d="M520.738 327.047C520.738 327.047 529.693 320.326 538.895 313.604" stroke="#263238" stroke-linecap="round" stroke-linejoin="round"/>
<path d="M525.214 313.059C525.214 313.059 517.754 298.416 509.297 288.709" stroke="#263238" stroke-linecap="round" stroke-linejoin="round"/>
<path d="M525.216 387.541C530.327 378.112 536.778 369.474 544.367 361.899" stroke="#263238" stroke-linecap="round" stroke-linejoin="round"/>
<path d="M523.475 397.498C520.757 391.098 517.513 384.937 513.774 379.076C508.549 371.359 507.805 370.36 507.805 370.36" stroke="#263238" stroke-linecap="round" stroke-linejoin="round"/>
<path d="M514.912 445.684C517.181 440.045 519.877 434.589 522.977 429.362C526.077 424.518 529.572 419.938 533.426 415.669" stroke="#263238" stroke-linecap="round" stroke-linejoin="round"/>
<path d="M524.772 482.421C524.772 482.421 523.727 473.924 527.454 466.706C531.181 459.488 535.413 450.027 537.154 446.292" stroke="#263238" stroke-linecap="round" stroke-linejoin="round"/>
<path d="M458.628 350.763C458.628 350.763 457.858 346.313 463.004 339.006C468.15 331.699 471.534 327.447 471.534 327.447C471.534 327.447 476.411 337.141 471.716 344.37C468.223 349.489 464.308 354.307 460.012 358.772L458.628 350.763Z" fill="#66A8DE"/>
<path d="M472.465 376.986C472.465 376.986 471.697 372.536 476.843 365.229C481.988 357.921 485.373 353.669 485.373 353.669C485.373 353.669 490.249 363.363 485.554 370.593C482.061 375.712 478.146 380.529 473.851 384.995L472.465 376.986Z" fill="#66A8DE"/>
<path d="M460.33 358.277C460.33 358.277 459.095 353.933 451.291 349.583C443.488 345.234 438.594 342.872 438.594 342.872C438.594 342.872 438.398 353.726 445.768 358.199C451.133 361.294 456.748 363.934 462.553 366.092L460.33 358.277Z" fill="#66A8DE"/>
<path d="M476.917 389.203C476.917 389.203 475.233 385.019 467.017 381.51C458.8 378 453.686 376.17 453.686 376.17C453.686 376.17 454.627 386.984 462.427 390.659C468.088 393.173 473.949 395.209 479.948 396.745L476.917 389.203Z" fill="#66A8DE"/>
<path d="M481.055 425.332C481.055 425.332 480.285 420.882 472.985 415.732C465.684 410.582 461.068 407.714 461.068 407.714C461.068 407.714 459.725 418.487 466.583 423.714C471.591 427.36 476.895 430.58 482.44 433.34L481.055 425.332Z" fill="#66A8DE"/>
<path d="M482.664 434.048C482.664 434.048 481.271 429.748 485.328 421.788C489.384 413.827 492.13 409.133 492.13 409.133C492.13 409.133 498.338 418.034 494.711 425.86C491.981 431.424 488.79 436.749 485.172 441.78L482.664 434.048Z" fill="#66A8DE"/>
<path d="M495.126 469.936C495.126 469.936 495.64 465.449 502.636 459.889C509.631 454.33 514.077 451.204 514.077 451.204C514.077 451.204 516.029 461.883 509.482 467.494C504.69 471.42 499.577 474.938 494.198 478.01L495.126 469.936Z" fill="#66A8DE"/>
<path d="M493.283 458.867C493.283 458.867 492.513 454.417 485.213 449.267C477.912 444.116 473.295 441.248 473.295 441.248C473.295 441.248 471.953 452.022 478.809 457.249C483.819 460.895 489.124 464.114 494.669 466.875L493.283 458.867Z" fill="#66A8DE"/>
<path d="M493.185 483.051C493.185 483.051 493.566 478.553 487.806 471.719C482.046 464.886 478.307 460.943 478.307 460.943C478.307 460.943 474.282 471.023 479.592 477.82C483.515 482.616 487.832 487.074 492.498 491.148L493.185 483.051Z" fill="#66A8DE"/>
<path d="M457.868 349.721C458.984 354.299 460.35 358.812 461.962 363.24C466.622 375.536 474.192 382.677 478.639 393.742C483.086 404.806 478.584 420.834 483.029 435.266C487.473 449.698 494.632 456.91 494.696 467.043C494.76 477.177 490.764 505.343 490.764 505.343" stroke="#263238" stroke-linecap="round" stroke-linejoin="round"/>
<path d="M460.904 361.219L453.306 357.23" stroke="#263238" stroke-linecap="round" stroke-linejoin="round"/>
<path d="M459.565 355.342L461.509 349.86" stroke="#263238" stroke-linecap="round" stroke-linejoin="round"/>
<path d="M478.176 393.279C478.176 393.279 471.832 390.037 465.331 386.821" stroke="#263238" stroke-linecap="round" stroke-linejoin="round"/>
<path d="M473.852 384.993C475.714 379.092 478.174 373.396 481.192 367.994" stroke="#263238" stroke-linecap="round" stroke-linejoin="round"/>
<path d="M481.929 431.7C477.701 426.344 472.719 421.63 467.139 417.705" stroke="#263238" stroke-linecap="round" stroke-linejoin="round"/>
<path d="M484.101 437.755C485.11 433.447 486.477 429.231 488.185 425.15C490.623 419.742 490.983 419.037 490.983 419.037" stroke="#263238" stroke-linecap="round" stroke-linejoin="round"/>
<path d="M494.352 474.729C494.352 474.729 499.387 468.55 502.522 466.238C504.412 464.845 506.186 463.301 507.828 461.622" stroke="#263238" stroke-linecap="round" stroke-linejoin="round"/>
<path d="M494.696 467.043C492.662 463.754 490.38 460.625 487.869 457.684C485.4 454.983 482.712 452.491 479.833 450.232" stroke="#263238" stroke-linecap="round" stroke-linejoin="round"/>
<path d="M492.5 491.15C492.241 487.717 491.072 484.416 489.113 481.587C485.99 477.464 482.313 471.991 480.816 469.839" stroke="#263238" stroke-linecap="round" stroke-linejoin="round"/>
<path d="M18.8865 288.629L12.6436 270.775L18.8865 278.363L13.9811 251.583L21.5627 270.776L24.2331 233.283L28.6927 268.991L33.5982 261.85V270.777L39.3953 258.726L36.2732 279.704L41.6245 276.133L33.1488 287.738L18.8865 288.629Z" fill="#66A8DE"/>
<path d="M38.5085 284.167H15.3188L19.4986 331.033H34.3392L38.5085 284.167Z" fill="#263238" stroke="#263238" stroke-linecap="round" stroke-linejoin="round"/>
<path d="M81.9989 330.492H3V497.97H81.9989V330.492Z" fill="white" stroke="#263238" stroke-linecap="round" stroke-linejoin="round"/>
<path d="M86.3275 330.492H42.499V497.97H86.3275V330.492Z" fill="white" stroke="#263238" stroke-linecap="round" stroke-linejoin="round"/>
<path d="M81.3884 330.492H42.499V497.97H81.3884V330.492Z" fill="#263238" stroke="#263238" stroke-linecap="round" stroke-linejoin="round"/>
<path d="M77.0217 459.042H42.499V493.34H77.0217V459.042Z" fill="#66A8DE" stroke="#263238" stroke-linecap="round" stroke-linejoin="round"/>
<path d="M77.0217 460.896H42.499V465.293H77.0217V460.896Z" fill="white" stroke="#263238" stroke-linecap="round" stroke-linejoin="round"/>
<path d="M77.0217 486.142H42.499V490.54H77.0217V486.142Z" fill="white" stroke="#263238" stroke-linecap="round" stroke-linejoin="round"/>
<path d="M49.0474 459.748V503.117" stroke="#263238" stroke-linecap="round" stroke-linejoin="round"/>
<path d="M61.085 459.748V503.117" stroke="#263238" stroke-linecap="round" stroke-linejoin="round"/>
<path d="M71.6553 459.748V503.117" stroke="#263238" stroke-linecap="round" stroke-linejoin="round"/>
<path d="M77.0217 336.718H42.499V387.148H77.0217V336.718Z" fill="#66A8DE" stroke="#263238" stroke-linecap="round" stroke-linejoin="round"/>
<path d="M77.0217 338.825H42.499V343.821H77.0217V338.825Z" fill="white" stroke="#263238" stroke-linecap="round" stroke-linejoin="round"/>
<path d="M77.0217 371.152H42.499V376.148H77.0217V371.152Z" fill="white" stroke="#263238" stroke-linecap="round" stroke-linejoin="round"/>
<path d="M49.0474 337.52V386.799" stroke="#263238" stroke-linecap="round" stroke-linejoin="round"/>
<path d="M61.085 337.52V386.799" stroke="#263238" stroke-linecap="round" stroke-linejoin="round"/>
<path d="M71.6553 337.52V386.799" stroke="#263238" stroke-linecap="round" stroke-linejoin="round"/>
<path d="M77.0217 397.498H42.499V447.928H77.0217V397.498Z" fill="#66A8DE" stroke="#263238" stroke-linecap="round" stroke-linejoin="round"/>
<path d="M77.0217 399.605H42.499V404.6H77.0217V399.605Z" fill="white" stroke="#263238" stroke-linecap="round" stroke-linejoin="round"/>
<path d="M77.0217 431.932H42.499V436.927H77.0217V431.932Z" fill="white" stroke="#263238" stroke-linecap="round" stroke-linejoin="round"/>
<path d="M49.0474 398.299V447.579" stroke="#263238" stroke-linecap="round" stroke-linejoin="round"/>
<path d="M61.085 398.299V447.579" stroke="#263238" stroke-linecap="round" stroke-linejoin="round"/>
<path d="M71.6553 398.299V447.579" stroke="#263238" stroke-linecap="round" stroke-linejoin="round"/>
<path d="M81.9979 386.451H42.499V392.185H81.9979V386.451Z" fill="white" stroke="#263238" stroke-linecap="round" stroke-linejoin="round"/>
<path d="M81.9979 447.613H42.499V453.347H81.9979V447.613Z" fill="white" stroke="#263238" stroke-linecap="round" stroke-linejoin="round"/>
<path d="M81.999 330.492V497.97" stroke="#263238" stroke-linecap="round" stroke-linejoin="round"/>
<path d="M36.9316 330.492V497.97H42.5047V336.718H81.3197V330.431L36.9316 330.492Z" fill="white" stroke="#263238" stroke-linecap="round" stroke-linejoin="round"/>
<path d="M42.499 336.719V330.492" stroke="#263238" stroke-linecap="round" stroke-linejoin="round"/>
<path d="M116.614 253.557C112.461 245.564 110.717 239.819 110.717 238.495C110.717 235.877 116.47 234.312 116.47 234.312C125.36 229.601 167.195 236.404 186.017 239.541C196.558 241.381 207.22 242.429 217.917 242.679C217.917 242.679 220.53 240.587 223.67 237.968C226.809 235.348 241.449 218.079 247.202 216.507C252.955 214.936 258.184 218.599 258.184 218.599C258.184 218.599 267.597 224.357 266.029 225.402C264.46 226.447 241.45 246.338 235.697 250.004C229.944 253.669 217.918 252.095 207.459 254.187C198.454 255.988 161.964 258.216 153.595 258.898C147.313 260.393 140.718 259.842 134.77 257.327" fill="white"/>
<path d="M258.186 218.605C258.186 218.605 252.962 214.94 247.204 216.513C241.446 218.087 226.815 235.353 223.673 237.973C220.531 240.592 217.92 242.684 217.92 242.684C207.223 242.434 196.56 241.386 186.02 239.546C167.195 236.409 125.359 229.601 116.473 234.317C116.473 234.317 110.72 235.886 110.72 238.5C110.918 239.984 111.301 241.436 111.859 242.824L112.641 243.106C112.641 243.106 123.09 242.004 145.632 242.555C168.174 243.106 220.338 246.189 223.676 247.398C225.186 247.945 235.211 245.655 246.41 241.722C254.923 234.749 265.013 226.096 266.031 225.414C267.6 224.362 258.186 218.605 258.186 218.605Z" fill="#D7DFF2"/>
<path opacity="0.5" d="M258.186 218.605C258.186 218.605 252.962 214.94 247.204 216.513C241.446 218.087 226.815 235.353 223.673 237.973C220.531 240.592 217.92 242.684 217.92 242.684C207.223 242.434 196.56 241.386 186.02 239.546C167.195 236.409 125.359 229.601 116.473 234.317C116.473 234.317 110.72 235.886 110.72 238.5C110.918 239.984 111.301 241.436 111.859 242.824L112.641 243.106C112.641 243.106 123.09 242.004 145.632 242.555C168.174 243.106 220.338 246.189 223.676 247.398C225.186 247.945 235.211 245.655 246.41 241.722C254.923 234.749 265.013 226.096 266.031 225.414C267.6 224.362 258.186 218.605 258.186 218.605Z" fill="white"/>
<path d="M116.614 253.557C112.461 245.564 110.717 239.819 110.717 238.495C110.717 235.877 116.47 234.312 116.47 234.312C125.36 229.601 167.195 236.404 186.017 239.541C196.558 241.381 207.22 242.429 217.917 242.679C217.917 242.679 220.53 240.587 223.67 237.968C226.809 235.348 241.449 218.079 247.202 216.507C252.955 214.936 258.184 218.599 258.184 218.599C258.184 218.599 267.597 224.357 266.029 225.402C264.46 226.447 241.45 246.338 235.697 250.004C229.944 253.669 217.918 252.095 207.459 254.187C198.454 255.988 161.964 258.216 153.595 258.898C147.313 260.393 140.718 259.842 134.77 257.327" stroke="#263238" stroke-linecap="round" stroke-linejoin="round"/>
<path d="M323.153 300.086C324.099 298.289 325.517 296.786 327.255 295.738C328.994 294.69 330.985 294.138 333.014 294.142H428.086C428.086 294.142 434.959 294.142 432.897 307.211C430.835 320.28 402.658 400.069 395.787 424.144C388.916 448.22 387.544 499.119 387.544 499.119H273.461C273.461 499.119 282.6 377.58 323.153 300.086Z" fill="white"/>
<path opacity="0.16" d="M365.974 294.145H333.014C330.985 294.141 328.994 294.693 327.256 295.741C325.518 296.789 324.099 298.292 323.153 300.089C282.6 377.579 273.46 499.122 273.46 499.122H324.609L337.216 451.174L389.812 462.029C390.183 458.007 390.613 453.913 391.106 449.881L389.96 436.982C389.96 436.982 379.184 425.627 375.781 422.789C372.378 419.951 374.647 414.843 374.079 392.703C373.512 370.564 353.662 354.669 346.288 341.045C338.915 327.421 350.259 318.906 360.467 305.282C364.108 300.434 365.579 296.806 365.974 294.145Z" fill="black"/>
<path d="M323.153 300.086C324.099 298.289 325.517 296.786 327.255 295.738C328.994 294.69 330.985 294.138 333.014 294.142H428.086C428.086 294.142 434.959 294.142 432.897 307.211C430.835 320.28 402.658 400.069 395.787 424.144C388.916 448.22 387.544 499.119 387.544 499.119H273.461C273.461 499.119 282.6 377.58 323.153 300.086Z" stroke="#263238" stroke-linecap="round" stroke-linejoin="round"/>
<path d="M411.593 316.844C401.982 339.291 381.618 428.114 378.353 499.123H387.54C387.54 499.123 388.914 448.223 395.784 424.148C402.654 400.073 430.832 320.284 432.893 307.215C434.954 294.146 428.083 294.146 428.083 294.146C428.083 294.146 419.297 298.851 411.593 316.844Z" fill="#263238" stroke="#263238" stroke-linecap="round" stroke-linejoin="round"/>
<path d="M244.591 271.994C244.591 271.994 229.425 263.096 223.673 247.393C217.922 231.691 268.647 206.567 290.609 204.998C312.572 203.429 318.849 209.182 331.922 231.691C344.994 254.201 353.885 285.08 347.087 300.255C340.289 315.429 328.784 319.097 337.151 331.66C345.518 344.224 369.051 379.814 367.481 396.563C365.911 413.313 349.702 427.969 326.17 429.538C302.638 431.107 271.259 416.977 245.112 393.945C218.965 370.914 225.763 336.894 235.176 325.902C244.589 314.91 258.709 310.723 259.755 299.732C260.802 288.741 244.591 271.994 244.591 271.994Z" fill="#263238" stroke="#263238" stroke-linecap="round" stroke-linejoin="round"/>
<path d="M309.221 247.154C317.282 262.161 327.355 282.266 330.499 294.406C336.005 315.661 307.692 329.042 315.557 339.277" stroke="white" stroke-linecap="round" stroke-linejoin="round"/>
<path d="M298.254 227.496C298.254 227.496 301.389 232.842 305.726 240.729" stroke="white" stroke-linecap="round" stroke-linejoin="round"/>
<path d="M340.498 265.257C341.423 268.074 342.026 270.987 342.296 273.939" stroke="white" stroke-linecap="round" stroke-linejoin="round"/>
<path d="M303.759 219.624C303.759 219.624 328.522 237.943 338.411 259.872" stroke="white" stroke-linecap="round" stroke-linejoin="round"/>
<path d="M269.312 233.427C251.622 238.404 226.19 246.457 228.257 251.111" stroke="white" stroke-linecap="round" stroke-linejoin="round"/>
<path d="M285.67 229.07C285.67 229.07 281.886 230.005 276.257 231.518" stroke="white" stroke-linecap="round" stroke-linejoin="round"/>
<path d="M263.775 219.831C273.899 216.632 284.503 215.23 295.109 215.688" stroke="white" stroke-linecap="round" stroke-linejoin="round"/>
<path d="M256.572 222.771C258.176 221.939 259.835 221.218 261.538 220.613" stroke="white" stroke-linecap="round" stroke-linejoin="round"/>
<path d="M110.717 238.496C110.719 238.596 110.725 238.696 110.737 238.795C110.725 238.696 110.719 238.596 110.717 238.496ZM116.614 253.557C114.208 249.162 112.294 244.514 110.908 239.698C112.294 244.514 114.207 249.162 116.614 253.557ZM110.751 238.878C110.764 238.976 110.778 239.076 110.801 239.193C110.778 239.075 110.765 238.975 110.75 238.878H110.751ZM110.819 239.281C110.844 239.409 110.871 239.542 110.907 239.692C110.869 239.542 110.843 239.41 110.818 239.281H110.819ZM116.614 253.558C121.939 263.671 128.572 273.037 136.342 281.415C155.167 301.829 209.553 355.217 214.782 358.88C220.011 362.543 218.444 373.012 214.782 383.48C211.12 393.949 197.525 409.128 198.049 425.877C198.573 442.626 203.802 468.274 203.274 473.508C202.746 478.742 189.677 496.537 189.677 496.537H324.601C324.601 496.537 307.794 475.155 307.794 467.833C307.794 460.512 330.877 366.731 331.922 359.932C332.966 353.132 328.787 348.417 320.418 347.893C312.049 347.368 280.151 340.571 278.582 335.331C277.012 330.092 286.948 310.208 286.948 310.208L255.571 311.779C255.571 311.779 254.003 325.387 251.911 328.004C249.819 330.621 246.687 325.389 239.362 321.729C232.036 318.07 217.92 314.924 212.691 310.737C207.462 306.55 157.259 259.442 157.259 259.442" fill="white"/>
<path d="M220.696 314.771C223.312 319.334 225.912 323.454 225.912 323.454C225.912 323.454 234.709 328.407 236.908 328.407C239.107 328.407 252.305 335.56 252.305 335.56C252.305 335.56 263.302 332.809 259.454 323.453C258.237 321.053 256.693 318.835 254.868 316.859C254.215 321.013 253.157 326.444 251.913 327.997C249.824 330.616 246.689 325.382 239.364 321.716C234.579 319.326 226.908 317.159 220.696 314.771Z" fill="#C6FF00"/>
<path d="M193.855 293.58C177.701 278.61 157.265 259.433 157.265 259.433L145.378 257.714L143.985 258.511C143.985 258.511 177.526 288.229 184.675 291.532C189.101 293.58 191.417 293.302 193.855 293.58Z" fill="#D7DFF2"/>
<path d="M210.771 309.075C210.384 308.734 209.958 308.353 209.494 307.93C210.144 309.01 210.52 309.696 210.52 309.696C210.52 309.696 210.607 309.452 210.771 309.075Z" fill="#C6FF00"/>
<g opacity="0.5">
<path opacity="0.5" d="M220.696 314.771C223.312 319.334 225.912 323.454 225.912 323.454C225.912 323.454 234.709 328.407 236.908 328.407C239.107 328.407 252.305 335.56 252.305 335.56C252.305 335.56 263.302 332.809 259.454 323.453C258.237 321.053 256.693 318.835 254.868 316.859C254.215 321.013 253.157 326.444 251.913 327.997C249.824 330.616 246.689 325.382 239.364 321.716C234.579 319.326 226.908 317.159 220.696 314.771Z" fill="white"/>
<path opacity="0.5" d="M193.855 293.58C177.701 278.61 157.265 259.433 157.265 259.433L145.378 257.714L143.985 258.511C143.985 258.511 177.526 288.229 184.675 291.532C189.101 293.58 191.417 293.302 193.855 293.58Z" fill="white"/>
<path opacity="0.5" d="M210.771 309.075C210.384 308.734 209.958 308.353 209.494 307.93C210.144 309.01 210.52 309.696 210.52 309.696C210.52 309.696 210.607 309.452 210.771 309.075Z" fill="white"/>
</g>
<path d="M116.614 253.558C121.939 263.671 128.572 273.037 136.342 281.415C155.167 301.829 209.553 355.217 214.782 358.88C220.011 362.543 218.444 373.012 214.782 383.48C211.12 393.949 197.525 409.128 198.049 425.877C198.573 442.626 203.802 468.274 203.274 473.508C202.746 478.742 189.677 496.537 189.677 496.537H324.601C324.601 496.537 307.794 475.155 307.794 467.833C307.794 460.512 330.877 366.731 331.922 359.932C332.966 353.132 328.787 348.417 320.418 347.893C312.049 347.368 280.151 340.571 278.582 335.331C277.012 330.092 286.948 310.208 286.948 310.208L255.571 311.779C255.571 311.779 254.003 325.387 251.911 328.004C249.819 330.621 246.687 325.389 239.362 321.729C232.036 318.07 217.92 314.924 212.691 310.737C207.462 306.55 157.259 259.442 157.259 259.442M110.717 238.496C110.719 238.596 110.725 238.696 110.737 238.795C110.725 238.696 110.719 238.596 110.717 238.496V238.496ZM116.614 253.557C114.208 249.162 112.294 244.514 110.908 239.698C112.294 244.514 114.207 249.162 116.614 253.557V253.557ZM110.751 238.878C110.764 238.976 110.778 239.076 110.801 239.193C110.778 239.075 110.765 238.975 110.75 238.878H110.751ZM110.819 239.281C110.844 239.409 110.871 239.542 110.907 239.692C110.869 239.542 110.843 239.41 110.818 239.281H110.819Z" stroke="#263238" stroke-linecap="round" stroke-linejoin="round"/>
<path d="M157.26 259.433C157.26 259.433 140.561 259.745 131.23 252.055" stroke="#263238" stroke-linecap="round" stroke-linejoin="round"/>
<path d="M278.583 335.327C277.013 330.097 286.949 310.203 286.949 310.203L255.572 311.779C255.572 311.779 254.005 325.387 251.912 328.004C249.82 330.621 246.688 325.389 239.363 321.729C238.804 321.449 238.202 321.174 237.567 320.901L235.664 350.742C235.664 350.742 238.412 379.632 271.399 374.129C284.752 371.9 299.008 359.978 311.246 346.576C298.659 344.233 279.78 339.321 278.583 335.327Z" fill="white"/>
<path d="M277.696 314.146C277.696 314.146 275.797 324.785 274.279 336.566C272.76 348.346 271.621 357.085 271.621 357.085L278.587 335.328L286.433 312.249C286.433 312.249 278.835 312.248 277.696 314.146Z" fill="#D7DFF2"/>
<path opacity="0.5" d="M277.696 314.146C277.696 314.146 275.797 324.785 274.279 336.566C272.76 348.346 271.621 357.085 271.621 357.085L278.587 335.328L286.433 312.249C286.433 312.249 278.835 312.248 277.696 314.146Z" fill="white"/>
<path d="M278.583 335.327C277.013 330.097 286.949 310.203 286.949 310.203L255.572 311.779C255.572 311.779 254.005 325.387 251.912 328.004C249.82 330.621 246.688 325.389 239.363 321.729C238.804 321.449 238.202 321.174 237.567 320.901L235.664 350.742C235.664 350.742 238.412 379.632 271.399 374.129C284.752 371.9 299.008 359.978 311.246 346.576C298.659 344.233 279.78 339.321 278.583 335.327Z" stroke="#263238" stroke-linecap="round" stroke-linejoin="round"/>
<path d="M251.911 327.999C249.821 330.617 246.687 325.383 239.361 321.724C234.732 319.406 227.392 317.3 221.293 315.004C219.567 310.917 217.291 305.575 215.828 302.356C213.215 296.6 209.031 300.264 209.031 300.264C206.846 297.776 205.081 294.947 203.807 291.889C201.191 286.133 197.008 286.66 191.256 285.614C185.504 284.568 173.477 273.575 173.477 273.575C173.477 273.575 167.848 269.355 165.513 267.17C162.812 272.51 156.32 281.894 142.301 287.75C164.656 311.136 210.033 355.559 214.787 358.89C220.011 362.553 218.449 373.022 214.787 383.49C211.125 393.958 197.53 409.138 198.054 425.887C198.577 442.636 203.807 468.283 203.278 473.517C202.814 478.182 192.382 492.816 190.118 495.946L195.433 496.548H223.103C222.954 482.514 222.96 425.216 232.564 402.335C243.545 376.153 251.911 327.999 251.911 327.999Z" fill="#F5A623"/>
<path opacity="0.16" d="M239.363 321.717C234.734 319.403 227.393 317.295 221.294 314.999C219.568 310.912 217.292 305.57 215.829 302.351C213.216 296.595 209.033 300.259 209.033 300.259C206.847 297.771 205.083 294.942 203.808 291.884C201.192 286.128 197.009 286.655 191.257 285.609C185.505 284.563 173.478 273.57 173.478 273.57C173.478 273.57 167.849 269.35 165.514 267.165C164.354 269.431 162.976 271.578 161.399 273.575C170.745 281.478 181.07 289.871 184.676 291.538C191.826 294.841 193.475 292.089 198.973 295.391C204.472 298.694 210.52 309.7 210.52 309.7C210.52 309.7 213.82 300.895 216.569 306.948C219.408 312.605 222.528 318.116 225.918 323.459C225.918 323.459 234.715 328.412 236.914 328.412C238.637 328.412 247.091 332.793 250.678 334.695C251.479 330.523 251.918 328.004 251.918 328.004C249.82 330.617 246.683 325.383 239.363 321.717Z" fill="black"/>
<path d="M251.911 327.999C249.821 330.617 246.687 325.383 239.361 321.724C234.732 319.406 227.392 317.3 221.293 315.004C219.567 310.917 217.291 305.575 215.828 302.356C213.215 296.6 209.031 300.264 209.031 300.264C206.846 297.776 205.081 294.947 203.807 291.889C201.191 286.133 197.008 286.66 191.256 285.614C185.504 284.568 173.477 273.575 173.477 273.575C173.477 273.575 167.848 269.355 165.513 267.17C162.812 272.51 156.32 281.894 142.301 287.75C164.656 311.136 210.033 355.559 214.787 358.89C220.011 362.553 218.449 373.022 214.787 383.49C211.125 393.958 197.53 409.138 198.054 425.887C198.577 442.636 203.807 468.283 203.278 473.517C202.814 478.182 192.382 492.816 190.118 495.946L195.433 496.548H223.103C222.954 482.514 222.96 425.216 232.564 402.335C243.545 376.153 251.911 327.999 251.911 327.999Z" stroke="#263238" stroke-linecap="round" stroke-linejoin="round"/>
<path d="M252.285 326.182C252.285 326.182 245.783 324.181 241.783 327.685C237.784 331.189 231.782 349.207 228.282 368.727C224.781 388.246 232.563 402.326 232.563 402.326C232.563 402.326 240.785 380.74 243.285 370.229C245.784 359.718 252.285 326.182 252.285 326.182Z" fill="#F5A623"/>
<path opacity="0.16" d="M239.813 329.355C239.813 329.355 244.509 328.221 246.453 328.87C248.085 329.573 249.611 330.5 250.987 331.626L252.284 326.183C250.339 325.183 248.13 324.818 245.967 325.138C242.727 325.794 239.813 329.355 239.813 329.355Z" fill="black"/>
<path d="M252.285 326.182C252.285 326.182 245.783 324.181 241.783 327.685C237.784 331.189 231.782 349.207 228.282 368.727C224.781 388.246 232.563 402.326 232.563 402.326C232.563 402.326 240.785 380.74 243.285 370.229C245.784 359.718 252.285 326.182 252.285 326.182Z" stroke="#263238" stroke-linecap="round" stroke-linejoin="round"/>
<path d="M208.508 327.886L216.874 361.907L198.049 318.987" stroke="#263238" stroke-linecap="round" stroke-linejoin="round"/>
<path d="M263.634 496.538H324.601C324.601 496.538 307.794 475.155 307.794 467.834C307.794 460.513 330.876 366.732 331.921 359.932C332.966 353.133 328.787 348.417 320.418 347.893C312.049 347.369 280.151 340.572 278.582 335.332C278.582 335.332 266.553 377.727 262.37 406.516C258.783 431.198 262.501 482.438 263.634 496.538Z" fill="#F5A623"/>
<path opacity="0.16" d="M320.418 347.889C313.56 347.461 290.908 342.813 282.088 338.268L285.292 345.687C291.124 348.784 297.398 350.963 303.894 352.147C314.524 354.047 324.394 353.668 330.847 363.166C330.953 363.322 331.059 363.485 331.164 363.646C331.567 361.816 331.834 360.53 331.926 359.927C332.967 353.124 328.784 348.412 320.418 347.889Z" fill="black"/>
<path d="M263.634 496.538H324.601C324.601 496.538 307.794 475.155 307.794 467.834C307.794 460.513 330.876 366.732 331.921 359.932C332.966 353.133 328.787 348.417 320.418 347.893C312.049 347.369 280.151 340.572 278.582 335.332C278.582 335.332 266.553 377.727 262.37 406.516C258.783 431.198 262.501 482.438 263.634 496.538Z" stroke="#263238" stroke-linecap="round" stroke-linejoin="round"/>
<path d="M278.582 335.328C278.582 335.328 262.455 386.737 262.37 406.512C262.37 406.512 285.289 378.738 288.291 359.215C291.292 339.692 278.582 335.328 278.582 335.328Z" fill="#F5A623"/>
<path opacity="0.16" d="M275.796 341.888C278.221 341.806 280.63 342.316 282.813 343.376C284.996 344.435 286.888 346.012 288.325 347.968C288.325 347.968 285.163 338.65 278.582 335.33L275.796 341.888Z" fill="black"/>
<path d="M278.582 335.328C278.582 335.328 262.455 386.737 262.37 406.512C262.37 406.512 285.289 378.738 288.291 359.215C291.292 339.692 278.582 335.328 278.582 335.328Z" stroke="#263238" stroke-linecap="round" stroke-linejoin="round"/>
<path d="M450.838 486.878C450.838 486.878 462.65 487.365 470.383 488.48C475.542 489.182 480.736 489.595 485.941 489.716C485.941 489.716 481.713 481.079 477.117 478.642C472.522 476.205 464.281 471.825 457.36 472.796C450.439 473.766 440.556 480.698 441.349 482.985C442.142 485.272 445.875 486.219 450.838 486.878Z" fill="white"/>
<path d="M450.838 486.878C450.838 486.878 462.65 487.365 470.383 488.48C475.542 489.182 480.736 489.595 485.941 489.716C485.941 489.716 481.713 481.079 477.117 478.642C472.522 476.205 464.281 471.825 457.36 472.796C450.439 473.766 440.556 480.698 441.349 482.985C442.142 485.272 445.875 486.219 450.838 486.878Z" fill="#D7DFF2"/>
<path opacity="0.5" d="M450.838 486.878C450.838 486.878 462.65 487.365 470.383 488.48C475.542 489.182 480.736 489.595 485.941 489.716C485.941 489.716 481.713 481.079 477.117 478.642C472.522 476.205 464.281 471.825 457.36 472.796C450.439 473.766 440.556 480.698 441.349 482.985C442.142 485.272 445.875 486.219 450.838 486.878Z" fill="white"/>
<path d="M450.838 486.878C450.838 486.878 462.65 487.365 470.383 488.48C475.542 489.182 480.736 489.595 485.941 489.716C485.941 489.716 481.713 481.079 477.117 478.642C472.522 476.205 464.281 471.825 457.36 472.796C450.439 473.766 440.556 480.698 441.349 482.985C442.142 485.272 445.875 486.219 450.838 486.878Z" stroke="#263238" stroke-linecap="round" stroke-linejoin="round"/>
<path d="M470.398 483.348C470.398 483.348 479.76 478.483 482.108 478.542C484.455 478.601 499.981 489.139 499.209 490.822C498.437 492.505 495.485 493.197 494.301 492.641C492.583 491.834 482.123 487.381 482.123 487.381L475.273 488.987L470.398 483.348Z" fill="white"/>
<path d="M470.398 483.348C470.398 483.348 479.76 478.483 482.108 478.542C484.455 478.601 499.981 489.139 499.209 490.822C498.437 492.505 494.756 493.869 494.301 492.641C493.846 491.412 482.123 487.381 482.123 487.381L475.273 488.987L470.398 483.348Z" fill="#D7DFF2"/>
<path opacity="0.5" d="M470.398 483.348C470.398 483.348 479.76 478.483 482.108 478.542C484.455 478.601 499.981 489.139 499.209 490.822C498.437 492.505 494.756 493.869 494.301 492.641C493.846 491.412 482.123 487.381 482.123 487.381L475.273 488.987L470.398 483.348Z" fill="white"/>
<path d="M470.398 483.348C470.398 483.348 479.76 478.483 482.108 478.542C484.455 478.601 499.981 489.139 499.209 490.822C498.437 492.505 495.485 493.197 494.301 492.641C492.583 491.834 482.123 487.381 482.123 487.381L475.273 488.987L470.398 483.348Z" stroke="#263238" stroke-linecap="round" stroke-linejoin="round"/>
<path d="M463.77 475.339C463.77 475.339 476.262 474.934 478.738 476.203C481.215 477.472 492.42 496.684 490.734 498.085C489.048 499.487 484.417 499.061 484.56 497.516C484.703 495.97 474.236 485.655 474.236 485.655L466.097 483.864L463.77 475.339Z" fill="white"/>
<path d="M463.77 475.339C463.77 475.339 476.262 474.934 478.738 476.203C481.215 477.472 492.42 496.684 490.734 498.085C489.048 499.487 484.417 499.061 484.56 497.516C484.703 495.97 474.236 485.655 474.236 485.655L466.097 483.864L463.77 475.339Z" fill="#D7DFF2"/>
<path opacity="0.5" d="M463.77 475.339C463.77 475.339 476.262 474.934 478.738 476.203C481.215 477.472 492.42 496.684 490.734 498.085C489.048 499.487 484.417 499.061 484.56 497.516C484.703 495.97 474.236 485.655 474.236 485.655L466.097 483.864L463.77 475.339Z" fill="white"/>
<path d="M463.77 475.339C463.77 475.339 476.262 474.934 478.738 476.203C481.215 477.472 492.42 496.684 490.734 498.085C489.048 499.487 484.417 499.061 484.56 497.516C484.703 495.97 474.236 485.655 474.236 485.655L466.097 483.864L463.77 475.339Z" stroke="#263238" stroke-linecap="round" stroke-linejoin="round"/>
<path d="M456.382 472.759C456.382 472.759 469.024 472.35 471.531 473.632C474.037 474.914 485.376 494.359 483.67 495.778C481.965 497.197 477.278 496.764 477.422 495.197C477.566 493.631 466.972 483.195 466.972 483.195L458.737 481.383L456.382 472.759Z" fill="white"/>
<path d="M456.382 472.759C456.382 472.759 469.024 472.35 471.531 473.632C474.037 474.914 485.376 494.359 483.67 495.778C481.965 497.197 477.278 496.764 477.422 495.197C477.566 493.631 466.972 483.195 466.972 483.195L458.737 481.383L456.382 472.759Z" fill="#D7DFF2"/>
<path opacity="0.5" d="M456.382 472.759C456.382 472.759 469.024 472.35 471.531 473.632C474.037 474.914 485.376 494.359 483.67 495.778C481.965 497.197 477.278 496.764 477.422 495.197C477.566 493.631 466.972 483.195 466.972 483.195L458.737 481.383L456.382 472.759Z" fill="white"/>
<path d="M456.382 472.759C456.382 472.759 469.024 472.35 471.531 473.632C474.037 474.914 485.376 494.359 483.67 495.778C481.965 497.197 477.278 496.764 477.422 495.197C477.566 493.631 466.972 483.195 466.972 483.195L458.737 481.383L456.382 472.759Z" stroke="#263238" stroke-linecap="round" stroke-linejoin="round"/>
<path d="M312.633 400.257C321.78 414.366 340.15 450.111 345.519 454.142C353.886 460.417 409.814 475.655 415.206 479.833C420.598 484.01 420.213 488.18 425.324 489.703C430.435 491.227 449.563 495.62 456.854 496.292C464.144 496.965 460.883 492.458 460.883 492.458L448.437 483.95L459.288 481.277C459.288 481.277 470.16 494.37 472.195 495.084C474.229 495.797 477.833 495.054 477.595 493.479C477.202 490.892 465.599 469.772 461.482 468.865C457.365 467.957 432.361 471.433 432.361 471.433C432.361 471.433 379.928 436.037 378.988 434.779C378.988 434.779 375.853 425.881 373.235 422.218C370.617 418.555 369.055 419.6 369.055 419.6C369.055 419.6 370.1 414.889 368.531 413.325L360.165 404.95L359.871 405.352C358.495 402.477 357.035 399.239 355.459 395.528C351.076 385.222 335.588 356.273 332.972 352.086C331.03 348.975 314.655 346.731 306.364 345.782" fill="#F5A623"/>
<path opacity="0.16" d="M349.067 401.161C355.899 407.241 353.621 407.241 352.103 412.561C350.584 417.881 353.242 410.661 359.695 411.04C366.148 411.418 364.252 419.778 363.492 421.3C362.731 422.821 371.463 424.72 369.946 428.139C368.428 431.557 359.695 436.499 354.76 441.438C349.826 446.376 367.668 433.459 373.741 433.079C375.587 432.962 377.115 433.195 378.394 433.165C377.361 430.431 375.158 424.914 373.234 422.214C370.62 418.549 369.054 419.596 369.054 419.596C369.054 419.596 370.099 414.885 368.53 413.321L360.164 404.945L359.87 405.348C358.494 402.473 357.034 399.235 355.458 395.524C351.075 385.218 335.587 356.269 332.971 352.082C331.029 348.971 314.654 346.727 306.363 345.778L307.125 352.384L307.311 352.529C307.311 352.529 317.562 354.428 320.979 354.809C324.396 355.19 328.571 358.229 328.191 360.504C327.811 362.778 317.941 373.044 320.979 373.803C324.016 374.561 327.433 366.204 330.847 367.342C334.262 368.481 342.232 395.082 349.067 401.161Z" fill="black"/>
<path d="M312.633 400.257C321.78 414.366 340.15 450.111 345.519 454.142C353.886 460.417 409.814 475.655 415.206 479.833C420.598 484.01 420.213 488.18 425.324 489.703C430.435 491.227 449.563 495.62 456.854 496.292C464.144 496.965 460.883 492.458 460.883 492.458L448.437 483.95L459.288 481.277C459.288 481.277 470.16 494.37 472.195 495.084C474.229 495.797 477.833 495.054 477.595 493.479C477.202 490.892 465.599 469.772 461.482 468.865C457.365 467.957 432.361 471.433 432.361 471.433C432.361 471.433 379.928 436.037 378.988 434.779C378.988 434.779 375.853 425.881 373.235 422.218C370.617 418.555 369.055 419.6 369.055 419.6C369.055 419.6 370.1 414.889 368.531 413.325L360.165 404.95L359.871 405.352C358.495 402.477 357.035 399.239 355.459 395.528C351.076 385.222 335.588 356.273 332.972 352.086C331.03 348.975 314.655 346.731 306.364 345.782" stroke="#263238" stroke-linecap="round" stroke-linejoin="round"/>
<path d="M312.776 380.869C312.383 382.146 312.058 383.443 311.804 384.754" stroke="#263238" stroke-linecap="round" stroke-linejoin="round"/>
<path d="M326.624 357.286C322.147 362.4 318.37 368.087 315.392 374.198" stroke="#263238" stroke-linecap="round" stroke-linejoin="round"/>
<path d="M347.561 438.295C351.413 432.659 357.508 425.353 364.301 423.283" stroke="#263238" stroke-linecap="round" stroke-linejoin="round"/>
<path d="M343.298 445.306C343.298 445.306 343.983 443.97 345.21 441.945" stroke="#263238" stroke-linecap="round" stroke-linejoin="round"/>
<path d="M343.298 436.296C343.298 436.296 350.299 418.779 357.3 414.274C364.301 409.768 360.3 418.779 360.3 418.779" stroke="#263238" stroke-linecap="round" stroke-linejoin="round"/>
<path d="M415.206 479.831C420.598 484.008 420.214 488.179 425.325 489.702C430.436 491.226 449.564 495.618 456.854 496.291C464.144 496.964 460.884 492.456 460.884 492.456L448.438 483.947L459.289 481.275C459.289 481.275 470.161 494.368 472.195 495.082C474.229 495.795 478.106 496.054 477.595 493.477C476.601 488.474 465.599 469.77 461.482 468.862C457.365 467.955 432.362 471.431 432.362 471.431C432.362 471.431 384.595 438.582 379.369 435.069C359.082 437.02 349.407 447.659 345.379 454.031C345.425 454.067 345.475 454.111 345.521 454.147C353.886 460.422 409.814 475.658 415.206 479.831Z" fill="white"/>
<path d="M477.595 493.475C475.009 487.121 465.599 469.768 461.482 468.861C457.365 467.953 432.362 471.429 432.362 471.429C432.362 471.429 384.595 438.58 379.369 435.065C374.043 435.532 368.818 436.799 363.869 438.824C371.409 443.08 421.67 471.595 427.994 472.901C434.728 474.286 457.177 470.634 461.127 473.288C463.637 474.976 471.064 486.831 476.143 495.245C477.614 494.996 478.116 494.758 477.595 493.475Z" fill="#D7DFF2"/>
<path opacity="0.5" d="M477.595 493.475C473.552 484.386 465.599 469.768 461.482 468.861C457.365 467.953 432.362 471.429 432.362 471.429C432.362 471.429 384.595 438.58 379.369 435.065C374.043 435.532 368.818 436.799 363.869 438.824C371.409 443.08 421.67 471.595 427.994 472.901C434.728 474.286 457.177 470.634 461.127 473.288C463.637 474.976 471.064 486.831 476.143 495.245C477.614 494.996 478.157 494.74 477.595 493.475Z" fill="white"/>
<path d="M415.206 479.831C420.598 484.008 420.214 488.179 425.325 489.702C430.436 491.226 449.564 495.618 456.854 496.291C464.144 496.964 460.884 492.456 460.884 492.456L448.438 483.947L459.289 481.275C459.289 481.275 470.161 494.368 472.195 495.082C474.229 495.795 478.106 496.054 477.595 493.477C476.601 488.474 465.599 469.77 461.482 468.862C457.365 467.955 432.362 471.431 432.362 471.431C432.362 471.431 384.595 438.582 379.369 435.069C359.082 437.02 349.407 447.659 345.379 454.031C345.425 454.067 345.475 454.111 345.521 454.147C353.886 460.422 409.814 475.658 415.206 479.831Z" stroke="#263238" stroke-linecap="round" stroke-linejoin="round"/>
<path d="M289.228 230.722L246.3 248.649C245.782 256.199 243.915 263.596 240.789 270.488C235.716 281.242 238.674 301.562 243.548 312.53C248.423 323.498 269.895 319.211 277.806 317.843C283.137 316.832 288.358 315.311 293.398 313.299C295.69 314.181 298.167 314.466 300.599 314.126C303.03 313.787 305.335 312.834 307.298 311.359C307.298 311.359 284.273 246.792 289.228 230.722Z" fill="white"/>
<path d="M289.228 230.722L246.3 248.649C245.782 256.199 243.915 263.596 240.789 270.488C235.716 281.242 238.674 301.562 243.548 312.53C244.354 314.318 245.668 315.83 247.325 316.876V316.046C247.325 316.046 239.354 296.291 240.871 284.89C242.389 273.488 248.844 267.791 249.602 260.57C250.36 253.35 249.983 249.931 264.408 244.613C278.833 239.294 284.909 234.352 286.426 239.673C287.944 244.993 294.018 279.95 298.194 288.31C302.371 296.67 301.992 305.41 295.538 309.208C289.032 313.127 282.056 316.205 274.777 318.37C275.919 318.175 276.946 317.992 277.806 317.843C283.137 316.832 288.358 315.311 293.398 313.299C295.69 314.181 298.167 314.466 300.599 314.126C303.03 313.787 305.335 312.834 307.298 311.359C307.298 311.359 284.273 246.792 289.228 230.722Z" fill="#D7DFF2"/>
<path opacity="0.5" d="M289.228 230.722L246.3 248.649C245.782 256.199 243.915 263.596 240.789 270.488C235.716 281.242 238.674 301.562 243.548 312.53C244.354 314.318 245.668 315.83 247.325 316.876V316.046C247.325 316.046 239.354 296.291 240.871 284.89C242.389 273.488 248.844 267.791 249.602 260.57C250.36 253.35 249.983 249.931 264.408 244.613C278.833 239.294 284.909 234.352 286.426 239.673C287.944 244.993 294.018 279.95 298.194 288.31C302.371 296.67 301.992 305.41 295.538 309.208C289.032 313.127 282.056 316.205 274.777 318.37C275.919 318.175 276.946 317.992 277.806 317.843C283.137 316.832 288.358 315.311 293.398 313.299C295.69 314.181 298.167 314.466 300.599 314.126C303.03 313.787 305.335 312.834 307.298 311.359C307.298 311.359 284.273 246.792 289.228 230.722Z" fill="white"/>
<path d="M289.228 230.722L246.3 248.649C245.782 256.199 243.915 263.596 240.789 270.488C235.716 281.242 238.674 301.562 243.548 312.53C248.423 323.498 269.895 319.211 277.806 317.843C283.137 316.832 288.358 315.311 293.398 313.299C295.69 314.181 298.167 314.466 300.599 314.126C303.03 313.787 305.335 312.834 307.298 311.359C307.298 311.359 284.273 246.792 289.228 230.722Z" stroke="#263238" stroke-linecap="round" stroke-linejoin="round"/>
<path d="M267.532 258.841C267.654 261.369 267.343 263.898 266.614 266.321C265.473 269.215 254.71 280.382 255.037 281.587C255.365 282.792 256.332 286.7 258.239 287.075" stroke="#263238" stroke-linecap="round" stroke-linejoin="round"/>
<path d="M279.434 268.872C280.933 265.879 285.854 268.804 285.784 275.546" stroke="#263238" stroke-linecap="round" stroke-linejoin="round"/>
<path d="M255.094 260.059C255.094 260.059 259.284 258.208 263.02 265.006" stroke="#263238" stroke-linecap="round" stroke-linejoin="round"/>
<path d="M273.502 278.756C278.345 279 282.95 280.932 286.518 284.218" stroke="#263238" stroke-width="0.5" stroke-linecap="round" stroke-linejoin="round"/>
<path d="M250.04 269.835C252.539 270.174 254.98 270.851 257.297 271.846" stroke="#263238" stroke-width="0.5" stroke-linecap="round" stroke-linejoin="round"/>
<path d="M267.063 252.537C265.955 251.951 264.727 251.631 263.474 251.601C262.222 251.571 260.979 251.832 259.845 252.364C256.013 254.201 253.656 256.237 253.915 253.874C254.174 251.512 258.685 248.927 260.032 248.583C261.379 248.239 267.452 247.267 267.063 252.537Z" fill="#263238"/>
<path d="M277.813 247.19C277.813 247.19 284.249 252.149 287.069 259.257C289.89 266.366 292.178 258.59 289.888 253.928C287.599 249.266 281.169 244.307 277.813 247.19Z" fill="#263238"/>
<path d="M307.866 323.55C307.866 326.874 305.993 329.569 303.686 329.569C301.379 329.569 299.506 326.874 299.506 323.55C299.506 320.227 301.379 311.773 303.686 311.773C305.993 311.773 307.866 320.224 307.866 323.55Z" fill="#F5A623" stroke="#263238" stroke-linecap="round" stroke-linejoin="round"/>
<path d="M279.842 267.574C279.678 268.011 279.55 268.46 279.459 268.917C279.039 271.027 278.63 275.437 279.533 275.617C280.436 275.797 282.312 271.679 282.733 269.567C282.813 269.152 282.863 268.731 282.883 268.309C281.884 268.005 280.869 267.759 279.842 267.574Z" fill="#263238"/>
<path d="M255.53 259.671C255.401 260.042 255.296 260.421 255.217 260.805C254.798 262.917 254.811 267.555 255.714 267.735C256.617 267.915 258.071 263.568 258.49 261.46C258.593 260.945 258.648 260.423 258.655 259.899C257.638 259.621 256.577 259.544 255.53 259.671Z" fill="#263238"/>
<path d="M279.497 268.935L280.89 266.28C283.153 266.721 285.203 267.907 286.713 269.65" stroke="#263238" stroke-width="0.75" stroke-linecap="round" stroke-linejoin="round"/>
<path d="M255.527 259.671L256.986 257.999C256.986 257.999 257.599 257.692 260.97 259.226" stroke="#263238" stroke-width="0.75" stroke-linecap="round" stroke-linejoin="round"/>
<path d="M250.115 298.327C250.115 298.327 252.515 293.92 255.718 293.92C258.922 293.92 261.322 301.125 261.322 301.125" stroke="#263238" stroke-linecap="round" stroke-linejoin="round"/>
<path d="M146.969 488.44C143.868 488.286 140.823 487.56 137.987 486.297C137.607 486.139 137.262 485.908 136.973 485.616C136.683 485.325 136.454 484.978 136.299 484.597C136.144 484.216 136.066 483.808 136.07 483.397C136.074 482.986 136.159 482.579 136.321 482.201C136.483 481.823 136.718 481.481 137.013 481.195C137.308 480.908 137.657 480.684 138.04 480.533C138.422 480.383 138.831 480.31 139.242 480.319C139.652 480.328 140.057 480.418 140.433 480.585C143.302 481.808 146.981 482.561 147.973 482.133C149.77 480.103 152.558 467.811 148.958 461.955C148.155 460.649 147.398 460.409 146.899 460.34C144.861 460.06 141.833 462.163 140.764 463.162C140.16 463.713 139.363 464.003 138.547 463.97C137.73 463.937 136.959 463.583 136.402 462.985C135.844 462.387 135.544 461.593 135.568 460.775C135.591 459.958 135.935 459.182 136.526 458.617C137.096 458.085 142.249 453.435 147.729 454.18C149.089 454.381 150.385 454.893 151.515 455.677C152.645 456.46 153.58 457.493 154.246 458.697C159.545 467.316 155.912 483.745 151.852 486.996C150.435 488.019 148.713 488.528 146.969 488.44Z" fill="white"/>
<path d="M151.092 461.013C150.722 460.132 150.142 459.355 149.404 458.75C148.665 458.144 147.79 457.728 146.855 457.538C143.294 456.967 139.945 460.542 139.574 460.953C139.234 461.362 139.022 461.863 138.968 462.392C138.913 462.921 139.016 463.455 139.265 463.925C139.826 463.815 140.345 463.551 140.764 463.162C141.833 462.164 144.86 460.06 146.899 460.34C147.398 460.409 148.155 460.648 148.957 461.956C152.557 467.811 149.77 480.103 147.973 482.133C146.981 482.557 143.302 481.808 140.433 480.585C140.081 480.436 139.705 480.354 139.324 480.342C139.351 480.734 139.474 481.113 139.683 481.446C139.892 481.778 140.181 482.053 140.522 482.247C142.329 483.207 144.32 483.768 146.361 483.895C147.523 483.953 148.661 483.554 149.534 482.785C152.17 480.279 154.536 467.644 151.092 461.013Z" fill="#D7DFF2"/>
<path opacity="0.5" d="M151.092 461.013C150.722 460.132 150.142 459.355 149.404 458.75C148.665 458.144 147.79 457.728 146.855 457.538C143.294 456.967 139.945 460.542 139.574 460.953C139.234 461.362 139.022 461.863 138.968 462.392C138.913 462.921 139.016 463.455 139.265 463.925C139.826 463.815 140.345 463.551 140.764 463.162C141.833 462.164 144.86 460.06 146.899 460.34C147.398 460.409 148.155 460.648 148.957 461.956C152.557 467.811 149.77 480.103 147.973 482.133C146.981 482.557 143.302 481.808 140.433 480.585C140.081 480.436 139.705 480.354 139.324 480.342C139.351 480.734 139.474 481.113 139.683 481.446C139.892 481.778 140.181 482.053 140.522 482.247C142.329 483.207 144.32 483.768 146.361 483.895C147.523 483.953 148.661 483.554 149.534 482.785C152.17 480.279 154.536 467.644 151.092 461.013Z" fill="white"/>
<path d="M146.969 488.44C143.868 488.286 140.823 487.56 137.987 486.297C137.607 486.139 137.262 485.908 136.973 485.616C136.683 485.325 136.454 484.978 136.299 484.597C136.144 484.216 136.066 483.808 136.07 483.397C136.074 482.986 136.159 482.579 136.321 482.201C136.483 481.823 136.718 481.481 137.013 481.195C137.308 480.908 137.657 480.684 138.04 480.533C138.422 480.383 138.831 480.31 139.242 480.319C139.652 480.328 140.057 480.418 140.433 480.585C143.302 481.808 146.981 482.561 147.973 482.133C149.77 480.103 152.558 467.811 148.958 461.955C148.155 460.649 147.398 460.409 146.899 460.34C144.861 460.06 141.833 462.163 140.764 463.162C140.16 463.713 139.363 464.003 138.547 463.97C137.73 463.937 136.959 463.583 136.402 462.985C135.844 462.387 135.544 461.593 135.568 460.775C135.591 459.958 135.935 459.182 136.526 458.617C137.096 458.085 142.249 453.435 147.729 454.18C149.089 454.381 150.385 454.893 151.515 455.677C152.645 456.46 153.58 457.493 154.246 458.697C159.545 467.316 155.912 483.745 151.852 486.996C150.435 488.019 148.713 488.528 146.969 488.44V488.44Z" stroke="#263238" stroke-linecap="round" stroke-linejoin="round"/>
<path d="M141.471 451.631H107.189V497.174H141.471V451.631Z" fill="white"/>
<path d="M121.231 451.631H107.189V497.174H121.231V451.631Z" fill="#D7DFF2"/>
<path opacity="0.5" d="M121.231 451.631H107.189V497.174H121.231V451.631Z" fill="white"/>
<path d="M141.471 451.631H107.189V497.174H141.471V451.631Z" stroke="#263238" stroke-linecap="round" stroke-linejoin="round"/>
<path d="M329.837 496.538H183.407L178.619 415.967C178.487 415.181 178.528 414.376 178.739 413.607C178.949 412.839 179.325 412.125 179.839 411.517C180.354 410.908 180.994 410.42 181.716 410.084C182.439 409.749 183.225 409.575 184.022 409.575H329.217C330.013 409.575 330.799 409.749 331.521 410.085C332.243 410.42 332.884 410.909 333.398 411.517C333.912 412.126 334.287 412.839 334.498 413.607C334.708 414.376 334.749 415.181 334.617 415.967L329.837 496.538Z" fill="#66A8DE" stroke="#263238" stroke-linecap="round" stroke-linejoin="round"/>
<path d="M190.609 411.508H328.152C328.929 411.499 329.698 411.661 330.406 411.981C331.114 412.301 331.744 412.772 332.251 413.361C332.758 413.95 333.13 414.643 333.342 415.391C333.553 416.139 333.599 416.925 333.475 417.693" stroke="white" stroke-linecap="round" stroke-linejoin="round"/>
<path d="M179.701 416.421C179.815 415.074 180.433 413.819 181.431 412.908C182.429 411.997 183.734 411.497 185.085 411.508" stroke="white" stroke-linecap="round" stroke-linejoin="round"/>
<path d="M330.453 488.687H182.784V496.538H330.453V488.687Z" fill="#D7DFF2" stroke="#D7DFF2" stroke-linecap="round" stroke-linejoin="round"/>
<path d="M256.095 459.645C261.871 459.645 266.554 456.833 266.554 453.364C266.554 449.895 261.871 447.083 256.095 447.083C250.319 447.083 245.636 449.895 245.636 453.364C245.636 456.833 250.319 459.645 256.095 459.645Z" fill="white" stroke="#263238" stroke-linecap="round" stroke-linejoin="round"/>
<path d="M413.556 0H142.986C135.721 0 129.831 5.89537 129.831 13.1677V171.107C129.831 178.379 135.721 184.274 142.986 184.274H413.556C420.822 184.274 426.712 178.379 426.712 171.107V13.1677C426.712 5.89537 420.822 0 413.556 0Z" fill="url(#paint0_linear)"/>
<path d="M285.255 105.914C309.258 102.053 325.589 79.4485 321.732 55.4246C317.875 31.4006 295.29 15.0549 271.288 18.9153C247.285 22.7758 230.954 45.3807 234.811 69.4046C238.668 93.4286 261.253 109.774 285.255 105.914Z" fill="#E8505B"/>
<path d="M277.934 70.553L263.279 89.3964C262.778 90.1804 262.09 90.8277 261.277 91.2803C260.465 91.733 259.552 91.9769 258.622 91.9902C257.347 92.0091 256.117 91.5205 255.202 90.6317C254.735 90.2025 254.366 89.6786 254.118 89.0951C253.87 88.5115 253.749 87.8817 253.763 87.2477C253.818 85.8273 254.329 84.4626 255.222 83.357L271.941 62.6496L256.233 41.9411C255.505 40.9701 255.108 39.7908 255.1 38.5769C255.133 37.1257 255.723 35.743 256.749 34.7166C257.774 33.6902 259.156 33.099 260.605 33.0662C261.527 33.09 262.427 33.3433 263.226 33.803C264.025 34.2628 264.697 34.9146 265.181 35.6995L279.346 54.3825L293.637 36.0214C294.148 35.1635 294.862 34.4448 295.717 33.929C296.571 33.4131 297.539 33.116 298.536 33.0639C299.149 33.0574 299.757 33.1779 300.322 33.4179C300.887 33.6579 301.396 34.0121 301.817 34.4584C302.258 34.8871 302.607 35.4008 302.844 35.9685C303.08 36.5361 303.199 37.146 303.194 37.7611C303.175 38.8673 302.791 39.9361 302.1 40.8L285.336 62.2789L301.531 83.6766C302.297 84.6315 302.725 85.814 302.747 87.0385C302.752 87.7495 302.602 88.4532 302.308 89.1005C302.014 89.7479 301.583 90.3235 301.045 90.7874C300.456 91.3614 299.747 91.7959 298.968 92.0591C298.189 92.3222 297.362 92.4073 296.546 92.3081C295.73 92.2089 294.947 91.9278 294.254 91.4857C293.562 91.0435 292.977 90.4515 292.542 89.7531L277.934 70.553Z" fill="white"/>
<path d="M362.18 152.361H194.362C190.957 152.361 187.692 151.007 185.284 148.597C182.877 146.188 181.524 142.919 181.524 139.512C181.524 136.104 182.876 132.835 185.284 130.425C187.691 128.016 190.957 126.662 194.362 126.661H362.18C365.585 126.661 368.85 128.015 371.258 130.425C373.666 132.835 375.019 136.104 375.019 139.512C375.018 142.92 373.665 146.188 371.258 148.598C368.85 151.007 365.585 152.361 362.18 152.361Z" fill="white"/>
<path d="M217.351 143.653C217.238 143.654 217.126 143.632 217.022 143.587C216.918 143.543 216.824 143.477 216.747 143.395C216.663 143.313 216.597 143.215 216.553 143.107C216.508 142.998 216.487 142.882 216.489 142.764C216.493 142.559 216.551 142.359 216.657 142.183L217.935 140.189L215.323 140.266C215.202 140.273 215.08 140.254 214.967 140.209C214.854 140.165 214.751 140.096 214.667 140.008C214.518 139.837 214.435 139.618 214.435 139.39C214.435 139.163 214.518 138.943 214.667 138.773C214.751 138.684 214.853 138.615 214.967 138.571C215.08 138.526 215.202 138.507 215.323 138.515L217.897 138.591L216.688 136.673C216.571 136.482 216.504 136.265 216.494 136.042C216.491 135.922 216.513 135.803 216.558 135.692C216.603 135.58 216.671 135.48 216.757 135.397C216.837 135.315 216.932 135.25 217.037 135.206C217.142 135.162 217.255 135.14 217.369 135.14C217.529 135.14 217.686 135.187 217.82 135.273C217.955 135.36 218.062 135.483 218.128 135.629L219.375 137.871L220.571 135.72C220.649 135.553 220.77 135.411 220.922 135.309C221.075 135.206 221.252 135.148 221.435 135.139C221.546 135.137 221.657 135.159 221.76 135.202C221.862 135.245 221.955 135.309 222.032 135.39C222.114 135.471 222.179 135.569 222.222 135.676C222.265 135.784 222.286 135.899 222.283 136.015C222.279 136.215 222.221 136.411 222.116 136.581L220.85 138.592L223.462 138.516C223.584 138.508 223.706 138.527 223.819 138.572C223.932 138.617 224.034 138.685 224.118 138.774C224.268 138.945 224.351 139.164 224.351 139.391C224.351 139.619 224.268 139.838 224.118 140.009C224.034 140.097 223.932 140.166 223.819 140.21C223.705 140.255 223.584 140.274 223.462 140.267L220.824 140.19L221.995 142.018C222.129 142.236 222.205 142.484 222.214 142.74C222.218 142.858 222.198 142.975 222.155 143.084C222.111 143.194 222.046 143.293 221.963 143.377C221.889 143.456 221.799 143.52 221.699 143.563C221.599 143.606 221.492 143.629 221.383 143.629C221.208 143.624 221.038 143.569 220.892 143.471C220.747 143.373 220.632 143.236 220.561 143.076L219.377 140.976L218.193 143.076C218.125 143.244 218.008 143.388 217.858 143.491C217.709 143.594 217.532 143.65 217.351 143.653Z" fill="black"/>
<path d="M230.437 143.653C230.324 143.654 230.211 143.632 230.107 143.587C230.003 143.543 229.909 143.478 229.831 143.395C229.747 143.313 229.681 143.215 229.637 143.107C229.592 142.998 229.571 142.882 229.573 142.764C229.578 142.559 229.636 142.359 229.742 142.183L231.019 140.189L228.406 140.266C228.285 140.273 228.163 140.254 228.05 140.209C227.937 140.165 227.834 140.096 227.75 140.008C227.602 139.837 227.52 139.617 227.52 139.39C227.52 139.163 227.602 138.944 227.75 138.773C227.834 138.684 227.936 138.615 228.05 138.571C228.163 138.526 228.285 138.507 228.406 138.515L230.979 138.591L229.771 136.673C229.654 136.482 229.587 136.265 229.577 136.042C229.574 135.922 229.595 135.802 229.641 135.691C229.687 135.58 229.755 135.48 229.841 135.397C229.921 135.315 230.015 135.25 230.12 135.206C230.225 135.162 230.337 135.14 230.451 135.14C230.611 135.14 230.768 135.186 230.902 135.273C231.037 135.36 231.144 135.483 231.21 135.629L232.458 137.871L233.654 135.72C233.732 135.553 233.853 135.412 234.005 135.309C234.157 135.207 234.334 135.148 234.517 135.139C234.629 135.137 234.74 135.159 234.843 135.202C234.946 135.245 235.039 135.309 235.116 135.39C235.198 135.471 235.263 135.569 235.306 135.676C235.349 135.784 235.37 135.899 235.367 136.015C235.363 136.215 235.305 136.411 235.198 136.581L233.939 138.589L236.55 138.512C236.672 138.505 236.794 138.524 236.907 138.568C237.021 138.613 237.123 138.682 237.207 138.77C237.356 138.942 237.438 139.161 237.438 139.388C237.438 139.615 237.356 139.834 237.207 140.006C237.123 140.094 237.02 140.162 236.907 140.207C236.793 140.252 236.672 140.271 236.55 140.264L233.913 140.187L235.084 142.015C235.218 142.232 235.294 142.481 235.303 142.736C235.307 142.854 235.286 142.971 235.243 143.081C235.2 143.19 235.135 143.29 235.052 143.373C234.977 143.452 234.888 143.516 234.788 143.559C234.688 143.602 234.58 143.625 234.472 143.625C234.296 143.621 234.125 143.566 233.979 143.468C233.834 143.37 233.718 143.233 233.647 143.072L232.464 140.972L231.281 143.072C231.212 143.241 231.095 143.385 230.945 143.489C230.795 143.592 230.619 143.649 230.437 143.653Z" fill="black"/>
<path d="M243.522 143.653C243.408 143.654 243.296 143.632 243.192 143.587C243.088 143.543 242.993 143.478 242.916 143.395C242.832 143.314 242.765 143.215 242.721 143.107C242.677 142.998 242.655 142.882 242.658 142.764C242.663 142.559 242.721 142.359 242.826 142.183L244.103 140.189L241.491 140.266C241.369 140.273 241.248 140.254 241.134 140.209C241.021 140.165 240.918 140.096 240.834 140.008C240.685 139.837 240.603 139.617 240.603 139.39C240.603 139.163 240.685 138.944 240.834 138.773C240.918 138.684 241.02 138.615 241.134 138.571C241.247 138.526 241.369 138.507 241.491 138.515L244.064 138.591L242.855 136.673C242.738 136.482 242.671 136.265 242.661 136.042C242.658 135.922 242.68 135.802 242.726 135.691C242.771 135.58 242.84 135.48 242.926 135.397C243.005 135.315 243.1 135.25 243.205 135.206C243.309 135.162 243.422 135.14 243.536 135.14C243.696 135.14 243.852 135.186 243.987 135.273C244.122 135.36 244.228 135.483 244.295 135.629L245.543 137.871L246.739 135.72C246.816 135.553 246.937 135.411 247.089 135.309C247.241 135.206 247.418 135.148 247.602 135.139C247.713 135.137 247.824 135.159 247.927 135.202C248.03 135.245 248.123 135.309 248.201 135.39C248.283 135.471 248.347 135.569 248.391 135.676C248.434 135.784 248.454 135.899 248.451 136.015C248.447 136.215 248.389 136.411 248.283 136.581L247.023 138.589L249.635 138.512C249.756 138.505 249.878 138.524 249.992 138.569C250.105 138.613 250.208 138.682 250.292 138.77C250.441 138.942 250.522 139.161 250.522 139.388C250.522 139.615 250.441 139.834 250.292 140.006C250.207 140.094 250.105 140.162 249.991 140.207C249.878 140.251 249.756 140.271 249.635 140.264L246.998 140.187L248.168 142.015C248.303 142.232 248.378 142.481 248.386 142.736C248.391 142.854 248.37 142.971 248.327 143.081C248.284 143.191 248.219 143.29 248.136 143.373C248.061 143.453 247.971 143.516 247.871 143.559C247.772 143.603 247.664 143.625 247.555 143.625C247.38 143.621 247.209 143.566 247.063 143.468C246.917 143.37 246.802 143.233 246.731 143.072L245.548 140.972L244.363 143.072C244.295 143.241 244.178 143.385 244.029 143.488C243.879 143.591 243.703 143.649 243.522 143.653Z" fill="black"/>
<path d="M256.603 143.653C256.491 143.654 256.379 143.632 256.275 143.587C256.171 143.543 256.078 143.478 256.001 143.395C255.917 143.314 255.85 143.215 255.806 143.107C255.762 142.998 255.74 142.882 255.743 142.764C255.747 142.559 255.805 142.359 255.911 142.183L257.188 140.189L254.578 140.266C254.457 140.273 254.335 140.254 254.222 140.209C254.108 140.165 254.006 140.096 253.921 140.008C253.772 139.837 253.689 139.618 253.689 139.39C253.689 139.163 253.772 138.943 253.921 138.773C254.005 138.684 254.108 138.615 254.221 138.571C254.335 138.526 254.457 138.507 254.578 138.515L257.151 138.591L255.943 136.673C255.825 136.482 255.759 136.265 255.749 136.042C255.745 135.922 255.767 135.803 255.812 135.692C255.857 135.581 255.925 135.48 256.011 135.397C256.091 135.315 256.186 135.25 256.292 135.206C256.397 135.162 256.51 135.14 256.624 135.14C256.784 135.14 256.941 135.186 257.075 135.273C257.209 135.36 257.316 135.483 257.382 135.629L258.63 137.871L259.826 135.72C259.903 135.553 260.025 135.411 260.177 135.309C260.329 135.206 260.506 135.148 260.689 135.139C260.8 135.137 260.911 135.159 261.013 135.202C261.116 135.245 261.209 135.309 261.286 135.39C261.368 135.471 261.433 135.569 261.477 135.676C261.52 135.784 261.541 135.899 261.538 136.015C261.534 136.215 261.476 136.411 261.371 136.581L260.11 138.589L262.721 138.512C262.843 138.505 262.964 138.524 263.078 138.569C263.191 138.613 263.294 138.682 263.378 138.77C263.528 138.941 263.61 139.161 263.61 139.388C263.61 139.615 263.528 139.835 263.378 140.006C263.294 140.094 263.191 140.162 263.078 140.207C262.964 140.251 262.843 140.271 262.721 140.264L260.084 140.187L261.254 142.015C261.388 142.233 261.463 142.481 261.473 142.736C261.477 142.854 261.457 142.971 261.414 143.081C261.37 143.191 261.305 143.29 261.222 143.373C261.147 143.453 261.058 143.516 260.958 143.559C260.858 143.603 260.75 143.625 260.641 143.625C260.466 143.621 260.295 143.566 260.149 143.468C260.003 143.37 259.888 143.233 259.817 143.072L258.634 140.972L257.45 143.072C257.381 143.242 257.264 143.387 257.114 143.49C256.963 143.594 256.786 143.65 256.603 143.653Z" fill="black"/>
<path d="M269.689 143.653C269.576 143.654 269.464 143.632 269.36 143.588C269.256 143.543 269.162 143.478 269.085 143.395C269 143.314 268.934 143.215 268.89 143.107C268.845 142.998 268.824 142.882 268.827 142.764C268.831 142.559 268.889 142.359 268.994 142.183L270.271 140.189L267.66 140.266C267.538 140.273 267.416 140.254 267.303 140.209C267.189 140.165 267.087 140.096 267.003 140.008C266.854 139.837 266.772 139.617 266.772 139.39C266.772 139.163 266.854 138.944 267.003 138.773C267.087 138.684 267.189 138.615 267.303 138.571C267.416 138.526 267.538 138.507 267.66 138.515L270.233 138.591L269.023 136.673C268.907 136.482 268.84 136.265 268.83 136.042C268.827 135.922 268.849 135.803 268.894 135.692C268.94 135.58 269.008 135.48 269.094 135.397C269.173 135.315 269.269 135.25 269.374 135.206C269.479 135.162 269.592 135.14 269.706 135.14C269.866 135.14 270.022 135.186 270.157 135.273C270.292 135.36 270.399 135.483 270.465 135.629L271.713 137.871L272.909 135.72C272.986 135.554 273.107 135.412 273.258 135.309C273.41 135.207 273.587 135.148 273.769 135.139C273.881 135.137 273.992 135.159 274.095 135.202C274.198 135.245 274.291 135.309 274.368 135.39C274.451 135.471 274.516 135.569 274.559 135.676C274.602 135.784 274.623 135.899 274.619 136.015C274.616 136.215 274.558 136.411 274.452 136.581L273.191 138.589L275.804 138.512C275.925 138.505 276.047 138.524 276.16 138.568C276.273 138.613 276.376 138.682 276.46 138.77C276.608 138.942 276.69 139.161 276.69 139.388C276.69 139.615 276.608 139.834 276.46 140.006C276.375 140.094 276.273 140.162 276.16 140.207C276.047 140.252 275.925 140.271 275.804 140.264L273.166 140.187L274.337 142.015C274.471 142.233 274.546 142.481 274.555 142.736C274.56 142.854 274.539 142.971 274.496 143.081C274.453 143.191 274.388 143.29 274.305 143.373C274.23 143.453 274.14 143.516 274.04 143.559C273.94 143.603 273.833 143.625 273.724 143.625C273.548 143.621 273.378 143.566 273.232 143.468C273.086 143.37 272.971 143.233 272.9 143.072L271.718 140.972L270.533 143.072C270.465 143.241 270.348 143.386 270.198 143.489C270.048 143.592 269.871 143.649 269.689 143.653Z" fill="black"/>
<path d="M282.773 143.653C282.66 143.654 282.548 143.632 282.443 143.587C282.339 143.543 282.245 143.478 282.167 143.395C282.084 143.313 282.018 143.215 281.974 143.106C281.93 142.998 281.909 142.881 281.912 142.764C281.915 142.56 281.972 142.359 282.076 142.183L283.354 140.189L280.742 140.266C280.621 140.273 280.499 140.254 280.385 140.209C280.272 140.165 280.17 140.096 280.085 140.008C279.936 139.837 279.854 139.617 279.854 139.39C279.854 139.163 279.936 138.944 280.085 138.773C280.169 138.684 280.272 138.615 280.385 138.571C280.499 138.526 280.621 138.507 280.742 138.515L283.315 138.591L282.105 136.673C281.99 136.482 281.924 136.265 281.914 136.042C281.911 135.922 281.932 135.803 281.977 135.692C282.023 135.581 282.09 135.48 282.176 135.397C282.256 135.315 282.351 135.25 282.456 135.206C282.561 135.162 282.674 135.14 282.788 135.14C282.948 135.141 283.105 135.187 283.239 135.274C283.374 135.36 283.481 135.484 283.547 135.629L284.794 137.871L285.99 135.72C286.068 135.553 286.189 135.412 286.341 135.309C286.493 135.207 286.67 135.148 286.853 135.139C286.965 135.137 287.076 135.159 287.179 135.202C287.282 135.245 287.375 135.309 287.452 135.39C287.534 135.471 287.599 135.569 287.642 135.676C287.686 135.784 287.706 135.899 287.703 136.015C287.7 136.215 287.641 136.411 287.535 136.581L286.271 138.592L288.884 138.516C289.005 138.508 289.127 138.527 289.24 138.572C289.354 138.617 289.456 138.685 289.54 138.774C289.688 138.945 289.77 139.164 289.77 139.391C289.77 139.618 289.688 139.838 289.54 140.009C289.456 140.097 289.353 140.166 289.24 140.21C289.127 140.255 289.005 140.274 288.884 140.267L286.246 140.19L287.416 142.018C287.551 142.236 287.626 142.484 287.636 142.74C287.64 142.858 287.62 142.975 287.576 143.085C287.533 143.194 287.468 143.294 287.385 143.377C287.31 143.456 287.22 143.52 287.121 143.563C287.021 143.606 286.913 143.629 286.804 143.629C286.629 143.625 286.458 143.57 286.313 143.472C286.167 143.374 286.052 143.237 285.982 143.076L284.798 140.976L283.615 143.076C283.546 143.244 283.43 143.388 283.28 143.491C283.131 143.593 282.954 143.65 282.773 143.653Z" fill="black"/>
<path d="M295.859 143.653C295.745 143.654 295.633 143.632 295.529 143.587C295.425 143.543 295.33 143.478 295.252 143.395C295.169 143.313 295.103 143.215 295.059 143.107C295.015 142.998 294.993 142.882 294.996 142.764C295 142.559 295.058 142.359 295.163 142.183L296.44 140.189L293.828 140.266C293.707 140.273 293.586 140.253 293.473 140.209C293.36 140.164 293.258 140.096 293.174 140.008C293.024 139.837 292.942 139.618 292.942 139.39C292.942 139.163 293.024 138.943 293.174 138.773C293.258 138.684 293.36 138.616 293.472 138.571C293.585 138.526 293.707 138.507 293.828 138.515L296.402 138.591L295.192 136.673C295.076 136.482 295.01 136.265 294.999 136.042C294.996 135.922 295.018 135.803 295.064 135.692C295.109 135.58 295.177 135.48 295.263 135.397C295.342 135.315 295.437 135.25 295.542 135.206C295.646 135.162 295.759 135.14 295.872 135.14C296.033 135.14 296.189 135.186 296.324 135.273C296.458 135.36 296.565 135.483 296.632 135.629L297.88 137.871L299.076 135.72C299.153 135.553 299.274 135.412 299.426 135.309C299.578 135.207 299.755 135.148 299.938 135.139C300.05 135.137 300.161 135.159 300.264 135.202C300.367 135.245 300.46 135.309 300.538 135.39C300.62 135.471 300.685 135.569 300.728 135.676C300.771 135.784 300.792 135.899 300.788 136.015C300.784 136.215 300.726 136.411 300.62 136.581L299.36 138.589L301.973 138.512C302.094 138.505 302.216 138.524 302.329 138.568C302.443 138.613 302.545 138.682 302.629 138.77C302.777 138.942 302.859 139.161 302.859 139.388C302.859 139.615 302.777 139.834 302.629 140.006C302.545 140.094 302.442 140.162 302.329 140.207C302.216 140.251 302.094 140.271 301.973 140.264L299.335 140.187L300.505 142.015C300.64 142.232 300.715 142.481 300.724 142.736C300.728 142.854 300.708 142.971 300.665 143.081C300.622 143.19 300.557 143.29 300.474 143.373C300.399 143.453 300.309 143.516 300.209 143.559C300.11 143.603 300.002 143.625 299.893 143.625C299.718 143.621 299.547 143.567 299.402 143.469C299.256 143.371 299.141 143.233 299.071 143.072L297.887 140.972L296.704 143.072C296.635 143.242 296.519 143.387 296.369 143.49C296.218 143.593 296.041 143.65 295.859 143.653Z" fill="black"/>
<path d="M308.943 143.653C308.83 143.654 308.718 143.632 308.614 143.587C308.509 143.543 308.415 143.478 308.337 143.395C308.253 143.314 308.187 143.215 308.143 143.107C308.099 142.998 308.078 142.882 308.081 142.764C308.085 142.559 308.143 142.359 308.248 142.183L309.525 140.189L306.913 140.266C306.791 140.273 306.67 140.254 306.556 140.209C306.443 140.164 306.341 140.096 306.257 140.008C306.108 139.837 306.026 139.617 306.026 139.39C306.026 139.163 306.108 138.944 306.257 138.773C306.341 138.684 306.443 138.616 306.556 138.571C306.669 138.526 306.791 138.507 306.913 138.515L309.486 138.591L308.277 136.673C308.161 136.482 308.094 136.265 308.084 136.042C308.081 135.922 308.103 135.802 308.148 135.691C308.193 135.58 308.261 135.48 308.348 135.397C308.427 135.315 308.522 135.25 308.626 135.206C308.731 135.162 308.844 135.14 308.957 135.14C309.117 135.14 309.274 135.186 309.409 135.273C309.543 135.36 309.65 135.483 309.717 135.629L310.965 137.871L312.161 135.72C312.238 135.553 312.359 135.412 312.511 135.309C312.663 135.207 312.84 135.148 313.023 135.139C313.135 135.137 313.246 135.159 313.349 135.202C313.452 135.245 313.545 135.309 313.622 135.39C313.705 135.471 313.769 135.569 313.812 135.676C313.855 135.784 313.876 135.899 313.873 136.015C313.869 136.215 313.811 136.411 313.705 136.581L312.445 138.589L315.056 138.512C315.178 138.505 315.3 138.524 315.413 138.568C315.527 138.613 315.629 138.682 315.713 138.77C315.862 138.942 315.944 139.161 315.944 139.388C315.944 139.615 315.862 139.834 315.713 140.006C315.629 140.094 315.527 140.162 315.413 140.207C315.3 140.252 315.178 140.271 315.056 140.264L312.42 140.187L313.59 142.015C313.724 142.232 313.8 142.481 313.809 142.736C313.813 142.854 313.793 142.972 313.75 143.081C313.706 143.191 313.641 143.29 313.557 143.373C313.483 143.453 313.393 143.516 313.293 143.56C313.193 143.603 313.086 143.625 312.977 143.625C312.801 143.621 312.631 143.567 312.485 143.469C312.34 143.371 312.225 143.233 312.155 143.072L310.971 140.972L309.786 143.072C309.718 143.241 309.602 143.386 309.452 143.49C309.302 143.593 309.125 143.65 308.943 143.653Z" fill="black"/>
<path d="M322.03 143.653C321.916 143.654 321.804 143.632 321.7 143.587C321.595 143.543 321.501 143.478 321.424 143.395C321.34 143.314 321.274 143.215 321.229 143.107C321.185 142.998 321.164 142.882 321.167 142.764C321.172 142.559 321.229 142.359 321.334 142.183L322.611 140.189L320 140.266C319.879 140.273 319.757 140.254 319.644 140.209C319.531 140.164 319.428 140.096 319.344 140.008C319.194 139.837 319.112 139.618 319.112 139.39C319.112 139.163 319.194 138.943 319.344 138.773C319.428 138.684 319.53 138.616 319.644 138.571C319.757 138.526 319.879 138.507 320 138.515L322.573 138.591L321.364 136.673C321.248 136.482 321.182 136.265 321.172 136.042C321.168 135.922 321.19 135.802 321.235 135.691C321.281 135.58 321.349 135.48 321.435 135.397C321.514 135.315 321.609 135.25 321.714 135.206C321.819 135.162 321.931 135.14 322.045 135.14C322.205 135.14 322.361 135.186 322.496 135.273C322.631 135.36 322.738 135.483 322.804 135.629L324.052 137.871L325.248 135.72C325.325 135.554 325.446 135.412 325.597 135.309C325.749 135.207 325.926 135.148 326.108 135.139C326.22 135.137 326.331 135.158 326.435 135.201C326.538 135.245 326.631 135.309 326.709 135.39C326.791 135.471 326.855 135.569 326.899 135.676C326.942 135.784 326.962 135.899 326.959 136.015C326.955 136.215 326.897 136.411 326.791 136.581L325.531 138.589L328.143 138.512C328.264 138.505 328.386 138.524 328.5 138.569C328.613 138.613 328.716 138.682 328.8 138.77C328.949 138.942 329.03 139.161 329.03 139.388C329.03 139.615 328.949 139.834 328.8 140.006C328.715 140.094 328.613 140.162 328.499 140.207C328.386 140.251 328.264 140.271 328.143 140.264L325.506 140.187L326.676 142.015C326.81 142.232 326.886 142.481 326.894 142.736C326.899 142.854 326.878 142.971 326.835 143.081C326.792 143.191 326.727 143.29 326.644 143.373C326.569 143.453 326.479 143.516 326.379 143.56C326.28 143.603 326.172 143.625 326.063 143.625C325.888 143.621 325.717 143.566 325.571 143.468C325.425 143.37 325.31 143.233 325.239 143.072L324.056 140.972L322.871 143.072C322.803 143.241 322.687 143.386 322.538 143.489C322.388 143.593 322.211 143.65 322.03 143.653Z" fill="black"/>
<path d="M335.111 143.653C334.998 143.654 334.886 143.632 334.783 143.587C334.679 143.543 334.585 143.478 334.508 143.395C334.424 143.314 334.358 143.215 334.313 143.107C334.269 142.998 334.248 142.882 334.251 142.764C334.255 142.559 334.313 142.359 334.418 142.183L335.695 140.189L333.084 140.266C332.963 140.273 332.841 140.254 332.728 140.209C332.614 140.165 332.512 140.096 332.428 140.008C332.278 139.837 332.196 139.618 332.196 139.39C332.196 139.163 332.278 138.943 332.428 138.773C332.512 138.684 332.614 138.615 332.728 138.571C332.841 138.526 332.963 138.507 333.084 138.515L335.657 138.591L334.447 136.673C334.332 136.482 334.267 136.265 334.257 136.042C334.254 135.922 334.275 135.803 334.32 135.692C334.365 135.581 334.433 135.48 334.519 135.397C334.599 135.315 334.694 135.25 334.799 135.206C334.904 135.162 335.017 135.14 335.131 135.14C335.291 135.14 335.448 135.186 335.582 135.273C335.717 135.36 335.824 135.483 335.89 135.629L337.138 137.871L338.334 135.72C338.411 135.554 338.532 135.411 338.684 135.309C338.836 135.207 339.013 135.148 339.196 135.139C339.308 135.137 339.418 135.159 339.522 135.202C339.625 135.245 339.718 135.309 339.795 135.39C339.877 135.471 339.942 135.569 339.985 135.676C340.028 135.784 340.049 135.899 340.046 136.015C340.042 136.215 339.984 136.411 339.879 136.581L338.618 138.589L341.23 138.512C341.352 138.505 341.474 138.524 341.587 138.569C341.701 138.613 341.803 138.682 341.887 138.77C342.036 138.942 342.118 139.161 342.118 139.388C342.118 139.615 342.036 139.834 341.887 140.006C341.803 140.094 341.7 140.162 341.587 140.207C341.473 140.251 341.352 140.271 341.23 140.264L338.593 140.187L339.764 142.015C339.897 142.233 339.973 142.481 339.982 142.736C339.986 142.854 339.966 142.971 339.923 143.081C339.88 143.191 339.814 143.29 339.731 143.373C339.657 143.453 339.567 143.516 339.467 143.559C339.367 143.603 339.259 143.625 339.151 143.625C338.975 143.621 338.804 143.566 338.658 143.468C338.513 143.37 338.397 143.233 338.326 143.072L337.143 140.972L335.959 143.072C335.89 143.242 335.773 143.387 335.623 143.491C335.472 143.594 335.294 143.651 335.111 143.653Z" fill="black"/>
<path d="M379.895 175.217H397.319" stroke="white" stroke-width="3" stroke-linecap="round" stroke-linejoin="round"/>
<path d="M138.115 46.7464V162.557C138.115 164.22 138.442 165.866 139.078 167.402C139.713 168.938 140.645 170.333 141.819 171.509C142.994 172.685 144.388 173.617 145.923 174.253C147.457 174.89 149.102 175.217 150.763 175.217H363.351" stroke="white" stroke-width="3" stroke-linecap="round" stroke-linejoin="round"/>
<path d="M138.116 16.0171V33.3939" stroke="white" stroke-width="3" stroke-linecap="round" stroke-linejoin="round"/>
<path fill-rule="evenodd" clip-rule="evenodd" d="M241.398 197.01C241.398 198.395 240.848 199.723 239.87 200.702C238.892 201.681 237.566 202.231 236.182 202.231C234.799 202.231 233.472 201.681 232.494 200.702C231.516 199.723 230.967 198.395 230.967 197.01C230.939 195.507 230.924 194.602 230.924 194.263C230.818 191.394 231.395 188.541 232.607 185.939C234.331 183.073 236.603 180.576 239.292 178.591C241.438 176.977 243.447 175.19 245.3 173.247C246.286 171.99 246.822 170.438 246.822 168.84C246.826 167.75 246.587 166.674 246.122 165.689C245.657 164.704 244.979 163.836 244.136 163.147C242.115 161.475 239.54 160.625 236.922 160.766C234.259 160.681 231.656 161.566 229.596 163.257C227.44 165.276 226.016 167.954 225.548 170.871C225.356 172.254 224.627 173.504 223.519 174.352C222.412 175.2 221.015 175.577 219.632 175.401C218.249 175.226 216.991 174.512 216.13 173.414C215.27 172.316 214.876 170.923 215.034 169.536C215.171 167.149 215.794 164.815 216.865 162.677C217.937 160.54 219.435 158.645 221.266 157.109C225.118 153.696 230.174 151.993 236.435 152C243.023 152 248.265 153.721 252.16 157.164C253.961 158.608 255.42 160.434 256.43 162.51C257.44 164.587 257.976 166.863 258 169.172C257.996 171.724 257.253 174.22 255.86 176.357C254.428 178.609 251.373 181.685 246.696 185.585C244.898 186.9 243.368 188.548 242.19 190.439C241.481 192.552 241.211 194.788 241.399 197.009L241.398 197.01ZM236.182 206.131C237.355 206.131 238.501 206.479 239.476 207.131C240.452 207.783 241.212 208.71 241.66 209.794C242.109 210.879 242.226 212.072 241.998 213.223C241.769 214.374 241.204 215.432 240.375 216.262C239.546 217.092 238.489 217.657 237.339 217.886C236.189 218.115 234.997 217.997 233.913 217.548C232.83 217.099 231.904 216.338 231.252 215.362C230.601 214.386 230.253 213.239 230.253 212.065C230.252 211.286 230.405 210.513 230.703 209.793C231.001 209.072 231.438 208.417 231.989 207.866C232.539 207.314 233.193 206.877 233.913 206.578C234.633 206.28 235.405 206.126 236.184 206.127L236.182 206.131Z" fill="#263238"/>
<defs>
<linearGradient id="paint0_linear" x1="208.207" y1="76.1053" x2="537.449" y2="76.1053" gradientUnits="userSpaceOnUse">
<stop stop-color="#66A8DE"/>
<stop offset="1" stop-color="#276AB7"/>
</linearGradient>
</defs>
</svg>
