<svg width="107" height="214" viewBox="0 0 107 214" fill="none" xmlns="http://www.w3.org/2000/svg">
<path d="M3.90162 57.0318C5.89589 57.9821 8.28298 57.1359 9.23333 55.1416C10.1837 53.1473 9.33741 50.7602 7.34313 49.8099C5.34886 48.8595 2.96177 49.7058 2.01142 51.7001C1.06107 53.6943 1.90734 56.0814 3.90162 57.0318Z" fill="#B8E986"/>
<path d="M27.9461 68.4899C29.9403 69.4403 32.3274 68.594 33.2778 66.5997C34.2281 64.6054 33.3818 62.2183 31.3876 61.268C29.3933 60.3177 27.0062 61.1639 26.0559 63.1582C25.1055 65.1525 25.9518 67.5396 27.9461 68.4899Z" fill="#B8E986"/>
<path d="M51.9907 79.948C53.985 80.8984 56.3721 80.0521 57.3224 78.0578C58.2728 76.0636 57.4265 73.6765 55.4322 72.7261C53.438 71.7758 51.0509 72.6221 50.1005 74.6163C49.1502 76.6106 49.9965 78.9977 51.9907 79.948Z" fill="#B8E986"/>
<path d="M26.8179 8.94267C28.8122 9.89301 31.1992 9.04674 32.1496 7.05247C33.0999 5.05819 32.2537 2.6711 30.2594 1.72076C28.2651 0.770409 25.878 1.61668 24.9277 3.61095C23.9773 5.60523 24.8236 7.99232 26.8179 8.94267Z" fill="#B8E986"/>
<path d="M76.0352 91.4062C78.0294 92.3565 80.4165 91.5102 81.3669 89.516C82.3172 87.5217 81.471 85.1346 79.4767 84.1843C77.4824 83.2339 75.0953 84.0802 74.145 86.0745C73.1946 88.0687 74.0409 90.4558 76.0352 91.4062Z" fill="#B8E986"/>
<path d="M15.3596 32.9872C17.3539 33.9376 19.741 33.0913 20.6913 31.097C21.6417 29.1027 20.7954 26.7157 18.8011 25.7653C16.8069 24.815 14.4198 25.6612 13.4694 27.6555C12.5191 29.6498 13.3654 32.0369 15.3596 32.9872Z" fill="#B8E986"/>
<path d="M39.4043 44.4454C41.3986 45.3957 43.7857 44.5494 44.736 42.5552C45.6864 40.5609 44.8401 38.1738 42.8458 37.2234C40.8515 36.2731 38.4645 37.1194 37.5141 39.1136C36.5638 41.1079 37.41 43.495 39.4043 44.4454Z" fill="#B8E986"/>
<path d="M16.488 92.5344C18.4823 93.4848 20.8694 92.6385 21.8198 90.6442C22.7701 88.65 21.9238 86.2629 19.9296 85.3125C17.9353 84.3622 15.5482 85.2084 14.5978 87.2027C13.6475 89.197 14.4938 91.5841 16.488 92.5344Z" fill="#B8E986"/>
<path d="M40.5325 103.993C42.5268 104.943 44.9138 104.097 45.8642 102.102C46.8145 100.108 45.9683 97.721 43.974 96.7707C41.9797 95.8203 39.5926 96.6666 38.6423 98.6609C37.6919 100.655 38.5382 103.042 40.5325 103.993Z" fill="#B8E986"/>
<path d="M64.5772 115.451C66.5714 116.401 68.9585 115.555 69.9089 113.561C70.8592 111.566 70.0129 109.179 68.0187 108.229C66.0244 107.278 63.6373 108.125 62.687 110.119C61.7366 112.113 62.5829 114.5 64.5772 115.451Z" fill="#B8E986"/>
<path d="M5.02979 116.579C7.02407 117.529 9.41116 116.683 10.3615 114.689C11.3119 112.695 10.4656 110.307 8.47131 109.357C6.47703 108.407 4.08994 109.253 3.13959 111.247C2.18925 113.242 3.03552 115.629 5.02979 116.579Z" fill="#B8E986"/>
<path d="M29.0745 128.037C31.0687 128.987 33.4558 128.141 34.4062 126.147C35.3565 124.153 34.5103 121.766 32.516 120.815C30.5217 119.865 28.1346 120.711 27.1843 122.705C26.2339 124.7 27.0802 127.087 29.0745 128.037Z" fill="#B8E986"/>
<path d="M53.1189 139.495C55.1132 140.446 57.5003 139.599 58.4506 137.605C59.401 135.611 58.5547 133.224 56.5604 132.273C54.5661 131.323 52.1791 132.169 51.2287 134.164C50.2784 136.158 51.1246 138.545 53.1189 139.495Z" fill="#B8E986"/>
<path d="M-6.42822 140.624C-4.43394 141.574 -2.04685 140.728 -1.0965 138.733C-0.146156 136.739 -0.992426 134.352 -2.9867 133.402C-4.98098 132.451 -7.36807 133.298 -8.31841 135.292C-9.26876 137.286 -8.42249 139.673 -6.42822 140.624Z" fill="#B8E986"/>
<path d="M17.6162 152.082C19.6105 153.032 21.9976 152.186 22.9479 150.191C23.8983 148.197 23.052 145.81 21.0577 144.86C19.0635 143.909 16.6764 144.756 15.726 146.75C14.7757 148.744 15.6219 151.131 17.6162 152.082Z" fill="#B8E986"/>
<path d="M6.15821 176.126C8.15249 177.077 10.5396 176.23 11.4899 174.236C12.4403 172.242 11.594 169.855 9.59972 168.904C7.60545 167.954 5.21836 168.8 4.26801 170.795C3.31766 172.789 4.16393 175.176 6.15821 176.126Z" fill="#B8E986"/>
<path d="M41.6609 163.54C43.6552 164.49 46.0423 163.644 46.9926 161.65C47.943 159.655 47.0967 157.268 45.1024 156.318C43.1081 155.368 40.721 156.214 39.7707 158.208C38.8204 160.202 39.6666 162.589 41.6609 163.54Z" fill="#B8E986"/>
<path d="M30.2026 187.584C32.1969 188.535 34.584 187.688 35.5344 185.694C36.4847 183.7 35.6384 181.313 33.6442 180.362C31.6499 179.412 29.2628 180.258 28.3124 182.253C27.3621 184.247 28.2084 186.634 30.2026 187.584Z" fill="#B8E986"/>
<path d="M18.7446 211.629C20.7389 212.579 23.126 211.733 24.0763 209.739C25.0267 207.744 24.1804 205.357 22.1862 204.407C20.1919 203.457 17.8048 204.303 16.8544 206.297C15.9041 208.291 16.7504 210.679 18.7446 211.629Z" fill="#B8E986"/>
</svg>
