<svg width="30" height="30" viewBox="0 0 30 30" fill="none" xmlns="http://www.w3.org/2000/svg">
<rect width="30" height="30" rx="15" fill="#F8F8F8"/>
<path d="M22.5703 13.9592C22.5698 13.9589 22.5695 13.9584 22.5691 13.958L16.0417 7.43152C15.7635 7.1532 15.3936 7 15.0001 7C14.6066 7 14.2367 7.1532 13.9584 7.43152L7.43439 13.9547C7.43219 13.9569 7.42987 13.9592 7.42779 13.9614C6.85645 14.536 6.85742 15.4683 7.4306 16.0414C7.69247 16.3033 8.03821 16.455 8.408 16.4709C8.42313 16.4724 8.43827 16.4731 8.45353 16.4731H8.71357V21.2761C8.71357 22.2267 9.48708 23 10.4377 23H12.9915C13.2504 23 13.4603 22.79 13.4603 22.5312V18.7656C13.4603 18.3319 13.8132 17.9791 14.247 17.9791H15.7532C16.187 17.9791 16.5398 18.3319 16.5398 18.7656V22.5312C16.5398 22.79 16.7497 23 17.0086 23H19.5623C20.5131 23 21.2865 22.2267 21.2865 21.2761V16.4731H21.5277C21.9211 16.4731 22.291 16.3199 22.5695 16.0415C23.1432 15.4675 23.1435 14.5336 22.5703 13.9592ZM21.9064 15.3787C21.8052 15.4799 21.6707 15.5356 21.5277 15.5356H20.8177C20.5588 15.5356 20.3489 15.7455 20.3489 16.0044V21.2761C20.3489 21.7097 19.9961 22.0625 19.5623 22.0625H17.4774V18.7656C17.4774 17.8151 16.704 17.0416 15.7532 17.0416H14.247C13.2962 17.0416 12.5227 17.8151 12.5227 18.7656V22.0625H10.4377C10.0041 22.0625 9.65116 21.7097 9.65116 21.2761V16.0044C9.65116 15.7455 9.4413 15.5356 9.18237 15.5356H8.48454C8.47722 15.5352 8.47001 15.5348 8.46257 15.5347C8.3229 15.5322 8.19191 15.4768 8.09375 15.3785C7.88499 15.1698 7.88499 14.8301 8.09375 14.6212C8.09388 14.6212 8.09388 14.6211 8.094 14.621L8.09437 14.6206L14.6215 8.09436C14.7226 7.99316 14.857 7.9375 15.0001 7.9375C15.1431 7.9375 15.2775 7.99316 15.3787 8.09436L21.9044 14.6193C21.9053 14.6202 21.9064 14.6212 21.9074 14.6222C22.1151 14.8313 22.1147 15.1703 21.9064 15.3787Z" fill="#2A2A2A"/>
</svg>
