<svg width="25" height="21" viewBox="0 0 25 21" fill="none" xmlns="http://www.w3.org/2000/svg">
<path d="M25 0.808712C25 0.594229 24.9148 0.388529 24.7631 0.236866C24.6115 0.0852033 24.4058 0 24.1913 0H19.5234C16.9686 0.00327985 14.5193 1.01949 12.7125 2.82583C10.9058 4.63218 9.88902 7.08124 9.88516 9.63608V12.2132L7.25954 9.58756C7.18494 9.51032 7.09571 9.44871 6.99704 9.40632C6.89837 9.36394 6.79225 9.34163 6.68487 9.3407C6.57749 9.33976 6.471 9.36022 6.37161 9.40089C6.27223 9.44155 6.18193 9.5016 6.106 9.57753C6.03007 9.65346 5.97002 9.74376 5.92936 9.84315C5.88869 9.94253 5.86823 10.049 5.86917 10.1564C5.8701 10.2638 5.89241 10.3699 5.93479 10.4686C5.97717 10.5672 6.03878 10.6565 6.11602 10.7311L10.1218 14.7369C10.1977 14.8125 10.2879 14.8723 10.3871 14.9127L10.3973 14.9197C10.5866 14.9966 10.7984 14.9966 10.9877 14.9197L10.9996 14.9159C11.0988 14.8755 11.1889 14.8157 11.2648 14.7401L15.2701 10.7343C15.4174 10.5818 15.4989 10.3775 15.4971 10.1655C15.4953 9.95342 15.4102 9.75058 15.2603 9.60064C15.1103 9.4507 14.9075 9.36565 14.6954 9.36381C14.4834 9.36196 14.2791 9.44348 14.1266 9.59079L11.501 12.2164V9.63608C11.504 7.50967 12.3503 5.47126 13.8542 3.96801C15.3582 2.46476 17.397 1.61942 19.5234 1.61742H24.1913C24.4058 1.61742 24.6115 1.53222 24.7631 1.38056C24.9148 1.2289 25 1.0232 25 0.808712ZM4.5827 0H8.53731C8.75179 0 8.95749 0.0852033 9.10915 0.236866C9.26082 0.388529 9.34602 0.594229 9.34602 0.808712C9.34602 1.0232 9.26082 1.2289 9.10915 1.38056C8.95749 1.53222 8.75179 1.61742 8.53731 1.61742H4.5827C3.79653 1.61828 3.04279 1.93097 2.48688 2.48688C1.93097 3.04279 1.61828 3.79653 1.61742 4.5827V16.199C1.61828 16.9852 1.93097 17.739 2.48688 18.2949C3.04279 18.8508 3.79653 19.1635 4.5827 19.1643H20.4173C21.2035 19.1635 21.9572 18.8508 22.5131 18.2949C23.069 17.739 23.3817 16.9852 23.3826 16.199V6.16401C23.3826 5.94952 23.4678 5.74382 23.6194 5.59216C23.7711 5.4405 23.9768 5.35529 24.1913 5.35529C24.4058 5.35529 24.6115 5.4405 24.7631 5.59216C24.9148 5.74382 25 5.94952 25 6.16401V16.199C24.9986 17.414 24.5153 18.5788 23.6562 19.4379C22.7971 20.297 21.6323 20.7803 20.4173 20.7818H4.5827C3.36773 20.7803 2.20293 20.297 1.34382 19.4379C0.484705 18.5788 0.0014267 17.414 0 16.199V4.5827C0.0014267 3.36773 0.484705 2.20293 1.34382 1.34382C2.20293 0.484704 3.36773 0.00142686 4.5827 0Z" fill="#2A2A2A"/>
</svg>
