<svg width="50" height="50" viewBox="0 0 50 50" fill="none" xmlns="http://www.w3.org/2000/svg">
<path d="M25 50C38.8071 50 50 38.8071 50 25C50 11.1929 38.8071 0 25 0C11.1929 0 0 11.1929 0 25C0 38.8071 11.1929 50 25 50Z" fill="#B8E986" fill-opacity="0.47"/>
<path d="M13 11.1964H36.9481V41H13V11.1964Z" fill="#F45858"/>
<path d="M15.8809 13.9314H34.0676V38.1344H15.8809V13.9314Z" fill="#DFEEF4"/>
<path d="M29.8225 13.9314V10.2152C29.8226 10.0556 29.7913 9.8975 29.7302 9.74999C29.6692 9.60249 29.5796 9.46846 29.4667 9.35559C29.3539 9.24272 29.2198 9.15322 29.0723 9.0922C28.9248 9.03119 28.7667 8.99985 28.607 9H21.3411C21.019 9 20.7101 9.12795 20.4824 9.35569C20.2546 9.58344 20.1267 9.89233 20.1267 10.2144V13.9306L29.8225 13.9314Z" fill="#3EA2E5"/>
<path d="M18.7767 23.8521H23.1382V28.2136H18.7767V23.8521Z" fill="#F2DA30"/>
<path d="M18.7767 30.9933H23.1382V35.3548H18.7767V30.9933Z" fill="#F2DA30"/>
<path d="M18.7767 16.711H23.1382V21.0725H18.7767V16.711Z" fill="#F2DA30"/>
<path d="M31.1715 19.3772H25.4322C25.3035 19.3772 25.1801 19.3261 25.0891 19.2351C24.998 19.1441 24.9469 19.0206 24.9469 18.8919C24.9469 18.7632 24.998 18.6398 25.0891 18.5487C25.1801 18.4577 25.3035 18.4066 25.4322 18.4066H31.1715C31.3002 18.4066 31.4236 18.4577 31.5147 18.5487C31.6057 18.6398 31.6568 18.7632 31.6568 18.8919C31.6568 19.0206 31.6057 19.1441 31.5147 19.2351C31.4236 19.3261 31.3002 19.3772 31.1715 19.3772Z" fill="#6D7A84"/>
<path d="M31.1715 26.5184H25.4322C25.3035 26.5184 25.1801 26.4672 25.0891 26.3762C24.998 26.2852 24.9469 26.1617 24.9469 26.033C24.9469 25.9043 24.998 25.7809 25.0891 25.6899C25.1801 25.5988 25.3035 25.5477 25.4322 25.5477H31.1715C31.3002 25.5477 31.4236 25.5988 31.5147 25.6899C31.6057 25.7809 31.6568 25.9043 31.6568 26.033C31.6568 26.1617 31.6057 26.2852 31.5147 26.3762C31.4236 26.4672 31.3002 26.5184 31.1715 26.5184Z" fill="#6D7A84"/>
<path d="M31.1715 33.6595H25.4322C25.3035 33.6595 25.1801 33.6084 25.0891 33.5173C24.998 33.4263 24.9469 33.3029 24.9469 33.1742C24.9469 33.0454 24.998 32.922 25.0891 32.831C25.1801 32.74 25.3035 32.6888 25.4322 32.6888H31.1715C31.3002 32.6888 31.4236 32.74 31.5147 32.831C31.6057 32.922 31.6568 33.0454 31.6568 33.1742C31.6568 33.3029 31.6057 33.4263 31.5147 33.5173C31.4236 33.6084 31.3002 33.6595 31.1715 33.6595Z" fill="#6D7A84"/>
<path d="M20.9606 19.9069C20.8969 19.907 20.8338 19.8944 20.7749 19.87C20.716 19.8456 20.6626 19.8098 20.6176 19.7647L19.8874 19.0345C19.841 18.9897 19.8041 18.9361 19.7787 18.8769C19.7532 18.8177 19.7399 18.754 19.7393 18.6896C19.7388 18.6251 19.7511 18.5612 19.7755 18.5016C19.7999 18.4419 19.8359 18.3878 19.8815 18.3422C19.9271 18.2966 19.9813 18.2606 20.0409 18.2362C20.1006 18.2118 20.1645 18.1996 20.2289 18.2001C20.2934 18.2007 20.357 18.2141 20.4162 18.2396C20.4755 18.265 20.529 18.302 20.5738 18.3484L20.9606 18.7352L23.9141 15.782C24.0057 15.6936 24.1282 15.6446 24.2555 15.6457C24.3827 15.6468 24.5045 15.6978 24.5945 15.7878C24.6845 15.8777 24.7355 15.9994 24.7367 16.1267C24.7378 16.2539 24.6889 16.3765 24.6005 16.4681L21.304 19.7647C21.2589 19.8098 21.2054 19.8456 21.1465 19.8701C21.0876 19.8945 21.0244 19.907 20.9606 19.9069Z" fill="#6D7A84"/>
<path d="M20.9606 27.0481C20.8969 27.0481 20.8338 27.0355 20.7749 27.0111C20.716 26.9867 20.6626 26.9509 20.6176 26.9058L19.8874 26.1756C19.799 26.084 19.7501 25.9614 19.7512 25.8342C19.7524 25.7069 19.8034 25.5852 19.8934 25.4953C19.9834 25.4053 20.1052 25.3543 20.2324 25.3532C20.3597 25.3521 20.4822 25.4011 20.5738 25.4895L20.9606 25.8764L23.9141 22.9231C24.0056 22.8347 24.1282 22.7857 24.2555 22.7868C24.3827 22.7879 24.5045 22.8389 24.5945 22.9289C24.6845 23.0189 24.7355 23.1406 24.7367 23.2678C24.7378 23.3951 24.6889 23.5177 24.6005 23.6092L21.3039 26.9058C21.2589 26.951 21.2054 26.9868 21.1465 27.0112C21.0876 27.0356 21.0244 27.0481 20.9606 27.0481Z" fill="#6D7A84"/>
<path d="M20.9606 34.1892C20.8969 34.1892 20.8338 34.1767 20.7749 34.1523C20.716 34.1278 20.6626 34.092 20.6176 34.0469L19.8874 33.3167C19.799 33.2252 19.7501 33.1026 19.7512 32.9753C19.7524 32.8481 19.8034 32.7263 19.8934 32.6364C19.9834 32.5464 20.1052 32.4954 20.2324 32.4943C20.3597 32.4932 20.4822 32.5422 20.5738 32.6306L20.9606 33.0175L23.9141 30.0642C23.9589 30.0179 24.0124 29.9809 24.0716 29.9554C24.1309 29.93 24.1945 29.9166 24.259 29.916C24.3234 29.9154 24.3873 29.9277 24.447 29.9521C24.5066 29.9765 24.5608 30.0125 24.6064 30.0581C24.652 30.1036 24.688 30.1578 24.7124 30.2175C24.7368 30.2771 24.7491 30.341 24.7486 30.4054C24.748 30.4699 24.7347 30.5336 24.7092 30.5928C24.6838 30.652 24.6469 30.7056 24.6005 30.7503L21.3039 34.0469C21.2589 34.0921 21.2054 34.1279 21.1465 34.1523C21.0876 34.1767 21.0244 34.1892 20.9606 34.1892Z" fill="#6D7A84"/>
</svg>
