<svg width="405" height="292" viewBox="0 0 405 292" fill="none" xmlns="http://www.w3.org/2000/svg">
<path d="M0 290.899H65.1453" stroke="#3F3D56" stroke-miterlimit="10"/>
<path d="M376.98 50.1355H102.976C98.7715 50.1355 95.3633 53.5437 95.3633 57.748V238.352C95.3633 242.556 98.7715 245.964 102.976 245.964H376.98C381.185 245.964 384.593 242.556 384.593 238.352V57.748C384.593 53.5437 381.185 50.1355 376.98 50.1355Z" fill="#F2F2F2"/>
<path d="M368.151 37.7736H94.1459C89.9417 37.7736 86.5334 41.1818 86.5334 45.3861V225.99C86.5334 230.194 89.9417 233.602 94.1459 233.602H368.151C372.355 233.602 375.763 230.194 375.763 225.99V45.3861C375.763 41.1818 372.355 37.7736 368.151 37.7736Z" stroke="#3F3D56" stroke-miterlimit="10"/>
<path d="M86.5334 56.5481H375.763" stroke="#3F3D56" stroke-miterlimit="10"/>
<path opacity="0.3" d="M335.501 100.564H262.187C260.65 100.564 259.404 101.811 259.404 103.348V109.947C259.404 111.484 260.65 112.73 262.187 112.73H335.501C337.039 112.73 338.285 111.484 338.285 109.947V103.348C338.285 101.811 337.039 100.564 335.501 100.564Z" fill="#6C63FF"/>
<path opacity="0.3" d="M350.61 134.314H247.078C245.541 134.314 244.295 135.561 244.295 137.098V141.342C244.295 142.879 245.541 144.125 247.078 144.125H350.61C352.148 144.125 353.394 142.879 353.394 141.342V137.098C353.394 135.561 352.148 134.314 350.61 134.314Z" fill="#6C63FF"/>
<path opacity="0.3" d="M350.61 161H247.078C245.541 161 244.295 162.247 244.295 163.784V168.028C244.295 169.565 245.541 170.811 247.078 170.811H350.61C352.148 170.811 353.394 169.565 353.394 168.028V163.784C353.394 162.247 352.148 161 350.61 161Z" fill="#6C63FF"/>
<path opacity="0.3" d="M350.61 187.686H247.078C245.541 187.686 244.295 188.933 244.295 190.47V194.714C244.295 196.251 245.541 197.497 247.078 197.497H350.61C352.148 197.497 353.394 196.251 353.394 194.714V190.47C353.394 188.933 352.148 187.686 350.61 187.686Z" fill="#6C63FF"/>
<path d="M339.426 96.6399H266.112C264.575 96.6399 263.329 97.8861 263.329 99.4233V106.022C263.329 107.559 264.575 108.806 266.112 108.806H339.426C340.963 108.806 342.209 107.559 342.209 106.022V99.4233C342.209 97.8861 340.963 96.6399 339.426 96.6399Z" stroke="#3F3D56" stroke-miterlimit="10"/>
<path d="M354.535 130.39H251.003C249.466 130.39 248.219 131.636 248.219 133.173V137.418C248.219 138.955 249.466 140.201 251.003 140.201H354.535C356.072 140.201 357.318 138.955 357.318 137.418V133.173C357.318 131.636 356.072 130.39 354.535 130.39Z" stroke="#3F3D56" stroke-miterlimit="10"/>
<path d="M354.535 157.076H251.003C249.466 157.076 248.219 158.322 248.219 159.859V164.104C248.219 165.641 249.466 166.887 251.003 166.887H354.535C356.072 166.887 357.318 165.641 357.318 164.104V159.859C357.318 158.322 356.072 157.076 354.535 157.076Z" stroke="#3F3D56" stroke-miterlimit="10"/>
<path d="M354.535 183.762H251.003C249.466 183.762 248.219 185.008 248.219 186.545V190.79C248.219 192.327 249.466 193.573 251.003 193.573H354.535C356.072 193.573 357.318 192.327 357.318 190.79V186.545C357.318 185.008 356.072 183.762 354.535 183.762Z" stroke="#3F3D56" stroke-miterlimit="10"/>
<path opacity="0.3" d="M108.51 55.4335C111.761 55.4335 114.397 52.798 114.397 49.5469C114.397 46.2958 111.761 43.6602 108.51 43.6602C105.259 43.6602 102.624 46.2958 102.624 49.5469C102.624 52.798 105.259 55.4335 108.51 55.4335Z" fill="#6C63FF"/>
<path opacity="0.3" d="M124.993 55.4335C128.244 55.4335 130.879 52.798 130.879 49.5469C130.879 46.2958 128.244 43.6602 124.993 43.6602C121.742 43.6602 119.106 46.2958 119.106 49.5469C119.106 52.798 121.742 55.4335 124.993 55.4335Z" fill="#6C63FF"/>
<path opacity="0.3" d="M141.475 55.4335C144.726 55.4335 147.362 52.798 147.362 49.5469C147.362 46.2958 144.726 43.6602 141.475 43.6602C138.224 43.6602 135.589 46.2958 135.589 49.5469C135.589 52.798 138.224 55.4335 141.475 55.4335Z" fill="#6C63FF"/>
<path d="M110.865 53.0789C114.116 53.0789 116.752 50.4433 116.752 47.1922C116.752 43.9411 114.116 41.3056 110.865 41.3056C107.614 41.3056 104.978 43.9411 104.978 47.1922C104.978 50.4433 107.614 53.0789 110.865 53.0789Z" stroke="#3F3D56" stroke-miterlimit="10"/>
<path d="M127.347 53.0789C130.598 53.0789 133.234 50.4433 133.234 47.1922C133.234 43.9411 130.598 41.3056 127.347 41.3056C124.096 41.3056 121.461 43.9411 121.461 47.1922C121.461 50.4433 124.096 53.0789 127.347 53.0789Z" stroke="#3F3D56" stroke-miterlimit="10"/>
<path d="M143.83 53.0789C147.081 53.0789 149.717 50.4433 149.717 47.1922C149.717 43.9411 147.081 41.3056 143.83 41.3056C140.579 41.3056 137.943 43.9411 137.943 47.1922C137.943 50.4433 140.579 53.0789 143.83 53.0789Z" stroke="#3F3D56" stroke-miterlimit="10"/>
<rect x="114" y="85" width="109" height="140" rx="12" fill="#4776E6"/>
<path d="M167.367 119C158.644 119 151.547 126.097 151.547 134.82C151.547 143.544 158.644 150.641 167.367 150.641C176.091 150.641 183.188 143.544 183.188 134.82C183.188 126.097 176.091 119 167.367 119Z" fill="white"/>
<path d="M187.051 160.976C182.719 156.578 176.978 154.156 170.883 154.156H163.852C157.757 154.156 152.015 156.578 147.684 160.976C143.374 165.352 141 171.129 141 177.242C141 178.213 141.787 179 142.758 179H191.977C192.947 179 193.734 178.213 193.734 177.242C193.734 171.129 191.361 165.352 187.051 160.976Z" fill="white"/>
<path d="M204.748 75.4481H114.307C109.155 75.4481 104.978 79.6248 104.978 84.7771V205.436C104.978 210.588 109.155 214.765 114.307 214.765H204.748C209.9 214.765 214.077 210.588 214.077 205.436V84.7771C214.077 79.6248 209.9 75.4481 204.748 75.4481Z" stroke="#3F3D56" stroke-miterlimit="10"/>
<path d="M39.5676 126.221C39.5676 126.221 35.9084 125.139 35.1236 126.317C34.3387 127.494 36.1936 136.029 36.1936 136.029L44.2567 136.519L41.4428 129.413L39.5676 126.221Z" fill="#2F2E41"/>
<path d="M11.3589 196.308C11.3589 196.308 18.6954 212.414 13.0454 211.908C7.39542 211.402 5.20288 196.308 5.20288 196.308H11.3589Z" fill="#A0616A"/>
<path d="M59.3417 194.63C59.3417 194.63 56.1231 212.033 61.4825 210.174C66.8419 208.316 65.3145 193.139 65.3145 193.139L59.3417 194.63Z" fill="#A0616A"/>
<path d="M38.0066 122.183C38.0066 122.183 37.9222 130.278 41.0424 130.7C44.1625 131.122 39.2715 135.422 39.2715 135.422L33.7058 136.519L25.6946 135.928L22.1528 131.375C22.1528 131.375 28.3931 128.423 25.6946 119.231L38.0066 122.183Z" fill="#A0616A"/>
<path opacity="0.1" d="M38.0066 122.183C38.0066 122.183 37.9222 130.278 41.0424 130.7C44.1625 131.122 39.2715 135.422 39.2715 135.422L33.7058 136.519L25.6946 135.928L22.1528 131.375C22.1528 131.375 28.3931 128.423 25.6946 119.231L38.0066 122.183Z" fill="black"/>
<path d="M52.3426 190.658C52.3426 190.658 56.306 199.175 53.1858 225.907C53.1858 225.907 54.1135 235.352 53.3545 237.122C52.5956 238.893 46.3552 262.927 46.3552 262.927C46.3552 262.927 38.3441 264.698 37.2478 259.385C37.2478 259.385 38.3441 251.796 38.2597 250.615C38.1754 249.434 40.0306 236.532 40.0306 236.532L36.2358 211.571L33.3687 234.087C33.3687 234.087 33.3687 240.58 32.4411 242.014C31.5134 243.447 32.4411 272.287 32.4411 272.287C32.4411 272.287 35.0552 276.672 31.0918 276.757C27.1284 276.841 23.5866 276.672 23.2492 273.89C22.9119 271.107 22.7433 268.324 21.9 266.637C21.0567 264.951 19.9604 245.64 20.2134 238.893C20.4664 232.147 14.6477 197.488 16.503 193.862C18.3582 190.236 52.3426 190.658 52.3426 190.658Z" fill="#2F2E41"/>
<path d="M33.7058 125.219C39.2946 125.219 43.8252 120.688 43.8252 115.099C43.8252 109.511 39.2946 104.98 33.7058 104.98C28.117 104.98 23.5864 109.511 23.5864 115.099C23.5864 120.688 28.117 125.219 33.7058 125.219Z" fill="#A0616A"/>
<path d="M23.5865 131.543C23.5865 131.543 29.7425 136.097 38.6813 132.471C38.6813 132.471 41.6328 131.037 41.3798 128.845C41.1268 126.652 47.5358 146.469 47.5358 146.469L54.0291 180.96L53.6917 195.043C53.6917 195.043 50.8246 193.609 41.8858 196.813C32.947 200.018 18.3582 193.187 18.3582 193.187L18.8641 157.01L19.3701 135.928L20.7193 131.29C20.7193 131.29 21.394 130.025 23.5865 131.543Z" fill="#F2F2F2"/>
<path d="M38.2878 125.882C38.2878 125.882 39.7775 125.64 41.2111 127.917C42.6447 130.194 46.0178 131.628 46.0178 131.628C46.0178 131.628 54.1977 132.134 55.3783 136.519C56.5589 140.904 59.5104 146.891 60.9439 157.938C62.3775 168.985 65.2447 186.61 65.6663 188.043C66.088 189.477 65.076 193.862 66.2566 195.211C67.4372 196.561 57.9081 196.561 57.9081 196.561C57.9081 196.561 57.0648 189.646 56.4745 189.646C55.8842 189.646 56.0529 194.284 56.6432 197.657C57.2335 201.03 52.3424 197.657 52.3424 197.657C52.3424 197.657 48.5477 182.225 44.9215 168.311C41.2954 154.396 39.1872 146.722 39.8618 143.602C40.5364 140.482 42.3917 131.543 41.0424 130.7C39.6932 129.857 38.2878 125.882 38.2878 125.882Z" fill="#2F2E41"/>
<path d="M26.1271 125.875C26.1271 125.875 23.9239 127.074 18.3582 131.037C12.7925 135.001 8.99776 138.037 8.99776 138.037C8.99776 138.037 6.80522 139.723 5.45597 149.758C4.10672 159.793 1.07089 185.766 2.25149 189.055C3.43209 192.344 3.85373 194.284 3.43209 196.223C3.01045 198.163 12.2866 198.078 12.4552 197.657C12.6239 197.235 12.2022 189.561 12.6239 189.393C13.0455 189.224 15.3224 193.946 15.744 197.91C16.1657 201.873 21.0567 204.993 22.153 204.993C23.2493 204.993 28.8993 182.14 28.9836 166.54C29.0679 150.939 27.1284 137.784 25.6948 135.928C24.2612 134.073 26.1271 125.875 26.1271 125.875Z" fill="#2F2E41"/>
<path d="M40.9583 263.686C40.9583 263.686 41.6329 261.831 43.9941 262.421C46.3553 263.011 47.9575 260.903 47.9575 260.903C47.9575 260.903 49.2225 260.734 48.3792 262.337C47.5359 263.939 46.8613 265.035 46.8613 265.035C46.8613 265.035 51.921 276.588 48.6322 279.371C45.3434 282.154 41.5486 280.467 41.5486 280.467C41.5486 280.467 37.8381 277.853 38.0068 270.938C38.0068 270.938 37.8381 268.746 35.8143 265.204C33.7904 261.662 32.2725 256.265 34.718 255.253C37.1635 254.241 37.793 254.204 37.793 254.204C37.793 254.204 36.6486 259.438 39.6046 261.267L40.9583 263.686Z" fill="#3F3D56"/>
<path d="M25.2732 276.757C25.2732 276.757 23.2493 272.962 26.6224 272.54C29.9955 272.119 33.6217 271.866 33.453 273.637C33.2844 275.408 32.8627 278.106 32.8627 278.106L33.453 280.046C33.453 280.046 33.6217 284.852 34.212 285.443C34.8023 286.033 38.0067 291.093 31.1761 291.093C24.3455 291.093 22.3217 290.334 22.912 288.731C23.5023 287.129 23.6709 279.202 23.6709 279.202L25.2732 276.757Z" fill="#3F3D56"/>
<path d="M30.5015 107.004C30.5015 107.004 35.2239 108.269 37.6694 108.775C40.1149 109.281 39.8619 107.847 39.8619 107.847C39.8619 107.847 43.0664 108.269 42.8977 107.931C42.7291 107.594 44.247 105.823 42.4761 103.799C40.7052 101.775 41.2112 100.257 41.2112 100.257H39.6933L39.2716 99.6672H36.9104C36.9104 99.6672 35.1395 98.9926 30.5015 99.6672C25.8634 100.342 19.5388 100.51 19.0328 103.293C18.5268 106.076 15.9126 109.534 16.8403 111.136C17.7679 112.738 23.0806 119.316 23.5865 122.099C24.0925 124.881 26.455 125.5 26.37 123.757C26.285 122.014 23.9238 115.943 25.9477 115.69C27.9716 115.437 31.4291 110.293 30.5015 107.004Z" fill="#2F2E41"/>
<path d="M366.886 2.92661C365.214 3.0211 363.6 3.57971 362.227 4.53982C360.854 5.49993 359.775 6.82356 359.112 8.36232C357.168 13.0613 359.671 18.5811 363.429 22.0076C367.186 25.4342 372.013 27.3928 376.398 29.9673C382.288 33.4252 387.581 38.2253 390.529 44.3871C393.476 50.5488 393.79 58.1815 390.325 64.068C387.11 69.5318 381.263 72.8018 375.686 75.8176" stroke="#3F3D56" stroke-miterlimit="10"/>
<path d="M371.839 6.67151C375.632 6.67151 378.706 5.17804 378.706 3.33576C378.706 1.49347 375.632 0 371.839 0C368.046 0 364.971 1.49347 364.971 3.33576C364.971 5.17804 368.046 6.67151 371.839 6.67151Z" fill="#6C63FF"/>
<path d="M377.333 28.6483C381.126 28.6483 384.201 27.1548 384.201 25.3125C384.201 23.4702 381.126 21.9767 377.333 21.9767C373.54 21.9767 370.465 23.4702 370.465 25.3125C370.465 27.1548 373.54 28.6483 377.333 28.6483Z" fill="#6C63FF"/>
<path d="M364.775 32.1802C368.568 32.1802 371.642 30.6868 371.642 28.8445C371.642 27.0022 368.568 25.5087 364.775 25.5087C360.982 25.5087 357.907 27.0022 357.907 28.8445C357.907 30.6868 360.982 32.1802 364.775 32.1802Z" fill="#6C63FF"/>
<path d="M384.397 50.625C388.19 50.625 391.265 49.1315 391.265 47.2892C391.265 45.447 388.19 43.9535 384.397 43.9535C380.604 43.9535 377.529 45.447 377.529 47.2892C377.529 49.1315 380.604 50.625 384.397 50.625Z" fill="#6C63FF"/>
<path d="M398.132 50.625C401.925 50.625 405 49.1315 405 47.2892C405 45.447 401.925 43.9535 398.132 43.9535C394.339 43.9535 391.265 45.447 391.265 47.2892C391.265 49.1315 394.339 50.625 398.132 50.625Z" fill="#6C63FF"/>
</svg>
