<svg width="18" height="17" viewBox="0 0 18 17" fill="none" xmlns="http://www.w3.org/2000/svg">
<path d="M1.93024 0H8.4537C9.52594 0 10.4025 0.888291 10.4025 1.96038V3.69287C10.4025 3.96135 10.1848 4.1789 9.91635 4.1789C9.64787 4.1789 9.43032 3.96135 9.43032 3.69287V1.96038C9.42895 1.41978 8.99431 0.979963 8.4537 0.972209H1.93024C1.39405 0.972209 0.972174 1.42434 0.972174 1.96038V14.5304C0.965788 15.0632 1.39253 15.5003 1.92538 15.5065H8.45355C8.99203 15.5046 9.42804 15.0687 9.43032 14.5304V12.8341C9.43032 12.5654 9.64787 12.3479 9.91635 12.3479C10.1848 12.3479 10.4025 12.5654 10.4025 12.8341V14.5304C10.3996 15.6055 9.52883 16.4762 8.4537 16.4788H1.93024C0.860129 16.4748 -0.00429249 15.6037 -3.62396e-05 14.5334V1.96038C-3.62396e-05 0.888291 0.858002 0 1.93024 0Z" fill="black"/>
<path d="M16.3315 8.74992H4.82701C4.55853 8.74992 4.34083 8.53222 4.34083 8.26374C4.34083 7.99541 4.55853 7.77771 4.82701 7.77771H16.4394L13.9454 4.89483C13.7695 4.69036 13.7914 4.38235 13.9939 4.20463C14.1959 4.02798 14.5029 4.0485 14.6794 4.25039V4.2507L17.823 7.87151C17.9388 7.96683 18.0041 8.11035 17.9998 8.26009C17.9952 8.41014 17.9217 8.5497 17.8002 8.63788L14.6563 11.7818C14.4664 11.9717 14.1586 11.9717 13.969 11.7818C13.7815 11.5978 13.7786 11.2971 13.9624 11.1097C13.9646 11.1077 13.9667 11.1056 13.969 11.1034L16.3315 8.74992Z" fill="black"/>
</svg>
