<svg width="50" height="50" viewBox="0 0 50 50" fill="none" xmlns="http://www.w3.org/2000/svg">
<path d="M25 50C38.8071 50 50 38.8071 50 25C50 11.1929 38.8071 0 25 0C11.1929 0 0 11.1929 0 25C0 38.8071 11.1929 50 25 50Z" fill="#A2DAE2"/>
<path d="M37.9242 32.2271L37.2281 29.0582C36.6161 26.1711 34.547 23.81 31.7652 22.8245L27.9731 21.4948H21.384L17.6005 22.8245C14.8183 23.8125 12.7468 26.1716 12.1268 29.0582L11.441 32.2271H37.9242Z" fill="#575B6D"/>
<path d="M21.3879 20.2549H27.9736V22.9713H21.3879V20.2549Z" fill="#F4BB87"/>
<path d="M29.8694 14.5973C30.5276 14.5973 31.0613 15.1309 31.0613 15.7892C31.0613 16.4475 30.5277 16.9811 29.8694 16.9811H29.5088V14.5974L29.8694 14.5973Z" fill="#F4BB87"/>
<path d="M19.4925 14.5973C18.8342 14.5973 18.3005 15.1309 18.3005 15.7892C18.3005 16.4475 18.8341 16.9811 19.4925 16.9811H19.8531V14.5974L19.4925 14.5973Z" fill="#F4BB87"/>
<path d="M19.6216 10.7318V16.4387C19.6233 19.2291 21.8867 21.49 24.6772 21.4883C24.8455 21.4882 25.0137 21.4796 25.1812 21.4628C27.809 21.221 29.732 18.8562 29.732 16.218V10.7335L19.6216 10.7318Z" fill="#FED19A"/>
<path d="M21.7433 8.57769C22.5249 6.95958 24.248 6.82915 25.7807 7.12665C27.8293 7.5244 29.6086 8.93089 30.1246 10.9528C30.4443 12.0324 30.3037 13.1961 29.736 14.1684C29.5079 14.2115 28.8291 13.5517 28.7233 13.1272C28.2914 11.424 27.6363 11.4576 27.6363 11.4576C26.7564 11.9572 25.7157 12.0919 24.7377 11.8325C23.845 11.6314 22.9233 11.5933 22.0171 11.7202C19.5918 12.0959 19.6233 14.5553 19.6233 14.5553C18.7143 11.402 19.1958 8.51167 21.7433 8.57769Z" fill="#414451"/>
<path d="M24.3452 32.2271H25.0206H25.696L26.0908 30.8141V30.8037L28.2517 22.9699H27.971H27.67H27.5659H26.1218H24.6777H23.2336H21.7895H21.6958H21.384H21.1141L23.2751 30.7829V30.7933L23.5351 31.7598L23.5454 31.7805L23.6698 32.2271H23.7946H24.3452Z" fill="#EEEFEE"/>
<path d="M26.127 22.9708L25.5037 24.7794H23.858L23.2349 22.9708H26.127Z" fill="#DA364C"/>
<path d="M23.7946 32.2271L23.5454 31.7805L23.535 31.7598L23.2336 31.188L23.2751 30.7933V30.7829L23.4517 28.9856V28.9753L23.8567 24.7777H25.509L25.9141 28.9856L26.0907 30.8037V30.8141L26.1218 31.188L25.7478 32.2271H25.696H25.0206H24.3452H23.7946Z" fill="#EF5261"/>
<path d="M27.9737 21.4904L24.6808 22.9708L27.1721 25.3451L27.9737 21.4904Z" fill="#DBD8DD"/>
<path d="M21.3883 21.4904L24.6807 22.9708L22.1898 25.3451L21.3883 21.4904Z" fill="#DBD8DD"/>
<path d="M25.696 32.2271H25.0206L25.9141 28.9856L26.9635 25.1521L27.5659 22.9699L27.971 21.4947L30.0491 23.8738L28.1477 25.2661L30.0491 27.5622L26.0493 32.2271H25.7478H25.696Z" fill="#414451"/>
<path d="M23.7946 32.2271H23.6698H23.3166L19.3167 27.5622L21.2074 25.2661L19.3167 23.8738L21.384 21.4947L21.7895 22.9699L22.3919 25.1624L23.4517 28.9752V28.9856L24.3452 32.2271H23.7946Z" fill="#414451"/>
<path d="M38.2741 28.5619L37.4635 40.0461C37.4023 40.914 36.6804 41.5868 35.8103 41.5869H13.5559C12.6858 41.5868 11.964 40.9139 11.9027 40.0461L11.0918 28.5619C11.0274 27.6488 11.7154 26.8564 12.6285 26.792C12.6672 26.7893 12.706 26.7879 12.7448 26.7879H36.6209C37.5362 26.788 38.2782 27.5302 38.2781 28.4456C38.2782 28.4844 38.2768 28.5232 38.2741 28.5619Z" fill="#EEEFEE"/>
<path d="M10 41.2051H39.3657V42.4117H10V41.2051Z" fill="#575B6D"/>
<path d="M24.6829 37.1403C26.0436 37.1403 27.1466 36.0372 27.1466 34.6765C27.1466 33.3158 26.0436 32.2128 24.6829 32.2128C23.3222 32.2128 22.2192 33.3158 22.2192 34.6765C22.2192 36.0372 23.3222 37.1403 24.6829 37.1403Z" fill="#DBD8DD"/>
</svg>
