<svg width="84" height="74" viewBox="0 0 84 74" fill="none" xmlns="http://www.w3.org/2000/svg">
<path d="M67.2743 29.2555C69.7323 31.3796 72.1648 33.4909 72.7168 33.9585H54.1582C51.4245 33.8573 49.5691 33.1368 48.177 32.1762C47.1361 31.4428 46.3337 30.5578 45.7068 29.5592C44.7663 28.0801 44.227 26.3605 43.939 24.9317C43.6632 23.503 43.6382 22.3651 43.6382 22.0747V21.8599C43.5378 18.4843 42.8736 15.7404 41.795 13.5536C40.1898 10.2541 37.632 8.31913 35.3244 7.34572C33.0046 6.35948 30.9355 6.23305 29.8192 6.2207C29.5057 6.2207 29.2677 6.23305 29.1295 6.24589H17.8062C16.5772 2.61748 13.1666 0 9.15389 0C4.10035 0 0 4.13413 0 9.22932C0 14.3245 4.10035 18.4586 9.15389 18.4586C13.505 18.4586 17.1288 15.3992 18.0692 11.3026H29.3549L29.468 11.2902H29.4803C29.5307 11.2902 29.6434 11.2779 29.8442 11.2779C30.2831 11.2779 31.0854 11.3159 31.9882 11.5307C32.6651 11.6952 33.4052 11.948 34.1072 12.3397C35.173 12.9338 36.2012 13.806 37.0412 15.2727C37.8813 16.7395 38.5332 18.8379 38.6337 21.9611C38.6337 21.9863 38.6337 22.0243 38.6337 22.0624C38.6459 23.0106 38.7086 26.8163 40.6522 30.786C41.6304 32.758 43.1224 34.7808 45.3423 36.3237C45.3673 36.336 45.3923 36.3488 45.405 36.3617C45.3673 36.3869 45.3423 36.3997 45.3046 36.4249C43.6995 37.5124 42.4582 38.8774 41.5427 40.2933C40.1634 42.4303 39.4487 44.6803 39.0725 46.5896C38.6841 48.4984 38.6337 50.0916 38.6337 50.9386C38.6337 51.1662 38.6337 51.3178 38.6459 51.4319C38.5582 54.1882 38.0189 56.1478 37.3293 57.5761C36.2634 59.713 34.8463 60.7368 33.4043 61.3689C31.9749 61.9887 30.5202 62.0895 29.8555 62.0895C29.7051 62.0895 29.6047 62.0895 29.542 62.0772H29.4915L29.3784 62.0648H17.9296C16.7761 58.2843 13.3022 55.5414 9.17692 55.5414C4.12337 55.5414 0.0230223 59.6755 0.0230223 64.7707C0.0230223 69.8659 4.12337 74 9.17692 74C13.4276 74 16.9892 71.0798 18.0173 67.122H29.1526C29.3029 67.1343 29.5288 67.1471 29.8545 67.1471C30.5941 67.1471 31.7604 67.0839 33.1525 66.7555C34.1934 66.5027 35.3469 66.111 36.5254 65.4532C38.2932 64.4798 40.0865 62.9246 41.4036 60.6109C42.7208 58.2971 43.5603 55.3008 43.673 51.508V51.2803C43.673 51.2551 43.673 51.1287 43.673 50.9262C43.6608 49.8644 43.8484 46.6656 45.2155 44.0235C45.8924 42.696 46.8206 41.5072 48.1373 40.5971C49.4539 39.7121 51.1968 39.0547 53.7551 38.9535C53.8555 38.9535 53.9432 38.9658 54.0436 38.9787H72.7398C72.1756 39.472 69.7553 41.5705 67.2974 43.6817C64.501 46.0962 67.2974 50.9134 67.2974 50.9134L84 36.4501L67.2724 22.0248C67.2724 22.0248 64.476 26.842 67.2724 29.2565L67.2743 29.2555ZM12.0752 12.1999C11.3228 12.9585 10.2947 13.4262 9.1534 13.4262C7.99986 13.4262 6.98396 12.9585 6.23158 12.1999C5.47921 11.4413 5.01534 10.4047 5.01534 9.25401C5.01534 8.09096 5.47921 7.06669 6.23158 6.30812C6.98396 5.54954 8.0121 5.08185 9.1534 5.08185C10.3069 5.08185 11.3228 5.54954 12.0752 6.30812C12.8276 7.06669 13.2915 8.10331 13.2915 9.25401C13.2915 10.4042 12.8276 11.4413 12.0752 12.1999ZM12.0752 67.7655C11.3228 68.524 10.2947 68.9917 9.1534 68.9917C7.99986 68.9917 6.98396 68.524 6.23158 67.7655C5.47921 67.0069 5.01534 65.9703 5.01534 64.8196C5.01534 63.6565 5.47921 62.6323 6.23158 61.8737C6.98396 61.1151 8.0121 60.6474 9.1534 60.6474C10.3069 60.6474 11.3228 61.1151 12.0752 61.8737C12.8276 62.6323 13.2915 63.6689 13.2915 64.8196C13.2915 65.9698 12.8276 66.994 12.0752 67.7655Z" fill="#2A2A2A"/>
</svg>
