<svg width="29" height="31" viewBox="0 0 29 31" fill="none" xmlns="http://www.w3.org/2000/svg">
<path d="M12.9166 31C10.2468 31 8.07281 28.8274 8.07281 26.1563C8.07281 25.6215 8.50681 25.1875 9.04157 25.1875C9.57632 25.1875 10.0103 25.6215 10.0103 26.1563C10.0103 27.7594 11.3149 29.0625 12.9166 29.0625C14.5182 29.0625 15.8228 27.7594 15.8228 26.1563C15.8228 25.6215 16.2568 25.1875 16.7916 25.1875C17.3263 25.1875 17.7603 25.6215 17.7603 26.1563C17.7603 28.8274 15.5865 31 12.9166 31Z" fill="#2A2A2A"/>
<path d="M23.5728 27.125H2.26034C1.01392 27.125 0 26.1111 0 24.8647C0 24.2031 0.288071 23.5769 0.790421 23.1467C0.822823 23.1183 0.85759 23.0925 0.893776 23.0691C2.78989 21.4144 3.875 19.034 3.875 16.5203V12.9166C3.875 7.93093 7.93212 3.875 12.9166 3.875C13.1233 3.875 13.3468 3.87878 13.5535 3.91379C14.0816 4.00153 14.4383 4.50152 14.3503 5.02847C14.2626 5.55541 13.7536 5.91207 13.2356 5.82409C13.1323 5.8073 13.0188 5.8125 12.9166 5.8125C9.00044 5.8125 5.8125 8.99902 5.8125 12.9166V16.5203C5.8125 19.6411 4.44452 22.5939 2.06285 24.6204C2.04346 24.636 2.02667 24.6502 2.00585 24.6643C1.97109 24.7083 1.9375 24.7755 1.9375 24.8647C1.9375 25.0402 2.08485 25.1875 2.26034 25.1875H23.5728C23.7486 25.1875 23.8959 25.0402 23.8959 24.8647C23.8959 24.7741 23.8623 24.7083 23.8262 24.6643C23.8068 24.6502 23.79 24.636 23.7706 24.6204C21.3875 22.5925 20.0209 19.6411 20.0209 16.5203V15.1126C20.0209 14.5778 20.4549 14.1438 20.9897 14.1438C21.5244 14.1438 21.9584 14.5778 21.9584 15.1126V16.5203C21.9584 19.0354 23.0447 21.417 24.9434 23.0731C24.9782 23.0963 25.0118 23.1209 25.0428 23.1481C25.5454 23.5769 25.8334 24.2031 25.8334 24.8647C25.8334 26.1111 24.8195 27.125 23.5728 27.125Z" fill="#2A2A2A"/>
<path d="M21.9584 12.9166C18.3972 12.9166 15.4999 10.0196 15.4999 6.45842C15.4999 2.89726 18.3972 0 21.9584 0C25.5195 0 28.4165 2.89726 28.4165 6.45842C28.4165 10.0196 25.5195 12.9166 21.9584 12.9166ZM21.9584 1.9375C19.4653 1.9375 17.4374 3.96535 17.4374 6.45842C17.4374 8.95124 19.4653 10.9791 21.9584 10.9791C24.4512 10.9791 26.479 8.95124 26.479 6.45842C26.479 3.96535 24.4512 1.9375 21.9584 1.9375Z" fill="#2A2A2A"/>
</svg>
