<svg width="30" height="30" viewBox="0 0 30 30" fill="none" xmlns="http://www.w3.org/2000/svg">
<rect width="30" height="30" rx="15" fill="#F8F8F8"/>
<path d="M15.087 7C14.3799 7 13.7873 7.43387 13.5163 8.04348H12.1304C11.9483 8.0435 11.7826 8.20919 11.7826 8.3913V8.73913H9.34783C9.15304 8.73965 9.00012 8.92113 9 9.08696V22.6522C9.00002 22.8343 9.1657 23 9.34783 23H20.8261C21.0082 23 21.1739 22.8343 21.1739 22.6522V9.08696C21.1739 8.90484 21.0082 8.73915 20.8261 8.73913H18.3913V8.3913C18.3913 8.20919 18.2256 8.0435 18.0435 8.04348H16.6576C16.3866 7.43387 15.7941 7 15.087 7ZM15.087 7.69565C15.5795 7.69565 15.9825 8.02269 16.0978 8.47283C16.134 8.62282 16.2805 8.73859 16.4348 8.73913H17.6957V9.78261H12.6522V8.73913H13.7391C13.8934 8.73861 14.0399 8.62282 14.0761 8.47283C14.1914 8.02269 14.5944 7.69565 15.087 7.69565ZM9.69565 9.43478H11.7826V10.1304C11.7826 10.3126 11.9483 10.4782 12.1304 10.4783H18.0435C18.2256 10.4782 18.3913 10.3126 18.3913 10.1304V9.43478H20.4783V22.3043H9.69565V9.43478ZM11.4348 11.8696C11.2427 11.8696 11.087 12.0253 11.087 12.2174C11.087 12.4095 11.2427 12.5652 11.4348 12.5652H18.7391C18.9312 12.5652 19.087 12.4095 19.087 12.2174C19.087 12.0253 18.9312 11.8696 18.7391 11.8696H11.4348ZM11.4348 14.6522C11.2427 14.6522 11.087 14.8079 11.087 15C11.087 15.1921 11.2427 15.3478 11.4348 15.3478H18.7391C18.9312 15.3478 19.087 15.1921 19.087 15C19.087 14.8079 18.9312 14.6522 18.7391 14.6522H11.4348ZM11.4348 17.4348C11.2427 17.4348 11.087 17.5905 11.087 17.7826C11.087 17.9747 11.2427 18.1304 11.4348 18.1304H18.7391C18.9312 18.1304 19.087 17.9747 19.087 17.7826C19.087 17.5905 18.9312 17.4348 18.7391 17.4348H11.4348ZM11.4348 20.2174C11.2427 20.2174 11.087 20.3731 11.087 20.5652C11.087 20.7573 11.2427 20.913 11.4348 20.913H18.7391C18.9312 20.913 19.087 20.7573 19.087 20.5652C19.087 20.3731 18.9312 20.2174 18.7391 20.2174H11.4348Z" fill="#2A2A2A"/>
</svg>
