<svg width="50" height="50" viewBox="0 0 50 50" fill="none" xmlns="http://www.w3.org/2000/svg">
<path d="M25 50C38.8071 50 50 38.8071 50 25C50 11.1929 38.8071 0 25 0C11.1929 0 0 11.1929 0 25C0 38.8071 11.1929 50 25 50Z" fill="#CBE2FF"/>
<path d="M35 37.4179V40.0947C35 40.3961 34.7559 40.6402 34.4545 40.6402H14.5455C14.2441 40.6402 14 40.3961 14 40.0947V37.4179C14 34.6095 16.2766 32.3343 19.0857 32.3336C20.0784 32.3329 20.9525 31.8222 21.4557 31.0477C21.9612 30.2708 21.9091 29.5953 21.9091 29.0493L21.9193 29.024C19.4716 28.0109 17.75 25.5993 17.75 22.7854V22.572C16.7781 22.572 16.0455 21.8039 16.0455 20.8988V18.0652C16.0236 17.0786 16.0686 13.5993 18.5818 11.1768C21.5041 8.36019 26.135 8.59064 29.4895 10.0975C29.5986 10.1466 29.5952 10.3027 29.4848 10.3484L28.61 10.7084C28.4791 10.7622 28.507 10.9552 28.6475 10.9702L29.0723 11.0159C31.1061 11.2334 32.9954 12.3379 34.1668 14.1761C34.1982 14.2259 34.1893 14.3015 34.1491 14.3445C33.4264 15.1088 33.0227 16.1234 33.0227 17.1781V20.8988C33.0227 21.8227 32.2734 22.572 31.3495 22.572H31.25V22.7854C31.25 25.5993 29.5284 28.0109 27.0807 29.024L27.0909 29.0493C27.0909 29.5795 27.0345 30.2643 27.5443 31.0477C28.0475 31.8222 28.9216 32.3329 29.9143 32.3336C32.7234 32.3343 35 34.6095 35 37.4179Z" fill="#FFDFBA"/>
<path d="M35 37.4179V40.0947C35 40.3959 34.7558 40.6402 34.4545 40.6402H14.5455C14.2442 40.6402 14 40.3959 14 40.0947V37.4179C14 34.6095 16.2769 32.3346 19.0853 32.3336C20.0783 32.3332 20.9526 31.8219 21.4557 31.0477C23.2116 32.5478 25.7873 32.5487 27.5443 31.0477C28.0473 31.8219 28.9217 32.3332 29.9146 32.3336C32.7231 32.3346 35 34.6095 35 37.4179Z" fill="#FE4F60"/>
<path d="M34.1665 14.1765C34.1982 14.2262 34.1893 14.3014 34.1489 14.3443C33.4263 15.1091 33.0227 16.1233 33.0227 17.1782V20.8988C33.0227 21.7435 32.3864 22.572 31.25 22.572V18.3604C31.25 16.5529 29.7848 15.0877 27.9773 15.0877H21.0227C19.2152 15.0877 17.75 16.5529 17.75 18.3604V22.572C16.7781 22.572 16.0454 21.804 16.0454 20.8988V18.0652C16.0236 17.0786 16.0686 13.5993 18.5818 11.1768C21.5039 8.36014 26.1353 8.59073 29.4893 10.0977C29.5983 10.1467 29.5955 10.3029 29.4848 10.3485L28.61 10.7086C28.4792 10.7625 28.5067 10.9552 28.6473 10.9703L29.0723 11.0159C31.1065 11.2332 32.9953 12.3377 34.1665 14.1765Z" fill="#42434D"/>
<path d="M31.25 22.7854C31.25 26.5147 28.2263 29.5354 24.5 29.5354C20.9892 29.5354 17.75 26.806 17.75 22.572V18.3604C17.75 16.5529 19.2152 15.0877 21.0227 15.0877H27.9773C29.7848 15.0877 31.25 16.5529 31.25 18.3604V22.7854Z" fill="#FFEBD2"/>
<path d="M30.0228 39.4811H28.3864C28.0852 39.4811 27.8409 39.2368 27.8409 38.9356C27.8409 38.6344 28.0852 38.3902 28.3864 38.3902H30.0228C30.324 38.3902 30.5682 38.6344 30.5682 38.9356C30.5682 39.2368 30.3241 39.4811 30.0228 39.4811Z" fill="white"/>
<path d="M22.9716 27.1441C24.0814 27.8384 23.2063 29.5411 21.9915 29.0535C19.4937 28.0509 17.75 25.6168 17.75 22.7854V18.3604C17.75 17.6728 17.962 17.0348 18.3242 16.508C18.7684 15.8621 19.7955 16.1475 19.7955 16.9967V21.4217C19.7955 23.911 21.104 25.9756 22.9716 27.1441Z" fill="#FFF3E4"/>
<path d="M27.1679 30.1688C25.4881 30.8719 23.6421 30.9265 21.832 30.1688C21.9244 29.7852 21.909 29.5367 21.909 29.0492L21.9192 29.024C23.5612 29.7056 25.4354 29.7069 27.0806 29.024L27.0908 29.0492C27.0908 29.5369 27.0754 29.7853 27.1679 30.1688Z" fill="#FFD6A6"/>
<path d="M21.8329 33.9806C21.5807 34.0599 21.3103 34.1036 21.0204 34.1062C18.2048 34.131 15.9091 36.3573 15.9091 39.1731V39.6856C15.9091 40.2128 15.4817 40.6402 14.9545 40.6402H14.5455C14.2442 40.6402 14 40.3959 14 40.0947V37.4179C14 34.6094 16.2769 32.3346 19.0853 32.3336C20.0783 32.3332 20.9526 31.8219 21.4557 31.0477C21.6585 31.2209 21.8755 31.3765 22.1042 31.5128C23.1101 32.1122 22.9498 33.6294 21.8329 33.9806Z" fill="#FF6D7A"/>
<path d="M27.1672 33.9806C27.4193 34.0599 27.6897 34.1036 27.9796 34.1062C30.7952 34.131 33.0909 36.3573 33.0909 39.1731V39.6856C33.0909 40.2128 33.5183 40.6402 34.0455 40.6402H34.4546C34.7558 40.6402 35 40.3959 35 40.0947V37.4179C35 34.6094 32.7231 32.3346 29.9147 32.3336C28.9217 32.3332 28.0474 31.8219 27.5443 31.0477C27.3416 31.2209 27.1245 31.3765 26.8958 31.5128C25.89 32.1122 26.0502 33.6294 27.1672 33.9806Z" fill="#E84857"/>
<path d="M29.4848 10.3484C28.6831 10.6783 28.5688 10.751 28.291 10.708C23.8133 10.0139 19.8846 11.8666 18.5504 16.2161V16.2168C18.0513 16.7909 17.75 17.5409 17.75 18.3604V20.9188C17.75 22.0225 16.0454 22.0994 16.0454 20.8988V18.0652C16.0236 17.0786 16.0686 13.5993 18.5818 11.1768C21.5041 8.36019 26.135 8.59064 29.4895 10.0975C29.5986 10.1466 29.5952 10.3027 29.4848 10.3484Z" fill="#4D4E59"/>
</svg>
