<svg width="19" height="19" viewBox="0 0 19 19" fill="none" xmlns="http://www.w3.org/2000/svg">
<path d="M16.4862 11.5092C16.0052 11.0281 15.3657 10.7633 14.6855 10.7633C14.0053 10.7633 13.3658 11.0281 12.8847 11.5092L12.1021 12.2916C11.7395 12.6542 11.165 12.7 10.7362 12.4002C9.9409 11.8438 9.18453 11.2085 8.48791 10.5119C7.79064 9.81437 7.1553 9.05801 6.59984 8.26378C6.30001 7.83504 6.34553 7.26054 6.7084 6.8979L7.49081 6.11527C8.48376 5.12254 8.48376 3.50695 7.49081 2.51422L5.72245 0.745861C5.24163 0.265034 4.60213 0 3.92171 0C3.2415 0 2.602 0.265034 2.12118 0.745861L1.31491 1.55191C0.317368 2.54989 -0.156893 3.95057 0.0462054 5.29894C0.325903 7.15681 1.01727 9.05538 2.04458 10.7878C2.7819 12.0382 3.6895 13.2055 4.74198 14.258C5.79424 15.3103 6.96161 16.2177 8.21128 16.9548C9.94484 17.9827 11.8432 18.6739 13.7008 18.9536C13.9068 18.9847 14.1138 19 14.3206 19C15.4679 19 16.6029 18.5303 17.4481 17.6846L18.2541 16.8786C18.7352 16.3978 19 15.7583 19 15.0779C19 14.3979 18.7352 13.7584 18.2541 13.2771L16.4862 11.5092ZM17.6354 16.2599L16.8292 17.0659C16.0273 17.8683 14.9067 18.2502 13.8315 18.0882C12.0842 17.8252 10.2952 17.1727 8.65687 16.2015C7.47002 15.5013 6.36107 14.6393 5.3609 13.6393C4.36051 12.6389 3.49844 11.53 2.7981 10.3425C1.82725 8.70543 1.17506 6.91628 0.91178 5.16872C0.750046 4.09392 1.13217 2.97316 1.93406 2.17105L2.7401 1.365C3.39186 0.71347 4.45177 0.71347 5.10331 1.365L6.87166 3.13336C7.5232 3.78489 7.5232 4.84503 6.87166 5.49657L6.08925 6.27919C5.42568 6.94255 5.3388 7.98868 5.88243 8.76583C6.46722 9.60186 7.1356 10.3978 7.86877 11.1312L8.17845 10.8218L7.86899 11.1312C8.6015 11.864 9.39748 12.5321 10.2346 13.1178C11.0122 13.6616 12.0581 13.5745 12.7212 12.911L13.5039 12.1286C13.8195 11.813 14.2392 11.6392 14.6855 11.6392C15.1317 11.6392 15.5515 11.813 15.8671 12.1286L17.6354 13.8967C17.951 14.2123 18.1248 14.632 18.1248 15.0783C18.1248 15.5245 17.951 15.9441 17.6354 16.2599Z" fill="#2A2A2A"/>
</svg>
