<svg width="334" height="246" viewBox="0 0 334 246" fill="none" xmlns="http://www.w3.org/2000/svg">
<path d="M283.626 244.582V217.372C283.626 217.372 294.23 236.662 283.626 244.582Z" fill="#F1F1F1"/>
<path d="M284.281 244.577L264.237 226.176C264.237 226.176 285.618 231.41 284.281 244.577Z" fill="#F1F1F1"/>
<path d="M71.9121 0H23.9706L0 41.5183L23.9706 83.037H71.9121L95.8827 41.5183L71.9121 0Z" fill="#E6E6E6"/>
<path d="M26.6612 78.3766H69.2214L90.5015 41.5184L69.2214 4.66016H26.6612L5.3811 41.5184L26.6612 78.3766Z" fill="white"/>
<path d="M26.1473 32.4864C27.2317 32.4864 28.1107 31.6074 28.1107 30.523C28.1107 29.4386 27.2317 28.5596 26.1473 28.5596C25.0629 28.5596 24.1838 29.4386 24.1838 30.523C24.1838 31.6074 25.0629 32.4864 26.1473 32.4864Z" fill="#E2E2E2"/>
<path d="M26.1473 43.4816C27.2317 43.4816 28.1107 42.6025 28.1107 41.5181C28.1107 40.4337 27.2317 39.5547 26.1473 39.5547C25.0629 39.5547 24.1838 40.4337 24.1838 41.5181C24.1838 42.6025 25.0629 43.4816 26.1473 43.4816Z" fill="#E2E2E2"/>
<path d="M26.1473 54.4767C27.2317 54.4767 28.1107 53.5976 28.1107 52.5132C28.1107 51.4289 27.2317 50.5498 26.1473 50.5498C25.0629 50.5498 24.1838 51.4289 24.1838 52.5132C24.1838 53.5976 25.0629 54.4767 26.1473 54.4767Z" fill="#E2E2E2"/>
<path d="M71.699 28.9521H34.3937V32.0936H71.699V28.9521Z" fill="#E2E2E2"/>
<path d="M71.699 39.9473H34.3937V43.0888H71.699V39.9473Z" fill="#E2E2E2"/>
<path d="M71.699 50.9434H34.3937V54.0849H71.699V50.9434Z" fill="#E2E2E2"/>
<path d="M309.327 0H261.385L237.415 41.5183L261.385 83.037H309.327L333.297 41.5183L309.327 0Z" fill="#E6E6E6"/>
<path d="M264.076 78.3766H306.636L327.916 41.5184L306.636 4.66016H264.076L242.796 41.5184L264.076 78.3766Z" fill="white"/>
<path d="M263.562 32.4864C264.646 32.4864 265.525 31.6074 265.525 30.523C265.525 29.4386 264.646 28.5596 263.562 28.5596C262.477 28.5596 261.598 29.4386 261.598 30.523C261.598 31.6074 262.477 32.4864 263.562 32.4864Z" fill="#E2E2E2"/>
<path d="M263.562 43.4816C264.646 43.4816 265.525 42.6025 265.525 41.5181C265.525 40.4337 264.646 39.5547 263.562 39.5547C262.477 39.5547 261.598 40.4337 261.598 41.5181C261.598 42.6025 262.477 43.4816 263.562 43.4816Z" fill="#E2E2E2"/>
<path d="M263.562 54.4767C264.646 54.4767 265.525 53.5976 265.525 52.5132C265.525 51.4289 264.646 50.5498 263.562 50.5498C262.477 50.5498 261.598 51.4289 261.598 52.5132C261.598 53.5976 262.477 54.4767 263.562 54.4767Z" fill="#E2E2E2"/>
<path d="M309.113 28.9521H271.808V32.0936H309.113V28.9521Z" fill="#E2E2E2"/>
<path d="M309.113 39.9473H271.808V43.0888H309.113V39.9473Z" fill="#E2E2E2"/>
<path d="M309.113 50.9434H271.808V54.0849H309.113V50.9434Z" fill="#E2E2E2"/>
<path d="M190.386 0.40332H142.91L119.172 41.5184L142.91 82.6339H190.386L214.125 41.5184L190.386 0.40332Z" fill="#E6E6E6"/>
<path d="M145.575 78.0191H187.722L208.795 41.5188L187.722 5.01855H145.575L124.502 41.5188L145.575 78.0191Z" fill="white"/>
<path d="M166.888 60.0003C164.562 60.0003 162.875 58.3967 162.875 56.0414C162.875 53.7774 164.646 52.0996 166.888 52.0996C169.129 52.0996 170.83 53.8006 170.83 56.0414C170.83 58.3371 169.176 60.0003 166.888 60.0003Z" fill="#4776E6"/>
<path d="M154 31.0393C154 24.1455 161.27 20 167.529 20C173.857 20 180.427 23.5876 180.427 30.5434C180.427 38.731 171.469 39.0985 169.747 46.9499C169.024 50.9185 163.353 50.703 163.353 46.1285C163.353 37.4079 173.157 35.8823 173.157 30.5978C173.157 27.4455 170.505 25.5739 167.529 25.5739C163.493 25.5739 162.1 27.8295 160.927 31.3642C159.435 36.2614 154 34.462 154 31.0393Z" fill="#4776E6"/>
<path d="M207.123 240.627L202.512 240.626L200.318 222.84L207.124 222.84L207.123 240.627Z" fill="#9F616A"/>
<path d="M208.299 245.096L193.43 245.095V244.907C193.431 243.373 194.04 241.901 195.126 240.815C196.211 239.73 197.683 239.12 199.218 239.12H199.218L208.3 239.121L208.299 245.096Z" fill="#2F2E41"/>
<path d="M250.003 240.627L245.391 240.626L243.198 222.84L250.003 222.84L250.003 240.627Z" fill="#9F616A"/>
<path d="M251.179 245.096L236.31 245.095V244.907C236.31 243.373 236.92 241.901 238.005 240.815C239.09 239.73 240.562 239.12 242.097 239.12H242.098L251.179 239.121L251.179 245.096Z" fill="#2F2E41"/>
<path d="M205.285 150.363C205.285 150.363 201.415 160.869 201.968 165.293C202.521 169.716 198.097 200.681 198.65 203.446C199.203 206.211 198.097 220.034 198.65 222.246C199.203 224.458 197.098 227.1 198.204 229.312C199.31 231.523 200.862 236.07 200.862 236.07L208.05 235.517L209.156 229.435C209.156 229.435 212.474 228.882 211.921 225.564C211.368 222.246 214.686 200.128 214.686 200.128L224.086 169.163L237.356 197.364C237.356 197.364 237.909 217.27 239.568 219.481C241.227 221.693 237.909 227.776 239.568 229.987C241.227 232.199 242.886 236.07 242.886 236.07H251.18V231.646C251.18 231.646 256.156 228.882 251.18 220.587L247.817 170.777L244.5 148.106L205.285 150.363Z" fill="#2F2E41"/>
<path d="M225.898 80.836C231.602 80.836 236.226 76.2121 236.226 70.5083C236.226 64.8045 231.602 60.1807 225.898 60.1807C220.194 60.1807 215.571 64.8045 215.571 70.5083C215.571 76.2121 220.194 80.836 225.898 80.836Z" fill="#A0616A"/>
<path d="M217.11 69.7965C217.838 71.6584 218.567 73.5203 219.296 75.3822C220.192 77.6712 221.218 80.1201 223.318 81.3975C225.911 82.9747 229.373 82.2057 231.881 80.4972C234.137 78.9605 235.869 76.7703 236.844 74.2208C237.819 71.6712 237.99 68.8844 237.335 66.2347C236.679 63.585 235.229 61.1992 233.178 59.3979C231.127 57.5966 228.574 56.466 225.862 56.1579L225.758 58.0275L223.464 56.1045C223.295 56.3956 223.061 56.6445 222.782 56.8325C222.502 57.0205 222.183 57.1427 221.85 57.1898C221.516 57.237 221.176 57.208 220.855 57.1049C220.534 57.0019 220.241 56.8275 219.997 56.5948C220.6 57.844 219.904 59.3675 218.9 60.3244C217.666 61.5 214.137 62.9128 214.283 65.0143C214.381 66.4167 216.541 68.3431 217.11 69.7965Z" fill="#2F2E41"/>
<path d="M254.327 165.641C254.683 165.11 254.918 164.507 255.016 163.875C255.114 163.244 255.072 162.598 254.893 161.984C254.714 161.37 254.403 160.803 253.982 160.323C253.56 159.842 253.038 159.46 252.453 159.203L252.659 149.212L246.619 147.605L246.525 161.719C246.159 162.731 246.176 163.842 246.574 164.842C246.971 165.842 247.722 166.661 248.684 167.145C249.646 167.628 250.751 167.742 251.791 167.465C252.831 167.188 253.734 166.539 254.327 165.641Z" fill="#9F616A"/>
<path d="M233.57 87.2196C233.57 87.2196 225.567 83.2181 218.008 85.8858C210.45 88.5535 206.448 91.6658 206.448 91.6658L211.339 117.454L204.67 152.134C204.67 152.134 238.906 149.466 242.018 152.134C245.13 154.802 245.13 149.021 245.13 149.021L242.462 116.12L247.353 95.2227L233.57 87.2196Z" fill="#3F3D56"/>
<path d="M199.792 166.233C200.283 165.823 200.677 165.311 200.949 164.732C201.22 164.153 201.361 163.522 201.362 162.882C201.363 162.243 201.223 161.611 200.954 161.032C200.684 160.452 200.29 159.939 199.801 159.528L202.804 149.996L197.457 146.759L193.405 160.278C192.769 161.146 192.474 162.218 192.575 163.289C192.676 164.361 193.166 165.358 193.954 166.092C194.741 166.826 195.77 167.246 196.846 167.272C197.922 167.298 198.97 166.928 199.792 166.233Z" fill="#9F616A"/>
<path d="M209.561 91.665H206.448C206.448 91.665 201.557 94.7774 201.557 99.2235C201.557 103.67 194.444 155.69 194.444 155.69L202.002 157.024L208.671 120.565L213.562 110.784L209.561 91.665Z" fill="#3F3D56"/>
<path d="M238.906 95.2227H247.353C247.353 95.2227 250.021 97.8904 251.355 104.115C252.689 110.34 254.023 134.794 254.023 134.794L253.133 157.025H246.464L245.575 128.124L241.129 109.45L238.906 95.2227Z" fill="#3F3D56"/>
<path d="M302.727 245.383H159.421C159.321 245.383 159.225 245.344 159.155 245.273C159.084 245.202 159.044 245.107 159.044 245.007C159.044 244.907 159.084 244.812 159.155 244.741C159.225 244.67 159.321 244.631 159.421 244.631H302.727C302.827 244.631 302.923 244.67 302.993 244.741C303.064 244.812 303.103 244.907 303.103 245.007C303.103 245.107 303.064 245.202 302.993 245.273C302.923 245.344 302.827 245.383 302.727 245.383Z" fill="#CBCBCB"/>
</svg>
