<svg width="50" height="50" viewBox="0 0 50 50" fill="none" xmlns="http://www.w3.org/2000/svg">
<path d="M25 50C38.8071 50 50 38.8071 50 25C50 11.1929 38.8071 0 25 0C11.1929 0 0 11.1929 0 25C0 38.8071 11.1929 50 25 50Z" fill="#F4F4F4"/>
<path d="M36.7241 18.0862V35.7241C36.7241 36.0076 36.6115 36.2795 36.411 36.48C36.2106 36.6805 35.9387 36.7931 35.6552 36.7931H11.069C10.7857 36.7923 10.5143 36.6794 10.314 36.4791C10.1137 36.2788 10.0008 36.0074 10 35.7241V18.0862H36.7241Z" fill="#FFB655"/>
<path d="M28.1724 23.9655V36.7931H27.1035V25.0345C27.1043 24.7512 27.2172 24.4798 27.4175 24.2796C27.6178 24.0793 27.8892 23.9664 28.1724 23.9655Z" fill="#FFA733"/>
<path d="M26.0345 13.8103H36.7241V18.0862H26.0345V13.8103Z" fill="#FF9811"/>
<path d="M33.8326 9.4757L36.7241 13.8103H10L12.8916 9.4757C12.9883 9.329 13.1201 9.2087 13.275 9.12566C13.4299 9.04261 13.603 8.99943 13.7788 9.00001H32.9453C33.1211 8.99943 33.2942 9.04261 33.4491 9.12566C33.604 9.2087 33.7358 9.329 33.8326 9.4757Z" fill="#FFB655"/>
<path d="M10 13.8103H20.6897V18.0862H10V13.8103Z" fill="#FF9811"/>
<path d="M26.0345 18.0862V22.3621L23.3621 20.2241L20.6897 22.3621V18.0862V13.8103H26.0345V18.0862Z" fill="#E6E7E8"/>
<path d="M41 23.9655V38.931C40.9992 39.2143 40.8863 39.4857 40.686 39.686C40.4857 39.8863 40.2143 39.9992 39.931 40H29.2414C28.9581 39.9992 28.6867 39.8863 28.4865 39.686C28.2862 39.4857 28.1733 39.2143 28.1724 38.931V23.9655C28.1733 23.6823 28.2862 23.4109 28.4865 23.2106C28.6867 23.0103 28.9581 22.8974 29.2414 22.8966H39.931C40.1299 22.8967 40.3248 22.9522 40.4938 23.0571C40.6628 23.1619 40.7993 23.3117 40.8878 23.4898C40.9631 23.637 41.0016 23.8002 41 23.9655Z" fill="#E0E0E2"/>
<path d="M40.8878 23.4898C40.5149 26.9902 39.2629 30.3395 37.2482 33.2261C35.2334 36.1127 32.5214 38.4429 29.3643 40H29.2414C28.9581 39.9992 28.6867 39.8863 28.4865 39.686C28.2862 39.4857 28.1733 39.2143 28.1724 38.931V23.9655C28.1733 23.6823 28.2862 23.4109 28.4865 23.2106C28.6867 23.0103 28.9581 22.8974 29.2414 22.8966H39.931C40.1299 22.8967 40.3248 22.9522 40.4938 23.0571C40.6628 23.1619 40.7993 23.3117 40.8878 23.4898Z" fill="#E6E7E8"/>
<path d="M38.8621 22.8966V26.1035L37.7931 25.0345L36.7242 26.1035V22.8966H38.8621Z" fill="#FF5023"/>
<path d="M31.3793 30.9138C31.2376 30.9138 31.1017 30.8574 31.0015 30.7572L29.9325 29.6882L30.6883 28.9325L31.3793 29.6236L33.1394 27.8635L33.8952 28.6193L31.7572 30.7572C31.657 30.8574 31.5211 30.9138 31.3793 30.9138Z" fill="#FF5023"/>
<path d="M31.3793 36.7931C31.2376 36.7931 31.1017 36.7367 31.0015 36.6365L29.9325 35.5675L30.6883 34.8118L31.3793 35.5029L33.1394 33.7428L33.8952 34.4986L31.7572 36.6365C31.657 36.7367 31.5211 36.7931 31.3793 36.7931Z" fill="#FF5023"/>
<path d="M35.1207 29.8448H39.3966V30.9138H35.1207V29.8448Z" fill="#BCBEC0"/>
<path d="M35.1207 35.7241H39.3966V36.7931H35.1207V35.7241Z" fill="#BCBEC0"/>
<path d="M35.1207 33.5862H39.3966V34.6552H35.1207V33.5862Z" fill="#BCBEC0"/>
<path d="M35.1207 27.7069H36.1896V28.7759H35.1207V27.7069Z" fill="#BCBEC0"/>
<path d="M37.2587 27.7069H39.3966V28.7759H37.2587V27.7069Z" fill="#BCBEC0"/>
</svg>
