<svg width="483" height="372" viewBox="0 0 483 372" fill="none" xmlns="http://www.w3.org/2000/svg">
<path d="M111.215 256.838L148.611 198.031L64.8622 144.776L21.6124 212.79L90.8829 256.838H111.215Z" fill="#F0F0F0"/>
<path d="M164.208 275.184H71.5778V256.537H164.208V275.184ZM72.7808 273.981H163.005V257.74H72.7808V273.981Z" fill="#3F3D56"/>
<path d="M152.78 271.875C156.102 271.875 158.795 269.182 158.795 265.861C158.795 262.539 156.102 259.846 152.78 259.846C149.458 259.846 146.765 262.539 146.765 265.861C146.765 269.182 149.458 271.875 152.78 271.875Z" fill="#B8E986"/>
<path d="M135.938 271.875C139.26 271.875 141.953 269.182 141.953 265.861C141.953 262.539 139.26 259.846 135.938 259.846C132.616 259.846 129.923 262.539 129.923 265.861C129.923 269.182 132.616 271.875 135.938 271.875Z" fill="#B8E986"/>
<path d="M119.096 271.875C122.418 271.875 125.111 269.182 125.111 265.861C125.111 262.539 122.418 259.846 119.096 259.846C115.774 259.846 113.081 262.539 113.081 265.861C113.081 269.182 115.774 271.875 119.096 271.875Z" fill="#B8E986"/>
<path d="M102.254 271.875C105.576 271.875 108.269 269.182 108.269 265.861C108.269 262.539 105.576 259.846 102.254 259.846C98.9321 259.846 96.2391 262.539 96.2391 265.861C96.2391 269.182 98.9321 271.875 102.254 271.875Z" fill="#B8E986"/>
<path d="M85.4122 271.875C88.7341 271.875 91.4271 269.182 91.4271 265.861C91.4271 262.539 88.7341 259.846 85.4122 259.846C82.0902 259.846 79.3972 262.539 79.3972 265.861C79.3972 269.182 82.0902 271.875 85.4122 271.875Z" fill="#B8E986"/>
<path d="M274.282 67.9689V22.2553H297.138V0H185.26V111.878H280.898V100.939C280.898 98.9004 281.3 96.8813 282.08 94.9974C282.86 93.1136 284.004 91.4019 285.446 89.96C286.888 88.5182 288.599 87.3745 290.483 86.5942C292.367 85.8139 294.386 85.4122 296.425 85.4122H297.138V67.9689H274.282Z" fill="#F0F0F0"/>
<path d="M398.189 288.717H323.604V304.356H398.189V288.717Z" fill="#F5A623"/>
<path d="M414.43 211.726H304.958V226.162H414.43V211.726Z" fill="#F0F0F0"/>
<path d="M467.963 369.919H0V371.122H467.963V369.919Z" fill="#3F3D56"/>
<path d="M433.188 371.122H296.425C292.149 371.117 288.05 369.416 285.026 366.393C282.002 363.369 280.301 359.27 280.296 354.993V100.94C280.301 96.6634 282.002 92.5638 285.026 89.5401C288.049 86.5165 292.149 84.8156 296.425 84.8108H433.188C437.464 84.8156 441.563 86.5165 444.587 89.5401C447.611 92.5638 449.311 96.6634 449.316 100.94V354.993C449.311 359.27 447.611 363.369 444.587 366.393C441.563 369.416 437.464 371.117 433.188 371.122ZM296.425 86.0137C292.468 86.0182 288.674 87.5922 285.876 90.3904C283.078 93.1885 281.504 96.9823 281.499 100.94V354.993C281.504 358.951 283.078 362.744 285.876 365.543C288.674 368.341 292.468 369.915 296.425 369.919H433.188C437.145 369.915 440.939 368.341 443.737 365.543C446.535 362.744 448.109 358.951 448.113 354.993V100.94C448.109 96.9823 446.535 93.1885 443.737 90.3904C440.939 87.5922 437.145 86.0182 433.188 86.0137H296.425Z" fill="white"/>
<path d="M348.566 96.8406C347.852 96.8406 347.154 96.6289 346.561 96.2323C345.967 95.8358 345.505 95.2721 345.232 94.6127C344.959 93.9532 344.887 93.2276 345.026 92.5275C345.166 91.8274 345.509 91.1844 346.014 90.6797C346.519 90.1749 347.162 89.8312 347.862 89.692C348.562 89.5527 349.288 89.6242 349.947 89.8973C350.607 90.1705 351.17 90.6331 351.567 91.2265C351.963 91.82 352.175 92.5178 352.175 93.2316C352.174 94.1884 351.793 95.1058 351.117 95.7824C350.44 96.4589 349.523 96.8395 348.566 96.8406ZM348.566 90.8256C348.09 90.8256 347.625 90.9667 347.229 91.2311C346.834 91.4955 346.525 91.8712 346.343 92.3109C346.161 92.7505 346.113 93.2343 346.206 93.701C346.299 94.1677 346.528 94.5964 346.865 94.9329C347.201 95.2694 347.63 95.4985 348.097 95.5913C348.563 95.6842 349.047 95.6365 349.487 95.4544C349.926 95.2723 350.302 94.9639 350.566 94.5683C350.831 94.1726 350.972 93.7074 350.972 93.2316C350.971 92.5937 350.718 91.9821 350.267 91.5311C349.815 91.08 349.204 90.8263 348.566 90.8256Z" fill="white"/>
<path d="M384.054 92.6302H357.588V93.8332H384.054V92.6302Z" fill="white"/>
<path d="M438.489 102.254V150.374C425.727 150.373 413.488 145.303 404.464 136.279C395.44 127.255 390.37 115.016 390.37 102.254H438.489Z" fill="#F5A623"/>
<path d="M439.091 354.882H290.522V101.653H439.091V354.882ZM291.725 353.679H437.888V102.856H291.725V353.679Z" fill="white"/>
<path opacity="0.1" d="M403.603 147.366C412.572 147.366 419.843 140.095 419.843 131.126C419.843 122.157 412.572 114.886 403.603 114.886C394.634 114.886 387.362 122.157 387.362 131.126C387.362 140.095 394.634 147.366 403.603 147.366Z" fill="black"/>
<path d="M401.197 149.171C410.166 149.171 417.437 141.9 417.437 132.93C417.437 123.961 410.166 116.69 401.197 116.69C392.228 116.69 384.957 123.961 384.957 132.93C384.957 141.9 392.228 149.171 401.197 149.171Z" fill="#F5A623"/>
<path d="M319.995 111.878H297.138V120.299H319.995V111.878Z" fill="#B8E986"/>
<path d="M332.626 191.877H309.77V200.298H332.626V191.877Z" fill="#B8E986"/>
<path d="M420.445 223.154H309.77V207.516H420.445V223.154ZM310.973 221.951H419.242V208.719H310.973V221.951Z" fill="white" fill-opacity="0.5"/>
<path d="M414.43 257.44H304.958V271.876H414.43V257.44Z" fill="#F0F0F0"/>
<path d="M332.626 237.59H309.77V246.011H332.626V237.59Z" fill="#B8E986"/>
<path d="M420.445 268.868H309.77V253.229H420.445V268.868ZM310.973 267.665H419.242V254.432H310.973V267.665Z" fill="white" fill-opacity="0.5"/>
<path d="M403.001 300.747H327.213V283.905H403.001V300.747ZM328.416 299.544H401.798V285.108H328.416V299.544Z" fill="white" fill-opacity="0.5"/>
<path d="M417.437 217.14C417.437 218.378 417.055 219.586 416.343 220.599C415.63 221.612 414.623 222.38 413.458 222.799C412.292 223.219 411.026 223.268 409.832 222.941C408.638 222.613 407.573 221.926 406.785 220.971L406.779 220.965C406.204 220.268 405.793 219.45 405.578 218.572C405.363 217.694 405.348 216.779 405.535 215.894C405.722 215.01 406.106 214.179 406.659 213.464C407.211 212.748 407.918 212.166 408.726 211.762C409.534 211.357 410.423 211.139 411.327 211.125C412.231 211.112 413.126 211.302 413.946 211.681C414.767 212.061 415.491 212.621 416.065 213.319C416.639 214.017 417.049 214.836 417.263 215.714C417.263 215.715 417.263 215.716 417.263 215.716C417.263 215.717 417.264 215.718 417.264 215.718C417.265 215.719 417.266 215.719 417.266 215.72C417.267 215.72 417.268 215.72 417.269 215.72C417.38 216.185 417.436 216.661 417.437 217.14Z" fill="#F5A623"/>
<path opacity="0.1" d="M417.437 217.14C417.437 218.378 417.055 219.586 416.343 220.599C415.63 221.612 414.623 222.38 413.458 222.799C412.292 223.219 411.026 223.268 409.832 222.941C408.638 222.613 407.573 221.926 406.785 220.971L406.779 220.965C406.668 220.5 406.611 220.024 406.61 219.546C406.61 218.307 406.993 217.099 407.705 216.086C408.417 215.073 409.425 214.305 410.59 213.886C411.755 213.467 413.021 213.417 414.215 213.744C415.41 214.072 416.474 214.759 417.263 215.714C417.263 215.715 417.263 215.716 417.263 215.716C417.263 215.717 417.264 215.718 417.264 215.718C417.265 215.719 417.266 215.719 417.266 215.72C417.267 215.72 417.268 215.72 417.269 215.72C417.38 216.185 417.436 216.661 417.437 217.14Z" fill="black"/>
<path d="M413.828 226.763C417.15 226.763 419.843 224.07 419.843 220.748C419.843 217.427 417.15 214.734 413.828 214.734C410.506 214.734 407.813 217.427 407.813 220.748C407.813 224.07 410.506 226.763 413.828 226.763Z" fill="#F5A623"/>
<path d="M417.437 262.853C417.437 264.091 417.055 265.299 416.343 266.312C415.63 267.325 414.623 268.094 413.458 268.513C412.292 268.932 411.026 268.981 409.832 268.654C408.638 268.327 407.573 267.639 406.785 266.685L406.779 266.679C406.204 265.981 405.793 265.163 405.578 264.285C405.363 263.407 405.348 262.492 405.535 261.608C405.722 260.723 406.106 259.893 406.659 259.177C407.211 258.462 407.918 257.88 408.726 257.475C409.534 257.07 410.423 256.853 411.327 256.839C412.231 256.825 413.126 257.015 413.946 257.395C414.767 257.775 415.491 258.334 416.065 259.033C416.639 259.731 417.049 260.549 417.263 261.428C417.263 261.428 417.263 261.429 417.263 261.43C417.263 261.431 417.264 261.431 417.264 261.432C417.265 261.432 417.266 261.433 417.266 261.433C417.267 261.433 417.268 261.434 417.269 261.434C417.38 261.899 417.436 262.375 417.437 262.853Z" fill="#F5A623"/>
<path opacity="0.1" d="M417.437 262.853C417.437 264.091 417.055 265.299 416.343 266.312C415.63 267.325 414.623 268.094 413.458 268.513C412.292 268.932 411.026 268.981 409.832 268.654C408.638 268.327 407.573 267.639 406.785 266.685L406.779 266.679C406.668 266.214 406.611 265.737 406.61 265.259C406.61 264.021 406.993 262.813 407.705 261.8C408.417 260.787 409.425 260.018 410.59 259.599C411.755 259.18 413.021 259.131 414.215 259.458C415.41 259.785 416.474 260.473 417.263 261.427C417.263 261.428 417.263 261.429 417.263 261.43C417.263 261.431 417.264 261.431 417.264 261.432C417.265 261.432 417.266 261.433 417.266 261.433C417.267 261.433 417.268 261.434 417.269 261.434C417.38 261.899 417.436 262.375 417.437 262.853Z" fill="black"/>
<path d="M413.828 272.477C417.15 272.477 419.843 269.784 419.843 266.462C419.843 263.14 417.15 260.447 413.828 260.447C410.506 260.447 407.813 263.14 407.813 266.462C407.813 269.784 410.506 272.477 413.828 272.477Z" fill="#F5A623"/>
<path d="M312.777 28.8718H281.499V60.1496H312.777V28.8718Z" fill="#F0F0F0"/>
<path d="M403.603 51.7285C402.175 51.7285 400.78 51.3051 399.593 50.512C398.406 49.7189 397.481 48.5916 396.934 47.2727C396.388 45.9538 396.245 44.5025 396.523 43.1024C396.802 41.7022 397.489 40.4161 398.499 39.4067C399.508 38.3972 400.794 37.7098 402.195 37.4313C403.595 37.1528 405.046 37.2957 406.365 37.842C407.684 38.3883 408.811 39.3135 409.604 40.5005C410.397 41.6874 410.821 43.083 410.821 44.5105C410.818 46.4242 410.057 48.2588 408.704 49.612C407.351 50.9652 405.516 51.7263 403.603 51.7285ZM403.603 38.4956C402.413 38.4956 401.25 38.8483 400.261 39.5093C399.272 40.1702 398.501 41.1096 398.046 42.2087C397.59 43.3078 397.471 44.5172 397.703 45.684C397.935 46.8508 398.508 47.9225 399.35 48.7637C400.191 49.6049 401.262 50.1778 402.429 50.4099C403.596 50.642 404.805 50.5229 405.905 50.0676C407.004 49.6124 407.943 48.8414 408.604 47.8523C409.265 46.8631 409.618 45.7002 409.618 44.5105C409.616 42.9158 408.981 41.387 407.854 40.2593C406.726 39.1317 405.197 38.4974 403.603 38.4956Z" fill="white"/>
<path d="M244.808 152.178H229.169V136.539H244.808V152.178ZM230.372 150.975H243.605V137.742H230.372V150.975Z" fill="white"/>
<path d="M483 268.868H467.361V253.229H483V268.868ZM468.564 267.665H481.797V254.432H468.564V267.665Z" fill="white"/>
<path d="M174.435 164.007L177.119 165.453L186.251 170.375L200.993 178.318L209.585 162.377C210.394 160.879 210.9 159.237 211.074 157.543C211.247 155.85 211.085 154.139 210.597 152.508C210.108 150.877 209.303 149.359 208.227 148.04C207.151 146.72 205.825 145.626 204.326 144.82C201.121 143.09 197.451 142.422 193.842 142.911C190.234 143.401 186.874 145.023 184.247 147.545L184.242 147.549C182.95 148.791 181.859 150.226 181.009 151.804L174.435 164.007Z" fill="#2F2E41"/>
<path d="M214.673 326.574L212.873 346.386L206.118 347.287L201.615 324.772L214.673 326.574Z" fill="#FFB8B8"/>
<path d="M204.317 347.287C204.317 347.287 212.872 342.784 214.673 346.386C214.673 346.386 213.323 357.193 218.726 358.544C224.13 359.895 226.381 369.351 218.726 370.252C211.071 371.153 206.118 368.451 203.416 368.451C200.714 368.451 203.416 358.995 203.416 358.995L204.317 347.287Z" fill="#2F2E41"/>
<path d="M160.188 326.574L161.989 346.386L168.743 347.287L173.246 324.772L160.188 326.574Z" fill="#FFB8B8"/>
<path d="M170.544 347.287C170.544 347.287 161.989 342.784 160.188 346.386C160.188 346.386 161.538 357.193 156.135 358.544C150.731 359.895 148.48 369.351 156.135 370.252C163.79 371.153 168.743 368.451 171.445 368.451C174.147 368.451 171.445 358.995 171.445 358.995L170.544 347.287Z" fill="#2F2E41"/>
<path d="M197.112 167.619C203.578 167.619 208.82 162.377 208.82 155.911C208.82 149.445 203.578 144.203 197.112 144.203C190.646 144.203 185.404 149.445 185.404 155.911C185.404 162.377 190.646 167.619 197.112 167.619Z" fill="#FFB8B8"/>
<path d="M159.737 178.876L169.194 193.736L180.451 192.835L198.913 194.186C198.913 194.186 200.656 190.701 202.079 187.31C202.858 185.617 203.457 183.847 203.866 182.028C204.317 178.876 198.012 175.724 198.012 175.724C198.012 175.724 197.765 175.679 197.351 175.58C196.801 175.45 195.955 175.233 195.027 174.918C192.933 174.207 190.416 173 189.907 171.221C189.007 168.069 195.761 163.566 195.761 163.566L187.656 155.911C187.656 155.911 180.455 165.912 171.711 168.191C171.204 168.325 170.69 168.43 170.171 168.506C170.144 168.51 170.121 168.515 170.094 168.519C160.638 169.87 159.737 178.876 159.737 178.876Z" fill="#FFB8B8"/>
<path d="M164.691 174.823L159.737 178.876C159.737 178.876 155.685 198.239 157.036 203.642C158.386 209.046 156.585 213.999 156.585 214.9C156.585 215.8 152.533 249.573 152.533 249.573C152.533 249.573 144.427 267.585 152.983 265.783C161.539 263.982 158.386 245.97 158.386 245.97L168.743 214.45V187.882L164.691 174.823Z" fill="#FFB8B8"/>
<path d="M200.264 178.426L203.866 181.128L205.668 218.952L219.176 251.374C219.176 251.374 229.083 267.134 222.779 267.584C216.475 268.035 212.422 251.374 212.422 251.374L200.264 220.303L198.463 190.134L200.264 178.426Z" fill="#FFB8B8"/>
<path d="M177.749 181.128C177.749 181.128 186.755 187.432 201.164 185.18C201.164 185.18 205.217 193.286 202.966 197.789C200.714 202.292 205.667 213.099 206.568 214.45C207.469 215.801 217.825 243.719 221.428 273.889C225.03 304.059 234.937 324.772 226.381 327.474C217.825 330.176 200.264 333.328 198.463 330.626C196.661 327.924 193.96 260.83 193.96 260.83L189.006 286.497C189.006 286.497 195.761 330.176 190.808 331.076C185.854 331.977 154.784 329.275 155.685 323.872C156.585 318.468 165.591 290.099 165.591 290.099C165.591 290.099 165.141 233.362 174.147 222.555C174.147 222.555 177.749 216.701 172.796 209.046C167.843 201.391 168.293 189.233 168.293 189.233C168.293 189.233 171.895 189.233 177.749 181.128Z" fill="#2F2E41"/>
<path d="M170.171 168.506L177.749 185.18L179.55 184.28L171.71 168.191L170.171 168.506Z" fill="#2F2E41"/>
<path d="M195.027 174.918L200.714 187.432L202.079 187.31L201.615 185.18L197.35 175.58C196.801 175.449 195.955 175.233 195.027 174.918Z" fill="#2F2E41"/>
<path d="M177.119 165.453C177.552 166.846 178.386 168.08 179.517 169.001C180.649 169.922 182.027 170.488 183.479 170.63C184.93 170.771 186.392 170.481 187.68 169.796C188.967 169.11 190.024 168.06 190.718 166.777C185.021 159.329 189.907 154.65 199.161 151.111C199.858 149.817 200.154 148.345 200.012 146.883C199.87 145.42 199.296 144.033 198.364 142.897C195.813 142.571 193.222 142.819 190.779 143.623C188.337 144.427 186.105 145.767 184.247 147.544L184.242 147.549L177.668 159.743C177.2 160.61 176.91 161.562 176.816 162.542C176.721 163.523 176.824 164.513 177.119 165.453Z" fill="#2F2E41"/>
<path d="M190.132 159.964C191.003 159.964 191.708 158.754 191.708 157.262C191.708 155.77 191.003 154.56 190.132 154.56C189.262 154.56 188.556 155.77 188.556 157.262C188.556 158.754 189.262 159.964 190.132 159.964Z" fill="#FFB8B8"/>
<path d="M194.829 152.853L208.365 158.986L210.846 153.511C210.418 151.51 209.523 149.638 208.234 148.049L198.918 143.829L194.829 152.853Z" fill="#2F2E41"/>
<path d="M227.365 273.68C230.687 273.68 233.38 270.987 233.38 267.665C233.38 264.343 230.687 261.65 227.365 261.65C224.043 261.65 221.35 264.343 221.35 267.665C221.35 270.987 224.043 273.68 227.365 273.68Z" fill="#B8E986"/>
<path d="M34.259 309.437C36.43 309.437 38.19 307.677 38.19 305.506C38.19 303.335 36.43 301.575 34.259 301.575C32.088 301.575 30.328 303.335 30.328 305.506C30.328 307.677 32.088 309.437 34.259 309.437Z" fill="#FF6584"/>
<path d="M54.1195 325.994H52.9165V370.751H54.1195V325.994Z" fill="#3F3D56"/>
<path d="M53.5181 332.323C57.0137 332.323 59.8475 329.489 59.8475 325.993C59.8475 322.498 57.0137 319.664 53.5181 319.664C50.0224 319.664 47.1887 322.498 47.1887 325.993C47.1887 329.489 50.0224 332.323 53.5181 332.323Z" fill="#3F3D56"/>
<path d="M53.5181 353.579C53.5181 353.579 52.6139 334.131 34.0778 336.392L53.5181 353.579Z" fill="#3F3D56"/>
</svg>
