<svg width="21" height="21" viewBox="0 0 21 21" fill="none" xmlns="http://www.w3.org/2000/svg">
<path d="M20.8162 19.7362L14.5649 13.4689C15.9082 11.8339 16.5712 9.74321 16.4162 7.6312C16.2611 5.51918 15.3001 3.54818 13.7325 2.12763C12.165 0.707073 10.1115 -0.0538357 7.9987 0.00296591C5.88586 0.0597675 3.87608 0.929912 2.38683 2.43265C0.89759 3.93538 0.0433641 5.95518 0.00160604 8.07249C-0.040152 10.1898 0.733768 12.2418 2.1626 13.8023C3.59143 15.3629 5.56534 16.3119 7.67428 16.4523C9.78322 16.5926 11.8651 15.9136 13.4874 14.5562L19.7387 20.8159C19.8849 20.9413 20.0729 21.0069 20.2653 20.9994C20.4576 20.992 20.6401 20.9121 20.7762 20.7757C20.9123 20.6394 20.992 20.4566 20.9994 20.2638C21.0069 20.0711 20.9414 19.8827 20.8162 19.7362ZM1.55416 8.25062C1.55364 7.15361 1.82227 6.0733 2.33641 5.10477C2.85055 4.13624 3.59444 3.3092 4.50258 2.69645C5.41073 2.0837 6.45529 1.70402 7.54432 1.59084C8.63335 1.47767 9.73344 1.63446 10.7478 2.04742C11.7621 2.46038 12.6596 3.11684 13.3611 3.95903C14.0627 4.80121 14.5469 5.80328 14.7711 6.87704C14.9953 7.9508 14.9526 9.06332 14.6468 10.1167C14.341 11.17 13.7815 12.1319 13.0174 12.9176C13.0037 12.928 12.991 12.9395 12.9792 12.9521C12.9617 12.969 12.9451 12.9869 12.9295 13.0057C11.9941 13.9375 10.8039 14.5706 9.50945 14.8249C8.215 15.0792 6.87436 14.9433 5.65696 14.4344C4.43956 13.9255 3.40004 13.0665 2.66978 11.9658C1.93952 10.8651 1.55129 9.57229 1.55416 8.25062Z" fill="#2A2A2A"/>
</svg>
