<svg width="21" height="21" viewBox="0 0 21 21" fill="none" xmlns="http://www.w3.org/2000/svg">
<mask id="path-1-outside-1" maskUnits="userSpaceOnUse" x="6.10352e-05" y="0" width="21" height="21" fill="black">
<rect fill="white" x="6.10352e-05" width="21" height="21"/>
<path d="M11.3867 20H9.61339C9.0141 20 8.50823 19.5511 8.43698 18.955L8.24777 17.4698C7.87014 17.3471 7.50598 17.1959 7.16002 17.0194L5.97727 17.9385C5.49752 18.3098 4.82223 18.267 4.40581 17.8388L3.15894 16.5919C2.73381 16.1794 2.69106 15.5041 3.06235 15.0252L3.98148 13.8416C3.80414 13.4957 3.65294 13.1315 3.53102 12.7539L2.04269 12.5647C1.44894 12.4918 1.00006 11.986 1.00006 11.3867V9.61333C1.00006 9.01404 1.44894 8.50817 2.04506 8.43692L3.53023 8.24771C3.65294 7.87008 3.80414 7.50592 3.98069 7.15996L3.06235 5.97721C2.69027 5.49746 2.73381 4.82138 3.16289 4.40496L4.40977 3.15808C4.82223 2.73296 5.49831 2.691 5.97648 3.0615L7.15923 3.98142C7.50519 3.80488 7.86935 3.65367 8.24777 3.53096L8.43698 2.04263C8.50823 1.44888 9.0141 1 9.61339 1H11.3867C11.986 1 12.4919 1.44888 12.5631 2.045L12.7524 3.53017C13.1308 3.65288 13.4949 3.80408 13.8409 3.98063L15.0236 3.0615C15.5042 2.69021 16.1787 2.73296 16.5951 3.16204L17.842 4.40892C18.2671 4.82138 18.3099 5.49667 17.9386 5.97563L17.0194 7.15917C17.1968 7.50513 17.348 7.86929 17.4699 8.24692L18.9582 8.43612C19.5512 8.50817 20.0001 9.01404 20.0001 9.61333V11.3867C20.0001 11.986 19.5512 12.4918 18.9551 12.5631L17.4699 12.7523C17.3472 13.1299 17.196 13.4941 17.0194 13.84L17.9386 15.0228C18.3106 15.5025 18.2671 16.1778 17.838 16.5943L16.5911 17.8411C16.1787 18.2663 15.5026 18.3098 15.0244 17.9377L13.8409 17.0186C13.4949 17.1959 13.1308 17.3471 12.7531 17.469L12.5639 18.9574C12.4919 19.5511 11.986 20 11.3867 20ZM7.11964 16.1525C7.18535 16.1525 7.25264 16.1691 7.31281 16.2024C7.74902 16.4462 8.22164 16.6425 8.71723 16.785C8.86923 16.8286 8.98085 16.9584 9.00064 17.1152L9.22231 18.8568C9.24606 19.0555 9.41785 19.2083 9.61339 19.2083H11.3867C11.5823 19.2083 11.7541 19.0555 11.777 18.8608L11.9995 17.116C12.0193 16.9592 12.1309 16.8294 12.2829 16.7858C12.7785 16.6433 13.2511 16.447 13.6873 16.2032C13.8259 16.1256 13.9984 16.139 14.1227 16.2364L15.5081 17.3131C15.6673 17.4366 15.8905 17.4263 16.0267 17.2862L17.2815 16.0314C17.4248 15.892 17.4359 15.6688 17.3124 15.5089L16.2357 14.1235C16.1383 13.9984 16.1249 13.8266 16.2024 13.688C16.4463 13.2518 16.6426 12.7792 16.7851 12.2836C16.8286 12.1316 16.9585 12.02 17.1152 12.0002L18.8569 11.7785C19.0556 11.754 19.2084 11.5822 19.2084 11.3867V9.61333C19.2084 9.41779 19.0556 9.246 18.8609 9.22304L17.116 9.00058C16.9593 8.98079 16.8294 8.86917 16.7859 8.71717C16.6434 8.22158 16.4471 7.74896 16.2032 7.31275C16.1256 7.17421 16.1383 7.00242 16.2365 6.87733L17.3131 5.49192C17.4374 5.332 17.4264 5.10875 17.287 4.97417L16.0322 3.71938C15.8937 3.57529 15.6696 3.56421 15.5097 3.6885L14.1243 4.76517C13.9984 4.86254 13.8266 4.876 13.6881 4.79842C13.2535 4.55458 12.7809 4.35904 12.2837 4.21575C12.1317 4.17221 12.0201 4.04238 12.0003 3.88563L11.7786 2.14396C11.7541 1.94446 11.5823 1.79167 11.3867 1.79167H9.61339C9.41785 1.79167 9.24606 1.94446 9.2231 2.13921L9.00064 3.88404C8.98085 4.04079 8.86923 4.17062 8.71723 4.21496C8.22006 4.35746 7.74744 4.55379 7.31281 4.79683C7.17427 4.87521 7.00248 4.86096 6.8766 4.76438L5.49119 3.68771C5.33127 3.56342 5.10881 3.5745 4.97344 3.71383L3.71864 4.96942C3.57535 5.10875 3.56427 5.332 3.68777 5.49192L4.76444 6.87733C4.86181 7.00242 4.87527 7.17421 4.79769 7.31275C4.55306 7.74896 4.35752 8.22158 4.21502 8.71717C4.17148 8.86917 4.04164 8.98079 3.88489 9.00058L2.14323 9.22225C1.94452 9.246 1.79173 9.41779 1.79173 9.61333V11.3867C1.79173 11.5822 1.94452 11.754 2.13927 11.777L3.8841 11.9994C4.04085 12.0192 4.17069 12.1308 4.21423 12.2828C4.35673 12.7784 4.55306 13.251 4.79689 13.6872C4.87448 13.8258 4.86181 13.9976 4.76364 14.1227L3.68698 15.5081C3.56269 15.668 3.57377 15.8912 3.7131 16.0258L4.96789 17.2806C5.10644 17.4239 5.32889 17.435 5.49039 17.3115L6.87581 16.2348C6.94785 16.181 7.03335 16.1525 7.11964 16.1525Z"/>
</mask>
<path d="M11.3867 20H9.61339C9.0141 20 8.50823 19.5511 8.43698 18.955L8.24777 17.4698C7.87014 17.3471 7.50598 17.1959 7.16002 17.0194L5.97727 17.9385C5.49752 18.3098 4.82223 18.267 4.40581 17.8388L3.15894 16.5919C2.73381 16.1794 2.69106 15.5041 3.06235 15.0252L3.98148 13.8416C3.80414 13.4957 3.65294 13.1315 3.53102 12.7539L2.04269 12.5647C1.44894 12.4918 1.00006 11.986 1.00006 11.3867V9.61333C1.00006 9.01404 1.44894 8.50817 2.04506 8.43692L3.53023 8.24771C3.65294 7.87008 3.80414 7.50592 3.98069 7.15996L3.06235 5.97721C2.69027 5.49746 2.73381 4.82138 3.16289 4.40496L4.40977 3.15808C4.82223 2.73296 5.49831 2.691 5.97648 3.0615L7.15923 3.98142C7.50519 3.80488 7.86935 3.65367 8.24777 3.53096L8.43698 2.04263C8.50823 1.44888 9.0141 1 9.61339 1H11.3867C11.986 1 12.4919 1.44888 12.5631 2.045L12.7524 3.53017C13.1308 3.65288 13.4949 3.80408 13.8409 3.98063L15.0236 3.0615C15.5042 2.69021 16.1787 2.73296 16.5951 3.16204L17.842 4.40892C18.2671 4.82138 18.3099 5.49667 17.9386 5.97563L17.0194 7.15917C17.1968 7.50513 17.348 7.86929 17.4699 8.24692L18.9582 8.43612C19.5512 8.50817 20.0001 9.01404 20.0001 9.61333V11.3867C20.0001 11.986 19.5512 12.4918 18.9551 12.5631L17.4699 12.7523C17.3472 13.1299 17.196 13.4941 17.0194 13.84L17.9386 15.0228C18.3106 15.5025 18.2671 16.1778 17.838 16.5943L16.5911 17.8411C16.1787 18.2663 15.5026 18.3098 15.0244 17.9377L13.8409 17.0186C13.4949 17.1959 13.1308 17.3471 12.7531 17.469L12.5639 18.9574C12.4919 19.5511 11.986 20 11.3867 20ZM7.11964 16.1525C7.18535 16.1525 7.25264 16.1691 7.31281 16.2024C7.74902 16.4462 8.22164 16.6425 8.71723 16.785C8.86923 16.8286 8.98085 16.9584 9.00064 17.1152L9.22231 18.8568C9.24606 19.0555 9.41785 19.2083 9.61339 19.2083H11.3867C11.5823 19.2083 11.7541 19.0555 11.777 18.8608L11.9995 17.116C12.0193 16.9592 12.1309 16.8294 12.2829 16.7858C12.7785 16.6433 13.2511 16.447 13.6873 16.2032C13.8259 16.1256 13.9984 16.139 14.1227 16.2364L15.5081 17.3131C15.6673 17.4366 15.8905 17.4263 16.0267 17.2862L17.2815 16.0314C17.4248 15.892 17.4359 15.6688 17.3124 15.5089L16.2357 14.1235C16.1383 13.9984 16.1249 13.8266 16.2024 13.688C16.4463 13.2518 16.6426 12.7792 16.7851 12.2836C16.8286 12.1316 16.9585 12.02 17.1152 12.0002L18.8569 11.7785C19.0556 11.754 19.2084 11.5822 19.2084 11.3867V9.61333C19.2084 9.41779 19.0556 9.246 18.8609 9.22304L17.116 9.00058C16.9593 8.98079 16.8294 8.86917 16.7859 8.71717C16.6434 8.22158 16.4471 7.74896 16.2032 7.31275C16.1256 7.17421 16.1383 7.00242 16.2365 6.87733L17.3131 5.49192C17.4374 5.332 17.4264 5.10875 17.287 4.97417L16.0322 3.71938C15.8937 3.57529 15.6696 3.56421 15.5097 3.6885L14.1243 4.76517C13.9984 4.86254 13.8266 4.876 13.6881 4.79842C13.2535 4.55458 12.7809 4.35904 12.2837 4.21575C12.1317 4.17221 12.0201 4.04238 12.0003 3.88563L11.7786 2.14396C11.7541 1.94446 11.5823 1.79167 11.3867 1.79167H9.61339C9.41785 1.79167 9.24606 1.94446 9.2231 2.13921L9.00064 3.88404C8.98085 4.04079 8.86923 4.17062 8.71723 4.21496C8.22006 4.35746 7.74744 4.55379 7.31281 4.79683C7.17427 4.87521 7.00248 4.86096 6.8766 4.76438L5.49119 3.68771C5.33127 3.56342 5.10881 3.5745 4.97344 3.71383L3.71864 4.96942C3.57535 5.10875 3.56427 5.332 3.68777 5.49192L4.76444 6.87733C4.86181 7.00242 4.87527 7.17421 4.79769 7.31275C4.55306 7.74896 4.35752 8.22158 4.21502 8.71717C4.17148 8.86917 4.04164 8.98079 3.88489 9.00058L2.14323 9.22225C1.94452 9.246 1.79173 9.41779 1.79173 9.61333V11.3867C1.79173 11.5822 1.94452 11.754 2.13927 11.777L3.8841 11.9994C4.04085 12.0192 4.17069 12.1308 4.21423 12.2828C4.35673 12.7784 4.55306 13.251 4.79689 13.6872C4.87448 13.8258 4.86181 13.9976 4.76364 14.1227L3.68698 15.5081C3.56269 15.668 3.57377 15.8912 3.7131 16.0258L4.96789 17.2806C5.10644 17.4239 5.32889 17.435 5.49039 17.3115L6.87581 16.2348C6.94785 16.181 7.03335 16.1525 7.11964 16.1525Z" fill="#2A2A2A"/>
<path d="M11.3867 20H9.61339C9.0141 20 8.50823 19.5511 8.43698 18.955L8.24777 17.4698C7.87014 17.3471 7.50598 17.1959 7.16002 17.0194L5.97727 17.9385C5.49752 18.3098 4.82223 18.267 4.40581 17.8388L3.15894 16.5919C2.73381 16.1794 2.69106 15.5041 3.06235 15.0252L3.98148 13.8416C3.80414 13.4957 3.65294 13.1315 3.53102 12.7539L2.04269 12.5647C1.44894 12.4918 1.00006 11.986 1.00006 11.3867V9.61333C1.00006 9.01404 1.44894 8.50817 2.04506 8.43692L3.53023 8.24771C3.65294 7.87008 3.80414 7.50592 3.98069 7.15996L3.06235 5.97721C2.69027 5.49746 2.73381 4.82138 3.16289 4.40496L4.40977 3.15808C4.82223 2.73296 5.49831 2.691 5.97648 3.0615L7.15923 3.98142C7.50519 3.80488 7.86935 3.65367 8.24777 3.53096L8.43698 2.04263C8.50823 1.44888 9.0141 1 9.61339 1H11.3867C11.986 1 12.4919 1.44888 12.5631 2.045L12.7524 3.53017C13.1308 3.65288 13.4949 3.80408 13.8409 3.98063L15.0236 3.0615C15.5042 2.69021 16.1787 2.73296 16.5951 3.16204L17.842 4.40892C18.2671 4.82138 18.3099 5.49667 17.9386 5.97563L17.0194 7.15917C17.1968 7.50513 17.348 7.86929 17.4699 8.24692L18.9582 8.43612C19.5512 8.50817 20.0001 9.01404 20.0001 9.61333V11.3867C20.0001 11.986 19.5512 12.4918 18.9551 12.5631L17.4699 12.7523C17.3472 13.1299 17.196 13.4941 17.0194 13.84L17.9386 15.0228C18.3106 15.5025 18.2671 16.1778 17.838 16.5943L16.5911 17.8411C16.1787 18.2663 15.5026 18.3098 15.0244 17.9377L13.8409 17.0186C13.4949 17.1959 13.1308 17.3471 12.7531 17.469L12.5639 18.9574C12.4919 19.5511 11.986 20 11.3867 20ZM7.11964 16.1525C7.18535 16.1525 7.25264 16.1691 7.31281 16.2024C7.74902 16.4462 8.22164 16.6425 8.71723 16.785C8.86923 16.8286 8.98085 16.9584 9.00064 17.1152L9.22231 18.8568C9.24606 19.0555 9.41785 19.2083 9.61339 19.2083H11.3867C11.5823 19.2083 11.7541 19.0555 11.777 18.8608L11.9995 17.116C12.0193 16.9592 12.1309 16.8294 12.2829 16.7858C12.7785 16.6433 13.2511 16.447 13.6873 16.2032C13.8259 16.1256 13.9984 16.139 14.1227 16.2364L15.5081 17.3131C15.6673 17.4366 15.8905 17.4263 16.0267 17.2862L17.2815 16.0314C17.4248 15.892 17.4359 15.6688 17.3124 15.5089L16.2357 14.1235C16.1383 13.9984 16.1249 13.8266 16.2024 13.688C16.4463 13.2518 16.6426 12.7792 16.7851 12.2836C16.8286 12.1316 16.9585 12.02 17.1152 12.0002L18.8569 11.7785C19.0556 11.754 19.2084 11.5822 19.2084 11.3867V9.61333C19.2084 9.41779 19.0556 9.246 18.8609 9.22304L17.116 9.00058C16.9593 8.98079 16.8294 8.86917 16.7859 8.71717C16.6434 8.22158 16.4471 7.74896 16.2032 7.31275C16.1256 7.17421 16.1383 7.00242 16.2365 6.87733L17.3131 5.49192C17.4374 5.332 17.4264 5.10875 17.287 4.97417L16.0322 3.71938C15.8937 3.57529 15.6696 3.56421 15.5097 3.6885L14.1243 4.76517C13.9984 4.86254 13.8266 4.876 13.6881 4.79842C13.2535 4.55458 12.7809 4.35904 12.2837 4.21575C12.1317 4.17221 12.0201 4.04238 12.0003 3.88563L11.7786 2.14396C11.7541 1.94446 11.5823 1.79167 11.3867 1.79167H9.61339C9.41785 1.79167 9.24606 1.94446 9.2231 2.13921L9.00064 3.88404C8.98085 4.04079 8.86923 4.17062 8.71723 4.21496C8.22006 4.35746 7.74744 4.55379 7.31281 4.79683C7.17427 4.87521 7.00248 4.86096 6.8766 4.76438L5.49119 3.68771C5.33127 3.56342 5.10881 3.5745 4.97344 3.71383L3.71864 4.96942C3.57535 5.10875 3.56427 5.332 3.68777 5.49192L4.76444 6.87733C4.86181 7.00242 4.87527 7.17421 4.79769 7.31275C4.55306 7.74896 4.35752 8.22158 4.21502 8.71717C4.17148 8.86917 4.04164 8.98079 3.88489 9.00058L2.14323 9.22225C1.94452 9.246 1.79173 9.41779 1.79173 9.61333V11.3867C1.79173 11.5822 1.94452 11.754 2.13927 11.777L3.8841 11.9994C4.04085 12.0192 4.17069 12.1308 4.21423 12.2828C4.35673 12.7784 4.55306 13.251 4.79689 13.6872C4.87448 13.8258 4.86181 13.9976 4.76364 14.1227L3.68698 15.5081C3.56269 15.668 3.57377 15.8912 3.7131 16.0258L4.96789 17.2806C5.10644 17.4239 5.32889 17.435 5.49039 17.3115L6.87581 16.2348C6.94785 16.181 7.03335 16.1525 7.11964 16.1525Z" stroke="#2A2A2A" stroke-width="0.2" mask="url(#path-1-outside-1)"/>
<path d="M6.49175 10.5C6.49175 12.7103 8.28984 14.5084 10.5001 14.5084C12.7103 14.5084 14.5084 12.7103 14.5084 10.5C14.5084 8.28978 12.7103 6.49169 10.5001 6.49169C8.28984 6.49169 6.49175 8.28978 6.49175 10.5ZM7.38341 10.5C7.38341 8.78122 8.78128 7.38335 10.5001 7.38335C12.2189 7.38335 13.6167 8.78122 13.6167 10.5C13.6167 12.2188 12.2189 13.6167 10.5001 13.6167C8.78128 13.6167 7.38341 12.2188 7.38341 10.5Z" fill="#2A2A2A" stroke="#2A2A2A" stroke-width="0.1"/>
</svg>
