<svg width="50" height="50" viewBox="0 0 50 50" fill="none" xmlns="http://www.w3.org/2000/svg">
<path d="M25 50C38.8071 50 50 38.8071 50 25C50 11.1929 38.8071 0 25 0C11.1929 0 0 11.1929 0 25C0 38.8071 11.1929 50 25 50Z" fill="#DCECEC"/>
<path d="M33.8342 39.0703C33.8342 40.136 32.9702 41 31.9045 41H12.9297C11.864 41 11 40.136 11 39.0703V14.5637C11 13.498 11.864 12.6343 12.9297 12.6343H31.9045C32.9702 12.6343 33.8342 13.498 33.8342 14.5637V39.0703Z" fill="#AA8452"/>
<path d="M33.8342 14.5637V39.0703C33.8342 40.1362 32.9705 41 31.9045 41H29.9749C31.0408 41 31.9045 40.1362 31.9045 39.0703V14.5637C31.9045 13.498 31.0408 12.6343 29.9749 12.6343H31.9045C32.9702 12.6343 33.8342 13.498 33.8342 14.5637Z" fill="#7F5C3E"/>
<path d="M31.9045 14.821C31.9045 14.6436 31.7605 14.4995 31.5828 14.4995H13.187C13.0093 14.4995 12.8652 14.6436 12.8652 14.821V38.7488C12.8652 38.9263 13.0093 39.0703 13.187 39.0703H31.583C31.7605 39.0703 31.9045 38.9263 31.9045 38.7488V14.821Z" fill="white"/>
<path d="M25.1426 12.2803V9.96484C25.1426 9.43188 24.7104 9 24.1777 9H20.6399C20.1072 9 19.6753 9.43188 19.6753 9.96484V12.2803H25.1426Z" fill="#CCCCCC"/>
<path d="M25.1426 9.96484V12.2803H23.2129V9.96484C23.2129 9.43213 22.7813 9 22.248 9H24.1777C24.7109 9 25.1426 9.43213 25.1426 9.96484Z" fill="#A0A0A0"/>
<path d="M17.5525 11.6372C17.1973 11.6372 16.9094 11.9253 16.9094 12.2803V15.4321C16.9094 15.7874 17.1973 16.0752 17.5525 16.0752H27.2651C27.6204 16.0752 27.9082 15.7874 27.9082 15.4321V12.2803C27.9082 11.925 27.6204 11.6372 27.2651 11.6372H17.5525Z" fill="#E8E8E8"/>
<path d="M38.7117 17.8289L37.7651 17.2825C37.4578 17.105 37.0645 17.2102 36.887 17.5178L36.0835 18.9097L36.7522 20.0991H38.1433L38.947 18.707C39.1245 18.3997 39.0193 18.0063 38.7117 17.8289Z" fill="#DB8733"/>
<path d="M35.7492 18.7168L38.4775 20.292C38.7849 20.4695 38.8901 20.8625 38.7126 21.1702L38.0698 22.2834L35.423 21.9915L34.2282 20.0657L34.871 18.9521C35.0488 18.6445 35.4418 18.5393 35.7492 18.7168Z" fill="#EDAF54"/>
<path d="M31.6733 33.3628H29.2827L27.8317 31.145L34.2282 20.0657L38.0698 22.2834L31.6733 33.3628Z" fill="#FFD47D"/>
<path d="M30.3399 35.2043L27.5664 36.4905C27.3623 36.5852 27.1267 36.446 27.1106 36.2217L26.8955 33.2083C26.8772 32.9521 26.9361 32.6963 27.0645 32.4739L27.8318 31.145L31.6734 33.3628L30.9124 34.6807C30.7801 34.9102 30.5801 35.0928 30.3399 35.2043Z" fill="#EDAF54"/>
<path d="M29.2429 19.9668H15.5424C15.2761 19.9668 15.06 19.751 15.06 19.4844C15.06 19.218 15.2761 19.002 15.5424 19.002H29.2429C29.5095 19.002 29.7253 19.2178 29.7253 19.4844C29.7253 19.751 29.5095 19.9668 29.2429 19.9668Z" fill="#515759"/>
<path d="M21.3315 22.5398H15.6069C15.3403 22.5398 15.1242 22.3237 15.1242 22.0571C15.1242 21.7908 15.3403 21.5747 15.6069 21.5747H21.3315C21.5978 21.5747 21.8139 21.7908 21.8139 22.0571C21.8139 22.3237 21.5978 22.5398 21.3315 22.5398Z" fill="#515759"/>
<path d="M25.8339 22.5398H23.5827C23.3163 22.5398 23.1003 22.3237 23.1003 22.0571C23.1003 21.7908 23.3163 21.5747 23.5827 21.5747H25.8339C26.1003 21.5747 26.3163 21.7908 26.3163 22.0571C26.3163 22.3237 26.1003 22.5398 25.8339 22.5398Z" fill="#515759"/>
<path d="M20.2379 25.1125H15.6068C15.3402 25.1125 15.1244 24.8967 15.1244 24.6301C15.1244 24.3635 15.3402 24.1477 15.6068 24.1477H20.2379C20.5043 24.1477 20.7203 24.3635 20.7203 24.6301C20.7203 24.8967 20.5043 25.1125 20.2379 25.1125Z" fill="#515759"/>
<path d="M24.4831 25.1125H22.2963C22.0297 25.1125 21.8139 24.8967 21.8139 24.6301C21.8139 24.3635 22.0297 24.1477 22.2963 24.1477H24.4831C24.7497 24.1477 24.9655 24.3635 24.9655 24.6301C24.9655 24.8967 24.7495 25.1125 24.4831 25.1125Z" fill="#515759"/>
<path d="M18.9516 27.6855H15.6069C15.3403 27.6855 15.1242 27.4695 15.1242 27.2029C15.1242 26.9365 15.3403 26.7205 15.6069 26.7205H18.9516C19.218 26.7205 19.434 26.9365 19.434 27.2029C19.434 27.4695 19.218 27.6855 18.9516 27.6855Z" fill="#515759"/>
<path d="M24.4831 27.6855H21.0097C20.7433 27.6855 20.5273 27.4695 20.5273 27.2029C20.5273 26.9365 20.7433 26.7205 21.0097 26.7205H24.4831C24.7497 26.7205 24.9655 26.9365 24.9655 27.2029C24.9655 27.4695 24.7495 27.6855 24.4831 27.6855Z" fill="#515759"/>
<path d="M18.9516 30.2583H15.6069C15.3403 30.2583 15.1242 30.0425 15.1242 29.7759C15.1242 29.5095 15.3403 29.2935 15.6069 29.2935H18.9516C19.218 29.2935 19.434 29.5093 19.434 29.7759C19.434 30.0422 19.218 30.2583 18.9516 30.2583Z" fill="#515759"/>
<path d="M27.9084 12.2803V15.4321C27.9084 15.7871 27.6201 16.0752 27.2651 16.0752H25.3354C25.6907 16.0752 25.9788 15.7871 25.9788 15.4321V12.2803C25.9788 11.9253 25.6907 11.6372 25.3354 11.6372H27.2651C27.6201 11.6372 27.9084 11.9253 27.9084 12.2803Z" fill="#CCCCCC"/>
<path d="M38.7129 21.1699L38.0701 22.2832L36.3989 21.3186L37.0417 20.2051C37.2192 19.8975 37.114 19.5046 36.8066 19.3271L38.4778 20.292C38.7852 20.4695 38.8904 20.8623 38.7129 21.1699Z" fill="#DB8733"/>
<path d="M30.0016 32.3984L36.3984 21.3193L38.0695 22.2842L31.6725 33.3633L30.0016 32.3984Z" fill="#E89E46"/>
<path d="M31.6733 33.3628L30.9124 34.6809C30.78 34.9097 30.5801 35.0928 30.3396 35.2043L27.5667 36.4902C27.3628 36.585 27.1265 36.4463 27.1104 36.2217L27.0234 35.0024L28.6685 34.2395C28.9089 34.1279 29.1089 33.9448 29.2412 33.7161L30.002 32.3979L31.6733 33.3628Z" fill="#DB8733"/>
</svg>
