<svg width="349" height="264" viewBox="0 0 349 264" fill="none" xmlns="http://www.w3.org/2000/svg">
<path opacity="0.1" d="M327.465 143.317C315.22 160.119 319.261 184.101 326.339 203.208C328.71 209.604 331.402 216.369 330.173 223.328C328.672 231.836 321.616 238.21 314.282 241.681C300.911 248.009 285.116 246.998 273.156 239.026C262.835 232.145 255.569 220.711 245.048 214.158C227.439 203.196 204.579 208.094 184.982 216.463C171.117 222.384 155.929 230.009 142.417 224.542C132.909 220.695 126.507 210.902 123.139 200.434C121.512 195.38 120.374 189.894 117.134 185.937C115.207 183.585 112.661 181.946 110.043 180.577C86.1511 168.066 55.4188 175.885 32.2554 161.926C16.6172 152.5 6.88395 134.206 2.8399 114.974C-1.20415 95.7423 -0.203304 75.4407 1.40743 55.4863C2.55215 41.3055 4.36306 26.1521 12.889 15.0083C21.906 3.22643 37.0188 -1.45566 50.5334 0.389654C64.048 2.23497 76.1645 9.74132 86.7641 18.702C100.022 29.8802 112.22 43.914 128.709 48.1582C139.94 51.0482 151.872 49.0027 163.548 48.0988C183.064 46.5913 202.512 48.3271 221.841 50.2882C240.344 52.1647 258.975 54.2603 276.5 60.4123C288.901 64.766 298.731 72.9949 310.407 78.6184C318.016 82.284 326.389 83.1347 333.551 87.87C342.39 93.703 350.378 104.037 347.785 116.438C345.336 128.226 333.97 134.4 327.465 143.317Z" fill="#6C63FF"/>
<g opacity="0.5">
<path opacity="0.5" d="M267.411 219.951C267.411 219.951 268.443 189.375 284.985 172.098C291.928 164.848 296.488 155.64 297.696 145.676C298.26 140.946 298.39 136.176 298.083 131.423" stroke="#535461" stroke-width="2" stroke-miterlimit="10"/>
<path opacity="0.5" d="M308.446 120.479C307.313 123.895 297.849 131.739 297.849 131.739C297.849 131.739 294.95 119.788 296.082 116.376C296.351 115.564 296.778 114.813 297.337 114.166C297.896 113.519 298.578 112.989 299.342 112.605C300.107 112.221 300.939 111.992 301.792 111.93C302.645 111.868 303.502 111.975 304.314 112.244C305.126 112.513 305.877 112.94 306.523 113.499C307.17 114.059 307.701 114.74 308.085 115.504C308.468 116.269 308.698 117.101 308.759 117.954C308.821 118.807 308.715 119.664 308.446 120.476V120.479Z" fill="#6C63FF"/>
<path opacity="0.5" d="M312.389 142.779C309.575 145.031 297.377 146.476 297.377 146.476C297.377 146.476 301.443 134.869 304.258 132.621C304.92 132.044 305.691 131.608 306.526 131.337C307.361 131.067 308.242 130.968 309.117 131.047C309.991 131.125 310.84 131.38 311.613 131.795C312.387 132.21 313.068 132.778 313.616 133.463C314.165 134.148 314.569 134.937 314.805 135.783C315.041 136.628 315.103 137.512 314.989 138.383C314.874 139.253 314.585 140.091 314.138 140.846C313.691 141.602 313.097 142.259 312.389 142.779Z" fill="#6C63FF"/>
<path opacity="0.5" d="M301.23 174.944C297.671 175.47 286.402 170.566 286.402 170.566C286.402 170.566 295.766 162.596 299.325 162.071C300.171 161.946 301.034 161.989 301.863 162.197C302.693 162.405 303.473 162.775 304.16 163.285C304.847 163.795 305.426 164.435 305.866 165.168C306.305 165.902 306.596 166.715 306.721 167.562C306.846 168.408 306.803 169.27 306.595 170.1C306.386 170.929 306.017 171.71 305.507 172.396C304.997 173.083 304.357 173.663 303.623 174.102C302.889 174.541 302.076 174.832 301.23 174.957V174.944Z" fill="#6C63FF"/>
<path opacity="0.5" d="M287.303 197.382C283.884 198.502 271.946 195.562 271.946 195.562C271.946 195.562 279.831 186.126 283.249 185.006C284.891 184.467 286.679 184.602 288.22 185.381C289.762 186.16 290.931 187.52 291.47 189.161C292.01 190.802 291.875 192.59 291.095 194.132C290.316 195.674 288.956 196.843 287.315 197.382H287.303Z" fill="#6C63FF"/>
<path opacity="0.5" d="M284.175 142.832C285.836 146.022 296.439 152.268 296.439 152.268C296.439 152.268 297.402 140.011 295.741 136.818C295.346 136.059 294.806 135.386 294.151 134.836C293.496 134.286 292.739 133.871 291.924 133.613C291.108 133.356 290.25 133.262 289.398 133.336C288.546 133.411 287.717 133.652 286.959 134.047C286.2 134.441 285.527 134.982 284.977 135.637C284.427 136.292 284.012 137.048 283.754 137.864C283.497 138.679 283.403 139.538 283.477 140.39C283.551 141.242 283.793 142.07 284.188 142.829L284.175 142.832Z" fill="#6C63FF"/>
<path opacity="0.5" d="M268.221 169.277C270.761 171.826 282.733 174.616 282.733 174.616C282.733 174.616 279.984 162.631 277.448 160.082C276.229 158.858 274.574 158.169 272.846 158.166C271.119 158.163 269.462 158.846 268.238 160.065C267.015 161.284 266.326 162.939 266.322 164.666C266.319 166.393 267.002 168.051 268.221 169.274V169.277Z" fill="#6C63FF"/>
<path opacity="0.5" d="M256.242 197.11C258.312 200.05 269.644 204.826 269.644 204.826C269.644 204.826 268.962 192.55 266.888 189.607C266.409 188.877 265.787 188.252 265.06 187.767C264.334 187.283 263.517 186.949 262.659 186.787C261.802 186.624 260.92 186.636 260.066 186.821C259.213 187.006 258.405 187.361 257.692 187.865C256.979 188.368 256.374 189.01 255.914 189.752C255.453 190.494 255.147 191.321 255.013 192.184C254.879 193.047 254.919 193.928 255.133 194.775C255.346 195.622 255.727 196.417 256.254 197.113L256.242 197.11Z" fill="#6C63FF"/>
<path opacity="0.5" d="M271.045 207.296C271.045 207.296 261.662 193.647 263.307 180.805C264.032 175.423 262.992 169.951 260.342 165.21C259.067 162.97 257.588 160.851 255.926 158.88" stroke="#535461" stroke-width="2" stroke-miterlimit="10"/>
<path opacity="0.5" d="M256.918 150.78C257.521 152.632 255.926 159.094 255.926 159.094C255.926 159.094 250.819 154.821 250.215 152.973C249.925 152.084 249.999 151.116 250.423 150.282C250.846 149.449 251.583 148.817 252.472 148.527C253.36 148.236 254.328 148.311 255.162 148.734C255.996 149.157 256.627 149.895 256.918 150.783V150.78Z" fill="#6C63FF"/>
<path opacity="0.5" d="M265.809 159.222C265.312 161.098 260.458 165.662 260.458 165.662C260.458 165.662 258.494 159.3 258.991 157.417C259.23 156.513 259.819 155.741 260.628 155.271C261.436 154.801 262.398 154.671 263.303 154.91C264.207 155.15 264.979 155.738 265.449 156.547C265.919 157.355 266.049 158.318 265.809 159.222Z" fill="#6C63FF"/>
<path opacity="0.5" d="M271.295 176.817C269.916 178.19 263.426 179.676 263.426 179.676C263.426 179.676 264.94 173.192 266.322 171.819C266.651 171.493 267.04 171.234 267.469 171.058C267.898 170.882 268.357 170.793 268.82 170.794C269.283 170.795 269.741 170.888 270.169 171.067C270.596 171.245 270.984 171.506 271.311 171.835C271.637 172.164 271.896 172.553 272.072 172.982C272.248 173.41 272.338 173.869 272.336 174.332C272.335 174.796 272.242 175.254 272.063 175.682C271.885 176.109 271.624 176.497 271.295 176.824V176.817Z" fill="#6C63FF"/>
<path opacity="0.5" d="M272.45 191.07C271.32 192.655 265.162 195.211 265.162 195.211C265.162 195.211 265.559 188.564 266.688 186.979C266.957 186.601 267.297 186.28 267.689 186.034C268.081 185.788 268.518 185.622 268.974 185.545C269.431 185.467 269.898 185.481 270.35 185.584C270.801 185.687 271.228 185.879 271.605 186.147C271.983 186.415 272.303 186.755 272.55 187.147C272.796 187.539 272.962 187.976 273.039 188.433C273.117 188.889 273.103 189.357 273 189.808C272.896 190.259 272.705 190.686 272.437 191.063L272.45 191.07Z" fill="#6C63FF"/>
<path opacity="0.5" d="M253.54 168.314C255.288 169.171 261.909 168.483 261.909 168.483C261.909 168.483 258.384 162.834 256.636 161.98C255.796 161.57 254.828 161.51 253.943 161.813C253.059 162.117 252.332 162.759 251.921 163.599C251.511 164.439 251.45 165.407 251.754 166.292C252.058 167.176 252.7 167.903 253.54 168.314Z" fill="#6C63FF"/>
<path opacity="0.5" d="M255.1 184.968C257.027 185.262 263.139 182.625 263.139 182.625C263.139 182.625 258.084 178.29 256.161 178.009C255.236 177.868 254.294 178.101 253.541 178.655C252.788 179.209 252.285 180.04 252.145 180.964C252.004 181.889 252.237 182.831 252.791 183.585C253.345 184.338 254.176 184.84 255.1 184.98V184.968Z" fill="#6C63FF"/>
<path opacity="0.5" d="M258.835 200.942C260.683 201.567 267.154 200.003 267.154 200.003C267.154 200.003 262.907 194.877 261.059 194.261C260.171 193.966 259.203 194.036 258.366 194.455C257.53 194.874 256.895 195.608 256.6 196.496C256.305 197.383 256.375 198.352 256.794 199.188C257.213 200.024 257.947 200.659 258.835 200.954V200.942Z" fill="#6C63FF"/>
<path opacity="0.5" d="M256.918 150.78C257.521 152.632 255.926 159.094 255.926 159.094C255.926 159.094 250.819 154.821 250.215 152.973C249.925 152.084 249.999 151.116 250.423 150.282C250.846 149.449 251.583 148.817 252.472 148.527C253.36 148.236 254.328 148.311 255.162 148.734C255.996 149.157 256.627 149.895 256.918 150.783V150.78Z" fill="white"/>
<path opacity="0.5" d="M265.809 159.222C265.312 161.098 260.458 165.662 260.458 165.662C260.458 165.662 258.494 159.3 258.991 157.417C259.23 156.513 259.819 155.741 260.628 155.271C261.436 154.801 262.398 154.671 263.303 154.91C264.207 155.15 264.979 155.738 265.449 156.547C265.919 157.355 266.049 158.318 265.809 159.222Z" fill="white"/>
<path opacity="0.5" d="M271.295 176.817C269.916 178.19 263.426 179.676 263.426 179.676C263.426 179.676 264.94 173.192 266.322 171.819C266.651 171.493 267.04 171.234 267.469 171.058C267.898 170.882 268.357 170.793 268.82 170.794C269.283 170.795 269.741 170.888 270.169 171.067C270.596 171.245 270.984 171.506 271.311 171.835C271.637 172.164 271.896 172.553 272.072 172.982C272.248 173.41 272.338 173.869 272.336 174.332C272.335 174.796 272.242 175.254 272.063 175.682C271.885 176.109 271.624 176.497 271.295 176.824V176.817Z" fill="white"/>
<path opacity="0.5" d="M272.45 191.07C271.32 192.655 265.162 195.211 265.162 195.211C265.162 195.211 265.559 188.564 266.688 186.979C266.957 186.601 267.297 186.28 267.689 186.034C268.081 185.788 268.518 185.622 268.974 185.545C269.431 185.467 269.898 185.481 270.35 185.584C270.801 185.687 271.228 185.879 271.605 186.147C271.983 186.415 272.303 186.755 272.55 187.147C272.796 187.539 272.962 187.976 273.039 188.433C273.117 188.889 273.103 189.357 273 189.808C272.896 190.259 272.705 190.686 272.437 191.063L272.45 191.07Z" fill="white"/>
<path opacity="0.5" d="M253.54 168.314C255.288 169.171 261.909 168.483 261.909 168.483C261.909 168.483 258.384 162.834 256.636 161.98C255.796 161.57 254.828 161.51 253.943 161.813C253.059 162.117 252.332 162.759 251.921 163.599C251.511 164.439 251.45 165.407 251.754 166.292C252.058 167.176 252.7 167.903 253.54 168.314Z" fill="white"/>
<path opacity="0.5" d="M255.1 184.968C257.027 185.262 263.139 182.625 263.139 182.625C263.139 182.625 258.084 178.29 256.161 178.009C255.236 177.868 254.294 178.101 253.541 178.655C252.788 179.209 252.285 180.04 252.145 180.964C252.004 181.889 252.237 182.831 252.791 183.585C253.345 184.338 254.176 184.84 255.1 184.98V184.968Z" fill="white"/>
<path opacity="0.5" d="M258.835 200.942C260.683 201.567 267.154 200.003 267.154 200.003C267.154 200.003 262.907 194.877 261.059 194.261C260.171 193.966 259.203 194.036 258.366 194.455C257.53 194.874 256.895 195.608 256.6 196.496C256.305 197.383 256.375 198.352 256.794 199.188C257.213 200.024 257.947 200.659 258.835 200.954V200.942Z" fill="white"/>
<path opacity="0.5" d="M253.683 244.306H280.372L287.046 203.605H247.012L253.683 244.306Z" fill="#474059"/>
<path opacity="0.1" d="M252.12 203.605L258.353 241.638H280.81L280.372 244.306H253.683L247.012 203.605H252.12Z" fill="black"/>
</g>
<path d="M258.744 12.29H62.9534V248.521H258.744V12.29Z" fill="url(#paint0_linear)"/>
<path d="M256.242 15.3115H65.4556V245.506H256.242V15.3115Z" fill="white"/>
<path d="M216.521 41.2715H139.581V45.0247H216.521V41.2715Z" fill="#C0BCCF"/>
<path d="M216.521 53.1562H139.581V56.9094H216.521V53.1562Z" fill="#C0BCCF"/>
<path d="M198.068 65.041H158.034V68.7942H198.068V65.041Z" fill="#6C63FF"/>
<path opacity="0.5" d="M216.521 116.647H139.581V120.401H216.521V116.647Z" fill="#C0BCCF"/>
<path opacity="0.5" d="M216.521 128.533H139.581V132.286H216.521V128.533Z" fill="#C0BCCF"/>
<path opacity="0.5" d="M198.068 140.418H158.034V144.171H198.068V140.418Z" fill="#6C63FF"/>
<path opacity="0.5" d="M216.521 192.024H139.581V195.778H216.521V192.024Z" fill="#C0BCCF"/>
<path opacity="0.5" d="M216.521 203.909H139.581V207.662H216.521V203.909Z" fill="#C0BCCF"/>
<path opacity="0.5" d="M198.068 215.794H158.034V219.547H198.068V215.794Z" fill="#6C63FF"/>
<g opacity="0.5">
<path opacity="0.5" d="M112.492 137.581L110.878 136.855C110.903 136.61 110.913 136.363 110.909 136.117C110.921 135.908 110.921 135.7 110.909 135.491C110.75 133.846 109.702 132.414 108.961 130.909C108.282 129.536 107.851 128.054 107.688 126.531C107.491 124.654 107.688 122.709 107 120.945C106.44 119.521 105.333 118.333 104.147 117.282C102.817 116.033 101.262 115.048 99.5654 114.377C97.8327 113.751 95.8403 113.591 94.1076 114.23C92.5438 114.805 91.3397 115.953 90.1762 117.069C89.3313 117.814 88.5851 118.663 87.9556 119.597C87.2456 120.76 86.9422 122.099 86.7045 123.419C86.331 125.532 86.0742 127.664 85.9351 129.805C85.8131 131.591 85.6223 133.618 84.096 134.712C83.3516 135.247 82.3039 135.548 81.963 136.358C81.8664 136.601 81.8278 136.863 81.8504 137.124C81.841 137.341 81.8567 137.558 81.8973 137.771C81.9192 137.896 81.9442 138.018 81.9755 138.144C81.5374 139.232 81.1697 140.348 80.8746 141.484C80.6462 142.328 80.4367 143.157 80.249 143.961H80.7557H81.0247L83.9396 144.03H83.9803L87.108 144.102H87.1236L90.0386 144.17H90.1105L90.9518 144.23H91.2271L102.884 144.499H102.946L103.722 144.518H103.994L106.327 144.571L109.768 144.649H109.793L112.382 144.712H112.658H113.189L113.052 141.997C113.621 137.84 112.492 137.581 112.492 137.581ZM99.3965 137.249C99.3965 139.551 96.9319 142.369 96.9319 142.369L94.4517 138.991L94.5424 138.86L96.9319 142.112C96.9319 142.112 99.3965 139.298 99.3965 136.993C99.4539 136.875 99.5198 136.762 99.5935 136.655L99.6498 136.83C99.5552 136.963 99.4705 137.103 99.3965 137.249ZM103.187 146.282C103.187 146.166 103.187 146.047 103.165 145.931C103.143 145.816 103.147 145.712 103.131 145.6C103.115 145.487 103.103 145.378 103.087 145.265C103.071 145.153 103.05 145.043 103.028 144.93C103.006 144.818 102.984 144.708 102.959 144.596C102.959 144.558 102.943 144.524 102.934 144.483C102.899 144.336 102.862 144.189 102.821 144.042C102.781 143.895 102.756 143.805 102.718 143.689C102.718 143.636 102.687 143.582 102.668 143.532C102.649 143.482 102.615 143.364 102.587 143.279L102.53 143.116C102.505 143.045 102.48 142.969 102.452 142.898C102.405 142.766 102.355 142.638 102.305 142.507C102.255 142.375 102.202 142.247 102.149 142.119C102.042 141.856 101.927 141.596 101.811 141.334C101.358 140.32 100.848 139.323 100.379 138.334C100.127 137.817 99.9036 137.287 99.7093 136.745L99.6498 136.824C99.555 136.958 99.4704 137.099 99.3965 137.246C99.3965 139.548 96.9319 142.366 96.9319 142.366L94.4517 138.988L92.2811 142.116C91.9683 142.272 91.6556 142.804 91.4116 143.561C91.3428 143.764 91.2771 143.989 91.2146 144.224C91.1708 144.383 91.1301 144.536 91.0926 144.715C91.0707 144.799 91.0519 144.884 91.0332 144.971L90.9769 145.237V145.278C90.9393 145.459 90.9018 145.647 90.8674 145.838C90.833 146.028 90.7923 146.247 90.7579 146.463C90.7329 146.599 90.711 146.733 90.6922 146.867C90.6485 147.126 90.6109 147.389 90.5734 147.652C90.5515 147.805 90.5296 147.964 90.5108 148.105L90.4358 148.687C90.5953 149.165 90.7736 149.625 90.9581 150.107C91.0754 150.36 91.1444 150.632 91.1614 150.911C95.009 151.936 99.0581 151.936 102.906 150.911C102.904 150.901 102.904 150.892 102.906 150.882C102.848 150.621 102.823 150.353 102.831 150.085C102.894 149.333 102.998 148.586 103.143 147.845C103.19 147.48 103.21 147.112 103.203 146.745V146.613C103.193 146.494 103.19 146.388 103.187 146.285V146.282ZM103.187 146.282C103.187 146.166 103.187 146.047 103.165 145.931C103.143 145.816 103.147 145.712 103.131 145.6C103.115 145.487 103.103 145.378 103.087 145.265C103.071 145.153 103.05 145.043 103.028 144.93C103.006 144.818 102.984 144.708 102.959 144.596C102.959 144.558 102.943 144.524 102.934 144.483C102.899 144.336 102.862 144.189 102.821 144.042C102.781 143.895 102.756 143.805 102.718 143.689C102.718 143.636 102.687 143.582 102.668 143.532C102.649 143.482 102.615 143.364 102.587 143.279L102.53 143.116C102.505 143.045 102.48 142.969 102.452 142.898C102.405 142.766 102.355 142.638 102.305 142.507C102.255 142.375 102.202 142.247 102.149 142.119C102.042 141.856 101.927 141.596 101.811 141.334C101.358 140.32 100.848 139.323 100.379 138.334C100.127 137.817 99.9036 137.287 99.7093 136.745L99.6498 136.824C99.555 136.958 99.4704 137.099 99.3965 137.246C99.3965 139.548 96.9319 142.366 96.9319 142.366L94.4517 138.988L92.2811 142.116C91.9683 142.272 91.6556 142.804 91.4116 143.561C91.3428 143.764 91.2771 143.989 91.2146 144.224C91.1708 144.383 91.1301 144.536 91.0926 144.715C91.0707 144.799 91.0519 144.884 91.0332 144.971L90.9769 145.237V145.278C90.9393 145.459 90.9018 145.647 90.8674 145.838C90.833 146.028 90.7923 146.247 90.7579 146.463C90.7329 146.599 90.711 146.733 90.6922 146.867C90.6485 147.126 90.6109 147.389 90.5734 147.652C90.5515 147.805 90.5296 147.964 90.5108 148.105L90.4358 148.687C90.5953 149.165 90.7736 149.625 90.9581 150.107C91.0754 150.36 91.1444 150.632 91.1614 150.911C95.009 151.936 99.0581 151.936 102.906 150.911C102.904 150.901 102.904 150.892 102.906 150.882C102.848 150.621 102.823 150.353 102.831 150.085C102.894 149.333 102.998 148.586 103.143 147.845C103.19 147.48 103.21 147.112 103.203 146.745V146.613C103.193 146.494 103.19 146.388 103.187 146.285V146.282ZM103.187 146.282C103.187 146.166 103.187 146.047 103.165 145.931C103.143 145.816 103.147 145.712 103.131 145.6C103.115 145.487 103.103 145.378 103.087 145.265C103.071 145.153 103.05 145.043 103.028 144.93C103.006 144.818 102.984 144.708 102.959 144.596C102.959 144.558 102.943 144.524 102.934 144.483C102.899 144.336 102.862 144.189 102.821 144.042C102.781 143.895 102.756 143.805 102.718 143.689C102.718 143.636 102.687 143.582 102.668 143.532C102.649 143.482 102.615 143.364 102.587 143.279L102.53 143.116C102.505 143.045 102.48 142.969 102.452 142.898C102.405 142.766 102.355 142.638 102.305 142.507C102.255 142.375 102.202 142.247 102.149 142.119C102.042 141.856 101.927 141.596 101.811 141.334C101.358 140.32 100.848 139.323 100.379 138.334C100.127 137.817 99.9036 137.287 99.7093 136.745L99.6498 136.824C99.555 136.958 99.4704 137.099 99.3965 137.246C99.3965 139.548 96.9319 142.366 96.9319 142.366L94.4517 138.988L92.2811 142.116C91.9683 142.272 91.6556 142.804 91.4116 143.561C91.3428 143.764 91.2771 143.989 91.2146 144.224C91.1708 144.383 91.1301 144.536 91.0926 144.715C91.0707 144.799 91.0519 144.884 91.0332 144.971L90.9769 145.237V145.278C90.9393 145.459 90.9018 145.647 90.8674 145.838C90.833 146.028 90.7923 146.247 90.7579 146.463C90.7329 146.599 90.711 146.733 90.6922 146.867C90.6485 147.126 90.6109 147.389 90.5734 147.652C90.5515 147.805 90.5296 147.964 90.5108 148.105L90.4358 148.687C90.5953 149.165 90.7736 149.625 90.9581 150.107C91.0754 150.36 91.1444 150.632 91.1614 150.911C95.009 151.936 99.0581 151.936 102.906 150.911C102.904 150.901 102.904 150.892 102.906 150.882C102.848 150.621 102.823 150.353 102.831 150.085C102.894 149.333 102.998 148.586 103.143 147.845C103.19 147.48 103.21 147.112 103.203 146.745V146.613C103.193 146.494 103.19 146.388 103.187 146.285V146.282ZM103.187 146.282C103.187 146.166 103.187 146.047 103.165 145.931C103.143 145.816 103.147 145.712 103.131 145.6C103.115 145.487 103.103 145.378 103.087 145.265C103.071 145.153 103.05 145.043 103.028 144.93C103.006 144.818 102.984 144.708 102.959 144.596C102.959 144.558 102.943 144.524 102.934 144.483C102.899 144.336 102.862 144.189 102.821 144.042C102.781 143.895 102.756 143.805 102.718 143.689C102.718 143.636 102.687 143.582 102.668 143.532C102.649 143.482 102.615 143.364 102.587 143.279L102.53 143.116C102.505 143.045 102.48 142.969 102.452 142.898C102.405 142.766 102.355 142.638 102.305 142.507C102.255 142.375 102.202 142.247 102.149 142.119C102.042 141.856 101.927 141.596 101.811 141.334C101.358 140.32 100.848 139.323 100.379 138.334C100.127 137.817 99.9036 137.287 99.7093 136.745L99.6498 136.824C99.555 136.958 99.4704 137.099 99.3965 137.246C99.3965 139.548 96.9319 142.366 96.9319 142.366L94.4517 138.988L92.2811 142.116C91.9683 142.272 91.6556 142.804 91.4116 143.561C91.3428 143.764 91.2771 143.989 91.2146 144.224C91.1708 144.383 91.1301 144.536 91.0926 144.715C91.0707 144.799 91.0519 144.884 91.0332 144.971L90.9769 145.237V145.278C90.9393 145.459 90.9018 145.647 90.8674 145.838C90.833 146.028 90.7923 146.247 90.7579 146.463C90.7329 146.599 90.711 146.733 90.6922 146.867C90.6485 147.126 90.6109 147.389 90.5734 147.652C90.5515 147.805 90.5296 147.964 90.5108 148.105L90.4358 148.687C90.5953 149.165 90.7736 149.625 90.9581 150.107C91.0754 150.36 91.1444 150.632 91.1614 150.911C95.009 151.936 99.0581 151.936 102.906 150.911C102.904 150.901 102.904 150.892 102.906 150.882C102.848 150.621 102.823 150.353 102.831 150.085C102.894 149.333 102.998 148.586 103.143 147.845C103.19 147.48 103.21 147.112 103.203 146.745V146.613C103.193 146.494 103.19 146.388 103.187 146.285V146.282Z" fill="url(#paint1_linear)"/>
<path opacity="0.5" d="M103.3 124.467H88.9128V134.163H103.3V124.467Z" fill="#493545"/>
<path opacity="0.5" d="M105.69 135.16L99.6688 143.642L93.376 143.095C93.376 143.095 85.1659 143.639 90.6393 137.35C93.2696 134.325 94.1297 131.804 94.3143 130.006C94.5144 128.06 93.9233 126.953 93.9233 126.953L100.763 126.134C100.455 127.055 100.416 128.046 100.651 128.989C101.508 132.542 105.69 135.16 105.69 135.16Z" fill="#C77485"/>
<path opacity="0.1" d="M100.648 128.979C99.7556 129.655 98.7113 130.101 97.6065 130.279C96.5017 130.457 95.3701 130.361 94.3111 129.999C94.5113 128.054 93.9202 126.946 93.9202 126.946L100.76 126.127C100.452 127.048 100.413 128.037 100.648 128.979Z" fill="black"/>
<path opacity="0.5" d="M96.5223 130.093C100.3 130.093 103.362 127.031 103.362 123.253C103.362 119.476 100.3 116.413 96.5223 116.413C92.7446 116.413 89.6821 119.476 89.6821 123.253C89.6821 127.031 92.7446 130.093 96.5223 130.093Z" fill="#C77485"/>
<path opacity="0.1" d="M105.439 135.511L105.28 134.885L105.142 134.335L104.939 133.521L104.901 133.371L104.87 133.246C104.87 133.246 105.033 132.755 103.96 132.915L103.76 132.949C103.591 132.983 103.394 133.03 103.169 133.093L102.965 133.156L102.696 133.24C101.845 133.517 101.068 133.986 100.426 134.61C100.137 134.886 99.8822 135.194 99.6656 135.529C99.6437 135.561 99.6281 135.589 99.6093 135.614C99.5352 135.73 99.4694 135.851 99.4123 135.977C99.4123 138.441 96.9477 141.45 96.9477 141.45L94.5425 137.975L94.4956 137.906L93.9232 137.074L93.7199 136.805L93.6511 136.712L92.4001 135.032L92.0873 134.613L91.9841 134.472L91.8308 134.269L91.4712 133.79L90.0637 134.613L88.1871 135.708L87.0925 142.823V143.02L87.1269 143.608L87.3552 147.474V147.527L86.9548 149.128L87.0143 149.16C87.9589 149.669 88.9419 150.104 89.9542 150.461L90.2201 150.555C90.5329 150.658 90.8269 150.752 91.1334 150.842C91.1447 150.889 91.1531 150.936 91.1584 150.983C91.1584 150.939 91.1584 150.892 91.1584 150.849C94.9963 151.945 99.0648 151.945 102.903 150.849L102.975 150.827C103.153 150.777 103.334 150.724 103.509 150.664L103.794 150.573C104.566 150.315 105.322 150.012 106.059 149.666L106.321 144.068L106.509 140.03V139.799L105.439 135.511Z" fill="black"/>
<path opacity="0.5" d="M103.187 145.909C103.187 145.784 103.187 145.659 103.165 145.534C103.144 145.409 103.147 145.299 103.131 145.18C103.115 145.062 103.103 144.943 103.087 144.824C103.072 144.705 103.05 144.586 103.028 144.467C103.006 144.349 102.984 144.23 102.959 144.111C102.959 144.07 102.943 144.033 102.934 143.992C102.9 143.836 102.862 143.679 102.821 143.52C102.781 143.36 102.756 143.266 102.718 143.141C102.718 143.085 102.687 143.029 102.668 142.975C102.649 142.922 102.615 142.794 102.587 142.703L102.531 142.528C102.506 142.45 102.481 142.372 102.452 142.294C102.405 142.153 102.355 142.015 102.305 141.875C102.255 141.734 102.202 141.596 102.149 141.459C102.043 141.177 101.927 140.899 101.811 140.62C101.358 139.538 100.848 138.472 100.379 137.415C100.127 136.86 99.9032 136.293 99.7094 135.716L99.65 135.801C99.5549 135.945 99.4702 136.095 99.3967 136.251C99.3967 138.712 96.9321 141.724 96.9321 141.724L94.4518 138.112L92.2813 141.449C91.9685 141.615 91.6557 142.184 91.4118 142.994C91.343 143.213 91.2773 143.451 91.2147 143.704C91.1709 143.873 91.1303 144.051 91.0928 144.23C91.0709 144.32 91.0521 144.411 91.0333 144.505L90.977 144.79V144.833C90.9395 145.027 90.902 145.227 90.8676 145.431C90.8332 145.634 90.7925 145.869 90.7581 146.091C90.7331 146.235 90.7112 146.378 90.6924 146.522C90.6486 146.801 90.6111 147.082 90.5736 147.36C90.5517 147.523 90.5298 147.673 90.511 147.845L90.4359 148.471C90.5955 148.984 90.7737 149.49 90.9583 149.988C91.0761 150.26 91.145 150.551 91.1616 150.848C94.9995 151.945 99.0679 151.945 102.906 150.848C102.905 150.837 102.905 150.827 102.906 150.817C102.848 150.536 102.823 150.249 102.831 149.963C102.894 149.16 102.998 148.362 103.144 147.57C103.19 147.18 103.21 146.787 103.203 146.394V146.253C103.194 146.134 103.19 146.022 103.187 145.909ZM103.187 145.909C103.187 145.784 103.187 145.659 103.165 145.534C103.144 145.409 103.147 145.299 103.131 145.18C103.115 145.062 103.103 144.943 103.087 144.824C103.072 144.705 103.05 144.586 103.028 144.467C103.006 144.349 102.984 144.23 102.959 144.111C102.959 144.07 102.943 144.033 102.934 143.992C102.9 143.836 102.862 143.679 102.821 143.52C102.781 143.36 102.756 143.266 102.718 143.141C102.718 143.085 102.687 143.029 102.668 142.975C102.649 142.922 102.615 142.794 102.587 142.703L102.531 142.528C102.506 142.45 102.481 142.372 102.452 142.294C102.405 142.153 102.355 142.015 102.305 141.875C102.255 141.734 102.202 141.596 102.149 141.459C102.043 141.177 101.927 140.899 101.811 140.62C101.358 139.538 100.848 138.472 100.379 137.415C100.127 136.86 99.9032 136.293 99.7094 135.716L99.65 135.801C99.5549 135.945 99.4702 136.095 99.3967 136.251C99.3967 138.712 96.9321 141.724 96.9321 141.724L94.4518 138.112L92.2813 141.449C91.9685 141.615 91.6557 142.184 91.4118 142.994C91.343 143.213 91.2773 143.451 91.2147 143.704C91.1709 143.873 91.1303 144.051 91.0928 144.23C91.0709 144.32 91.0521 144.411 91.0333 144.505L90.977 144.79V144.833C90.9395 145.027 90.902 145.227 90.8676 145.431C90.8332 145.634 90.7925 145.869 90.7581 146.091C90.7331 146.235 90.7112 146.378 90.6924 146.522C90.6486 146.801 90.6111 147.082 90.5736 147.36C90.5517 147.523 90.5298 147.673 90.511 147.845L90.4359 148.471C90.5955 148.984 90.7737 149.49 90.9583 149.988C91.0761 150.26 91.145 150.551 91.1616 150.848C94.9995 151.945 99.0679 151.945 102.906 150.848C102.905 150.837 102.905 150.827 102.906 150.817C102.848 150.536 102.823 150.249 102.831 149.963C102.894 149.16 102.998 148.362 103.144 147.57C103.19 147.18 103.21 146.787 103.203 146.394V146.253C103.194 146.134 103.19 146.022 103.187 145.909ZM103.187 145.909C103.187 145.784 103.187 145.659 103.165 145.534C103.144 145.409 103.147 145.299 103.131 145.18C103.115 145.062 103.103 144.943 103.087 144.824C103.072 144.705 103.05 144.586 103.028 144.467C103.006 144.349 102.984 144.23 102.959 144.111C102.959 144.07 102.943 144.033 102.934 143.992C102.9 143.836 102.862 143.679 102.821 143.52C102.781 143.36 102.756 143.266 102.718 143.141C102.718 143.085 102.687 143.029 102.668 142.975C102.649 142.922 102.615 142.794 102.587 142.703L102.531 142.528C102.506 142.45 102.481 142.372 102.452 142.294C102.405 142.153 102.355 142.015 102.305 141.875C102.255 141.734 102.202 141.596 102.149 141.459C102.043 141.177 101.927 140.899 101.811 140.62C101.358 139.538 100.848 138.472 100.379 137.415C100.127 136.86 99.9032 136.293 99.7094 135.716L99.65 135.801C99.5549 135.945 99.4702 136.095 99.3967 136.251C99.3967 138.712 96.9321 141.724 96.9321 141.724L94.4518 138.112L92.2813 141.449C91.9685 141.615 91.6557 142.184 91.4118 142.994C91.343 143.213 91.2773 143.451 91.2147 143.704C91.1709 143.873 91.1303 144.051 91.0928 144.23C91.0709 144.32 91.0521 144.411 91.0333 144.505L90.977 144.79V144.833C90.9395 145.027 90.902 145.227 90.8676 145.431C90.8332 145.634 90.7925 145.869 90.7581 146.091C90.7331 146.235 90.7112 146.378 90.6924 146.522C90.6486 146.801 90.6111 147.082 90.5736 147.36C90.5517 147.523 90.5298 147.673 90.511 147.845L90.4359 148.471C90.5955 148.984 90.7737 149.49 90.9583 149.988C91.0761 150.26 91.145 150.551 91.1616 150.848C94.9995 151.945 99.0679 151.945 102.906 150.848C102.905 150.837 102.905 150.827 102.906 150.817C102.848 150.536 102.823 150.249 102.831 149.963C102.894 149.16 102.998 148.362 103.144 147.57C103.19 147.18 103.21 146.787 103.203 146.394V146.253C103.194 146.134 103.19 146.022 103.187 145.909ZM106.503 140.039L105.386 135.582L105.195 134.819L105.142 134.609L104.87 133.521C104.871 133.511 104.871 133.502 104.87 133.492C104.877 133.444 104.869 133.396 104.848 133.352C104.807 133.27 104.704 133.186 104.463 133.164C104.372 133.158 104.28 133.158 104.188 133.164C103.916 133.191 103.648 133.241 103.384 133.314C103.256 133.349 103.119 133.386 102.972 133.433L102.703 133.517H102.678C101.957 133.754 101.288 134.125 100.707 134.612C100.323 134.932 99.9862 135.305 99.7063 135.719L99.6469 135.804C99.5518 135.948 99.4671 136.098 99.3935 136.254C99.3935 138.716 96.9289 141.728 96.9289 141.728L94.4487 138.115L94.308 137.912L94.283 137.877L93.9233 137.349L93.6512 136.986L93.5792 136.892L92.2969 135.181L91.8903 134.628V134.609L91.7496 134.418L91.4806 134.062L90.5423 134.609L88.1965 135.976L87.1144 143.016V143.091L87.1457 143.604L87.3771 147.523V147.745L87.0237 149.156C87.9683 149.665 88.9513 150.1 89.9637 150.457L90.2295 150.551C90.5423 150.654 90.8363 150.748 91.1428 150.838C91.1542 150.885 91.1625 150.932 91.1678 150.979C91.1678 150.935 91.1678 150.888 91.1678 150.845C95.0058 151.941 99.0742 151.941 102.912 150.845L102.984 150.823C103.162 150.773 103.344 150.72 103.519 150.66L103.804 150.569C104.575 150.311 105.331 150.008 106.068 149.662L106.328 144.07L106.515 140.076L106.503 140.039ZM91.1209 150.838C91.1323 150.885 91.1406 150.932 91.1459 150.979C91.1459 150.935 91.1459 150.888 91.1459 150.845L91.1209 150.838ZM103.187 145.909C103.187 145.784 103.187 145.659 103.165 145.534C103.144 145.409 103.147 145.299 103.131 145.18C103.115 145.062 103.103 144.943 103.087 144.824C103.072 144.705 103.05 144.586 103.028 144.467C103.006 144.349 102.984 144.23 102.959 144.111C102.959 144.07 102.943 144.033 102.934 143.992C102.9 143.836 102.862 143.679 102.821 143.52C102.781 143.36 102.756 143.266 102.718 143.141C102.718 143.085 102.687 143.029 102.668 142.975C102.649 142.922 102.615 142.794 102.587 142.703L102.531 142.528C102.506 142.45 102.481 142.372 102.452 142.294C102.405 142.153 102.355 142.015 102.305 141.875C102.255 141.734 102.202 141.596 102.149 141.459C102.043 141.177 101.927 140.899 101.811 140.62C101.358 139.538 100.848 138.472 100.379 137.415C100.127 136.86 99.9032 136.293 99.7094 135.716L99.65 135.801C99.5549 135.945 99.4702 136.095 99.3967 136.251C99.3967 138.712 96.9321 141.724 96.9321 141.724L94.4518 138.112L92.2813 141.449C91.9685 141.615 91.6557 142.184 91.4118 142.994C91.343 143.213 91.2773 143.451 91.2147 143.704C91.1709 143.873 91.1303 144.051 91.0928 144.23C91.0709 144.32 91.0521 144.411 91.0333 144.505L90.977 144.79V144.833C90.9395 145.027 90.902 145.227 90.8676 145.431C90.8332 145.634 90.7925 145.869 90.7581 146.091C90.7331 146.235 90.7112 146.378 90.6924 146.522C90.6486 146.801 90.6111 147.082 90.5736 147.36C90.5517 147.523 90.5298 147.673 90.511 147.845L90.4359 148.471C90.5955 148.984 90.7737 149.49 90.9583 149.988C91.0761 150.26 91.145 150.551 91.1616 150.848C94.9995 151.945 99.0679 151.945 102.906 150.848C102.905 150.837 102.905 150.827 102.906 150.817C102.848 150.536 102.823 150.249 102.831 149.963C102.894 149.16 102.998 148.362 103.144 147.57C103.19 147.18 103.21 146.787 103.203 146.394V146.253C103.194 146.134 103.19 146.022 103.187 145.909ZM103.187 145.909C103.187 145.784 103.187 145.659 103.165 145.534C103.144 145.409 103.147 145.299 103.131 145.18C103.115 145.062 103.103 144.943 103.087 144.824C103.072 144.705 103.05 144.586 103.028 144.467C103.006 144.349 102.984 144.23 102.959 144.111C102.959 144.07 102.943 144.033 102.934 143.992C102.9 143.836 102.862 143.679 102.821 143.52C102.781 143.36 102.756 143.266 102.718 143.141C102.718 143.085 102.687 143.029 102.668 142.975C102.649 142.922 102.615 142.794 102.587 142.703L102.531 142.528C102.506 142.45 102.481 142.372 102.452 142.294C102.405 142.153 102.355 142.015 102.305 141.875C102.255 141.734 102.202 141.596 102.149 141.459C102.043 141.177 101.927 140.899 101.811 140.62C101.358 139.538 100.848 138.472 100.379 137.415C100.127 136.86 99.9032 136.293 99.7094 135.716L99.65 135.801C99.5549 135.945 99.4702 136.095 99.3967 136.251C99.3967 138.712 96.9321 141.724 96.9321 141.724L94.4518 138.112L92.2813 141.449C91.9685 141.615 91.6557 142.184 91.4118 142.994C91.343 143.213 91.2773 143.451 91.2147 143.704C91.1709 143.873 91.1303 144.051 91.0928 144.23C91.0709 144.32 91.0521 144.411 91.0333 144.505L90.977 144.79V144.833C90.9395 145.027 90.902 145.227 90.8676 145.431C90.8332 145.634 90.7925 145.869 90.7581 146.091C90.7331 146.235 90.7112 146.378 90.6924 146.522C90.6486 146.801 90.6111 147.082 90.5736 147.36C90.5517 147.523 90.5298 147.673 90.511 147.845L90.4359 148.471C90.5955 148.984 90.7737 149.49 90.9583 149.988C91.0761 150.26 91.145 150.551 91.1616 150.848C94.9995 151.945 99.0679 151.945 102.906 150.848C102.905 150.837 102.905 150.827 102.906 150.817C102.848 150.536 102.823 150.249 102.831 149.963C102.894 149.16 102.998 148.362 103.144 147.57C103.19 147.18 103.21 146.787 103.203 146.394V146.253C103.194 146.134 103.19 146.022 103.187 145.909ZM103.187 145.909C103.187 145.784 103.187 145.659 103.165 145.534C103.144 145.409 103.147 145.299 103.131 145.18C103.115 145.062 103.103 144.943 103.087 144.824C103.072 144.705 103.05 144.586 103.028 144.467C103.006 144.349 102.984 144.23 102.959 144.111C102.959 144.07 102.943 144.033 102.934 143.992C102.9 143.836 102.862 143.679 102.821 143.52C102.781 143.36 102.756 143.266 102.718 143.141C102.718 143.085 102.687 143.029 102.668 142.975C102.649 142.922 102.615 142.794 102.587 142.703L102.531 142.528C102.506 142.45 102.481 142.372 102.452 142.294C102.405 142.153 102.355 142.015 102.305 141.875C102.255 141.734 102.202 141.596 102.149 141.459C102.043 141.177 101.927 140.899 101.811 140.62C101.358 139.538 100.848 138.472 100.379 137.415C100.127 136.86 99.9032 136.293 99.7094 135.716L99.65 135.801C99.5549 135.945 99.4702 136.095 99.3967 136.251C99.3967 138.712 96.9321 141.724 96.9321 141.724L94.4518 138.112L92.2813 141.449C91.9685 141.615 91.6557 142.184 91.4118 142.994C91.343 143.213 91.2773 143.451 91.2147 143.704C91.1709 143.873 91.1303 144.051 91.0928 144.23C91.0709 144.32 91.0521 144.411 91.0333 144.505L90.977 144.79V144.833C90.9395 145.027 90.902 145.227 90.8676 145.431C90.8332 145.634 90.7925 145.869 90.7581 146.091C90.7331 146.235 90.7112 146.378 90.6924 146.522C90.6486 146.801 90.6111 147.082 90.5736 147.36C90.5517 147.523 90.5298 147.673 90.511 147.845L90.4359 148.471C90.5955 148.984 90.7737 149.49 90.9583 149.988C91.0761 150.26 91.145 150.551 91.1616 150.848C94.9995 151.945 99.0679 151.945 102.906 150.848C102.905 150.837 102.905 150.827 102.906 150.817C102.848 150.536 102.823 150.249 102.831 149.963C102.894 149.16 102.998 148.362 103.144 147.57C103.19 147.18 103.21 146.787 103.203 146.394V146.253C103.194 146.134 103.19 146.022 103.187 145.909ZM103.187 145.909C103.187 145.784 103.187 145.659 103.165 145.534C103.144 145.409 103.147 145.299 103.131 145.18C103.115 145.062 103.103 144.943 103.087 144.824C103.072 144.705 103.05 144.586 103.028 144.467C103.006 144.349 102.984 144.23 102.959 144.111C102.959 144.07 102.943 144.033 102.934 143.992C102.9 143.836 102.862 143.679 102.821 143.52C102.781 143.36 102.756 143.266 102.718 143.141C102.718 143.085 102.687 143.029 102.668 142.975C102.649 142.922 102.615 142.794 102.587 142.703L102.531 142.528C102.506 142.45 102.481 142.372 102.452 142.294C102.405 142.153 102.355 142.015 102.305 141.875C102.255 141.734 102.202 141.596 102.149 141.459C102.043 141.177 101.927 140.899 101.811 140.62C101.358 139.538 100.848 138.472 100.379 137.415C100.127 136.86 99.9032 136.293 99.7094 135.716L99.65 135.801C99.5549 135.945 99.4702 136.095 99.3967 136.251C99.3967 138.712 96.9321 141.724 96.9321 141.724L94.4518 138.112L92.2813 141.449C91.9685 141.615 91.6557 142.184 91.4118 142.994C91.343 143.213 91.2773 143.451 91.2147 143.704C91.1709 143.873 91.1303 144.051 91.0928 144.23C91.0709 144.32 91.0521 144.411 91.0333 144.505L90.977 144.79V144.833C90.9395 145.027 90.902 145.227 90.8676 145.431C90.8332 145.634 90.7925 145.869 90.7581 146.091C90.7331 146.235 90.7112 146.378 90.6924 146.522C90.6486 146.801 90.6111 147.082 90.5736 147.36C90.5517 147.523 90.5298 147.673 90.511 147.845L90.4359 148.471C90.5955 148.984 90.7737 149.49 90.9583 149.988C91.0761 150.26 91.145 150.551 91.1616 150.848C94.9995 151.945 99.0679 151.945 102.906 150.848C102.905 150.837 102.905 150.827 102.906 150.817C102.848 150.536 102.823 150.249 102.831 149.963C102.894 149.16 102.998 148.362 103.144 147.57C103.19 147.18 103.21 146.787 103.203 146.394V146.253C103.194 146.134 103.19 146.022 103.187 145.909ZM103.187 145.909C103.187 145.784 103.187 145.659 103.165 145.534C103.144 145.409 103.147 145.299 103.131 145.18C103.115 145.062 103.103 144.943 103.087 144.824C103.072 144.705 103.05 144.586 103.028 144.467C103.006 144.349 102.984 144.23 102.959 144.111C102.959 144.07 102.943 144.033 102.934 143.992C102.9 143.836 102.862 143.679 102.821 143.52C102.781 143.36 102.756 143.266 102.718 143.141C102.718 143.085 102.687 143.029 102.668 142.975C102.649 142.922 102.615 142.794 102.587 142.703L102.531 142.528C102.506 142.45 102.481 142.372 102.452 142.294C102.405 142.153 102.355 142.015 102.305 141.875C102.255 141.734 102.202 141.596 102.149 141.459C102.043 141.177 101.927 140.899 101.811 140.62C101.358 139.538 100.848 138.472 100.379 137.415C100.127 136.86 99.9032 136.293 99.7094 135.716L99.65 135.801C99.5549 135.945 99.4702 136.095 99.3967 136.251C99.3967 138.712 96.9321 141.724 96.9321 141.724L94.4518 138.112L92.2813 141.449C91.9685 141.615 91.6557 142.184 91.4118 142.994C91.343 143.213 91.2773 143.451 91.2147 143.704C91.1709 143.873 91.1303 144.051 91.0928 144.23C91.0709 144.32 91.0521 144.411 91.0333 144.505L90.977 144.79V144.833C90.9395 145.027 90.902 145.227 90.8676 145.431C90.8332 145.634 90.7925 145.869 90.7581 146.091C90.7331 146.235 90.7112 146.378 90.6924 146.522C90.6486 146.801 90.6111 147.082 90.5736 147.36C90.5517 147.523 90.5298 147.673 90.511 147.845L90.4359 148.471C90.5955 148.984 90.7737 149.49 90.9583 149.988C91.0761 150.26 91.145 150.551 91.1616 150.848C94.9995 151.945 99.0679 151.945 102.906 150.848C102.905 150.837 102.905 150.827 102.906 150.817C102.848 150.536 102.823 150.249 102.831 149.963C102.894 149.16 102.998 148.362 103.144 147.57C103.19 147.18 103.21 146.787 103.203 146.394V146.253C103.194 146.134 103.19 146.022 103.187 145.909ZM103.187 145.909C103.187 145.784 103.187 145.659 103.165 145.534C103.144 145.409 103.147 145.299 103.131 145.18C103.115 145.062 103.103 144.943 103.087 144.824C103.072 144.705 103.05 144.586 103.028 144.467C103.006 144.349 102.984 144.23 102.959 144.111C102.959 144.07 102.943 144.033 102.934 143.992C102.9 143.836 102.862 143.679 102.821 143.52C102.781 143.36 102.756 143.266 102.718 143.141C102.718 143.085 102.687 143.029 102.668 142.975C102.649 142.922 102.615 142.794 102.587 142.703L102.531 142.528C102.506 142.45 102.481 142.372 102.452 142.294C102.405 142.153 102.355 142.015 102.305 141.875C102.255 141.734 102.202 141.596 102.149 141.459C102.043 141.177 101.927 140.899 101.811 140.62C101.358 139.538 100.848 138.472 100.379 137.415C100.127 136.86 99.9032 136.293 99.7094 135.716L99.65 135.801C99.5549 135.945 99.4702 136.095 99.3967 136.251C99.3967 138.712 96.9321 141.724 96.9321 141.724L94.4518 138.112L92.2813 141.449C91.9685 141.615 91.6557 142.184 91.4118 142.994C91.343 143.213 91.2773 143.451 91.2147 143.704C91.1709 143.873 91.1303 144.051 91.0928 144.23C91.0709 144.32 91.0521 144.411 91.0333 144.505L90.977 144.79V144.833C90.9395 145.027 90.902 145.227 90.8676 145.431C90.8332 145.634 90.7925 145.869 90.7581 146.091C90.7331 146.235 90.7112 146.378 90.6924 146.522C90.6486 146.801 90.6111 147.082 90.5736 147.36C90.5517 147.523 90.5298 147.673 90.511 147.845L90.4359 148.471C90.5955 148.984 90.7737 149.49 90.9583 149.988C91.0761 150.26 91.145 150.551 91.1616 150.848C94.9995 151.945 99.0679 151.945 102.906 150.848C102.905 150.837 102.905 150.827 102.906 150.817C102.848 150.536 102.823 150.249 102.831 149.963C102.894 149.16 102.998 148.362 103.144 147.57C103.19 147.18 103.21 146.787 103.203 146.394V146.253C103.194 146.134 103.19 146.022 103.187 145.909ZM103.187 145.909C103.187 145.784 103.187 145.659 103.165 145.534C103.144 145.409 103.147 145.299 103.131 145.18C103.115 145.062 103.103 144.943 103.087 144.824C103.072 144.705 103.05 144.586 103.028 144.467C103.006 144.349 102.984 144.23 102.959 144.111C102.959 144.07 102.943 144.033 102.934 143.992C102.9 143.836 102.862 143.679 102.821 143.52C102.781 143.36 102.756 143.266 102.718 143.141C102.718 143.085 102.687 143.029 102.668 142.975C102.649 142.922 102.615 142.794 102.587 142.703L102.531 142.528C102.506 142.45 102.481 142.372 102.452 142.294C102.405 142.153 102.355 142.015 102.305 141.875C102.255 141.734 102.202 141.596 102.149 141.459C102.043 141.177 101.927 140.899 101.811 140.62C101.358 139.538 100.848 138.472 100.379 137.415C100.127 136.86 99.9032 136.293 99.7094 135.716L99.65 135.801C99.5549 135.945 99.4702 136.095 99.3967 136.251C99.3967 138.712 96.9321 141.724 96.9321 141.724L94.4518 138.112L92.2813 141.449C91.9685 141.615 91.6557 142.184 91.4118 142.994C91.343 143.213 91.2773 143.451 91.2147 143.704C91.1709 143.873 91.1303 144.051 91.0928 144.23C91.0709 144.32 91.0521 144.411 91.0333 144.505L90.977 144.79V144.833C90.9395 145.027 90.902 145.227 90.8676 145.431C90.8332 145.634 90.7925 145.869 90.7581 146.091C90.7331 146.235 90.7112 146.378 90.6924 146.522C90.6486 146.801 90.6111 147.082 90.5736 147.36C90.5517 147.523 90.5298 147.673 90.511 147.845L90.4359 148.471C90.5955 148.984 90.7737 149.49 90.9583 149.988C91.0761 150.26 91.145 150.551 91.1616 150.848C94.9995 151.945 99.0679 151.945 102.906 150.848C102.905 150.837 102.905 150.827 102.906 150.817C102.848 150.536 102.823 150.249 102.831 149.963C102.894 149.16 102.998 148.362 103.144 147.57C103.19 147.18 103.21 146.787 103.203 146.394V146.253C103.194 146.134 103.19 146.022 103.187 145.909ZM103.187 145.909C103.187 145.784 103.187 145.659 103.165 145.534C103.144 145.409 103.147 145.299 103.131 145.18C103.115 145.062 103.103 144.943 103.087 144.824C103.072 144.705 103.05 144.586 103.028 144.467C103.006 144.349 102.984 144.23 102.959 144.111C102.959 144.07 102.943 144.033 102.934 143.992C102.9 143.836 102.862 143.679 102.821 143.52C102.781 143.36 102.756 143.266 102.718 143.141C102.718 143.085 102.687 143.029 102.668 142.975C102.649 142.922 102.615 142.794 102.587 142.703L102.531 142.528C102.506 142.45 102.481 142.372 102.452 142.294C102.405 142.153 102.355 142.015 102.305 141.875C102.255 141.734 102.202 141.596 102.149 141.459C102.043 141.177 101.927 140.899 101.811 140.62C101.358 139.538 100.848 138.472 100.379 137.415C100.127 136.86 99.9032 136.293 99.7094 135.716L99.65 135.801C99.5549 135.945 99.4702 136.095 99.3967 136.251C99.3967 138.712 96.9321 141.724 96.9321 141.724L94.4518 138.112L92.2813 141.449C91.9685 141.615 91.6557 142.184 91.4118 142.994C91.343 143.213 91.2773 143.451 91.2147 143.704C91.1709 143.873 91.1303 144.051 91.0928 144.23C91.0709 144.32 91.0521 144.411 91.0333 144.505L90.977 144.79V144.833C90.9395 145.027 90.902 145.227 90.8676 145.431C90.8332 145.634 90.7925 145.869 90.7581 146.091C90.7331 146.235 90.7112 146.378 90.6924 146.522C90.6486 146.801 90.6111 147.082 90.5736 147.36C90.5517 147.523 90.5298 147.673 90.511 147.845L90.4359 148.471C90.5955 148.984 90.7737 149.49 90.9583 149.988C91.0761 150.26 91.145 150.551 91.1616 150.848C94.9995 151.945 99.0679 151.945 102.906 150.848C102.905 150.837 102.905 150.827 102.906 150.817C102.848 150.536 102.823 150.249 102.831 149.963C102.894 149.16 102.998 148.362 103.144 147.57C103.19 147.18 103.21 146.787 103.203 146.394V146.253C103.194 146.134 103.19 146.022 103.187 145.909Z" fill="white"/>
<path opacity="0.1" d="M94.4956 137.904L94.2861 137.875C93.9697 137.833 93.6563 137.77 93.3478 137.688L93.2321 137.656C92.4689 137.441 91.6338 137.053 91.4462 136.371C91.3903 136.152 91.3968 135.921 91.4649 135.705C91.5699 135.333 91.7125 134.972 91.8903 134.629V134.61C91.9138 134.562 91.9399 134.515 91.9685 134.469C92.2266 133.965 92.6168 133.54 93.0976 133.24L92.7223 133.3L89.5446 133.816L84.6185 134.61C84.6185 134.61 83.7428 134.435 82.5511 137.719C82.5511 137.76 82.523 137.797 82.5105 137.841C82.2227 138.645 81.9194 139.649 81.6066 140.903C81.3908 141.772 81.1937 142.626 81.0123 143.455C80.9592 143.705 80.906 143.952 80.856 144.196C81.4199 144.861 82.0269 145.488 82.6731 146.073L82.7763 146.17C84.0421 147.316 85.4407 148.306 86.9424 149.119L87.0018 149.151C87.9464 149.66 88.9294 150.095 89.9418 150.452L90.2076 150.546C90.2639 149.967 90.3265 149.326 90.4015 148.669C90.4015 148.603 90.4015 148.538 90.4266 148.472L90.5016 147.846C90.5204 147.687 90.5423 147.534 90.5642 147.362C90.6017 147.083 90.6392 146.802 90.683 146.523C90.7018 146.379 90.7237 146.236 90.7487 146.092C90.7831 145.87 90.8206 145.648 90.8582 145.432C90.8957 145.216 90.9301 145.028 90.9676 144.834V144.791L91.0239 144.506C91.0427 144.412 91.0615 144.321 91.0834 144.231C91.1209 144.053 91.1616 143.874 91.2053 143.705C91.2679 143.452 91.3336 143.214 91.4024 142.995C91.6526 142.185 91.9435 141.616 92.2719 141.45L94.4425 138.113L94.5332 137.972L94.5738 137.91L94.4956 137.904Z" fill="black"/>
<path opacity="0.1" d="M90.5454 115.75C90.2326 116.181 90.2576 116.775 90.1169 117.313C89.7822 118.536 88.4561 119.303 88.1527 120.535C87.9745 121.254 88.1809 122.017 88.0589 122.749C87.8368 124.097 86.6046 125.01 85.9165 126.19C85.5677 126.797 85.3608 127.476 85.3116 128.174C85.2623 128.873 85.3718 129.574 85.6319 130.224C85.7928 130.552 85.9257 130.893 86.0291 131.244C86.108 131.766 86.0749 132.299 85.9321 132.808C85.6975 133.921 85.4567 135.147 85.9947 136.151C86.4482 136.999 87.3896 137.496 88.3373 137.652C89.2942 137.761 90.2623 137.716 91.2053 137.521C92.2406 137.362 93.3009 137.177 94.2016 136.645L90.8144 128.47C90.4735 127.644 90.1232 126.79 90.1263 125.896C90.1539 125.236 90.2968 124.586 90.5485 123.975C91.2043 122.206 92.1562 120.562 93.3634 119.112C93.8544 119.681 93.8169 120.547 94.2266 121.179C94.5887 121.646 95.0708 122.006 95.6216 122.221C97.2265 123.004 98.8754 123.693 100.56 124.285C100.666 124.298 100.767 124.337 100.854 124.399C100.941 124.46 101.011 124.542 101.059 124.638C101.106 124.733 101.13 124.839 101.127 124.945C101.124 125.052 101.095 125.156 101.042 125.248L99.7657 130.515C99.4842 131.675 99.2371 133.017 99.9596 133.956C100.682 134.894 102.312 135.338 102.321 136.548C102.308 136.74 102.308 136.932 102.321 137.124C102.405 137.69 103.078 137.962 103.65 137.99C104.59 138.009 105.505 137.693 106.234 137.099C106.962 136.505 107.455 135.671 107.625 134.747C107.938 132.676 106.568 130.768 105.996 128.751C105.033 125.358 106.309 121.376 104.417 118.395C102.884 115.978 100.091 115.321 97.4387 115.021C95.5778 114.802 91.8559 114.02 90.5454 115.75Z" fill="black"/>
<path opacity="0.5" d="M90.5454 115.437C90.2326 115.869 90.2576 116.463 90.1169 117.001C89.7822 118.224 88.4561 118.99 88.1527 120.222C87.9745 120.942 88.1809 121.705 88.0589 122.437C87.8368 123.785 86.6046 124.698 85.9165 125.877C85.5677 126.485 85.3608 127.163 85.3116 127.862C85.2623 128.561 85.3718 129.261 85.6319 129.912C85.7928 130.24 85.9257 130.581 86.0291 130.931C86.108 131.454 86.0749 131.987 85.9321 132.495C85.6975 133.609 85.4567 134.835 85.9947 135.839C86.4482 136.686 87.3896 137.184 88.3373 137.34C89.2942 137.448 90.2623 137.404 91.2053 137.209C92.2406 137.049 93.3009 136.865 94.2016 136.333L90.8144 128.157C90.4735 127.331 90.1232 126.478 90.1263 125.583C90.1539 124.923 90.2968 124.273 90.5485 123.663C91.2043 121.894 92.1562 120.249 93.3634 118.799C93.8544 119.368 93.8169 120.235 94.2266 120.867C94.5887 121.334 95.0708 121.694 95.6216 121.908C97.2265 122.691 98.8754 123.38 100.56 123.972C100.666 123.986 100.767 124.025 100.854 124.086C100.941 124.148 101.011 124.23 101.059 124.325C101.106 124.42 101.13 124.526 101.127 124.633C101.124 124.739 101.095 124.843 101.042 124.936L99.7657 130.203C99.4842 131.363 99.2371 132.705 99.9596 133.643C100.682 134.581 102.312 135.025 102.321 136.236C102.308 136.427 102.308 136.62 102.321 136.811C102.405 137.377 103.078 137.65 103.65 137.678C104.59 137.696 105.505 137.38 106.234 136.786C106.962 136.192 107.455 135.359 107.625 134.434C107.938 132.364 106.568 130.456 105.996 128.439C105.033 125.045 106.309 121.064 104.417 118.083C102.884 115.665 100.091 115.009 97.4387 114.708C95.5778 114.489 91.8559 113.707 90.5454 115.437Z" fill="#493545"/>
</g>
<g opacity="0.5">
<path opacity="0.5" d="M88.6219 199.211C88.65 200.259 87.9369 201.153 87.3708 202.026C86.8047 202.899 86.3856 204.09 86.9673 204.963C87.1581 205.251 87.4459 205.473 87.6179 205.773C88.2215 206.821 87.2176 208.025 86.8516 209.176C86.4294 210.505 86.9204 211.991 87.8087 213.07C88.6969 214.149 89.923 214.877 91.1615 215.519C93.7657 216.906 96.5607 217.901 99.456 218.471C100.97 218.749 102.584 218.875 104.004 218.268C104.989 217.816 105.794 217.046 106.289 216.082C106.784 215.118 106.941 214.015 106.734 212.951C106.374 211.306 105.17 209.983 104.545 208.428C104.399 208.123 104.328 207.787 104.338 207.449C104.391 206.858 104.845 206.395 105.198 205.917C106.085 204.614 106.447 203.024 106.212 201.466C105.965 199.908 105.368 198.426 104.467 197.131C104.144 196.594 103.719 196.127 103.215 195.755C102.534 195.295 101.689 195.164 100.876 195.048C97.4794 194.573 93.9608 194.054 90.536 193.878C89.4538 193.822 88.6594 194.035 88.1246 195.048C87.3083 196.559 88.5812 197.694 88.6219 199.211Z" fill="#444176"/>
<path opacity="0.5" d="M106.115 209.848L99.6687 219.016L93.3759 218.468C93.3759 218.468 93.1695 220.658 90.6392 212.723C89.2255 208.285 92.0998 209.827 92.6659 208.597C93.232 207.368 94.2298 206.283 94.3142 205.376C94.5144 203.431 93.9233 202.323 93.9233 202.323L100.763 201.504C100.455 202.426 100.416 203.416 100.651 204.359C101.508 207.919 106.115 209.848 106.115 209.848Z" fill="#C77485"/>
<path opacity="0.5" d="M96.419 202.032C100.91 202.032 104.551 199.162 104.551 195.621C104.551 192.08 100.91 189.209 96.419 189.209C91.9279 189.209 88.2871 192.08 88.2871 195.621C88.2871 199.162 91.9279 202.032 96.419 202.032Z" fill="#444176"/>
<path opacity="0.1" d="M100.648 204.356C99.7556 205.032 98.7113 205.478 97.6065 205.656C96.5017 205.834 95.3701 205.738 94.3111 205.376C94.5113 203.431 93.9202 202.323 93.9202 202.323L100.76 201.504C100.452 202.425 100.413 203.414 100.648 204.356Z" fill="black"/>
<path opacity="0.5" d="M96.5223 205.469C100.3 205.469 103.362 202.407 103.362 198.629C103.362 194.852 100.3 191.789 96.5223 191.789C92.7446 191.789 89.6821 194.852 89.6821 198.629C89.6821 202.407 92.7446 205.469 96.5223 205.469Z" fill="#C77485"/>
<path opacity="0.1" d="M105.439 210.887L105.28 210.261L105.142 209.711L104.939 208.897L104.901 208.747L104.87 208.622C104.87 208.622 105.033 208.131 103.96 208.291L103.76 208.325C103.591 208.359 103.394 208.406 103.169 208.469L102.965 208.531L102.696 208.616C101.845 208.893 101.068 209.362 100.426 209.986C100.137 210.262 99.8822 210.57 99.6656 210.905C99.6437 210.937 99.6281 210.965 99.6093 210.99C99.5352 211.106 99.4694 211.227 99.4123 211.353C99.4123 213.817 96.9477 216.826 96.9477 216.826L94.5425 213.351L94.4956 213.282L93.9232 212.45L93.7199 212.181L93.6511 212.088L92.4001 210.408L92.0873 209.989L91.9841 209.848L91.8308 209.645L91.4712 209.166L90.0637 209.989L88.1871 211.084L87.0925 218.199V218.396L87.1269 218.984L87.3552 222.85V222.903L86.9548 224.504L87.0143 224.536C87.9589 225.045 88.9419 225.48 89.9542 225.837L90.2201 225.931C90.5329 226.034 90.8269 226.128 91.1334 226.218C91.1447 226.265 91.1531 226.312 91.1584 226.359C91.1584 226.315 91.1584 226.268 91.1584 226.225C94.9963 227.321 99.0648 227.321 102.903 226.225L102.975 226.203C103.153 226.153 103.334 226.099 103.509 226.04L103.794 225.949C104.566 225.691 105.322 225.388 106.059 225.042L106.321 219.444L106.509 215.406V215.175L105.439 210.887Z" fill="black"/>
<path opacity="0.5" d="M103.187 221.286C103.187 221.161 103.187 221.036 103.165 220.911C103.144 220.786 103.147 220.676 103.131 220.557C103.115 220.439 103.103 220.32 103.087 220.201C103.072 220.082 103.05 219.963 103.028 219.844C103.006 219.725 102.984 219.607 102.959 219.488C102.959 219.447 102.943 219.41 102.934 219.369C102.9 219.213 102.862 219.056 102.821 218.897C102.781 218.737 102.756 218.643 102.718 218.518C102.718 218.462 102.687 218.406 102.668 218.352C102.649 218.299 102.615 218.171 102.587 218.08L102.531 217.905C102.506 217.827 102.481 217.749 102.452 217.671C102.405 217.53 102.355 217.392 102.305 217.251C102.255 217.111 102.202 216.973 102.149 216.836C102.043 216.554 101.927 216.276 101.811 215.997C101.358 214.915 100.848 213.849 100.379 212.791C100.127 212.237 99.9032 211.67 99.7094 211.093L99.65 211.178C99.5549 211.321 99.4702 211.472 99.3967 211.628C99.3967 214.089 96.9321 217.101 96.9321 217.101L94.4518 213.489L92.2813 216.826C91.9685 216.992 91.6557 217.561 91.4118 218.371C91.343 218.59 91.2773 218.828 91.2147 219.081C91.1709 219.25 91.1303 219.428 91.0928 219.607C91.0709 219.697 91.0521 219.788 91.0333 219.882L90.977 220.166V220.21C90.9395 220.404 90.902 220.604 90.8676 220.808C90.8332 221.011 90.7925 221.246 90.7581 221.468C90.7331 221.611 90.7112 221.755 90.6924 221.899C90.6486 222.178 90.6111 222.459 90.5736 222.737C90.5517 222.9 90.5298 223.05 90.511 223.222L90.4359 223.848C90.5955 224.361 90.7737 224.867 90.9583 225.365C91.0761 225.637 91.145 225.928 91.1616 226.225C94.9995 227.321 99.0679 227.321 102.906 226.225C102.905 226.214 102.905 226.204 102.906 226.193C102.848 225.913 102.823 225.626 102.831 225.34C102.894 224.537 102.998 223.739 103.144 222.947C103.19 222.557 103.21 222.164 103.203 221.771V221.63C103.194 221.511 103.19 221.399 103.187 221.286ZM103.187 221.286C103.187 221.161 103.187 221.036 103.165 220.911C103.144 220.786 103.147 220.676 103.131 220.557C103.115 220.439 103.103 220.32 103.087 220.201C103.072 220.082 103.05 219.963 103.028 219.844C103.006 219.725 102.984 219.607 102.959 219.488C102.959 219.447 102.943 219.41 102.934 219.369C102.9 219.213 102.862 219.056 102.821 218.897C102.781 218.737 102.756 218.643 102.718 218.518C102.718 218.462 102.687 218.406 102.668 218.352C102.649 218.299 102.615 218.171 102.587 218.08L102.531 217.905C102.506 217.827 102.481 217.749 102.452 217.671C102.405 217.53 102.355 217.392 102.305 217.251C102.255 217.111 102.202 216.973 102.149 216.836C102.043 216.554 101.927 216.276 101.811 215.997C101.358 214.915 100.848 213.849 100.379 212.791C100.127 212.237 99.9032 211.67 99.7094 211.093L99.65 211.178C99.5549 211.321 99.4702 211.472 99.3967 211.628C99.3967 214.089 96.9321 217.101 96.9321 217.101L94.4518 213.489L92.2813 216.826C91.9685 216.992 91.6557 217.561 91.4118 218.371C91.343 218.59 91.2773 218.828 91.2147 219.081C91.1709 219.25 91.1303 219.428 91.0928 219.607C91.0709 219.697 91.0521 219.788 91.0333 219.882L90.977 220.166V220.21C90.9395 220.404 90.902 220.604 90.8676 220.808C90.8332 221.011 90.7925 221.246 90.7581 221.468C90.7331 221.611 90.7112 221.755 90.6924 221.899C90.6486 222.178 90.6111 222.459 90.5736 222.737C90.5517 222.9 90.5298 223.05 90.511 223.222L90.4359 223.848C90.5955 224.361 90.7737 224.867 90.9583 225.365C91.0761 225.637 91.145 225.928 91.1616 226.225C94.9995 227.321 99.0679 227.321 102.906 226.225C102.905 226.214 102.905 226.204 102.906 226.193C102.848 225.913 102.823 225.626 102.831 225.34C102.894 224.537 102.998 223.739 103.144 222.947C103.19 222.557 103.21 222.164 103.203 221.771V221.63C103.194 221.511 103.19 221.399 103.187 221.286ZM103.187 221.286C103.187 221.161 103.187 221.036 103.165 220.911C103.144 220.786 103.147 220.676 103.131 220.557C103.115 220.439 103.103 220.32 103.087 220.201C103.072 220.082 103.05 219.963 103.028 219.844C103.006 219.725 102.984 219.607 102.959 219.488C102.959 219.447 102.943 219.41 102.934 219.369C102.9 219.213 102.862 219.056 102.821 218.897C102.781 218.737 102.756 218.643 102.718 218.518C102.718 218.462 102.687 218.406 102.668 218.352C102.649 218.299 102.615 218.171 102.587 218.08L102.531 217.905C102.506 217.827 102.481 217.749 102.452 217.671C102.405 217.53 102.355 217.392 102.305 217.251C102.255 217.111 102.202 216.973 102.149 216.836C102.043 216.554 101.927 216.276 101.811 215.997C101.358 214.915 100.848 213.849 100.379 212.791C100.127 212.237 99.9032 211.67 99.7094 211.093L99.65 211.178C99.5549 211.321 99.4702 211.472 99.3967 211.628C99.3967 214.089 96.9321 217.101 96.9321 217.101L94.4518 213.489L92.2813 216.826C91.9685 216.992 91.6557 217.561 91.4118 218.371C91.343 218.59 91.2773 218.828 91.2147 219.081C91.1709 219.25 91.1303 219.428 91.0928 219.607C91.0709 219.697 91.0521 219.788 91.0333 219.882L90.977 220.166V220.21C90.9395 220.404 90.902 220.604 90.8676 220.808C90.8332 221.011 90.7925 221.246 90.7581 221.468C90.7331 221.611 90.7112 221.755 90.6924 221.899C90.6486 222.178 90.6111 222.459 90.5736 222.737C90.5517 222.9 90.5298 223.05 90.511 223.222L90.4359 223.848C90.5955 224.361 90.7737 224.867 90.9583 225.365C91.0761 225.637 91.145 225.928 91.1616 226.225C94.9995 227.321 99.0679 227.321 102.906 226.225C102.905 226.214 102.905 226.204 102.906 226.193C102.848 225.913 102.823 225.626 102.831 225.34C102.894 224.537 102.998 223.739 103.144 222.947C103.19 222.557 103.21 222.164 103.203 221.771V221.63C103.194 221.511 103.19 221.399 103.187 221.286ZM106.503 215.416L105.386 210.959L105.195 210.196L105.142 209.986L104.87 208.898C104.871 208.888 104.871 208.879 104.87 208.869C104.877 208.821 104.869 208.772 104.848 208.729C104.807 208.647 104.704 208.563 104.463 208.541C104.372 208.535 104.28 208.535 104.188 208.541C103.916 208.568 103.648 208.618 103.384 208.691C103.256 208.726 103.119 208.763 102.972 208.81L102.703 208.894H102.678C101.957 209.131 101.288 209.502 100.707 209.989C100.323 210.309 99.9862 210.682 99.7063 211.096L99.6469 211.181C99.5518 211.325 99.4671 211.475 99.3935 211.631C99.3935 214.093 96.9289 217.105 96.9289 217.105L94.4487 213.492L94.308 213.289L94.283 213.254L93.9233 212.726L93.6512 212.363L93.5792 212.269L92.2969 210.558L91.8903 210.005V209.986L91.7496 209.795L91.4806 209.439L90.5423 209.986L88.1965 211.353L87.1144 218.393V218.468L87.1457 218.981L87.3771 222.9V223.122L87.0237 224.533C87.9683 225.042 88.9513 225.477 89.9637 225.834L90.2295 225.928C90.5423 226.031 90.8363 226.125 91.1428 226.215C91.1542 226.262 91.1625 226.309 91.1678 226.356C91.1678 226.312 91.1678 226.265 91.1678 226.222C95.0058 227.318 99.0742 227.318 102.912 226.222L102.984 226.2C103.162 226.15 103.344 226.096 103.519 226.037L103.804 225.946C104.575 225.688 105.331 225.385 106.068 225.039L106.328 219.447L106.515 215.453L106.503 215.416ZM91.1209 226.215C91.1323 226.262 91.1406 226.309 91.1459 226.356C91.1459 226.312 91.1459 226.265 91.1459 226.222L91.1209 226.215ZM103.187 221.286C103.187 221.161 103.187 221.036 103.165 220.911C103.144 220.786 103.147 220.676 103.131 220.557C103.115 220.439 103.103 220.32 103.087 220.201C103.072 220.082 103.05 219.963 103.028 219.844C103.006 219.725 102.984 219.607 102.959 219.488C102.959 219.447 102.943 219.41 102.934 219.369C102.9 219.213 102.862 219.056 102.821 218.897C102.781 218.737 102.756 218.643 102.718 218.518C102.718 218.462 102.687 218.406 102.668 218.352C102.649 218.299 102.615 218.171 102.587 218.08L102.531 217.905C102.506 217.827 102.481 217.749 102.452 217.671C102.405 217.53 102.355 217.392 102.305 217.251C102.255 217.111 102.202 216.973 102.149 216.836C102.043 216.554 101.927 216.276 101.811 215.997C101.358 214.915 100.848 213.849 100.379 212.791C100.127 212.237 99.9032 211.67 99.7094 211.093L99.65 211.178C99.5549 211.321 99.4702 211.472 99.3967 211.628C99.3967 214.089 96.9321 217.101 96.9321 217.101L94.4518 213.489L92.2813 216.826C91.9685 216.992 91.6557 217.561 91.4118 218.371C91.343 218.59 91.2773 218.828 91.2147 219.081C91.1709 219.25 91.1303 219.428 91.0928 219.607C91.0709 219.697 91.0521 219.788 91.0333 219.882L90.977 220.166V220.21C90.9395 220.404 90.902 220.604 90.8676 220.808C90.8332 221.011 90.7925 221.246 90.7581 221.468C90.7331 221.611 90.7112 221.755 90.6924 221.899C90.6486 222.178 90.6111 222.459 90.5736 222.737C90.5517 222.9 90.5298 223.05 90.511 223.222L90.4359 223.848C90.5955 224.361 90.7737 224.867 90.9583 225.365C91.0761 225.637 91.145 225.928 91.1616 226.225C94.9995 227.321 99.0679 227.321 102.906 226.225C102.905 226.214 102.905 226.204 102.906 226.193C102.848 225.913 102.823 225.626 102.831 225.34C102.894 224.537 102.998 223.739 103.144 222.947C103.19 222.557 103.21 222.164 103.203 221.771V221.63C103.194 221.511 103.19 221.399 103.187 221.286ZM103.187 221.286C103.187 221.161 103.187 221.036 103.165 220.911C103.144 220.786 103.147 220.676 103.131 220.557C103.115 220.439 103.103 220.32 103.087 220.201C103.072 220.082 103.05 219.963 103.028 219.844C103.006 219.725 102.984 219.607 102.959 219.488C102.959 219.447 102.943 219.41 102.934 219.369C102.9 219.213 102.862 219.056 102.821 218.897C102.781 218.737 102.756 218.643 102.718 218.518C102.718 218.462 102.687 218.406 102.668 218.352C102.649 218.299 102.615 218.171 102.587 218.08L102.531 217.905C102.506 217.827 102.481 217.749 102.452 217.671C102.405 217.53 102.355 217.392 102.305 217.251C102.255 217.111 102.202 216.973 102.149 216.836C102.043 216.554 101.927 216.276 101.811 215.997C101.358 214.915 100.848 213.849 100.379 212.791C100.127 212.237 99.9032 211.67 99.7094 211.093L99.65 211.178C99.5549 211.321 99.4702 211.472 99.3967 211.628C99.3967 214.089 96.9321 217.101 96.9321 217.101L94.4518 213.489L92.2813 216.826C91.9685 216.992 91.6557 217.561 91.4118 218.371C91.343 218.59 91.2773 218.828 91.2147 219.081C91.1709 219.25 91.1303 219.428 91.0928 219.607C91.0709 219.697 91.0521 219.788 91.0333 219.882L90.977 220.166V220.21C90.9395 220.404 90.902 220.604 90.8676 220.808C90.8332 221.011 90.7925 221.246 90.7581 221.468C90.7331 221.611 90.7112 221.755 90.6924 221.899C90.6486 222.178 90.6111 222.459 90.5736 222.737C90.5517 222.9 90.5298 223.05 90.511 223.222L90.4359 223.848C90.5955 224.361 90.7737 224.867 90.9583 225.365C91.0761 225.637 91.145 225.928 91.1616 226.225C94.9995 227.321 99.0679 227.321 102.906 226.225C102.905 226.214 102.905 226.204 102.906 226.193C102.848 225.913 102.823 225.626 102.831 225.34C102.894 224.537 102.998 223.739 103.144 222.947C103.19 222.557 103.21 222.164 103.203 221.771V221.63C103.194 221.511 103.19 221.399 103.187 221.286ZM103.187 221.286C103.187 221.161 103.187 221.036 103.165 220.911C103.144 220.786 103.147 220.676 103.131 220.557C103.115 220.439 103.103 220.32 103.087 220.201C103.072 220.082 103.05 219.963 103.028 219.844C103.006 219.725 102.984 219.607 102.959 219.488C102.959 219.447 102.943 219.41 102.934 219.369C102.9 219.213 102.862 219.056 102.821 218.897C102.781 218.737 102.756 218.643 102.718 218.518C102.718 218.462 102.687 218.406 102.668 218.352C102.649 218.299 102.615 218.171 102.587 218.08L102.531 217.905C102.506 217.827 102.481 217.749 102.452 217.671C102.405 217.53 102.355 217.392 102.305 217.251C102.255 217.111 102.202 216.973 102.149 216.836C102.043 216.554 101.927 216.276 101.811 215.997C101.358 214.915 100.848 213.849 100.379 212.791C100.127 212.237 99.9032 211.67 99.7094 211.093L99.65 211.178C99.5549 211.321 99.4702 211.472 99.3967 211.628C99.3967 214.089 96.9321 217.101 96.9321 217.101L94.4518 213.489L92.2813 216.826C91.9685 216.992 91.6557 217.561 91.4118 218.371C91.343 218.59 91.2773 218.828 91.2147 219.081C91.1709 219.25 91.1303 219.428 91.0928 219.607C91.0709 219.697 91.0521 219.788 91.0333 219.882L90.977 220.166V220.21C90.9395 220.404 90.902 220.604 90.8676 220.808C90.8332 221.011 90.7925 221.246 90.7581 221.468C90.7331 221.611 90.7112 221.755 90.6924 221.899C90.6486 222.178 90.6111 222.459 90.5736 222.737C90.5517 222.9 90.5298 223.05 90.511 223.222L90.4359 223.848C90.5955 224.361 90.7737 224.867 90.9583 225.365C91.0761 225.637 91.145 225.928 91.1616 226.225C94.9995 227.321 99.0679 227.321 102.906 226.225C102.905 226.214 102.905 226.204 102.906 226.193C102.848 225.913 102.823 225.626 102.831 225.34C102.894 224.537 102.998 223.739 103.144 222.947C103.19 222.557 103.21 222.164 103.203 221.771V221.63C103.194 221.511 103.19 221.399 103.187 221.286ZM103.187 221.286C103.187 221.161 103.187 221.036 103.165 220.911C103.144 220.786 103.147 220.676 103.131 220.557C103.115 220.439 103.103 220.32 103.087 220.201C103.072 220.082 103.05 219.963 103.028 219.844C103.006 219.725 102.984 219.607 102.959 219.488C102.959 219.447 102.943 219.41 102.934 219.369C102.9 219.213 102.862 219.056 102.821 218.897C102.781 218.737 102.756 218.643 102.718 218.518C102.718 218.462 102.687 218.406 102.668 218.352C102.649 218.299 102.615 218.171 102.587 218.08L102.531 217.905C102.506 217.827 102.481 217.749 102.452 217.671C102.405 217.53 102.355 217.392 102.305 217.251C102.255 217.111 102.202 216.973 102.149 216.836C102.043 216.554 101.927 216.276 101.811 215.997C101.358 214.915 100.848 213.849 100.379 212.791C100.127 212.237 99.9032 211.67 99.7094 211.093L99.65 211.178C99.5549 211.321 99.4702 211.472 99.3967 211.628C99.3967 214.089 96.9321 217.101 96.9321 217.101L94.4518 213.489L92.2813 216.826C91.9685 216.992 91.6557 217.561 91.4118 218.371C91.343 218.59 91.2773 218.828 91.2147 219.081C91.1709 219.25 91.1303 219.428 91.0928 219.607C91.0709 219.697 91.0521 219.788 91.0333 219.882L90.977 220.166V220.21C90.9395 220.404 90.902 220.604 90.8676 220.808C90.8332 221.011 90.7925 221.246 90.7581 221.468C90.7331 221.611 90.7112 221.755 90.6924 221.899C90.6486 222.178 90.6111 222.459 90.5736 222.737C90.5517 222.9 90.5298 223.05 90.511 223.222L90.4359 223.848C90.5955 224.361 90.7737 224.867 90.9583 225.365C91.0761 225.637 91.145 225.928 91.1616 226.225C94.9995 227.321 99.0679 227.321 102.906 226.225C102.905 226.214 102.905 226.204 102.906 226.193C102.848 225.913 102.823 225.626 102.831 225.34C102.894 224.537 102.998 223.739 103.144 222.947C103.19 222.557 103.21 222.164 103.203 221.771V221.63C103.194 221.511 103.19 221.399 103.187 221.286ZM103.187 221.286C103.187 221.161 103.187 221.036 103.165 220.911C103.144 220.786 103.147 220.676 103.131 220.557C103.115 220.439 103.103 220.32 103.087 220.201C103.072 220.082 103.05 219.963 103.028 219.844C103.006 219.725 102.984 219.607 102.959 219.488C102.959 219.447 102.943 219.41 102.934 219.369C102.9 219.213 102.862 219.056 102.821 218.897C102.781 218.737 102.756 218.643 102.718 218.518C102.718 218.462 102.687 218.406 102.668 218.352C102.649 218.299 102.615 218.171 102.587 218.08L102.531 217.905C102.506 217.827 102.481 217.749 102.452 217.671C102.405 217.53 102.355 217.392 102.305 217.251C102.255 217.111 102.202 216.973 102.149 216.836C102.043 216.554 101.927 216.276 101.811 215.997C101.358 214.915 100.848 213.849 100.379 212.791C100.127 212.237 99.9032 211.67 99.7094 211.093L99.65 211.178C99.5549 211.321 99.4702 211.472 99.3967 211.628C99.3967 214.089 96.9321 217.101 96.9321 217.101L94.4518 213.489L92.2813 216.826C91.9685 216.992 91.6557 217.561 91.4118 218.371C91.343 218.59 91.2773 218.828 91.2147 219.081C91.1709 219.25 91.1303 219.428 91.0928 219.607C91.0709 219.697 91.0521 219.788 91.0333 219.882L90.977 220.166V220.21C90.9395 220.404 90.902 220.604 90.8676 220.808C90.8332 221.011 90.7925 221.246 90.7581 221.468C90.7331 221.611 90.7112 221.755 90.6924 221.899C90.6486 222.178 90.6111 222.459 90.5736 222.737C90.5517 222.9 90.5298 223.05 90.511 223.222L90.4359 223.848C90.5955 224.361 90.7737 224.867 90.9583 225.365C91.0761 225.637 91.145 225.928 91.1616 226.225C94.9995 227.321 99.0679 227.321 102.906 226.225C102.905 226.214 102.905 226.204 102.906 226.193C102.848 225.913 102.823 225.626 102.831 225.34C102.894 224.537 102.998 223.739 103.144 222.947C103.19 222.557 103.21 222.164 103.203 221.771V221.63C103.194 221.511 103.19 221.399 103.187 221.286ZM103.187 221.286C103.187 221.161 103.187 221.036 103.165 220.911C103.144 220.786 103.147 220.676 103.131 220.557C103.115 220.439 103.103 220.32 103.087 220.201C103.072 220.082 103.05 219.963 103.028 219.844C103.006 219.725 102.984 219.607 102.959 219.488C102.959 219.447 102.943 219.41 102.934 219.369C102.9 219.213 102.862 219.056 102.821 218.897C102.781 218.737 102.756 218.643 102.718 218.518C102.718 218.462 102.687 218.406 102.668 218.352C102.649 218.299 102.615 218.171 102.587 218.08L102.531 217.905C102.506 217.827 102.481 217.749 102.452 217.671C102.405 217.53 102.355 217.392 102.305 217.251C102.255 217.111 102.202 216.973 102.149 216.836C102.043 216.554 101.927 216.276 101.811 215.997C101.358 214.915 100.848 213.849 100.379 212.791C100.127 212.237 99.9032 211.67 99.7094 211.093L99.65 211.178C99.5549 211.321 99.4702 211.472 99.3967 211.628C99.3967 214.089 96.9321 217.101 96.9321 217.101L94.4518 213.489L92.2813 216.826C91.9685 216.992 91.6557 217.561 91.4118 218.371C91.343 218.59 91.2773 218.828 91.2147 219.081C91.1709 219.25 91.1303 219.428 91.0928 219.607C91.0709 219.697 91.0521 219.788 91.0333 219.882L90.977 220.166V220.21C90.9395 220.404 90.902 220.604 90.8676 220.808C90.8332 221.011 90.7925 221.246 90.7581 221.468C90.7331 221.611 90.7112 221.755 90.6924 221.899C90.6486 222.178 90.6111 222.459 90.5736 222.737C90.5517 222.9 90.5298 223.05 90.511 223.222L90.4359 223.848C90.5955 224.361 90.7737 224.867 90.9583 225.365C91.0761 225.637 91.145 225.928 91.1616 226.225C94.9995 227.321 99.0679 227.321 102.906 226.225C102.905 226.214 102.905 226.204 102.906 226.193C102.848 225.913 102.823 225.626 102.831 225.34C102.894 224.537 102.998 223.739 103.144 222.947C103.19 222.557 103.21 222.164 103.203 221.771V221.63C103.194 221.511 103.19 221.399 103.187 221.286ZM103.187 221.286C103.187 221.161 103.187 221.036 103.165 220.911C103.144 220.786 103.147 220.676 103.131 220.557C103.115 220.439 103.103 220.32 103.087 220.201C103.072 220.082 103.05 219.963 103.028 219.844C103.006 219.725 102.984 219.607 102.959 219.488C102.959 219.447 102.943 219.41 102.934 219.369C102.9 219.213 102.862 219.056 102.821 218.897C102.781 218.737 102.756 218.643 102.718 218.518C102.718 218.462 102.687 218.406 102.668 218.352C102.649 218.299 102.615 218.171 102.587 218.08L102.531 217.905C102.506 217.827 102.481 217.749 102.452 217.671C102.405 217.53 102.355 217.392 102.305 217.251C102.255 217.111 102.202 216.973 102.149 216.836C102.043 216.554 101.927 216.276 101.811 215.997C101.358 214.915 100.848 213.849 100.379 212.791C100.127 212.237 99.9032 211.67 99.7094 211.093L99.65 211.178C99.5549 211.321 99.4702 211.472 99.3967 211.628C99.3967 214.089 96.9321 217.101 96.9321 217.101L94.4518 213.489L92.2813 216.826C91.9685 216.992 91.6557 217.561 91.4118 218.371C91.343 218.59 91.2773 218.828 91.2147 219.081C91.1709 219.25 91.1303 219.428 91.0928 219.607C91.0709 219.697 91.0521 219.788 91.0333 219.882L90.977 220.166V220.21C90.9395 220.404 90.902 220.604 90.8676 220.808C90.8332 221.011 90.7925 221.246 90.7581 221.468C90.7331 221.611 90.7112 221.755 90.6924 221.899C90.6486 222.178 90.6111 222.459 90.5736 222.737C90.5517 222.9 90.5298 223.05 90.511 223.222L90.4359 223.848C90.5955 224.361 90.7737 224.867 90.9583 225.365C91.0761 225.637 91.145 225.928 91.1616 226.225C94.9995 227.321 99.0679 227.321 102.906 226.225C102.905 226.214 102.905 226.204 102.906 226.193C102.848 225.913 102.823 225.626 102.831 225.34C102.894 224.537 102.998 223.739 103.144 222.947C103.19 222.557 103.21 222.164 103.203 221.771V221.63C103.194 221.511 103.19 221.399 103.187 221.286ZM103.187 221.286C103.187 221.161 103.187 221.036 103.165 220.911C103.144 220.786 103.147 220.676 103.131 220.557C103.115 220.439 103.103 220.32 103.087 220.201C103.072 220.082 103.05 219.963 103.028 219.844C103.006 219.725 102.984 219.607 102.959 219.488C102.959 219.447 102.943 219.41 102.934 219.369C102.9 219.213 102.862 219.056 102.821 218.897C102.781 218.737 102.756 218.643 102.718 218.518C102.718 218.462 102.687 218.406 102.668 218.352C102.649 218.299 102.615 218.171 102.587 218.08L102.531 217.905C102.506 217.827 102.481 217.749 102.452 217.671C102.405 217.53 102.355 217.392 102.305 217.251C102.255 217.111 102.202 216.973 102.149 216.836C102.043 216.554 101.927 216.276 101.811 215.997C101.358 214.915 100.848 213.849 100.379 212.791C100.127 212.237 99.9032 211.67 99.7094 211.093L99.65 211.178C99.5549 211.321 99.4702 211.472 99.3967 211.628C99.3967 214.089 96.9321 217.101 96.9321 217.101L94.4518 213.489L92.2813 216.826C91.9685 216.992 91.6557 217.561 91.4118 218.371C91.343 218.59 91.2773 218.828 91.2147 219.081C91.1709 219.25 91.1303 219.428 91.0928 219.607C91.0709 219.697 91.0521 219.788 91.0333 219.882L90.977 220.166V220.21C90.9395 220.404 90.902 220.604 90.8676 220.808C90.8332 221.011 90.7925 221.246 90.7581 221.468C90.7331 221.611 90.7112 221.755 90.6924 221.899C90.6486 222.178 90.6111 222.459 90.5736 222.737C90.5517 222.9 90.5298 223.05 90.511 223.222L90.4359 223.848C90.5955 224.361 90.7737 224.867 90.9583 225.365C91.0761 225.637 91.145 225.928 91.1616 226.225C94.9995 227.321 99.0679 227.321 102.906 226.225C102.905 226.214 102.905 226.204 102.906 226.193C102.848 225.913 102.823 225.626 102.831 225.34C102.894 224.537 102.998 223.739 103.144 222.947C103.19 222.557 103.21 222.164 103.203 221.771V221.63C103.194 221.511 103.19 221.399 103.187 221.286Z" fill="#444176"/>
<path opacity="0.1" d="M94.4956 213.28L94.2861 213.251C93.9697 213.209 93.6563 213.146 93.3478 213.064L93.2321 213.032C92.4689 212.817 91.6338 212.429 91.4462 211.747C91.3903 211.528 91.3968 211.297 91.4649 211.081C91.5699 210.709 91.7125 210.348 91.8903 210.005V209.986C91.9138 209.938 91.9399 209.891 91.9685 209.845C92.2266 209.341 92.6168 208.916 93.0976 208.616L92.7223 208.676L89.5446 209.192L84.6185 209.986C84.6185 209.986 83.7428 209.811 82.5511 213.095C82.5511 213.136 82.523 213.173 82.5105 213.217C82.2227 214.021 81.9194 215.025 81.6066 216.279C81.3908 217.148 81.1937 218.002 81.0123 218.831C80.9592 219.081 80.906 219.328 80.856 219.572C81.4199 220.237 82.0269 220.864 82.6731 221.449L82.7763 221.546C84.0421 222.692 85.4407 223.682 86.9424 224.495L87.0018 224.527C87.9464 225.036 88.9294 225.471 89.9418 225.828L90.2076 225.921C90.2639 225.343 90.3265 224.702 90.4015 224.045C90.4015 223.979 90.4015 223.914 90.4266 223.848L90.5016 223.222C90.5204 223.063 90.5423 222.91 90.5642 222.738C90.6017 222.459 90.6392 222.178 90.683 221.899C90.7018 221.755 90.7237 221.612 90.7487 221.468C90.7831 221.246 90.8206 221.024 90.8582 220.808C90.8957 220.592 90.9301 220.404 90.9676 220.21V220.167L91.0239 219.882C91.0427 219.788 91.0615 219.697 91.0834 219.607C91.1209 219.428 91.1616 219.25 91.2053 219.081C91.2679 218.828 91.3336 218.59 91.4024 218.371C91.6526 217.561 91.9435 216.992 92.2719 216.826L94.4425 213.489L94.5332 213.348L94.5738 213.286L94.4956 213.28Z" fill="black"/>
<path opacity="0.1" d="M95.0181 196.628C95.9939 196.462 96.976 196.106 97.9455 196.315C98.7587 196.484 99.4374 197.025 100.182 197.4C100.9 197.762 101.687 197.97 102.49 198.01C102.783 198.049 103.081 197.991 103.338 197.844C103.725 197.575 103.782 197.025 103.716 196.556C103.528 195.223 102.696 194.079 101.839 193.04C101.497 192.597 101.102 192.197 100.663 191.849C99.5406 191.02 98.055 190.879 96.6632 190.942C95.0744 191.014 93.4605 191.32 92.0812 192.118C91.1429 192.656 88.9911 194.351 89.7386 195.577C90.5236 196.859 93.7889 196.837 95.0181 196.628Z" fill="black"/>
<path opacity="0.5" d="M95.0181 196.314C95.9939 196.149 96.976 195.792 97.9455 196.002C98.7587 196.17 99.4374 196.712 100.182 197.087C100.9 197.448 101.687 197.656 102.49 197.697C102.783 197.735 103.081 197.677 103.338 197.531C103.725 197.262 103.782 196.712 103.716 196.242C103.528 194.91 102.696 193.765 101.839 192.727C101.497 192.283 101.102 191.883 100.663 191.535C99.5406 190.706 98.055 190.566 96.6632 190.628C95.0744 190.7 93.4605 191.007 92.0812 191.804C91.1429 192.342 88.9911 194.037 89.7386 195.263C90.5236 196.546 93.7889 196.524 95.0181 196.314Z" fill="#444176"/>
</g>
<path d="M180.906 180.999H180.953C181.022 183.095 181.319 184.99 181.892 185.515C183.255 186.766 188.91 184.264 188.522 182.751C188.444 182.438 188.313 181.925 188.147 181.277C189.673 181.087 190.977 180.652 191.497 179.757L192.479 182.785L192.547 183.001H192.566H192.622C193.27 189.137 194.737 201.879 195.91 203.587C197.473 205.848 199.272 215.647 199.272 215.647L202.634 235.749C202.634 235.749 203.929 247.321 204.705 248.572C204.93 248.811 205.23 248.966 205.555 249.013C205.102 250.37 204.451 251.956 203.679 252.841C202.115 254.599 200.057 258.117 198.246 257.867C196.435 257.617 195.919 261.386 199.281 261.886C201.142 262.165 204.11 261.827 206.39 261.47C206.39 262.477 207.091 263.635 208.852 263.897C212.214 264.401 219.198 262.893 219.198 262.893C219.198 262.893 225.141 260.391 225.406 258.621C225.594 257.339 224.684 252.191 224.177 249.491C225.116 247.987 224.115 235.004 224.115 235.004L222.304 210.13C222.304 210.13 223.339 196.312 222.304 193.797C221.656 192.234 221.416 185.04 221.325 179.895L222.576 179.976C222.647 179.89 222.712 179.799 222.77 179.704L223.083 179.726C223.083 179.726 224.646 177.968 223.342 175.204C222.382 173.149 222.563 163.872 222.717 159.253L222.901 157.063C222.97 156.997 223.022 156.915 223.055 156.825C225.48 156.498 227.838 155.784 230.039 154.711C230.702 154.435 231.32 154.06 231.871 153.598C233.166 152.347 232.387 144.803 229.801 133.496C227.214 122.19 224.887 123.194 224.887 123.194C224.887 123.194 218.679 122.69 215.833 118.921C212.987 115.153 211.076 115.203 211.076 115.203C211.004 114.709 210.954 114.243 210.919 113.808C210.919 113.645 210.894 113.495 210.885 113.332C211.852 112.433 212.59 111.314 213.037 110.07C213.618 109.757 214.335 109.654 214.891 109.26C215.033 109.157 215.162 109.037 215.276 108.904C215.834 108.389 216.188 107.691 216.274 106.936C216.362 106.113 216.323 105.28 216.158 104.469C215.961 103.268 215.67 102.038 214.97 101.094C214.269 100.149 213.221 99.5801 212.211 99.0515C209.475 97.6149 206.732 96.1929 203.982 94.7854C203.445 94.4571 202.845 94.2441 202.221 94.1599C201.12 94.0973 200.132 94.8511 199.244 95.5673C198.889 95.8462 198.55 96.1438 198.227 96.4587C197.953 96.702 197.702 96.9712 197.48 97.2625C196.441 98.6543 196 101.275 196.457 103.014C196.601 103.565 196.91 103.724 197.292 103.718C196.726 104.844 196.431 106.086 196.432 107.346C196.438 108.726 196.791 110.081 197.458 111.289C198.126 112.496 199.086 113.516 200.251 114.255C200.251 114.43 200.251 114.602 200.266 114.768C200.279 115.41 200.258 116.052 200.204 116.691C200.204 116.691 193.323 120.41 192.551 122.168C191.778 123.926 188.929 125.183 188.929 125.183C188.929 125.183 183.496 127.948 183.496 137.747L180.65 151.565L180.134 177.946C180.134 177.946 180.49 177.634 181.072 177.19C181.053 177.365 181.038 177.546 181.022 177.731C180.945 178.739 180.918 179.75 180.944 180.761L180.906 180.999ZM215.654 249.279C215.548 249.682 215.392 250.217 215.195 250.843C215.107 250.323 215.02 249.81 214.932 249.323C215.157 249.301 215.398 249.288 215.654 249.279Z" fill="url(#paint2_linear)"/>
<path d="M206.259 246.039C206.259 246.039 205.261 250.524 203.757 252.266C202.253 254.008 200.282 257.498 198.543 257.248C196.804 256.998 196.301 260.735 199.541 261.233C202.781 261.73 209.49 260.238 209.49 260.238C209.49 260.238 215.22 257.736 215.467 256.003C215.714 254.27 213.972 245.291 213.972 245.291L206.259 246.039Z" fill="#53526B"/>
<path opacity="0.05" d="M206.259 246.039C206.259 246.039 205.261 250.524 203.757 252.266C202.253 254.008 200.282 257.498 198.543 257.248C196.804 256.998 196.301 260.735 199.541 261.233C202.781 261.73 209.49 260.238 209.49 260.238C209.49 260.238 215.22 257.736 215.467 256.003C215.714 254.27 213.972 245.291 213.972 245.291L206.259 246.039Z" fill="black"/>
<path d="M215.476 248.03C215.476 248.03 214.479 252.515 212.974 254.257C211.47 255.999 209.49 259.49 207.754 259.239C206.018 258.989 205.512 262.727 208.752 263.224C211.992 263.721 218.716 262.226 218.716 262.226C218.716 262.226 224.446 259.724 224.693 257.991C224.94 256.259 223.198 247.279 223.198 247.279L215.476 248.03Z" fill="#53526B"/>
<path d="M192.807 179.782C192.807 179.782 194.799 201.204 196.294 203.446C197.789 205.689 199.532 215.403 199.532 215.403L202.769 235.329C202.769 235.329 204.02 246.789 204.761 248.034C205.502 249.279 214.748 248.744 214.748 248.744L208.999 182.769L192.807 179.782Z" fill="#5F5D7E"/>
<path opacity="0.05" d="M192.807 179.782C192.807 179.782 194.799 201.204 196.294 203.446C197.789 205.689 199.532 215.403 199.532 215.403L202.769 235.329C202.769 235.329 204.02 246.789 204.761 248.034C205.502 249.279 214.748 248.744 214.748 248.744L208.999 182.769L192.807 179.782Z" fill="black"/>
<path d="M188.822 169.564L189.473 171.632L192.991 182.801L193.06 183.013H193.079C193.551 183.12 203.522 185.412 205.674 186.116C205.79 186.152 205.904 186.195 206.015 186.244C207.013 186.742 208.257 204.675 208.257 204.675C208.257 204.675 209.005 221.615 209.509 222.86C210.012 224.104 212.011 249.757 213.246 249.013C214.481 248.269 223.458 249.013 223.458 249.013C224.456 248.015 223.458 234.566 223.458 234.566L221.688 209.911C221.688 209.911 222.685 196.212 221.688 193.719C220.69 191.227 220.69 174.541 220.69 174.541L200.301 171.353L198.33 171.041L188.822 169.564Z" fill="#5F5D7E"/>
<path opacity="0.02" d="M189.473 171.634L192.992 182.803L193.076 183.022C193.548 183.129 203.519 185.421 205.671 186.125H205.887L200.316 171.356L200.157 170.931L198.346 171.046L189.473 171.634Z" fill="black"/>
<path opacity="0.1" d="M212.736 119.75C212.736 119.75 203.519 129.715 197.789 121.492L192.31 125.23L193.307 130.959L190.067 174.299C190.067 174.299 198.537 174.049 204.514 176.041C206.178 176.632 207.977 176.735 209.698 176.337C211.419 175.94 212.991 175.059 214.228 173.799L213.243 135.692L215.486 123.985L212.736 119.75Z" fill="black"/>
<path d="M212.736 119.003C212.736 119.003 203.519 128.968 197.789 120.745L192.31 124.483L193.307 130.212L190.067 173.552C190.067 173.552 198.537 173.302 204.514 175.294C206.178 175.885 207.977 175.987 209.698 175.59C211.419 175.193 212.991 174.312 214.228 173.052L213.243 134.945L215.486 123.238L212.736 119.003Z" fill="#53526B"/>
<path d="M194.336 163.378V164.948H193.836V163.903H192.006V164.948H191.503V163.381L194.336 163.378Z" fill="#E82127"/>
<path d="M193.889 162.871H191.956C191.83 162.84 191.714 162.776 191.621 162.684C191.529 162.593 191.463 162.478 191.431 162.352H194.412C194.379 162.478 194.313 162.593 194.221 162.684C194.128 162.776 194.013 162.84 193.886 162.871" fill="#E82127"/>
<path d="M211.366 162.37C211.333 162.495 211.268 162.609 211.176 162.699C211.084 162.79 210.969 162.855 210.844 162.886H210.031L209.99 162.902V164.954H209.49V162.902L209.443 162.886H208.63C208.505 162.854 208.391 162.789 208.299 162.698C208.207 162.608 208.141 162.495 208.107 162.37H211.366Z" fill="#E82127"/>
<path d="M193.554 170.565C193.554 170.565 193.554 177.043 192.059 179.783C190.564 182.522 181.848 181.034 181.848 181.034L183.59 171.816L193.554 170.565Z" fill="#D6DBE6"/>
<path d="M182.795 185.515C184.109 186.766 189.554 184.264 189.179 182.775C188.916 181.721 187.997 177.949 187.474 175.81L187.112 174.306C187.112 174.306 183.921 173.308 182.795 174.306C182.386 174.669 182.098 176.098 181.963 177.824C181.732 180.824 181.967 184.721 182.795 185.515Z" fill="#FDC2CC"/>
<path d="M194.79 123.484L203.507 130.209C203.507 130.209 216.458 129.461 213.221 123.234C211.812 120.495 210.961 117.504 210.719 114.433C210.614 113.3 210.614 112.16 210.719 111.027C210.719 111.027 198.762 100.08 200.257 112.522C200.375 113.477 200.444 114.437 200.464 115.399C200.642 124.739 194.79 123.484 194.79 123.484Z" fill="#FDC2CC"/>
<path opacity="0.1" d="M200.282 112.526C200.4 113.481 200.469 114.441 200.488 115.403C201.83 116.292 203.405 116.764 205.014 116.76C207.244 116.76 208.886 114.59 210.369 113.148C210.203 111.081 210.741 111.031 210.741 111.031C210.741 111.031 198.787 100.071 200.282 112.526Z" fill="black"/>
<path d="M205.014 116.263C209.554 116.263 213.234 112.583 213.234 108.044C213.234 103.504 209.554 99.8242 205.014 99.8242C200.475 99.8242 196.795 103.504 196.795 108.044C196.795 112.583 200.475 116.263 205.014 116.263Z" fill="#FDC2CC"/>
<path opacity="0.1" d="M210.866 115.888C210.866 115.888 212.236 116.013 214.976 119.747C217.715 123.482 223.692 123.982 223.692 123.982C223.692 123.982 225.935 122.984 228.425 134.194C230.914 145.403 231.662 152.875 230.417 154.12C229.172 155.365 224.19 157.113 221.688 157.113C221.688 157.113 220.94 172.805 222.185 175.544C223.43 178.284 221.935 180.03 221.935 180.03L210.988 179.282C210.988 179.282 207.25 174.55 206.503 166.33C205.755 158.111 203.266 134.694 204.511 131.954C205.755 129.215 211.235 122.24 210.988 121.492C210.741 120.745 210.866 115.888 210.866 115.888Z" fill="black"/>
<path d="M210.894 115.813C210.894 115.813 212.736 115.762 215.476 119.5C218.216 123.238 224.19 123.735 224.19 123.735C224.19 123.735 226.432 122.737 228.922 133.947C231.412 145.156 232.159 152.628 230.914 153.873C229.67 155.118 224.687 156.863 222.198 156.863C222.198 156.863 221.45 172.554 222.695 175.294C223.94 178.034 222.445 179.779 222.445 179.779L211.498 179.032C211.498 179.032 207.76 174.3 207.013 166.08C206.265 157.861 203.77 134.447 205.014 131.72C206.259 128.992 211.739 122.005 211.492 121.258C211.245 120.51 210.894 115.813 210.894 115.813Z" fill="#D6DBE6"/>
<path opacity="0.1" d="M181.967 177.821C183.158 176.911 185.407 175.494 187.477 175.807L187.115 174.303C187.115 174.303 183.924 173.305 182.798 174.303C182.383 174.666 182.098 176.092 181.967 177.821Z" fill="black"/>
<path opacity="0.1" d="M200.42 117.383C200.42 117.383 194.068 121.493 193.32 123.238C192.573 124.983 189.833 126.228 189.833 126.228C189.833 126.228 184.603 128.968 184.603 138.682L181.864 152.381L194.318 169.818C194.318 169.818 195.813 152.381 196.56 148.146C197.308 143.912 198.302 135.949 198.302 135.949C198.302 135.949 202.04 131.216 201.54 129.972C201.039 128.727 200.42 117.383 200.42 117.383Z" fill="black"/>
<path d="M200.42 117.308C200.42 117.308 193.795 120.995 193.051 122.737C192.307 124.479 189.564 125.727 189.564 125.727C189.564 125.727 184.334 128.467 184.334 138.182L181.594 151.881L181.097 178.034C181.097 178.034 185.582 173.799 188.819 175.792C192.056 177.784 194.049 169.314 194.049 169.314C194.049 169.314 195.544 151.878 196.291 147.643C197.039 143.408 198.033 135.445 198.033 135.445C198.033 135.445 201.771 130.713 201.27 129.468C200.77 128.223 200.42 117.308 200.42 117.308Z" fill="#D6DBE6"/>
<path opacity="0.1" d="M197.799 98.044C198.22 97.5075 198.708 97.0262 199.25 96.6115C200.107 95.8984 201.055 95.154 202.118 95.2166C202.72 95.2967 203.297 95.5035 203.813 95.8233C206.461 97.2183 209.102 98.6278 211.735 100.052C212.708 100.577 213.712 101.134 214.391 102.079C215.07 103.023 215.345 104.237 215.536 105.425C215.695 106.23 215.733 107.055 215.648 107.871C215.571 108.671 215.182 109.409 214.566 109.926C213.856 110.442 212.883 110.445 212.289 111.121C211.945 111.512 211.795 112.059 211.551 112.534C211.307 113.01 210.885 113.473 210.403 113.388C209.921 113.304 209.631 112.794 209.562 112.278C209.531 111.755 209.562 111.23 209.652 110.714C209.746 109.776 209.627 108.781 209.083 108.084C208.708 107.608 208.17 107.321 207.807 106.833C206.938 105.657 207.335 103.705 206.381 102.601C206.104 102.312 205.755 102.102 205.371 101.993C204.986 101.883 204.579 101.877 204.192 101.975C203.419 102.138 202.712 102.557 202.002 102.914C201.043 103.398 200.038 103.785 199.003 104.071C198.133 104.309 197.126 104.878 196.829 103.721C196.376 102.022 196.798 99.4233 197.799 98.044Z" fill="black"/>
<path d="M198.049 97.7969C198.471 97.2604 198.958 96.7791 199.5 96.3644C200.357 95.6513 201.305 94.907 202.368 94.9695C202.97 95.0496 203.548 95.2564 204.063 95.5763C206.709 96.9712 208.908 95.6513 211.986 99.8048C212.642 100.693 213.962 100.887 214.641 101.832C215.32 102.776 215.595 103.99 215.786 105.178C215.945 105.983 215.983 106.808 215.898 107.624C215.821 108.424 215.432 109.162 214.816 109.679C214.106 110.195 213.133 110.198 212.539 110.874C212.195 111.265 212.045 111.812 211.801 112.287C211.557 112.763 211.135 113.226 210.653 113.141C210.172 113.057 209.881 112.547 209.812 112.031C209.781 111.508 209.812 110.983 209.903 110.467C209.996 109.529 209.878 108.534 209.333 107.837C208.958 107.361 208.42 107.074 208.057 106.586C207.188 105.41 207.585 103.458 206.631 102.354C206.354 102.065 206.006 101.855 205.621 101.745C205.236 101.636 204.829 101.63 204.442 101.728C203.669 101.891 202.962 102.31 202.252 102.667C201.293 103.151 200.289 103.538 199.253 103.824C198.383 104.062 197.376 104.631 197.079 103.474C196.623 101.775 197.048 99.1731 198.049 97.7969Z" fill="#865A61"/>
<path opacity="0.1" d="M220.499 135.814C220.499 135.814 223.821 144.284 221.328 147.771L215.848 146.52C215.848 146.52 220.831 148.015 220.083 145.025C219.336 142.035 220.499 135.814 220.499 135.814Z" fill="black"/>
<path opacity="0.1" d="M222.313 156.741C222.313 156.741 215.088 157.238 213.096 155.743C215.72 157.746 218.818 159.034 222.088 159.481L222.313 156.741Z" fill="black"/>
<path opacity="0.1" d="M191.19 140.789C191.19 140.789 187.452 152.249 187.703 153.991C187.953 155.733 188.45 174.915 188.45 174.915L189.198 174.665L188.947 153.741L191.19 140.789Z" fill="black"/>
<path d="M223.192 154.796L137.807 85.9873C137.31 85.4905 136.72 85.0967 136.071 84.8283C135.422 84.56 134.726 84.4224 134.023 84.4234H130.395C137.645 75.1324 141.078 63.4257 139.995 51.6905C138.911 39.9553 133.393 29.0753 124.564 21.2689C115.735 13.4624 104.261 9.31741 92.4814 9.67905C80.7018 10.0407 69.5037 14.8817 61.1704 23.215C52.837 31.5484 47.996 42.7465 47.6344 54.526C47.2727 66.3056 51.4177 77.7795 59.2242 86.6084C67.0306 95.4372 77.9107 100.956 89.6459 102.04C101.381 103.123 113.088 99.6898 122.379 92.4396V96.0645C122.378 96.7672 122.515 97.4632 122.784 98.1125C123.052 98.7619 123.446 99.352 123.943 99.849L209.327 168.657C209.822 169.156 210.41 169.551 211.058 169.821C211.706 170.091 212.401 170.23 213.102 170.23C213.804 170.23 214.499 170.091 215.147 169.821C215.795 169.551 216.383 169.156 216.878 168.657L223.17 162.371C224.174 161.367 224.74 160.007 224.745 158.588C224.749 157.168 224.191 155.805 223.192 154.796ZM93.8734 84.4234C88.2355 84.4234 82.7243 82.7516 78.0366 79.6194C73.3489 76.4872 69.6953 72.0353 67.5378 66.8266C65.3803 61.6179 64.8158 55.8864 65.9157 50.3569C67.0156 44.8274 69.7305 39.7482 73.717 35.7617C77.7036 31.7751 82.7827 29.0603 88.3123 27.9604C93.8418 26.8605 99.5732 27.425 104.782 29.5825C109.991 31.74 114.443 35.3936 117.575 40.0813C120.707 44.769 122.379 50.2802 122.379 55.918C122.382 59.6625 121.646 63.3709 120.215 66.8309C118.783 70.291 116.684 73.435 114.037 76.083C111.389 78.7311 108.246 80.8312 104.786 82.2634C101.326 83.6956 97.6179 84.4317 93.8734 84.4297V84.4234Z" fill="url(#paint3_linear)"/>
<path d="M223.817 154.17L138.433 85.3613C137.936 84.8645 137.346 84.4707 136.696 84.2024C136.047 83.934 135.351 83.7964 134.648 83.7974H131.02C138.27 74.5064 141.704 62.7998 140.62 51.0646C139.537 39.3294 134.018 28.4493 125.189 20.6429C116.36 12.8364 104.886 8.69144 93.1066 9.05307C81.327 9.4147 70.1289 14.2557 61.7956 22.5891C53.4623 30.9224 48.6212 42.1205 48.2596 53.9C47.898 65.6796 52.043 77.1536 59.8494 85.9824C67.6559 94.8112 78.5359 100.33 90.2711 101.414C102.006 102.497 113.713 99.0638 123.004 91.8136V95.4386C123.003 96.1412 123.141 96.8372 123.409 97.4866C123.677 98.136 124.071 98.7261 124.568 99.223L209.953 168.031C210.447 168.53 211.035 168.925 211.683 169.195C212.331 169.465 213.026 169.604 213.728 169.604C214.43 169.604 215.125 169.465 215.772 169.195C216.42 168.925 217.008 168.53 217.503 168.031L223.796 161.745C224.8 160.741 225.366 159.381 225.37 157.962C225.374 156.542 224.816 155.179 223.817 154.17ZM94.4986 83.7974C88.8608 83.7974 83.3496 82.1256 78.6619 78.9934C73.9742 75.8612 70.3206 71.4093 68.1631 66.2006C66.0056 60.9919 65.4411 55.2604 66.541 49.7309C67.6408 44.2014 70.3557 39.1223 74.3423 35.1357C78.3288 31.1492 83.408 28.4343 88.9375 27.3344C94.467 26.2345 100.198 26.799 105.407 28.9565C110.616 31.114 115.068 34.7676 118.2 39.4553C121.332 44.143 123.004 49.6542 123.004 55.2921C123.007 59.0366 122.272 62.7449 120.84 66.205C119.409 69.665 117.309 72.809 114.662 75.457C112.014 78.1051 108.871 80.2053 105.411 81.6375C101.951 83.0696 98.2431 83.8058 94.4986 83.8037V83.7974Z" fill="#6C63FF"/>
<path d="M217.469 147.896C217.469 147.896 205.005 133.603 206.756 143.411C208.007 150.386 212.733 154.123 214.976 154.871C217.218 155.618 217.469 147.896 217.469 147.896Z" fill="#FDC2CC"/>
<path d="M220.458 134.694C220.458 134.694 220.709 143.912 221.953 145.156C223.198 146.401 221.206 147.896 221.206 147.896L216.224 146.645C216.224 146.645 217.475 154.865 212.239 153.87C212.239 153.87 215.726 157.107 219.214 157.607C222.701 158.108 222.451 156.86 222.451 156.86L227.68 150.633L220.458 134.694Z" fill="#D6DBE6"/>
<path d="M221.838 156.994L226.892 155.884L226.217 153.554L223.089 152.303L219.023 154.179L221.838 156.994Z" fill="#D6DBE6"/>
<path d="M97.617 67.106L104.345 61.9172C104.345 61.9172 99.8376 62.8837 99.9658 55.6807C99.9643 55.6567 99.9643 55.6327 99.9658 55.6088C99.9658 54.9582 100.028 54.2451 100.122 53.4601C101.276 43.8488 92.0497 52.306 92.0497 52.306C92.1292 53.1569 92.1292 54.0134 92.0497 54.8644C92.0497 54.8863 92.0497 54.9113 92.0497 54.9332C91.8673 57.3017 91.2144 59.6101 90.1294 61.7233C87.6241 66.5274 97.617 67.106 97.617 67.106Z" fill="#FDC2CC"/>
<path opacity="0.1" d="M92.9101 53.5289C94.0517 54.6392 94.7491 56.6565 96.4662 56.6565C97.7085 56.6592 98.924 56.2947 99.9598 55.6088C99.9598 54.9582 100.022 54.2451 100.116 53.4601C101.27 43.8488 92.0437 52.306 92.0437 52.306C92.0437 52.306 93.032 51.965 92.9101 53.5289Z" fill="black"/>
<path d="M96.4659 56.343C99.969 56.343 102.809 53.5032 102.809 50.0001C102.809 46.497 99.969 43.6572 96.4659 43.6572C92.9628 43.6572 90.123 46.497 90.123 50.0001C90.123 53.5032 92.9628 56.343 96.4659 56.343Z" fill="#FDC2CC"/>
<path opacity="0.1" d="M102.549 41.8774C102.186 41.4176 101.765 41.0057 101.298 40.6513C100.566 40.0415 99.7533 39.4003 98.8432 39.4566C98.3282 39.5251 97.8335 39.7021 97.3919 39.9758C95.1244 41.1705 93.2447 40.0415 90.6081 43.5945C90.0451 44.3545 88.916 44.5328 88.3343 45.3303C87.7525 46.1279 87.5179 47.1756 87.3522 48.1952C87.2152 48.885 87.1825 49.5913 87.2552 50.2908C87.3247 50.9772 87.6618 51.6087 88.1935 52.0485C88.8003 52.4895 89.6354 52.4926 90.1452 53.0712C90.4015 53.4481 90.6115 53.8545 90.7707 54.2816C90.9771 54.6882 91.3399 55.0729 91.7528 55.0135C92.1656 54.9541 92.4127 54.5068 92.4721 54.0752C92.498 53.6285 92.4717 53.1803 92.3939 52.7397C92.3158 51.9484 92.4158 51.0852 92.8819 50.4878C93.1946 50.0781 93.6638 49.8341 93.9734 49.4181C94.7178 48.4142 94.38 46.7284 95.1963 45.7963C95.4351 45.5512 95.7345 45.3737 96.0641 45.282C96.3938 45.1902 96.7419 45.1875 97.0729 45.274C97.7304 45.4617 98.361 45.7329 98.9495 46.0809C99.7706 46.4954 100.631 46.8275 101.517 47.0724C102.262 47.2757 103.125 47.7636 103.378 46.7596C103.775 45.2834 103.403 43.0565 102.549 41.8774Z" fill="black"/>
<path d="M102.549 41.5649C102.186 41.1051 101.765 40.6932 101.298 40.3388C100.566 39.729 99.7533 39.0878 98.8432 39.1441C98.3282 39.2126 97.8335 39.3896 97.3919 39.6633C95.1244 40.858 93.2447 39.729 90.6081 43.282C90.0451 44.042 88.916 44.2203 88.3343 45.0178C87.7525 45.8154 87.5179 46.8631 87.3522 47.8827C87.2152 48.5725 87.1825 49.2788 87.2552 49.9783C87.3247 50.6647 87.6618 51.2962 88.1935 51.736C88.8003 52.177 89.6354 52.1801 90.1452 52.7587C90.4015 53.1356 90.6115 53.542 90.7707 53.9691C90.9771 54.3757 91.3399 54.7604 91.7528 54.701C92.1656 54.6416 92.4127 54.1943 92.4721 53.7627C92.498 53.316 92.4717 52.8678 92.3939 52.4272C92.3158 51.6359 92.4158 50.7727 92.8819 50.1753C93.1946 49.7656 93.6638 49.5216 93.9734 49.1056C94.7178 48.1017 94.38 46.4159 95.1963 45.4838C95.4351 45.2387 95.7345 45.0612 96.0641 44.9695C96.3938 44.8777 96.7419 44.875 97.0729 44.9615C97.7304 45.1492 98.361 45.4204 98.9495 45.7684C99.7706 46.1829 100.631 46.515 101.517 46.7599C102.262 46.9632 103.125 47.4511 103.378 46.4471C103.775 44.9709 103.403 42.744 102.549 41.5649Z" fill="#865A61"/>
<path opacity="0.1" d="M90.1233 70.4424L89.9982 75.2434C91.8158 75.7374 93.6912 75.9866 95.5748 75.9846C95.8875 75.9846 96.2159 75.9846 96.535 75.9627C98.2053 75.8908 99.8611 75.6199 101.467 75.1558H101.499C101.796 75.0682 102.09 74.9775 102.381 74.8775H102.412L102.678 74.7836C103.69 74.4271 104.673 73.9921 105.618 73.4825L105.677 73.4512C105.78 73.3949 105.883 73.3386 105.99 73.2792L105.505 66.8081L106.278 62.37L102.049 59.4894C101.812 59.8322 101.546 60.1544 101.255 60.4527C100.837 60.8887 100.348 61.2504 99.8096 61.5224C96.7758 63.0174 93.3229 60.6404 91.6058 59.1704L91.2148 58.8232C90.7707 58.4198 90.5174 58.1445 90.5174 58.1445L88.4031 61.4098L90.1233 70.4424Z" fill="black"/>
<path d="M90.1233 70.7549L89.9982 75.5559C91.8158 76.0499 93.6912 76.2991 95.5748 76.2971C95.8875 76.2971 96.2159 76.2971 96.535 76.2752C98.2053 76.2033 99.8611 75.9324 101.467 75.4683H101.499C101.796 75.3807 102.09 75.29 102.381 75.19H102.412L102.678 75.0961C103.69 74.7396 104.673 74.3046 105.618 73.795L105.677 73.7637C105.78 73.7074 105.883 73.6511 105.99 73.5917L105.505 67.1206L106.278 62.6825L102.049 59.8019C101.812 60.1447 101.546 60.4669 101.255 60.7652C100.837 61.2012 100.348 61.5629 99.8096 61.8349C96.7758 63.3299 93.3229 60.9529 91.6058 59.4829L91.2148 59.1357C90.7707 58.7323 90.5174 58.457 90.5174 58.457L88.4031 61.7223L90.1233 70.7549Z" fill="#53526B"/>
<path d="M101.846 71.1403C101.846 71.1403 102.077 72.9825 102.38 75.1844H102.412L102.678 75.0906C103.69 74.734 104.673 74.299 105.618 73.7895L105.677 73.7582C105.78 73.7019 105.883 73.6456 105.99 73.5862C107.376 72.8079 108.671 71.8763 109.849 70.8088L109.953 70.7119C110.599 70.1269 111.206 69.5 111.77 68.8353L111.835 68.7571C110.719 64.8819 108.395 63.6621 108.395 63.6621C108.395 63.6621 106.281 62.6988 105.702 61.3539C105.123 60.009 100.016 57.166 100.016 57.166V57.1879C100.016 57.4287 99.9347 59.6337 99.8127 61.8512C99.7345 63.2931 99.6375 64.7412 99.5249 65.6607C99.5006 65.9594 99.4461 66.2549 99.3623 66.5427C98.9651 67.4904 101.846 71.1403 101.846 71.1403Z" fill="#555388"/>
<defs>
<linearGradient id="paint0_linear" x1="160.849" y1="248.524" x2="160.849" y2="12.29" gradientUnits="userSpaceOnUse">
<stop stop-color="#808080" stop-opacity="0.25"/>
<stop offset="0.54" stop-color="#808080" stop-opacity="0.12"/>
<stop offset="1" stop-color="#808080" stop-opacity="0.1"/>
</linearGradient>
<linearGradient id="paint1_linear" x1="11698.4" y1="19375.8" x2="11698.4" y2="14795" gradientUnits="userSpaceOnUse">
<stop stop-color="#808080" stop-opacity="0.25"/>
<stop offset="0.54" stop-color="#808080" stop-opacity="0.12"/>
<stop offset="1" stop-color="#808080" stop-opacity="0.1"/>
</linearGradient>
<linearGradient id="paint2_linear" x1="-54689.7" y1="147519" x2="-54689.7" y2="55293.5" gradientUnits="userSpaceOnUse">
<stop stop-color="#808080" stop-opacity="0.25"/>
<stop offset="0.54" stop-color="#808080" stop-opacity="0.12"/>
<stop offset="1" stop-color="#808080" stop-opacity="0.1"/>
</linearGradient>
<linearGradient id="paint3_linear" x1="84807" y1="91239.1" x2="84807" y2="8772.11" gradientUnits="userSpaceOnUse">
<stop stop-color="#808080" stop-opacity="0.25"/>
<stop offset="0.54" stop-color="#808080" stop-opacity="0.12"/>
<stop offset="1" stop-color="#808080" stop-opacity="0.1"/>
</linearGradient>
</defs>
</svg>
