<svg width="50" height="50" viewBox="0 0 50 50" fill="none" xmlns="http://www.w3.org/2000/svg">
<path d="M25 50C38.8071 50 50 38.8071 50 25C50 11.1929 38.8071 0 25 0C11.1929 0 0 11.1929 0 25C0 38.8071 11.1929 50 25 50Z" fill="#B8E986" fill-opacity="0.52"/>
<path d="M37.284 11H28.5996C28.1444 11.0012 27.708 11.1818 27.385 11.5025L12.5028 26.3848C11.8324 27.0553 11.8324 28.1423 12.5028 28.8129L21.1871 37.4972C21.8577 38.1676 22.9447 38.1676 23.6152 37.4972L38.4974 22.615C38.8204 22.2935 39.0013 21.8562 39 21.4004V12.7172C39 11.7692 38.2319 11.0006 37.284 11ZM32.7049 20.1583C31.1242 20.1583 29.8429 18.877 29.8429 17.2964C29.8429 15.7157 31.1242 14.4344 32.7049 14.4344C34.2855 14.4344 35.5668 15.7157 35.5668 17.2963C35.5668 18.8769 34.2855 20.1583 32.7049 20.1583Z" fill="#4CAF50"/>
</svg>
