<svg width="53" height="41" viewBox="0 0 53 41" fill="none" xmlns="http://www.w3.org/2000/svg">
<path d="M3.53333 0C1.58605 0 0 1.58605 0 3.53333V30.6222C0 32.5695 1.58605 34.1556 3.53333 34.1556H35.8486C37.0626 37.5852 40.3258 40.0444 44.1667 40.0444C49.0382 40.0444 53 36.0826 53 31.2111C53 27.3702 50.5408 24.107 47.1111 22.8931V3.53333C47.1111 1.58605 45.5251 0 43.5778 0H3.53333ZM3.53333 1.17778H43.5778C44.8929 1.17778 45.9333 2.21817 45.9333 3.53333V22.5618C45.3642 22.4463 44.7694 22.3778 44.1667 22.3778C44.0361 22.3778 43.9094 22.3907 43.7802 22.396L36.4927 16.6176C36.2858 16.4518 35.9635 16.4518 35.7566 16.6176L27.1441 23.9051L16.3417 11.9617C16.0088 11.6807 15.7408 11.7351 15.5135 11.9252L1.17778 24.6045V3.53333C1.17778 2.21817 2.21817 1.17778 3.53333 1.17778ZM28.2667 7.06667C26.3222 7.06667 24.7333 8.65555 24.7333 10.6C24.7333 12.5445 26.3222 14.1333 28.2667 14.1333C30.2111 14.1333 31.8 12.5445 31.8 10.6C31.8 8.65555 30.2111 7.06667 28.2667 7.06667ZM28.2667 8.24444C29.5746 8.24444 30.6222 9.29208 30.6222 10.6C30.6222 11.9079 29.5746 12.9556 28.2667 12.9556C26.9587 12.9556 25.9111 11.9079 25.9111 10.6C25.9111 9.29208 26.9587 8.24444 28.2667 8.24444ZM15.8632 13.1948L26.6472 25.1198C26.8502 25.3502 27.2436 25.3761 27.4753 25.1751L36.1431 17.8324L42.1608 22.6171C38.2504 23.5259 35.3333 27.0277 35.3333 31.2111C35.3333 31.8139 35.4018 32.4086 35.5174 32.9778H3.53333C2.21817 32.9778 1.17778 31.9374 1.17778 30.6222V26.1687L15.8632 13.1948ZM44.1667 23.5556C48.4017 23.5556 51.8222 26.9761 51.8222 31.2111C51.8222 35.4462 48.4017 38.8667 44.1667 38.8667C39.9316 38.8667 36.5111 35.4462 36.5111 31.2111C36.5111 26.9761 39.9316 23.5556 44.1667 23.5556ZM44.1667 26.5C44.0098 26.5 43.8674 26.5655 43.7618 26.6656C42.7792 27.6424 41.7854 28.6297 40.799 29.61C40.5887 29.84 40.569 30.2266 40.799 30.4566C41.0289 30.6865 41.4155 30.6865 41.6455 30.4566L43.5778 28.5059V35.3333C43.5778 35.6586 43.8414 35.9222 44.1667 35.9222C44.4919 35.9222 44.7556 35.6586 44.7556 35.3333V28.5059L46.6878 30.4566C46.904 30.6749 47.3044 30.6865 47.5344 30.4566C47.7643 30.2266 47.7482 29.8331 47.5344 29.61C46.5506 28.6321 45.5449 27.6335 44.5715 26.6656C44.466 26.5655 44.3236 26.5 44.1667 26.5Z" fill="#CFD0D1"/>
</svg>
