<svg width="50" height="50" viewBox="0 0 50 50" fill="none" xmlns="http://www.w3.org/2000/svg">
<path d="M25 50C38.8071 50 50 38.8071 50 25C50 11.1929 38.8071 0 25 0C11.1929 0 0 11.1929 0 25C0 38.8071 11.1929 50 25 50Z" fill="#FFD6D6"/>
<path d="M33.4032 22.7258V23.1219C33.4032 23.6074 33.4815 24.0896 33.635 24.55L34.5322 27.2419H36.2258V21.0322H35.0967C34.1615 21.0323 33.4032 21.7904 33.4032 22.7258Z" fill="#5A4146"/>
<path d="M41.1327 23.8985L40.1774 27.2419L35.6613 23.2904C35.0377 23.2904 34.5323 22.7848 34.5323 22.1613C34.5323 21.226 35.2905 20.4678 36.2258 20.4678H40.1774C40.8009 20.4678 41.3064 20.9733 41.3064 21.5968V22.6579C41.3065 23.0774 41.2479 23.495 41.1327 23.8985Z" fill="#694B4B"/>
<path d="M39.048 28.9358H35.661V31.4343H39.048V28.9358Z" fill="#E6AF78"/>
<path d="M35.6613 29.9725C36.1848 30.1852 36.7558 30.305 37.3548 30.305C37.9538 30.305 38.5248 30.1852 39.0483 29.9725V28.9355H35.6613V29.9725Z" fill="#D29B6E"/>
<path d="M41.7716 31.0831L39.0482 30.305L37.3548 31.4288L35.6613 30.3049L32.938 31.0831C32.2109 31.2908 31.7097 31.9553 31.7097 32.7115V36.8387C31.7097 37.1505 31.9624 37.4032 32.2742 37.4032H42.4355C42.7472 37.4032 43 37.1505 43 36.8387V32.7115C43 31.9553 42.4987 31.2908 41.7716 31.0831Z" fill="#D5DCED"/>
<path d="M37.9193 37.4032H36.7903L37.0726 31.434H37.6371L37.9193 37.4032Z" fill="#AFB9D2"/>
<path d="M37.3548 29.5C35.4842 29.5 33.9677 27.9835 33.9677 26.1129V25.4515C33.9677 25.1521 34.0867 24.8649 34.2984 24.6532L35.3221 23.6295C35.5388 23.4127 35.8353 23.2881 36.1416 23.2977C37.9462 23.3547 39.5435 23.7412 40.4166 24.594C40.6304 24.8028 40.7419 25.0948 40.7419 25.3936V26.1129C40.7419 27.9836 39.2255 29.5 37.3548 29.5Z" fill="#F0C087"/>
<path d="M35.6613 25.5916C35.6613 24.9404 36.2082 24.4228 36.858 24.4642C37.9977 24.5369 39.6887 24.7274 40.7262 25.2264C40.6924 24.9882 40.5901 24.7634 40.4166 24.594C39.5435 23.7412 37.9462 23.3546 36.1416 23.2977L36.1416 23.2978V23.2977C35.8353 23.2881 35.5388 23.4127 35.3221 23.6294L34.2985 24.6531C34.0867 24.8648 33.9677 25.1519 33.9677 25.4514V26.1128C33.9677 27.6575 35.0028 28.958 36.4164 29.3653C35.9459 28.7848 35.6613 28.0479 35.6613 27.2418L35.6613 25.5916Z" fill="#E6AF78"/>
<path d="M40.7419 34.3936C40.7419 33.9444 40.9204 33.5137 41.238 33.1961L42.6911 31.743C42.8853 32.0206 43 32.3548 43 32.7115V36.8388C43 37.1506 42.7473 37.4033 42.4355 37.4033H40.7419V34.3936Z" fill="#C7CFE2"/>
<path d="M37.6371 32.563H37.0726C36.9167 32.563 36.7903 32.4366 36.7903 32.2807V31.434H37.9193V32.2807C37.9193 32.4366 37.793 32.563 37.6371 32.563Z" fill="#959CB5"/>
<path d="M37.3548 31.4288L36.398 32.1596C36.2332 32.2855 35.9949 32.2351 35.8953 32.0531L35.0369 30.4856L35.3824 29.9587C35.4591 29.8418 35.6224 29.8219 35.7248 29.9169L37.3548 31.4288Z" fill="#C7CFE2"/>
<path d="M37.3548 31.4288L38.3116 32.1597C38.4765 32.2856 38.7148 32.2352 38.8144 32.0532L39.6727 30.4857L39.3272 29.9587C39.2506 29.8419 39.0872 29.822 38.9848 29.917L37.3548 31.4288Z" fill="#C7CFE2"/>
<path d="M18.105 29.2643C17.6226 27.9861 17.24 25.7888 17.1574 24.6448C17.0001 22.4679 15.3596 20.6933 13.1419 20.6933C10.9241 20.6933 9.28358 22.4679 9.12636 24.6448C9.04371 25.7888 8.6611 27.9861 8.17869 29.2643C8.07239 29.5461 8.1951 29.8568 8.47257 29.9826C8.9895 30.2168 10.0917 30.6758 11.4209 30.8545H14.8627C16.1858 30.6754 17.2956 30.2161 17.8111 29.9826C18.0886 29.8568 18.2113 29.5461 18.105 29.2643Z" fill="#5A4146"/>
<path d="M17.8112 29.9826C18.0886 29.8568 18.2113 29.5461 18.105 29.2644C17.6226 27.9862 17.24 25.7889 17.1574 24.6449C17.0002 22.4679 15.3596 20.6933 13.1419 20.6933C13.1363 20.6933 13.1308 20.6933 13.1252 20.6934C11.4235 20.7003 10.8222 23.021 12.287 23.8869C12.375 23.939 12.4314 23.964 12.4314 23.964L13.7145 30.8546H14.8628C16.1858 30.6753 17.2957 30.2161 17.8112 29.9826Z" fill="#694B4B"/>
<path d="M17.2251 31.9879L15.3983 31.0746C15.0157 30.8833 14.7741 30.4923 14.7741 30.0646L14.7743 28.371H11.3871V30.0647C11.3871 30.4924 11.1455 30.8832 10.7629 31.0745L8.93611 31.9879C8.36237 32.2748 8 32.8611 8 33.5026V36.8386C8 37.1504 8.25272 37.4031 8.56451 37.4031H17.5968C17.9086 37.4031 18.1613 37.1504 18.1613 36.8386V33.5026C18.1613 32.8611 17.7988 32.2748 17.2251 31.9879Z" fill="#E6AF78"/>
<path d="M13.0807 30.629C13.6885 30.629 14.2707 30.5037 14.8045 30.2807C14.7905 30.2095 14.7741 30.1387 14.7741 30.0646L14.7743 28.371H11.3871V30.0646C11.3871 30.1392 11.3707 30.2103 11.3566 30.2818C11.8907 30.5036 12.4726 30.629 13.0807 30.629Z" fill="#D29B6E"/>
<path d="M17.2251 31.988L15.9237 31.3373C15.3202 32.2691 14.2735 32.8872 13.0807 32.8872C11.8878 32.8872 10.8411 32.2691 10.2376 31.3372L8.93618 31.988C8.36244 32.2748 8 32.8612 8 33.5026V36.8387C8 37.1505 8.25272 37.4032 8.56451 37.4032H17.5968C17.9086 37.4032 18.1613 37.1505 18.1613 36.8387V33.5027C18.1613 32.8612 17.7988 32.2748 17.2251 31.988Z" fill="#D5DCED"/>
<path d="M13.0807 29.5C11.3586 29.5 9.93669 28.2148 9.7217 26.5513C9.69053 26.3103 9.8064 26.074 10.0234 25.9645C10.2833 25.8334 10.661 25.6123 11.0226 25.2897C11.4253 24.9304 11.6615 24.5515 11.795 24.2733C11.9099 24.0338 12.174 23.8983 12.4315 23.964C14.4191 24.4709 15.7723 25.505 16.2632 25.9272C16.395 26.0405 16.471 26.2077 16.4574 26.381C16.3206 28.1263 14.8611 29.5 13.0807 29.5Z" fill="#F0C087"/>
<path d="M16.2631 25.9271C15.7722 25.5049 14.419 24.4708 12.4314 23.9639C12.1739 23.8982 11.9098 24.0337 11.7949 24.2732C11.6939 24.4839 11.5269 24.7523 11.279 25.0263C11.279 25.027 11.2788 25.0275 11.2787 25.0282C11.2018 25.1153 11.1199 25.2027 11.0226 25.2897C10.6609 25.6124 10.2833 25.8334 10.0234 25.9645C9.80638 26.0739 9.69058 26.3103 9.72168 26.5514C9.9148 28.0454 11.0839 29.2345 12.5671 29.4614C11.8913 29.0016 11.3871 28.3692 11.3871 27.242V26.437C11.5154 26.3423 11.6445 26.2479 11.7742 26.1321C12.088 25.8521 12.3619 25.5283 12.5816 25.1797C14.1021 25.6542 15.1329 26.4445 15.5238 26.7805C15.6307 26.8743 15.8962 27.119 16.2069 27.4104C16.3405 27.0888 16.4289 26.7437 16.4573 26.3811C16.4709 26.2077 16.3949 26.0405 16.2631 25.9271Z" fill="#E6AF78"/>
<path d="M8.34412 32.485C8.12667 32.7736 8 33.1276 8 33.5026V36.8387C8 37.1504 8.25272 37.4032 8.56451 37.4032H10.258V34.5587C10.258 34.2158 10.1021 33.8913 9.83429 33.6771L8.34412 32.485Z" fill="#C7CFE2"/>
<path d="M33.6103 31.2175L28.887 29.4999L25.5 30.629L22.1129 29.5L17.3896 31.2176C16.4973 31.5421 15.9032 32.3902 15.9032 33.3397V36.8387C15.9032 37.1504 16.1559 37.4032 16.4677 37.4032H34.5322C34.844 37.4032 35.0967 37.1504 35.0967 36.8387V33.3397C35.0967 32.3901 34.5028 31.542 33.6103 31.2175Z" fill="#FF507D"/>
<path d="M24.9086 31.7581L24.371 37.4032H26.629L26.0914 31.7581H24.9086Z" fill="#707487"/>
<path d="M26.0927 32.5336H24.9073C24.689 32.5336 24.5121 32.3567 24.5121 32.1384V30.629H26.4878V32.1384C26.4879 32.3566 26.3109 32.5336 26.0927 32.5336Z" fill="#5B5D6E"/>
<path d="M34.4891 31.8011C34.8703 32.2102 35.0967 32.7551 35.0967 33.3396V36.8387C35.0967 37.1504 34.844 37.4032 34.5322 37.4032H31.7097V35.5159C31.7097 34.917 31.9476 34.3426 32.371 33.9192L34.4891 31.8011Z" fill="#D23C69"/>
<path d="M31.7097 17.8581V13.129C31.7097 12.5054 31.2042 12 30.5807 12H23.8065C21.3123 12 19.2903 14.0219 19.2903 16.5162V17.8581C19.2903 18.4649 19.3881 19.0677 19.58 19.6433L19.7679 20.207C19.8255 20.3797 19.8548 20.5605 19.8548 20.7425V21.0323H31.1451V20.7425C31.1451 20.5605 31.1744 20.3797 31.232 20.207L31.4199 19.6433C31.6119 19.0676 31.7097 18.4648 31.7097 17.8581Z" fill="#5A4146"/>
<path d="M22.1129 14.2933C22.1129 15.5599 23.1397 16.5866 24.4063 16.5866H24.7238L24.877 21.0322H31.1451V20.7425C31.1451 20.5604 31.1744 20.3796 31.232 20.207L31.4199 19.6432C31.6118 19.0676 31.7096 18.4648 31.7096 17.8581V13.129C31.7096 12.5054 31.2041 12 30.5806 12H24.4063C23.1397 12 22.1129 13.0268 22.1129 14.2933Z" fill="#694B4B"/>
<path d="M28.8872 25.5486H22.1128V30.6291H28.8872V25.5486Z" fill="#E6AF78"/>
<path d="M22.1129 27.4572C23.1102 28.0349 24.2647 28.3709 25.5 28.3709C26.7353 28.3709 27.8899 28.0349 28.8871 27.4572V25.5483H22.1129L22.1129 27.4572Z" fill="#D29B6E"/>
<path d="M25.5 30.6291L23.6995 32.4295C23.4575 32.6715 23.0576 32.6442 22.8507 32.3716L20.9839 29.9118L21.4722 28.8827C21.6163 28.5791 21.9921 28.4678 22.2783 28.6442L25.5 30.6291Z" fill="#D23C69"/>
<path d="M25.5 30.6291L27.3004 32.4295C27.5424 32.6715 27.9424 32.6442 28.1493 32.3716L30.0161 29.9118L29.5278 28.8827C29.3837 28.5791 29.0079 28.4678 28.7217 28.6442L25.5 30.6291Z" fill="#D23C69"/>
<path d="M25.5 27.242C22.3823 27.242 19.8548 24.7145 19.8548 21.5968V20.9354C19.8548 20.636 19.9738 20.3488 20.1855 20.137L20.6531 19.6694C20.8648 19.4577 20.9838 19.1705 20.9838 18.871V17.5178C20.9838 17.2564 21.1593 17.0293 21.4137 16.9692C22.7488 16.6538 26.9035 15.9069 29.7309 17.9864C29.9145 18.1214 30.016 18.3432 30.016 18.5711V18.871C30.016 19.1704 30.135 19.4576 30.3467 19.6694L30.8143 20.137C31.026 20.3487 31.145 20.6359 31.145 20.9354V21.5968C31.1452 24.7145 28.6177 27.242 25.5 27.242Z" fill="#F0C087"/>
<path d="M29.731 17.9864C27.7424 16.5238 25.1009 16.4605 23.242 16.6607C22.4578 16.7452 21.8099 16.8757 21.4138 16.9692C21.1595 17.0293 20.9839 17.2564 20.9839 17.5178V18.8709C20.9839 19.1704 20.865 19.4576 20.6532 19.6694L20.1855 20.137C19.9738 20.3488 19.8548 20.636 19.8548 20.9355V21.5968C19.8548 24.4832 22.0225 26.8594 24.8178 27.1968C23.8438 26.1824 23.2419 24.8077 23.2419 23.2903V19.1641C23.2419 18.592 23.6673 18.1139 24.2349 18.0427C25.5896 17.8728 28.0709 17.7707 30.016 18.8711V18.5711C30.0162 18.3432 29.9144 18.1213 29.731 17.9864Z" fill="#E6AF78"/>
<path d="M16.5109 31.8011C16.1297 32.2102 15.9032 32.7551 15.9032 33.3396V36.8387C15.9032 37.1504 16.1559 37.4032 16.4677 37.4032H19.2903V35.5159C19.2903 34.917 19.0524 34.3426 18.6289 33.9192L16.5109 31.8011Z" fill="#D23C69"/>
</svg>
